G75*
G70*
%OFA0B0*%
%FSLAX25Y25*%
%IPPOS*%
%LPD*%
%AMOC8*
5,1,8,0,0,1.08239X$1,22.5*
%
%AMM105*
21,1,0.033470,0.026770,-0.000000,0.000000,90.000000*
21,1,0.026770,0.033470,-0.000000,0.000000,90.000000*
1,1,0.006690,0.013390,0.013390*
1,1,0.006690,0.013390,-0.013390*
1,1,0.006690,-0.013390,-0.013390*
1,1,0.006690,-0.013390,0.013390*
%
%AMM133*
21,1,0.086610,0.073230,-0.000000,-0.000000,90.000000*
21,1,0.069290,0.090550,-0.000000,-0.000000,90.000000*
1,1,0.017320,0.036610,0.034650*
1,1,0.017320,0.036610,-0.034650*
1,1,0.017320,-0.036610,-0.034650*
1,1,0.017320,-0.036610,0.034650*
%
%AMM134*
21,1,0.094490,0.111020,-0.000000,-0.000000,180.000000*
21,1,0.075590,0.129920,-0.000000,-0.000000,180.000000*
1,1,0.018900,-0.037800,0.055510*
1,1,0.018900,0.037800,0.055510*
1,1,0.018900,0.037800,-0.055510*
1,1,0.018900,-0.037800,-0.055510*
%
%AMM135*
21,1,0.074800,0.083460,-0.000000,-0.000000,180.000000*
21,1,0.059840,0.098430,-0.000000,-0.000000,180.000000*
1,1,0.014960,-0.029920,0.041730*
1,1,0.014960,0.029920,0.041730*
1,1,0.014960,0.029920,-0.041730*
1,1,0.014960,-0.029920,-0.041730*
%
%AMM136*
21,1,0.078740,0.053540,-0.000000,-0.000000,0.000000*
21,1,0.065350,0.066930,-0.000000,-0.000000,0.000000*
1,1,0.013390,0.032680,-0.026770*
1,1,0.013390,-0.032680,-0.026770*
1,1,0.013390,-0.032680,0.026770*
1,1,0.013390,0.032680,0.026770*
%
%AMM137*
21,1,0.035430,0.030320,-0.000000,-0.000000,270.000000*
21,1,0.028350,0.037400,-0.000000,-0.000000,270.000000*
1,1,0.007090,-0.015160,-0.014170*
1,1,0.007090,-0.015160,0.014170*
1,1,0.007090,0.015160,0.014170*
1,1,0.007090,0.015160,-0.014170*
%
%AMM138*
21,1,0.021650,0.052760,-0.000000,-0.000000,90.000000*
21,1,0.017320,0.057090,-0.000000,-0.000000,90.000000*
1,1,0.004330,0.026380,0.008660*
1,1,0.004330,0.026380,-0.008660*
1,1,0.004330,-0.026380,-0.008660*
1,1,0.004330,-0.026380,0.008660*
%
%AMM139*
21,1,0.035830,0.026770,-0.000000,-0.000000,180.000000*
21,1,0.029130,0.033470,-0.000000,-0.000000,180.000000*
1,1,0.006690,-0.014570,0.013390*
1,1,0.006690,0.014570,0.013390*
1,1,0.006690,0.014570,-0.013390*
1,1,0.006690,-0.014570,-0.013390*
%
%AMM140*
21,1,0.070870,0.036220,-0.000000,-0.000000,270.000000*
21,1,0.061810,0.045280,-0.000000,-0.000000,270.000000*
1,1,0.009060,-0.018110,-0.030910*
1,1,0.009060,-0.018110,0.030910*
1,1,0.009060,0.018110,0.030910*
1,1,0.009060,0.018110,-0.030910*
%
%AMM141*
21,1,0.033470,0.026770,-0.000000,-0.000000,180.000000*
21,1,0.026770,0.033470,-0.000000,-0.000000,180.000000*
1,1,0.006690,-0.013390,0.013390*
1,1,0.006690,0.013390,0.013390*
1,1,0.006690,0.013390,-0.013390*
1,1,0.006690,-0.013390,-0.013390*
%
%AMM142*
21,1,0.015750,0.016540,-0.000000,-0.000000,90.000000*
21,1,0.012600,0.019680,-0.000000,-0.000000,90.000000*
1,1,0.003150,0.008270,0.006300*
1,1,0.003150,0.008270,-0.006300*
1,1,0.003150,-0.008270,-0.006300*
1,1,0.003150,-0.008270,0.006300*
%
%AMM143*
21,1,0.023620,0.018900,-0.000000,-0.000000,270.000000*
21,1,0.018900,0.023620,-0.000000,-0.000000,270.000000*
1,1,0.004720,-0.009450,-0.009450*
1,1,0.004720,-0.009450,0.009450*
1,1,0.004720,0.009450,0.009450*
1,1,0.004720,0.009450,-0.009450*
%
%AMM144*
21,1,0.019680,0.019680,-0.000000,-0.000000,180.000000*
21,1,0.015750,0.023620,-0.000000,-0.000000,180.000000*
1,1,0.003940,-0.007870,0.009840*
1,1,0.003940,0.007870,0.009840*
1,1,0.003940,0.007870,-0.009840*
1,1,0.003940,-0.007870,-0.009840*
%
%AMM145*
21,1,0.019680,0.019680,-0.000000,-0.000000,90.000000*
21,1,0.015750,0.023620,-0.000000,-0.000000,90.000000*
1,1,0.003940,0.009840,0.007870*
1,1,0.003940,0.009840,-0.007870*
1,1,0.003940,-0.009840,-0.007870*
1,1,0.003940,-0.009840,0.007870*
%
%AMM169*
21,1,0.025590,0.026380,-0.000000,0.000000,0.000000*
21,1,0.020470,0.031500,-0.000000,0.000000,0.000000*
1,1,0.005120,0.010240,-0.013190*
1,1,0.005120,-0.010240,-0.013190*
1,1,0.005120,-0.010240,0.013190*
1,1,0.005120,0.010240,0.013190*
%
%AMM170*
21,1,0.017720,0.027950,-0.000000,0.000000,0.000000*
21,1,0.014170,0.031500,-0.000000,0.000000,0.000000*
1,1,0.003540,0.007090,-0.013980*
1,1,0.003540,-0.007090,-0.013980*
1,1,0.003540,-0.007090,0.013980*
1,1,0.003540,0.007090,0.013980*
%
%AMM171*
21,1,0.012600,0.028980,-0.000000,0.000000,180.000000*
21,1,0.010080,0.031500,-0.000000,0.000000,180.000000*
1,1,0.002520,-0.005040,0.014490*
1,1,0.002520,0.005040,0.014490*
1,1,0.002520,0.005040,-0.014490*
1,1,0.002520,-0.005040,-0.014490*
%
%AMM172*
21,1,0.023620,0.030710,-0.000000,0.000000,270.000000*
21,1,0.018900,0.035430,-0.000000,0.000000,270.000000*
1,1,0.004720,-0.015350,-0.009450*
1,1,0.004720,-0.015350,0.009450*
1,1,0.004720,0.015350,0.009450*
1,1,0.004720,0.015350,-0.009450*
%
%AMM173*
21,1,0.027560,0.018900,-0.000000,0.000000,180.000000*
21,1,0.022840,0.023620,-0.000000,0.000000,180.000000*
1,1,0.004720,-0.011420,0.009450*
1,1,0.004720,0.011420,0.009450*
1,1,0.004720,0.011420,-0.009450*
1,1,0.004720,-0.011420,-0.009450*
%
%AMM174*
21,1,0.031500,0.072440,-0.000000,0.000000,180.000000*
21,1,0.025200,0.078740,-0.000000,0.000000,180.000000*
1,1,0.006300,-0.012600,0.036220*
1,1,0.006300,0.012600,0.036220*
1,1,0.006300,0.012600,-0.036220*
1,1,0.006300,-0.012600,-0.036220*
%
%AMM175*
21,1,0.027560,0.018900,-0.000000,0.000000,270.000000*
21,1,0.022840,0.023620,-0.000000,0.000000,270.000000*
1,1,0.004720,-0.009450,-0.011420*
1,1,0.004720,-0.009450,0.011420*
1,1,0.004720,0.009450,0.011420*
1,1,0.004720,0.009450,-0.011420*
%
%AMM176*
21,1,0.023620,0.030710,-0.000000,0.000000,0.000000*
21,1,0.018900,0.035430,-0.000000,0.000000,0.000000*
1,1,0.004720,0.009450,-0.015350*
1,1,0.004720,-0.009450,-0.015350*
1,1,0.004720,-0.009450,0.015350*
1,1,0.004720,0.009450,0.015350*
%
%AMM177*
21,1,0.035430,0.030320,-0.000000,0.000000,0.000000*
21,1,0.028350,0.037400,-0.000000,0.000000,0.000000*
1,1,0.007090,0.014170,-0.015160*
1,1,0.007090,-0.014170,-0.015160*
1,1,0.007090,-0.014170,0.015160*
1,1,0.007090,0.014170,0.015160*
%
%AMM178*
21,1,0.043310,0.075980,-0.000000,0.000000,90.000000*
21,1,0.034650,0.084650,-0.000000,0.000000,90.000000*
1,1,0.008660,0.037990,0.017320*
1,1,0.008660,0.037990,-0.017320*
1,1,0.008660,-0.037990,-0.017320*
1,1,0.008660,-0.037990,0.017320*
%
%AMM179*
21,1,0.039370,0.035430,-0.000000,0.000000,90.000000*
21,1,0.031500,0.043310,-0.000000,0.000000,90.000000*
1,1,0.007870,0.017720,0.015750*
1,1,0.007870,0.017720,-0.015750*
1,1,0.007870,-0.017720,-0.015750*
1,1,0.007870,-0.017720,0.015750*
%
%AMM180*
21,1,0.027560,0.030710,-0.000000,0.000000,90.000000*
21,1,0.022050,0.036220,-0.000000,0.000000,90.000000*
1,1,0.005510,0.015350,0.011020*
1,1,0.005510,0.015350,-0.011020*
1,1,0.005510,-0.015350,-0.011020*
1,1,0.005510,-0.015350,0.011020*
%
%AMM181*
21,1,0.031500,0.072440,-0.000000,0.000000,90.000000*
21,1,0.025200,0.078740,-0.000000,0.000000,90.000000*
1,1,0.006300,0.036220,0.012600*
1,1,0.006300,0.036220,-0.012600*
1,1,0.006300,-0.036220,-0.012600*
1,1,0.006300,-0.036220,0.012600*
%
%AMM182*
21,1,0.137800,0.067720,-0.000000,0.000000,90.000000*
21,1,0.120870,0.084650,-0.000000,0.000000,90.000000*
1,1,0.016930,0.033860,0.060430*
1,1,0.016930,0.033860,-0.060430*
1,1,0.016930,-0.033860,-0.060430*
1,1,0.016930,-0.033860,0.060430*
%
%AMM183*
21,1,0.043310,0.075990,-0.000000,0.000000,90.000000*
21,1,0.034650,0.084650,-0.000000,0.000000,90.000000*
1,1,0.008660,0.037990,0.017320*
1,1,0.008660,0.037990,-0.017320*
1,1,0.008660,-0.037990,-0.017320*
1,1,0.008660,-0.037990,0.017320*
%
%AMM184*
21,1,0.086610,0.073230,-0.000000,0.000000,180.000000*
21,1,0.069290,0.090550,-0.000000,0.000000,180.000000*
1,1,0.017320,-0.034650,0.036610*
1,1,0.017320,0.034650,0.036610*
1,1,0.017320,0.034650,-0.036610*
1,1,0.017320,-0.034650,-0.036610*
%
%AMM206*
21,1,0.035430,0.030320,-0.000000,0.000000,270.000000*
21,1,0.028350,0.037400,-0.000000,0.000000,270.000000*
1,1,0.007090,-0.015160,-0.014170*
1,1,0.007090,-0.015160,0.014170*
1,1,0.007090,0.015160,0.014170*
1,1,0.007090,0.015160,-0.014170*
%
%AMM224*
21,1,0.027560,0.030710,-0.000000,0.000000,270.000000*
21,1,0.022050,0.036220,-0.000000,0.000000,270.000000*
1,1,0.005510,-0.015350,-0.011020*
1,1,0.005510,-0.015350,0.011020*
1,1,0.005510,0.015350,0.011020*
1,1,0.005510,0.015350,-0.011020*
%
%AMM227*
21,1,0.021650,0.052760,0.000000,-0.000000,180.000000*
21,1,0.017320,0.057090,0.000000,-0.000000,180.000000*
1,1,0.004330,-0.008660,0.026380*
1,1,0.004330,0.008660,0.026380*
1,1,0.004330,0.008660,-0.026380*
1,1,0.004330,-0.008660,-0.026380*
%
%AMM48*
21,1,0.027560,0.030710,0.000000,0.000000,0.000000*
21,1,0.022050,0.036220,0.000000,0.000000,0.000000*
1,1,0.005510,0.011020,-0.015350*
1,1,0.005510,-0.011020,-0.015350*
1,1,0.005510,-0.011020,0.015350*
1,1,0.005510,0.011020,0.015350*
%
%AMM7*
21,1,0.035830,0.026770,0.000000,0.000000,0.000000*
21,1,0.029130,0.033470,0.000000,0.000000,0.000000*
1,1,0.006690,0.014570,-0.013390*
1,1,0.006690,-0.014570,-0.013390*
1,1,0.006690,-0.014570,0.013390*
1,1,0.006690,0.014570,0.013390*
%
%AMM9*
21,1,0.033470,0.026770,0.000000,0.000000,0.000000*
21,1,0.026770,0.033470,0.000000,0.000000,0.000000*
1,1,0.006690,0.013390,-0.013390*
1,1,0.006690,-0.013390,-0.013390*
1,1,0.006690,-0.013390,0.013390*
1,1,0.006690,0.013390,0.013390*
%
%ADD11R,0.13819X0.10000*%
%ADD142O,0.04724X0.00866*%
%ADD143O,0.00866X0.04724*%
%ADD147R,0.01378X0.00984*%
%ADD148R,0.00984X0.01378*%
%ADD156M48*%
%ADD228R,0.03543X0.03150*%
%ADD229R,0.04724X0.08661*%
%ADD232R,0.03150X0.03543*%
%ADD236R,0.10827X0.12008*%
%ADD252O,0.02362X0.08661*%
%ADD26C,0.02362*%
%ADD270M105*%
%ADD309M133*%
%ADD310M134*%
%ADD311M135*%
%ADD312M136*%
%ADD313M137*%
%ADD314M138*%
%ADD315M139*%
%ADD316M140*%
%ADD317M141*%
%ADD318M142*%
%ADD319M143*%
%ADD320M144*%
%ADD321M145*%
%ADD345M169*%
%ADD346M170*%
%ADD347M171*%
%ADD348O,0.01181X0.04331*%
%ADD349M172*%
%ADD350M173*%
%ADD351M174*%
%ADD352M175*%
%ADD353M176*%
%ADD354M177*%
%ADD355M178*%
%ADD356M179*%
%ADD357M180*%
%ADD358M181*%
%ADD359M182*%
%ADD360M183*%
%ADD361M184*%
%ADD38R,0.14567X0.00787*%
%ADD385M206*%
%ADD39R,0.01575X0.00787*%
%ADD40R,0.06299X0.00787*%
%ADD41R,0.38189X0.00787*%
%ADD42R,0.09055X0.00787*%
%ADD425M224*%
%ADD428M227*%
%ADD43R,0.00787X0.05512*%
%ADD44R,0.00787X0.25197*%
%ADD45R,0.00787X0.06693*%
%ADD46R,0.00787X0.12992*%
%ADD47R,0.27559X0.00787*%
%ADD48R,0.12992X0.00787*%
%ADD49R,0.24803X0.00787*%
%ADD69O,0.00000X0.00000*%
%ADD90M7*%
%ADD92M9*%
%ADD98C,0.03150*%
X0000000Y0000000D02*
%LPD*%
G01*
D11*
X0567239Y0213643D03*
X0567239Y0098052D03*
G36*
G01*
X0099116Y0254798D02*
X0099116Y0256816D01*
G75*
G02*
X0099977Y0257677I0000861J0000000D01*
G01*
X0101700Y0257677D01*
G75*
G02*
X0102561Y0256816I0000000J-000861D01*
G01*
X0102561Y0254798D01*
G75*
G02*
X0101700Y0253937I-000861J0000000D01*
G01*
X0099977Y0253937D01*
G75*
G02*
X0099116Y0254798I0000000J0000861D01*
G01*
G37*
G36*
G01*
X0105317Y0254798D02*
X0105317Y0256816D01*
G75*
G02*
X0106178Y0257677I0000861J0000000D01*
G01*
X0107901Y0257677D01*
G75*
G02*
X0108762Y0256816I0000000J-000861D01*
G01*
X0108762Y0254798D01*
G75*
G02*
X0107901Y0253937I-000861J0000000D01*
G01*
X0106178Y0253937D01*
G75*
G02*
X0105317Y0254798I0000000J0000861D01*
G01*
G37*
G36*
G01*
X0449016Y0282500D02*
X0449016Y0283681D01*
G75*
G02*
X0449606Y0284272I0000591J0000000D01*
G01*
X0456102Y0284272D01*
G75*
G02*
X0456693Y0283681I0000000J-000591D01*
G01*
X0456693Y0282500D01*
G75*
G02*
X0456102Y0281909I-000591J0000000D01*
G01*
X0449606Y0281909D01*
G75*
G02*
X0449016Y0282500I0000000J0000591D01*
G01*
G37*
G36*
G01*
X0449016Y0277500D02*
X0449016Y0278681D01*
G75*
G02*
X0449606Y0279272I0000591J0000000D01*
G01*
X0456102Y0279272D01*
G75*
G02*
X0456693Y0278681I0000000J-000591D01*
G01*
X0456693Y0277500D01*
G75*
G02*
X0456102Y0276909I-000591J0000000D01*
G01*
X0449606Y0276909D01*
G75*
G02*
X0449016Y0277500I0000000J0000591D01*
G01*
G37*
G36*
G01*
X0449016Y0272500D02*
X0449016Y0273681D01*
G75*
G02*
X0449606Y0274272I0000591J0000000D01*
G01*
X0456102Y0274272D01*
G75*
G02*
X0456693Y0273681I0000000J-000591D01*
G01*
X0456693Y0272500D01*
G75*
G02*
X0456102Y0271909I-000591J0000000D01*
G01*
X0449606Y0271909D01*
G75*
G02*
X0449016Y0272500I0000000J0000591D01*
G01*
G37*
G36*
G01*
X0449016Y0267500D02*
X0449016Y0268681D01*
G75*
G02*
X0449606Y0269272I0000591J0000000D01*
G01*
X0456102Y0269272D01*
G75*
G02*
X0456693Y0268681I0000000J-000591D01*
G01*
X0456693Y0267500D01*
G75*
G02*
X0456102Y0266909I-000591J0000000D01*
G01*
X0449606Y0266909D01*
G75*
G02*
X0449016Y0267500I0000000J0000591D01*
G01*
G37*
G36*
G01*
X0468504Y0267500D02*
X0468504Y0268681D01*
G75*
G02*
X0469094Y0269272I0000591J0000000D01*
G01*
X0475591Y0269272D01*
G75*
G02*
X0476181Y0268681I0000000J-000591D01*
G01*
X0476181Y0267500D01*
G75*
G02*
X0475591Y0266909I-000591J0000000D01*
G01*
X0469094Y0266909D01*
G75*
G02*
X0468504Y0267500I0000000J0000591D01*
G01*
G37*
G36*
G01*
X0468504Y0272500D02*
X0468504Y0273681D01*
G75*
G02*
X0469094Y0274272I0000591J0000000D01*
G01*
X0475591Y0274272D01*
G75*
G02*
X0476181Y0273681I0000000J-000591D01*
G01*
X0476181Y0272500D01*
G75*
G02*
X0475591Y0271909I-000591J0000000D01*
G01*
X0469094Y0271909D01*
G75*
G02*
X0468504Y0272500I0000000J0000591D01*
G01*
G37*
G36*
G01*
X0468504Y0277500D02*
X0468504Y0278681D01*
G75*
G02*
X0469094Y0279272I0000591J0000000D01*
G01*
X0475591Y0279272D01*
G75*
G02*
X0476181Y0278681I0000000J-000591D01*
G01*
X0476181Y0277500D01*
G75*
G02*
X0475591Y0276909I-000591J0000000D01*
G01*
X0469094Y0276909D01*
G75*
G02*
X0468504Y0277500I0000000J0000591D01*
G01*
G37*
G36*
G01*
X0468504Y0282500D02*
X0468504Y0283681D01*
G75*
G02*
X0469094Y0284272I0000591J0000000D01*
G01*
X0475591Y0284272D01*
G75*
G02*
X0476181Y0283681I0000000J-000591D01*
G01*
X0476181Y0282500D01*
G75*
G02*
X0475591Y0281909I-000591J0000000D01*
G01*
X0469094Y0281909D01*
G75*
G02*
X0468504Y0282500I0000000J0000591D01*
G01*
G37*
G36*
G01*
X0482874Y0268150D02*
X0482874Y0271220D01*
G75*
G02*
X0483150Y0271496I0000276J0000000D01*
G01*
X0485354Y0271496D01*
G75*
G02*
X0485630Y0271220I0000000J-000276D01*
G01*
X0485630Y0268150D01*
G75*
G02*
X0485354Y0267874I-000276J0000000D01*
G01*
X0483150Y0267874D01*
G75*
G02*
X0482874Y0268150I0000000J0000276D01*
G01*
G37*
G36*
G01*
X0489173Y0268150D02*
X0489173Y0271220D01*
G75*
G02*
X0489449Y0271496I0000276J0000000D01*
G01*
X0491654Y0271496D01*
G75*
G02*
X0491929Y0271220I0000000J-000276D01*
G01*
X0491929Y0268150D01*
G75*
G02*
X0491654Y0267874I-000276J0000000D01*
G01*
X0489449Y0267874D01*
G75*
G02*
X0489173Y0268150I0000000J0000276D01*
G01*
G37*
G36*
G01*
X0213563Y0263976D02*
X0212382Y0263976D01*
G75*
G02*
X0211791Y0264567I0000000J0000591D01*
G01*
X0211791Y0271063D01*
G75*
G02*
X0212382Y0271654I0000591J0000000D01*
G01*
X0213563Y0271654D01*
G75*
G02*
X0214154Y0271063I0000000J-000591D01*
G01*
X0214154Y0264567D01*
G75*
G02*
X0213563Y0263976I-000591J0000000D01*
G01*
G37*
G36*
G01*
X0218563Y0263976D02*
X0217382Y0263976D01*
G75*
G02*
X0216791Y0264567I0000000J0000591D01*
G01*
X0216791Y0271063D01*
G75*
G02*
X0217382Y0271654I0000591J0000000D01*
G01*
X0218563Y0271654D01*
G75*
G02*
X0219154Y0271063I0000000J-000591D01*
G01*
X0219154Y0264567D01*
G75*
G02*
X0218563Y0263976I-000591J0000000D01*
G01*
G37*
G36*
G01*
X0223563Y0263976D02*
X0222382Y0263976D01*
G75*
G02*
X0221791Y0264567I0000000J0000591D01*
G01*
X0221791Y0271063D01*
G75*
G02*
X0222382Y0271654I0000591J0000000D01*
G01*
X0223563Y0271654D01*
G75*
G02*
X0224154Y0271063I0000000J-000591D01*
G01*
X0224154Y0264567D01*
G75*
G02*
X0223563Y0263976I-000591J0000000D01*
G01*
G37*
G36*
G01*
X0228563Y0263976D02*
X0227382Y0263976D01*
G75*
G02*
X0226791Y0264567I0000000J0000591D01*
G01*
X0226791Y0271063D01*
G75*
G02*
X0227382Y0271654I0000591J0000000D01*
G01*
X0228563Y0271654D01*
G75*
G02*
X0229154Y0271063I0000000J-000591D01*
G01*
X0229154Y0264567D01*
G75*
G02*
X0228563Y0263976I-000591J0000000D01*
G01*
G37*
G36*
G01*
X0228563Y0283465D02*
X0227382Y0283465D01*
G75*
G02*
X0226791Y0284055I0000000J0000591D01*
G01*
X0226791Y0290551D01*
G75*
G02*
X0227382Y0291142I0000591J0000000D01*
G01*
X0228563Y0291142D01*
G75*
G02*
X0229154Y0290551I0000000J-000591D01*
G01*
X0229154Y0284055D01*
G75*
G02*
X0228563Y0283465I-000591J0000000D01*
G01*
G37*
G36*
G01*
X0223563Y0283465D02*
X0222382Y0283465D01*
G75*
G02*
X0221791Y0284055I0000000J0000591D01*
G01*
X0221791Y0290551D01*
G75*
G02*
X0222382Y0291142I0000591J0000000D01*
G01*
X0223563Y0291142D01*
G75*
G02*
X0224154Y0290551I0000000J-000591D01*
G01*
X0224154Y0284055D01*
G75*
G02*
X0223563Y0283465I-000591J0000000D01*
G01*
G37*
G36*
G01*
X0218563Y0283465D02*
X0217382Y0283465D01*
G75*
G02*
X0216791Y0284055I0000000J0000591D01*
G01*
X0216791Y0290551D01*
G75*
G02*
X0217382Y0291142I0000591J0000000D01*
G01*
X0218563Y0291142D01*
G75*
G02*
X0219154Y0290551I0000000J-000591D01*
G01*
X0219154Y0284055D01*
G75*
G02*
X0218563Y0283465I-000591J0000000D01*
G01*
G37*
G36*
G01*
X0213563Y0283465D02*
X0212382Y0283465D01*
G75*
G02*
X0211791Y0284055I0000000J0000591D01*
G01*
X0211791Y0290551D01*
G75*
G02*
X0212382Y0291142I0000591J0000000D01*
G01*
X0213563Y0291142D01*
G75*
G02*
X0214154Y0290551I0000000J-000591D01*
G01*
X0214154Y0284055D01*
G75*
G02*
X0213563Y0283465I-000591J0000000D01*
G01*
G37*
G36*
G01*
X0450000Y0204938D02*
X0450000Y0208009D01*
G75*
G02*
X0450276Y0208285I0000276J0000000D01*
G01*
X0452480Y0208285D01*
G75*
G02*
X0452756Y0208009I0000000J-000276D01*
G01*
X0452756Y0204938D01*
G75*
G02*
X0452480Y0204663I-000276J0000000D01*
G01*
X0450276Y0204663D01*
G75*
G02*
X0450000Y0204938I0000000J0000276D01*
G01*
G37*
G36*
G01*
X0456299Y0204938D02*
X0456299Y0208009D01*
G75*
G02*
X0456575Y0208285I0000276J0000000D01*
G01*
X0458780Y0208285D01*
G75*
G02*
X0459055Y0208009I0000000J-000276D01*
G01*
X0459055Y0204938D01*
G75*
G02*
X0458780Y0204663I-000276J0000000D01*
G01*
X0456575Y0204663D01*
G75*
G02*
X0456299Y0204938I0000000J0000276D01*
G01*
G37*
G36*
G01*
X0099116Y0304094D02*
X0099116Y0306111D01*
G75*
G02*
X0099977Y0306972I0000861J0000000D01*
G01*
X0101700Y0306972D01*
G75*
G02*
X0102561Y0306111I0000000J-000861D01*
G01*
X0102561Y0304094D01*
G75*
G02*
X0101700Y0303232I-000861J0000000D01*
G01*
X0099977Y0303232D01*
G75*
G02*
X0099116Y0304094I0000000J0000861D01*
G01*
G37*
G36*
G01*
X0105317Y0304094D02*
X0105317Y0306111D01*
G75*
G02*
X0106178Y0306972I0000861J0000000D01*
G01*
X0107901Y0306972D01*
G75*
G02*
X0108762Y0306111I0000000J-000861D01*
G01*
X0108762Y0304094D01*
G75*
G02*
X0107901Y0303232I-000861J0000000D01*
G01*
X0106178Y0303232D01*
G75*
G02*
X0105317Y0304094I0000000J0000861D01*
G01*
G37*
G36*
G01*
X0312303Y0287598D02*
X0311122Y0287598D01*
G75*
G02*
X0310531Y0288189I0000000J0000591D01*
G01*
X0310531Y0294685D01*
G75*
G02*
X0311122Y0295276I0000591J0000000D01*
G01*
X0312303Y0295276D01*
G75*
G02*
X0312894Y0294685I0000000J-000591D01*
G01*
X0312894Y0288189D01*
G75*
G02*
X0312303Y0287598I-000591J0000000D01*
G01*
G37*
G36*
G01*
X0317303Y0287598D02*
X0316122Y0287598D01*
G75*
G02*
X0315531Y0288189I0000000J0000591D01*
G01*
X0315531Y0294685D01*
G75*
G02*
X0316122Y0295276I0000591J0000000D01*
G01*
X0317303Y0295276D01*
G75*
G02*
X0317894Y0294685I0000000J-000591D01*
G01*
X0317894Y0288189D01*
G75*
G02*
X0317303Y0287598I-000591J0000000D01*
G01*
G37*
G36*
G01*
X0322303Y0287598D02*
X0321122Y0287598D01*
G75*
G02*
X0320531Y0288189I0000000J0000591D01*
G01*
X0320531Y0294685D01*
G75*
G02*
X0321122Y0295276I0000591J0000000D01*
G01*
X0322303Y0295276D01*
G75*
G02*
X0322894Y0294685I0000000J-000591D01*
G01*
X0322894Y0288189D01*
G75*
G02*
X0322303Y0287598I-000591J0000000D01*
G01*
G37*
G36*
G01*
X0327303Y0287598D02*
X0326122Y0287598D01*
G75*
G02*
X0325531Y0288189I0000000J0000591D01*
G01*
X0325531Y0294685D01*
G75*
G02*
X0326122Y0295276I0000591J0000000D01*
G01*
X0327303Y0295276D01*
G75*
G02*
X0327894Y0294685I0000000J-000591D01*
G01*
X0327894Y0288189D01*
G75*
G02*
X0327303Y0287598I-000591J0000000D01*
G01*
G37*
G36*
G01*
X0327303Y0307087D02*
X0326122Y0307087D01*
G75*
G02*
X0325531Y0307677I0000000J0000591D01*
G01*
X0325531Y0314173D01*
G75*
G02*
X0326122Y0314764I0000591J0000000D01*
G01*
X0327303Y0314764D01*
G75*
G02*
X0327894Y0314173I0000000J-000591D01*
G01*
X0327894Y0307677D01*
G75*
G02*
X0327303Y0307087I-000591J0000000D01*
G01*
G37*
G36*
G01*
X0322303Y0307087D02*
X0321122Y0307087D01*
G75*
G02*
X0320531Y0307677I0000000J0000591D01*
G01*
X0320531Y0314173D01*
G75*
G02*
X0321122Y0314764I0000591J0000000D01*
G01*
X0322303Y0314764D01*
G75*
G02*
X0322894Y0314173I0000000J-000591D01*
G01*
X0322894Y0307677D01*
G75*
G02*
X0322303Y0307087I-000591J0000000D01*
G01*
G37*
G36*
G01*
X0317303Y0307087D02*
X0316122Y0307087D01*
G75*
G02*
X0315531Y0307677I0000000J0000591D01*
G01*
X0315531Y0314173D01*
G75*
G02*
X0316122Y0314764I0000591J0000000D01*
G01*
X0317303Y0314764D01*
G75*
G02*
X0317894Y0314173I0000000J-000591D01*
G01*
X0317894Y0307677D01*
G75*
G02*
X0317303Y0307087I-000591J0000000D01*
G01*
G37*
G36*
G01*
X0312303Y0307087D02*
X0311122Y0307087D01*
G75*
G02*
X0310531Y0307677I0000000J0000591D01*
G01*
X0310531Y0314173D01*
G75*
G02*
X0311122Y0314764I0000591J0000000D01*
G01*
X0312303Y0314764D01*
G75*
G02*
X0312894Y0314173I0000000J-000591D01*
G01*
X0312894Y0307677D01*
G75*
G02*
X0312303Y0307087I-000591J0000000D01*
G01*
G37*
G36*
G01*
X0305669Y0271547D02*
X0302598Y0271547D01*
G75*
G02*
X0302323Y0271823I0000000J0000276D01*
G01*
X0302323Y0274028D01*
G75*
G02*
X0302598Y0274303I0000276J0000000D01*
G01*
X0305669Y0274303D01*
G75*
G02*
X0305945Y0274028I0000000J-000276D01*
G01*
X0305945Y0271823D01*
G75*
G02*
X0305669Y0271547I-000276J0000000D01*
G01*
G37*
G36*
G01*
X0305669Y0277846D02*
X0302598Y0277846D01*
G75*
G02*
X0302323Y0278122I0000000J0000276D01*
G01*
X0302323Y0280327D01*
G75*
G02*
X0302598Y0280602I0000276J0000000D01*
G01*
X0305669Y0280602D01*
G75*
G02*
X0305945Y0280327I0000000J-000276D01*
G01*
X0305945Y0278122D01*
G75*
G02*
X0305669Y0277846I-000276J0000000D01*
G01*
G37*
G36*
G01*
X0450000Y0212612D02*
X0450000Y0215683D01*
G75*
G02*
X0450276Y0215958I0000276J0000000D01*
G01*
X0452480Y0215958D01*
G75*
G02*
X0452756Y0215683I0000000J-000276D01*
G01*
X0452756Y0212612D01*
G75*
G02*
X0452480Y0212336I-000276J0000000D01*
G01*
X0450276Y0212336D01*
G75*
G02*
X0450000Y0212612I0000000J0000276D01*
G01*
G37*
G36*
G01*
X0456299Y0212612D02*
X0456299Y0215683D01*
G75*
G02*
X0456575Y0215958I0000276J0000000D01*
G01*
X0458780Y0215958D01*
G75*
G02*
X0459055Y0215683I0000000J-000276D01*
G01*
X0459055Y0212612D01*
G75*
G02*
X0458780Y0212336I-000276J0000000D01*
G01*
X0456575Y0212336D01*
G75*
G02*
X0456299Y0212612I0000000J0000276D01*
G01*
G37*
G36*
G01*
X0092087Y0112795D02*
X0089016Y0112795D01*
G75*
G02*
X0088740Y0113071I0000000J0000276D01*
G01*
X0088740Y0115276D01*
G75*
G02*
X0089016Y0115551I0000276J0000000D01*
G01*
X0092087Y0115551D01*
G75*
G02*
X0092362Y0115276I0000000J-000276D01*
G01*
X0092362Y0113071D01*
G75*
G02*
X0092087Y0112795I-000276J0000000D01*
G01*
G37*
G36*
G01*
X0092087Y0119094D02*
X0089016Y0119094D01*
G75*
G02*
X0088740Y0119370I0000000J0000276D01*
G01*
X0088740Y0121575D01*
G75*
G02*
X0089016Y0121850I0000276J0000000D01*
G01*
X0092087Y0121850D01*
G75*
G02*
X0092362Y0121575I0000000J-000276D01*
G01*
X0092362Y0119370D01*
G75*
G02*
X0092087Y0119094I-000276J0000000D01*
G01*
G37*
G36*
G01*
X0067126Y0322343D02*
X0067126Y0327264D01*
G75*
G02*
X0067520Y0327657I0000394J0000000D01*
G01*
X0070669Y0327657D01*
G75*
G02*
X0071063Y0327264I0000000J-000394D01*
G01*
X0071063Y0322343D01*
G75*
G02*
X0070669Y0321949I-000394J0000000D01*
G01*
X0067520Y0321949D01*
G75*
G02*
X0067126Y0322343I0000000J0000394D01*
G01*
G37*
G36*
G01*
X0074606Y0322343D02*
X0074606Y0327264D01*
G75*
G02*
X0075000Y0327657I0000394J0000000D01*
G01*
X0078150Y0327657D01*
G75*
G02*
X0078543Y0327264I0000000J-000394D01*
G01*
X0078543Y0322343D01*
G75*
G02*
X0078150Y0321949I-000394J0000000D01*
G01*
X0075000Y0321949D01*
G75*
G02*
X0074606Y0322343I0000000J0000394D01*
G01*
G37*
G36*
G01*
X0286398Y0287598D02*
X0285217Y0287598D01*
G75*
G02*
X0284626Y0288189I0000000J0000591D01*
G01*
X0284626Y0294685D01*
G75*
G02*
X0285217Y0295276I0000591J0000000D01*
G01*
X0286398Y0295276D01*
G75*
G02*
X0286988Y0294685I0000000J-000591D01*
G01*
X0286988Y0288189D01*
G75*
G02*
X0286398Y0287598I-000591J0000000D01*
G01*
G37*
G36*
G01*
X0291398Y0287598D02*
X0290217Y0287598D01*
G75*
G02*
X0289626Y0288189I0000000J0000591D01*
G01*
X0289626Y0294685D01*
G75*
G02*
X0290217Y0295276I0000591J0000000D01*
G01*
X0291398Y0295276D01*
G75*
G02*
X0291988Y0294685I0000000J-000591D01*
G01*
X0291988Y0288189D01*
G75*
G02*
X0291398Y0287598I-000591J0000000D01*
G01*
G37*
G36*
G01*
X0296398Y0287598D02*
X0295217Y0287598D01*
G75*
G02*
X0294626Y0288189I0000000J0000591D01*
G01*
X0294626Y0294685D01*
G75*
G02*
X0295217Y0295276I0000591J0000000D01*
G01*
X0296398Y0295276D01*
G75*
G02*
X0296988Y0294685I0000000J-000591D01*
G01*
X0296988Y0288189D01*
G75*
G02*
X0296398Y0287598I-000591J0000000D01*
G01*
G37*
G36*
G01*
X0301398Y0287598D02*
X0300217Y0287598D01*
G75*
G02*
X0299626Y0288189I0000000J0000591D01*
G01*
X0299626Y0294685D01*
G75*
G02*
X0300217Y0295276I0000591J0000000D01*
G01*
X0301398Y0295276D01*
G75*
G02*
X0301988Y0294685I0000000J-000591D01*
G01*
X0301988Y0288189D01*
G75*
G02*
X0301398Y0287598I-000591J0000000D01*
G01*
G37*
G36*
G01*
X0301398Y0307087D02*
X0300217Y0307087D01*
G75*
G02*
X0299626Y0307677I0000000J0000591D01*
G01*
X0299626Y0314173D01*
G75*
G02*
X0300217Y0314764I0000591J0000000D01*
G01*
X0301398Y0314764D01*
G75*
G02*
X0301988Y0314173I0000000J-000591D01*
G01*
X0301988Y0307677D01*
G75*
G02*
X0301398Y0307087I-000591J0000000D01*
G01*
G37*
G36*
G01*
X0296398Y0307087D02*
X0295217Y0307087D01*
G75*
G02*
X0294626Y0307677I0000000J0000591D01*
G01*
X0294626Y0314173D01*
G75*
G02*
X0295217Y0314764I0000591J0000000D01*
G01*
X0296398Y0314764D01*
G75*
G02*
X0296988Y0314173I0000000J-000591D01*
G01*
X0296988Y0307677D01*
G75*
G02*
X0296398Y0307087I-000591J0000000D01*
G01*
G37*
G36*
G01*
X0291398Y0307087D02*
X0290217Y0307087D01*
G75*
G02*
X0289626Y0307677I0000000J0000591D01*
G01*
X0289626Y0314173D01*
G75*
G02*
X0290217Y0314764I0000591J0000000D01*
G01*
X0291398Y0314764D01*
G75*
G02*
X0291988Y0314173I0000000J-000591D01*
G01*
X0291988Y0307677D01*
G75*
G02*
X0291398Y0307087I-000591J0000000D01*
G01*
G37*
G36*
G01*
X0286398Y0307087D02*
X0285217Y0307087D01*
G75*
G02*
X0284626Y0307677I0000000J0000591D01*
G01*
X0284626Y0314173D01*
G75*
G02*
X0285217Y0314764I0000591J0000000D01*
G01*
X0286398Y0314764D01*
G75*
G02*
X0286988Y0314173I0000000J-000591D01*
G01*
X0286988Y0307677D01*
G75*
G02*
X0286398Y0307087I-000591J0000000D01*
G01*
G37*
G36*
G01*
X0068898Y0184480D02*
X0068898Y0189402D01*
G75*
G02*
X0069291Y0189795I0000394J0000000D01*
G01*
X0072441Y0189795D01*
G75*
G02*
X0072835Y0189402I0000000J-000394D01*
G01*
X0072835Y0184480D01*
G75*
G02*
X0072441Y0184087I-000394J0000000D01*
G01*
X0069291Y0184087D01*
G75*
G02*
X0068898Y0184480I0000000J0000394D01*
G01*
G37*
G36*
G01*
X0076378Y0184480D02*
X0076378Y0189402D01*
G75*
G02*
X0076772Y0189795I0000394J0000000D01*
G01*
X0079921Y0189795D01*
G75*
G02*
X0080315Y0189402I0000000J-000394D01*
G01*
X0080315Y0184480D01*
G75*
G02*
X0079921Y0184087I-000394J0000000D01*
G01*
X0076772Y0184087D01*
G75*
G02*
X0076378Y0184480I0000000J0000394D01*
G01*
G37*
G36*
G01*
X0081102Y0111614D02*
X0081102Y0108858D01*
G75*
G02*
X0080118Y0107874I-000984J0000000D01*
G01*
X0073425Y0107874D01*
G75*
G02*
X0072441Y0108858I0000000J0000984D01*
G01*
X0072441Y0111614D01*
G75*
G02*
X0073425Y0112598I0000984J0000000D01*
G01*
X0080118Y0112598D01*
G75*
G02*
X0081102Y0111614I0000000J-000984D01*
G01*
G37*
G36*
G01*
X0064567Y0117638D02*
X0064567Y0108780D01*
G75*
G02*
X0063583Y0107795I-000984J0000000D01*
G01*
X0053543Y0107795D01*
G75*
G02*
X0052559Y0108780I0000000J0000984D01*
G01*
X0052559Y0117638D01*
G75*
G02*
X0053543Y0118622I0000984J0000000D01*
G01*
X0063583Y0118622D01*
G75*
G02*
X0064567Y0117638I0000000J-000984D01*
G01*
G37*
G36*
G01*
X0064567Y0129646D02*
X0064567Y0120787D01*
G75*
G02*
X0063583Y0119803I-000984J0000000D01*
G01*
X0053543Y0119803D01*
G75*
G02*
X0052559Y0120787I0000000J0000984D01*
G01*
X0052559Y0129646D01*
G75*
G02*
X0053543Y0130630I0000984J0000000D01*
G01*
X0063583Y0130630D01*
G75*
G02*
X0064567Y0129646I0000000J-000984D01*
G01*
G37*
G36*
G01*
X0051378Y0117638D02*
X0051378Y0108780D01*
G75*
G02*
X0050394Y0107795I-000984J0000000D01*
G01*
X0040354Y0107795D01*
G75*
G02*
X0039370Y0108780I0000000J0000984D01*
G01*
X0039370Y0117638D01*
G75*
G02*
X0040354Y0118622I0000984J0000000D01*
G01*
X0050394Y0118622D01*
G75*
G02*
X0051378Y0117638I0000000J-000984D01*
G01*
G37*
G36*
G01*
X0051378Y0129646D02*
X0051378Y0120787D01*
G75*
G02*
X0050394Y0119803I-000984J0000000D01*
G01*
X0040354Y0119803D01*
G75*
G02*
X0039370Y0120787I0000000J0000984D01*
G01*
X0039370Y0129646D01*
G75*
G02*
X0040354Y0130630I0000984J0000000D01*
G01*
X0050394Y0130630D01*
G75*
G02*
X0051378Y0129646I0000000J-000984D01*
G01*
G37*
G36*
G01*
X0081102Y0129567D02*
X0081102Y0126811D01*
G75*
G02*
X0080118Y0125827I-000984J0000000D01*
G01*
X0073425Y0125827D01*
G75*
G02*
X0072441Y0126811I0000000J0000984D01*
G01*
X0072441Y0129567D01*
G75*
G02*
X0073425Y0130551I0000984J0000000D01*
G01*
X0080118Y0130551D01*
G75*
G02*
X0081102Y0129567I0000000J-000984D01*
G01*
G37*
G36*
G01*
G75*
G02*
X0240846Y-046063I0000591J0000000D01*
G01*
G75*
G02*
X0247933Y-046654I0000000J-000591D01*
G01*
G75*
G02*
X0247343Y-048425I-000591J0000000D01*
G01*
G75*
G02*
X0240256Y-047835I0000000J0000591D01*
G01*
G37*
G36*
G01*
G75*
G02*
X0240846Y-051063I0000591J0000000D01*
G01*
G75*
G02*
X0247933Y-051654I0000000J-000591D01*
G01*
G75*
G02*
X0247343Y-053425I-000591J0000000D01*
G01*
G75*
G02*
X0240256Y-052835I0000000J0000591D01*
G01*
G37*
G36*
G01*
G75*
G02*
X0240846Y-056063I0000591J0000000D01*
G01*
G75*
G02*
X0247933Y-056654I0000000J-000591D01*
G01*
G75*
G02*
X0247343Y-058425I-000591J0000000D01*
G01*
G75*
G02*
X0240256Y-057835I0000000J0000591D01*
G01*
G37*
G36*
G01*
G75*
G02*
X0240846Y-061063I0000591J0000000D01*
G01*
G75*
G02*
X0247933Y-061654I0000000J-000591D01*
G01*
G75*
G02*
X0247343Y-063425I-000591J0000000D01*
G01*
G75*
G02*
X0240256Y-062835I0000000J0000591D01*
G01*
G37*
G36*
G01*
G75*
G02*
X0260335Y-061063I0000591J0000000D01*
G01*
G75*
G02*
X0267421Y-061654I0000000J-000591D01*
G01*
G75*
G02*
X0266831Y-063425I-000591J0000000D01*
G01*
G75*
G02*
X0259744Y-062835I0000000J0000591D01*
G01*
G37*
G36*
G01*
G75*
G02*
X0260335Y-056063I0000591J0000000D01*
G01*
G75*
G02*
X0267421Y-056654I0000000J-000591D01*
G01*
G75*
G02*
X0266831Y-058425I-000591J0000000D01*
G01*
G75*
G02*
X0259744Y-057835I0000000J0000591D01*
G01*
G37*
G36*
G01*
G75*
G02*
X0260335Y-051063I0000591J0000000D01*
G01*
G75*
G02*
X0267421Y-051654I0000000J-000591D01*
G01*
G75*
G02*
X0266831Y-053425I-000591J0000000D01*
G01*
G75*
G02*
X0259744Y-052835I0000000J0000591D01*
G01*
G37*
G36*
G01*
G75*
G02*
X0260335Y-046063I0000591J0000000D01*
G01*
G75*
G02*
X0267421Y-046654I0000000J-000591D01*
G01*
G75*
G02*
X0266831Y-048425I-000591J0000000D01*
G01*
G75*
G02*
X0259744Y-047835I0000000J0000591D01*
G01*
G37*
G36*
G01*
X0259350Y0275886D02*
X0255217Y0275886D01*
G75*
G02*
X0254823Y0276280I0000000J0000394D01*
G01*
X0254823Y0279429D01*
G75*
G02*
X0255217Y0279823I0000394J0000000D01*
G01*
X0259350Y0279823D01*
G75*
G02*
X0259744Y0279429I0000000J-000394D01*
G01*
X0259744Y0276280D01*
G75*
G02*
X0259350Y0275886I-000394J0000000D01*
G01*
G37*
G36*
G01*
X0259350Y0283760D02*
X0255217Y0283760D01*
G75*
G02*
X0254823Y0284154I0000000J0000394D01*
G01*
X0254823Y0287303D01*
G75*
G02*
X0255217Y0287697I0000394J0000000D01*
G01*
X0259350Y0287697D01*
G75*
G02*
X0259744Y0287303I0000000J-000394D01*
G01*
X0259744Y0284154D01*
G75*
G02*
X0259350Y0283760I-000394J0000000D01*
G01*
G37*
G36*
G01*
X0097539Y0119070D02*
X0097539Y0121088D01*
G75*
G02*
X0098401Y0121949I0000861J0000000D01*
G01*
X0100123Y0121949D01*
G75*
G02*
X0100984Y0121088I0000000J-000861D01*
G01*
X0100984Y0119070D01*
G75*
G02*
X0100123Y0118209I-000861J0000000D01*
G01*
X0098401Y0118209D01*
G75*
G02*
X0097539Y0119070I0000000J0000861D01*
G01*
G37*
G36*
G01*
X0103740Y0119070D02*
X0103740Y0121088D01*
G75*
G02*
X0104601Y0121949I0000861J0000000D01*
G01*
X0106324Y0121949D01*
G75*
G02*
X0107185Y0121088I0000000J-000861D01*
G01*
X0107185Y0119070D01*
G75*
G02*
X0106324Y0118209I-000861J0000000D01*
G01*
X0104601Y0118209D01*
G75*
G02*
X0103740Y0119070I0000000J0000861D01*
G01*
G37*
G36*
G01*
X0388107Y0310128D02*
X0388107Y0312096D01*
G75*
G02*
X0388993Y0312982I0000886J0000000D01*
G01*
X0390765Y0312982D01*
G75*
G02*
X0391650Y0312096I0000000J-000886D01*
G01*
X0391650Y0310128D01*
G75*
G02*
X0390765Y0309242I-000886J0000000D01*
G01*
X0388993Y0309242D01*
G75*
G02*
X0388107Y0310128I0000000J0000886D01*
G01*
G37*
G36*
G01*
X0394209Y0310128D02*
X0394209Y0312096D01*
G75*
G02*
X0395095Y0312982I0000886J0000000D01*
G01*
X0396867Y0312982D01*
G75*
G02*
X0397753Y0312096I0000000J-000886D01*
G01*
X0397753Y0310128D01*
G75*
G02*
X0396867Y0309242I-000886J0000000D01*
G01*
X0395095Y0309242D01*
G75*
G02*
X0394209Y0310128I0000000J0000886D01*
G01*
G37*
G36*
G01*
X0095374Y0159713D02*
X0092303Y0159713D01*
G75*
G02*
X0092028Y0159988I0000000J0000276D01*
G01*
X0092028Y0162193D01*
G75*
G02*
X0092303Y0162469I0000276J0000000D01*
G01*
X0095374Y0162469D01*
G75*
G02*
X0095650Y0162193I0000000J-000276D01*
G01*
X0095650Y0159988D01*
G75*
G02*
X0095374Y0159713I-000276J0000000D01*
G01*
G37*
G36*
G01*
X0095374Y0166012D02*
X0092303Y0166012D01*
G75*
G02*
X0092028Y0166287I0000000J0000276D01*
G01*
X0092028Y0168492D01*
G75*
G02*
X0092303Y0168768I0000276J0000000D01*
G01*
X0095374Y0168768D01*
G75*
G02*
X0095650Y0168492I0000000J-000276D01*
G01*
X0095650Y0166287D01*
G75*
G02*
X0095374Y0166012I-000276J0000000D01*
G01*
G37*
G36*
G01*
X0450591Y0344980D02*
X0450591Y0340059D01*
G75*
G02*
X0450197Y0339665I-000394J0000000D01*
G01*
X0447047Y0339665D01*
G75*
G02*
X0446654Y0340059I0000000J0000394D01*
G01*
X0446654Y0344980D01*
G75*
G02*
X0447047Y0345374I0000394J0000000D01*
G01*
X0450197Y0345374D01*
G75*
G02*
X0450591Y0344980I0000000J-000394D01*
G01*
G37*
G36*
G01*
X0443110Y0344980D02*
X0443110Y0340059D01*
G75*
G02*
X0442716Y0339665I-000394J0000000D01*
G01*
X0439567Y0339665D01*
G75*
G02*
X0439173Y0340059I0000000J0000394D01*
G01*
X0439173Y0344980D01*
G75*
G02*
X0439567Y0345374I0000394J0000000D01*
G01*
X0442716Y0345374D01*
G75*
G02*
X0443110Y0344980I0000000J-000394D01*
G01*
G37*
G36*
G01*
X0402067Y0239311D02*
X0402067Y0242382D01*
G75*
G02*
X0402343Y0242657I0000276J0000000D01*
G01*
X0404547Y0242657D01*
G75*
G02*
X0404823Y0242382I0000000J-000276D01*
G01*
X0404823Y0239311D01*
G75*
G02*
X0404547Y0239035I-000276J0000000D01*
G01*
X0402343Y0239035D01*
G75*
G02*
X0402067Y0239311I0000000J0000276D01*
G01*
G37*
G36*
G01*
X0408366Y0239311D02*
X0408366Y0242382D01*
G75*
G02*
X0408642Y0242657I0000276J0000000D01*
G01*
X0410846Y0242657D01*
G75*
G02*
X0411122Y0242382I0000000J-000276D01*
G01*
X0411122Y0239311D01*
G75*
G02*
X0410846Y0239035I-000276J0000000D01*
G01*
X0408642Y0239035D01*
G75*
G02*
X0408366Y0239311I0000000J0000276D01*
G01*
G37*
G36*
G01*
G75*
G02*
X0272717Y-057244I0000276J0000000D01*
G01*
G75*
G02*
X0275197Y-057520I0000000J-000276D01*
G01*
G75*
G02*
X0274921Y-060866I-000276J0000000D01*
G01*
G75*
G02*
X0272441Y-060591I0000000J0000276D01*
G01*
G37*
G36*
G01*
G75*
G02*
X0279016Y-057244I0000276J0000000D01*
G01*
G75*
G02*
X0281496Y-057520I0000000J-000276D01*
G01*
G75*
G02*
X0281220Y-060866I-000276J0000000D01*
G01*
G75*
G02*
X0278740Y-060591I0000000J0000276D01*
G01*
G37*
G36*
G01*
X0450000Y0197265D02*
X0450000Y0200336D01*
G75*
G02*
X0450276Y0200611I0000276J0000000D01*
G01*
X0452480Y0200611D01*
G75*
G02*
X0452756Y0200336I0000000J-000276D01*
G01*
X0452756Y0197265D01*
G75*
G02*
X0452480Y0196989I-000276J0000000D01*
G01*
X0450276Y0196989D01*
G75*
G02*
X0450000Y0197265I0000000J0000276D01*
G01*
G37*
G36*
G01*
X0456299Y0197265D02*
X0456299Y0200336D01*
G75*
G02*
X0456575Y0200611I0000276J0000000D01*
G01*
X0458780Y0200611D01*
G75*
G02*
X0459055Y0200336I0000000J-000276D01*
G01*
X0459055Y0197265D01*
G75*
G02*
X0458780Y0196989I-000276J0000000D01*
G01*
X0456575Y0196989D01*
G75*
G02*
X0456299Y0197265I0000000J0000276D01*
G01*
G37*
G36*
G01*
X0542564Y0230828D02*
X0544454Y0230828D01*
G75*
G02*
X0544690Y0230592I0000000J-000236D01*
G01*
X0544690Y0228702D01*
G75*
G02*
X0544454Y0228466I-000236J0000000D01*
G01*
X0542564Y0228466D01*
G75*
G02*
X0542328Y0228702I0000000J0000236D01*
G01*
X0542328Y0230592D01*
G75*
G02*
X0542564Y0230828I0000236J0000000D01*
G01*
G37*
G36*
G01*
X0551225Y0230828D02*
X0553115Y0230828D01*
G75*
G02*
X0553351Y0230592I0000000J-000236D01*
G01*
X0553351Y0228702D01*
G75*
G02*
X0553115Y0228466I-000236J0000000D01*
G01*
X0551225Y0228466D01*
G75*
G02*
X0550989Y0228702I0000000J0000236D01*
G01*
X0550989Y0230592D01*
G75*
G02*
X0551225Y0230828I0000236J0000000D01*
G01*
G37*
G36*
G01*
X0082173Y0159642D02*
X0082173Y0156886D01*
G75*
G02*
X0081189Y0155902I-000984J0000000D01*
G01*
X0074496Y0155902D01*
G75*
G02*
X0073512Y0156886I0000000J0000984D01*
G01*
X0073512Y0159642D01*
G75*
G02*
X0074496Y0160626I0000984J0000000D01*
G01*
X0081189Y0160626D01*
G75*
G02*
X0082173Y0159642I0000000J-000984D01*
G01*
G37*
G36*
G01*
X0065638Y0165665D02*
X0065638Y0156807D01*
G75*
G02*
X0064654Y0155823I-000984J0000000D01*
G01*
X0054614Y0155823D01*
G75*
G02*
X0053630Y0156807I0000000J0000984D01*
G01*
X0053630Y0165665D01*
G75*
G02*
X0054614Y0166650I0000984J0000000D01*
G01*
X0064654Y0166650D01*
G75*
G02*
X0065638Y0165665I0000000J-000984D01*
G01*
G37*
G36*
G01*
X0065638Y0177673D02*
X0065638Y0168815D01*
G75*
G02*
X0064654Y0167831I-000984J0000000D01*
G01*
X0054614Y0167831D01*
G75*
G02*
X0053630Y0168815I0000000J0000984D01*
G01*
X0053630Y0177673D01*
G75*
G02*
X0054614Y0178657I0000984J0000000D01*
G01*
X0064654Y0178657D01*
G75*
G02*
X0065638Y0177673I0000000J-000984D01*
G01*
G37*
G36*
G01*
X0052449Y0165665D02*
X0052449Y0156807D01*
G75*
G02*
X0051465Y0155823I-000984J0000000D01*
G01*
X0041425Y0155823D01*
G75*
G02*
X0040441Y0156807I0000000J0000984D01*
G01*
X0040441Y0165665D01*
G75*
G02*
X0041425Y0166650I0000984J0000000D01*
G01*
X0051465Y0166650D01*
G75*
G02*
X0052449Y0165665I0000000J-000984D01*
G01*
G37*
G36*
G01*
X0052449Y0177673D02*
X0052449Y0168815D01*
G75*
G02*
X0051465Y0167831I-000984J0000000D01*
G01*
X0041425Y0167831D01*
G75*
G02*
X0040441Y0168815I0000000J0000984D01*
G01*
X0040441Y0177673D01*
G75*
G02*
X0041425Y0178657I0000984J0000000D01*
G01*
X0051465Y0178657D01*
G75*
G02*
X0052449Y0177673I0000000J-000984D01*
G01*
G37*
G36*
G01*
X0082173Y0177594D02*
X0082173Y0174839D01*
G75*
G02*
X0081189Y0173854I-000984J0000000D01*
G01*
X0074496Y0173854D01*
G75*
G02*
X0073512Y0174839I0000000J0000984D01*
G01*
X0073512Y0177594D01*
G75*
G02*
X0074496Y0178579I0000984J0000000D01*
G01*
X0081189Y0178579D01*
G75*
G02*
X0082173Y0177594I0000000J-000984D01*
G01*
G37*
G36*
G01*
X0297996Y0271547D02*
X0294925Y0271547D01*
G75*
G02*
X0294649Y0271823I0000000J0000276D01*
G01*
X0294649Y0274028D01*
G75*
G02*
X0294925Y0274303I0000276J0000000D01*
G01*
X0297996Y0274303D01*
G75*
G02*
X0298271Y0274028I0000000J-000276D01*
G01*
X0298271Y0271823D01*
G75*
G02*
X0297996Y0271547I-000276J0000000D01*
G01*
G37*
G36*
G01*
X0297996Y0277846D02*
X0294925Y0277846D01*
G75*
G02*
X0294649Y0278122I0000000J0000276D01*
G01*
X0294649Y0280327D01*
G75*
G02*
X0294925Y0280602I0000276J0000000D01*
G01*
X0297996Y0280602D01*
G75*
G02*
X0298271Y0280327I0000000J-000276D01*
G01*
X0298271Y0278122D01*
G75*
G02*
X0297996Y0277846I-000276J0000000D01*
G01*
G37*
G36*
G01*
X0417256Y0293728D02*
X0417256Y0295696D01*
G75*
G02*
X0418142Y0296582I0000886J0000000D01*
G01*
X0419913Y0296582D01*
G75*
G02*
X0420799Y0295696I0000000J-000886D01*
G01*
X0420799Y0293728D01*
G75*
G02*
X0419913Y0292842I-000886J0000000D01*
G01*
X0418142Y0292842D01*
G75*
G02*
X0417256Y0293728I0000000J0000886D01*
G01*
G37*
G36*
G01*
X0423358Y0293728D02*
X0423358Y0295696D01*
G75*
G02*
X0424244Y0296582I0000886J0000000D01*
G01*
X0426016Y0296582D01*
G75*
G02*
X0426902Y0295696I0000000J-000886D01*
G01*
X0426902Y0293728D01*
G75*
G02*
X0426016Y0292842I-000886J0000000D01*
G01*
X0424244Y0292842D01*
G75*
G02*
X0423358Y0293728I0000000J0000886D01*
G01*
G37*
G36*
G01*
X0241634Y0275886D02*
X0237500Y0275886D01*
G75*
G02*
X0237106Y0276280I0000000J0000394D01*
G01*
X0237106Y0279429D01*
G75*
G02*
X0237500Y0279823I0000394J0000000D01*
G01*
X0241634Y0279823D01*
G75*
G02*
X0242028Y0279429I0000000J-000394D01*
G01*
X0242028Y0276280D01*
G75*
G02*
X0241634Y0275886I-000394J0000000D01*
G01*
G37*
G36*
G01*
X0241634Y0283760D02*
X0237500Y0283760D01*
G75*
G02*
X0237106Y0284154I0000000J0000394D01*
G01*
X0237106Y0287303D01*
G75*
G02*
X0237500Y0287697I0000394J0000000D01*
G01*
X0241634Y0287697D01*
G75*
G02*
X0242028Y0287303I0000000J-000394D01*
G01*
X0242028Y0284154D01*
G75*
G02*
X0241634Y0283760I-000394J0000000D01*
G01*
G37*
G36*
G01*
X0066929Y0273047D02*
X0066929Y0277969D01*
G75*
G02*
X0067323Y0278362I0000394J0000000D01*
G01*
X0070472Y0278362D01*
G75*
G02*
X0070866Y0277969I0000000J-000394D01*
G01*
X0070866Y0273047D01*
G75*
G02*
X0070472Y0272654I-000394J0000000D01*
G01*
X0067323Y0272654D01*
G75*
G02*
X0066929Y0273047I0000000J0000394D01*
G01*
G37*
G36*
G01*
X0074410Y0273047D02*
X0074410Y0277969D01*
G75*
G02*
X0074803Y0278362I0000394J0000000D01*
G01*
X0077953Y0278362D01*
G75*
G02*
X0078347Y0277969I0000000J-000394D01*
G01*
X0078347Y0273047D01*
G75*
G02*
X0077953Y0272654I-000394J0000000D01*
G01*
X0074803Y0272654D01*
G75*
G02*
X0074410Y0273047I0000000J0000394D01*
G01*
G37*
G36*
G01*
X0099116Y0210625D02*
X0099116Y0212643D01*
G75*
G02*
X0099977Y0213504I0000861J0000000D01*
G01*
X0101700Y0213504D01*
G75*
G02*
X0102561Y0212643I0000000J-000861D01*
G01*
X0102561Y0210625D01*
G75*
G02*
X0101700Y0209764I-000861J0000000D01*
G01*
X0099977Y0209764D01*
G75*
G02*
X0099116Y0210625I0000000J0000861D01*
G01*
G37*
G36*
G01*
X0105317Y0210625D02*
X0105317Y0212643D01*
G75*
G02*
X0106178Y0213504I0000861J0000000D01*
G01*
X0107901Y0213504D01*
G75*
G02*
X0108762Y0212643I0000000J-000861D01*
G01*
X0108762Y0210625D01*
G75*
G02*
X0107901Y0209764I-000861J0000000D01*
G01*
X0106178Y0209764D01*
G75*
G02*
X0105317Y0210625I0000000J0000861D01*
G01*
G37*
G36*
G01*
X0248192Y0262894D02*
X0245121Y0262894D01*
G75*
G02*
X0244845Y0263169I0000000J0000276D01*
G01*
X0244845Y0265374D01*
G75*
G02*
X0245121Y0265650I0000276J0000000D01*
G01*
X0248192Y0265650D01*
G75*
G02*
X0248467Y0265374I0000000J-000276D01*
G01*
X0248467Y0263169D01*
G75*
G02*
X0248192Y0262894I-000276J0000000D01*
G01*
G37*
G36*
G01*
X0248192Y0269193D02*
X0245121Y0269193D01*
G75*
G02*
X0244845Y0269469I0000000J0000276D01*
G01*
X0244845Y0271673D01*
G75*
G02*
X0245121Y0271949I0000276J0000000D01*
G01*
X0248192Y0271949D01*
G75*
G02*
X0248467Y0271673I0000000J-000276D01*
G01*
X0248467Y0269469D01*
G75*
G02*
X0248192Y0269193I-000276J0000000D01*
G01*
G37*
G36*
G01*
X0095374Y0297575D02*
X0092303Y0297575D01*
G75*
G02*
X0092028Y0297850I0000000J0000276D01*
G01*
X0092028Y0300055D01*
G75*
G02*
X0092303Y0300331I0000276J0000000D01*
G01*
X0095374Y0300331D01*
G75*
G02*
X0095650Y0300055I0000000J-000276D01*
G01*
X0095650Y0297850D01*
G75*
G02*
X0095374Y0297575I-000276J0000000D01*
G01*
G37*
G36*
G01*
X0095374Y0303874D02*
X0092303Y0303874D01*
G75*
G02*
X0092028Y0304150I0000000J0000276D01*
G01*
X0092028Y0306354D01*
G75*
G02*
X0092303Y0306630I0000276J0000000D01*
G01*
X0095374Y0306630D01*
G75*
G02*
X0095650Y0306354I0000000J-000276D01*
G01*
X0095650Y0304150D01*
G75*
G02*
X0095374Y0303874I-000276J0000000D01*
G01*
G37*
G36*
G01*
X0263538Y0262894D02*
X0260467Y0262894D01*
G75*
G02*
X0260192Y0263169I0000000J0000276D01*
G01*
X0260192Y0265374D01*
G75*
G02*
X0260467Y0265650I0000276J0000000D01*
G01*
X0263538Y0265650D01*
G75*
G02*
X0263814Y0265374I0000000J-000276D01*
G01*
X0263814Y0263169D01*
G75*
G02*
X0263538Y0262894I-000276J0000000D01*
G01*
G37*
G36*
G01*
X0263538Y0269193D02*
X0260467Y0269193D01*
G75*
G02*
X0260192Y0269469I0000000J0000276D01*
G01*
X0260192Y0271673D01*
G75*
G02*
X0260467Y0271949I0000276J0000000D01*
G01*
X0263538Y0271949D01*
G75*
G02*
X0263814Y0271673I0000000J-000276D01*
G01*
X0263814Y0269469D01*
G75*
G02*
X0263538Y0269193I-000276J0000000D01*
G01*
G37*
G36*
G01*
X0451083Y0237598D02*
X0451083Y0238780D01*
G75*
G02*
X0451673Y0239370I0000591J0000000D01*
G01*
X0458169Y0239370D01*
G75*
G02*
X0458760Y0238780I0000000J-000591D01*
G01*
X0458760Y0237598D01*
G75*
G02*
X0458169Y0237008I-000591J0000000D01*
G01*
X0451673Y0237008D01*
G75*
G02*
X0451083Y0237598I0000000J0000591D01*
G01*
G37*
G36*
G01*
X0451083Y0232598D02*
X0451083Y0233780D01*
G75*
G02*
X0451673Y0234370I0000591J0000000D01*
G01*
X0458169Y0234370D01*
G75*
G02*
X0458760Y0233780I0000000J-000591D01*
G01*
X0458760Y0232598D01*
G75*
G02*
X0458169Y0232008I-000591J0000000D01*
G01*
X0451673Y0232008D01*
G75*
G02*
X0451083Y0232598I0000000J0000591D01*
G01*
G37*
G36*
G01*
X0451083Y0227598D02*
X0451083Y0228780D01*
G75*
G02*
X0451673Y0229370I0000591J0000000D01*
G01*
X0458169Y0229370D01*
G75*
G02*
X0458760Y0228780I0000000J-000591D01*
G01*
X0458760Y0227598D01*
G75*
G02*
X0458169Y0227008I-000591J0000000D01*
G01*
X0451673Y0227008D01*
G75*
G02*
X0451083Y0227598I0000000J0000591D01*
G01*
G37*
G36*
G01*
X0451083Y0222598D02*
X0451083Y0223780D01*
G75*
G02*
X0451673Y0224370I0000591J0000000D01*
G01*
X0458169Y0224370D01*
G75*
G02*
X0458760Y0223780I0000000J-000591D01*
G01*
X0458760Y0222598D01*
G75*
G02*
X0458169Y0222008I-000591J0000000D01*
G01*
X0451673Y0222008D01*
G75*
G02*
X0451083Y0222598I0000000J0000591D01*
G01*
G37*
G36*
G01*
X0470571Y0222598D02*
X0470571Y0223780D01*
G75*
G02*
X0471161Y0224370I0000591J0000000D01*
G01*
X0477657Y0224370D01*
G75*
G02*
X0478248Y0223780I0000000J-000591D01*
G01*
X0478248Y0222598D01*
G75*
G02*
X0477657Y0222008I-000591J0000000D01*
G01*
X0471161Y0222008D01*
G75*
G02*
X0470571Y0222598I0000000J0000591D01*
G01*
G37*
G36*
G01*
X0470571Y0227598D02*
X0470571Y0228780D01*
G75*
G02*
X0471161Y0229370I0000591J0000000D01*
G01*
X0477657Y0229370D01*
G75*
G02*
X0478248Y0228780I0000000J-000591D01*
G01*
X0478248Y0227598D01*
G75*
G02*
X0477657Y0227008I-000591J0000000D01*
G01*
X0471161Y0227008D01*
G75*
G02*
X0470571Y0227598I0000000J0000591D01*
G01*
G37*
G36*
G01*
X0470571Y0232598D02*
X0470571Y0233780D01*
G75*
G02*
X0471161Y0234370I0000591J0000000D01*
G01*
X0477657Y0234370D01*
G75*
G02*
X0478248Y0233780I0000000J-000591D01*
G01*
X0478248Y0232598D01*
G75*
G02*
X0477657Y0232008I-000591J0000000D01*
G01*
X0471161Y0232008D01*
G75*
G02*
X0470571Y0232598I0000000J0000591D01*
G01*
G37*
G36*
G01*
X0470571Y0237598D02*
X0470571Y0238780D01*
G75*
G02*
X0471161Y0239370I0000591J0000000D01*
G01*
X0477657Y0239370D01*
G75*
G02*
X0478248Y0238780I0000000J-000591D01*
G01*
X0478248Y0237598D01*
G75*
G02*
X0477657Y0237008I-000591J0000000D01*
G01*
X0471161Y0237008D01*
G75*
G02*
X0470571Y0237598I0000000J0000591D01*
G01*
G37*
G36*
G01*
X0450000Y0189592D02*
X0450000Y0192662D01*
G75*
G02*
X0450276Y0192938I0000276J0000000D01*
G01*
X0452480Y0192938D01*
G75*
G02*
X0452756Y0192662I0000000J-000276D01*
G01*
X0452756Y0189592D01*
G75*
G02*
X0452480Y0189316I-000276J0000000D01*
G01*
X0450276Y0189316D01*
G75*
G02*
X0450000Y0189592I0000000J0000276D01*
G01*
G37*
G36*
G01*
X0456299Y0189592D02*
X0456299Y0192662D01*
G75*
G02*
X0456575Y0192938I0000276J0000000D01*
G01*
X0458780Y0192938D01*
G75*
G02*
X0459055Y0192662I0000000J-000276D01*
G01*
X0459055Y0189592D01*
G75*
G02*
X0458780Y0189316I-000276J0000000D01*
G01*
X0456575Y0189316D01*
G75*
G02*
X0456299Y0189592I0000000J0000276D01*
G01*
G37*
G36*
G01*
G75*
G02*
X0272717Y-043569I0000276J0000000D01*
G01*
G75*
G02*
X0275197Y-043845I0000000J-000276D01*
G01*
G75*
G02*
X0274921Y-047191I-000276J0000000D01*
G01*
G75*
G02*
X0272441Y-046916I0000000J0000276D01*
G01*
G37*
G36*
G01*
G75*
G02*
X0279016Y-043569I0000276J0000000D01*
G01*
G75*
G02*
X0281496Y-043845I0000000J-000276D01*
G01*
G75*
G02*
X0281220Y-047191I-000276J0000000D01*
G01*
G75*
G02*
X0278740Y-046916I0000000J0000276D01*
G01*
G37*
G36*
G01*
X0305023Y0328937D02*
X0300102Y0328937D01*
G75*
G02*
X0299708Y0329331I0000000J0000394D01*
G01*
X0299708Y0332480D01*
G75*
G02*
X0300102Y0332874I0000394J0000000D01*
G01*
X0305023Y0332874D01*
G75*
G02*
X0305416Y0332480I0000000J-000394D01*
G01*
X0305416Y0329331D01*
G75*
G02*
X0305023Y0328937I-000394J0000000D01*
G01*
G37*
G36*
G01*
X0305023Y0336417D02*
X0300102Y0336417D01*
G75*
G02*
X0299708Y0336811I0000000J0000394D01*
G01*
X0299708Y0339961D01*
G75*
G02*
X0300102Y0340354I0000394J0000000D01*
G01*
X0305023Y0340354D01*
G75*
G02*
X0305416Y0339961I0000000J-000394D01*
G01*
X0305416Y0336811D01*
G75*
G02*
X0305023Y0336417I-000394J0000000D01*
G01*
G37*
G36*
G01*
X0099116Y0166231D02*
X0099116Y0168249D01*
G75*
G02*
X0099977Y0169110I0000861J0000000D01*
G01*
X0101700Y0169110D01*
G75*
G02*
X0102561Y0168249I0000000J-000861D01*
G01*
X0102561Y0166231D01*
G75*
G02*
X0101700Y0165370I-000861J0000000D01*
G01*
X0099977Y0165370D01*
G75*
G02*
X0099116Y0166231I0000000J0000861D01*
G01*
G37*
G36*
G01*
X0105317Y0166231D02*
X0105317Y0168249D01*
G75*
G02*
X0106178Y0169110I0000861J0000000D01*
G01*
X0107901Y0169110D01*
G75*
G02*
X0108762Y0168249I0000000J-000861D01*
G01*
X0108762Y0166231D01*
G75*
G02*
X0107901Y0165370I-000861J0000000D01*
G01*
X0106178Y0165370D01*
G75*
G02*
X0105317Y0166231I0000000J0000861D01*
G01*
G37*
G36*
G01*
G75*
G02*
X0164350Y-029744I0000276J0000000D01*
G01*
G75*
G02*
X0166831Y-030020I0000000J-000276D01*
G01*
G75*
G02*
X0166555Y-033366I-000276J0000000D01*
G01*
G75*
G02*
X0164075Y-033091I0000000J0000276D01*
G01*
G37*
G36*
G01*
G75*
G02*
X0170650Y-029744I0000276J0000000D01*
G01*
G75*
G02*
X0173130Y-030020I0000000J-000276D01*
G01*
G75*
G02*
X0172854Y-033366I-000276J0000000D01*
G01*
G75*
G02*
X0170374Y-033091I0000000J0000276D01*
G01*
G37*
G36*
G01*
X0400394Y0249154D02*
X0400394Y0252224D01*
G75*
G02*
X0400669Y0252500I0000276J0000000D01*
G01*
X0402874Y0252500D01*
G75*
G02*
X0403150Y0252224I0000000J-000276D01*
G01*
X0403150Y0249154D01*
G75*
G02*
X0402874Y0248878I-000276J0000000D01*
G01*
X0400669Y0248878D01*
G75*
G02*
X0400394Y0249154I0000000J0000276D01*
G01*
G37*
G36*
G01*
X0406693Y0249154D02*
X0406693Y0252224D01*
G75*
G02*
X0406969Y0252500I0000276J0000000D01*
G01*
X0409173Y0252500D01*
G75*
G02*
X0409449Y0252224I0000000J-000276D01*
G01*
X0409449Y0249154D01*
G75*
G02*
X0409173Y0248878I-000276J0000000D01*
G01*
X0406969Y0248878D01*
G75*
G02*
X0406693Y0249154I0000000J0000276D01*
G01*
G37*
G36*
G01*
X0082173Y0248209D02*
X0082173Y0245453D01*
G75*
G02*
X0081189Y0244469I-000984J0000000D01*
G01*
X0074496Y0244469D01*
G75*
G02*
X0073512Y0245453I0000000J0000984D01*
G01*
X0073512Y0248209D01*
G75*
G02*
X0074496Y0249193I0000984J0000000D01*
G01*
X0081189Y0249193D01*
G75*
G02*
X0082173Y0248209I0000000J-000984D01*
G01*
G37*
G36*
G01*
X0065638Y0254232D02*
X0065638Y0245374D01*
G75*
G02*
X0064654Y0244390I-000984J0000000D01*
G01*
X0054614Y0244390D01*
G75*
G02*
X0053630Y0245374I0000000J0000984D01*
G01*
X0053630Y0254232D01*
G75*
G02*
X0054614Y0255217I0000984J0000000D01*
G01*
X0064654Y0255217D01*
G75*
G02*
X0065638Y0254232I0000000J-000984D01*
G01*
G37*
G36*
G01*
X0065638Y0266240D02*
X0065638Y0257382D01*
G75*
G02*
X0064654Y0256398I-000984J0000000D01*
G01*
X0054614Y0256398D01*
G75*
G02*
X0053630Y0257382I0000000J0000984D01*
G01*
X0053630Y0266240D01*
G75*
G02*
X0054614Y0267224I0000984J0000000D01*
G01*
X0064654Y0267224D01*
G75*
G02*
X0065638Y0266240I0000000J-000984D01*
G01*
G37*
G36*
G01*
X0052449Y0254232D02*
X0052449Y0245374D01*
G75*
G02*
X0051465Y0244390I-000984J0000000D01*
G01*
X0041425Y0244390D01*
G75*
G02*
X0040441Y0245374I0000000J0000984D01*
G01*
X0040441Y0254232D01*
G75*
G02*
X0041425Y0255217I0000984J0000000D01*
G01*
X0051465Y0255217D01*
G75*
G02*
X0052449Y0254232I0000000J-000984D01*
G01*
G37*
G36*
G01*
X0052449Y0266240D02*
X0052449Y0257382D01*
G75*
G02*
X0051465Y0256398I-000984J0000000D01*
G01*
X0041425Y0256398D01*
G75*
G02*
X0040441Y0257382I0000000J0000984D01*
G01*
X0040441Y0266240D01*
G75*
G02*
X0041425Y0267224I0000984J0000000D01*
G01*
X0051465Y0267224D01*
G75*
G02*
X0052449Y0266240I0000000J-000984D01*
G01*
G37*
G36*
G01*
X0082173Y0266161D02*
X0082173Y0263406D01*
G75*
G02*
X0081189Y0262421I-000984J0000000D01*
G01*
X0074496Y0262421D01*
G75*
G02*
X0073512Y0263406I0000000J0000984D01*
G01*
X0073512Y0266161D01*
G75*
G02*
X0074496Y0267146I0000984J0000000D01*
G01*
X0081189Y0267146D01*
G75*
G02*
X0082173Y0266161I0000000J-000984D01*
G01*
G37*
G36*
G01*
X0293799Y0328937D02*
X0288878Y0328937D01*
G75*
G02*
X0288484Y0329331I0000000J0000394D01*
G01*
X0288484Y0332480D01*
G75*
G02*
X0288878Y0332874I0000394J0000000D01*
G01*
X0293799Y0332874D01*
G75*
G02*
X0294193Y0332480I0000000J-000394D01*
G01*
X0294193Y0329331D01*
G75*
G02*
X0293799Y0328937I-000394J0000000D01*
G01*
G37*
G36*
G01*
X0293799Y0336417D02*
X0288878Y0336417D01*
G75*
G02*
X0288484Y0336811I0000000J0000394D01*
G01*
X0288484Y0339961D01*
G75*
G02*
X0288878Y0340354I0000394J0000000D01*
G01*
X0293799Y0340354D01*
G75*
G02*
X0294193Y0339961I0000000J-000394D01*
G01*
X0294193Y0336811D01*
G75*
G02*
X0293799Y0336417I-000394J0000000D01*
G01*
G37*
G36*
G01*
X0095374Y0248280D02*
X0092303Y0248280D01*
G75*
G02*
X0092028Y0248555I0000000J0000276D01*
G01*
X0092028Y0250760D01*
G75*
G02*
X0092303Y0251035I0000276J0000000D01*
G01*
X0095374Y0251035D01*
G75*
G02*
X0095650Y0250760I0000000J-000276D01*
G01*
X0095650Y0248555D01*
G75*
G02*
X0095374Y0248280I-000276J0000000D01*
G01*
G37*
G36*
G01*
X0095374Y0254579D02*
X0092303Y0254579D01*
G75*
G02*
X0092028Y0254854I0000000J0000276D01*
G01*
X0092028Y0257059D01*
G75*
G02*
X0092303Y0257335I0000276J0000000D01*
G01*
X0095374Y0257335D01*
G75*
G02*
X0095650Y0257059I0000000J-000276D01*
G01*
X0095650Y0254854D01*
G75*
G02*
X0095374Y0254579I-000276J0000000D01*
G01*
G37*
G36*
G01*
X0368209Y0249409D02*
X0368209Y0250591D01*
G75*
G02*
X0368799Y0251181I0000591J0000000D01*
G01*
X0375295Y0251181D01*
G75*
G02*
X0375886Y0250591I0000000J-000591D01*
G01*
X0375886Y0249409D01*
G75*
G02*
X0375295Y0248819I-000591J0000000D01*
G01*
X0368799Y0248819D01*
G75*
G02*
X0368209Y0249409I0000000J0000591D01*
G01*
G37*
G36*
G01*
X0368209Y0244409D02*
X0368209Y0245591D01*
G75*
G02*
X0368799Y0246181I0000591J0000000D01*
G01*
X0375295Y0246181D01*
G75*
G02*
X0375886Y0245591I0000000J-000591D01*
G01*
X0375886Y0244409D01*
G75*
G02*
X0375295Y0243819I-000591J0000000D01*
G01*
X0368799Y0243819D01*
G75*
G02*
X0368209Y0244409I0000000J0000591D01*
G01*
G37*
G36*
G01*
X0368209Y0239409D02*
X0368209Y0240591D01*
G75*
G02*
X0368799Y0241181I0000591J0000000D01*
G01*
X0375295Y0241181D01*
G75*
G02*
X0375886Y0240591I0000000J-000591D01*
G01*
X0375886Y0239409D01*
G75*
G02*
X0375295Y0238819I-000591J0000000D01*
G01*
X0368799Y0238819D01*
G75*
G02*
X0368209Y0239409I0000000J0000591D01*
G01*
G37*
G36*
G01*
X0368209Y0234409D02*
X0368209Y0235591D01*
G75*
G02*
X0368799Y0236181I0000591J0000000D01*
G01*
X0375295Y0236181D01*
G75*
G02*
X0375886Y0235591I0000000J-000591D01*
G01*
X0375886Y0234409D01*
G75*
G02*
X0375295Y0233819I-000591J0000000D01*
G01*
X0368799Y0233819D01*
G75*
G02*
X0368209Y0234409I0000000J0000591D01*
G01*
G37*
G36*
G01*
X0387697Y0234409D02*
X0387697Y0235591D01*
G75*
G02*
X0388287Y0236181I0000591J0000000D01*
G01*
X0394783Y0236181D01*
G75*
G02*
X0395374Y0235591I0000000J-000591D01*
G01*
X0395374Y0234409D01*
G75*
G02*
X0394783Y0233819I-000591J0000000D01*
G01*
X0388287Y0233819D01*
G75*
G02*
X0387697Y0234409I0000000J0000591D01*
G01*
G37*
G36*
G01*
X0387697Y0239409D02*
X0387697Y0240591D01*
G75*
G02*
X0388287Y0241181I0000591J0000000D01*
G01*
X0394783Y0241181D01*
G75*
G02*
X0395374Y0240591I0000000J-000591D01*
G01*
X0395374Y0239409D01*
G75*
G02*
X0394783Y0238819I-000591J0000000D01*
G01*
X0388287Y0238819D01*
G75*
G02*
X0387697Y0239409I0000000J0000591D01*
G01*
G37*
G36*
G01*
X0387697Y0244409D02*
X0387697Y0245591D01*
G75*
G02*
X0388287Y0246181I0000591J0000000D01*
G01*
X0394783Y0246181D01*
G75*
G02*
X0395374Y0245591I0000000J-000591D01*
G01*
X0395374Y0244409D01*
G75*
G02*
X0394783Y0243819I-000591J0000000D01*
G01*
X0388287Y0243819D01*
G75*
G02*
X0387697Y0244409I0000000J0000591D01*
G01*
G37*
G36*
G01*
X0387697Y0249409D02*
X0387697Y0250591D01*
G75*
G02*
X0388287Y0251181I0000591J0000000D01*
G01*
X0394783Y0251181D01*
G75*
G02*
X0395374Y0250591I0000000J-000591D01*
G01*
X0395374Y0249409D01*
G75*
G02*
X0394783Y0248819I-000591J0000000D01*
G01*
X0388287Y0248819D01*
G75*
G02*
X0387697Y0249409I0000000J0000591D01*
G01*
G37*
G36*
G01*
X0082173Y0204035D02*
X0082173Y0201280D01*
G75*
G02*
X0081189Y0200295I-000984J0000000D01*
G01*
X0074496Y0200295D01*
G75*
G02*
X0073512Y0201280I0000000J0000984D01*
G01*
X0073512Y0204035D01*
G75*
G02*
X0074496Y0205020I0000984J0000000D01*
G01*
X0081189Y0205020D01*
G75*
G02*
X0082173Y0204035I0000000J-000984D01*
G01*
G37*
G36*
G01*
X0065638Y0210059D02*
X0065638Y0201201D01*
G75*
G02*
X0064654Y0200217I-000984J0000000D01*
G01*
X0054614Y0200217D01*
G75*
G02*
X0053630Y0201201I0000000J0000984D01*
G01*
X0053630Y0210059D01*
G75*
G02*
X0054614Y0211043I0000984J0000000D01*
G01*
X0064654Y0211043D01*
G75*
G02*
X0065638Y0210059I0000000J-000984D01*
G01*
G37*
G36*
G01*
X0065638Y0222067D02*
X0065638Y0213209D01*
G75*
G02*
X0064654Y0212224I-000984J0000000D01*
G01*
X0054614Y0212224D01*
G75*
G02*
X0053630Y0213209I0000000J0000984D01*
G01*
X0053630Y0222067D01*
G75*
G02*
X0054614Y0223051I0000984J0000000D01*
G01*
X0064654Y0223051D01*
G75*
G02*
X0065638Y0222067I0000000J-000984D01*
G01*
G37*
G36*
G01*
X0052449Y0210059D02*
X0052449Y0201201D01*
G75*
G02*
X0051465Y0200217I-000984J0000000D01*
G01*
X0041425Y0200217D01*
G75*
G02*
X0040441Y0201201I0000000J0000984D01*
G01*
X0040441Y0210059D01*
G75*
G02*
X0041425Y0211043I0000984J0000000D01*
G01*
X0051465Y0211043D01*
G75*
G02*
X0052449Y0210059I0000000J-000984D01*
G01*
G37*
G36*
G01*
X0052449Y0222067D02*
X0052449Y0213209D01*
G75*
G02*
X0051465Y0212224I-000984J0000000D01*
G01*
X0041425Y0212224D01*
G75*
G02*
X0040441Y0213209I0000000J0000984D01*
G01*
X0040441Y0222067D01*
G75*
G02*
X0041425Y0223051I0000984J0000000D01*
G01*
X0051465Y0223051D01*
G75*
G02*
X0052449Y0222067I0000000J-000984D01*
G01*
G37*
G36*
G01*
X0082173Y0221988D02*
X0082173Y0219232D01*
G75*
G02*
X0081189Y0218248I-000984J0000000D01*
G01*
X0074496Y0218248D01*
G75*
G02*
X0073512Y0219232I0000000J0000984D01*
G01*
X0073512Y0221988D01*
G75*
G02*
X0074496Y0222972I0000984J0000000D01*
G01*
X0081189Y0222972D01*
G75*
G02*
X0082173Y0221988I0000000J-000984D01*
G01*
G37*
G36*
G01*
X0316246Y0328937D02*
X0311325Y0328937D01*
G75*
G02*
X0310931Y0329331I0000000J0000394D01*
G01*
X0310931Y0332480D01*
G75*
G02*
X0311325Y0332874I0000394J0000000D01*
G01*
X0316246Y0332874D01*
G75*
G02*
X0316640Y0332480I0000000J-000394D01*
G01*
X0316640Y0329331D01*
G75*
G02*
X0316246Y0328937I-000394J0000000D01*
G01*
G37*
G36*
G01*
X0316246Y0336417D02*
X0311325Y0336417D01*
G75*
G02*
X0310931Y0336811I0000000J0000394D01*
G01*
X0310931Y0339961D01*
G75*
G02*
X0311325Y0340354I0000394J0000000D01*
G01*
X0316246Y0340354D01*
G75*
G02*
X0316640Y0339961I0000000J-000394D01*
G01*
X0316640Y0336811D01*
G75*
G02*
X0316246Y0336417I-000394J0000000D01*
G01*
G37*
G36*
G01*
X0255865Y0262894D02*
X0252794Y0262894D01*
G75*
G02*
X0252518Y0263169I0000000J0000276D01*
G01*
X0252518Y0265374D01*
G75*
G02*
X0252794Y0265650I0000276J0000000D01*
G01*
X0255865Y0265650D01*
G75*
G02*
X0256140Y0265374I0000000J-000276D01*
G01*
X0256140Y0263169D01*
G75*
G02*
X0255865Y0262894I-000276J0000000D01*
G01*
G37*
G36*
G01*
X0255865Y0269193D02*
X0252794Y0269193D01*
G75*
G02*
X0252518Y0269469I0000000J0000276D01*
G01*
X0252518Y0271673D01*
G75*
G02*
X0252794Y0271949I0000276J0000000D01*
G01*
X0255865Y0271949D01*
G75*
G02*
X0256140Y0271673I0000000J-000276D01*
G01*
X0256140Y0269469D01*
G75*
G02*
X0255865Y0269193I-000276J0000000D01*
G01*
G37*
G36*
G01*
X0417056Y0303728D02*
X0417056Y0305696D01*
G75*
G02*
X0417942Y0306582I0000886J0000000D01*
G01*
X0419713Y0306582D01*
G75*
G02*
X0420599Y0305696I0000000J-000886D01*
G01*
X0420599Y0303728D01*
G75*
G02*
X0419713Y0302842I-000886J0000000D01*
G01*
X0417942Y0302842D01*
G75*
G02*
X0417056Y0303728I0000000J0000886D01*
G01*
G37*
G36*
G01*
X0423158Y0303728D02*
X0423158Y0305696D01*
G75*
G02*
X0424044Y0306582I0000886J0000000D01*
G01*
X0425816Y0306582D01*
G75*
G02*
X0426702Y0305696I0000000J-000886D01*
G01*
X0426702Y0303728D01*
G75*
G02*
X0425816Y0302842I-000886J0000000D01*
G01*
X0424044Y0302842D01*
G75*
G02*
X0423158Y0303728I0000000J0000886D01*
G01*
G37*
G36*
G01*
G75*
G02*
X0134646Y-020846I0000591J0000000D01*
G01*
G75*
G02*
X0141732Y-021437I0000000J-000591D01*
G01*
G75*
G02*
X0141142Y-023209I-000591J0000000D01*
G01*
G75*
G02*
X0134055Y-022618I0000000J0000591D01*
G01*
G37*
G36*
G01*
G75*
G02*
X0134646Y-025846I0000591J0000000D01*
G01*
G75*
G02*
X0141732Y-026437I0000000J-000591D01*
G01*
G75*
G02*
X0141142Y-028209I-000591J0000000D01*
G01*
G75*
G02*
X0134055Y-027618I0000000J0000591D01*
G01*
G37*
G36*
G01*
G75*
G02*
X0134646Y-030846I0000591J0000000D01*
G01*
G75*
G02*
X0141732Y-031437I0000000J-000591D01*
G01*
G75*
G02*
X0141142Y-033209I-000591J0000000D01*
G01*
G75*
G02*
X0134055Y-032618I0000000J0000591D01*
G01*
G37*
G36*
G01*
G75*
G02*
X0134646Y-035846I0000591J0000000D01*
G01*
G75*
G02*
X0141732Y-036437I0000000J-000591D01*
G01*
G75*
G02*
X0141142Y-038209I-000591J0000000D01*
G01*
G75*
G02*
X0134055Y-037618I0000000J0000591D01*
G01*
G37*
G36*
G01*
G75*
G02*
X0154134Y-035846I0000591J0000000D01*
G01*
G75*
G02*
X0161220Y-036437I0000000J-000591D01*
G01*
G75*
G02*
X0160630Y-038209I-000591J0000000D01*
G01*
G75*
G02*
X0153543Y-037618I0000000J0000591D01*
G01*
G37*
G36*
G01*
G75*
G02*
X0154134Y-030846I0000591J0000000D01*
G01*
G75*
G02*
X0161220Y-031437I0000000J-000591D01*
G01*
G75*
G02*
X0160630Y-033209I-000591J0000000D01*
G01*
G75*
G02*
X0153543Y-032618I0000000J0000591D01*
G01*
G37*
G36*
G01*
G75*
G02*
X0154134Y-025846I0000591J0000000D01*
G01*
G75*
G02*
X0161220Y-026437I0000000J-000591D01*
G01*
G75*
G02*
X0160630Y-028209I-000591J0000000D01*
G01*
G75*
G02*
X0153543Y-027618I0000000J0000591D01*
G01*
G37*
G36*
G01*
G75*
G02*
X0154134Y-020846I0000591J0000000D01*
G01*
G75*
G02*
X0161220Y-021437I0000000J-000591D01*
G01*
G75*
G02*
X0160630Y-023209I-000591J0000000D01*
G01*
G75*
G02*
X0153543Y-022618I0000000J0000591D01*
G01*
G37*
D69*
X0152854Y0264567D03*
X0419685Y0134646D03*
G36*
G01*
X0321016Y0271547D02*
X0317945Y0271547D01*
G75*
G02*
X0317669Y0271823I0000000J0000276D01*
G01*
X0317669Y0274028D01*
G75*
G02*
X0317945Y0274303I0000276J0000000D01*
G01*
X0321016Y0274303D01*
G75*
G02*
X0321292Y0274028I0000000J-000276D01*
G01*
X0321292Y0271823D01*
G75*
G02*
X0321016Y0271547I-000276J0000000D01*
G01*
G37*
G36*
G01*
X0321016Y0277846D02*
X0317945Y0277846D01*
G75*
G02*
X0317669Y0278122I0000000J0000276D01*
G01*
X0317669Y0280327D01*
G75*
G02*
X0317945Y0280602I0000276J0000000D01*
G01*
X0321016Y0280602D01*
G75*
G02*
X0321292Y0280327I0000000J-000276D01*
G01*
X0321292Y0278122D01*
G75*
G02*
X0321016Y0277846I-000276J0000000D01*
G01*
G37*
G36*
G01*
X0462992Y0202638D02*
X0462992Y0206772D01*
G75*
G02*
X0463386Y0207165I0000394J0000000D01*
G01*
X0466535Y0207165D01*
G75*
G02*
X0466929Y0206772I0000000J-000394D01*
G01*
X0466929Y0202638D01*
G75*
G02*
X0466535Y0202244I-000394J0000000D01*
G01*
X0463386Y0202244D01*
G75*
G02*
X0462992Y0202638I0000000J0000394D01*
G01*
G37*
G36*
G01*
X0470866Y0202638D02*
X0470866Y0206772D01*
G75*
G02*
X0471260Y0207165I0000394J0000000D01*
G01*
X0474409Y0207165D01*
G75*
G02*
X0474803Y0206772I0000000J-000394D01*
G01*
X0474803Y0202638D01*
G75*
G02*
X0474409Y0202244I-000394J0000000D01*
G01*
X0471260Y0202244D01*
G75*
G02*
X0470866Y0202638I0000000J0000394D01*
G01*
G37*
G36*
G01*
X0386024Y0304154D02*
X0386024Y0305335D01*
G75*
G02*
X0386614Y0305925I0000591J0000000D01*
G01*
X0393110Y0305925D01*
G75*
G02*
X0393701Y0305335I0000000J-000591D01*
G01*
X0393701Y0304154D01*
G75*
G02*
X0393110Y0303563I-000591J0000000D01*
G01*
X0386614Y0303563D01*
G75*
G02*
X0386024Y0304154I0000000J0000591D01*
G01*
G37*
G36*
G01*
X0386024Y0299154D02*
X0386024Y0300335D01*
G75*
G02*
X0386614Y0300925I0000591J0000000D01*
G01*
X0393110Y0300925D01*
G75*
G02*
X0393701Y0300335I0000000J-000591D01*
G01*
X0393701Y0299154D01*
G75*
G02*
X0393110Y0298563I-000591J0000000D01*
G01*
X0386614Y0298563D01*
G75*
G02*
X0386024Y0299154I0000000J0000591D01*
G01*
G37*
G36*
G01*
X0386024Y0294154D02*
X0386024Y0295335D01*
G75*
G02*
X0386614Y0295925I0000591J0000000D01*
G01*
X0393110Y0295925D01*
G75*
G02*
X0393701Y0295335I0000000J-000591D01*
G01*
X0393701Y0294154D01*
G75*
G02*
X0393110Y0293563I-000591J0000000D01*
G01*
X0386614Y0293563D01*
G75*
G02*
X0386024Y0294154I0000000J0000591D01*
G01*
G37*
G36*
G01*
X0386024Y0289154D02*
X0386024Y0290335D01*
G75*
G02*
X0386614Y0290925I0000591J0000000D01*
G01*
X0393110Y0290925D01*
G75*
G02*
X0393701Y0290335I0000000J-000591D01*
G01*
X0393701Y0289154D01*
G75*
G02*
X0393110Y0288563I-000591J0000000D01*
G01*
X0386614Y0288563D01*
G75*
G02*
X0386024Y0289154I0000000J0000591D01*
G01*
G37*
G36*
G01*
X0405512Y0289154D02*
X0405512Y0290335D01*
G75*
G02*
X0406102Y0290925I0000591J0000000D01*
G01*
X0412598Y0290925D01*
G75*
G02*
X0413189Y0290335I0000000J-000591D01*
G01*
X0413189Y0289154D01*
G75*
G02*
X0412598Y0288563I-000591J0000000D01*
G01*
X0406102Y0288563D01*
G75*
G02*
X0405512Y0289154I0000000J0000591D01*
G01*
G37*
G36*
G01*
X0405512Y0294154D02*
X0405512Y0295335D01*
G75*
G02*
X0406102Y0295925I0000591J0000000D01*
G01*
X0412598Y0295925D01*
G75*
G02*
X0413189Y0295335I0000000J-000591D01*
G01*
X0413189Y0294154D01*
G75*
G02*
X0412598Y0293563I-000591J0000000D01*
G01*
X0406102Y0293563D01*
G75*
G02*
X0405512Y0294154I0000000J0000591D01*
G01*
G37*
G36*
G01*
X0405512Y0299154D02*
X0405512Y0300335D01*
G75*
G02*
X0406102Y0300925I0000591J0000000D01*
G01*
X0412598Y0300925D01*
G75*
G02*
X0413189Y0300335I0000000J-000591D01*
G01*
X0413189Y0299154D01*
G75*
G02*
X0412598Y0298563I-000591J0000000D01*
G01*
X0406102Y0298563D01*
G75*
G02*
X0405512Y0299154I0000000J0000591D01*
G01*
G37*
G36*
G01*
X0405512Y0304154D02*
X0405512Y0305335D01*
G75*
G02*
X0406102Y0305925I0000591J0000000D01*
G01*
X0412598Y0305925D01*
G75*
G02*
X0413189Y0305335I0000000J-000591D01*
G01*
X0413189Y0304154D01*
G75*
G02*
X0412598Y0303563I-000591J0000000D01*
G01*
X0406102Y0303563D01*
G75*
G02*
X0405512Y0304154I0000000J0000591D01*
G01*
G37*
G36*
G01*
X0327470Y0328937D02*
X0322549Y0328937D01*
G75*
G02*
X0322155Y0329331I0000000J0000394D01*
G01*
X0322155Y0332480D01*
G75*
G02*
X0322549Y0332874I0000394J0000000D01*
G01*
X0327470Y0332874D01*
G75*
G02*
X0327864Y0332480I0000000J-000394D01*
G01*
X0327864Y0329331D01*
G75*
G02*
X0327470Y0328937I-000394J0000000D01*
G01*
G37*
G36*
G01*
X0327470Y0336417D02*
X0322549Y0336417D01*
G75*
G02*
X0322155Y0336811I0000000J0000394D01*
G01*
X0322155Y0339961D01*
G75*
G02*
X0322549Y0340354I0000394J0000000D01*
G01*
X0327470Y0340354D01*
G75*
G02*
X0327864Y0339961I0000000J-000394D01*
G01*
X0327864Y0336811D01*
G75*
G02*
X0327470Y0336417I-000394J0000000D01*
G01*
G37*
G36*
G01*
X0462992Y0211496D02*
X0462992Y0215630D01*
G75*
G02*
X0463386Y0216024I0000394J0000000D01*
G01*
X0466535Y0216024D01*
G75*
G02*
X0466929Y0215630I0000000J-000394D01*
G01*
X0466929Y0211496D01*
G75*
G02*
X0466535Y0211102I-000394J0000000D01*
G01*
X0463386Y0211102D01*
G75*
G02*
X0462992Y0211496I0000000J0000394D01*
G01*
G37*
G36*
G01*
X0470866Y0211496D02*
X0470866Y0215630D01*
G75*
G02*
X0471260Y0216024I0000394J0000000D01*
G01*
X0474409Y0216024D01*
G75*
G02*
X0474803Y0215630I0000000J-000394D01*
G01*
X0474803Y0211496D01*
G75*
G02*
X0474409Y0211102I-000394J0000000D01*
G01*
X0471260Y0211102D01*
G75*
G02*
X0470866Y0211496I0000000J0000394D01*
G01*
G37*
G36*
G01*
X0481201Y0283419D02*
X0481201Y0286490D01*
G75*
G02*
X0481476Y0286765I0000276J0000000D01*
G01*
X0483681Y0286765D01*
G75*
G02*
X0483957Y0286490I0000000J-000276D01*
G01*
X0483957Y0283419D01*
G75*
G02*
X0483681Y0283143I-000276J0000000D01*
G01*
X0481476Y0283143D01*
G75*
G02*
X0481201Y0283419I0000000J0000276D01*
G01*
G37*
G36*
G01*
X0487500Y0283419D02*
X0487500Y0286490D01*
G75*
G02*
X0487776Y0286765I0000276J0000000D01*
G01*
X0489980Y0286765D01*
G75*
G02*
X0490256Y0286490I0000000J-000276D01*
G01*
X0490256Y0283419D01*
G75*
G02*
X0489980Y0283143I-000276J0000000D01*
G01*
X0487776Y0283143D01*
G75*
G02*
X0487500Y0283419I0000000J0000276D01*
G01*
G37*
G36*
G01*
X0067126Y0228874D02*
X0067126Y0233795D01*
G75*
G02*
X0067520Y0234189I0000394J0000000D01*
G01*
X0070669Y0234189D01*
G75*
G02*
X0071063Y0233795I0000000J-000394D01*
G01*
X0071063Y0228874D01*
G75*
G02*
X0070669Y0228480I-000394J0000000D01*
G01*
X0067520Y0228480D01*
G75*
G02*
X0067126Y0228874I0000000J0000394D01*
G01*
G37*
G36*
G01*
X0074606Y0228874D02*
X0074606Y0233795D01*
G75*
G02*
X0075000Y0234189I0000394J0000000D01*
G01*
X0078150Y0234189D01*
G75*
G02*
X0078543Y0233795I0000000J-000394D01*
G01*
X0078543Y0228874D01*
G75*
G02*
X0078150Y0228480I-000394J0000000D01*
G01*
X0075000Y0228480D01*
G75*
G02*
X0074606Y0228874I0000000J0000394D01*
G01*
G37*
G36*
G01*
X0082173Y0297504D02*
X0082173Y0294748D01*
G75*
G02*
X0081189Y0293764I-000984J0000000D01*
G01*
X0074496Y0293764D01*
G75*
G02*
X0073512Y0294748I0000000J0000984D01*
G01*
X0073512Y0297504D01*
G75*
G02*
X0074496Y0298488I0000984J0000000D01*
G01*
X0081189Y0298488D01*
G75*
G02*
X0082173Y0297504I0000000J-000984D01*
G01*
G37*
G36*
G01*
X0065638Y0303528D02*
X0065638Y0294669D01*
G75*
G02*
X0064654Y0293685I-000984J0000000D01*
G01*
X0054614Y0293685D01*
G75*
G02*
X0053630Y0294669I0000000J0000984D01*
G01*
X0053630Y0303528D01*
G75*
G02*
X0054614Y0304512I0000984J0000000D01*
G01*
X0064654Y0304512D01*
G75*
G02*
X0065638Y0303528I0000000J-000984D01*
G01*
G37*
G36*
G01*
X0065638Y0315535D02*
X0065638Y0306677D01*
G75*
G02*
X0064654Y0305693I-000984J0000000D01*
G01*
X0054614Y0305693D01*
G75*
G02*
X0053630Y0306677I0000000J0000984D01*
G01*
X0053630Y0315535D01*
G75*
G02*
X0054614Y0316520I0000984J0000000D01*
G01*
X0064654Y0316520D01*
G75*
G02*
X0065638Y0315535I0000000J-000984D01*
G01*
G37*
G36*
G01*
X0052449Y0303528D02*
X0052449Y0294669D01*
G75*
G02*
X0051465Y0293685I-000984J0000000D01*
G01*
X0041425Y0293685D01*
G75*
G02*
X0040441Y0294669I0000000J0000984D01*
G01*
X0040441Y0303528D01*
G75*
G02*
X0041425Y0304512I0000984J0000000D01*
G01*
X0051465Y0304512D01*
G75*
G02*
X0052449Y0303528I0000000J-000984D01*
G01*
G37*
G36*
G01*
X0052449Y0315535D02*
X0052449Y0306677D01*
G75*
G02*
X0051465Y0305693I-000984J0000000D01*
G01*
X0041425Y0305693D01*
G75*
G02*
X0040441Y0306677I0000000J0000984D01*
G01*
X0040441Y0315535D01*
G75*
G02*
X0041425Y0316520I0000984J0000000D01*
G01*
X0051465Y0316520D01*
G75*
G02*
X0052449Y0315535I0000000J-000984D01*
G01*
G37*
G36*
G01*
X0082173Y0315457D02*
X0082173Y0312701D01*
G75*
G02*
X0081189Y0311717I-000984J0000000D01*
G01*
X0074496Y0311717D01*
G75*
G02*
X0073512Y0312701I0000000J0000984D01*
G01*
X0073512Y0315457D01*
G75*
G02*
X0074496Y0316441I0000984J0000000D01*
G01*
X0081189Y0316441D01*
G75*
G02*
X0082173Y0315457I0000000J-000984D01*
G01*
G37*
G36*
G01*
X0095374Y0204106D02*
X0092303Y0204106D01*
G75*
G02*
X0092028Y0204382I0000000J0000276D01*
G01*
X0092028Y0206587D01*
G75*
G02*
X0092303Y0206862I0000276J0000000D01*
G01*
X0095374Y0206862D01*
G75*
G02*
X0095650Y0206587I0000000J-000276D01*
G01*
X0095650Y0204382D01*
G75*
G02*
X0095374Y0204106I-000276J0000000D01*
G01*
G37*
G36*
G01*
X0095374Y0210406D02*
X0092303Y0210406D01*
G75*
G02*
X0092028Y0210681I0000000J0000276D01*
G01*
X0092028Y0212886D01*
G75*
G02*
X0092303Y0213161I0000276J0000000D01*
G01*
X0095374Y0213161D01*
G75*
G02*
X0095650Y0212886I0000000J-000276D01*
G01*
X0095650Y0210681D01*
G75*
G02*
X0095374Y0210406I-000276J0000000D01*
G01*
G37*
G36*
G01*
G75*
G02*
X0165138Y-019902I0000276J0000000D01*
G01*
G75*
G02*
X0167618Y-020177I0000000J-000276D01*
G01*
G75*
G02*
X0167343Y-023524I-000276J0000000D01*
G01*
G75*
G02*
X0164862Y-023248I0000000J0000276D01*
G01*
G37*
G36*
G01*
G75*
G02*
X0171437Y-019902I0000276J0000000D01*
G01*
G75*
G02*
X0173917Y-020177I0000000J-000276D01*
G01*
G75*
G02*
X0173642Y-023524I-000276J0000000D01*
G01*
G75*
G02*
X0171161Y-023248I0000000J0000276D01*
G01*
G37*
G36*
G01*
X0250492Y0275886D02*
X0246358Y0275886D01*
G75*
G02*
X0245965Y0276280I0000000J0000394D01*
G01*
X0245965Y0279429D01*
G75*
G02*
X0246358Y0279823I0000394J0000000D01*
G01*
X0250492Y0279823D01*
G75*
G02*
X0250886Y0279429I0000000J-000394D01*
G01*
X0250886Y0276280D01*
G75*
G02*
X0250492Y0275886I-000394J0000000D01*
G01*
G37*
G36*
G01*
X0250492Y0283760D02*
X0246358Y0283760D01*
G75*
G02*
X0245965Y0284154I0000000J0000394D01*
G01*
X0245965Y0287303D01*
G75*
G02*
X0246358Y0287697I0000394J0000000D01*
G01*
X0250492Y0287697D01*
G75*
G02*
X0250886Y0287303I0000000J-000394D01*
G01*
X0250886Y0284154D01*
G75*
G02*
X0250492Y0283760I-000394J0000000D01*
G01*
G37*
G36*
G01*
X0240518Y0262894D02*
X0237447Y0262894D01*
G75*
G02*
X0237172Y0263169I0000000J0000276D01*
G01*
X0237172Y0265374D01*
G75*
G02*
X0237447Y0265650I0000276J0000000D01*
G01*
X0240518Y0265650D01*
G75*
G02*
X0240794Y0265374I0000000J-000276D01*
G01*
X0240794Y0263169D01*
G75*
G02*
X0240518Y0262894I-000276J0000000D01*
G01*
G37*
G36*
G01*
X0240518Y0269193D02*
X0237447Y0269193D01*
G75*
G02*
X0237172Y0269469I0000000J0000276D01*
G01*
X0237172Y0271673D01*
G75*
G02*
X0237447Y0271949I0000276J0000000D01*
G01*
X0240518Y0271949D01*
G75*
G02*
X0240794Y0271673I0000000J-000276D01*
G01*
X0240794Y0269469D01*
G75*
G02*
X0240518Y0269193I-000276J0000000D01*
G01*
G37*
G36*
G01*
X0462992Y0193780D02*
X0462992Y0197913D01*
G75*
G02*
X0463386Y0198307I0000394J0000000D01*
G01*
X0466535Y0198307D01*
G75*
G02*
X0466929Y0197913I0000000J-000394D01*
G01*
X0466929Y0193780D01*
G75*
G02*
X0466535Y0193386I-000394J0000000D01*
G01*
X0463386Y0193386D01*
G75*
G02*
X0462992Y0193780I0000000J0000394D01*
G01*
G37*
G36*
G01*
X0470866Y0193780D02*
X0470866Y0197913D01*
G75*
G02*
X0471260Y0198307I0000394J0000000D01*
G01*
X0474409Y0198307D01*
G75*
G02*
X0474803Y0197913I0000000J-000394D01*
G01*
X0474803Y0193780D01*
G75*
G02*
X0474409Y0193386I-000394J0000000D01*
G01*
X0471260Y0193386D01*
G75*
G02*
X0470866Y0193780I0000000J0000394D01*
G01*
G37*
G36*
G01*
X0313343Y0271547D02*
X0310272Y0271547D01*
G75*
G02*
X0309996Y0271823I0000000J0000276D01*
G01*
X0309996Y0274028D01*
G75*
G02*
X0310272Y0274303I0000276J0000000D01*
G01*
X0313343Y0274303D01*
G75*
G02*
X0313618Y0274028I0000000J-000276D01*
G01*
X0313618Y0271823D01*
G75*
G02*
X0313343Y0271547I-000276J0000000D01*
G01*
G37*
G36*
G01*
X0313343Y0277846D02*
X0310272Y0277846D01*
G75*
G02*
X0309996Y0278122I0000000J0000276D01*
G01*
X0309996Y0280327D01*
G75*
G02*
X0310272Y0280602I0000276J0000000D01*
G01*
X0313343Y0280602D01*
G75*
G02*
X0313618Y0280327I0000000J-000276D01*
G01*
X0313618Y0278122D01*
G75*
G02*
X0313343Y0277846I-000276J0000000D01*
G01*
G37*
X0600012Y0330500D02*
G01*
G75*
D309*
X0554933Y0306133D02*
D03*
X0554933Y0323850D02*
D03*
D310*
X0558260Y0281681D02*
D03*
X0585622Y0281681D02*
D03*
D311*
X0569500Y0304909D02*
D03*
X0585642Y0304909D02*
D03*
D312*
X0567729Y0323020D02*
D03*
X0583477Y0323020D02*
D03*
D313*
X0590668Y0261242D02*
D03*
X0581416Y0264982D02*
D03*
D313*
X0581416Y0257502D02*
D03*
D314*
X0558581Y0251563D02*
D03*
D314*
X0558581Y0255303D02*
D03*
X0558581Y0259043D02*
D03*
X0550117Y0259043D02*
D03*
X0550117Y0251563D02*
D03*
D315*
X0546265Y0265564D02*
D03*
X0559257Y0265564D02*
D03*
D316*
X0564551Y0265276D02*
D03*
X0575969Y0265276D02*
D03*
D317*
X0545366Y0297823D02*
D03*
X0551587Y0297823D02*
D03*
X0555957Y0297823D02*
D03*
X0562177Y0297823D02*
D03*
D318*
X0596043Y0320712D02*
D03*
X0596043Y0316578D02*
D03*
X0545488Y0278838D02*
D03*
X0545488Y0274704D02*
D03*
X0545488Y0283551D02*
D03*
X0545488Y0287685D02*
D03*
X0544596Y0303200D02*
D03*
X0544596Y0307334D02*
D03*
D319*
X0563699Y0258993D02*
D03*
X0563699Y0255056D02*
D03*
X0577374Y0258091D02*
D03*
X0568713Y0258091D02*
D03*
X0577374Y0251694D02*
D03*
X0568713Y0251694D02*
D03*
D320*
X0585747Y0251563D02*
D03*
X0582203Y0251563D02*
D03*
D321*
X0549746Y0274901D02*
D03*
X0549746Y0278445D02*
D03*
X0549746Y0283945D02*
D03*
X0549746Y0287488D02*
D03*
X0544596Y0315501D02*
D03*
X0544596Y0311957D02*
D03*
X0347933Y0110728D02*
G01*
G75*
D46*
X0206594Y0164075D02*
D03*
D45*
X0206594Y0150295D02*
D03*
D48*
X0312697Y0244193D02*
D03*
D43*
X0206594Y0202460D02*
D03*
X0347539Y0118208D02*
D03*
D44*
X0347539Y0231988D02*
D03*
X0206594Y0126476D02*
D03*
D41*
X0311909Y0111122D02*
D03*
D42*
X0343405Y0111122D02*
D03*
D40*
X0258169Y0111122D02*
D03*
D49*
X0335531Y0244193D02*
D03*
D47*
X0219980Y0244193D02*
D03*
D38*
X0240650Y0111122D02*
D03*
X0216634Y0111122D02*
D03*
D39*
X0228642Y0111122D02*
D03*
X0254232Y0244193D02*
D03*
D345*
X0329843Y0234350D02*
D03*
X0329843Y0241437D02*
D03*
X0339882Y0241437D02*
D03*
X0339882Y0234350D02*
D03*
X0281102Y0122539D02*
D03*
X0281102Y0115452D02*
D03*
X0291142Y0115452D02*
D03*
X0291142Y0122539D02*
D03*
X0275000Y0122539D02*
D03*
X0275000Y0115452D02*
D03*
X0264960Y0115452D02*
D03*
X0264960Y0122539D02*
D03*
D346*
X0333287Y0234350D02*
D03*
X0336437Y0234350D02*
D03*
X0336437Y0241437D02*
D03*
X0333287Y0241437D02*
D03*
X0287697Y0115452D02*
D03*
X0284547Y0115452D02*
D03*
X0284547Y0122539D02*
D03*
X0287697Y0122539D02*
D03*
X0271555Y0122539D02*
D03*
X0268405Y0122539D02*
D03*
X0268405Y0115452D02*
D03*
X0271555Y0115452D02*
D03*
D347*
X0332839Y0230138D02*
D03*
X0330280Y0230138D02*
D03*
X0327720Y0230138D02*
D03*
X0332839Y0222658D02*
D03*
X0327720Y0222658D02*
D03*
X0330280Y0222658D02*
D03*
X0337464Y0222658D02*
D03*
X0342583Y0222658D02*
D03*
X0337464Y0230138D02*
D03*
X0340024Y0230138D02*
D03*
X0342583Y0230138D02*
D03*
X0340024Y0222658D02*
D03*
D143*
X0233563Y0162930D02*
D03*
X0235531Y0162930D02*
D03*
X0237500Y0162930D02*
D03*
X0239468Y0162930D02*
D03*
X0241437Y0162930D02*
D03*
X0243405Y0162930D02*
D03*
X0245374Y0162930D02*
D03*
X0247342Y0162930D02*
D03*
X0249311Y0162930D02*
D03*
X0253248Y0162930D02*
D03*
X0255217Y0162930D02*
D03*
X0257185Y0162930D02*
D03*
X0259154Y0162930D02*
D03*
X0261122Y0162930D02*
D03*
X0263091Y0162930D02*
D03*
X0265059Y0162930D02*
D03*
X0267028Y0162930D02*
D03*
X0268996Y0162930D02*
D03*
X0270965Y0162930D02*
D03*
X0272933Y0162930D02*
D03*
X0274901Y0162930D02*
D03*
X0276870Y0162930D02*
D03*
X0278838Y0162930D02*
D03*
X0280807Y0162930D02*
D03*
X0280807Y0223954D02*
D03*
X0278838Y0223954D02*
D03*
X0276870Y0223954D02*
D03*
X0274901Y0223954D02*
D03*
X0272933Y0223954D02*
D03*
X0270965Y0223954D02*
D03*
X0268996Y0223954D02*
D03*
X0267028Y0223954D02*
D03*
X0265059Y0223954D02*
D03*
X0263091Y0223954D02*
D03*
X0261122Y0223954D02*
D03*
X0259154Y0223954D02*
D03*
X0257185Y0223954D02*
D03*
X0255217Y0223954D02*
D03*
X0253248Y0223954D02*
D03*
X0251280Y0223954D02*
D03*
X0249311Y0223954D02*
D03*
X0247342Y0223954D02*
D03*
X0245374Y0223954D02*
D03*
X0243405Y0223954D02*
D03*
X0241437Y0223954D02*
D03*
X0239468Y0223954D02*
D03*
X0237500Y0223954D02*
D03*
X0233563Y0223954D02*
D03*
X0251280Y0162930D02*
D03*
X0235531Y0223954D02*
D03*
D142*
X0287697Y0169820D02*
D03*
X0287697Y0173757D02*
D03*
X0287697Y0175726D02*
D03*
X0287697Y0177694D02*
D03*
X0287697Y0179663D02*
D03*
X0287697Y0181631D02*
D03*
X0287697Y0183600D02*
D03*
X0287697Y0185568D02*
D03*
X0287697Y0187537D02*
D03*
X0287697Y0189505D02*
D03*
X0287697Y0191474D02*
D03*
X0287697Y0193442D02*
D03*
X0287697Y0195411D02*
D03*
X0287697Y0197379D02*
D03*
X0287697Y0199348D02*
D03*
X0287697Y0201316D02*
D03*
X0287697Y0203285D02*
D03*
X0287697Y0205253D02*
D03*
X0287697Y0207222D02*
D03*
X0287697Y0209190D02*
D03*
X0287697Y0211159D02*
D03*
X0287697Y0213127D02*
D03*
X0287697Y0215096D02*
D03*
X0287697Y0217064D02*
D03*
X0226673Y0217064D02*
D03*
X0226673Y0215096D02*
D03*
X0226673Y0213127D02*
D03*
X0226673Y0211159D02*
D03*
X0226673Y0209190D02*
D03*
X0226673Y0207222D02*
D03*
X0226673Y0205253D02*
D03*
X0226673Y0203285D02*
D03*
X0226673Y0201316D02*
D03*
X0226673Y0199348D02*
D03*
X0226673Y0197379D02*
D03*
X0226673Y0195411D02*
D03*
X0226673Y0193442D02*
D03*
X0226673Y0191474D02*
D03*
X0226673Y0189505D02*
D03*
X0226673Y0187537D02*
D03*
X0226673Y0185568D02*
D03*
X0226673Y0183600D02*
D03*
X0226673Y0181631D02*
D03*
X0226673Y0179663D02*
D03*
X0226673Y0177694D02*
D03*
X0226673Y0175726D02*
D03*
X0226673Y0173757D02*
D03*
X0226673Y0171789D02*
D03*
X0226673Y0169820D02*
D03*
X0287697Y0171789D02*
D03*
D348*
X0304626Y0166437D02*
D03*
X0304626Y0194389D02*
D03*
X0304626Y0138484D02*
D03*
X0309744Y0143996D02*
D03*
X0299508Y0171949D02*
D03*
X0302067Y0171949D02*
D03*
X0304626Y0171949D02*
D03*
X0307185Y0171949D02*
D03*
X0309744Y0171949D02*
D03*
X0312303Y0171949D02*
D03*
X0314862Y0171949D02*
D03*
X0299508Y0194389D02*
D03*
X0302067Y0194389D02*
D03*
X0307185Y0194389D02*
D03*
X0309744Y0194389D02*
D03*
X0312303Y0194389D02*
D03*
X0314862Y0194389D02*
D03*
X0299508Y0116043D02*
D03*
X0302067Y0116043D02*
D03*
X0304626Y0116043D02*
D03*
X0307185Y0116043D02*
D03*
X0309744Y0116043D02*
D03*
X0312303Y0116043D02*
D03*
X0314862Y0116043D02*
D03*
X0299508Y0138484D02*
D03*
X0302067Y0138484D02*
D03*
X0307185Y0138484D02*
D03*
X0309744Y0138484D02*
D03*
X0312303Y0138484D02*
D03*
X0314862Y0138484D02*
D03*
X0299508Y0143996D02*
D03*
X0302067Y0143996D02*
D03*
X0304626Y0143996D02*
D03*
X0307185Y0143996D02*
D03*
X0312303Y0143996D02*
D03*
X0314862Y0143996D02*
D03*
X0299508Y0166437D02*
D03*
X0302067Y0166437D02*
D03*
X0307185Y0166437D02*
D03*
X0309744Y0166437D02*
D03*
X0312303Y0166437D02*
D03*
X0314862Y0166437D02*
D03*
X0314862Y0222342D02*
D03*
X0312303Y0222342D02*
D03*
X0309744Y0222342D02*
D03*
X0307185Y0222342D02*
D03*
X0304626Y0222342D02*
D03*
X0302067Y0222342D02*
D03*
X0299508Y0222342D02*
D03*
X0314862Y0199901D02*
D03*
X0312303Y0199901D02*
D03*
X0309744Y0199901D02*
D03*
X0307185Y0199901D02*
D03*
X0304626Y0199901D02*
D03*
X0302067Y0199901D02*
D03*
X0299508Y0199901D02*
D03*
D349*
X0212500Y0235137D02*
D03*
X0212500Y0238878D02*
D03*
X0212500Y0231397D02*
D03*
X0221949Y0231397D02*
D03*
X0221949Y0235137D02*
D03*
X0221949Y0238878D02*
D03*
D350*
X0233760Y0236587D02*
D03*
X0229035Y0236587D02*
D03*
X0243307Y0235118D02*
D03*
X0216522Y0148578D02*
D03*
X0292388Y0161890D02*
D03*
X0233760Y0232651D02*
D03*
X0243307Y0239056D02*
D03*
X0280291Y0233756D02*
D03*
X0280291Y0237693D02*
D03*
X0289346Y0233756D02*
D03*
X0289346Y0237693D02*
D03*
X0229035Y0232651D02*
D03*
X0216522Y0152515D02*
D03*
X0233237Y0145438D02*
D03*
X0233237Y0149375D02*
D03*
X0292388Y0165827D02*
D03*
X0288092Y0165846D02*
D03*
X0288092Y0161909D02*
D03*
D148*
X0251942Y0239044D02*
D03*
X0253910Y0239044D02*
D03*
X0249973Y0232745D02*
D03*
X0251942Y0232745D02*
D03*
X0248005Y0232745D02*
D03*
X0253910Y0232745D02*
D03*
X0248005Y0239044D02*
D03*
X0249973Y0239044D02*
D03*
D147*
X0254107Y0236879D02*
D03*
X0254107Y0234910D02*
D03*
X0247808Y0234910D02*
D03*
X0247808Y0236879D02*
D03*
D351*
X0258957Y0234139D02*
D03*
X0275492Y0234139D02*
D03*
D352*
X0331398Y0205610D02*
D03*
X0331398Y0215059D02*
D03*
X0331398Y0210334D02*
D03*
X0331398Y0200886D02*
D03*
X0342815Y0215059D02*
D03*
X0342815Y0205610D02*
D03*
X0342815Y0210334D02*
D03*
X0342815Y0200886D02*
D03*
X0324418Y0194676D02*
D03*
X0320481Y0194676D02*
D03*
X0338878Y0200886D02*
D03*
D03*
X0334941Y0200886D02*
D03*
X0338878Y0205610D02*
D03*
X0334941Y0205610D02*
D03*
X0327461Y0200886D02*
D03*
X0338878Y0210334D02*
D03*
X0334941Y0210334D02*
D03*
X0327461Y0205610D02*
D03*
X0327461Y0210334D02*
D03*
X0338878Y0215059D02*
D03*
X0334941Y0215059D02*
D03*
X0338878Y0215059D02*
D03*
X0327461Y0215059D02*
D03*
X0338878Y0205610D02*
D03*
X0338878Y0210334D02*
D03*
X0336516Y0114862D02*
D03*
X0340453Y0114862D02*
D03*
X0338878Y0139468D02*
D03*
X0342815Y0139468D02*
D03*
X0338878Y0153641D02*
D03*
X0342815Y0153641D02*
D03*
X0334941Y0172539D02*
D03*
X0338878Y0172539D02*
D03*
X0342815Y0172539D02*
D03*
X0338878Y0172539D02*
D03*
X0334941Y0186712D02*
D03*
X0338878Y0186712D02*
D03*
X0319783Y0114862D02*
D03*
X0323720Y0114862D02*
D03*
X0338878Y0120571D02*
D03*
X0334941Y0120571D02*
D03*
X0338878Y0125295D02*
D03*
X0334941Y0125295D02*
D03*
X0338878Y0130019D02*
D03*
X0334941Y0130019D02*
D03*
X0338878Y0134744D02*
D03*
X0334941Y0134744D02*
D03*
X0338878Y0120571D02*
D03*
X0342815Y0120571D02*
D03*
X0338878Y0125295D02*
D03*
X0342815Y0125295D02*
D03*
X0338878Y0130019D02*
D03*
X0342815Y0130019D02*
D03*
X0338878Y0134744D02*
D03*
X0342815Y0134744D02*
D03*
X0338878Y0139468D02*
D03*
X0334941Y0139468D02*
D03*
X0338878Y0144193D02*
D03*
X0334941Y0144193D02*
D03*
X0338878Y0148917D02*
D03*
X0334941Y0148917D02*
D03*
X0338878Y0153641D02*
D03*
X0334941Y0153641D02*
D03*
X0338878Y0144193D02*
D03*
X0342815Y0144193D02*
D03*
X0338878Y0148917D02*
D03*
X0342815Y0148917D02*
D03*
X0334941Y0158366D02*
D03*
X0338878Y0158366D02*
D03*
X0334941Y0163090D02*
D03*
X0338878Y0163090D02*
D03*
X0334941Y0167815D02*
D03*
X0338878Y0167815D02*
D03*
X0342815Y0158366D02*
D03*
X0338878Y0158366D02*
D03*
X0342815Y0163090D02*
D03*
X0338878Y0163090D02*
D03*
X0342815Y0167815D02*
D03*
X0338878Y0167815D02*
D03*
X0334941Y0177264D02*
D03*
X0338878Y0177264D02*
D03*
X0334941Y0181988D02*
D03*
X0338878Y0181988D02*
D03*
X0334941Y0191437D02*
D03*
X0338878Y0191437D02*
D03*
X0342815Y0177264D02*
D03*
X0338878Y0177264D02*
D03*
X0342815Y0181988D02*
D03*
X0338878Y0181988D02*
D03*
X0342815Y0186712D02*
D03*
X0338878Y0186712D02*
D03*
X0342815Y0191437D02*
D03*
X0338878Y0191437D02*
D03*
X0328839Y0114862D02*
D03*
X0332776Y0114862D02*
D03*
D353*
X0325886Y0179626D02*
D03*
X0325886Y0160728D02*
D03*
X0325886Y0141830D02*
D03*
X0325886Y0122933D02*
D03*
X0322146Y0151279D02*
D03*
X0325886Y0151279D02*
D03*
X0329626Y0151279D02*
D03*
X0329626Y0141830D02*
D03*
X0322146Y0141830D02*
D03*
X0322146Y0132382D02*
D03*
X0325886Y0132382D02*
D03*
X0329626Y0132382D02*
D03*
X0329626Y0122933D02*
D03*
X0322146Y0122933D02*
D03*
X0322146Y0170177D02*
D03*
X0325886Y0170177D02*
D03*
X0329626Y0170177D02*
D03*
X0329626Y0160728D02*
D03*
X0322146Y0160728D02*
D03*
X0322146Y0189075D02*
D03*
X0325886Y0189075D02*
D03*
X0329626Y0189075D02*
D03*
X0329626Y0179626D02*
D03*
X0322146Y0179626D02*
D03*
D354*
X0228851Y0145641D02*
D03*
X0218602Y0163563D02*
D03*
D252*
X0253974Y0136319D02*
D03*
X0258974Y0117421D02*
D03*
X0243974Y0117421D02*
D03*
X0248974Y0117421D02*
D03*
X0253974Y0117421D02*
D03*
X0243974Y0136319D02*
D03*
X0248974Y0136319D02*
D03*
X0258974Y0136319D02*
D03*
D355*
X0236333Y0118011D02*
D03*
X0236333Y0136122D02*
D03*
D356*
X0267859Y0152473D02*
D03*
X0268407Y0136264D02*
D03*
X0276019Y0152950D02*
D03*
X0283630Y0152950D02*
D03*
X0276019Y0136264D02*
D03*
X0283630Y0136264D02*
D03*
X0291242Y0152950D02*
D03*
X0291242Y0136264D02*
D03*
X0267859Y0145780D02*
D03*
X0276019Y0146257D02*
D03*
X0283630Y0146257D02*
D03*
X0291242Y0146257D02*
D03*
X0276019Y0129571D02*
D03*
X0268407Y0129571D02*
D03*
X0259882Y0145780D02*
D03*
X0259882Y0152473D02*
D03*
X0252795Y0152473D02*
D03*
X0252795Y0145780D02*
D03*
X0245709Y0145780D02*
D03*
X0245709Y0152473D02*
D03*
X0238622Y0152473D02*
D03*
X0238622Y0145780D02*
D03*
X0283630Y0129571D02*
D03*
X0291242Y0129571D02*
D03*
X0211122Y0152473D02*
D03*
X0211122Y0145780D02*
D03*
D357*
X0238535Y0239147D02*
D03*
X0238535Y0232847D02*
D03*
X0284976Y0231787D02*
D03*
X0284976Y0238087D02*
D03*
D358*
X0215593Y0198522D02*
D03*
X0215593Y0181987D02*
D03*
D354*
X0211122Y0163563D02*
D03*
X0214862Y0172815D02*
D03*
X0221371Y0145641D02*
D03*
X0225111Y0154893D02*
D03*
D359*
X0211923Y0127067D02*
D03*
D360*
X0236333Y0127067D02*
D03*
D98*
X0338878Y0196358D02*
D03*
X0344783Y0115452D02*
D03*
D361*
X0321136Y0233549D02*
D03*
X0303420Y0233549D02*
D03*
X0292224Y0090256D02*
%LPD*%
G01*
G36*
G01*
X0224616Y0054547D02*
X0225974Y0054547D01*
G75*
G02*
X0226555Y0053967I0000000J-000581D01*
G01*
X0226555Y0052805D01*
G75*
G02*
X0225974Y0052225I-000581J0000000D01*
G01*
X0224616Y0052225D01*
G75*
G02*
X0224035Y0052805I0000000J0000581D01*
G01*
X0224035Y0053967D01*
G75*
G02*
X0224616Y0054547I0000581J0000000D01*
G01*
G37*
G36*
G01*
X0224616Y0050728D02*
X0225974Y0050728D01*
G75*
G02*
X0226555Y0050148I0000000J-000581D01*
G01*
X0226555Y0048986D01*
G75*
G02*
X0225974Y0048406I-000581J0000000D01*
G01*
X0224616Y0048406D01*
G75*
G02*
X0224035Y0048986I0000000J0000581D01*
G01*
X0224035Y0050148D01*
G75*
G02*
X0224616Y0050728I0000581J0000000D01*
G01*
G37*
G36*
G01*
X0283189Y0069971D02*
X0283189Y0068612D01*
G75*
G02*
X0282608Y0068032I-000581J0000000D01*
G01*
X0281446Y0068032D01*
G75*
G02*
X0280866Y0068612I0000000J0000581D01*
G01*
X0280866Y0069971D01*
G75*
G02*
X0281446Y0070551I0000581J0000000D01*
G01*
X0282608Y0070551D01*
G75*
G02*
X0283189Y0069971I0000000J-000581D01*
G01*
G37*
G36*
G01*
X0279370Y0069971D02*
X0279370Y0068612D01*
G75*
G02*
X0278789Y0068032I-000581J0000000D01*
G01*
X0277628Y0068032D01*
G75*
G02*
X0277047Y0068612I0000000J0000581D01*
G01*
X0277047Y0069971D01*
G75*
G02*
X0277628Y0070551I0000581J0000000D01*
G01*
X0278789Y0070551D01*
G75*
G02*
X0279370Y0069971I0000000J-000581D01*
G01*
G37*
G36*
G01*
X0272662Y0054774D02*
X0270644Y0054774D01*
G75*
G02*
X0269783Y0055635I0000000J0000861D01*
G01*
X0269783Y0057357D01*
G75*
G02*
X0270644Y0058219I0000861J0000000D01*
G01*
X0272662Y0058219D01*
G75*
G02*
X0273523Y0057357I0000000J-000861D01*
G01*
X0273523Y0055635D01*
G75*
G02*
X0272662Y0054774I-000861J0000000D01*
G01*
G37*
G36*
G01*
X0272662Y0060975D02*
X0270644Y0060975D01*
G75*
G02*
X0269783Y0061836I0000000J0000861D01*
G01*
X0269783Y0063558D01*
G75*
G02*
X0270644Y0064419I0000861J0000000D01*
G01*
X0272662Y0064419D01*
G75*
G02*
X0273523Y0063558I0000000J-000861D01*
G01*
X0273523Y0061836D01*
G75*
G02*
X0272662Y0060975I-000861J0000000D01*
G01*
G37*
G36*
G01*
X0226171Y0079803D02*
X0224813Y0079803D01*
G75*
G02*
X0224232Y0080384I0000000J0000581D01*
G01*
X0224232Y0081545D01*
G75*
G02*
X0224813Y0082126I0000581J0000000D01*
G01*
X0226171Y0082126D01*
G75*
G02*
X0226752Y0081545I0000000J-000581D01*
G01*
X0226752Y0080384D01*
G75*
G02*
X0226171Y0079803I-000581J0000000D01*
G01*
G37*
G36*
G01*
X0226171Y0083622D02*
X0224813Y0083622D01*
G75*
G02*
X0224232Y0084203I0000000J0000581D01*
G01*
X0224232Y0085364D01*
G75*
G02*
X0224813Y0085945I0000581J0000000D01*
G01*
X0226171Y0085945D01*
G75*
G02*
X0226752Y0085364I0000000J-000581D01*
G01*
X0226752Y0084203D01*
G75*
G02*
X0226171Y0083622I-000581J0000000D01*
G01*
G37*
D228*
X0277362Y0063976D03*
X0277362Y0056496D03*
X0285236Y0060236D03*
G36*
G01*
X0230354Y0079803D02*
X0228996Y0079803D01*
G75*
G02*
X0228415Y0080384I0000000J0000581D01*
G01*
X0228415Y0081545D01*
G75*
G02*
X0228996Y0082126I0000581J0000000D01*
G01*
X0230354Y0082126D01*
G75*
G02*
X0230935Y0081545I0000000J-000581D01*
G01*
X0230935Y0080384D01*
G75*
G02*
X0230354Y0079803I-000581J0000000D01*
G01*
G37*
G36*
G01*
X0230354Y0083622D02*
X0228996Y0083622D01*
G75*
G02*
X0228415Y0084203I0000000J0000581D01*
G01*
X0228415Y0085364D01*
G75*
G02*
X0228996Y0085945I0000581J0000000D01*
G01*
X0230354Y0085945D01*
G75*
G02*
X0230935Y0085364I0000000J-000581D01*
G01*
X0230935Y0084203D01*
G75*
G02*
X0230354Y0083622I-000581J0000000D01*
G01*
G37*
G36*
G01*
X0225974Y0055886D02*
X0224616Y0055886D01*
G75*
G02*
X0224035Y0056467I0000000J0000581D01*
G01*
X0224035Y0057628D01*
G75*
G02*
X0224616Y0058209I0000581J0000000D01*
G01*
X0225974Y0058209D01*
G75*
G02*
X0226555Y0057628I0000000J-000581D01*
G01*
X0226555Y0056467D01*
G75*
G02*
X0225974Y0055886I-000581J0000000D01*
G01*
G37*
G36*
G01*
X0225974Y0059705D02*
X0224616Y0059705D01*
G75*
G02*
X0224035Y0060286I0000000J0000581D01*
G01*
X0224035Y0061447D01*
G75*
G02*
X0224616Y0062028I0000581J0000000D01*
G01*
X0225974Y0062028D01*
G75*
G02*
X0226555Y0061447I0000000J-000581D01*
G01*
X0226555Y0060286D01*
G75*
G02*
X0225974Y0059705I-000581J0000000D01*
G01*
G37*
G36*
G01*
X0229734Y0043622D02*
X0231092Y0043622D01*
G75*
G02*
X0231673Y0043041I0000000J-000581D01*
G01*
X0231673Y0041880D01*
G75*
G02*
X0231092Y0041299I-000581J0000000D01*
G01*
X0229734Y0041299D01*
G75*
G02*
X0229153Y0041880I0000000J0000581D01*
G01*
X0229153Y0043041D01*
G75*
G02*
X0229734Y0043622I0000581J0000000D01*
G01*
G37*
G36*
G01*
X0229734Y0039803D02*
X0231092Y0039803D01*
G75*
G02*
X0231673Y0039223I0000000J-000581D01*
G01*
X0231673Y0038061D01*
G75*
G02*
X0231092Y0037480I-000581J0000000D01*
G01*
X0229734Y0037480D01*
G75*
G02*
X0229153Y0038061I0000000J0000581D01*
G01*
X0229153Y0039223D01*
G75*
G02*
X0229734Y0039803I0000581J0000000D01*
G01*
G37*
G36*
G01*
X0224616Y0070394D02*
X0225974Y0070394D01*
G75*
G02*
X0226555Y0069813I0000000J-000581D01*
G01*
X0226555Y0068652D01*
G75*
G02*
X0225974Y0068071I-000581J0000000D01*
G01*
X0224616Y0068071D01*
G75*
G02*
X0224035Y0068652I0000000J0000581D01*
G01*
X0224035Y0069813D01*
G75*
G02*
X0224616Y0070394I0000581J0000000D01*
G01*
G37*
G36*
G01*
X0224616Y0066575D02*
X0225974Y0066575D01*
G75*
G02*
X0226555Y0065994I0000000J-000581D01*
G01*
X0226555Y0064833D01*
G75*
G02*
X0225974Y0064252I-000581J0000000D01*
G01*
X0224616Y0064252D01*
G75*
G02*
X0224035Y0064833I0000000J0000581D01*
G01*
X0224035Y0065994D01*
G75*
G02*
X0224616Y0066575I0000581J0000000D01*
G01*
G37*
G36*
G01*
X0264380Y0043622D02*
X0265738Y0043622D01*
G75*
G02*
X0266318Y0043041I0000000J-000581D01*
G01*
X0266318Y0041880D01*
G75*
G02*
X0265738Y0041299I-000581J0000000D01*
G01*
X0264380Y0041299D01*
G75*
G02*
X0263799Y0041880I0000000J0000581D01*
G01*
X0263799Y0043041D01*
G75*
G02*
X0264380Y0043622I0000581J0000000D01*
G01*
G37*
G36*
G01*
X0264380Y0039803D02*
X0265738Y0039803D01*
G75*
G02*
X0266318Y0039223I0000000J-000581D01*
G01*
X0266318Y0038061D01*
G75*
G02*
X0265738Y0037480I-000581J0000000D01*
G01*
X0264380Y0037480D01*
G75*
G02*
X0263799Y0038061I0000000J0000581D01*
G01*
X0263799Y0039223D01*
G75*
G02*
X0264380Y0039803I0000581J0000000D01*
G01*
G37*
D236*
X0202913Y0068504D03*
X0214921Y0068504D03*
X0202913Y0081693D03*
X0214921Y0081693D03*
D229*
X0199941Y0050295D03*
X0217893Y0050295D03*
G36*
G01*
X0275413Y0070069D02*
X0275413Y0068711D01*
G75*
G02*
X0274832Y0068130I-000581J0000000D01*
G01*
X0273671Y0068130D01*
G75*
G02*
X0273090Y0068711I0000000J0000581D01*
G01*
X0273090Y0070069D01*
G75*
G02*
X0273671Y0070650I0000581J0000000D01*
G01*
X0274832Y0070650D01*
G75*
G02*
X0275413Y0070069I0000000J-000581D01*
G01*
G37*
G36*
G01*
X0271594Y0070069D02*
X0271594Y0068711D01*
G75*
G02*
X0271013Y0068130I-000581J0000000D01*
G01*
X0269852Y0068130D01*
G75*
G02*
X0269271Y0068711I0000000J0000581D01*
G01*
X0269271Y0070069D01*
G75*
G02*
X0269852Y0070650I0000581J0000000D01*
G01*
X0271013Y0070650D01*
G75*
G02*
X0271594Y0070069I0000000J-000581D01*
G01*
G37*
G36*
G01*
X0236909Y0083735D02*
X0236909Y0085753D01*
G75*
G02*
X0237770Y0086614I0000861J0000000D01*
G01*
X0239493Y0086614D01*
G75*
G02*
X0240354Y0085753I0000000J-000861D01*
G01*
X0240354Y0083735D01*
G75*
G02*
X0239493Y0082874I-000861J0000000D01*
G01*
X0237770Y0082874D01*
G75*
G02*
X0236909Y0083735I0000000J0000861D01*
G01*
G37*
G36*
G01*
X0243110Y0083735D02*
X0243110Y0085753D01*
G75*
G02*
X0243971Y0086614I0000861J0000000D01*
G01*
X0245693Y0086614D01*
G75*
G02*
X0246555Y0085753I0000000J-000861D01*
G01*
X0246555Y0083735D01*
G75*
G02*
X0245693Y0082874I-000861J0000000D01*
G01*
X0243971Y0082874D01*
G75*
G02*
X0243110Y0083735I0000000J0000861D01*
G01*
G37*
G36*
G01*
X0234537Y0079803D02*
X0233179Y0079803D01*
G75*
G02*
X0232598Y0080384I0000000J0000581D01*
G01*
X0232598Y0081545D01*
G75*
G02*
X0233179Y0082126I0000581J0000000D01*
G01*
X0234537Y0082126D01*
G75*
G02*
X0235118Y0081545I0000000J-000581D01*
G01*
X0235118Y0080384D01*
G75*
G02*
X0234537Y0079803I-000581J0000000D01*
G01*
G37*
G36*
G01*
X0234537Y0083622D02*
X0233179Y0083622D01*
G75*
G02*
X0232598Y0084203I0000000J0000581D01*
G01*
X0232598Y0085364D01*
G75*
G02*
X0233179Y0085945I0000581J0000000D01*
G01*
X0234537Y0085945D01*
G75*
G02*
X0235118Y0085364I0000000J-000581D01*
G01*
X0235118Y0084203D01*
G75*
G02*
X0234537Y0083622I-000581J0000000D01*
G01*
G37*
G36*
G01*
X0190428Y0084350D02*
X0192445Y0084350D01*
G75*
G02*
X0193307Y0083489I0000000J-000861D01*
G01*
X0193307Y0081767D01*
G75*
G02*
X0192445Y0080906I-000861J0000000D01*
G01*
X0190428Y0080906D01*
G75*
G02*
X0189567Y0081767I0000000J0000861D01*
G01*
X0189567Y0083489D01*
G75*
G02*
X0190428Y0084350I0000861J0000000D01*
G01*
G37*
G36*
G01*
X0190428Y0078150D02*
X0192445Y0078150D01*
G75*
G02*
X0193307Y0077288I0000000J-000861D01*
G01*
X0193307Y0075566D01*
G75*
G02*
X0192445Y0074705I-000861J0000000D01*
G01*
X0190428Y0074705D01*
G75*
G02*
X0189567Y0075566I0000000J0000861D01*
G01*
X0189567Y0077288D01*
G75*
G02*
X0190428Y0078150I0000861J0000000D01*
G01*
G37*
G36*
G01*
X0258267Y0085753D02*
X0258267Y0083735D01*
G75*
G02*
X0257406Y0082874I-000861J0000000D01*
G01*
X0255684Y0082874D01*
G75*
G02*
X0254822Y0083735I0000000J0000861D01*
G01*
X0254822Y0085753D01*
G75*
G02*
X0255684Y0086614I0000861J0000000D01*
G01*
X0257406Y0086614D01*
G75*
G02*
X0258267Y0085753I0000000J-000861D01*
G01*
G37*
G36*
G01*
X0252067Y0085753D02*
X0252067Y0083735D01*
G75*
G02*
X0251205Y0082874I-000861J0000000D01*
G01*
X0249483Y0082874D01*
G75*
G02*
X0248622Y0083735I0000000J0000861D01*
G01*
X0248622Y0085753D01*
G75*
G02*
X0249483Y0086614I0000861J0000000D01*
G01*
X0251205Y0086614D01*
G75*
G02*
X0252067Y0085753I0000000J-000861D01*
G01*
G37*
G36*
G01*
X0262588Y0081575D02*
X0261230Y0081575D01*
G75*
G02*
X0260649Y0082156I0000000J0000581D01*
G01*
X0260649Y0083317D01*
G75*
G02*
X0261230Y0083898I0000581J0000000D01*
G01*
X0262588Y0083898D01*
G75*
G02*
X0263169Y0083317I0000000J-000581D01*
G01*
X0263169Y0082156D01*
G75*
G02*
X0262588Y0081575I-000581J0000000D01*
G01*
G37*
G36*
G01*
X0262588Y0085394D02*
X0261230Y0085394D01*
G75*
G02*
X0260649Y0085975I0000000J0000581D01*
G01*
X0260649Y0087136D01*
G75*
G02*
X0261230Y0087717I0000581J0000000D01*
G01*
X0262588Y0087717D01*
G75*
G02*
X0263169Y0087136I0000000J-000581D01*
G01*
X0263169Y0085975D01*
G75*
G02*
X0262588Y0085394I-000581J0000000D01*
G01*
G37*
G36*
G01*
X0228149Y0068898D02*
X0228149Y0069882D01*
G75*
G02*
X0228641Y0070374I0000492J0000000D01*
G01*
X0233563Y0070374D01*
G75*
G02*
X0234055Y0069882I0000000J-000492D01*
G01*
X0234055Y0068898D01*
G75*
G02*
X0233563Y0068406I-000492J0000000D01*
G01*
X0228641Y0068406D01*
G75*
G02*
X0228149Y0068898I0000000J0000492D01*
G01*
G37*
G36*
G01*
X0228149Y0065748D02*
X0228149Y0066732D01*
G75*
G02*
X0228641Y0067225I0000492J0000000D01*
G01*
X0233563Y0067225D01*
G75*
G02*
X0234055Y0066732I0000000J-000492D01*
G01*
X0234055Y0065748D01*
G75*
G02*
X0233563Y0065256I-000492J0000000D01*
G01*
X0228641Y0065256D01*
G75*
G02*
X0228149Y0065748I0000000J0000492D01*
G01*
G37*
G36*
G01*
X0228149Y0062599D02*
X0228149Y0063583D01*
G75*
G02*
X0228641Y0064075I0000492J0000000D01*
G01*
X0233563Y0064075D01*
G75*
G02*
X0234055Y0063583I0000000J-000492D01*
G01*
X0234055Y0062599D01*
G75*
G02*
X0233563Y0062106I-000492J0000000D01*
G01*
X0228641Y0062106D01*
G75*
G02*
X0228149Y0062599I0000000J0000492D01*
G01*
G37*
G36*
G01*
X0228149Y0059449D02*
X0228149Y0060433D01*
G75*
G02*
X0228641Y0060925I0000492J0000000D01*
G01*
X0233563Y0060925D01*
G75*
G02*
X0234055Y0060433I0000000J-000492D01*
G01*
X0234055Y0059449D01*
G75*
G02*
X0233563Y0058957I-000492J0000000D01*
G01*
X0228641Y0058957D01*
G75*
G02*
X0228149Y0059449I0000000J0000492D01*
G01*
G37*
G36*
G01*
X0228149Y0056299D02*
X0228149Y0057284D01*
G75*
G02*
X0228641Y0057776I0000492J0000000D01*
G01*
X0233563Y0057776D01*
G75*
G02*
X0234055Y0057284I0000000J-000492D01*
G01*
X0234055Y0056299D01*
G75*
G02*
X0233563Y0055807I-000492J0000000D01*
G01*
X0228641Y0055807D01*
G75*
G02*
X0228149Y0056299I0000000J0000492D01*
G01*
G37*
G36*
G01*
X0228149Y0053150D02*
X0228149Y0054134D01*
G75*
G02*
X0228641Y0054626I0000492J0000000D01*
G01*
X0233563Y0054626D01*
G75*
G02*
X0234055Y0054134I0000000J-000492D01*
G01*
X0234055Y0053150D01*
G75*
G02*
X0233563Y0052658I-000492J0000000D01*
G01*
X0228641Y0052658D01*
G75*
G02*
X0228149Y0053150I0000000J0000492D01*
G01*
G37*
G36*
G01*
X0228149Y0050000D02*
X0228149Y0050984D01*
G75*
G02*
X0228641Y0051476I0000492J0000000D01*
G01*
X0233563Y0051476D01*
G75*
G02*
X0234055Y0050984I0000000J-000492D01*
G01*
X0234055Y0050000D01*
G75*
G02*
X0233563Y0049508I-000492J0000000D01*
G01*
X0228641Y0049508D01*
G75*
G02*
X0228149Y0050000I0000000J0000492D01*
G01*
G37*
G36*
G01*
X0228149Y0046850D02*
X0228149Y0047835D01*
G75*
G02*
X0228641Y0048327I0000492J0000000D01*
G01*
X0233563Y0048327D01*
G75*
G02*
X0234055Y0047835I0000000J-000492D01*
G01*
X0234055Y0046850D01*
G75*
G02*
X0233563Y0046358I-000492J0000000D01*
G01*
X0228641Y0046358D01*
G75*
G02*
X0228149Y0046850I0000000J0000492D01*
G01*
G37*
G36*
G01*
X0235531Y0039469D02*
X0235531Y0044390D01*
G75*
G02*
X0236023Y0044882I0000492J0000000D01*
G01*
X0237007Y0044882D01*
G75*
G02*
X0237500Y0044390I0000000J-000492D01*
G01*
X0237500Y0039469D01*
G75*
G02*
X0237007Y0038976I-000492J0000000D01*
G01*
X0236023Y0038976D01*
G75*
G02*
X0235531Y0039469I0000000J0000492D01*
G01*
G37*
G36*
G01*
X0238681Y0039469D02*
X0238681Y0044390D01*
G75*
G02*
X0239173Y0044882I0000492J0000000D01*
G01*
X0240157Y0044882D01*
G75*
G02*
X0240649Y0044390I0000000J-000492D01*
G01*
X0240649Y0039469D01*
G75*
G02*
X0240157Y0038976I-000492J0000000D01*
G01*
X0239173Y0038976D01*
G75*
G02*
X0238681Y0039469I0000000J0000492D01*
G01*
G37*
G36*
G01*
X0241830Y0039469D02*
X0241830Y0044390D01*
G75*
G02*
X0242322Y0044882I0000492J0000000D01*
G01*
X0243307Y0044882D01*
G75*
G02*
X0243799Y0044390I0000000J-000492D01*
G01*
X0243799Y0039469D01*
G75*
G02*
X0243307Y0038976I-000492J0000000D01*
G01*
X0242322Y0038976D01*
G75*
G02*
X0241830Y0039469I0000000J0000492D01*
G01*
G37*
G36*
G01*
X0244980Y0039469D02*
X0244980Y0044390D01*
G75*
G02*
X0245472Y0044882I0000492J0000000D01*
G01*
X0246456Y0044882D01*
G75*
G02*
X0246948Y0044390I0000000J-000492D01*
G01*
X0246948Y0039469D01*
G75*
G02*
X0246456Y0038976I-000492J0000000D01*
G01*
X0245472Y0038976D01*
G75*
G02*
X0244980Y0039469I0000000J0000492D01*
G01*
G37*
G36*
G01*
X0248130Y0039469D02*
X0248130Y0044390D01*
G75*
G02*
X0248622Y0044882I0000492J0000000D01*
G01*
X0249606Y0044882D01*
G75*
G02*
X0250098Y0044390I0000000J-000492D01*
G01*
X0250098Y0039469D01*
G75*
G02*
X0249606Y0038976I-000492J0000000D01*
G01*
X0248622Y0038976D01*
G75*
G02*
X0248130Y0039469I0000000J0000492D01*
G01*
G37*
G36*
G01*
X0251279Y0039469D02*
X0251279Y0044390D01*
G75*
G02*
X0251771Y0044882I0000492J0000000D01*
G01*
X0252755Y0044882D01*
G75*
G02*
X0253248Y0044390I0000000J-000492D01*
G01*
X0253248Y0039469D01*
G75*
G02*
X0252755Y0038976I-000492J0000000D01*
G01*
X0251771Y0038976D01*
G75*
G02*
X0251279Y0039469I0000000J0000492D01*
G01*
G37*
G36*
G01*
X0254429Y0039469D02*
X0254429Y0044390D01*
G75*
G02*
X0254921Y0044882I0000492J0000000D01*
G01*
X0255905Y0044882D01*
G75*
G02*
X0256397Y0044390I0000000J-000492D01*
G01*
X0256397Y0039469D01*
G75*
G02*
X0255905Y0038976I-000492J0000000D01*
G01*
X0254921Y0038976D01*
G75*
G02*
X0254429Y0039469I0000000J0000492D01*
G01*
G37*
G36*
G01*
X0257578Y0039469D02*
X0257578Y0044390D01*
G75*
G02*
X0258070Y0044882I0000492J0000000D01*
G01*
X0259055Y0044882D01*
G75*
G02*
X0259547Y0044390I0000000J-000492D01*
G01*
X0259547Y0039469D01*
G75*
G02*
X0259055Y0038976I-000492J0000000D01*
G01*
X0258070Y0038976D01*
G75*
G02*
X0257578Y0039469I0000000J0000492D01*
G01*
G37*
G36*
G01*
X0261023Y0046850D02*
X0261023Y0047835D01*
G75*
G02*
X0261515Y0048327I0000492J0000000D01*
G01*
X0266437Y0048327D01*
G75*
G02*
X0266929Y0047835I0000000J-000492D01*
G01*
X0266929Y0046850D01*
G75*
G02*
X0266437Y0046358I-000492J0000000D01*
G01*
X0261515Y0046358D01*
G75*
G02*
X0261023Y0046850I0000000J0000492D01*
G01*
G37*
G36*
G01*
X0261023Y0050000D02*
X0261023Y0050984D01*
G75*
G02*
X0261515Y0051476I0000492J0000000D01*
G01*
X0266437Y0051476D01*
G75*
G02*
X0266929Y0050984I0000000J-000492D01*
G01*
X0266929Y0050000D01*
G75*
G02*
X0266437Y0049508I-000492J0000000D01*
G01*
X0261515Y0049508D01*
G75*
G02*
X0261023Y0050000I0000000J0000492D01*
G01*
G37*
G36*
G01*
X0261023Y0053150D02*
X0261023Y0054134D01*
G75*
G02*
X0261515Y0054626I0000492J0000000D01*
G01*
X0266437Y0054626D01*
G75*
G02*
X0266929Y0054134I0000000J-000492D01*
G01*
X0266929Y0053150D01*
G75*
G02*
X0266437Y0052658I-000492J0000000D01*
G01*
X0261515Y0052658D01*
G75*
G02*
X0261023Y0053150I0000000J0000492D01*
G01*
G37*
G36*
G01*
X0261023Y0056299D02*
X0261023Y0057284D01*
G75*
G02*
X0261515Y0057776I0000492J0000000D01*
G01*
X0266437Y0057776D01*
G75*
G02*
X0266929Y0057284I0000000J-000492D01*
G01*
X0266929Y0056299D01*
G75*
G02*
X0266437Y0055807I-000492J0000000D01*
G01*
X0261515Y0055807D01*
G75*
G02*
X0261023Y0056299I0000000J0000492D01*
G01*
G37*
G36*
G01*
X0261023Y0059449D02*
X0261023Y0060433D01*
G75*
G02*
X0261515Y0060925I0000492J0000000D01*
G01*
X0266437Y0060925D01*
G75*
G02*
X0266929Y0060433I0000000J-000492D01*
G01*
X0266929Y0059449D01*
G75*
G02*
X0266437Y0058957I-000492J0000000D01*
G01*
X0261515Y0058957D01*
G75*
G02*
X0261023Y0059449I0000000J0000492D01*
G01*
G37*
G36*
G01*
X0261023Y0062599D02*
X0261023Y0063583D01*
G75*
G02*
X0261515Y0064075I0000492J0000000D01*
G01*
X0266437Y0064075D01*
G75*
G02*
X0266929Y0063583I0000000J-000492D01*
G01*
X0266929Y0062599D01*
G75*
G02*
X0266437Y0062106I-000492J0000000D01*
G01*
X0261515Y0062106D01*
G75*
G02*
X0261023Y0062599I0000000J0000492D01*
G01*
G37*
G36*
G01*
X0261023Y0065748D02*
X0261023Y0066732D01*
G75*
G02*
X0261515Y0067225I0000492J0000000D01*
G01*
X0266437Y0067225D01*
G75*
G02*
X0266929Y0066732I0000000J-000492D01*
G01*
X0266929Y0065748D01*
G75*
G02*
X0266437Y0065256I-000492J0000000D01*
G01*
X0261515Y0065256D01*
G75*
G02*
X0261023Y0065748I0000000J0000492D01*
G01*
G37*
G36*
G01*
X0261023Y0068898D02*
X0261023Y0069882D01*
G75*
G02*
X0261515Y0070374I0000492J0000000D01*
G01*
X0266437Y0070374D01*
G75*
G02*
X0266929Y0069882I0000000J-000492D01*
G01*
X0266929Y0068898D01*
G75*
G02*
X0266437Y0068406I-000492J0000000D01*
G01*
X0261515Y0068406D01*
G75*
G02*
X0261023Y0068898I0000000J0000492D01*
G01*
G37*
G36*
G01*
X0257578Y0072343D02*
X0257578Y0077264D01*
G75*
G02*
X0258070Y0077756I0000492J0000000D01*
G01*
X0259055Y0077756D01*
G75*
G02*
X0259547Y0077264I0000000J-000492D01*
G01*
X0259547Y0072343D01*
G75*
G02*
X0259055Y0071850I-000492J0000000D01*
G01*
X0258070Y0071850D01*
G75*
G02*
X0257578Y0072343I0000000J0000492D01*
G01*
G37*
G36*
G01*
X0254429Y0072343D02*
X0254429Y0077264D01*
G75*
G02*
X0254921Y0077756I0000492J0000000D01*
G01*
X0255905Y0077756D01*
G75*
G02*
X0256397Y0077264I0000000J-000492D01*
G01*
X0256397Y0072343D01*
G75*
G02*
X0255905Y0071850I-000492J0000000D01*
G01*
X0254921Y0071850D01*
G75*
G02*
X0254429Y0072343I0000000J0000492D01*
G01*
G37*
G36*
G01*
X0251279Y0072343D02*
X0251279Y0077264D01*
G75*
G02*
X0251771Y0077756I0000492J0000000D01*
G01*
X0252755Y0077756D01*
G75*
G02*
X0253248Y0077264I0000000J-000492D01*
G01*
X0253248Y0072343D01*
G75*
G02*
X0252755Y0071850I-000492J0000000D01*
G01*
X0251771Y0071850D01*
G75*
G02*
X0251279Y0072343I0000000J0000492D01*
G01*
G37*
G36*
G01*
X0248130Y0072343D02*
X0248130Y0077264D01*
G75*
G02*
X0248622Y0077756I0000492J0000000D01*
G01*
X0249606Y0077756D01*
G75*
G02*
X0250098Y0077264I0000000J-000492D01*
G01*
X0250098Y0072343D01*
G75*
G02*
X0249606Y0071850I-000492J0000000D01*
G01*
X0248622Y0071850D01*
G75*
G02*
X0248130Y0072343I0000000J0000492D01*
G01*
G37*
G36*
G01*
X0244980Y0072343D02*
X0244980Y0077264D01*
G75*
G02*
X0245472Y0077756I0000492J0000000D01*
G01*
X0246456Y0077756D01*
G75*
G02*
X0246948Y0077264I0000000J-000492D01*
G01*
X0246948Y0072343D01*
G75*
G02*
X0246456Y0071850I-000492J0000000D01*
G01*
X0245472Y0071850D01*
G75*
G02*
X0244980Y0072343I0000000J0000492D01*
G01*
G37*
G36*
G01*
X0241830Y0072343D02*
X0241830Y0077264D01*
G75*
G02*
X0242322Y0077756I0000492J0000000D01*
G01*
X0243307Y0077756D01*
G75*
G02*
X0243799Y0077264I0000000J-000492D01*
G01*
X0243799Y0072343D01*
G75*
G02*
X0243307Y0071850I-000492J0000000D01*
G01*
X0242322Y0071850D01*
G75*
G02*
X0241830Y0072343I0000000J0000492D01*
G01*
G37*
G36*
G01*
X0238681Y0072343D02*
X0238681Y0077264D01*
G75*
G02*
X0239173Y0077756I0000492J0000000D01*
G01*
X0240157Y0077756D01*
G75*
G02*
X0240649Y0077264I0000000J-000492D01*
G01*
X0240649Y0072343D01*
G75*
G02*
X0240157Y0071850I-000492J0000000D01*
G01*
X0239173Y0071850D01*
G75*
G02*
X0238681Y0072343I0000000J0000492D01*
G01*
G37*
G36*
G01*
X0235531Y0072343D02*
X0235531Y0077264D01*
G75*
G02*
X0236023Y0077756I0000492J0000000D01*
G01*
X0237007Y0077756D01*
G75*
G02*
X0237500Y0077264I0000000J-000492D01*
G01*
X0237500Y0072343D01*
G75*
G02*
X0237007Y0071850I-000492J0000000D01*
G01*
X0236023Y0071850D01*
G75*
G02*
X0235531Y0072343I0000000J0000492D01*
G01*
G37*
G36*
G01*
X0270157Y0050797D02*
X0270157Y0052156D01*
G75*
G02*
X0270738Y0052736I0000581J0000000D01*
G01*
X0271899Y0052736D01*
G75*
G02*
X0272480Y0052156I0000000J-000581D01*
G01*
X0272480Y0050797D01*
G75*
G02*
X0271899Y0050217I-000581J0000000D01*
G01*
X0270738Y0050217D01*
G75*
G02*
X0270157Y0050797I0000000J0000581D01*
G01*
G37*
G36*
G01*
X0273976Y0050797D02*
X0273976Y0052156D01*
G75*
G02*
X0274557Y0052736I0000581J0000000D01*
G01*
X0275718Y0052736D01*
G75*
G02*
X0276299Y0052156I0000000J-000581D01*
G01*
X0276299Y0050797D01*
G75*
G02*
X0275718Y0050217I-000581J0000000D01*
G01*
X0274557Y0050217D01*
G75*
G02*
X0273976Y0050797I0000000J0000581D01*
G01*
G37*
G36*
G01*
X0263080Y0074193D02*
X0261722Y0074193D01*
G75*
G02*
X0261141Y0074774I0000000J0000581D01*
G01*
X0261141Y0075935D01*
G75*
G02*
X0261722Y0076516I0000581J0000000D01*
G01*
X0263080Y0076516D01*
G75*
G02*
X0263661Y0075935I0000000J-000581D01*
G01*
X0263661Y0074774D01*
G75*
G02*
X0263080Y0074193I-000581J0000000D01*
G01*
G37*
G36*
G01*
X0263080Y0078012D02*
X0261722Y0078012D01*
G75*
G02*
X0261141Y0078593I0000000J0000581D01*
G01*
X0261141Y0079754D01*
G75*
G02*
X0261722Y0080335I0000581J0000000D01*
G01*
X0263080Y0080335D01*
G75*
G02*
X0263661Y0079754I0000000J-000581D01*
G01*
X0263661Y0078593D01*
G75*
G02*
X0263080Y0078012I-000581J0000000D01*
G01*
G37*
G36*
G01*
X0286724Y0052156D02*
X0286724Y0050797D01*
G75*
G02*
X0286143Y0050217I-000581J0000000D01*
G01*
X0284982Y0050217D01*
G75*
G02*
X0284401Y0050797I0000000J0000581D01*
G01*
X0284401Y0052156D01*
G75*
G02*
X0284982Y0052736I0000581J0000000D01*
G01*
X0286143Y0052736D01*
G75*
G02*
X0286724Y0052156I0000000J-000581D01*
G01*
G37*
G36*
G01*
X0282905Y0052156D02*
X0282905Y0050797D01*
G75*
G02*
X0282324Y0050217I-000581J0000000D01*
G01*
X0281163Y0050217D01*
G75*
G02*
X0280582Y0050797I0000000J0000581D01*
G01*
X0280582Y0052156D01*
G75*
G02*
X0281163Y0052736I0000581J0000000D01*
G01*
X0282324Y0052736D01*
G75*
G02*
X0282905Y0052156I0000000J-000581D01*
G01*
G37*
D232*
X0285236Y0046555D03*
X0277755Y0046555D03*
X0281496Y0038681D03*
G36*
G01*
X0226171Y0072323D02*
X0224813Y0072323D01*
G75*
G02*
X0224232Y0072904I0000000J0000581D01*
G01*
X0224232Y0074065D01*
G75*
G02*
X0224813Y0074646I0000581J0000000D01*
G01*
X0226171Y0074646D01*
G75*
G02*
X0226752Y0074065I0000000J-000581D01*
G01*
X0226752Y0072904D01*
G75*
G02*
X0226171Y0072323I-000581J0000000D01*
G01*
G37*
G36*
G01*
X0226171Y0076142D02*
X0224813Y0076142D01*
G75*
G02*
X0224232Y0076723I0000000J0000581D01*
G01*
X0224232Y0077884D01*
G75*
G02*
X0224813Y0078465I0000581J0000000D01*
G01*
X0226171Y0078465D01*
G75*
G02*
X0226752Y0077884I0000000J-000581D01*
G01*
X0226752Y0076723D01*
G75*
G02*
X0226171Y0076142I-000581J0000000D01*
G01*
G37*
G36*
G01*
X0272298Y0037284D02*
X0270280Y0037284D01*
G75*
G02*
X0269419Y0038145I0000000J0000861D01*
G01*
X0269419Y0039867D01*
G75*
G02*
X0270280Y0040728I0000861J0000000D01*
G01*
X0272298Y0040728D01*
G75*
G02*
X0273159Y0039867I0000000J-000861D01*
G01*
X0273159Y0038145D01*
G75*
G02*
X0272298Y0037284I-000861J0000000D01*
G01*
G37*
G36*
G01*
X0272298Y0043484D02*
X0270280Y0043484D01*
G75*
G02*
X0269419Y0044346I0000000J0000861D01*
G01*
X0269419Y0046068D01*
G75*
G02*
X0270280Y0046929I0000861J0000000D01*
G01*
X0272298Y0046929D01*
G75*
G02*
X0273159Y0046068I0000000J-000861D01*
G01*
X0273159Y0044346D01*
G75*
G02*
X0272298Y0043484I-000861J0000000D01*
G01*
G37*
X0420768Y0109547D02*
G01*
G75*
D385*
X0407756Y0120964D02*
D03*
X0417008Y0117224D02*
D03*
D385*
X0407756Y0113484D02*
D03*
D252*
X0396142Y0128523D02*
D03*
X0401142Y0128523D02*
D03*
X0406142Y0128523D02*
D03*
X0411142Y0128523D02*
D03*
X0396142Y0147421D02*
D03*
X0401142Y0147421D02*
D03*
X0406142Y0147421D02*
D03*
X0411142Y0147421D02*
D03*
D270*
X0416437Y0144232D02*
D03*
X0416437Y0150452D02*
D03*
X0416437Y0135886D02*
D03*
X0416437Y0129665D02*
D03*
D425*
X0402855Y0114074D02*
D03*
X0402855Y0120374D02*
D03*
D26*
X0418898Y0124704D02*
D03*
X0146457Y0215748D02*
G01*
G75*
D92*
X0149843Y0247736D02*
D03*
X0156063Y0247736D02*
D03*
D90*
X0152953Y0262205D02*
D03*
X0165945Y0262205D02*
D03*
X0166142Y0254035D02*
D03*
X0153150Y0254035D02*
D03*
D156*
X0160138Y0247874D02*
D03*
X0166437Y0247874D02*
D03*
D252*
X0164981Y0240748D02*
D03*
X0159981Y0240748D02*
D03*
X0154981Y0240748D02*
D03*
X0149981Y0240748D02*
D03*
X0164981Y0221851D02*
D03*
X0159981Y0221851D02*
D03*
X0154981Y0221851D02*
D03*
X0149981Y0221851D02*
D03*
X0349606Y0338681D02*
G01*
G75*
D428*
X0359830Y0323976D02*
D03*
X0352350Y0323976D02*
D03*
X0352350Y0332441D02*
D03*
X0356090Y0332441D02*
D03*
X0359830Y0308327D02*
D03*
X0352350Y0308327D02*
D03*
X0352350Y0316791D02*
D03*
X0356090Y0316791D02*
D03*
D428*
X0359830Y0332441D02*
D03*
X0359830Y0316791D02*
D03*
X0363511Y0338702D02*
G01*
G75*
D428*
X0373735Y0323997D02*
D03*
X0366255Y0323997D02*
D03*
X0366255Y0332462D02*
D03*
X0369995Y0332462D02*
D03*
X0373735Y0308348D02*
D03*
X0366255Y0308348D02*
D03*
X0366255Y0316812D02*
D03*
X0369995Y0316812D02*
D03*
D428*
X0373735Y0332462D02*
D03*
X0373735Y0316812D02*
D03*
M02*
