G75*
G70*
%OFA0B0*%
%FSLAX25Y25*%
%IPPOS*%
%LPD*%
%AMOC8*
5,1,8,0,0,1.08239X$1,22.5*
%
%AMM146*
21,1,0.092130,0.073230,-0.000000,-0.000000,90.000000*
21,1,0.069290,0.096060,-0.000000,-0.000000,90.000000*
1,1,0.022840,0.036610,0.034650*
1,1,0.022840,0.036610,-0.034650*
1,1,0.022840,-0.036610,-0.034650*
1,1,0.022840,-0.036610,0.034650*
%
%AMM147*
21,1,0.100000,0.111020,-0.000000,-0.000000,180.000000*
21,1,0.075590,0.135430,-0.000000,-0.000000,180.000000*
1,1,0.024410,-0.037800,0.055510*
1,1,0.024410,0.037800,0.055510*
1,1,0.024410,0.037800,-0.055510*
1,1,0.024410,-0.037800,-0.055510*
%
%AMM148*
21,1,0.080320,0.083460,-0.000000,-0.000000,180.000000*
21,1,0.059840,0.103940,-0.000000,-0.000000,180.000000*
1,1,0.020470,-0.029920,0.041730*
1,1,0.020470,0.029920,0.041730*
1,1,0.020470,0.029920,-0.041730*
1,1,0.020470,-0.029920,-0.041730*
%
%AMM149*
21,1,0.084250,0.053540,-0.000000,-0.000000,0.000000*
21,1,0.065350,0.072440,-0.000000,-0.000000,0.000000*
1,1,0.018900,0.032680,-0.026770*
1,1,0.018900,-0.032680,-0.026770*
1,1,0.018900,-0.032680,0.026770*
1,1,0.018900,0.032680,0.026770*
%
%AMM150*
21,1,0.040950,0.030320,-0.000000,-0.000000,270.000000*
21,1,0.028350,0.042910,-0.000000,-0.000000,270.000000*
1,1,0.012600,-0.015160,-0.014170*
1,1,0.012600,-0.015160,0.014170*
1,1,0.012600,0.015160,0.014170*
1,1,0.012600,0.015160,-0.014170*
%
%AMM151*
21,1,0.027170,0.052760,-0.000000,-0.000000,90.000000*
21,1,0.017320,0.062600,-0.000000,-0.000000,90.000000*
1,1,0.009840,0.026380,0.008660*
1,1,0.009840,0.026380,-0.008660*
1,1,0.009840,-0.026380,-0.008660*
1,1,0.009840,-0.026380,0.008660*
%
%AMM152*
21,1,0.041340,0.026770,-0.000000,-0.000000,180.000000*
21,1,0.029130,0.038980,-0.000000,-0.000000,180.000000*
1,1,0.012210,-0.014570,0.013390*
1,1,0.012210,0.014570,0.013390*
1,1,0.012210,0.014570,-0.013390*
1,1,0.012210,-0.014570,-0.013390*
%
%AMM153*
21,1,0.076380,0.036220,-0.000000,-0.000000,270.000000*
21,1,0.061810,0.050790,-0.000000,-0.000000,270.000000*
1,1,0.014570,-0.018110,-0.030910*
1,1,0.014570,-0.018110,0.030910*
1,1,0.014570,0.018110,0.030910*
1,1,0.014570,0.018110,-0.030910*
%
%AMM154*
21,1,0.038980,0.026770,-0.000000,-0.000000,180.000000*
21,1,0.026770,0.038980,-0.000000,-0.000000,180.000000*
1,1,0.012210,-0.013390,0.013390*
1,1,0.012210,0.013390,0.013390*
1,1,0.012210,0.013390,-0.013390*
1,1,0.012210,-0.013390,-0.013390*
%
%AMM155*
21,1,0.021260,0.016540,-0.000000,-0.000000,90.000000*
21,1,0.012600,0.025200,-0.000000,-0.000000,90.000000*
1,1,0.008660,0.008270,0.006300*
1,1,0.008660,0.008270,-0.006300*
1,1,0.008660,-0.008270,-0.006300*
1,1,0.008660,-0.008270,0.006300*
%
%AMM156*
21,1,0.029130,0.018900,-0.000000,-0.000000,270.000000*
21,1,0.018900,0.029130,-0.000000,-0.000000,270.000000*
1,1,0.010240,-0.009450,-0.009450*
1,1,0.010240,-0.009450,0.009450*
1,1,0.010240,0.009450,0.009450*
1,1,0.010240,0.009450,-0.009450*
%
%AMM157*
21,1,0.025200,0.019680,-0.000000,-0.000000,180.000000*
21,1,0.015750,0.029130,-0.000000,-0.000000,180.000000*
1,1,0.009450,-0.007870,0.009840*
1,1,0.009450,0.007870,0.009840*
1,1,0.009450,0.007870,-0.009840*
1,1,0.009450,-0.007870,-0.009840*
%
%AMM158*
21,1,0.025200,0.019680,-0.000000,-0.000000,90.000000*
21,1,0.015750,0.029130,-0.000000,-0.000000,90.000000*
1,1,0.009450,0.009840,0.007870*
1,1,0.009450,0.009840,-0.007870*
1,1,0.009450,-0.009840,-0.007870*
1,1,0.009450,-0.009840,0.007870*
%
%AMM175*
21,1,0.040950,0.030320,-0.000000,-0.000000,0.000000*
21,1,0.028350,0.042910,-0.000000,-0.000000,0.000000*
1,1,0.012600,0.014170,-0.015160*
1,1,0.012600,-0.014170,-0.015160*
1,1,0.012600,-0.014170,0.015160*
1,1,0.012600,0.014170,0.015160*
%
%AMM176*
21,1,0.033070,0.030710,-0.000000,-0.000000,0.000000*
21,1,0.022050,0.041730,-0.000000,-0.000000,0.000000*
1,1,0.011020,0.011020,-0.015350*
1,1,0.011020,-0.011020,-0.015350*
1,1,0.011020,-0.011020,0.015350*
1,1,0.011020,0.011020,0.015350*
%
%AMM19*
21,1,0.027170,0.052760,0.000000,0.000000,270.000000*
21,1,0.017320,0.062600,0.000000,0.000000,270.000000*
1,1,0.009840,-0.026380,-0.008660*
1,1,0.009840,-0.026380,0.008660*
1,1,0.009840,0.026380,0.008660*
1,1,0.009840,0.026380,-0.008660*
%
%AMM20*
21,1,0.041340,0.026770,0.000000,0.000000,0.000000*
21,1,0.029130,0.038980,0.000000,0.000000,0.000000*
1,1,0.012210,0.014570,-0.013390*
1,1,0.012210,-0.014570,-0.013390*
1,1,0.012210,-0.014570,0.013390*
1,1,0.012210,0.014570,0.013390*
%
%AMM22*
21,1,0.038980,0.026770,0.000000,0.000000,0.000000*
21,1,0.026770,0.038980,0.000000,0.000000,0.000000*
1,1,0.012210,0.013390,-0.013390*
1,1,0.012210,-0.013390,-0.013390*
1,1,0.012210,-0.013390,0.013390*
1,1,0.012210,0.013390,0.013390*
%
%AMM53*
21,1,0.029530,0.026380,0.000000,0.000000,270.000000*
21,1,0.020470,0.035430,0.000000,0.000000,270.000000*
1,1,0.009060,-0.013190,-0.010240*
1,1,0.009060,-0.013190,0.010240*
1,1,0.009060,0.013190,0.010240*
1,1,0.009060,0.013190,-0.010240*
%
%AMM54*
21,1,0.021650,0.027950,0.000000,0.000000,270.000000*
21,1,0.014170,0.035430,0.000000,0.000000,270.000000*
1,1,0.007480,-0.013980,-0.007090*
1,1,0.007480,-0.013980,0.007090*
1,1,0.007480,0.013980,0.007090*
1,1,0.007480,0.013980,-0.007090*
%
%AMM55*
21,1,0.016540,0.028980,0.000000,0.000000,90.000000*
21,1,0.010080,0.035430,0.000000,0.000000,90.000000*
1,1,0.006460,0.014490,0.005040*
1,1,0.006460,0.014490,-0.005040*
1,1,0.006460,-0.014490,-0.005040*
1,1,0.006460,-0.014490,0.005040*
%
%AMM56*
21,1,0.027560,0.030710,0.000000,0.000000,180.000000*
21,1,0.018900,0.039370,0.000000,0.000000,180.000000*
1,1,0.008660,-0.009450,0.015350*
1,1,0.008660,0.009450,0.015350*
1,1,0.008660,0.009450,-0.015350*
1,1,0.008660,-0.009450,-0.015350*
%
%AMM57*
21,1,0.031500,0.018900,0.000000,0.000000,90.000000*
21,1,0.022840,0.027560,0.000000,0.000000,90.000000*
1,1,0.008660,0.009450,0.011420*
1,1,0.008660,0.009450,-0.011420*
1,1,0.008660,-0.009450,-0.011420*
1,1,0.008660,-0.009450,0.011420*
%
%AMM58*
21,1,0.035430,0.072440,0.000000,0.000000,90.000000*
21,1,0.025200,0.082680,0.000000,0.000000,90.000000*
1,1,0.010240,0.036220,0.012600*
1,1,0.010240,0.036220,-0.012600*
1,1,0.010240,-0.036220,-0.012600*
1,1,0.010240,-0.036220,0.012600*
%
%AMM59*
21,1,0.031500,0.018900,0.000000,0.000000,180.000000*
21,1,0.022840,0.027560,0.000000,0.000000,180.000000*
1,1,0.008660,-0.011420,0.009450*
1,1,0.008660,0.011420,0.009450*
1,1,0.008660,0.011420,-0.009450*
1,1,0.008660,-0.011420,-0.009450*
%
%AMM60*
21,1,0.027560,0.030710,0.000000,0.000000,270.000000*
21,1,0.018900,0.039370,0.000000,0.000000,270.000000*
1,1,0.008660,-0.015350,-0.009450*
1,1,0.008660,-0.015350,0.009450*
1,1,0.008660,0.015350,0.009450*
1,1,0.008660,0.015350,-0.009450*
%
%AMM61*
21,1,0.039370,0.030320,0.000000,0.000000,270.000000*
21,1,0.028350,0.041340,0.000000,0.000000,270.000000*
1,1,0.011020,-0.015160,-0.014170*
1,1,0.011020,-0.015160,0.014170*
1,1,0.011020,0.015160,0.014170*
1,1,0.011020,0.015160,-0.014170*
%
%AMM62*
21,1,0.047240,0.075980,0.000000,0.000000,0.000000*
21,1,0.034650,0.088580,0.000000,0.000000,0.000000*
1,1,0.012600,0.017320,-0.037990*
1,1,0.012600,-0.017320,-0.037990*
1,1,0.012600,-0.017320,0.037990*
1,1,0.012600,0.017320,0.037990*
%
%AMM63*
21,1,0.043310,0.035430,0.000000,0.000000,0.000000*
21,1,0.031500,0.047240,0.000000,0.000000,0.000000*
1,1,0.011810,0.015750,-0.017720*
1,1,0.011810,-0.015750,-0.017720*
1,1,0.011810,-0.015750,0.017720*
1,1,0.011810,0.015750,0.017720*
%
%AMM64*
21,1,0.031500,0.030710,0.000000,0.000000,0.000000*
21,1,0.022050,0.040160,0.000000,0.000000,0.000000*
1,1,0.009450,0.011020,-0.015350*
1,1,0.009450,-0.011020,-0.015350*
1,1,0.009450,-0.011020,0.015350*
1,1,0.009450,0.011020,0.015350*
%
%AMM65*
21,1,0.035430,0.072440,0.000000,0.000000,0.000000*
21,1,0.025200,0.082680,0.000000,0.000000,0.000000*
1,1,0.010240,0.012600,-0.036220*
1,1,0.010240,-0.012600,-0.036220*
1,1,0.010240,-0.012600,0.036220*
1,1,0.010240,0.012600,0.036220*
%
%AMM66*
21,1,0.141730,0.067720,0.000000,0.000000,0.000000*
21,1,0.120870,0.088580,0.000000,0.000000,0.000000*
1,1,0.020870,0.060430,-0.033860*
1,1,0.020870,-0.060430,-0.033860*
1,1,0.020870,-0.060430,0.033860*
1,1,0.020870,0.060430,0.033860*
%
%AMM67*
21,1,0.047240,0.075990,0.000000,0.000000,0.000000*
21,1,0.034650,0.088580,0.000000,0.000000,0.000000*
1,1,0.012600,0.017320,-0.037990*
1,1,0.012600,-0.017320,-0.037990*
1,1,0.012600,-0.017320,0.037990*
1,1,0.012600,0.017320,0.037990*
%
%AMM68*
21,1,0.090550,0.073230,0.000000,0.000000,90.000000*
21,1,0.069290,0.094490,0.000000,0.000000,90.000000*
1,1,0.021260,0.036610,0.034650*
1,1,0.021260,0.036610,-0.034650*
1,1,0.021260,-0.036610,-0.034650*
1,1,0.021260,-0.036610,0.034650*
%
%AMM96*
21,1,0.033070,0.030710,0.000000,0.000000,0.000000*
21,1,0.022050,0.041730,0.000000,0.000000,0.000000*
1,1,0.011020,0.011020,-0.015350*
1,1,0.011020,-0.011020,-0.015350*
1,1,0.011020,-0.011020,0.015350*
1,1,0.011020,0.011020,0.015350*
%
%ADD101M22*%
%ADD106C,0.02913*%
%ADD107C,0.06457*%
%ADD11R,0.13819X0.10000*%
%ADD12C,0.05906*%
%ADD14C,0.11811*%
%ADD145C,0.03100*%
%ADD149C,0.03900*%
%ADD151M53*%
%ADD152M54*%
%ADD153M55*%
%ADD154O,0.05118X0.01260*%
%ADD155O,0.01260X0.05118*%
%ADD156O,0.04724X0.01575*%
%ADD157C,0.03494*%
%ADD158M56*%
%ADD159M57*%
%ADD160R,0.01772X0.01378*%
%ADD161R,0.01378X0.01772*%
%ADD162M58*%
%ADD163M59*%
%ADD164M60*%
%ADD165M61*%
%ADD166O,0.09055X0.02756*%
%ADD167M62*%
%ADD168M63*%
%ADD169M64*%
%ADD170M65*%
%ADD171M66*%
%ADD172M67*%
%ADD173C,0.03543*%
%ADD174M68*%
%ADD175C,0.04724*%
%ADD176C,0.04294*%
%ADD216O,0.02520X0.01535*%
%ADD217O,0.01535X0.02520*%
%ADD219O,0.09213X0.02913*%
%ADD22C,0.02362*%
%ADD221R,0.03543X0.03150*%
%ADD223C,0.05118*%
%ADD225R,0.03150X0.03543*%
%ADD246O,0.01339X0.03307*%
%ADD247O,0.02520X0.04488*%
%ADD248M96*%
%ADD249O,0.02913X0.09213*%
%ADD311M146*%
%ADD312M147*%
%ADD313M148*%
%ADD314M149*%
%ADD315M150*%
%ADD316M151*%
%ADD317M152*%
%ADD318M153*%
%ADD319M154*%
%ADD320M155*%
%ADD321M156*%
%ADD322M157*%
%ADD323M158*%
%ADD344M175*%
%ADD345M176*%
%ADD346R,0.08661X0.04724*%
%ADD347R,0.25197X0.22835*%
%ADD348R,0.07874X0.07500*%
%ADD349O,0.07874X0.07500*%
%ADD46R,0.06693X0.06693*%
%ADD47C,0.06693*%
%ADD48C,0.13780*%
%ADD49O,0.10630X0.14567*%
%ADD52O,0.00787X0.02756*%
%ADD54O,0.01969X0.03937*%
%ADD55O,0.00984X0.01969*%
%ADD59O,0.01969X0.00984*%
%ADD61C,0.07480*%
%ADD62C,0.10827*%
%ADD63C,0.08661*%
%ADD64C,0.14567*%
%ADD98M19*%
%ADD99M20*%
X0000000Y0000000D02*
%LPD*%
G01*
D11*
X0567239Y0213643D03*
X0567239Y0098052D03*
G36*
G01*
X0099116Y0245038D02*
X0099116Y0247056D01*
G75*
G02*
X0099977Y0247917I0000861J0000000D01*
G01*
X0101700Y0247917D01*
G75*
G02*
X0102561Y0247056I0000000J-000861D01*
G01*
X0102561Y0245038D01*
G75*
G02*
X0101700Y0244177I-000861J0000000D01*
G01*
X0099977Y0244177D01*
G75*
G02*
X0099116Y0245038I0000000J0000861D01*
G01*
G37*
G36*
G01*
X0105317Y0245038D02*
X0105317Y0247056D01*
G75*
G02*
X0106178Y0247917I0000861J0000000D01*
G01*
X0107901Y0247917D01*
G75*
G02*
X0108762Y0247056I0000000J-000861D01*
G01*
X0108762Y0245038D01*
G75*
G02*
X0107901Y0244177I-000861J0000000D01*
G01*
X0106178Y0244177D01*
G75*
G02*
X0105317Y0245038I0000000J0000861D01*
G01*
G37*
G36*
X0522630Y0324000D02*
G01*
X0524598Y0324000D01*
X0524598Y0323980D01*
X0524879Y0323980D01*
X0525416Y0323822D01*
X0525888Y0323519D01*
X0526254Y0323096D01*
X0526487Y0322586D01*
X0526567Y0322031D01*
X0526567Y0320063D01*
X0526487Y0319508D01*
X0526254Y0318999D01*
X0525888Y0318575D01*
X0525416Y0318272D01*
X0524879Y0318115D01*
X0524598Y0318115D01*
X0524598Y0318094D01*
X0522630Y0318094D01*
X0522630Y0324000D01*
G37*
G36*
X0519480Y0318115D02*
G01*
X0519200Y0318115D01*
X0518663Y0318272D01*
X0518191Y0318575D01*
X0517824Y0318999D01*
X0517592Y0319508D01*
X0517512Y0320063D01*
X0517512Y0322031D01*
X0517592Y0322586D01*
X0517824Y0323096D01*
X0518191Y0323519D01*
X0518663Y0323822D01*
X0519200Y0323980D01*
X0519480Y0323980D01*
X0519480Y0324000D01*
X0521449Y0324000D01*
X0521449Y0318094D01*
X0519480Y0318094D01*
X0519480Y0318115D01*
G37*
G36*
G01*
X0099116Y0304094D02*
X0099116Y0306111D01*
G75*
G02*
X0099977Y0306972I0000861J0000000D01*
G01*
X0101700Y0306972D01*
G75*
G02*
X0102561Y0306111I0000000J-000861D01*
G01*
X0102561Y0304094D01*
G75*
G02*
X0101700Y0303232I-000861J0000000D01*
G01*
X0099977Y0303232D01*
G75*
G02*
X0099116Y0304094I0000000J0000861D01*
G01*
G37*
G36*
G01*
X0105317Y0304094D02*
X0105317Y0306111D01*
G75*
G02*
X0106178Y0306972I0000861J0000000D01*
G01*
X0107901Y0306972D01*
G75*
G02*
X0108762Y0306111I0000000J-000861D01*
G01*
X0108762Y0304094D01*
G75*
G02*
X0107901Y0303232I-000861J0000000D01*
G01*
X0106178Y0303232D01*
G75*
G02*
X0105317Y0304094I0000000J0000861D01*
G01*
G37*
G36*
G01*
X0083114Y0337713D02*
X0083114Y0326492D01*
G75*
G02*
X0082130Y0325508I-000984J0000000D01*
G01*
X0079276Y0325508D01*
G75*
G02*
X0078291Y0326492I0000000J0000984D01*
G01*
X0078291Y0337713D01*
G75*
G02*
X0079276Y0338697I0000984J0000000D01*
G01*
X0082130Y0338697D01*
G75*
G02*
X0083114Y0337713I0000000J-000984D01*
G01*
G37*
G36*
G01*
X0059787Y0337713D02*
X0059787Y0326492D01*
G75*
G02*
X0058803Y0325508I-000984J0000000D01*
G01*
X0055949Y0325508D01*
G75*
G02*
X0054965Y0326492I0000000J0000984D01*
G01*
X0054965Y0337713D01*
G75*
G02*
X0055949Y0338697I0000984J0000000D01*
G01*
X0058803Y0338697D01*
G75*
G02*
X0059787Y0337713I0000000J-000984D01*
G01*
G37*
G36*
G01*
X0312035Y0304465D02*
X0310854Y0304465D01*
G75*
G02*
X0310264Y0305055I0000000J0000591D01*
G01*
X0310264Y0311551D01*
G75*
G02*
X0310854Y0312142I0000591J0000000D01*
G01*
X0312035Y0312142D01*
G75*
G02*
X0312626Y0311551I0000000J-000591D01*
G01*
X0312626Y0305055D01*
G75*
G02*
X0312035Y0304465I-000591J0000000D01*
G01*
G37*
G36*
G01*
X0317035Y0304465D02*
X0315854Y0304465D01*
G75*
G02*
X0315264Y0305055I0000000J0000591D01*
G01*
X0315264Y0311551D01*
G75*
G02*
X0315854Y0312142I0000591J0000000D01*
G01*
X0317035Y0312142D01*
G75*
G02*
X0317626Y0311551I0000000J-000591D01*
G01*
X0317626Y0305055D01*
G75*
G02*
X0317035Y0304465I-000591J0000000D01*
G01*
G37*
G36*
G01*
X0322035Y0304465D02*
X0320854Y0304465D01*
G75*
G02*
X0320264Y0305055I0000000J0000591D01*
G01*
X0320264Y0311551D01*
G75*
G02*
X0320854Y0312142I0000591J0000000D01*
G01*
X0322035Y0312142D01*
G75*
G02*
X0322626Y0311551I0000000J-000591D01*
G01*
X0322626Y0305055D01*
G75*
G02*
X0322035Y0304465I-000591J0000000D01*
G01*
G37*
G36*
G01*
X0327035Y0304465D02*
X0325854Y0304465D01*
G75*
G02*
X0325264Y0305055I0000000J0000591D01*
G01*
X0325264Y0311551D01*
G75*
G02*
X0325854Y0312142I0000591J0000000D01*
G01*
X0327035Y0312142D01*
G75*
G02*
X0327626Y0311551I0000000J-000591D01*
G01*
X0327626Y0305055D01*
G75*
G02*
X0327035Y0304465I-000591J0000000D01*
G01*
G37*
G36*
G01*
X0327035Y0323953D02*
X0325854Y0323953D01*
G75*
G02*
X0325264Y0324543I0000000J0000591D01*
G01*
X0325264Y0331039D01*
G75*
G02*
X0325854Y0331630I0000591J0000000D01*
G01*
X0327035Y0331630D01*
G75*
G02*
X0327626Y0331039I0000000J-000591D01*
G01*
X0327626Y0324543D01*
G75*
G02*
X0327035Y0323953I-000591J0000000D01*
G01*
G37*
G36*
G01*
X0322035Y0323953D02*
X0320854Y0323953D01*
G75*
G02*
X0320264Y0324543I0000000J0000591D01*
G01*
X0320264Y0331039D01*
G75*
G02*
X0320854Y0331630I0000591J0000000D01*
G01*
X0322035Y0331630D01*
G75*
G02*
X0322626Y0331039I0000000J-000591D01*
G01*
X0322626Y0324543D01*
G75*
G02*
X0322035Y0323953I-000591J0000000D01*
G01*
G37*
G36*
G01*
X0317035Y0323953D02*
X0315854Y0323953D01*
G75*
G02*
X0315264Y0324543I0000000J0000591D01*
G01*
X0315264Y0331039D01*
G75*
G02*
X0315854Y0331630I0000591J0000000D01*
G01*
X0317035Y0331630D01*
G75*
G02*
X0317626Y0331039I0000000J-000591D01*
G01*
X0317626Y0324543D01*
G75*
G02*
X0317035Y0323953I-000591J0000000D01*
G01*
G37*
G36*
G01*
X0312035Y0323953D02*
X0310854Y0323953D01*
G75*
G02*
X0310264Y0324543I0000000J0000591D01*
G01*
X0310264Y0331039D01*
G75*
G02*
X0310854Y0331630I0000591J0000000D01*
G01*
X0312035Y0331630D01*
G75*
G02*
X0312626Y0331039I0000000J-000591D01*
G01*
X0312626Y0324543D01*
G75*
G02*
X0312035Y0323953I-000591J0000000D01*
G01*
G37*
G36*
G01*
X0305401Y0288413D02*
X0302331Y0288413D01*
G75*
G02*
X0302055Y0288689I0000000J0000276D01*
G01*
X0302055Y0290894D01*
G75*
G02*
X0302331Y0291169I0000276J0000000D01*
G01*
X0305401Y0291169D01*
G75*
G02*
X0305677Y0290894I0000000J-000276D01*
G01*
X0305677Y0288689D01*
G75*
G02*
X0305401Y0288413I-000276J0000000D01*
G01*
G37*
G36*
G01*
X0305401Y0294713D02*
X0302331Y0294713D01*
G75*
G02*
X0302055Y0294988I0000000J0000276D01*
G01*
X0302055Y0297193D01*
G75*
G02*
X0302331Y0297469I0000276J0000000D01*
G01*
X0305401Y0297469D01*
G75*
G02*
X0305677Y0297193I0000000J-000276D01*
G01*
X0305677Y0294988D01*
G75*
G02*
X0305401Y0294713I-000276J0000000D01*
G01*
G37*
G36*
G01*
X0286130Y0304465D02*
X0284949Y0304465D01*
G75*
G02*
X0284358Y0305055I0000000J0000591D01*
G01*
X0284358Y0311551D01*
G75*
G02*
X0284949Y0312142I0000591J0000000D01*
G01*
X0286130Y0312142D01*
G75*
G02*
X0286720Y0311551I0000000J-000591D01*
G01*
X0286720Y0305055D01*
G75*
G02*
X0286130Y0304465I-000591J0000000D01*
G01*
G37*
G36*
G01*
X0291130Y0304465D02*
X0289949Y0304465D01*
G75*
G02*
X0289358Y0305055I0000000J0000591D01*
G01*
X0289358Y0311551D01*
G75*
G02*
X0289949Y0312142I0000591J0000000D01*
G01*
X0291130Y0312142D01*
G75*
G02*
X0291720Y0311551I0000000J-000591D01*
G01*
X0291720Y0305055D01*
G75*
G02*
X0291130Y0304465I-000591J0000000D01*
G01*
G37*
G36*
G01*
X0296130Y0304465D02*
X0294949Y0304465D01*
G75*
G02*
X0294358Y0305055I0000000J0000591D01*
G01*
X0294358Y0311551D01*
G75*
G02*
X0294949Y0312142I0000591J0000000D01*
G01*
X0296130Y0312142D01*
G75*
G02*
X0296720Y0311551I0000000J-000591D01*
G01*
X0296720Y0305055D01*
G75*
G02*
X0296130Y0304465I-000591J0000000D01*
G01*
G37*
G36*
G01*
X0301130Y0304465D02*
X0299949Y0304465D01*
G75*
G02*
X0299358Y0305055I0000000J0000591D01*
G01*
X0299358Y0311551D01*
G75*
G02*
X0299949Y0312142I0000591J0000000D01*
G01*
X0301130Y0312142D01*
G75*
G02*
X0301720Y0311551I0000000J-000591D01*
G01*
X0301720Y0305055D01*
G75*
G02*
X0301130Y0304465I-000591J0000000D01*
G01*
G37*
G36*
G01*
X0301130Y0323953D02*
X0299949Y0323953D01*
G75*
G02*
X0299358Y0324543I0000000J0000591D01*
G01*
X0299358Y0331039D01*
G75*
G02*
X0299949Y0331630I0000591J0000000D01*
G01*
X0301130Y0331630D01*
G75*
G02*
X0301720Y0331039I0000000J-000591D01*
G01*
X0301720Y0324543D01*
G75*
G02*
X0301130Y0323953I-000591J0000000D01*
G01*
G37*
G36*
G01*
X0296130Y0323953D02*
X0294949Y0323953D01*
G75*
G02*
X0294358Y0324543I0000000J0000591D01*
G01*
X0294358Y0331039D01*
G75*
G02*
X0294949Y0331630I0000591J0000000D01*
G01*
X0296130Y0331630D01*
G75*
G02*
X0296720Y0331039I0000000J-000591D01*
G01*
X0296720Y0324543D01*
G75*
G02*
X0296130Y0323953I-000591J0000000D01*
G01*
G37*
G36*
G01*
X0291130Y0323953D02*
X0289949Y0323953D01*
G75*
G02*
X0289358Y0324543I0000000J0000591D01*
G01*
X0289358Y0331039D01*
G75*
G02*
X0289949Y0331630I0000591J0000000D01*
G01*
X0291130Y0331630D01*
G75*
G02*
X0291720Y0331039I0000000J-000591D01*
G01*
X0291720Y0324543D01*
G75*
G02*
X0291130Y0323953I-000591J0000000D01*
G01*
G37*
G36*
G01*
X0286130Y0323953D02*
X0284949Y0323953D01*
G75*
G02*
X0284358Y0324543I0000000J0000591D01*
G01*
X0284358Y0331039D01*
G75*
G02*
X0284949Y0331630I0000591J0000000D01*
G01*
X0286130Y0331630D01*
G75*
G02*
X0286720Y0331039I0000000J-000591D01*
G01*
X0286720Y0324543D01*
G75*
G02*
X0286130Y0323953I-000591J0000000D01*
G01*
G37*
G36*
G01*
X0423868Y0341263D02*
X0423868Y0343231D01*
G75*
G02*
X0424754Y0344117I0000886J0000000D01*
G01*
X0426525Y0344117D01*
G75*
G02*
X0427411Y0343231I0000000J-000886D01*
G01*
X0427411Y0341263D01*
G75*
G02*
X0426525Y0340377I-000886J0000000D01*
G01*
X0424754Y0340377D01*
G75*
G02*
X0423868Y0341263I0000000J0000886D01*
G01*
G37*
G36*
G01*
X0429970Y0341263D02*
X0429970Y0343231D01*
G75*
G02*
X0430856Y0344117I0000886J0000000D01*
G01*
X0432628Y0344117D01*
G75*
G02*
X0433513Y0343231I0000000J-000886D01*
G01*
X0433513Y0341263D01*
G75*
G02*
X0432628Y0340377I-000886J0000000D01*
G01*
X0430856Y0340377D01*
G75*
G02*
X0429970Y0341263I0000000J0000886D01*
G01*
G37*
G36*
G01*
X0095374Y0120409D02*
X0092303Y0120409D01*
G75*
G02*
X0092028Y0120685I0000000J0000276D01*
G01*
X0092028Y0122890D01*
G75*
G02*
X0092303Y0123165I0000276J0000000D01*
G01*
X0095374Y0123165D01*
G75*
G02*
X0095650Y0122890I0000000J-000276D01*
G01*
X0095650Y0120685D01*
G75*
G02*
X0095374Y0120409I-000276J0000000D01*
G01*
G37*
G36*
G01*
X0095374Y0126709D02*
X0092303Y0126709D01*
G75*
G02*
X0092028Y0126984I0000000J0000276D01*
G01*
X0092028Y0129189D01*
G75*
G02*
X0092303Y0129465I0000276J0000000D01*
G01*
X0095374Y0129465D01*
G75*
G02*
X0095650Y0129189I0000000J-000276D01*
G01*
X0095650Y0126984D01*
G75*
G02*
X0095374Y0126709I-000276J0000000D01*
G01*
G37*
D62*
X0226636Y0070847D03*
X0351439Y0070847D03*
D12*
X0237857Y0075965D03*
X0245731Y0075965D03*
X0253605Y0075965D03*
X0261479Y0075965D03*
X0269353Y0075965D03*
X0308723Y0075965D03*
X0316597Y0075965D03*
X0324471Y0075965D03*
X0332345Y0075965D03*
X0340219Y0075965D03*
X0237857Y0067304D03*
X0245731Y0067304D03*
X0253605Y0067304D03*
X0261479Y0067304D03*
X0269353Y0067304D03*
X0277227Y0067304D03*
X0285101Y0067304D03*
X0292975Y0067304D03*
X0300849Y0067304D03*
X0308723Y0067304D03*
X0316597Y0067304D03*
X0324471Y0067304D03*
X0332345Y0067304D03*
X0340219Y0067304D03*
G36*
G01*
X0083114Y0219602D02*
X0083114Y0208382D01*
G75*
G02*
X0082130Y0207398I-000984J0000000D01*
G01*
X0079276Y0207398D01*
G75*
G02*
X0078291Y0208382I0000000J0000984D01*
G01*
X0078291Y0219602D01*
G75*
G02*
X0079276Y0220587I0000984J0000000D01*
G01*
X0082130Y0220587D01*
G75*
G02*
X0083114Y0219602I0000000J-000984D01*
G01*
G37*
G36*
G01*
X0059787Y0219602D02*
X0059787Y0208382D01*
G75*
G02*
X0058803Y0207398I-000984J0000000D01*
G01*
X0055949Y0207398D01*
G75*
G02*
X0054965Y0208382I0000000J0000984D01*
G01*
X0054965Y0219602D01*
G75*
G02*
X0055949Y0220587I0000984J0000000D01*
G01*
X0058803Y0220587D01*
G75*
G02*
X0059787Y0219602I0000000J-000984D01*
G01*
G37*
G36*
G01*
X0542564Y0230828D02*
X0544454Y0230828D01*
G75*
G02*
X0544690Y0230592I0000000J-000236D01*
G01*
X0544690Y0228702D01*
G75*
G02*
X0544454Y0228466I-000236J0000000D01*
G01*
X0542564Y0228466D01*
G75*
G02*
X0542328Y0228702I0000000J0000236D01*
G01*
X0542328Y0230592D01*
G75*
G02*
X0542564Y0230828I0000236J0000000D01*
G01*
G37*
G36*
G01*
X0551225Y0230828D02*
X0553115Y0230828D01*
G75*
G02*
X0553351Y0230592I0000000J-000236D01*
G01*
X0553351Y0228702D01*
G75*
G02*
X0553115Y0228466I-000236J0000000D01*
G01*
X0551225Y0228466D01*
G75*
G02*
X0550989Y0228702I0000000J0000236D01*
G01*
X0550989Y0230592D01*
G75*
G02*
X0551225Y0230828I0000236J0000000D01*
G01*
G37*
G36*
G01*
X0082173Y0120339D02*
X0082173Y0117583D01*
G75*
G02*
X0081189Y0116598I-000984J0000000D01*
G01*
X0074496Y0116598D01*
G75*
G02*
X0073512Y0117583I0000000J0000984D01*
G01*
X0073512Y0120339D01*
G75*
G02*
X0074496Y0121323I0000984J0000000D01*
G01*
X0081189Y0121323D01*
G75*
G02*
X0082173Y0120339I0000000J-000984D01*
G01*
G37*
G36*
G01*
X0065638Y0138370D02*
X0065638Y0117504D01*
G75*
G02*
X0064654Y0116520I-000984J0000000D01*
G01*
X0041425Y0116520D01*
G75*
G02*
X0040441Y0117504I0000000J0000984D01*
G01*
X0040441Y0138370D01*
G75*
G02*
X0041425Y0139354I0000984J0000000D01*
G01*
X0064654Y0139354D01*
G75*
G02*
X0065638Y0138370I0000000J-000984D01*
G01*
G37*
G36*
G01*
X0082173Y0138291D02*
X0082173Y0135535D01*
G75*
G02*
X0081189Y0134551I-000984J0000000D01*
G01*
X0074496Y0134551D01*
G75*
G02*
X0073512Y0135535I0000000J0000984D01*
G01*
X0073512Y0138291D01*
G75*
G02*
X0074496Y0139276I0000984J0000000D01*
G01*
X0081189Y0139276D01*
G75*
G02*
X0082173Y0138291I0000000J-000984D01*
G01*
G37*
G36*
G01*
X0297728Y0288413D02*
X0294657Y0288413D01*
G75*
G02*
X0294382Y0288689I0000000J0000276D01*
G01*
X0294382Y0290894D01*
G75*
G02*
X0294657Y0291169I0000276J0000000D01*
G01*
X0297728Y0291169D01*
G75*
G02*
X0298004Y0290894I0000000J-000276D01*
G01*
X0298004Y0288689D01*
G75*
G02*
X0297728Y0288413I-000276J0000000D01*
G01*
G37*
G36*
G01*
X0297728Y0294713D02*
X0294657Y0294713D01*
G75*
G02*
X0294382Y0294988I0000000J0000276D01*
G01*
X0294382Y0297193D01*
G75*
G02*
X0294657Y0297469I0000276J0000000D01*
G01*
X0297728Y0297469D01*
G75*
G02*
X0298004Y0297193I0000000J-000276D01*
G01*
X0298004Y0294988D01*
G75*
G02*
X0297728Y0294713I-000276J0000000D01*
G01*
G37*
G36*
G01*
X0453017Y0324863D02*
X0453017Y0326831D01*
G75*
G02*
X0453902Y0327717I0000886J0000000D01*
G01*
X0455674Y0327717D01*
G75*
G02*
X0456560Y0326831I0000000J-000886D01*
G01*
X0456560Y0324863D01*
G75*
G02*
X0455674Y0323977I-000886J0000000D01*
G01*
X0453902Y0323977D01*
G75*
G02*
X0453017Y0324863I0000000J0000886D01*
G01*
G37*
G36*
G01*
X0459119Y0324863D02*
X0459119Y0326831D01*
G75*
G02*
X0460005Y0327717I0000886J0000000D01*
G01*
X0461776Y0327717D01*
G75*
G02*
X0462662Y0326831I0000000J-000886D01*
G01*
X0462662Y0324863D01*
G75*
G02*
X0461776Y0323977I-000886J0000000D01*
G01*
X0460005Y0323977D01*
G75*
G02*
X0459119Y0324863I0000000J0000886D01*
G01*
G37*
D22*
X0393436Y0322536D03*
X0393436Y0318796D03*
X0393436Y0315056D03*
X0359184Y0318993D03*
X0359184Y0322536D03*
G36*
G01*
X0099116Y0185983D02*
X0099116Y0188001D01*
G75*
G02*
X0099977Y0188862I0000861J0000000D01*
G01*
X0101700Y0188862D01*
G75*
G02*
X0102561Y0188001I0000000J-000861D01*
G01*
X0102561Y0185983D01*
G75*
G02*
X0101700Y0185122I-000861J0000000D01*
G01*
X0099977Y0185122D01*
G75*
G02*
X0099116Y0185983I0000000J0000861D01*
G01*
G37*
G36*
G01*
X0105317Y0185983D02*
X0105317Y0188001D01*
G75*
G02*
X0106178Y0188862I0000861J0000000D01*
G01*
X0107901Y0188862D01*
G75*
G02*
X0108762Y0188001I0000000J-000861D01*
G01*
X0108762Y0185983D01*
G75*
G02*
X0107901Y0185122I-000861J0000000D01*
G01*
X0106178Y0185122D01*
G75*
G02*
X0105317Y0185983I0000000J0000861D01*
G01*
G37*
G36*
G01*
X0083114Y0278657D02*
X0083114Y0267437D01*
G75*
G02*
X0082130Y0266453I-000984J0000000D01*
G01*
X0079276Y0266453D01*
G75*
G02*
X0078291Y0267437I0000000J0000984D01*
G01*
X0078291Y0278657D01*
G75*
G02*
X0079276Y0279642I0000984J0000000D01*
G01*
X0082130Y0279642D01*
G75*
G02*
X0083114Y0278657I0000000J-000984D01*
G01*
G37*
G36*
G01*
X0059787Y0278657D02*
X0059787Y0267437D01*
G75*
G02*
X0058803Y0266453I-000984J0000000D01*
G01*
X0055949Y0266453D01*
G75*
G02*
X0054965Y0267437I0000000J0000984D01*
G01*
X0054965Y0278657D01*
G75*
G02*
X0055949Y0279642I0000984J0000000D01*
G01*
X0058803Y0279642D01*
G75*
G02*
X0059787Y0278657I0000000J-000984D01*
G01*
G37*
G36*
G01*
X0095374Y0297575D02*
X0092303Y0297575D01*
G75*
G02*
X0092028Y0297850I0000000J0000276D01*
G01*
X0092028Y0300055D01*
G75*
G02*
X0092303Y0300331I0000276J0000000D01*
G01*
X0095374Y0300331D01*
G75*
G02*
X0095650Y0300055I0000000J-000276D01*
G01*
X0095650Y0297850D01*
G75*
G02*
X0095374Y0297575I-000276J0000000D01*
G01*
G37*
G36*
G01*
X0095374Y0303874D02*
X0092303Y0303874D01*
G75*
G02*
X0092028Y0304150I0000000J0000276D01*
G01*
X0092028Y0306354D01*
G75*
G02*
X0092303Y0306630I0000276J0000000D01*
G01*
X0095374Y0306630D01*
G75*
G02*
X0095650Y0306354I0000000J-000276D01*
G01*
X0095650Y0304150D01*
G75*
G02*
X0095374Y0303874I-000276J0000000D01*
G01*
G37*
G36*
G01*
X0099116Y0126928D02*
X0099116Y0128946D01*
G75*
G02*
X0099977Y0129807I0000861J0000000D01*
G01*
X0101700Y0129807D01*
G75*
G02*
X0102561Y0128946I0000000J-000861D01*
G01*
X0102561Y0126928D01*
G75*
G02*
X0101700Y0126067I-000861J0000000D01*
G01*
X0099977Y0126067D01*
G75*
G02*
X0099116Y0126928I0000000J0000861D01*
G01*
G37*
G36*
G01*
X0105317Y0126928D02*
X0105317Y0128946D01*
G75*
G02*
X0106178Y0129807I0000861J0000000D01*
G01*
X0107901Y0129807D01*
G75*
G02*
X0108762Y0128946I0000000J-000861D01*
G01*
X0108762Y0126928D01*
G75*
G02*
X0107901Y0126067I-000861J0000000D01*
G01*
X0106178Y0126067D01*
G75*
G02*
X0105317Y0126928I0000000J0000861D01*
G01*
G37*
G36*
G01*
X0082173Y0238449D02*
X0082173Y0235693D01*
G75*
G02*
X0081189Y0234709I-000984J0000000D01*
G01*
X0074496Y0234709D01*
G75*
G02*
X0073512Y0235693I0000000J0000984D01*
G01*
X0073512Y0238449D01*
G75*
G02*
X0074496Y0239433I0000984J0000000D01*
G01*
X0081189Y0239433D01*
G75*
G02*
X0082173Y0238449I0000000J-000984D01*
G01*
G37*
G36*
G01*
X0065638Y0256480D02*
X0065638Y0235614D01*
G75*
G02*
X0064654Y0234630I-000984J0000000D01*
G01*
X0041425Y0234630D01*
G75*
G02*
X0040441Y0235614I0000000J0000984D01*
G01*
X0040441Y0256480D01*
G75*
G02*
X0041425Y0257465I0000984J0000000D01*
G01*
X0064654Y0257465D01*
G75*
G02*
X0065638Y0256480I0000000J-000984D01*
G01*
G37*
G36*
G01*
X0082173Y0256402D02*
X0082173Y0253646D01*
G75*
G02*
X0081189Y0252661I-000984J0000000D01*
G01*
X0074496Y0252661D01*
G75*
G02*
X0073512Y0253646I0000000J0000984D01*
G01*
X0073512Y0256402D01*
G75*
G02*
X0074496Y0257386I0000984J0000000D01*
G01*
X0081189Y0257386D01*
G75*
G02*
X0082173Y0256402I0000000J-000984D01*
G01*
G37*
D12*
X0536035Y0253335D03*
X0536035Y0278531D03*
X0536035Y0286012D03*
X0536035Y0302941D03*
D22*
X0534264Y0312390D03*
X0534264Y0316327D03*
D12*
X0536035Y0327547D03*
X0597059Y0251563D03*
X0597059Y0258846D03*
X0597059Y0278335D03*
X0597059Y0325776D03*
D46*
X0569061Y0059791D03*
D47*
X0559219Y0059791D03*
X0559219Y0051917D03*
X0569061Y0051917D03*
D48*
X0587841Y0041247D03*
X0540439Y0041247D03*
G36*
G01*
X0095374Y0238520D02*
X0092303Y0238520D01*
G75*
G02*
X0092028Y0238795I0000000J0000276D01*
G01*
X0092028Y0241000D01*
G75*
G02*
X0092303Y0241276I0000276J0000000D01*
G01*
X0095374Y0241276D01*
G75*
G02*
X0095650Y0241000I0000000J-000276D01*
G01*
X0095650Y0238795D01*
G75*
G02*
X0095374Y0238520I-000276J0000000D01*
G01*
G37*
G36*
G01*
X0095374Y0244819D02*
X0092303Y0244819D01*
G75*
G02*
X0092028Y0245094I0000000J0000276D01*
G01*
X0092028Y0247299D01*
G75*
G02*
X0092303Y0247575I0000276J0000000D01*
G01*
X0095374Y0247575D01*
G75*
G02*
X0095650Y0247299I0000000J-000276D01*
G01*
X0095650Y0245094D01*
G75*
G02*
X0095374Y0244819I-000276J0000000D01*
G01*
G37*
G36*
G01*
X0083114Y0160547D02*
X0083114Y0149327D01*
G75*
G02*
X0082130Y0148343I-000984J0000000D01*
G01*
X0079276Y0148343D01*
G75*
G02*
X0078291Y0149327I0000000J0000984D01*
G01*
X0078291Y0160547D01*
G75*
G02*
X0079276Y0161531I0000984J0000000D01*
G01*
X0082130Y0161531D01*
G75*
G02*
X0083114Y0160547I0000000J-000984D01*
G01*
G37*
G36*
G01*
X0059787Y0160547D02*
X0059787Y0149327D01*
G75*
G02*
X0058803Y0148343I-000984J0000000D01*
G01*
X0055949Y0148343D01*
G75*
G02*
X0054965Y0149327I0000000J0000984D01*
G01*
X0054965Y0160547D01*
G75*
G02*
X0055949Y0161531I0000984J0000000D01*
G01*
X0058803Y0161531D01*
G75*
G02*
X0059787Y0160547I0000000J-000984D01*
G01*
G37*
D22*
X0393457Y0336880D03*
X0393457Y0333139D03*
X0393457Y0329399D03*
X0359206Y0333336D03*
X0359206Y0336880D03*
G36*
G01*
X0082173Y0179394D02*
X0082173Y0176638D01*
G75*
G02*
X0081189Y0175654I-000984J0000000D01*
G01*
X0074496Y0175654D01*
G75*
G02*
X0073512Y0176638I0000000J0000984D01*
G01*
X0073512Y0179394D01*
G75*
G02*
X0074496Y0180378I0000984J0000000D01*
G01*
X0081189Y0180378D01*
G75*
G02*
X0082173Y0179394I0000000J-000984D01*
G01*
G37*
G36*
G01*
X0065638Y0197425D02*
X0065638Y0176559D01*
G75*
G02*
X0064654Y0175575I-000984J0000000D01*
G01*
X0041425Y0175575D01*
G75*
G02*
X0040441Y0176559I0000000J0000984D01*
G01*
X0040441Y0197425D01*
G75*
G02*
X0041425Y0198409I0000984J0000000D01*
G01*
X0064654Y0198409D01*
G75*
G02*
X0065638Y0197425I0000000J-000984D01*
G01*
G37*
G36*
G01*
X0082173Y0197346D02*
X0082173Y0194591D01*
G75*
G02*
X0081189Y0193606I-000984J0000000D01*
G01*
X0074496Y0193606D01*
G75*
G02*
X0073512Y0194591I0000000J0000984D01*
G01*
X0073512Y0197346D01*
G75*
G02*
X0074496Y0198331I0000984J0000000D01*
G01*
X0081189Y0198331D01*
G75*
G02*
X0082173Y0197346I0000000J-000984D01*
G01*
G37*
D14*
X0167575Y0026201D03*
X0134504Y0026201D03*
G36*
G01*
X0172890Y0061240D02*
X0172890Y0048642D01*
G75*
G02*
X0171906Y0047657I-000984J0000000D01*
G01*
X0163244Y0047657D01*
G75*
G02*
X0162260Y0048642I0000000J0000984D01*
G01*
X0162260Y0061240D01*
G75*
G02*
X0163244Y0062224I0000984J0000000D01*
G01*
X0171906Y0062224D01*
G75*
G02*
X0172890Y0061240I0000000J-000984D01*
G01*
G37*
D49*
X0151039Y0054941D03*
X0134504Y0054941D03*
X0167575Y0076594D03*
X0151039Y0076594D03*
X0134504Y0076594D03*
G36*
G01*
X0452817Y0334863D02*
X0452817Y0336831D01*
G75*
G02*
X0453702Y0337717I0000886J0000000D01*
G01*
X0455474Y0337717D01*
G75*
G02*
X0456360Y0336831I0000000J-000886D01*
G01*
X0456360Y0334863D01*
G75*
G02*
X0455474Y0333977I-000886J0000000D01*
G01*
X0453702Y0333977D01*
G75*
G02*
X0452817Y0334863I0000000J0000886D01*
G01*
G37*
G36*
G01*
X0458919Y0334863D02*
X0458919Y0336831D01*
G75*
G02*
X0459805Y0337717I0000886J0000000D01*
G01*
X0461576Y0337717D01*
G75*
G02*
X0462462Y0336831I0000000J-000886D01*
G01*
X0462462Y0334863D01*
G75*
G02*
X0461576Y0333977I-000886J0000000D01*
G01*
X0459805Y0333977D01*
G75*
G02*
X0458919Y0334863I0000000J0000886D01*
G01*
G37*
D52*
X0484702Y0300947D03*
D54*
X0469859Y0307345D03*
D55*
X0464328Y0260002D03*
D22*
X0474111Y0296420D03*
X0466907Y0271124D03*
X0471926Y0271124D03*
X0478422Y0271124D03*
X0481966Y0271124D03*
D59*
X0445632Y0202423D03*
D55*
X0486380Y0202226D03*
X0484411Y0202226D03*
D22*
X0458624Y0198092D03*
X0462069Y0196025D03*
X0457443Y0193072D03*
X0457738Y0179096D03*
G36*
G01*
X0320748Y0288413D02*
X0317677Y0288413D01*
G75*
G02*
X0317402Y0288689I0000000J0000276D01*
G01*
X0317402Y0290894D01*
G75*
G02*
X0317677Y0291169I0000276J0000000D01*
G01*
X0320748Y0291169D01*
G75*
G02*
X0321024Y0290894I0000000J-000276D01*
G01*
X0321024Y0288689D01*
G75*
G02*
X0320748Y0288413I-000276J0000000D01*
G01*
G37*
G36*
G01*
X0320748Y0294713D02*
X0317677Y0294713D01*
G75*
G02*
X0317402Y0294988I0000000J0000276D01*
G01*
X0317402Y0297193D01*
G75*
G02*
X0317677Y0297469I0000276J0000000D01*
G01*
X0320748Y0297469D01*
G75*
G02*
X0321024Y0297193I0000000J-000276D01*
G01*
X0321024Y0294988D01*
G75*
G02*
X0320748Y0294713I-000276J0000000D01*
G01*
G37*
G36*
G01*
X0421784Y0335289D02*
X0421784Y0336470D01*
G75*
G02*
X0422375Y0337061I0000591J0000000D01*
G01*
X0428871Y0337061D01*
G75*
G02*
X0429461Y0336470I0000000J-000591D01*
G01*
X0429461Y0335289D01*
G75*
G02*
X0428871Y0334698I-000591J0000000D01*
G01*
X0422375Y0334698D01*
G75*
G02*
X0421784Y0335289I0000000J0000591D01*
G01*
G37*
G36*
G01*
X0421784Y0330289D02*
X0421784Y0331470D01*
G75*
G02*
X0422375Y0332061I0000591J0000000D01*
G01*
X0428871Y0332061D01*
G75*
G02*
X0429461Y0331470I0000000J-000591D01*
G01*
X0429461Y0330289D01*
G75*
G02*
X0428871Y0329698I-000591J0000000D01*
G01*
X0422375Y0329698D01*
G75*
G02*
X0421784Y0330289I0000000J0000591D01*
G01*
G37*
G36*
G01*
X0421784Y0325289D02*
X0421784Y0326470D01*
G75*
G02*
X0422375Y0327061I0000591J0000000D01*
G01*
X0428871Y0327061D01*
G75*
G02*
X0429461Y0326470I0000000J-000591D01*
G01*
X0429461Y0325289D01*
G75*
G02*
X0428871Y0324698I-000591J0000000D01*
G01*
X0422375Y0324698D01*
G75*
G02*
X0421784Y0325289I0000000J0000591D01*
G01*
G37*
G36*
G01*
X0421784Y0320289D02*
X0421784Y0321470D01*
G75*
G02*
X0422375Y0322061I0000591J0000000D01*
G01*
X0428871Y0322061D01*
G75*
G02*
X0429461Y0321470I0000000J-000591D01*
G01*
X0429461Y0320289D01*
G75*
G02*
X0428871Y0319698I-000591J0000000D01*
G01*
X0422375Y0319698D01*
G75*
G02*
X0421784Y0320289I0000000J0000591D01*
G01*
G37*
G36*
G01*
X0441272Y0320289D02*
X0441272Y0321470D01*
G75*
G02*
X0441863Y0322061I0000591J0000000D01*
G01*
X0448359Y0322061D01*
G75*
G02*
X0448950Y0321470I0000000J-000591D01*
G01*
X0448950Y0320289D01*
G75*
G02*
X0448359Y0319698I-000591J0000000D01*
G01*
X0441863Y0319698D01*
G75*
G02*
X0441272Y0320289I0000000J0000591D01*
G01*
G37*
G36*
G01*
X0441272Y0325289D02*
X0441272Y0326470D01*
G75*
G02*
X0441863Y0327061I0000591J0000000D01*
G01*
X0448359Y0327061D01*
G75*
G02*
X0448950Y0326470I0000000J-000591D01*
G01*
X0448950Y0325289D01*
G75*
G02*
X0448359Y0324698I-000591J0000000D01*
G01*
X0441863Y0324698D01*
G75*
G02*
X0441272Y0325289I0000000J0000591D01*
G01*
G37*
G36*
G01*
X0441272Y0330289D02*
X0441272Y0331470D01*
G75*
G02*
X0441863Y0332061I0000591J0000000D01*
G01*
X0448359Y0332061D01*
G75*
G02*
X0448950Y0331470I0000000J-000591D01*
G01*
X0448950Y0330289D01*
G75*
G02*
X0448359Y0329698I-000591J0000000D01*
G01*
X0441863Y0329698D01*
G75*
G02*
X0441272Y0330289I0000000J0000591D01*
G01*
G37*
G36*
G01*
X0441272Y0335289D02*
X0441272Y0336470D01*
G75*
G02*
X0441863Y0337061I0000591J0000000D01*
G01*
X0448359Y0337061D01*
G75*
G02*
X0448950Y0336470I0000000J-000591D01*
G01*
X0448950Y0335289D01*
G75*
G02*
X0448359Y0334698I-000591J0000000D01*
G01*
X0441863Y0334698D01*
G75*
G02*
X0441272Y0335289I0000000J0000591D01*
G01*
G37*
D63*
X0580222Y0419862D03*
D64*
X0572222Y0439134D03*
X0073348Y0439134D03*
D63*
X0065262Y0419862D03*
D61*
X0544219Y0411102D03*
X0524553Y0411102D03*
X0504884Y0411102D03*
X0544219Y0388657D03*
X0524553Y0388657D03*
X0504884Y0388657D03*
X0544219Y0366217D03*
X0524553Y0366217D03*
X0504884Y0366217D03*
D12*
X0477297Y0413433D03*
X0467297Y0413433D03*
X0457297Y0413433D03*
X0447297Y0413433D03*
X0437293Y0413433D03*
X0427293Y0413433D03*
X0477297Y0403421D03*
X0467297Y0403421D03*
X0457297Y0403421D03*
X0447297Y0403421D03*
X0437293Y0403421D03*
X0427293Y0403421D03*
X0477297Y0379646D03*
X0467297Y0379646D03*
X0457297Y0379646D03*
X0447297Y0379646D03*
X0437293Y0379646D03*
X0427293Y0379646D03*
X0477297Y0369555D03*
X0467297Y0369555D03*
X0457297Y0369555D03*
X0447297Y0369555D03*
X0437293Y0369555D03*
X0427293Y0369555D03*
X0404876Y0413433D03*
X0394876Y0413433D03*
X0384876Y0413433D03*
X0374876Y0413433D03*
X0364872Y0413433D03*
X0354872Y0413433D03*
X0344872Y0413433D03*
X0334872Y0413433D03*
X0324868Y0413433D03*
X0314868Y0413433D03*
X0304868Y0413433D03*
X0294868Y0413433D03*
X0284868Y0413433D03*
X0404876Y0403421D03*
X0394876Y0403421D03*
X0384876Y0403421D03*
X0374876Y0403421D03*
X0364872Y0403421D03*
X0354872Y0403421D03*
X0344872Y0403421D03*
X0334872Y0403421D03*
X0324868Y0403421D03*
X0314868Y0403421D03*
X0304868Y0403421D03*
X0294868Y0403421D03*
X0284868Y0403421D03*
X0404876Y0379646D03*
X0394876Y0379646D03*
X0384876Y0379646D03*
X0374876Y0379646D03*
X0364872Y0379646D03*
X0354872Y0379646D03*
X0344872Y0379646D03*
X0334872Y0379646D03*
X0324868Y0379646D03*
X0314868Y0379646D03*
X0304868Y0379646D03*
X0294868Y0379646D03*
X0284868Y0379646D03*
X0404876Y0369555D03*
X0394876Y0369555D03*
X0384876Y0369555D03*
X0374876Y0369555D03*
X0364872Y0369555D03*
X0354872Y0369555D03*
X0344872Y0369555D03*
X0334872Y0369555D03*
X0324868Y0369555D03*
X0314868Y0369555D03*
X0304868Y0369555D03*
X0294868Y0369555D03*
X0284868Y0369555D03*
X0262278Y0413433D03*
X0252278Y0413433D03*
X0242278Y0413433D03*
X0232278Y0413433D03*
X0222278Y0413433D03*
X0212274Y0413433D03*
X0202274Y0413433D03*
X0192274Y0413433D03*
X0182274Y0413433D03*
X0172270Y0413433D03*
X0262278Y0403421D03*
X0252278Y0403421D03*
X0242278Y0403421D03*
X0232278Y0403421D03*
X0222278Y0403421D03*
X0212274Y0403421D03*
X0202274Y0403421D03*
X0192274Y0403421D03*
X0182274Y0403421D03*
X0172270Y0403421D03*
X0262278Y0379646D03*
X0252278Y0379646D03*
X0242278Y0379646D03*
X0232278Y0379646D03*
X0222278Y0379646D03*
X0212274Y0379646D03*
X0202274Y0379646D03*
X0192274Y0379646D03*
X0182274Y0379646D03*
X0172270Y0379646D03*
X0262278Y0369555D03*
X0252278Y0369555D03*
X0242278Y0369555D03*
X0232278Y0369555D03*
X0222278Y0369555D03*
X0212274Y0369555D03*
X0202274Y0369555D03*
X0192274Y0369555D03*
X0182274Y0369555D03*
X0172270Y0369555D03*
D61*
X0145018Y0411102D03*
X0125266Y0411102D03*
X0105600Y0411102D03*
X0145018Y0388657D03*
X0125266Y0388657D03*
X0105600Y0388657D03*
X0145018Y0366217D03*
X0125266Y0366217D03*
X0105600Y0366217D03*
G36*
G01*
X0082173Y0297504D02*
X0082173Y0294748D01*
G75*
G02*
X0081189Y0293764I-000984J0000000D01*
G01*
X0074496Y0293764D01*
G75*
G02*
X0073512Y0294748I0000000J0000984D01*
G01*
X0073512Y0297504D01*
G75*
G02*
X0074496Y0298488I0000984J0000000D01*
G01*
X0081189Y0298488D01*
G75*
G02*
X0082173Y0297504I0000000J-000984D01*
G01*
G37*
G36*
G01*
X0065638Y0315535D02*
X0065638Y0294669D01*
G75*
G02*
X0064654Y0293685I-000984J0000000D01*
G01*
X0041425Y0293685D01*
G75*
G02*
X0040441Y0294669I0000000J0000984D01*
G01*
X0040441Y0315535D01*
G75*
G02*
X0041425Y0316520I0000984J0000000D01*
G01*
X0064654Y0316520D01*
G75*
G02*
X0065638Y0315535I0000000J-000984D01*
G01*
G37*
G36*
G01*
X0082173Y0315457D02*
X0082173Y0312701D01*
G75*
G02*
X0081189Y0311717I-000984J0000000D01*
G01*
X0074496Y0311717D01*
G75*
G02*
X0073512Y0312701I0000000J0000984D01*
G01*
X0073512Y0315457D01*
G75*
G02*
X0074496Y0316441I0000984J0000000D01*
G01*
X0081189Y0316441D01*
G75*
G02*
X0082173Y0315457I0000000J-000984D01*
G01*
G37*
G36*
G01*
X0095374Y0179465D02*
X0092303Y0179465D01*
G75*
G02*
X0092028Y0179740I0000000J0000276D01*
G01*
X0092028Y0181945D01*
G75*
G02*
X0092303Y0182220I0000276J0000000D01*
G01*
X0095374Y0182220D01*
G75*
G02*
X0095650Y0181945I0000000J-000276D01*
G01*
X0095650Y0179740D01*
G75*
G02*
X0095374Y0179465I-000276J0000000D01*
G01*
G37*
G36*
G01*
X0095374Y0185764D02*
X0092303Y0185764D01*
G75*
G02*
X0092028Y0186039I0000000J0000276D01*
G01*
X0092028Y0188244D01*
G75*
G02*
X0092303Y0188520I0000276J0000000D01*
G01*
X0095374Y0188520D01*
G75*
G02*
X0095650Y0188244I0000000J-000276D01*
G01*
X0095650Y0186039D01*
G75*
G02*
X0095374Y0185764I-000276J0000000D01*
G01*
G37*
G36*
G01*
X0313075Y0288413D02*
X0310004Y0288413D01*
G75*
G02*
X0309728Y0288689I0000000J0000276D01*
G01*
X0309728Y0290894D01*
G75*
G02*
X0310004Y0291169I0000276J0000000D01*
G01*
X0313075Y0291169D01*
G75*
G02*
X0313350Y0290894I0000000J-000276D01*
G01*
X0313350Y0288689D01*
G75*
G02*
X0313075Y0288413I-000276J0000000D01*
G01*
G37*
G36*
G01*
X0313075Y0294713D02*
X0310004Y0294713D01*
G75*
G02*
X0309728Y0294988I0000000J0000276D01*
G01*
X0309728Y0297193D01*
G75*
G02*
X0310004Y0297469I0000276J0000000D01*
G01*
X0313075Y0297469D01*
G75*
G02*
X0313350Y0297193I0000000J-000276D01*
G01*
X0313350Y0294988D01*
G75*
G02*
X0313075Y0294713I-000276J0000000D01*
G01*
G37*
X0600012Y0330500D02*
G01*
G75*
D311*
X0554933Y0306133D02*
D03*
X0554933Y0323850D02*
D03*
D312*
X0558260Y0281681D02*
D03*
X0585622Y0281681D02*
D03*
D313*
X0569500Y0304909D02*
D03*
X0585642Y0304909D02*
D03*
D314*
X0567729Y0323020D02*
D03*
X0583477Y0323020D02*
D03*
D315*
X0590668Y0261242D02*
D03*
X0581416Y0264982D02*
D03*
D315*
X0581416Y0257502D02*
D03*
D316*
X0558581Y0251563D02*
D03*
D316*
X0558581Y0255303D02*
D03*
X0558581Y0259043D02*
D03*
X0550117Y0259043D02*
D03*
X0550117Y0251563D02*
D03*
D317*
X0546265Y0265564D02*
D03*
X0559257Y0265564D02*
D03*
D318*
X0564551Y0265276D02*
D03*
X0575969Y0265276D02*
D03*
D319*
X0545366Y0297823D02*
D03*
X0551587Y0297823D02*
D03*
X0555957Y0297823D02*
D03*
X0562177Y0297823D02*
D03*
D320*
X0596043Y0320712D02*
D03*
X0596043Y0316578D02*
D03*
X0545488Y0278838D02*
D03*
X0545488Y0274704D02*
D03*
X0545488Y0283551D02*
D03*
X0545488Y0287685D02*
D03*
X0544596Y0303200D02*
D03*
X0544596Y0307334D02*
D03*
D321*
X0563699Y0258993D02*
D03*
X0563699Y0255056D02*
D03*
X0577374Y0258091D02*
D03*
X0568713Y0258091D02*
D03*
X0577374Y0251694D02*
D03*
X0568713Y0251694D02*
D03*
D322*
X0585747Y0251563D02*
D03*
X0582203Y0251563D02*
D03*
D323*
X0549746Y0274901D02*
D03*
X0549746Y0278445D02*
D03*
X0549746Y0283945D02*
D03*
X0549746Y0287488D02*
D03*
X0544596Y0315501D02*
D03*
X0544596Y0311957D02*
D03*
D106*
X0534264Y0312390D02*
D03*
X0534264Y0316327D02*
D03*
D107*
X0597059Y0258847D02*
D03*
X0597059Y0325776D02*
D03*
X0597059Y0278335D02*
D03*
X0536036Y0278532D02*
D03*
X0536036Y0253335D02*
D03*
X0536036Y0302941D02*
D03*
X0536036Y0286012D02*
D03*
X0536036Y0327547D02*
D03*
X0597059Y0251563D02*
D03*
X0250202Y0106073D02*
G01*
G75*
D151*
X0373824Y0124163D02*
D03*
X0380911Y0124163D02*
D03*
X0380911Y0114124D02*
D03*
X0373824Y0114124D02*
D03*
X0262013Y0172904D02*
D03*
X0254926Y0172904D02*
D03*
X0254926Y0162864D02*
D03*
X0262013Y0162864D02*
D03*
X0262013Y0179006D02*
D03*
X0254926Y0179006D02*
D03*
X0254926Y0189046D02*
D03*
X0262013Y0189046D02*
D03*
D152*
X0373824Y0120719D02*
D03*
X0373824Y0117569D02*
D03*
X0380911Y0117569D02*
D03*
X0380911Y0120719D02*
D03*
X0254926Y0166309D02*
D03*
X0254926Y0169459D02*
D03*
X0262013Y0169459D02*
D03*
X0262013Y0166309D02*
D03*
X0262013Y0182451D02*
D03*
X0262013Y0185601D02*
D03*
X0254926Y0185601D02*
D03*
X0254926Y0182451D02*
D03*
D153*
X0369612Y0121167D02*
D03*
X0369612Y0123726D02*
D03*
X0369612Y0126286D02*
D03*
X0362132Y0121167D02*
D03*
X0362132Y0126286D02*
D03*
X0362132Y0123726D02*
D03*
X0362132Y0116542D02*
D03*
X0362132Y0111423D02*
D03*
X0369612Y0116542D02*
D03*
X0369612Y0113982D02*
D03*
X0369612Y0111423D02*
D03*
X0362132Y0113982D02*
D03*
D154*
X0302404Y0220443D02*
D03*
X0302404Y0218475D02*
D03*
X0302404Y0216506D02*
D03*
X0302404Y0214538D02*
D03*
X0302404Y0212569D02*
D03*
X0302404Y0210601D02*
D03*
X0302404Y0208632D02*
D03*
X0302404Y0206664D02*
D03*
X0302404Y0204695D02*
D03*
X0302404Y0200758D02*
D03*
X0302404Y0198789D02*
D03*
X0302404Y0196821D02*
D03*
X0302404Y0194852D02*
D03*
X0302404Y0192884D02*
D03*
X0302404Y0190915D02*
D03*
X0302404Y0188947D02*
D03*
X0302404Y0186978D02*
D03*
X0302404Y0185010D02*
D03*
X0302404Y0183041D02*
D03*
X0302404Y0181073D02*
D03*
X0302404Y0179105D02*
D03*
X0302404Y0177136D02*
D03*
X0302404Y0175168D02*
D03*
X0302404Y0173199D02*
D03*
X0363428Y0173199D02*
D03*
X0363428Y0175168D02*
D03*
X0363428Y0177136D02*
D03*
X0363428Y0179105D02*
D03*
X0363428Y0181073D02*
D03*
X0363428Y0183041D02*
D03*
X0363428Y0185010D02*
D03*
X0363428Y0186978D02*
D03*
X0363428Y0188947D02*
D03*
X0363428Y0190915D02*
D03*
X0363428Y0192884D02*
D03*
X0363428Y0194852D02*
D03*
X0363428Y0196821D02*
D03*
X0363428Y0198789D02*
D03*
X0363428Y0200758D02*
D03*
X0363428Y0202726D02*
D03*
X0363428Y0204695D02*
D03*
X0363428Y0206664D02*
D03*
X0363428Y0208632D02*
D03*
X0363428Y0210601D02*
D03*
X0363428Y0212569D02*
D03*
X0363428Y0214538D02*
D03*
X0363428Y0216506D02*
D03*
X0363428Y0220443D02*
D03*
X0302404Y0202726D02*
D03*
X0363428Y0218475D02*
D03*
D155*
X0309294Y0166309D02*
D03*
X0313231Y0166309D02*
D03*
X0315200Y0166309D02*
D03*
X0317168Y0166309D02*
D03*
X0319137Y0166309D02*
D03*
X0321105Y0166309D02*
D03*
X0323074Y0166309D02*
D03*
X0325042Y0166309D02*
D03*
X0327011Y0166309D02*
D03*
X0328979Y0166309D02*
D03*
X0330948Y0166309D02*
D03*
X0332916Y0166309D02*
D03*
X0334885Y0166309D02*
D03*
X0336853Y0166309D02*
D03*
X0338822Y0166309D02*
D03*
X0340790Y0166309D02*
D03*
X0342759Y0166309D02*
D03*
X0344727Y0166309D02*
D03*
X0346696Y0166309D02*
D03*
X0348664Y0166309D02*
D03*
X0350633Y0166309D02*
D03*
X0352601Y0166309D02*
D03*
X0354570Y0166309D02*
D03*
X0356538Y0166309D02*
D03*
X0356538Y0227333D02*
D03*
X0354570Y0227333D02*
D03*
X0352601Y0227333D02*
D03*
X0350633Y0227333D02*
D03*
X0348664Y0227333D02*
D03*
X0346696Y0227333D02*
D03*
X0344727Y0227333D02*
D03*
X0342759Y0227333D02*
D03*
X0340790Y0227333D02*
D03*
X0338822Y0227333D02*
D03*
X0336853Y0227333D02*
D03*
X0334885Y0227333D02*
D03*
X0332916Y0227333D02*
D03*
X0330948Y0227333D02*
D03*
X0328979Y0227333D02*
D03*
X0327011Y0227333D02*
D03*
X0325042Y0227333D02*
D03*
X0323074Y0227333D02*
D03*
X0321105Y0227333D02*
D03*
X0319137Y0227333D02*
D03*
X0317168Y0227333D02*
D03*
X0315200Y0227333D02*
D03*
X0313231Y0227333D02*
D03*
X0311263Y0227333D02*
D03*
X0309294Y0227333D02*
D03*
X0311263Y0166309D02*
D03*
D156*
X0305911Y0149380D02*
D03*
X0333863Y0149380D02*
D03*
X0277958Y0149380D02*
D03*
X0283470Y0144262D02*
D03*
X0311423Y0154498D02*
D03*
X0311423Y0151939D02*
D03*
X0311423Y0149380D02*
D03*
X0311423Y0146821D02*
D03*
X0311423Y0144262D02*
D03*
X0311423Y0141703D02*
D03*
X0311423Y0139144D02*
D03*
X0333863Y0154498D02*
D03*
X0333863Y0151939D02*
D03*
X0333863Y0146821D02*
D03*
X0333863Y0144262D02*
D03*
X0333863Y0141703D02*
D03*
X0333863Y0139144D02*
D03*
X0255517Y0154498D02*
D03*
X0255517Y0151939D02*
D03*
X0255517Y0149380D02*
D03*
X0255517Y0146821D02*
D03*
X0255517Y0144262D02*
D03*
X0255517Y0141703D02*
D03*
X0255517Y0139144D02*
D03*
X0277958Y0154498D02*
D03*
X0277958Y0151939D02*
D03*
X0277958Y0146821D02*
D03*
X0277958Y0144262D02*
D03*
X0277958Y0141703D02*
D03*
X0277958Y0139144D02*
D03*
X0283470Y0154498D02*
D03*
X0283470Y0151939D02*
D03*
X0283470Y0149380D02*
D03*
X0283470Y0146821D02*
D03*
X0283470Y0141703D02*
D03*
X0283470Y0139144D02*
D03*
X0305911Y0154498D02*
D03*
X0305911Y0151939D02*
D03*
X0305911Y0146821D02*
D03*
X0305911Y0144262D02*
D03*
X0305911Y0141703D02*
D03*
X0305911Y0139144D02*
D03*
X0361816Y0139144D02*
D03*
X0361816Y0141703D02*
D03*
X0361816Y0144262D02*
D03*
X0361816Y0146821D02*
D03*
X0361816Y0149380D02*
D03*
X0361816Y0151939D02*
D03*
X0361816Y0154498D02*
D03*
X0339375Y0139144D02*
D03*
X0339375Y0141703D02*
D03*
X0339375Y0144262D02*
D03*
X0339375Y0146821D02*
D03*
X0339375Y0149380D02*
D03*
X0339375Y0151939D02*
D03*
X0339375Y0154498D02*
D03*
D157*
X0360320Y0240266D02*
D03*
X0360320Y0235266D02*
D03*
X0355320Y0240266D02*
D03*
X0355320Y0235266D02*
D03*
X0350320Y0240266D02*
D03*
X0350320Y0235266D02*
D03*
D158*
X0374611Y0241506D02*
D03*
X0378352Y0241506D02*
D03*
X0370871Y0241506D02*
D03*
X0370871Y0232057D02*
D03*
X0374611Y0232057D02*
D03*
X0378352Y0232057D02*
D03*
D159*
X0376061Y0220246D02*
D03*
X0376061Y0224971D02*
D03*
X0374592Y0210699D02*
D03*
X0288052Y0237484D02*
D03*
X0301364Y0161618D02*
D03*
X0372125Y0220246D02*
D03*
X0378530Y0210699D02*
D03*
X0373230Y0173715D02*
D03*
X0377167Y0173715D02*
D03*
X0373230Y0164660D02*
D03*
X0377167Y0164660D02*
D03*
X0372125Y0224971D02*
D03*
X0291989Y0237484D02*
D03*
X0284912Y0220769D02*
D03*
X0288849Y0220769D02*
D03*
X0305301Y0161618D02*
D03*
X0305320Y0165914D02*
D03*
X0301383Y0165914D02*
D03*
D160*
X0378518Y0202064D02*
D03*
X0378518Y0200096D02*
D03*
X0372219Y0204033D02*
D03*
X0372219Y0202064D02*
D03*
X0372219Y0206001D02*
D03*
X0372219Y0200096D02*
D03*
X0378518Y0206001D02*
D03*
X0378518Y0204033D02*
D03*
D161*
X0376353Y0199899D02*
D03*
X0374384Y0199899D02*
D03*
X0374384Y0206198D02*
D03*
X0376353Y0206198D02*
D03*
D162*
X0373613Y0195049D02*
D03*
X0373613Y0178514D02*
D03*
D163*
X0345084Y0122608D02*
D03*
X0354533Y0122608D02*
D03*
X0349808Y0122608D02*
D03*
X0340360Y0122608D02*
D03*
X0354533Y0111191D02*
D03*
X0345084Y0111191D02*
D03*
X0349808Y0111191D02*
D03*
X0340360Y0111191D02*
D03*
X0334150Y0129588D02*
D03*
X0334150Y0133525D02*
D03*
X0340360Y0115128D02*
D03*
D03*
X0340360Y0119065D02*
D03*
X0345084Y0115128D02*
D03*
X0345084Y0119065D02*
D03*
X0340360Y0126545D02*
D03*
X0349808Y0115128D02*
D03*
X0349808Y0119065D02*
D03*
X0345084Y0126545D02*
D03*
X0349808Y0126545D02*
D03*
X0354533Y0115128D02*
D03*
X0354533Y0119065D02*
D03*
X0354533Y0115128D02*
D03*
X0354533Y0126545D02*
D03*
X0345084Y0115128D02*
D03*
X0349808Y0115128D02*
D03*
X0254336Y0117490D02*
D03*
X0254336Y0113553D02*
D03*
X0278942Y0115128D02*
D03*
X0278942Y0111191D02*
D03*
X0293115Y0115128D02*
D03*
X0293115Y0111191D02*
D03*
X0312013Y0119065D02*
D03*
X0312013Y0115128D02*
D03*
X0312013Y0111191D02*
D03*
X0312013Y0115128D02*
D03*
X0326186Y0119065D02*
D03*
X0326186Y0115128D02*
D03*
X0254336Y0134223D02*
D03*
X0254336Y0130286D02*
D03*
X0260045Y0115128D02*
D03*
X0260045Y0119065D02*
D03*
X0264769Y0115128D02*
D03*
X0264769Y0119065D02*
D03*
X0269493Y0115128D02*
D03*
X0269493Y0119065D02*
D03*
X0274218Y0115128D02*
D03*
X0274218Y0119065D02*
D03*
X0260045Y0115128D02*
D03*
X0260045Y0111191D02*
D03*
X0264769Y0115128D02*
D03*
X0264769Y0111191D02*
D03*
X0269493Y0115128D02*
D03*
X0269493Y0111191D02*
D03*
X0274218Y0115128D02*
D03*
X0274218Y0111191D02*
D03*
X0278942Y0115128D02*
D03*
X0278942Y0119065D02*
D03*
X0283667Y0115128D02*
D03*
X0283667Y0119065D02*
D03*
X0288391Y0115128D02*
D03*
X0288391Y0119065D02*
D03*
X0293115Y0115128D02*
D03*
X0293115Y0119065D02*
D03*
X0283667Y0115128D02*
D03*
X0283667Y0111191D02*
D03*
X0288391Y0115128D02*
D03*
X0288391Y0111191D02*
D03*
X0297840Y0119065D02*
D03*
X0297840Y0115128D02*
D03*
X0302564Y0119065D02*
D03*
X0302564Y0115128D02*
D03*
X0307289Y0119065D02*
D03*
X0307289Y0115128D02*
D03*
X0297840Y0111191D02*
D03*
X0297840Y0115128D02*
D03*
X0302564Y0111191D02*
D03*
X0302564Y0115128D02*
D03*
X0307289Y0111191D02*
D03*
X0307289Y0115128D02*
D03*
X0316738Y0119065D02*
D03*
X0316738Y0115128D02*
D03*
X0321462Y0119065D02*
D03*
X0321462Y0115128D02*
D03*
X0330911Y0119065D02*
D03*
X0330911Y0115128D02*
D03*
X0316738Y0111191D02*
D03*
X0316738Y0115128D02*
D03*
X0321462Y0111191D02*
D03*
X0321462Y0115128D02*
D03*
X0326186Y0111191D02*
D03*
X0326186Y0115128D02*
D03*
X0330911Y0111191D02*
D03*
X0330911Y0115128D02*
D03*
X0254336Y0125167D02*
D03*
X0254336Y0121230D02*
D03*
D164*
X0319100Y0128120D02*
D03*
X0300202Y0128120D02*
D03*
X0281304Y0128120D02*
D03*
X0262407Y0128120D02*
D03*
X0290753Y0131860D02*
D03*
X0290753Y0128120D02*
D03*
X0290753Y0124380D02*
D03*
X0281304Y0124380D02*
D03*
X0281304Y0131860D02*
D03*
X0271856Y0131860D02*
D03*
X0271856Y0128120D02*
D03*
X0271856Y0124380D02*
D03*
X0262407Y0124380D02*
D03*
X0262407Y0131860D02*
D03*
X0309651Y0131860D02*
D03*
X0309651Y0128120D02*
D03*
X0309651Y0124380D02*
D03*
X0300202Y0124380D02*
D03*
X0300202Y0131860D02*
D03*
X0328549Y0131860D02*
D03*
X0328549Y0128120D02*
D03*
X0328549Y0124380D02*
D03*
X0319100Y0124380D02*
D03*
X0319100Y0131860D02*
D03*
D165*
X0285115Y0225155D02*
D03*
X0303037Y0235404D02*
D03*
D166*
X0275793Y0200032D02*
D03*
X0256895Y0195032D02*
D03*
X0256895Y0210032D02*
D03*
X0256895Y0205032D02*
D03*
X0256895Y0200032D02*
D03*
X0275793Y0210032D02*
D03*
X0275793Y0205032D02*
D03*
X0275793Y0195032D02*
D03*
D167*
X0257485Y0217673D02*
D03*
X0275596Y0217673D02*
D03*
D168*
X0291947Y0186147D02*
D03*
X0275738Y0185599D02*
D03*
X0292424Y0177987D02*
D03*
X0292424Y0170376D02*
D03*
X0275738Y0177987D02*
D03*
X0275738Y0170376D02*
D03*
X0292424Y0162764D02*
D03*
X0275738Y0162764D02*
D03*
X0285254Y0186147D02*
D03*
X0285731Y0177987D02*
D03*
X0285731Y0170376D02*
D03*
X0285731Y0162764D02*
D03*
X0269045Y0177987D02*
D03*
X0269045Y0185599D02*
D03*
X0285254Y0194124D02*
D03*
X0291947Y0194124D02*
D03*
X0291947Y0201211D02*
D03*
X0285254Y0201211D02*
D03*
X0285254Y0208297D02*
D03*
X0291947Y0208297D02*
D03*
X0291947Y0215384D02*
D03*
X0285254Y0215384D02*
D03*
X0269045Y0170376D02*
D03*
X0269045Y0162764D02*
D03*
X0291947Y0242884D02*
D03*
X0285254Y0242884D02*
D03*
D169*
X0378621Y0215471D02*
D03*
X0372321Y0215471D02*
D03*
X0371261Y0169030D02*
D03*
X0377561Y0169030D02*
D03*
D170*
X0337996Y0238413D02*
D03*
X0321461Y0238413D02*
D03*
D165*
X0303037Y0242884D02*
D03*
X0312289Y0239144D02*
D03*
X0285115Y0232635D02*
D03*
X0294367Y0228895D02*
D03*
D171*
X0266541Y0242083D02*
D03*
D172*
X0266541Y0217673D02*
D03*
D173*
X0335832Y0115128D02*
D03*
X0254926Y0109223D02*
D03*
D174*
X0373023Y0132870D02*
D03*
X0373023Y0150586D02*
D03*
D175*
X0328115Y0160207D02*
D03*
X0342328Y0160207D02*
D03*
X0312328Y0160207D02*
D03*
D176*
X0365320Y0237766D02*
D03*
X0345320Y0233766D02*
D03*
X0345320Y0241766D02*
D03*
D12*
X0254533Y0243475D02*
D03*
X0488939Y0203505D02*
G01*
G75*
D216*
X0445632Y0202422D02*
D03*
D217*
X0486380Y0202225D02*
D03*
X0484411Y0202225D02*
D03*
D344*
X0477522Y0190493D02*
D03*
X0481262Y0199745D02*
D03*
D344*
X0485002Y0190493D02*
D03*
D219*
X0469963Y0178879D02*
D03*
X0469963Y0183879D02*
D03*
X0469963Y0188879D02*
D03*
X0469963Y0193879D02*
D03*
X0451065Y0178879D02*
D03*
X0451065Y0183879D02*
D03*
X0451065Y0188879D02*
D03*
X0451065Y0193879D02*
D03*
D319*
X0454254Y0199174D02*
D03*
X0448034Y0199174D02*
D03*
X0462600Y0199174D02*
D03*
X0468821Y0199174D02*
D03*
D345*
X0484412Y0185592D02*
D03*
X0478112Y0185592D02*
D03*
D106*
X0473782Y0201635D02*
D03*
X0457738Y0179096D02*
D03*
X0457443Y0193072D02*
D03*
X0458624Y0198092D02*
D03*
X0462069Y0196025D02*
D03*
X0162776Y0221083D02*
%LPD*%
G01*
G36*
G01*
X0198485Y0153475D02*
X0198485Y0154833D01*
G75*
G02*
X0199065Y0155414I0000581J0000000D01*
G01*
X0200227Y0155414D01*
G75*
G02*
X0200807Y0154833I0000000J-000581D01*
G01*
X0200807Y0153475D01*
G75*
G02*
X0200227Y0152894I-000581J0000000D01*
G01*
X0199065Y0152894D01*
G75*
G02*
X0198485Y0153475I0000000J0000581D01*
G01*
G37*
G36*
G01*
X0202304Y0153475D02*
X0202304Y0154833D01*
G75*
G02*
X0202884Y0155414I0000581J0000000D01*
G01*
X0204046Y0155414D01*
G75*
G02*
X0204626Y0154833I0000000J-000581D01*
G01*
X0204626Y0153475D01*
G75*
G02*
X0204046Y0152894I-000581J0000000D01*
G01*
X0202884Y0152894D01*
G75*
G02*
X0202304Y0153475I0000000J0000581D01*
G01*
G37*
G36*
G01*
X0183061Y0212048D02*
X0184420Y0212048D01*
G75*
G02*
X0185000Y0211467I0000000J-000581D01*
G01*
X0185000Y0210305D01*
G75*
G02*
X0184420Y0209725I-000581J0000000D01*
G01*
X0183061Y0209725D01*
G75*
G02*
X0182481Y0210305I0000000J0000581D01*
G01*
X0182481Y0211467D01*
G75*
G02*
X0183061Y0212048I0000581J0000000D01*
G01*
G37*
G36*
G01*
X0183061Y0208229D02*
X0184420Y0208229D01*
G75*
G02*
X0185000Y0207648I0000000J-000581D01*
G01*
X0185000Y0206487D01*
G75*
G02*
X0184420Y0205906I-000581J0000000D01*
G01*
X0183061Y0205906D01*
G75*
G02*
X0182481Y0206487I0000000J0000581D01*
G01*
X0182481Y0207648D01*
G75*
G02*
X0183061Y0208229I0000581J0000000D01*
G01*
G37*
G36*
G01*
X0198258Y0201521D02*
X0198258Y0199503D01*
G75*
G02*
X0197397Y0198642I-000861J0000000D01*
G01*
X0195675Y0198642D01*
G75*
G02*
X0194813Y0199503I0000000J0000861D01*
G01*
X0194813Y0201521D01*
G75*
G02*
X0195675Y0202382I0000861J0000000D01*
G01*
X0197397Y0202382D01*
G75*
G02*
X0198258Y0201521I0000000J-000861D01*
G01*
G37*
G36*
G01*
X0192057Y0201521D02*
X0192057Y0199503D01*
G75*
G02*
X0191196Y0198642I-000861J0000000D01*
G01*
X0189474Y0198642D01*
G75*
G02*
X0188613Y0199503I0000000J0000861D01*
G01*
X0188613Y0201521D01*
G75*
G02*
X0189474Y0202382I0000861J0000000D01*
G01*
X0191196Y0202382D01*
G75*
G02*
X0192057Y0201521I0000000J-000861D01*
G01*
G37*
G36*
G01*
X0173229Y0155030D02*
X0173229Y0153672D01*
G75*
G02*
X0172648Y0153091I-000581J0000000D01*
G01*
X0171487Y0153091D01*
G75*
G02*
X0170906Y0153672I0000000J0000581D01*
G01*
X0170906Y0155030D01*
G75*
G02*
X0171487Y0155611I0000581J0000000D01*
G01*
X0172648Y0155611D01*
G75*
G02*
X0173229Y0155030I0000000J-000581D01*
G01*
G37*
G36*
G01*
X0169410Y0155030D02*
X0169410Y0153672D01*
G75*
G02*
X0168829Y0153091I-000581J0000000D01*
G01*
X0167668Y0153091D01*
G75*
G02*
X0167087Y0153672I0000000J0000581D01*
G01*
X0167087Y0155030D01*
G75*
G02*
X0167668Y0155611I0000581J0000000D01*
G01*
X0168829Y0155611D01*
G75*
G02*
X0169410Y0155030I0000000J-000581D01*
G01*
G37*
D225*
X0189056Y0206221D03*
X0196536Y0206221D03*
X0192796Y0214095D03*
G36*
G01*
X0173229Y0159213D02*
X0173229Y0157855D01*
G75*
G02*
X0172648Y0157274I-000581J0000000D01*
G01*
X0171487Y0157274D01*
G75*
G02*
X0170906Y0157855I0000000J0000581D01*
G01*
X0170906Y0159213D01*
G75*
G02*
X0171487Y0159794I0000581J0000000D01*
G01*
X0172648Y0159794D01*
G75*
G02*
X0173229Y0159213I0000000J-000581D01*
G01*
G37*
G36*
G01*
X0169410Y0159213D02*
X0169410Y0157855D01*
G75*
G02*
X0168829Y0157274I-000581J0000000D01*
G01*
X0167668Y0157274D01*
G75*
G02*
X0167087Y0157855I0000000J0000581D01*
G01*
X0167087Y0159213D01*
G75*
G02*
X0167668Y0159794I0000581J0000000D01*
G01*
X0168829Y0159794D01*
G75*
G02*
X0169410Y0159213I0000000J-000581D01*
G01*
G37*
G36*
G01*
X0197146Y0154833D02*
X0197146Y0153475D01*
G75*
G02*
X0196565Y0152894I-000581J0000000D01*
G01*
X0195404Y0152894D01*
G75*
G02*
X0194823Y0153475I0000000J0000581D01*
G01*
X0194823Y0154833D01*
G75*
G02*
X0195404Y0155414I0000581J0000000D01*
G01*
X0196565Y0155414D01*
G75*
G02*
X0197146Y0154833I0000000J-000581D01*
G01*
G37*
G36*
G01*
X0193327Y0154833D02*
X0193327Y0153475D01*
G75*
G02*
X0192746Y0152894I-000581J0000000D01*
G01*
X0191585Y0152894D01*
G75*
G02*
X0191004Y0153475I0000000J0000581D01*
G01*
X0191004Y0154833D01*
G75*
G02*
X0191585Y0155414I0000581J0000000D01*
G01*
X0192746Y0155414D01*
G75*
G02*
X0193327Y0154833I0000000J-000581D01*
G01*
G37*
G36*
G01*
X0209410Y0158593D02*
X0209410Y0159951D01*
G75*
G02*
X0209991Y0160532I0000581J0000000D01*
G01*
X0211152Y0160532D01*
G75*
G02*
X0211733Y0159951I0000000J-000581D01*
G01*
X0211733Y0158593D01*
G75*
G02*
X0211152Y0158012I-000581J0000000D01*
G01*
X0209991Y0158012D01*
G75*
G02*
X0209410Y0158593I0000000J0000581D01*
G01*
G37*
G36*
G01*
X0213229Y0158593D02*
X0213229Y0159951D01*
G75*
G02*
X0213809Y0160532I0000581J0000000D01*
G01*
X0214971Y0160532D01*
G75*
G02*
X0215552Y0159951I0000000J-000581D01*
G01*
X0215552Y0158593D01*
G75*
G02*
X0214971Y0158012I-000581J0000000D01*
G01*
X0213809Y0158012D01*
G75*
G02*
X0213229Y0158593I0000000J0000581D01*
G01*
G37*
G36*
G01*
X0182638Y0153475D02*
X0182638Y0154833D01*
G75*
G02*
X0183219Y0155414I0000581J0000000D01*
G01*
X0184380Y0155414D01*
G75*
G02*
X0184961Y0154833I0000000J-000581D01*
G01*
X0184961Y0153475D01*
G75*
G02*
X0184380Y0152894I-000581J0000000D01*
G01*
X0183219Y0152894D01*
G75*
G02*
X0182638Y0153475I0000000J0000581D01*
G01*
G37*
G36*
G01*
X0186457Y0153475D02*
X0186457Y0154833D01*
G75*
G02*
X0187038Y0155414I0000581J0000000D01*
G01*
X0188199Y0155414D01*
G75*
G02*
X0188780Y0154833I0000000J-000581D01*
G01*
X0188780Y0153475D01*
G75*
G02*
X0188199Y0152894I-000581J0000000D01*
G01*
X0187038Y0152894D01*
G75*
G02*
X0186457Y0153475I0000000J0000581D01*
G01*
G37*
G36*
G01*
X0209410Y0193239D02*
X0209410Y0194597D01*
G75*
G02*
X0209991Y0195177I0000581J0000000D01*
G01*
X0211152Y0195177D01*
G75*
G02*
X0211733Y0194597I0000000J-000581D01*
G01*
X0211733Y0193239D01*
G75*
G02*
X0211152Y0192658I-000581J0000000D01*
G01*
X0209991Y0192658D01*
G75*
G02*
X0209410Y0193239I0000000J0000581D01*
G01*
G37*
G36*
G01*
X0213229Y0193239D02*
X0213229Y0194597D01*
G75*
G02*
X0213809Y0195177I0000581J0000000D01*
G01*
X0214971Y0195177D01*
G75*
G02*
X0215552Y0194597I0000000J-000581D01*
G01*
X0215552Y0193239D01*
G75*
G02*
X0214971Y0192658I-000581J0000000D01*
G01*
X0213809Y0192658D01*
G75*
G02*
X0213229Y0193239I0000000J0000581D01*
G01*
G37*
D346*
X0202737Y0128800D03*
D223*
X0174390Y0129902D03*
X0186201Y0137776D03*
X0174390Y0145650D03*
D347*
X0177933Y0137776D03*
D346*
X0202737Y0146752D03*
G36*
G01*
X0182963Y0204272D02*
X0184321Y0204272D01*
G75*
G02*
X0184902Y0203691I0000000J-000581D01*
G01*
X0184902Y0202530D01*
G75*
G02*
X0184321Y0201949I-000581J0000000D01*
G01*
X0182963Y0201949D01*
G75*
G02*
X0182382Y0202530I0000000J0000581D01*
G01*
X0182382Y0203691D01*
G75*
G02*
X0182963Y0204272I0000581J0000000D01*
G01*
G37*
G36*
G01*
X0182963Y0200453D02*
X0184321Y0200453D01*
G75*
G02*
X0184902Y0199872I0000000J-000581D01*
G01*
X0184902Y0198711D01*
G75*
G02*
X0184321Y0198130I-000581J0000000D01*
G01*
X0182963Y0198130D01*
G75*
G02*
X0182382Y0198711I0000000J0000581D01*
G01*
X0182382Y0199872D01*
G75*
G02*
X0182963Y0200453I0000581J0000000D01*
G01*
G37*
G36*
G01*
X0169297Y0165768D02*
X0167279Y0165768D01*
G75*
G02*
X0166418Y0166629I0000000J0000861D01*
G01*
X0166418Y0168352D01*
G75*
G02*
X0167279Y0169213I0000861J0000000D01*
G01*
X0169297Y0169213D01*
G75*
G02*
X0170158Y0168352I0000000J-000861D01*
G01*
X0170158Y0166629D01*
G75*
G02*
X0169297Y0165768I-000861J0000000D01*
G01*
G37*
G36*
G01*
X0169297Y0171969D02*
X0167279Y0171969D01*
G75*
G02*
X0166418Y0172830I0000000J0000861D01*
G01*
X0166418Y0174552D01*
G75*
G02*
X0167279Y0175414I0000861J0000000D01*
G01*
X0169297Y0175414D01*
G75*
G02*
X0170158Y0174552I0000000J-000861D01*
G01*
X0170158Y0172830D01*
G75*
G02*
X0169297Y0171969I-000861J0000000D01*
G01*
G37*
G36*
G01*
X0173229Y0163396D02*
X0173229Y0162038D01*
G75*
G02*
X0172648Y0161457I-000581J0000000D01*
G01*
X0171487Y0161457D01*
G75*
G02*
X0170906Y0162038I0000000J0000581D01*
G01*
X0170906Y0163396D01*
G75*
G02*
X0171487Y0163977I0000581J0000000D01*
G01*
X0172648Y0163977D01*
G75*
G02*
X0173229Y0163396I0000000J-000581D01*
G01*
G37*
G36*
G01*
X0169410Y0163396D02*
X0169410Y0162038D01*
G75*
G02*
X0168829Y0161457I-000581J0000000D01*
G01*
X0167668Y0161457D01*
G75*
G02*
X0167087Y0162038I0000000J0000581D01*
G01*
X0167087Y0163396D01*
G75*
G02*
X0167668Y0163977I0000581J0000000D01*
G01*
X0168829Y0163977D01*
G75*
G02*
X0169410Y0163396I0000000J-000581D01*
G01*
G37*
G36*
G01*
X0168682Y0119287D02*
X0168682Y0121304D01*
G75*
G02*
X0169543Y0122166I0000861J0000000D01*
G01*
X0171265Y0122166D01*
G75*
G02*
X0172126Y0121304I0000000J-000861D01*
G01*
X0172126Y0119287D01*
G75*
G02*
X0171265Y0118426I-000861J0000000D01*
G01*
X0169543Y0118426D01*
G75*
G02*
X0168682Y0119287I0000000J0000861D01*
G01*
G37*
G36*
G01*
X0174882Y0119287D02*
X0174882Y0121304D01*
G75*
G02*
X0175744Y0122166I0000861J0000000D01*
G01*
X0177466Y0122166D01*
G75*
G02*
X0178327Y0121304I0000000J-000861D01*
G01*
X0178327Y0119287D01*
G75*
G02*
X0177466Y0118426I-000861J0000000D01*
G01*
X0175744Y0118426D01*
G75*
G02*
X0174882Y0119287I0000000J0000861D01*
G01*
G37*
G36*
G01*
X0167279Y0187126D02*
X0169297Y0187126D01*
G75*
G02*
X0170158Y0186265I0000000J-000861D01*
G01*
X0170158Y0184543D01*
G75*
G02*
X0169297Y0183681I-000861J0000000D01*
G01*
X0167279Y0183681D01*
G75*
G02*
X0166418Y0184543I0000000J0000861D01*
G01*
X0166418Y0186265D01*
G75*
G02*
X0167279Y0187126I0000861J0000000D01*
G01*
G37*
G36*
G01*
X0167279Y0180926D02*
X0169297Y0180926D01*
G75*
G02*
X0170158Y0180064I0000000J-000861D01*
G01*
X0170158Y0178342D01*
G75*
G02*
X0169297Y0177481I-000861J0000000D01*
G01*
X0167279Y0177481D01*
G75*
G02*
X0166418Y0178342I0000000J0000861D01*
G01*
X0166418Y0180064D01*
G75*
G02*
X0167279Y0180926I0000861J0000000D01*
G01*
G37*
G36*
G01*
X0171457Y0191447D02*
X0171457Y0190089D01*
G75*
G02*
X0170876Y0189508I-000581J0000000D01*
G01*
X0169715Y0189508D01*
G75*
G02*
X0169134Y0190089I0000000J0000581D01*
G01*
X0169134Y0191447D01*
G75*
G02*
X0169715Y0192028I0000581J0000000D01*
G01*
X0170876Y0192028D01*
G75*
G02*
X0171457Y0191447I0000000J-000581D01*
G01*
G37*
G36*
G01*
X0167638Y0191447D02*
X0167638Y0190089D01*
G75*
G02*
X0167057Y0189508I-000581J0000000D01*
G01*
X0165896Y0189508D01*
G75*
G02*
X0165315Y0190089I0000000J0000581D01*
G01*
X0165315Y0191447D01*
G75*
G02*
X0165896Y0192028I0000581J0000000D01*
G01*
X0167057Y0192028D01*
G75*
G02*
X0167638Y0191447I0000000J-000581D01*
G01*
G37*
G36*
G01*
X0184134Y0157008D02*
X0183150Y0157008D01*
G75*
G02*
X0182658Y0157500I0000000J0000492D01*
G01*
X0182658Y0162422D01*
G75*
G02*
X0183150Y0162914I0000492J0000000D01*
G01*
X0184134Y0162914D01*
G75*
G02*
X0184626Y0162422I0000000J-000492D01*
G01*
X0184626Y0157500D01*
G75*
G02*
X0184134Y0157008I-000492J0000000D01*
G01*
G37*
G36*
G01*
X0187284Y0157008D02*
X0186300Y0157008D01*
G75*
G02*
X0185807Y0157500I0000000J0000492D01*
G01*
X0185807Y0162422D01*
G75*
G02*
X0186300Y0162914I0000492J0000000D01*
G01*
X0187284Y0162914D01*
G75*
G02*
X0187776Y0162422I0000000J-000492D01*
G01*
X0187776Y0157500D01*
G75*
G02*
X0187284Y0157008I-000492J0000000D01*
G01*
G37*
G36*
G01*
X0190433Y0157008D02*
X0189449Y0157008D01*
G75*
G02*
X0188957Y0157500I0000000J0000492D01*
G01*
X0188957Y0162422D01*
G75*
G02*
X0189449Y0162914I0000492J0000000D01*
G01*
X0190433Y0162914D01*
G75*
G02*
X0190926Y0162422I0000000J-000492D01*
G01*
X0190926Y0157500D01*
G75*
G02*
X0190433Y0157008I-000492J0000000D01*
G01*
G37*
G36*
G01*
X0193583Y0157008D02*
X0192599Y0157008D01*
G75*
G02*
X0192107Y0157500I0000000J0000492D01*
G01*
X0192107Y0162422D01*
G75*
G02*
X0192599Y0162914I0000492J0000000D01*
G01*
X0193583Y0162914D01*
G75*
G02*
X0194075Y0162422I0000000J-000492D01*
G01*
X0194075Y0157500D01*
G75*
G02*
X0193583Y0157008I-000492J0000000D01*
G01*
G37*
G36*
G01*
X0196733Y0157008D02*
X0195748Y0157008D01*
G75*
G02*
X0195256Y0157500I0000000J0000492D01*
G01*
X0195256Y0162422D01*
G75*
G02*
X0195748Y0162914I0000492J0000000D01*
G01*
X0196733Y0162914D01*
G75*
G02*
X0197225Y0162422I0000000J-000492D01*
G01*
X0197225Y0157500D01*
G75*
G02*
X0196733Y0157008I-000492J0000000D01*
G01*
G37*
G36*
G01*
X0199882Y0157008D02*
X0198898Y0157008D01*
G75*
G02*
X0198406Y0157500I0000000J0000492D01*
G01*
X0198406Y0162422D01*
G75*
G02*
X0198898Y0162914I0000492J0000000D01*
G01*
X0199882Y0162914D01*
G75*
G02*
X0200374Y0162422I0000000J-000492D01*
G01*
X0200374Y0157500D01*
G75*
G02*
X0199882Y0157008I-000492J0000000D01*
G01*
G37*
G36*
G01*
X0203032Y0157008D02*
X0202048Y0157008D01*
G75*
G02*
X0201556Y0157500I0000000J0000492D01*
G01*
X0201556Y0162422D01*
G75*
G02*
X0202048Y0162914I0000492J0000000D01*
G01*
X0203032Y0162914D01*
G75*
G02*
X0203524Y0162422I0000000J-000492D01*
G01*
X0203524Y0157500D01*
G75*
G02*
X0203032Y0157008I-000492J0000000D01*
G01*
G37*
G36*
G01*
X0206182Y0157008D02*
X0205197Y0157008D01*
G75*
G02*
X0204705Y0157500I0000000J0000492D01*
G01*
X0204705Y0162422D01*
G75*
G02*
X0205197Y0162914I0000492J0000000D01*
G01*
X0206182Y0162914D01*
G75*
G02*
X0206674Y0162422I0000000J-000492D01*
G01*
X0206674Y0157500D01*
G75*
G02*
X0206182Y0157008I-000492J0000000D01*
G01*
G37*
G36*
G01*
X0213563Y0164390D02*
X0208642Y0164390D01*
G75*
G02*
X0208150Y0164882I0000000J0000492D01*
G01*
X0208150Y0165866D01*
G75*
G02*
X0208642Y0166359I0000492J0000000D01*
G01*
X0213563Y0166359D01*
G75*
G02*
X0214056Y0165866I0000000J-000492D01*
G01*
X0214056Y0164882D01*
G75*
G02*
X0213563Y0164390I-000492J0000000D01*
G01*
G37*
G36*
G01*
X0213563Y0167540D02*
X0208642Y0167540D01*
G75*
G02*
X0208150Y0168032I0000000J0000492D01*
G01*
X0208150Y0169016D01*
G75*
G02*
X0208642Y0169508I0000492J0000000D01*
G01*
X0213563Y0169508D01*
G75*
G02*
X0214056Y0169016I0000000J-000492D01*
G01*
X0214056Y0168032D01*
G75*
G02*
X0213563Y0167540I-000492J0000000D01*
G01*
G37*
G36*
G01*
X0213563Y0170689D02*
X0208642Y0170689D01*
G75*
G02*
X0208150Y0171181I0000000J0000492D01*
G01*
X0208150Y0172166D01*
G75*
G02*
X0208642Y0172658I0000492J0000000D01*
G01*
X0213563Y0172658D01*
G75*
G02*
X0214056Y0172166I0000000J-000492D01*
G01*
X0214056Y0171181D01*
G75*
G02*
X0213563Y0170689I-000492J0000000D01*
G01*
G37*
G36*
G01*
X0213563Y0173839D02*
X0208642Y0173839D01*
G75*
G02*
X0208150Y0174331I0000000J0000492D01*
G01*
X0208150Y0175315D01*
G75*
G02*
X0208642Y0175807I0000492J0000000D01*
G01*
X0213563Y0175807D01*
G75*
G02*
X0214056Y0175315I0000000J-000492D01*
G01*
X0214056Y0174331D01*
G75*
G02*
X0213563Y0173839I-000492J0000000D01*
G01*
G37*
G36*
G01*
X0213563Y0176989D02*
X0208642Y0176989D01*
G75*
G02*
X0208150Y0177481I0000000J0000492D01*
G01*
X0208150Y0178465D01*
G75*
G02*
X0208642Y0178957I0000492J0000000D01*
G01*
X0213563Y0178957D01*
G75*
G02*
X0214056Y0178465I0000000J-000492D01*
G01*
X0214056Y0177481D01*
G75*
G02*
X0213563Y0176989I-000492J0000000D01*
G01*
G37*
G36*
G01*
X0213563Y0180138D02*
X0208642Y0180138D01*
G75*
G02*
X0208150Y0180630I0000000J0000492D01*
G01*
X0208150Y0181614D01*
G75*
G02*
X0208642Y0182107I0000492J0000000D01*
G01*
X0213563Y0182107D01*
G75*
G02*
X0214056Y0181614I0000000J-000492D01*
G01*
X0214056Y0180630D01*
G75*
G02*
X0213563Y0180138I-000492J0000000D01*
G01*
G37*
G36*
G01*
X0213563Y0183288D02*
X0208642Y0183288D01*
G75*
G02*
X0208150Y0183780I0000000J0000492D01*
G01*
X0208150Y0184764D01*
G75*
G02*
X0208642Y0185256I0000492J0000000D01*
G01*
X0213563Y0185256D01*
G75*
G02*
X0214056Y0184764I0000000J-000492D01*
G01*
X0214056Y0183780D01*
G75*
G02*
X0213563Y0183288I-000492J0000000D01*
G01*
G37*
G36*
G01*
X0213563Y0186437D02*
X0208642Y0186437D01*
G75*
G02*
X0208150Y0186929I0000000J0000492D01*
G01*
X0208150Y0187914D01*
G75*
G02*
X0208642Y0188406I0000492J0000000D01*
G01*
X0213563Y0188406D01*
G75*
G02*
X0214056Y0187914I0000000J-000492D01*
G01*
X0214056Y0186929D01*
G75*
G02*
X0213563Y0186437I-000492J0000000D01*
G01*
G37*
G36*
G01*
X0206182Y0189882D02*
X0205197Y0189882D01*
G75*
G02*
X0204705Y0190374I0000000J0000492D01*
G01*
X0204705Y0195296D01*
G75*
G02*
X0205197Y0195788I0000492J0000000D01*
G01*
X0206182Y0195788D01*
G75*
G02*
X0206674Y0195296I0000000J-000492D01*
G01*
X0206674Y0190374D01*
G75*
G02*
X0206182Y0189882I-000492J0000000D01*
G01*
G37*
G36*
G01*
X0203032Y0189882D02*
X0202048Y0189882D01*
G75*
G02*
X0201556Y0190374I0000000J0000492D01*
G01*
X0201556Y0195296D01*
G75*
G02*
X0202048Y0195788I0000492J0000000D01*
G01*
X0203032Y0195788D01*
G75*
G02*
X0203524Y0195296I0000000J-000492D01*
G01*
X0203524Y0190374D01*
G75*
G02*
X0203032Y0189882I-000492J0000000D01*
G01*
G37*
G36*
G01*
X0199882Y0189882D02*
X0198898Y0189882D01*
G75*
G02*
X0198406Y0190374I0000000J0000492D01*
G01*
X0198406Y0195296D01*
G75*
G02*
X0198898Y0195788I0000492J0000000D01*
G01*
X0199882Y0195788D01*
G75*
G02*
X0200374Y0195296I0000000J-000492D01*
G01*
X0200374Y0190374D01*
G75*
G02*
X0199882Y0189882I-000492J0000000D01*
G01*
G37*
G36*
G01*
X0196733Y0189882D02*
X0195748Y0189882D01*
G75*
G02*
X0195256Y0190374I0000000J0000492D01*
G01*
X0195256Y0195296D01*
G75*
G02*
X0195748Y0195788I0000492J0000000D01*
G01*
X0196733Y0195788D01*
G75*
G02*
X0197225Y0195296I0000000J-000492D01*
G01*
X0197225Y0190374D01*
G75*
G02*
X0196733Y0189882I-000492J0000000D01*
G01*
G37*
G36*
G01*
X0193583Y0189882D02*
X0192599Y0189882D01*
G75*
G02*
X0192107Y0190374I0000000J0000492D01*
G01*
X0192107Y0195296D01*
G75*
G02*
X0192599Y0195788I0000492J0000000D01*
G01*
X0193583Y0195788D01*
G75*
G02*
X0194075Y0195296I0000000J-000492D01*
G01*
X0194075Y0190374D01*
G75*
G02*
X0193583Y0189882I-000492J0000000D01*
G01*
G37*
G36*
G01*
X0190433Y0189882D02*
X0189449Y0189882D01*
G75*
G02*
X0188957Y0190374I0000000J0000492D01*
G01*
X0188957Y0195296D01*
G75*
G02*
X0189449Y0195788I0000492J0000000D01*
G01*
X0190433Y0195788D01*
G75*
G02*
X0190926Y0195296I0000000J-000492D01*
G01*
X0190926Y0190374D01*
G75*
G02*
X0190433Y0189882I-000492J0000000D01*
G01*
G37*
G36*
G01*
X0187284Y0189882D02*
X0186300Y0189882D01*
G75*
G02*
X0185807Y0190374I0000000J0000492D01*
G01*
X0185807Y0195296D01*
G75*
G02*
X0186300Y0195788I0000492J0000000D01*
G01*
X0187284Y0195788D01*
G75*
G02*
X0187776Y0195296I0000000J-000492D01*
G01*
X0187776Y0190374D01*
G75*
G02*
X0187284Y0189882I-000492J0000000D01*
G01*
G37*
G36*
G01*
X0184134Y0189882D02*
X0183150Y0189882D01*
G75*
G02*
X0182658Y0190374I0000000J0000492D01*
G01*
X0182658Y0195296D01*
G75*
G02*
X0183150Y0195788I0000492J0000000D01*
G01*
X0184134Y0195788D01*
G75*
G02*
X0184626Y0195296I0000000J-000492D01*
G01*
X0184626Y0190374D01*
G75*
G02*
X0184134Y0189882I-000492J0000000D01*
G01*
G37*
G36*
G01*
X0180689Y0186437D02*
X0175768Y0186437D01*
G75*
G02*
X0175276Y0186929I0000000J0000492D01*
G01*
X0175276Y0187914D01*
G75*
G02*
X0175768Y0188406I0000492J0000000D01*
G01*
X0180689Y0188406D01*
G75*
G02*
X0181182Y0187914I0000000J-000492D01*
G01*
X0181182Y0186929D01*
G75*
G02*
X0180689Y0186437I-000492J0000000D01*
G01*
G37*
G36*
G01*
X0180689Y0183288D02*
X0175768Y0183288D01*
G75*
G02*
X0175276Y0183780I0000000J0000492D01*
G01*
X0175276Y0184764D01*
G75*
G02*
X0175768Y0185256I0000492J0000000D01*
G01*
X0180689Y0185256D01*
G75*
G02*
X0181182Y0184764I0000000J-000492D01*
G01*
X0181182Y0183780D01*
G75*
G02*
X0180689Y0183288I-000492J0000000D01*
G01*
G37*
G36*
G01*
X0180689Y0180138D02*
X0175768Y0180138D01*
G75*
G02*
X0175276Y0180630I0000000J0000492D01*
G01*
X0175276Y0181614D01*
G75*
G02*
X0175768Y0182107I0000492J0000000D01*
G01*
X0180689Y0182107D01*
G75*
G02*
X0181182Y0181614I0000000J-000492D01*
G01*
X0181182Y0180630D01*
G75*
G02*
X0180689Y0180138I-000492J0000000D01*
G01*
G37*
G36*
G01*
X0180689Y0176989D02*
X0175768Y0176989D01*
G75*
G02*
X0175276Y0177481I0000000J0000492D01*
G01*
X0175276Y0178465D01*
G75*
G02*
X0175768Y0178957I0000492J0000000D01*
G01*
X0180689Y0178957D01*
G75*
G02*
X0181182Y0178465I0000000J-000492D01*
G01*
X0181182Y0177481D01*
G75*
G02*
X0180689Y0176989I-000492J0000000D01*
G01*
G37*
G36*
G01*
X0180689Y0173839D02*
X0175768Y0173839D01*
G75*
G02*
X0175276Y0174331I0000000J0000492D01*
G01*
X0175276Y0175315D01*
G75*
G02*
X0175768Y0175807I0000492J0000000D01*
G01*
X0180689Y0175807D01*
G75*
G02*
X0181182Y0175315I0000000J-000492D01*
G01*
X0181182Y0174331D01*
G75*
G02*
X0180689Y0173839I-000492J0000000D01*
G01*
G37*
G36*
G01*
X0180689Y0170689D02*
X0175768Y0170689D01*
G75*
G02*
X0175276Y0171181I0000000J0000492D01*
G01*
X0175276Y0172166D01*
G75*
G02*
X0175768Y0172658I0000492J0000000D01*
G01*
X0180689Y0172658D01*
G75*
G02*
X0181182Y0172166I0000000J-000492D01*
G01*
X0181182Y0171181D01*
G75*
G02*
X0180689Y0170689I-000492J0000000D01*
G01*
G37*
G36*
G01*
X0180689Y0167540D02*
X0175768Y0167540D01*
G75*
G02*
X0175276Y0168032I0000000J0000492D01*
G01*
X0175276Y0169016D01*
G75*
G02*
X0175768Y0169508I0000492J0000000D01*
G01*
X0180689Y0169508D01*
G75*
G02*
X0181182Y0169016I0000000J-000492D01*
G01*
X0181182Y0168032D01*
G75*
G02*
X0180689Y0167540I-000492J0000000D01*
G01*
G37*
G36*
G01*
X0180689Y0164390D02*
X0175768Y0164390D01*
G75*
G02*
X0175276Y0164882I0000000J0000492D01*
G01*
X0175276Y0165866D01*
G75*
G02*
X0175768Y0166359I0000492J0000000D01*
G01*
X0180689Y0166359D01*
G75*
G02*
X0181182Y0165866I0000000J-000492D01*
G01*
X0181182Y0164882D01*
G75*
G02*
X0180689Y0164390I-000492J0000000D01*
G01*
G37*
G36*
G01*
X0202235Y0199016D02*
X0200876Y0199016D01*
G75*
G02*
X0200296Y0199597I0000000J0000581D01*
G01*
X0200296Y0200758D01*
G75*
G02*
X0200876Y0201339I0000581J0000000D01*
G01*
X0202235Y0201339D01*
G75*
G02*
X0202815Y0200758I0000000J-000581D01*
G01*
X0202815Y0199597D01*
G75*
G02*
X0202235Y0199016I-000581J0000000D01*
G01*
G37*
G36*
G01*
X0202235Y0202835D02*
X0200876Y0202835D01*
G75*
G02*
X0200296Y0203416I0000000J0000581D01*
G01*
X0200296Y0204577D01*
G75*
G02*
X0200876Y0205158I0000581J0000000D01*
G01*
X0202235Y0205158D01*
G75*
G02*
X0202815Y0204577I0000000J-000581D01*
G01*
X0202815Y0203416D01*
G75*
G02*
X0202235Y0202835I-000581J0000000D01*
G01*
G37*
G36*
G01*
X0178839Y0191939D02*
X0178839Y0190581D01*
G75*
G02*
X0178258Y0190000I-000581J0000000D01*
G01*
X0177097Y0190000D01*
G75*
G02*
X0176516Y0190581I0000000J0000581D01*
G01*
X0176516Y0191939D01*
G75*
G02*
X0177097Y0192520I0000581J0000000D01*
G01*
X0178258Y0192520D01*
G75*
G02*
X0178839Y0191939I0000000J-000581D01*
G01*
G37*
G36*
G01*
X0175020Y0191939D02*
X0175020Y0190581D01*
G75*
G02*
X0174439Y0190000I-000581J0000000D01*
G01*
X0173278Y0190000D01*
G75*
G02*
X0172697Y0190581I0000000J0000581D01*
G01*
X0172697Y0191939D01*
G75*
G02*
X0173278Y0192520I0000581J0000000D01*
G01*
X0174439Y0192520D01*
G75*
G02*
X0175020Y0191939I0000000J-000581D01*
G01*
G37*
G36*
G01*
X0200876Y0215583D02*
X0202235Y0215583D01*
G75*
G02*
X0202815Y0215002I0000000J-000581D01*
G01*
X0202815Y0213841D01*
G75*
G02*
X0202235Y0213260I-000581J0000000D01*
G01*
X0200876Y0213260D01*
G75*
G02*
X0200296Y0213841I0000000J0000581D01*
G01*
X0200296Y0215002D01*
G75*
G02*
X0200876Y0215583I0000581J0000000D01*
G01*
G37*
G36*
G01*
X0200876Y0211764D02*
X0202235Y0211764D01*
G75*
G02*
X0202815Y0211183I0000000J-000581D01*
G01*
X0202815Y0210022D01*
G75*
G02*
X0202235Y0209441I-000581J0000000D01*
G01*
X0200876Y0209441D01*
G75*
G02*
X0200296Y0210022I0000000J0000581D01*
G01*
X0200296Y0211183D01*
G75*
G02*
X0200876Y0211764I0000581J0000000D01*
G01*
G37*
D221*
X0206477Y0214095D03*
X0206477Y0206614D03*
X0214351Y0210355D03*
G36*
G01*
X0180709Y0155030D02*
X0180709Y0153672D01*
G75*
G02*
X0180128Y0153091I-000581J0000000D01*
G01*
X0178967Y0153091D01*
G75*
G02*
X0178386Y0153672I0000000J0000581D01*
G01*
X0178386Y0155030D01*
G75*
G02*
X0178967Y0155611I0000581J0000000D01*
G01*
X0180128Y0155611D01*
G75*
G02*
X0180709Y0155030I0000000J-000581D01*
G01*
G37*
G36*
G01*
X0176890Y0155030D02*
X0176890Y0153672D01*
G75*
G02*
X0176309Y0153091I-000581J0000000D01*
G01*
X0175148Y0153091D01*
G75*
G02*
X0174567Y0153672I0000000J0000581D01*
G01*
X0174567Y0155030D01*
G75*
G02*
X0175148Y0155611I0000581J0000000D01*
G01*
X0176309Y0155611D01*
G75*
G02*
X0176890Y0155030I0000000J-000581D01*
G01*
G37*
G36*
G01*
X0215748Y0201157D02*
X0215748Y0199139D01*
G75*
G02*
X0214887Y0198278I-000861J0000000D01*
G01*
X0213165Y0198278D01*
G75*
G02*
X0212304Y0199139I0000000J0000861D01*
G01*
X0212304Y0201157D01*
G75*
G02*
X0213165Y0202018I0000861J0000000D01*
G01*
X0214887Y0202018D01*
G75*
G02*
X0215748Y0201157I0000000J-000861D01*
G01*
G37*
G36*
G01*
X0209548Y0201157D02*
X0209548Y0199139D01*
G75*
G02*
X0208686Y0198278I-000861J0000000D01*
G01*
X0206964Y0198278D01*
G75*
G02*
X0206103Y0199139I0000000J0000861D01*
G01*
X0206103Y0201157D01*
G75*
G02*
X0206964Y0202018I0000861J0000000D01*
G01*
X0208686Y0202018D01*
G75*
G02*
X0209548Y0201157I0000000J-000861D01*
G01*
G37*
D149*
X0173603Y0216910D03*
X0169603Y0196910D03*
X0177603Y0196910D03*
D145*
X0171103Y0211910D03*
X0176103Y0211910D03*
X0171103Y0206910D03*
X0176103Y0206910D03*
X0171103Y0201910D03*
X0176103Y0201910D03*
D348*
X0212481Y0127422D03*
D349*
X0212481Y0137422D03*
X0212481Y0147422D03*
X0463462Y0258526D02*
G01*
G75*
D217*
X0464328Y0260002D02*
D03*
D246*
X0484702Y0300947D02*
D03*
D247*
X0469860Y0307345D02*
D03*
D101*
X0466848Y0290514D02*
D03*
X0473068Y0290514D02*
D03*
D99*
X0469958Y0304983D02*
D03*
X0482950Y0304983D02*
D03*
X0483147Y0296813D02*
D03*
X0470155Y0296813D02*
D03*
D248*
X0477143Y0290652D02*
D03*
X0483442Y0290652D02*
D03*
D249*
X0481986Y0283526D02*
D03*
X0476986Y0283526D02*
D03*
X0471986Y0283526D02*
D03*
X0466986Y0283526D02*
D03*
X0481986Y0264629D02*
D03*
X0476986Y0264629D02*
D03*
X0471986Y0264629D02*
D03*
X0466986Y0264629D02*
D03*
D106*
X0478423Y0271124D02*
D03*
X0481966Y0271124D02*
D03*
X0466907Y0271124D02*
D03*
X0471927Y0271124D02*
D03*
X0474112Y0296420D02*
D03*
X0358024Y0326643D02*
G01*
G75*
D98*
X0372729Y0336867D02*
D03*
X0372729Y0329387D02*
D03*
X0364264Y0329387D02*
D03*
X0364264Y0333127D02*
D03*
X0388378Y0336867D02*
D03*
X0388378Y0329387D02*
D03*
X0379914Y0329387D02*
D03*
X0379914Y0333127D02*
D03*
D98*
X0364264Y0336867D02*
D03*
X0379914Y0336867D02*
D03*
D106*
X0393457Y0336879D02*
D03*
X0393457Y0333139D02*
D03*
X0393457Y0329399D02*
D03*
X0359205Y0333336D02*
D03*
X0359205Y0336879D02*
D03*
X0358003Y0312300D02*
G01*
G75*
D98*
X0372708Y0322524D02*
D03*
X0372708Y0315044D02*
D03*
X0364243Y0315044D02*
D03*
X0364243Y0318784D02*
D03*
X0388357Y0322524D02*
D03*
X0388357Y0315044D02*
D03*
X0379893Y0315044D02*
D03*
X0379893Y0318784D02*
D03*
D98*
X0364243Y0322524D02*
D03*
X0379893Y0322524D02*
D03*
D106*
X0393436Y0322536D02*
D03*
X0393436Y0318796D02*
D03*
X0393436Y0315056D02*
D03*
X0359184Y0318993D02*
D03*
X0359184Y0322536D02*
D03*
M02*
