M48
INCH,TZ
T01C0.011800
T02C0.031500
T03C0.037800
T04C0.043300
T05C0.059100
T06C0.070900
T07C0.086600
T08C0.091700
T09C0.108300
T10C0.118100
T11C0.145700
%
T01
X45744Y19307
X45774Y17910
X45862Y19809
X46207Y19602
X46691Y27112
X47193Y27112
X47411Y29642
X47842Y27112
X48197Y27112
X16927Y11419
X17321Y11419
X17715Y11419
X18108Y11419
X19035Y21888
X19435Y21888
X20333Y21888
X20726Y21888
X21120Y21888
X25138Y24662
X25138Y22812
X25138Y22261
X25138Y20410
X25138Y20096
X25138Y19072
X25138Y18678
X25138Y18284
X25138Y17891
X25138Y17497
X25138Y17103
X25138Y16710
X25138Y16316
X25138Y12103
X25138Y11710
X25296Y10725
X26241Y10725
X26713Y10725
X27186Y10725
X27658Y10725
X28052Y24662
X28130Y10725
X28445Y24662
X28603Y10725
X29075Y10725
X29508Y24662
X29548Y10725
X30020Y10725
X30493Y10725
X30965Y10725
X31201Y24662
X31438Y10725
X31516Y24662
X31831Y24662
X31910Y10725
X32146Y24662
X32382Y10725
X32461Y24662
X32776Y24662
X32855Y10725
X33091Y24662
X33327Y10725
X33406Y24662
X33721Y24662
X33800Y10725
X34272Y10725
X34666Y24662
X34745Y10725
X34981Y24662
X35217Y10725
X35296Y24662
X35611Y24662
X35690Y10725
X35918Y32254
X35918Y31899
X35921Y33688
X35921Y33334
X35926Y24662
X36241Y24662
X36556Y24662
X36871Y24662
X37186Y24662
X37501Y24662
X37816Y24662
X38130Y24662
X38288Y19387
X38288Y13284
X38288Y21828
X38288Y21513
X38288Y21198
X38288Y20883
X38288Y20568
X38288Y20253
X38288Y19702
X38288Y19072
X38288Y18757
X38288Y18442
X38288Y18127
X38288Y17812
X38288Y17497
X38288Y17182
X38288Y16867
X38288Y16552
X38288Y16237
X38288Y15922
X38288Y15607
X38288Y15292
X38288Y14977
X39344Y32254
X39344Y31880
X39344Y31506
X39346Y33688
X39346Y33314
X39346Y32940
X53426Y31633
X53426Y31239
X58908Y32867
X59180Y32231
X58966Y31846
X59607Y31417
X59647Y31081
X59450Y30491
X59174Y30235
X59056Y29704
X59450Y29408
X59647Y29900
X59647Y28719
X59647Y27144
X59174Y27164
X58063Y26872
X57016Y26897
X56694Y27185
X55641Y27260
X54529Y27144
X53741Y27144
X54214Y28148
X54859Y28154
X54799Y29400
X54332Y29310
X54164Y29790
X53741Y29507
X54163Y30675
X53467Y30847
X53426Y31239
X53426Y31633
X54108Y31539
X54418Y32028
X54031Y32345
X54428Y32775
X54817Y32396
X54892Y31672
X54844Y31239
X56160Y32224
X56160Y32853
X57079Y32867
X57934Y32867
X57711Y32225
X57127Y31200
X56734Y29753
X57481Y29704
X57048Y29194
X56459Y28196
X55513Y26239
X54581Y26172
X54529Y25767
X53741Y25963
X54135Y26554
X56609Y25414
X56567Y25008
X57396Y25424
X57661Y25827
X59098Y25750
X58689Y26385
X59529Y26618
X25296Y10725
X25772Y10756
X26004Y10946
X26240Y10725
X26477Y10926
X26713Y10725
X26949Y10926
X27185Y10725
X27422Y10926
X27658Y10725
X27894Y10926
X28130Y10725
X28366Y10926
X28603Y10725
X28839Y10926
X29075Y10725
X29311Y10926
X29548Y10725
X29784Y10926
X30020Y10725
X30256Y10926
X30492Y10725
X30729Y10926
X30965Y10725
X31201Y10926
X31437Y10725
X31674Y10926
X31910Y10725
X32146Y10926
X32382Y10725
X32618Y10926
X32855Y10725
X33091Y10926
X33327Y10725
X33563Y10926
X33800Y10725
X34036Y10926
X34272Y10725
X34508Y10926
X34744Y10725
X34981Y10926
X35217Y10725
X35453Y10926
X35689Y10725
X36004Y10883
X35997Y11418
X35570Y11612
X35119Y11622
X34677Y11629
X34204Y11627
X33699Y12674
X33389Y12674
X33142Y12201
X32544Y12404
X32248Y12413
X32405Y12684
X32522Y13366
X32267Y13634
X32170Y14175
X32609Y14175
X33069Y14055
X33069Y14387
X33069Y14682
X33063Y14973
X33393Y15657
X33938Y15653
X33800Y16237
X33170Y16158
X33100Y16990
X33085Y17376
X32737Y17182
X32503Y16982
X32246Y17415
X31553Y17716
X30955Y17733
X30608Y17437
X29833Y17612
X29851Y17057
X29841Y16510
X29133Y16637
X29178Y17436
X29152Y18201
X29130Y19011
X29833Y19051
X29833Y18766
X29833Y18481
X29833Y19352
X30621Y19668
X30608Y19953
X30576Y20251
X30626Y20733
X31030Y20784
X31660Y21262
X32037Y21250
X32973Y21394
X33298Y20794
X33506Y20997
X33488Y20470
X33846Y20423
X33295Y20239
X33089Y19096
X32866Y18867
X32820Y18184
X32529Y18173
X33016Y17965
X33685Y17965
X34551Y17776
X34745Y17562
X34949Y17358
X35151Y17156
X35148Y17969
X34701Y18434
X34688Y19135
X35064Y19037
X34941Y19505
X34739Y20042
X34979Y20268
X35173Y20666
X34981Y20922
X34880Y21305
X34840Y21611
X35138Y21513
X35642Y21311
X35698Y21010
X35642Y20448
X35789Y20203
X35532Y19820
X35514Y19329
X36742Y18937
X37052Y18623
X36870Y18402
X36835Y17882
X38288Y17812
X38288Y18127
X38288Y18442
X38288Y18757
X38288Y19072
X38288Y19387
X38288Y19701
X38149Y19979
X38288Y20253
X38288Y20568
X38288Y20883
X38288Y21198
X38288Y21513
X38288Y21827
X37931Y21915
X38148Y22159
X37839Y22861
X37835Y23796
X37462Y23840
X37460Y23555
X37087Y23796
X37185Y24662
X36870Y24662
X36555Y24662
X36240Y24662
X35926Y24662
X35611Y24662
X35296Y24662
X34981Y24662
X34666Y24662
X34075Y24465
X33721Y24662
X33406Y24662
X33091Y24662
X32776Y24662
X32461Y24662
X32146Y24662
X31831Y24662
X31516Y24662
X31201Y24662
X30689Y24623
X30783Y23968
X30385Y23932
X30040Y23977
X29761Y23675
X29819Y24430
X29508Y24662
X28445Y24662
X28051Y24662
X27690Y24638
X27698Y24175
X27468Y23730
X27387Y22857
X26947Y23080
X28133Y23392
X28596Y23711
X28553Y22860
X28996Y22812
X29481Y22384
X29489Y22099
X29557Y21739
X29560Y21443
X28830Y21542
X28839Y21158
X28830Y20833
X29169Y20505
X28830Y20125
X28846Y19773
X28826Y19478
X29143Y19796
X28148Y20224
X28145Y20668
X26969Y20524
X26989Y20003
X26988Y19614
X27813Y19149
X28113Y19188
X28136Y18735
X28136Y18448
X28136Y18161
X28136Y17745
X28136Y17459
X28154Y17035
X28154Y16727
X28154Y16438
X28378Y15698
X28658Y15603
X28970Y15208
X28672Y14888
X28672Y14322
X28665Y14036
X28756Y13375
X28553Y12630
X28721Y12398
X28421Y12363
X27796Y12199
X27500Y12199
X26874Y12404
X26588Y12404
X26752Y12687
X26856Y13363
X26697Y13632
X26517Y14209
X26993Y14209
X27479Y14055
X27479Y14387
X27479Y14682
X27472Y14973
X26709Y15195
X26713Y15572
X25910Y15580
X25937Y15246
X25642Y15678
X25163Y15721
X25138Y16316
X25138Y16709
X25138Y17103
X25138Y17497
X25138Y17890
X25138Y18284
X25138Y18678
X25138Y19072
X25177Y19701
X25138Y20095
X25138Y20410
X25138Y20784
X25266Y21267
X25177Y21631
X25138Y22261
X25422Y22371
X25138Y22812
X25159Y23974
X25138Y24662
X26162Y21394
X26288Y21099
X27157Y21584
X29149Y21876
X30026Y22324
X30158Y22713
X30496Y22642
X30919Y22320
X31359Y22221
X32100Y22299
X32628Y23235
X32768Y23514
X32839Y23821
X33101Y23131
X33932Y23160
X34124Y23485
X34868Y23139
X34794Y22291
X35088Y22291
X35379Y22291
X36565Y22349
X36595Y22812
X36320Y23343
X36294Y24247
X35184Y24374
X37500Y24662
X37815Y24662
X38130Y24662
X36936Y21758
X36780Y21519
X37008Y21227
X37225Y20800
X36784Y20802
X36686Y20118
X37202Y19829
X37478Y20383
X37489Y19174
X38288Y17497
X38288Y17182
X38288Y16867
X38288Y16552
X38288Y16237
X38288Y15922
X38288Y15607
X38288Y15292
X38288Y14977
X37769Y14363
X38209Y13757
X38288Y13284
X37717Y12686
X37717Y12367
X37717Y12049
X37717Y11731
X37717Y11412
X37353Y11086
X38071Y11043
X36475Y11874
X36608Y12453
X36044Y13363
X35811Y14067
X35825Y14387
X35820Y14675
X35819Y14973
X35032Y15195
X35023Y15608
X34513Y15223
X34223Y15007
X34223Y14434
X34260Y14048
X34864Y14182
X35364Y14175
X35024Y13629
X35145Y12963
X34828Y12963
X34482Y12963
X35492Y12952
X33681Y13363
X31465Y14048
X31467Y14447
X31467Y14886
X31549Y15270
X32276Y15248
X32225Y15530
X31083Y15662
X30759Y15670
X30737Y16162
X30327Y15882
X30256Y15053
X30279Y14682
X30266Y14387
X30256Y13887
X29961Y14150
X29292Y14195
X29492Y13653
X29421Y12777
X29652Y12197
X30362Y12404
X30654Y12404
X30512Y12694
X30635Y13363
X31281Y12243
X31609Y12192
X29614Y15201
X29415Y15607
X27802Y15657
X27268Y16276
X27268Y17037
X27268Y17798
X27269Y18560
X30952Y18507
X30748Y18832
X30910Y19720
X29831Y20820
X30630Y23443
X31074Y23347
X31167Y23077
X31370Y23440
X33876Y22098
X33934Y21815
X35507Y16282
X35886Y16631
X36973Y16486
X36924Y15757
X36612Y15789
X36149Y15657
X37684Y15964
X31362Y17019
X25876Y14475
X25914Y14010
X25632Y13688
X25141Y13649
X25739Y13097
X25473Y12785
X25138Y12103
X25138Y11709
X25158Y11124
X25729Y11316
X25926Y12199
X25266Y15007
X46207Y19602
X45863Y19809
X45744Y19307
X45774Y17909
X18660Y21951
X21590Y21876
X19920Y21832
X16554Y21832
X16744Y21599
X18024Y21543
X18335Y21543
X21358Y21389
X19767Y21161
X20465Y21069
X17837Y21006
X16904Y20869
X16632Y20577
X21672Y20474
X21035Y20428
X20658Y20386
X19351Y20311
X18114Y20307
X16593Y20031
X18679Y19950
X17390Y19825
X19339Y19765
X20386Y19756
X18629Y19647
X16554Y19549
X21677Y18752
X17361Y18584
X19166Y18294
X20105Y18064
X18605Y18063
X19398Y18062
X19641Y17856
X16455Y17836
X19300Y17778
X20677Y17471
X18542Y17263
X20626Y17174
X16485Y17049
X19979Y17033
X20632Y16864
X17199Y16846
X18581Y16773
X19581Y16714
X20256Y16561
X17282Y16557
X18015Y16256
X20981Y16238
X21282Y16230
X16475Y15858
X21113Y15651
X21698Y15626
X20814Y15617
X21479Y15360
X19837Y15222
X18990Y15176
X18477Y15106
X17577Y15106
X17276Y15106
X16975Y15106
X16674Y15106
X18069Y15102
X19605Y14726
X19388Y14470
X16433Y12395
X18182Y12178
X21435Y12138
X21022Y11990
X18089Y11891
X20441Y11852
X20166Y11852
X19890Y11852
X21002Y11675
X16426Y11655
X20441Y11547
X20166Y11547
X21416Y11350
X21121Y21888
X20727Y21888
X20333Y21888
X19435Y21888
X19035Y21888
X18109Y11419
X17715Y11419
X17321Y11419
X16928Y11419
X46690Y27113
X47192Y27113
X47842Y27113
X48196Y27113
X47411Y29642
X35926Y32793
X36078Y33046
X35920Y33333
X35920Y33688
X36922Y33354
X37196Y33249
X37439Y33462
X36889Y32949
X38368Y33689
X39345Y33688
X39345Y33314
X39345Y32940
X35924Y31359
X36076Y31612
X35918Y31899
X35918Y32254
X36920Y31920
X37194Y31815
X37437Y32028
X36887Y31515
X38366Y32255
X39343Y32254
X39343Y31880
X39343Y31506
T02
X31233Y16020
X32811Y16020
X34233Y16020
T03
X55922Y5979
X55922Y5192
X56906Y5979
X56906Y5192
X23786Y7597
X23786Y6730
X24573Y7597
X24573Y6730
X25360Y7597
X25360Y6730
X26148Y7597
X26148Y6730
X26935Y7597
X26935Y6730
X27723Y6730
X28510Y6730
X29297Y6730
X30085Y6730
X30872Y7597
X30872Y6730
X31660Y7597
X31660Y6730
X32447Y7597
X32447Y6730
X33234Y7597
X33234Y6730
X34022Y7597
X34022Y6730
X53604Y32755
X53604Y30294
X53604Y28601
X53604Y27853
X53604Y25333
X59706Y32578
X59706Y27833
X59706Y25885
X59706Y25156
X59706Y32578
X59706Y27833
X53603Y27853
X53603Y28601
X53603Y30294
X53603Y32755
X53603Y25333
X59706Y25156
X59706Y25885
X25453Y24347
X34532Y23376
X34532Y24176
X36532Y23776
X17439Y14565
X18621Y13777
X17439Y12990
X17361Y21691
X17761Y19691
X16961Y19691
T04
X17227Y41343
X17227Y40342
X17227Y37965
X17227Y36956
X18227Y41343
X18227Y40342
X18227Y37965
X18227Y36956
X19227Y41343
X19227Y40342
X19227Y37965
X19227Y36956
X20227Y41343
X20227Y40342
X20227Y37965
X20227Y36956
X21227Y41343
X21227Y40342
X21227Y37965
X21227Y36956
X22228Y41343
X22228Y40342
X22228Y37965
X22228Y36956
X23228Y41343
X23228Y40342
X23228Y37965
X23228Y36956
X24228Y41343
X24228Y40342
X24228Y37965
X24228Y36956
X25228Y41343
X25228Y40342
X25228Y37965
X25228Y36956
X26228Y41343
X26228Y40342
X26228Y37965
X26228Y36956
X28487Y41343
X28487Y40342
X28487Y37965
X28487Y36956
X29487Y41343
X29487Y40342
X29487Y37965
X29487Y36956
X30487Y41343
X30487Y40342
X30487Y37965
X30487Y36956
X31487Y41343
X31487Y40342
X31487Y37965
X31487Y36956
X32487Y41343
X32487Y40342
X32487Y37965
X32487Y36956
X33487Y41343
X33487Y40342
X33487Y37965
X33487Y36956
X34487Y41343
X34487Y40342
X34487Y37965
X34487Y36956
X35487Y41343
X35487Y40342
X35487Y37965
X35487Y36956
X36487Y41343
X36487Y40342
X36487Y37965
X36487Y36956
X37488Y41343
X37488Y40342
X37488Y37965
X37488Y36956
X38488Y41343
X38488Y40342
X38488Y37965
X38488Y36956
X39488Y41343
X39488Y40342
X39488Y37965
X39488Y36956
X40488Y41343
X40488Y40342
X40488Y37965
X40488Y36956
X42729Y41343
X42729Y40342
X42729Y37965
X42729Y36956
X43729Y41343
X43729Y40342
X43729Y37965
X43729Y36956
X44730Y41343
X44730Y40342
X44730Y37965
X44730Y36956
X45730Y41343
X45730Y40342
X45730Y37965
X45730Y36956
X46730Y41343
X46730Y40342
X46730Y37965
X46730Y36956
X47730Y41343
X47730Y40342
X47730Y37965
X47730Y36956
X21248Y14742
X21248Y13742
X21248Y12742
T05
X10560Y41110
X10560Y38866
X10560Y36622
X12527Y41110
X12527Y38866
X12527Y36622
X14502Y41110
X14502Y38866
X14502Y36622
X50488Y41110
X50488Y38866
X50488Y36622
X52455Y41110
X52455Y38866
X52455Y36622
X54422Y41110
X54422Y38866
X54422Y36622
T06
X13450Y7659
X13450Y5494
X15104Y7659
X15104Y5494
X16757Y7659
X16757Y5494
T07
X6526Y41986
X58022Y41986
T08
X54044Y4125
X58784Y4125
T09
X22664Y7085
X35144Y7085
T10
X13450Y2620
X16757Y2620
T11
X7335Y43913
X57222Y43913
M30
