M48
INCH,TZ
T01C0.011800
T02C0.031750
T03C0.037800
T04C0.043300
T05C0.059100
T06C0.070900
T07C0.086600
T08C0.091700
T09C0.108300
T10C0.118100
T11C0.145700
T12C0.157500
%
T01
X14990Y22835
X15492Y22835
X15711Y25364
X16142Y22835
X16496Y22835
X39636Y14075
X41033Y14104
X41329Y13642
X41535Y13986
X18533Y8376
X18533Y7982
X18533Y7589
X18533Y7195
X20738Y24183
X20738Y23868
X20738Y23553
X20738Y23238
X20738Y22923
X20738Y22608
X20738Y22293
X20738Y21978
X20738Y19144
X20738Y18829
X20738Y18514
X20738Y18199
X20738Y17884
X20738Y21663
X20738Y21348
X20738Y21033
X20738Y20719
X20738Y19774
X20738Y19459
X20738Y17569
X20738Y17254
X20738Y15561
X20738Y14498
X20738Y14104
X20738Y11191
X22589Y11191
X23140Y11191
X23573Y24341
X23888Y24341
X24203Y24341
X24518Y24341
X24833Y24341
X24990Y11191
X25148Y24341
X25305Y11191
X25699Y24341
X26014Y24341
X26329Y24341
X26329Y11191
X26644Y24341
X26722Y11191
X26959Y24341
X27116Y11191
X27274Y24341
X27510Y11191
X27589Y24341
X27904Y24341
X27904Y11191
X28219Y24341
X28297Y11191
X28533Y24341
X28691Y11191
X28848Y24341
X29002Y6268
X29002Y5868
X29002Y4970
X29002Y4577
X29002Y4183
X29085Y11191
X29163Y24341
X29478Y24341
X29793Y24341
X30108Y24341
X30423Y24341
X32116Y24341
X33297Y11191
X33691Y11191
X34675Y21742
X34675Y21270
X34675Y20797
X34675Y20325
X34675Y19852
X34675Y19380
X34675Y18907
X34675Y18435
X34675Y17963
X34675Y17490
X34675Y17018
X34675Y16545
X34675Y16073
X34675Y15600
X34675Y15128
X34675Y14656
X34675Y14183
X34675Y13711
X34675Y13238
X34675Y12766
X34675Y12293
X34675Y11348
X35236Y30325
X35610Y30325
X35630Y33750
X35984Y33750
X35984Y30325
X36627Y30327
X37001Y30327
X37020Y33752
X37375Y33752
X37375Y30327
X53426Y31633
X53426Y31239
X58908Y32867
X59180Y32231
X58966Y31846
X59607Y31417
X59647Y31081
X59450Y30491
X59174Y30235
X59056Y29704
X59450Y29408
X59647Y29900
X59647Y28719
X59647Y27144
X59174Y27164
X58063Y26872
X57016Y26897
X56694Y27185
X55641Y27260
X54529Y27144
X53741Y27144
X54214Y28148
X54859Y28154
X54799Y29400
X54332Y29310
X54164Y29790
X53741Y29507
X54163Y30675
X53467Y30847
X53426Y31239
X53426Y31633
X54108Y31539
X54418Y32028
X54031Y32345
X54428Y32775
X54817Y32396
X54892Y31672
X54844Y31239
X56160Y32224
X56160Y32853
X57079Y32867
X57934Y32867
X57711Y32225
X57127Y31200
X56734Y29753
X57481Y29704
X57048Y29194
X56459Y28196
X55513Y26239
X54581Y26172
X54529Y25767
X53741Y25963
X54135Y26554
X56609Y25414
X56567Y25008
X57396Y25424
X57661Y25827
X59098Y25750
X58689Y26385
X59529Y26618
X34675Y11349
X34644Y11825
X34454Y12057
X34675Y12293
X34474Y12530
X34675Y12766
X34474Y13002
X34675Y13238
X34474Y13475
X34675Y13711
X34474Y13947
X34675Y14183
X34474Y14419
X34675Y14656
X34474Y14892
X34675Y15128
X34474Y15364
X34675Y15601
X34474Y15837
X34675Y16073
X34474Y16309
X34675Y16545
X34474Y16782
X34675Y17018
X34474Y17254
X34675Y17490
X34474Y17727
X34675Y17963
X34474Y18199
X34675Y18435
X34474Y18671
X34675Y18908
X34474Y19144
X34675Y19380
X34474Y19616
X34675Y19853
X34474Y20089
X34675Y20325
X34474Y20561
X34675Y20797
X34474Y21034
X34675Y21270
X34474Y21506
X34675Y21742
X34517Y22057
X33982Y22050
X33788Y21623
X33778Y21172
X33771Y20730
X33773Y20257
X32726Y19752
X32726Y19442
X33199Y19195
X32996Y18597
X32987Y18301
X32716Y18458
X32034Y18575
X31766Y18320
X31225Y18223
X31225Y18662
X31345Y19122
X31013Y19122
X30718Y19122
X30427Y19116
X29743Y19446
X29747Y19991
X29163Y19853
X29242Y19223
X28410Y19153
X28024Y19138
X28218Y18790
X28418Y18556
X27985Y18299
X27684Y17606
X27667Y17008
X27963Y16661
X27788Y15886
X28343Y15904
X28890Y15894
X28763Y15186
X27964Y15231
X27199Y15205
X26389Y15183
X26349Y15886
X26634Y15886
X26919Y15886
X26048Y15886
X25732Y16674
X25447Y16661
X25149Y16629
X24667Y16679
X24616Y17083
X24138Y17713
X24150Y18090
X24006Y19026
X24606Y19351
X24403Y19559
X24930Y19541
X24977Y19899
X25161Y19348
X26304Y19142
X26533Y18919
X27216Y18873
X27227Y18582
X27435Y19069
X27435Y19738
X27624Y20604
X27838Y20798
X28042Y21002
X28244Y21204
X27431Y21201
X26966Y20754
X26265Y20741
X26363Y21117
X25895Y20994
X25358Y20792
X25132Y21032
X24734Y21226
X24478Y21034
X24095Y20933
X23789Y20893
X23887Y21191
X24089Y21695
X24390Y21751
X24952Y21695
X25197Y21842
X25580Y21585
X26071Y21567
X26463Y22795
X26777Y23105
X26998Y22923
X27518Y22888
X27588Y24341
X27273Y24341
X26958Y24341
X26643Y24341
X26328Y24341
X26013Y24341
X25699Y24341
X25421Y24202
X25147Y24341
X24832Y24341
X24517Y24341
X24202Y24341
X23887Y24341
X23573Y24341
X23485Y23984
X23241Y24201
X22539Y23892
X21604Y23888
X21560Y23515
X21845Y23513
X21604Y23140
X20738Y23238
X20738Y22923
X20738Y22608
X20738Y22293
X20738Y21979
X20738Y21664
X20738Y21349
X20738Y21034
X20738Y20719
X20935Y20128
X20738Y19774
X20738Y19459
X20738Y19144
X20738Y18829
X20738Y18514
X20738Y18199
X20738Y17884
X20738Y17569
X20738Y17254
X20777Y16742
X21432Y16836
X21468Y16438
X21423Y16093
X21725Y15814
X20970Y15872
X20738Y15561
X20738Y14498
X20738Y14104
X20762Y13743
X21225Y13751
X21670Y13521
X22543Y13440
X22320Y13000
X22008Y14186
X21689Y14649
X22540Y14606
X22588Y15049
X23016Y15534
X23301Y15542
X23661Y15610
X23957Y15613
X23858Y14883
X24242Y14892
X24567Y14883
X24895Y15222
X25275Y14883
X25627Y14899
X25922Y14879
X25604Y15196
X25176Y14201
X24732Y14198
X24876Y13022
X25397Y13042
X25786Y13041
X26251Y13866
X26212Y14166
X26665Y14189
X26952Y14189
X27239Y14189
X27655Y14189
X27941Y14189
X28365Y14207
X28673Y14207
X28962Y14207
X29702Y14431
X29797Y14711
X30192Y15023
X30512Y14725
X31078Y14725
X31364Y14718
X32025Y14809
X32770Y14606
X33002Y14774
X33037Y14474
X33201Y13849
X33201Y13553
X32996Y12927
X32996Y12641
X32713Y12805
X32037Y12909
X31768Y12750
X31191Y12570
X31191Y13046
X31345Y13532
X31013Y13532
X30718Y13532
X30427Y13525
X30205Y12762
X29828Y12766
X29820Y11963
X30154Y11990
X29722Y11695
X29679Y11216
X29084Y11191
X28691Y11191
X28297Y11191
X27903Y11191
X27510Y11191
X27116Y11191
X26722Y11191
X26328Y11191
X25699Y11230
X25305Y11191
X24990Y11191
X24616Y11191
X24133Y11319
X23769Y11230
X23139Y11191
X23029Y11475
X22588Y11191
X21426Y11212
X20738Y11191
X24006Y12215
X24301Y12341
X23816Y13210
X23524Y15202
X23076Y16079
X22687Y16211
X22758Y16549
X23080Y16972
X23179Y17412
X23101Y18153
X22165Y18681
X21886Y18821
X21579Y18892
X22269Y19154
X22240Y19985
X21915Y20177
X22261Y20921
X23109Y20847
X23109Y21141
X23109Y21432
X23051Y22618
X22588Y22648
X22057Y22373
X21153Y22347
X21026Y21237
X20738Y23553
X20738Y23868
X20738Y24183
X23642Y22989
X23881Y22833
X24173Y23061
X24600Y23278
X24598Y22837
X25282Y22739
X25571Y23255
X25017Y23531
X26226Y23542
X27903Y24341
X28218Y24341
X28533Y24341
X28848Y24341
X29163Y24341
X29478Y24341
X29793Y24341
X30108Y24341
X30423Y24341
X31037Y23822
X31643Y24262
X32116Y24341
X32714Y23770
X33033Y23770
X33351Y23770
X33669Y23770
X33988Y23770
X34314Y23406
X34357Y24124
X33526Y22528
X32947Y22661
X32037Y22097
X31333Y21864
X31013Y21878
X30725Y21873
X30427Y21872
X30205Y21085
X29792Y21076
X30177Y20566
X30393Y20276
X30966Y20276
X31352Y20313
X31218Y20917
X31225Y21417
X31771Y21077
X32437Y21198
X32437Y20881
X32437Y20535
X32448Y21545
X32037Y19734
X31352Y17518
X30953Y17520
X30514Y17520
X30130Y17602
X30152Y18329
X29870Y18278
X29738Y17136
X29730Y16812
X29238Y16790
X29518Y16380
X30347Y16309
X30718Y16332
X31013Y16319
X31513Y16309
X31250Y16014
X31205Y15345
X31747Y15545
X32623Y15474
X33203Y15705
X32996Y16415
X32996Y16707
X32706Y16565
X32037Y16688
X33157Y17334
X33208Y17662
X30199Y15667
X29793Y15468
X29743Y13855
X29124Y13321
X28363Y13321
X27602Y13321
X26840Y13322
X26893Y17005
X26568Y16801
X25680Y16963
X24580Y15884
X21957Y16683
X22053Y17127
X22323Y17220
X21960Y17423
X23302Y19929
X23585Y19987
X29118Y21560
X28769Y21939
X28914Y23026
X29643Y22977
X29611Y22665
X29743Y22202
X29436Y23737
X28381Y17415
X30925Y11929
X31390Y11967
X31712Y11685
X31751Y11194
X32303Y11792
X32615Y11526
X33297Y11191
X33691Y11191
X34276Y11211
X34084Y11782
X33201Y11979
X30393Y11319
X29065Y6644
X28990Y3714
X28946Y5384
X28946Y8750
X28713Y8560
X28657Y7280
X28657Y6969
X28503Y3946
X28275Y5537
X28183Y4839
X28120Y7467
X27983Y8400
X27691Y8672
X27588Y3632
X27542Y4269
X27500Y4646
X27425Y5953
X27421Y7190
X27145Y8711
X27064Y6625
X26939Y7914
X26879Y5965
X26870Y4918
X26761Y6675
X26663Y8750
X25866Y3627
X25698Y7943
X25408Y6138
X25178Y5199
X25177Y6699
X25176Y5906
X24970Y5663
X24950Y8849
X24892Y6004
X24585Y4627
X24377Y6762
X24288Y4678
X24163Y8819
X24147Y5325
X23978Y4672
X23960Y8105
X23887Y6723
X23828Y5723
X23675Y5048
X23671Y8022
X23370Y7289
X23352Y4323
X23344Y4022
X22972Y8829
X22765Y4191
X22740Y3606
X22731Y4490
X22474Y3825
X22336Y5467
X22290Y6314
X22220Y6827
X22220Y7727
X22220Y8028
X22220Y8329
X22220Y8630
X22216Y7235
X21840Y5699
X21584Y5916
X19509Y8871
X19292Y7122
X19252Y3869
X19104Y4282
X19005Y7215
X18966Y4863
X18966Y5138
X18966Y5414
X18789Y4302
X18769Y8878
X18661Y4863
X18661Y5138
X18464Y3888
X29002Y4183
X29002Y4577
X29002Y4971
X29002Y5869
X29002Y6269
X18533Y7195
X18533Y7589
X18533Y7983
X18533Y8376
X41329Y13642
X41536Y13986
X41034Y14105
X39636Y14075
X14990Y22835
X15492Y22835
X16142Y22835
X16496Y22835
X15711Y25364
X35090Y33744
X35343Y33592
X35630Y33750
X35985Y33750
X35651Y32748
X35546Y32474
X35759Y32231
X35246Y32781
X35986Y31302
X35985Y30325
X35611Y30325
X35237Y30325
X36480Y33746
X36733Y33594
X37020Y33752
X37375Y33752
X37041Y32750
X36936Y32476
X37149Y32233
X36636Y32783
X37376Y31304
X37375Y30327
X37001Y30327
X36627Y30327
T02
X6514Y27551
X6533Y32480
X6533Y23133
X6711Y18694
X8014Y27551
X8033Y32480
X8033Y23133
X8211Y18694
X29134Y34215
X29134Y32715
X30256Y34215
X30256Y32715
X31379Y34215
X31379Y32715
X32501Y34215
X32501Y32715
X43738Y34252
X45238Y34252
X29380Y17286
X29380Y18864
X29380Y20286
T03
X53248Y5979
X53248Y5192
X54232Y5979
X54232Y5192
X37992Y7597
X37992Y6730
X38780Y7597
X38780Y6730
X39567Y7597
X39567Y6730
X40354Y7597
X40354Y6730
X41142Y7597
X41142Y6730
X41929Y6730
X42717Y6730
X43504Y6730
X44291Y6730
X45079Y7597
X45079Y6730
X45866Y7597
X45866Y6730
X46654Y7597
X46654Y6730
X47441Y7597
X47441Y6730
X48228Y7597
X48228Y6730
X53604Y32755
X53604Y30294
X53604Y28601
X53604Y27853
X53604Y25333
X59706Y32578
X59706Y27833
X59706Y25885
X59706Y25156
X59706Y32578
X59706Y27833
X53603Y27853
X53603Y28601
X53603Y30294
X53603Y32755
X53603Y25333
X59706Y25156
X59706Y25885
X21053Y11506
X22024Y20585
X21224Y20585
X21624Y22585
X21679Y7865
X20891Y6683
X20104Y7865
X28805Y7943
X26805Y7543
X26805Y8343
T04
X12795Y33677
X12795Y31677
X14567Y33677
X14567Y31677
X16339Y33677
X16339Y31677
X17227Y41343
X17227Y40342
X17227Y37965
X17227Y36956
X18110Y33677
X18110Y31677
X18227Y41343
X18227Y40342
X18227Y37965
X18227Y36956
X19227Y41343
X19227Y40342
X19227Y37965
X19227Y36956
X20227Y41343
X20227Y40342
X20227Y37965
X20227Y36956
X21227Y41343
X21227Y40342
X21227Y37965
X21227Y36956
X22228Y41343
X22228Y40342
X22228Y37965
X22228Y36956
X23228Y41343
X23228Y40342
X23228Y37965
X23228Y36956
X24228Y41343
X24228Y40342
X24228Y37965
X24228Y36956
X25228Y41343
X25228Y40342
X25228Y37965
X25228Y36956
X26228Y41343
X26228Y40342
X26228Y37965
X26228Y36956
X28487Y41343
X28487Y40342
X28487Y37965
X28487Y36956
X29487Y41343
X29487Y40342
X29487Y37965
X29487Y36956
X30487Y41343
X30487Y40342
X30487Y37965
X30487Y36956
X31487Y41343
X31487Y40342
X31487Y37965
X31487Y36956
X32487Y41343
X32487Y40342
X32487Y37965
X32487Y36956
X33487Y41343
X33487Y40342
X33487Y37965
X33487Y36956
X34487Y41343
X34487Y40342
X34487Y37965
X34487Y36956
X35487Y41343
X35487Y40342
X35487Y37965
X35487Y36956
X36487Y41343
X36487Y40342
X36487Y37965
X36487Y36956
X37488Y41343
X37488Y40342
X37488Y37965
X37488Y36956
X38488Y41343
X38488Y40342
X38488Y37965
X38488Y36956
X39488Y41343
X39488Y40342
X39488Y37965
X39488Y36956
X40488Y41343
X40488Y40342
X40488Y37965
X40488Y36956
X42729Y41343
X42729Y40342
X42729Y37965
X42729Y36956
X43729Y41343
X43729Y40342
X43729Y37965
X43729Y36956
X44730Y41343
X44730Y40342
X44730Y37965
X44730Y36956
X45730Y41343
X45730Y40342
X45730Y37965
X45730Y36956
X46730Y41343
X46730Y40342
X46730Y37965
X46730Y36956
X47730Y41343
X47730Y40342
X47730Y37965
X47730Y36956
X21856Y4056
X20856Y4056
X19856Y4056
T05
X10560Y41110
X10560Y38866
X10560Y36622
X12527Y41110
X12527Y38866
X12527Y36622
X14502Y41110
X14502Y38866
X14502Y36622
X50488Y41110
X50488Y38866
X50488Y36622
X52455Y41110
X52455Y38866
X52455Y36622
X54422Y41110
X54422Y38866
X54422Y36622
T06
X11063Y7659
X11063Y5494
X12717Y7659
X12717Y5494
X14370Y7659
X14370Y5494
T07
X6526Y41986
X58022Y41986
T08
X51370Y4125
X56110Y4125
T09
X36870Y7085
X49350Y7085
T10
X11063Y2620
X14370Y2620
T11
X7335Y43913
X57222Y43913
T12
X1378Y44882
X3150Y1575
X61417Y1575
X63189Y44882
M30
