G75*
G70*
%OFA0B0*%
%FSLAX25Y25*%
%IPPOS*%
%LPD*%
%AMOC8*
5,1,8,0,0,1.08239X$1,22.5*
%
%AMM103*
21,1,0.035830,0.026770,-0.000000,0.000000,90.000000*
21,1,0.029130,0.033470,-0.000000,0.000000,90.000000*
1,1,0.006690,0.013390,0.014570*
1,1,0.006690,0.013390,-0.014570*
1,1,0.006690,-0.013390,-0.014570*
1,1,0.006690,-0.013390,0.014570*
%
%AMM104*
21,1,0.070870,0.036220,-0.000000,0.000000,180.000000*
21,1,0.061810,0.045280,-0.000000,0.000000,180.000000*
1,1,0.009060,-0.030910,0.018110*
1,1,0.009060,0.030910,0.018110*
1,1,0.009060,0.030910,-0.018110*
1,1,0.009060,-0.030910,-0.018110*
%
%AMM105*
21,1,0.033470,0.026770,-0.000000,0.000000,90.000000*
21,1,0.026770,0.033470,-0.000000,0.000000,90.000000*
1,1,0.006690,0.013390,0.013390*
1,1,0.006690,0.013390,-0.013390*
1,1,0.006690,-0.013390,-0.013390*
1,1,0.006690,-0.013390,0.013390*
%
%AMM139*
21,1,0.035830,0.026770,-0.000000,-0.000000,180.000000*
21,1,0.029130,0.033470,-0.000000,-0.000000,180.000000*
1,1,0.006690,-0.014570,0.013390*
1,1,0.006690,0.014570,0.013390*
1,1,0.006690,0.014570,-0.013390*
1,1,0.006690,-0.014570,-0.013390*
%
%AMM140*
21,1,0.070870,0.036220,-0.000000,-0.000000,270.000000*
21,1,0.061810,0.045280,-0.000000,-0.000000,270.000000*
1,1,0.009060,-0.018110,-0.030910*
1,1,0.009060,-0.018110,0.030910*
1,1,0.009060,0.018110,0.030910*
1,1,0.009060,0.018110,-0.030910*
%
%AMM143*
21,1,0.023620,0.018900,-0.000000,-0.000000,270.000000*
21,1,0.018900,0.023620,-0.000000,-0.000000,270.000000*
1,1,0.004720,-0.009450,-0.009450*
1,1,0.004720,-0.009450,0.009450*
1,1,0.004720,0.009450,0.009450*
1,1,0.004720,0.009450,-0.009450*
%
%AMM144*
21,1,0.019680,0.019680,-0.000000,-0.000000,180.000000*
21,1,0.015750,0.023620,-0.000000,-0.000000,180.000000*
1,1,0.003940,-0.007870,0.009840*
1,1,0.003940,0.007870,0.009840*
1,1,0.003940,0.007870,-0.009840*
1,1,0.003940,-0.007870,-0.009840*
%
%AMM145*
21,1,0.019680,0.019680,-0.000000,-0.000000,90.000000*
21,1,0.015750,0.023620,-0.000000,-0.000000,90.000000*
1,1,0.003940,0.009840,0.007870*
1,1,0.003940,0.009840,-0.007870*
1,1,0.003940,-0.009840,-0.007870*
1,1,0.003940,-0.009840,0.007870*
%
%AMM159*
21,1,0.106300,0.050390,-0.000000,-0.000000,270.000000*
21,1,0.093700,0.062990,-0.000000,-0.000000,270.000000*
1,1,0.012600,-0.025200,-0.046850*
1,1,0.012600,-0.025200,0.046850*
1,1,0.012600,0.025200,0.046850*
1,1,0.012600,0.025200,-0.046850*
%
%AMM160*
21,1,0.033470,0.026770,-0.000000,-0.000000,90.000000*
21,1,0.026770,0.033470,-0.000000,-0.000000,90.000000*
1,1,0.006690,0.013390,0.013390*
1,1,0.006690,0.013390,-0.013390*
1,1,0.006690,-0.013390,-0.013390*
1,1,0.006690,-0.013390,0.013390*
%
%AMM161*
21,1,0.023620,0.018900,-0.000000,-0.000000,0.000000*
21,1,0.018900,0.023620,-0.000000,-0.000000,0.000000*
1,1,0.004720,0.009450,-0.009450*
1,1,0.004720,-0.009450,-0.009450*
1,1,0.004720,-0.009450,0.009450*
1,1,0.004720,0.009450,0.009450*
%
%AMM162*
21,1,0.122050,0.075590,-0.000000,-0.000000,0.000000*
21,1,0.103150,0.094490,-0.000000,-0.000000,0.000000*
1,1,0.018900,0.051580,-0.037800*
1,1,0.018900,-0.051580,-0.037800*
1,1,0.018900,-0.051580,0.037800*
1,1,0.018900,0.051580,0.037800*
%
%AMM163*
21,1,0.118110,0.083460,-0.000000,-0.000000,180.000000*
21,1,0.097240,0.104330,-0.000000,-0.000000,180.000000*
1,1,0.020870,-0.048620,0.041730*
1,1,0.020870,0.048620,0.041730*
1,1,0.020870,0.048620,-0.041730*
1,1,0.020870,-0.048620,-0.041730*
%
%AMM169*
21,1,0.025590,0.026380,-0.000000,0.000000,0.000000*
21,1,0.020470,0.031500,-0.000000,0.000000,0.000000*
1,1,0.005120,0.010240,-0.013190*
1,1,0.005120,-0.010240,-0.013190*
1,1,0.005120,-0.010240,0.013190*
1,1,0.005120,0.010240,0.013190*
%
%AMM170*
21,1,0.017720,0.027950,-0.000000,0.000000,0.000000*
21,1,0.014170,0.031500,-0.000000,0.000000,0.000000*
1,1,0.003540,0.007090,-0.013980*
1,1,0.003540,-0.007090,-0.013980*
1,1,0.003540,-0.007090,0.013980*
1,1,0.003540,0.007090,0.013980*
%
%AMM173*
21,1,0.027560,0.018900,-0.000000,0.000000,180.000000*
21,1,0.022840,0.023620,-0.000000,0.000000,180.000000*
1,1,0.004720,-0.011420,0.009450*
1,1,0.004720,0.011420,0.009450*
1,1,0.004720,0.011420,-0.009450*
1,1,0.004720,-0.011420,-0.009450*
%
%AMM175*
21,1,0.027560,0.018900,-0.000000,0.000000,270.000000*
21,1,0.022840,0.023620,-0.000000,0.000000,270.000000*
1,1,0.004720,-0.009450,-0.011420*
1,1,0.004720,-0.009450,0.011420*
1,1,0.004720,0.009450,0.011420*
1,1,0.004720,0.009450,-0.011420*
%
%AMM177*
21,1,0.035430,0.030320,-0.000000,0.000000,0.000000*
21,1,0.028350,0.037400,-0.000000,0.000000,0.000000*
1,1,0.007090,0.014170,-0.015160*
1,1,0.007090,-0.014170,-0.015160*
1,1,0.007090,-0.014170,0.015160*
1,1,0.007090,0.014170,0.015160*
%
%AMM180*
21,1,0.027560,0.030710,-0.000000,0.000000,90.000000*
21,1,0.022050,0.036220,-0.000000,0.000000,90.000000*
1,1,0.005510,0.015350,0.011020*
1,1,0.005510,0.015350,-0.011020*
1,1,0.005510,-0.015350,-0.011020*
1,1,0.005510,-0.015350,0.011020*
%
%AMM201*
21,1,0.033470,0.026770,-0.000000,0.000000,180.000000*
21,1,0.026770,0.033470,-0.000000,0.000000,180.000000*
1,1,0.006690,-0.013390,0.013390*
1,1,0.006690,0.013390,0.013390*
1,1,0.006690,0.013390,-0.013390*
1,1,0.006690,-0.013390,-0.013390*
%
%AMM202*
21,1,0.025590,0.026380,-0.000000,0.000000,90.000000*
21,1,0.020470,0.031500,-0.000000,0.000000,90.000000*
1,1,0.005120,0.013190,0.010240*
1,1,0.005120,0.013190,-0.010240*
1,1,0.005120,-0.013190,-0.010240*
1,1,0.005120,-0.013190,0.010240*
%
%AMM203*
21,1,0.017720,0.027950,-0.000000,0.000000,90.000000*
21,1,0.014170,0.031500,-0.000000,0.000000,90.000000*
1,1,0.003540,0.013980,0.007090*
1,1,0.003540,0.013980,-0.007090*
1,1,0.003540,-0.013980,-0.007090*
1,1,0.003540,-0.013980,0.007090*
%
%AMM204*
21,1,0.078740,0.045670,-0.000000,0.000000,270.000000*
21,1,0.067320,0.057090,-0.000000,0.000000,270.000000*
1,1,0.011420,-0.022840,-0.033660*
1,1,0.011420,-0.022840,0.033660*
1,1,0.011420,0.022840,0.033660*
1,1,0.011420,0.022840,-0.033660*
%
%AMM205*
21,1,0.059060,0.020470,-0.000000,0.000000,270.000000*
21,1,0.053940,0.025590,-0.000000,0.000000,270.000000*
1,1,0.005120,-0.010240,-0.026970*
1,1,0.005120,-0.010240,0.026970*
1,1,0.005120,0.010240,0.026970*
1,1,0.005120,0.010240,-0.026970*
%
%AMM206*
21,1,0.035430,0.030320,-0.000000,0.000000,270.000000*
21,1,0.028350,0.037400,-0.000000,0.000000,270.000000*
1,1,0.007090,-0.015160,-0.014170*
1,1,0.007090,-0.015160,0.014170*
1,1,0.007090,0.015160,0.014170*
1,1,0.007090,0.015160,-0.014170*
%
%AMM207*
21,1,0.012600,0.028980,-0.000000,0.000000,270.000000*
21,1,0.010080,0.031500,-0.000000,0.000000,270.000000*
1,1,0.002520,-0.014490,-0.005040*
1,1,0.002520,-0.014490,0.005040*
1,1,0.002520,0.014490,0.005040*
1,1,0.002520,0.014490,-0.005040*
%
%AMM208*
21,1,0.070870,0.036220,-0.000000,0.000000,90.000000*
21,1,0.061810,0.045280,-0.000000,0.000000,90.000000*
1,1,0.009060,0.018110,0.030910*
1,1,0.009060,0.018110,-0.030910*
1,1,0.009060,-0.018110,-0.030910*
1,1,0.009060,-0.018110,0.030910*
%
%AMM209*
21,1,0.027560,0.049610,-0.000000,0.000000,90.000000*
21,1,0.022050,0.055120,-0.000000,0.000000,90.000000*
1,1,0.005510,0.024800,0.011020*
1,1,0.005510,0.024800,-0.011020*
1,1,0.005510,-0.024800,-0.011020*
1,1,0.005510,-0.024800,0.011020*
%
%AMM210*
21,1,0.027560,0.030710,-0.000000,0.000000,180.000000*
21,1,0.022050,0.036220,-0.000000,0.000000,180.000000*
1,1,0.005510,-0.011020,0.015350*
1,1,0.005510,0.011020,0.015350*
1,1,0.005510,0.011020,-0.015350*
1,1,0.005510,-0.011020,-0.015350*
%
%AMM229*
21,1,0.023620,0.018900,0.000000,-0.000000,90.000000*
21,1,0.018900,0.023620,0.000000,-0.000000,90.000000*
1,1,0.004720,0.009450,0.009450*
1,1,0.004720,0.009450,-0.009450*
1,1,0.004720,-0.009450,-0.009450*
1,1,0.004720,-0.009450,0.009450*
%
%AMM230*
21,1,0.019680,0.019680,0.000000,-0.000000,180.000000*
21,1,0.015750,0.023620,0.000000,-0.000000,180.000000*
1,1,0.003940,-0.007870,0.009840*
1,1,0.003940,0.007870,0.009840*
1,1,0.003940,0.007870,-0.009840*
1,1,0.003940,-0.007870,-0.009840*
%
%AMM231*
21,1,0.033470,0.026770,0.000000,-0.000000,180.000000*
21,1,0.026770,0.033470,0.000000,-0.000000,180.000000*
1,1,0.006690,-0.013390,0.013390*
1,1,0.006690,0.013390,0.013390*
1,1,0.006690,0.013390,-0.013390*
1,1,0.006690,-0.013390,-0.013390*
%
%AMM232*
21,1,0.019680,0.019680,0.000000,-0.000000,270.000000*
21,1,0.015750,0.023620,0.000000,-0.000000,270.000000*
1,1,0.003940,-0.009840,-0.007870*
1,1,0.003940,-0.009840,0.007870*
1,1,0.003940,0.009840,0.007870*
1,1,0.003940,0.009840,-0.007870*
%
%ADD120O,0.01968X0.08661*%
%ADD200R,0.01378X0.01476*%
%ADD206R,0.01476X0.01378*%
%ADD237R,0.05709X0.01772*%
%ADD238R,0.04803X0.02559*%
%ADD268M103*%
%ADD269M104*%
%ADD270M105*%
%ADD315M139*%
%ADD316M140*%
%ADD319M143*%
%ADD320M144*%
%ADD321M145*%
%ADD335M159*%
%ADD336M160*%
%ADD337M161*%
%ADD338M162*%
%ADD339M163*%
%ADD345M169*%
%ADD346M170*%
%ADD350M173*%
%ADD352M175*%
%ADD354M177*%
%ADD357M180*%
%ADD38R,0.14567X0.00787*%
%ADD380M201*%
%ADD381M202*%
%ADD382M203*%
%ADD383M204*%
%ADD384M205*%
%ADD385M206*%
%ADD386M207*%
%ADD387O,0.00984X0.04961*%
%ADD388M208*%
%ADD389R,0.06693X0.09449*%
%ADD39R,0.01575X0.00787*%
%ADD390M209*%
%ADD391R,0.04331X0.03937*%
%ADD392M210*%
%ADD40R,0.06299X0.00787*%
%ADD41R,0.38189X0.00787*%
%ADD42R,0.09055X0.00787*%
%ADD43R,0.00787X0.05512*%
%ADD430M229*%
%ADD431M230*%
%ADD432M231*%
%ADD433M232*%
%ADD44R,0.00787X0.25197*%
%ADD45R,0.00787X0.06693*%
%ADD46R,0.00787X0.12992*%
%ADD47R,0.27559X0.00787*%
%ADD48R,0.12992X0.00787*%
%ADD49R,0.24803X0.00787*%
X0000000Y0000000D02*
%LPD*%
G01*
X0600012Y0330500D02*
G01*
G75*
D315*
X0570097Y0254122D02*
D03*
X0583089Y0254122D02*
D03*
D316*
X0550237Y0253728D02*
D03*
X0561654Y0253728D02*
D03*
X0550237Y0261760D02*
D03*
X0561654Y0261760D02*
D03*
D319*
X0587610Y0275776D02*
D03*
X0587610Y0271839D02*
D03*
X0590957Y0261209D02*
D03*
X0582295Y0261209D02*
D03*
X0591744Y0266457D02*
D03*
X0583083Y0266457D02*
D03*
D320*
X0579857Y0319083D02*
D03*
X0583401Y0319083D02*
D03*
X0570466Y0282350D02*
D03*
X0566922Y0282350D02*
D03*
X0578463Y0267245D02*
D03*
X0574920Y0267245D02*
D03*
X0571239Y0319083D02*
D03*
X0574782Y0319083D02*
D03*
X0591744Y0315146D02*
D03*
X0588201Y0315146D02*
D03*
D321*
X0566259Y0265670D02*
D03*
X0566259Y0262126D02*
D03*
X0587026Y0253268D02*
D03*
X0587026Y0256812D02*
D03*
X0538262Y0311585D02*
D03*
X0538262Y0308041D02*
D03*
D335*
X0550799Y0274201D02*
D03*
X0561823Y0274201D02*
D03*
D336*
X0583477Y0278524D02*
D03*
X0583477Y0272304D02*
D03*
X0569383Y0278524D02*
D03*
X0569383Y0272304D02*
D03*
X0574074Y0278524D02*
D03*
X0574074Y0272304D02*
D03*
X0578766Y0278524D02*
D03*
X0578766Y0272304D02*
D03*
X0570564Y0266280D02*
D03*
X0570564Y0260059D02*
D03*
D337*
X0580054Y0315146D02*
D03*
X0583991Y0315146D02*
D03*
X0575373Y0315146D02*
D03*
X0571436Y0315146D02*
D03*
X0578660Y0261209D02*
D03*
X0574723Y0261209D02*
D03*
X0555727Y0282823D02*
D03*
X0551790Y0282823D02*
D03*
X0547951Y0320264D02*
D03*
X0551889Y0320264D02*
D03*
D120*
X0574940Y0308386D02*
D03*
X0579940Y0308386D02*
D03*
X0584940Y0308386D02*
D03*
X0589940Y0308386D02*
D03*
X0574940Y0285749D02*
D03*
X0579940Y0285749D02*
D03*
X0584940Y0285749D02*
D03*
X0589940Y0285749D02*
D03*
X0551873Y0313669D02*
D03*
X0556873Y0313669D02*
D03*
X0561873Y0313669D02*
D03*
X0566873Y0313669D02*
D03*
X0551873Y0290244D02*
D03*
X0556873Y0290244D02*
D03*
X0561873Y0290244D02*
D03*
X0566873Y0290244D02*
D03*
D338*
X0582440Y0297068D02*
D03*
D339*
X0559373Y0301957D02*
D03*
X0347933Y0110728D02*
G01*
G75*
D46*
X0206594Y0164075D02*
D03*
D45*
X0206594Y0150295D02*
D03*
D48*
X0312697Y0244193D02*
D03*
D43*
X0206594Y0202460D02*
D03*
X0347539Y0118208D02*
D03*
D44*
X0347539Y0231988D02*
D03*
X0206594Y0126476D02*
D03*
D41*
X0311909Y0111122D02*
D03*
D42*
X0343405Y0111122D02*
D03*
D40*
X0258169Y0111122D02*
D03*
D49*
X0335531Y0244193D02*
D03*
D47*
X0219980Y0244193D02*
D03*
D38*
X0240650Y0111122D02*
D03*
X0216634Y0111122D02*
D03*
D39*
X0228642Y0111122D02*
D03*
X0254232Y0244193D02*
D03*
D345*
X0262894Y0162697D02*
D03*
X0288189Y0162697D02*
D03*
X0272933Y0162697D02*
D03*
X0278149Y0162697D02*
D03*
X0247638Y0155610D02*
D03*
X0247638Y0162697D02*
D03*
X0257677Y0162697D02*
D03*
X0257677Y0155610D02*
D03*
X0288189Y0155610D02*
D03*
X0278149Y0155610D02*
D03*
X0272933Y0155610D02*
D03*
X0262894Y0155610D02*
D03*
D346*
X0266339Y0162697D02*
D03*
X0281594Y0162697D02*
D03*
X0269488Y0162697D02*
D03*
X0284744Y0162697D02*
D03*
X0254232Y0162697D02*
D03*
X0251083Y0162697D02*
D03*
X0251083Y0155610D02*
D03*
X0254232Y0155610D02*
D03*
X0281594Y0155610D02*
D03*
X0284744Y0155610D02*
D03*
X0266339Y0155610D02*
D03*
X0269488Y0155610D02*
D03*
D350*
X0209744Y0164665D02*
D03*
X0209744Y0160728D02*
D03*
X0213287Y0159153D02*
D03*
X0213287Y0155216D02*
D03*
X0230610Y0167027D02*
D03*
X0230610Y0163090D02*
D03*
X0288312Y0195680D02*
D03*
X0288312Y0191743D02*
D03*
X0288312Y0187484D02*
D03*
X0288312Y0183547D02*
D03*
X0255845Y0144162D02*
D03*
X0255845Y0140225D02*
D03*
X0259568Y0144162D02*
D03*
X0259568Y0140225D02*
D03*
X0222736Y0141746D02*
D03*
X0222736Y0145683D02*
D03*
X0211803Y0230380D02*
D03*
X0212042Y0194632D02*
D03*
X0288312Y0209547D02*
D03*
X0234154Y0177263D02*
D03*
X0238484Y0177263D02*
D03*
X0242703Y0173833D02*
D03*
X0242648Y0162556D02*
D03*
X0272308Y0182972D02*
D03*
X0272308Y0174183D02*
D03*
X0280793Y0170246D02*
D03*
X0310659Y0235163D02*
D03*
X0292815Y0209547D02*
D03*
X0209744Y0168602D02*
D03*
X0242739Y0155216D02*
D03*
X0241341Y0133563D02*
D03*
X0241341Y0119498D02*
D03*
X0245571Y0133563D02*
D03*
X0245571Y0119498D02*
D03*
X0292479Y0159201D02*
D03*
X0294390Y0114665D02*
D03*
X0234154Y0181200D02*
D03*
X0272308Y0170246D02*
D03*
X0272308Y0179035D02*
D03*
X0276796Y0179035D02*
D03*
X0276796Y0182972D02*
D03*
X0296752Y0237106D02*
D03*
X0296752Y0233169D02*
D03*
X0310659Y0231226D02*
D03*
X0239835Y0145781D02*
D03*
X0239835Y0141844D02*
D03*
X0241341Y0115560D02*
D03*
X0242739Y0159153D02*
D03*
X0280793Y0174183D02*
D03*
X0242648Y0166493D02*
D03*
X0242703Y0169896D02*
D03*
X0245571Y0129626D02*
D03*
X0292479Y0155264D02*
D03*
X0294390Y0118602D02*
D03*
X0212042Y0190695D02*
D03*
X0209744Y0164665D02*
D03*
X0234768Y0137893D02*
D03*
X0234768Y0133956D02*
D03*
X0241341Y0129626D02*
D03*
X0292815Y0213484D02*
D03*
X0288312Y0213484D02*
D03*
X0238484Y0181200D02*
D03*
X0211803Y0226443D02*
D03*
X0211803Y0217127D02*
D03*
X0211803Y0221064D02*
D03*
X0245571Y0123435D02*
D03*
X0290453Y0114665D02*
D03*
X0290453Y0118602D02*
D03*
X0278051Y0114665D02*
D03*
X0278051Y0118602D02*
D03*
X0273917Y0114665D02*
D03*
X0273917Y0118602D02*
D03*
X0265649Y0114665D02*
D03*
X0265649Y0118602D02*
D03*
X0269783Y0114665D02*
D03*
X0269783Y0118602D02*
D03*
X0261516Y0114665D02*
D03*
X0261516Y0118602D02*
D03*
X0282185Y0114665D02*
D03*
X0282185Y0118602D02*
D03*
X0286319Y0114665D02*
D03*
X0286319Y0118602D02*
D03*
D352*
X0258957Y0169655D02*
D03*
X0254724Y0169655D02*
D03*
X0342815Y0215059D02*
D03*
X0342815Y0210334D02*
D03*
X0342815Y0205610D02*
D03*
X0342815Y0200886D02*
D03*
X0214468Y0130807D02*
D03*
X0214468Y0134941D02*
D03*
X0306689Y0226121D02*
D03*
X0302752Y0226121D02*
D03*
X0215650Y0115192D02*
D03*
X0219586Y0115192D02*
D03*
X0250787Y0169655D02*
D03*
X0262894Y0169655D02*
D03*
X0307185Y0221949D02*
D03*
X0303248Y0221949D02*
D03*
X0334961Y0197176D02*
D03*
X0331024Y0197176D02*
D03*
X0331024Y0200886D02*
D03*
X0334961Y0200886D02*
D03*
X0320374Y0200886D02*
D03*
X0324311Y0200886D02*
D03*
X0338878Y0200886D02*
D03*
X0338878Y0205610D02*
D03*
X0338878Y0215059D02*
D03*
X0338878Y0210334D02*
D03*
X0305684Y0116227D02*
D03*
X0301747Y0116227D02*
D03*
X0302657Y0166437D02*
D03*
X0306594Y0166437D02*
D03*
X0312894Y0166437D02*
D03*
X0316831Y0166437D02*
D03*
X0302657Y0138484D02*
D03*
X0306594Y0138484D02*
D03*
X0328051Y0161909D02*
D03*
X0324114Y0161909D02*
D03*
X0328051Y0132579D02*
D03*
X0324114Y0132579D02*
D03*
X0328051Y0119783D02*
D03*
X0324114Y0119783D02*
D03*
X0334961Y0136675D02*
D03*
X0338898Y0136675D02*
D03*
X0335335Y0115059D02*
D03*
X0331398Y0115059D02*
D03*
X0338484Y0115256D02*
D03*
X0342421Y0115256D02*
D03*
X0227176Y0115192D02*
D03*
X0223239Y0115192D02*
D03*
X0210531Y0130807D02*
D03*
X0210531Y0134941D02*
D03*
X0324114Y0138681D02*
D03*
X0328051Y0138681D02*
D03*
X0324114Y0143011D02*
D03*
X0328051Y0143011D02*
D03*
X0324114Y0151476D02*
D03*
X0328051Y0151476D02*
D03*
X0338898Y0155642D02*
D03*
X0334961Y0155642D02*
D03*
X0306594Y0194389D02*
D03*
X0302657Y0194389D02*
D03*
X0324114Y0124114D02*
D03*
X0328051Y0124114D02*
D03*
X0338898Y0174485D02*
D03*
X0334961Y0174485D02*
D03*
X0324114Y0170374D02*
D03*
X0328051Y0170374D02*
D03*
X0324114Y0157579D02*
D03*
X0328051Y0157579D02*
D03*
X0338898Y0193465D02*
D03*
X0334961Y0193465D02*
D03*
X0324114Y0189272D02*
D03*
X0328051Y0189272D02*
D03*
X0324114Y0180807D02*
D03*
X0328051Y0180807D02*
D03*
X0324114Y0176476D02*
D03*
X0328051Y0176476D02*
D03*
X0320374Y0194253D02*
D03*
X0324311Y0194253D02*
D03*
D354*
X0217677Y0150285D02*
D03*
X0227152Y0142545D02*
D03*
X0250522Y0124212D02*
D03*
D357*
X0219094Y0197933D02*
D03*
X0219094Y0191633D02*
D03*
X0217716Y0161319D02*
D03*
X0217716Y0155019D02*
D03*
X0222342Y0161319D02*
D03*
X0222342Y0155019D02*
D03*
D354*
X0254263Y0133464D02*
D03*
X0234632Y0142545D02*
D03*
X0230892Y0151797D02*
D03*
X0210197Y0150285D02*
D03*
X0213937Y0141033D02*
D03*
X0258003Y0124212D02*
D03*
D380*
X0227539Y0158759D02*
D03*
X0233760Y0158759D02*
D03*
D381*
X0298327Y0188189D02*
D03*
X0305413Y0188189D02*
D03*
X0305413Y0178149D02*
D03*
X0298327Y0178149D02*
D03*
X0305413Y0160236D02*
D03*
X0305413Y0132283D02*
D03*
X0309350Y0150197D02*
D03*
X0334547Y0205315D02*
D03*
X0327461Y0205315D02*
D03*
X0327461Y0215354D02*
D03*
X0334547Y0215354D02*
D03*
X0316437Y0122244D02*
D03*
X0309350Y0122244D02*
D03*
X0309350Y0132283D02*
D03*
X0316437Y0132283D02*
D03*
X0298327Y0132283D02*
D03*
X0305413Y0122244D02*
D03*
X0298327Y0122244D02*
D03*
X0316437Y0150197D02*
D03*
X0309350Y0160236D02*
D03*
X0316437Y0160236D02*
D03*
X0298327Y0160236D02*
D03*
X0305413Y0150197D02*
D03*
X0298327Y0150197D02*
D03*
X0340256Y0151181D02*
D03*
X0333169Y0151181D02*
D03*
X0333169Y0141141D02*
D03*
X0340256Y0141141D02*
D03*
X0340256Y0132283D02*
D03*
X0333169Y0132283D02*
D03*
X0333169Y0122244D02*
D03*
X0340256Y0122244D02*
D03*
X0340256Y0170079D02*
D03*
X0333169Y0170079D02*
D03*
X0333169Y0160039D02*
D03*
X0340256Y0160039D02*
D03*
X0340256Y0188976D02*
D03*
X0333169Y0188976D02*
D03*
X0333169Y0178937D02*
D03*
X0340256Y0178937D02*
D03*
X0316437Y0188189D02*
D03*
X0309350Y0188189D02*
D03*
X0309350Y0178149D02*
D03*
X0316437Y0178149D02*
D03*
X0316437Y0215748D02*
D03*
X0309350Y0215748D02*
D03*
X0309350Y0205708D02*
D03*
X0316437Y0205708D02*
D03*
X0298327Y0205708D02*
D03*
X0305413Y0205708D02*
D03*
X0305413Y0215748D02*
D03*
X0298327Y0215748D02*
D03*
D382*
X0305413Y0181594D02*
D03*
X0305413Y0184744D02*
D03*
X0298327Y0184744D02*
D03*
X0298327Y0181594D02*
D03*
X0305413Y0156791D02*
D03*
X0305413Y0128838D02*
D03*
X0309350Y0153641D02*
D03*
X0327461Y0211909D02*
D03*
X0327461Y0208760D02*
D03*
X0334547Y0208760D02*
D03*
X0334547Y0211909D02*
D03*
X0309350Y0128838D02*
D03*
X0309350Y0125689D02*
D03*
X0316437Y0125689D02*
D03*
X0316437Y0128838D02*
D03*
X0305413Y0125689D02*
D03*
X0298327Y0128838D02*
D03*
X0298327Y0125689D02*
D03*
X0309350Y0156791D02*
D03*
X0316437Y0153641D02*
D03*
X0316437Y0156791D02*
D03*
X0305413Y0153642D02*
D03*
X0298327Y0156791D02*
D03*
X0298327Y0153642D02*
D03*
X0340256Y0147736D02*
D03*
X0340256Y0144586D02*
D03*
X0333169Y0144586D02*
D03*
X0333169Y0147736D02*
D03*
X0340256Y0128839D02*
D03*
X0340256Y0125689D02*
D03*
X0333169Y0125689D02*
D03*
X0333169Y0128839D02*
D03*
X0340256Y0166634D02*
D03*
X0340256Y0163484D02*
D03*
X0333169Y0163484D02*
D03*
X0333169Y0166634D02*
D03*
X0340256Y0185531D02*
D03*
X0340256Y0182382D02*
D03*
X0333169Y0182382D02*
D03*
X0333169Y0185531D02*
D03*
X0316437Y0184744D02*
D03*
X0316437Y0181594D02*
D03*
X0309350Y0181594D02*
D03*
X0309350Y0184744D02*
D03*
X0316437Y0212303D02*
D03*
X0316437Y0209153D02*
D03*
X0309350Y0209153D02*
D03*
X0309350Y0212303D02*
D03*
X0298327Y0209153D02*
D03*
X0298327Y0212303D02*
D03*
X0305413Y0212303D02*
D03*
X0305413Y0209153D02*
D03*
D270*
X0221063Y0220531D02*
D03*
X0216073Y0220531D02*
D03*
X0216073Y0214311D02*
D03*
X0221063Y0214311D02*
D03*
D383*
X0227953Y0233169D02*
D03*
X0227953Y0200492D02*
D03*
X0282086Y0233169D02*
D03*
X0282086Y0200492D02*
D03*
D384*
X0245984Y0222933D02*
D03*
X0237323Y0222933D02*
D03*
X0241653Y0222933D02*
D03*
X0250315Y0222933D02*
D03*
X0254646Y0222933D02*
D03*
X0258976Y0222933D02*
D03*
X0263307Y0222933D02*
D03*
X0267638Y0222933D02*
D03*
D385*
X0326594Y0241240D02*
D03*
X0326594Y0228036D02*
D03*
X0334626Y0233759D02*
D03*
X0334626Y0220556D02*
D03*
X0317342Y0237500D02*
D03*
X0317342Y0224296D02*
D03*
X0343878Y0224296D02*
D03*
X0228957Y0136122D02*
D03*
X0219705Y0132382D02*
D03*
X0343878Y0237500D02*
D03*
D206*
X0300821Y0235163D02*
D03*
X0300821Y0231226D02*
D03*
X0306825Y0235163D02*
D03*
X0306825Y0233195D02*
D03*
X0300821Y0233195D02*
D03*
X0306825Y0231226D02*
D03*
D386*
X0244173Y0144598D02*
D03*
X0244173Y0139480D02*
D03*
X0244173Y0142039D02*
D03*
X0251654Y0144598D02*
D03*
X0251654Y0139480D02*
D03*
D387*
X0263681Y0147815D02*
D03*
X0266240Y0124823D02*
D03*
X0263681Y0124823D02*
D03*
X0286712Y0147815D02*
D03*
X0289271Y0124823D02*
D03*
X0291831Y0124823D02*
D03*
X0286712Y0124823D02*
D03*
X0284153Y0124823D02*
D03*
X0281594Y0124823D02*
D03*
X0279035Y0124823D02*
D03*
X0276476Y0124823D02*
D03*
X0273917Y0124823D02*
D03*
X0271358Y0124823D02*
D03*
X0268799Y0124823D02*
D03*
X0291831Y0147815D02*
D03*
X0289271Y0147815D02*
D03*
X0284153Y0147815D02*
D03*
X0281594Y0147815D02*
D03*
X0279035Y0147815D02*
D03*
X0276476Y0147815D02*
D03*
X0273917Y0147815D02*
D03*
X0271358Y0147815D02*
D03*
X0268799Y0147815D02*
D03*
X0266240Y0147815D02*
D03*
D388*
X0226094Y0121752D02*
D03*
X0214676Y0121752D02*
D03*
D268*
X0223959Y0179842D02*
D03*
X0223959Y0166850D02*
D03*
X0235159Y0115765D02*
D03*
X0235159Y0128757D02*
D03*
D389*
X0249364Y0178617D02*
D03*
X0263931Y0178617D02*
D03*
D200*
X0304807Y0230193D02*
D03*
X0302839Y0230193D02*
D03*
X0302839Y0236197D02*
D03*
X0304807Y0236197D02*
D03*
D390*
X0236841Y0165206D02*
D03*
X0236841Y0171111D02*
D03*
D385*
X0326594Y0233759D02*
D03*
X0326594Y0220556D02*
D03*
X0334626Y0228036D02*
D03*
X0228957Y0128641D02*
D03*
X0334626Y0241240D02*
D03*
D391*
X0287500Y0168009D02*
D03*
X0287500Y0174702D02*
D03*
D269*
X0213963Y0184370D02*
D03*
X0213963Y0172953D02*
D03*
D392*
X0248327Y0115453D02*
D03*
X0254626Y0115453D02*
D03*
X0292224Y0090256D02*
%LPD*%
G01*
G36*
G01*
X0212519Y0082897D02*
X0212519Y0081539D01*
G75*
G02*
X0211939Y0080958I-000581J0000000D01*
G01*
X0210777Y0080958D01*
G75*
G02*
X0210196Y0081539I0000000J0000581D01*
G01*
X0210196Y0082897D01*
G75*
G02*
X0210777Y0083478I0000581J0000000D01*
G01*
X0211939Y0083478D01*
G75*
G02*
X0212519Y0082897I0000000J-000581D01*
G01*
G37*
G36*
G01*
X0208700Y0082897D02*
X0208700Y0081539D01*
G75*
G02*
X0208120Y0080958I-000581J0000000D01*
G01*
X0206958Y0080958D01*
G75*
G02*
X0206378Y0081539I0000000J0000581D01*
G01*
X0206378Y0082897D01*
G75*
G02*
X0206958Y0083478I0000581J0000000D01*
G01*
X0208120Y0083478D01*
G75*
G02*
X0208700Y0082897I0000000J-000581D01*
G01*
G37*
G36*
G01*
X0198051Y0067608D02*
X0198051Y0066250D01*
G75*
G02*
X0197470Y0065669I-000581J0000000D01*
G01*
X0196309Y0065669D01*
G75*
G02*
X0195728Y0066250I0000000J0000581D01*
G01*
X0195728Y0067608D01*
G75*
G02*
X0196309Y0068189I0000581J0000000D01*
G01*
X0197470Y0068189D01*
G75*
G02*
X0198051Y0067608I0000000J-000581D01*
G01*
G37*
G36*
G01*
X0194232Y0067608D02*
X0194232Y0066250D01*
G75*
G02*
X0193651Y0065669I-000581J0000000D01*
G01*
X0192490Y0065669D01*
G75*
G02*
X0191909Y0066250I0000000J0000581D01*
G01*
X0191909Y0067608D01*
G75*
G02*
X0192490Y0068189I0000581J0000000D01*
G01*
X0193651Y0068189D01*
G75*
G02*
X0194232Y0067608I0000000J-000581D01*
G01*
G37*
G36*
G01*
X0247933Y0041412D02*
X0247933Y0043430D01*
G75*
G02*
X0248794Y0044291I0000861J0000000D01*
G01*
X0250516Y0044291D01*
G75*
G02*
X0251378Y0043430I0000000J-000861D01*
G01*
X0251378Y0041412D01*
G75*
G02*
X0250516Y0040551I-000861J0000000D01*
G01*
X0248794Y0040551D01*
G75*
G02*
X0247933Y0041412I0000000J0000861D01*
G01*
G37*
G36*
G01*
X0254133Y0041412D02*
X0254133Y0043430D01*
G75*
G02*
X0254995Y0044291I0000861J0000000D01*
G01*
X0256717Y0044291D01*
G75*
G02*
X0257578Y0043430I0000000J-000861D01*
G01*
X0257578Y0041412D01*
G75*
G02*
X0256717Y0040551I-000861J0000000D01*
G01*
X0254995Y0040551D01*
G75*
G02*
X0254133Y0041412I0000000J0000861D01*
G01*
G37*
G36*
G01*
X0206378Y0085738D02*
X0206378Y0087097D01*
G75*
G02*
X0206958Y0087677I0000581J0000000D01*
G01*
X0208120Y0087677D01*
G75*
G02*
X0208700Y0087097I0000000J-000581D01*
G01*
X0208700Y0085738D01*
G75*
G02*
X0208120Y0085158I-000581J0000000D01*
G01*
X0206958Y0085158D01*
G75*
G02*
X0206378Y0085738I0000000J0000581D01*
G01*
G37*
G36*
G01*
X0210196Y0085738D02*
X0210196Y0087097D01*
G75*
G02*
X0210777Y0087677I0000581J0000000D01*
G01*
X0211939Y0087677D01*
G75*
G02*
X0212519Y0087097I0000000J-000581D01*
G01*
X0212519Y0085738D01*
G75*
G02*
X0211939Y0085158I-000581J0000000D01*
G01*
X0210777Y0085158D01*
G75*
G02*
X0210196Y0085738I0000000J0000581D01*
G01*
G37*
G36*
G01*
X0266079Y0046742D02*
X0266079Y0045384D01*
G75*
G02*
X0265499Y0044803I-000581J0000000D01*
G01*
X0264337Y0044803D01*
G75*
G02*
X0263757Y0045384I0000000J0000581D01*
G01*
X0263757Y0046742D01*
G75*
G02*
X0264337Y0047323I0000581J0000000D01*
G01*
X0265499Y0047323D01*
G75*
G02*
X0266079Y0046742I0000000J-000581D01*
G01*
G37*
G36*
G01*
X0262261Y0046742D02*
X0262261Y0045384D01*
G75*
G02*
X0261680Y0044803I-000581J0000000D01*
G01*
X0260518Y0044803D01*
G75*
G02*
X0259938Y0045384I0000000J0000581D01*
G01*
X0259938Y0046742D01*
G75*
G02*
X0260518Y0047323I0000581J0000000D01*
G01*
X0261680Y0047323D01*
G75*
G02*
X0262261Y0046742I0000000J-000581D01*
G01*
G37*
G36*
G01*
X0257992Y0048612D02*
X0257992Y0047254D01*
G75*
G02*
X0257411Y0046673I-000581J0000000D01*
G01*
X0256250Y0046673D01*
G75*
G02*
X0255669Y0047254I0000000J0000581D01*
G01*
X0255669Y0048612D01*
G75*
G02*
X0256250Y0049193I0000581J0000000D01*
G01*
X0257411Y0049193D01*
G75*
G02*
X0257992Y0048612I0000000J-000581D01*
G01*
G37*
G36*
G01*
X0254173Y0048612D02*
X0254173Y0047254D01*
G75*
G02*
X0253592Y0046673I-000581J0000000D01*
G01*
X0252431Y0046673D01*
G75*
G02*
X0251850Y0047254I0000000J0000581D01*
G01*
X0251850Y0048612D01*
G75*
G02*
X0252431Y0049193I0000581J0000000D01*
G01*
X0253592Y0049193D01*
G75*
G02*
X0254173Y0048612I0000000J-000581D01*
G01*
G37*
G36*
G01*
X0286604Y0041280D02*
X0285246Y0041280D01*
G75*
G02*
X0284665Y0041860I0000000J0000581D01*
G01*
X0284665Y0043022D01*
G75*
G02*
X0285246Y0043602I0000581J0000000D01*
G01*
X0286604Y0043602D01*
G75*
G02*
X0287185Y0043022I0000000J-000581D01*
G01*
X0287185Y0041860D01*
G75*
G02*
X0286604Y0041280I-000581J0000000D01*
G01*
G37*
G36*
G01*
X0286604Y0045099D02*
X0285246Y0045099D01*
G75*
G02*
X0284665Y0045679I0000000J0000581D01*
G01*
X0284665Y0046841D01*
G75*
G02*
X0285246Y0047421I0000581J0000000D01*
G01*
X0286604Y0047421D01*
G75*
G02*
X0287185Y0046841I0000000J-000581D01*
G01*
X0287185Y0045679D01*
G75*
G02*
X0286604Y0045099I-000581J0000000D01*
G01*
G37*
G36*
G01*
X0237086Y0058868D02*
X0237086Y0060226D01*
G75*
G02*
X0237667Y0060807I0000581J0000000D01*
G01*
X0238828Y0060807D01*
G75*
G02*
X0239409Y0060226I0000000J-000581D01*
G01*
X0239409Y0058868D01*
G75*
G02*
X0238828Y0058287I-000581J0000000D01*
G01*
X0237667Y0058287D01*
G75*
G02*
X0237086Y0058868I0000000J0000581D01*
G01*
G37*
G36*
G01*
X0240905Y0058868D02*
X0240905Y0060226D01*
G75*
G02*
X0241486Y0060807I0000581J0000000D01*
G01*
X0242647Y0060807D01*
G75*
G02*
X0243228Y0060226I0000000J-000581D01*
G01*
X0243228Y0058868D01*
G75*
G02*
X0242647Y0058287I-000581J0000000D01*
G01*
X0241486Y0058287D01*
G75*
G02*
X0240905Y0058868I0000000J0000581D01*
G01*
G37*
G36*
G01*
X0243228Y0064163D02*
X0243228Y0062805D01*
G75*
G02*
X0242647Y0062225I-000581J0000000D01*
G01*
X0241486Y0062225D01*
G75*
G02*
X0240905Y0062805I0000000J0000581D01*
G01*
X0240905Y0064163D01*
G75*
G02*
X0241486Y0064744I0000581J0000000D01*
G01*
X0242647Y0064744D01*
G75*
G02*
X0243228Y0064163I0000000J-000581D01*
G01*
G37*
G36*
G01*
X0239409Y0064163D02*
X0239409Y0062805D01*
G75*
G02*
X0238828Y0062225I-000581J0000000D01*
G01*
X0237667Y0062225D01*
G75*
G02*
X0237086Y0062805I0000000J0000581D01*
G01*
X0237086Y0064163D01*
G75*
G02*
X0237667Y0064744I0000581J0000000D01*
G01*
X0238828Y0064744D01*
G75*
G02*
X0239409Y0064163I0000000J-000581D01*
G01*
G37*
G36*
G01*
X0195748Y0061723D02*
X0195748Y0063081D01*
G75*
G02*
X0196328Y0063662I0000581J0000000D01*
G01*
X0197490Y0063662D01*
G75*
G02*
X0198070Y0063081I0000000J-000581D01*
G01*
X0198070Y0061723D01*
G75*
G02*
X0197490Y0061142I-000581J0000000D01*
G01*
X0196328Y0061142D01*
G75*
G02*
X0195748Y0061723I0000000J0000581D01*
G01*
G37*
G36*
G01*
X0199567Y0061723D02*
X0199567Y0063081D01*
G75*
G02*
X0200147Y0063662I0000581J0000000D01*
G01*
X0201309Y0063662D01*
G75*
G02*
X0201889Y0063081I0000000J-000581D01*
G01*
X0201889Y0061723D01*
G75*
G02*
X0201309Y0061142I-000581J0000000D01*
G01*
X0200147Y0061142D01*
G75*
G02*
X0199567Y0061723I0000000J0000581D01*
G01*
G37*
D237*
X0250098Y0085138D03*
X0250098Y0082579D03*
X0250098Y0080020D03*
X0250098Y0077461D03*
X0250098Y0074902D03*
X0250098Y0072343D03*
X0250098Y0069784D03*
X0226870Y0069784D03*
X0226870Y0072343D03*
X0226870Y0074902D03*
X0226870Y0077461D03*
X0226870Y0080020D03*
X0226870Y0082579D03*
X0226870Y0085138D03*
G36*
G01*
X0259921Y0041644D02*
X0259921Y0043002D01*
G75*
G02*
X0260502Y0043583I0000581J0000000D01*
G01*
X0261663Y0043583D01*
G75*
G02*
X0262244Y0043002I0000000J-000581D01*
G01*
X0262244Y0041644D01*
G75*
G02*
X0261663Y0041063I-000581J0000000D01*
G01*
X0260502Y0041063D01*
G75*
G02*
X0259921Y0041644I0000000J0000581D01*
G01*
G37*
G36*
G01*
X0263740Y0041644D02*
X0263740Y0043002D01*
G75*
G02*
X0264320Y0043583I0000581J0000000D01*
G01*
X0265482Y0043583D01*
G75*
G02*
X0266063Y0043002I0000000J-000581D01*
G01*
X0266063Y0041644D01*
G75*
G02*
X0265482Y0041063I-000581J0000000D01*
G01*
X0264320Y0041063D01*
G75*
G02*
X0263740Y0041644I0000000J0000581D01*
G01*
G37*
G36*
G01*
X0266063Y0039262D02*
X0266063Y0037904D01*
G75*
G02*
X0265482Y0037323I-000581J0000000D01*
G01*
X0264320Y0037323D01*
G75*
G02*
X0263740Y0037904I0000000J0000581D01*
G01*
X0263740Y0039262D01*
G75*
G02*
X0264320Y0039843I0000581J0000000D01*
G01*
X0265482Y0039843D01*
G75*
G02*
X0266063Y0039262I0000000J-000581D01*
G01*
G37*
G36*
G01*
X0262244Y0039262D02*
X0262244Y0037904D01*
G75*
G02*
X0261663Y0037323I-000581J0000000D01*
G01*
X0260502Y0037323D01*
G75*
G02*
X0259921Y0037904I0000000J0000581D01*
G01*
X0259921Y0039262D01*
G75*
G02*
X0260502Y0039843I0000581J0000000D01*
G01*
X0261663Y0039843D01*
G75*
G02*
X0262244Y0039262I0000000J-000581D01*
G01*
G37*
G36*
G01*
X0205826Y0048711D02*
X0205826Y0047352D01*
G75*
G02*
X0205246Y0046772I-000581J0000000D01*
G01*
X0204084Y0046772D01*
G75*
G02*
X0203504Y0047352I0000000J0000581D01*
G01*
X0203504Y0048711D01*
G75*
G02*
X0204084Y0049291I0000581J0000000D01*
G01*
X0205246Y0049291D01*
G75*
G02*
X0205826Y0048711I0000000J-000581D01*
G01*
G37*
G36*
G01*
X0202007Y0048711D02*
X0202007Y0047352D01*
G75*
G02*
X0201427Y0046772I-000581J0000000D01*
G01*
X0200265Y0046772D01*
G75*
G02*
X0199685Y0047352I0000000J0000581D01*
G01*
X0199685Y0048711D01*
G75*
G02*
X0200265Y0049291I0000581J0000000D01*
G01*
X0201427Y0049291D01*
G75*
G02*
X0202007Y0048711I0000000J-000581D01*
G01*
G37*
G36*
G01*
X0212519Y0078009D02*
X0212519Y0076650D01*
G75*
G02*
X0211939Y0076070I-000581J0000000D01*
G01*
X0210777Y0076070D01*
G75*
G02*
X0210196Y0076650I0000000J0000581D01*
G01*
X0210196Y0078009D01*
G75*
G02*
X0210777Y0078589I0000581J0000000D01*
G01*
X0211939Y0078589D01*
G75*
G02*
X0212519Y0078009I0000000J-000581D01*
G01*
G37*
G36*
G01*
X0208700Y0078009D02*
X0208700Y0076650D01*
G75*
G02*
X0208120Y0076070I-000581J0000000D01*
G01*
X0206958Y0076070D01*
G75*
G02*
X0206378Y0076650I0000000J0000581D01*
G01*
X0206378Y0078009D01*
G75*
G02*
X0206958Y0078589I0000581J0000000D01*
G01*
X0208120Y0078589D01*
G75*
G02*
X0208700Y0078009I0000000J-000581D01*
G01*
G37*
G36*
G01*
X0240334Y0054931D02*
X0240334Y0056289D01*
G75*
G02*
X0240915Y0056870I0000581J0000000D01*
G01*
X0242076Y0056870D01*
G75*
G02*
X0242657Y0056289I0000000J-000581D01*
G01*
X0242657Y0054931D01*
G75*
G02*
X0242076Y0054350I-000581J0000000D01*
G01*
X0240915Y0054350D01*
G75*
G02*
X0240334Y0054931I0000000J0000581D01*
G01*
G37*
G36*
G01*
X0244153Y0054931D02*
X0244153Y0056289D01*
G75*
G02*
X0244734Y0056870I0000581J0000000D01*
G01*
X0245895Y0056870D01*
G75*
G02*
X0246476Y0056289I0000000J-000581D01*
G01*
X0246476Y0054931D01*
G75*
G02*
X0245895Y0054350I-000581J0000000D01*
G01*
X0244734Y0054350D01*
G75*
G02*
X0244153Y0054931I0000000J0000581D01*
G01*
G37*
G36*
G01*
X0192007Y0047352D02*
X0192007Y0048711D01*
G75*
G02*
X0192588Y0049291I0000581J0000000D01*
G01*
X0193750Y0049291D01*
G75*
G02*
X0194330Y0048711I0000000J-000581D01*
G01*
X0194330Y0047352D01*
G75*
G02*
X0193750Y0046772I-000581J0000000D01*
G01*
X0192588Y0046772D01*
G75*
G02*
X0192007Y0047352I0000000J0000581D01*
G01*
G37*
G36*
G01*
X0195826Y0047352D02*
X0195826Y0048711D01*
G75*
G02*
X0196407Y0049291I0000581J0000000D01*
G01*
X0197568Y0049291D01*
G75*
G02*
X0198149Y0048711I0000000J-000581D01*
G01*
X0198149Y0047352D01*
G75*
G02*
X0197568Y0046772I-000581J0000000D01*
G01*
X0196407Y0046772D01*
G75*
G02*
X0195826Y0047352I0000000J0000581D01*
G01*
G37*
G36*
G01*
X0244468Y0062805D02*
X0244468Y0064163D01*
G75*
G02*
X0245049Y0064744I0000581J0000000D01*
G01*
X0246210Y0064744D01*
G75*
G02*
X0246791Y0064163I0000000J-000581D01*
G01*
X0246791Y0062805D01*
G75*
G02*
X0246210Y0062225I-000581J0000000D01*
G01*
X0245049Y0062225D01*
G75*
G02*
X0244468Y0062805I0000000J0000581D01*
G01*
G37*
G36*
G01*
X0248287Y0062805D02*
X0248287Y0064163D01*
G75*
G02*
X0248868Y0064744I0000581J0000000D01*
G01*
X0250029Y0064744D01*
G75*
G02*
X0250610Y0064163I0000000J-000581D01*
G01*
X0250610Y0062805D01*
G75*
G02*
X0250029Y0062225I-000581J0000000D01*
G01*
X0248868Y0062225D01*
G75*
G02*
X0248287Y0062805I0000000J0000581D01*
G01*
G37*
G36*
G01*
X0255718Y0087421D02*
X0257076Y0087421D01*
G75*
G02*
X0257657Y0086841I0000000J-000581D01*
G01*
X0257657Y0085679D01*
G75*
G02*
X0257076Y0085099I-000581J0000000D01*
G01*
X0255718Y0085099D01*
G75*
G02*
X0255137Y0085679I0000000J0000581D01*
G01*
X0255137Y0086841D01*
G75*
G02*
X0255718Y0087421I0000581J0000000D01*
G01*
G37*
G36*
G01*
X0255718Y0083602D02*
X0257076Y0083602D01*
G75*
G02*
X0257657Y0083022I0000000J-000581D01*
G01*
X0257657Y0081860D01*
G75*
G02*
X0257076Y0081280I-000581J0000000D01*
G01*
X0255718Y0081280D01*
G75*
G02*
X0255137Y0081860I0000000J0000581D01*
G01*
X0255137Y0083022D01*
G75*
G02*
X0255718Y0083602I0000581J0000000D01*
G01*
G37*
G36*
G01*
X0229606Y0058868D02*
X0229606Y0060226D01*
G75*
G02*
X0230187Y0060807I0000581J0000000D01*
G01*
X0231348Y0060807D01*
G75*
G02*
X0231929Y0060226I0000000J-000581D01*
G01*
X0231929Y0058868D01*
G75*
G02*
X0231348Y0058287I-000581J0000000D01*
G01*
X0230187Y0058287D01*
G75*
G02*
X0229606Y0058868I0000000J0000581D01*
G01*
G37*
G36*
G01*
X0233425Y0058868D02*
X0233425Y0060226D01*
G75*
G02*
X0234005Y0060807I0000581J0000000D01*
G01*
X0235167Y0060807D01*
G75*
G02*
X0235748Y0060226I0000000J-000581D01*
G01*
X0235748Y0058868D01*
G75*
G02*
X0235167Y0058287I-000581J0000000D01*
G01*
X0234005Y0058287D01*
G75*
G02*
X0233425Y0058868I0000000J0000581D01*
G01*
G37*
G36*
G01*
X0228267Y0060226D02*
X0228267Y0058868D01*
G75*
G02*
X0227687Y0058287I-000581J0000000D01*
G01*
X0226525Y0058287D01*
G75*
G02*
X0225944Y0058868I0000000J0000581D01*
G01*
X0225944Y0060226D01*
G75*
G02*
X0226525Y0060807I0000581J0000000D01*
G01*
X0227687Y0060807D01*
G75*
G02*
X0228267Y0060226I0000000J-000581D01*
G01*
G37*
G36*
G01*
X0224448Y0060226D02*
X0224448Y0058868D01*
G75*
G02*
X0223868Y0058287I-000581J0000000D01*
G01*
X0222706Y0058287D01*
G75*
G02*
X0222126Y0058868I0000000J0000581D01*
G01*
X0222126Y0060226D01*
G75*
G02*
X0222706Y0060807I0000581J0000000D01*
G01*
X0223868Y0060807D01*
G75*
G02*
X0224448Y0060226I0000000J-000581D01*
G01*
G37*
G36*
G01*
X0259458Y0087421D02*
X0260817Y0087421D01*
G75*
G02*
X0261397Y0086841I0000000J-000581D01*
G01*
X0261397Y0085679D01*
G75*
G02*
X0260817Y0085099I-000581J0000000D01*
G01*
X0259458Y0085099D01*
G75*
G02*
X0258878Y0085679I0000000J0000581D01*
G01*
X0258878Y0086841D01*
G75*
G02*
X0259458Y0087421I0000581J0000000D01*
G01*
G37*
G36*
G01*
X0259458Y0083602D02*
X0260817Y0083602D01*
G75*
G02*
X0261397Y0083022I0000000J-000581D01*
G01*
X0261397Y0081860D01*
G75*
G02*
X0260817Y0081280I-000581J0000000D01*
G01*
X0259458Y0081280D01*
G75*
G02*
X0258878Y0081860I0000000J0000581D01*
G01*
X0258878Y0083022D01*
G75*
G02*
X0259458Y0083602I0000581J0000000D01*
G01*
G37*
D238*
X0270137Y0038583D03*
X0270137Y0042323D03*
X0270137Y0046063D03*
X0280452Y0046063D03*
X0280452Y0038583D03*
G36*
G01*
X0235649Y0056289D02*
X0235649Y0054931D01*
G75*
G02*
X0235068Y0054350I-000581J0000000D01*
G01*
X0233907Y0054350D01*
G75*
G02*
X0233326Y0054931I0000000J0000581D01*
G01*
X0233326Y0056289D01*
G75*
G02*
X0233907Y0056870I0000581J0000000D01*
G01*
X0235068Y0056870D01*
G75*
G02*
X0235649Y0056289I0000000J-000581D01*
G01*
G37*
G36*
G01*
X0231830Y0056289D02*
X0231830Y0054931D01*
G75*
G02*
X0231250Y0054350I-000581J0000000D01*
G01*
X0230088Y0054350D01*
G75*
G02*
X0229507Y0054931I0000000J0000581D01*
G01*
X0229507Y0056289D01*
G75*
G02*
X0230088Y0056870I0000581J0000000D01*
G01*
X0231250Y0056870D01*
G75*
G02*
X0231830Y0056289I0000000J-000581D01*
G01*
G37*
G36*
G01*
X0248238Y0052185D02*
X0249596Y0052185D01*
G75*
G02*
X0250177Y0051604I0000000J-000581D01*
G01*
X0250177Y0050443D01*
G75*
G02*
X0249596Y0049862I-000581J0000000D01*
G01*
X0248238Y0049862D01*
G75*
G02*
X0247657Y0050443I0000000J0000581D01*
G01*
X0247657Y0051604D01*
G75*
G02*
X0248238Y0052185I0000581J0000000D01*
G01*
G37*
G36*
G01*
X0248238Y0048366D02*
X0249596Y0048366D01*
G75*
G02*
X0250177Y0047786I0000000J-000581D01*
G01*
X0250177Y0046624D01*
G75*
G02*
X0249596Y0046043I-000581J0000000D01*
G01*
X0248238Y0046043D01*
G75*
G02*
X0247657Y0046624I0000000J0000581D01*
G01*
X0247657Y0047786D01*
G75*
G02*
X0248238Y0048366I0000581J0000000D01*
G01*
G37*
G36*
G01*
X0257076Y0072618D02*
X0255718Y0072618D01*
G75*
G02*
X0255137Y0073199I0000000J0000581D01*
G01*
X0255137Y0074360D01*
G75*
G02*
X0255718Y0074941I0000581J0000000D01*
G01*
X0257076Y0074941D01*
G75*
G02*
X0257657Y0074360I0000000J-000581D01*
G01*
X0257657Y0073199D01*
G75*
G02*
X0257076Y0072618I-000581J0000000D01*
G01*
G37*
G36*
G01*
X0257076Y0076437D02*
X0255718Y0076437D01*
G75*
G02*
X0255137Y0077018I0000000J0000581D01*
G01*
X0255137Y0078179D01*
G75*
G02*
X0255718Y0078760I0000581J0000000D01*
G01*
X0257076Y0078760D01*
G75*
G02*
X0257657Y0078179I0000000J-000581D01*
G01*
X0257657Y0077018D01*
G75*
G02*
X0257076Y0076437I-000581J0000000D01*
G01*
G37*
G36*
G01*
X0213956Y0071663D02*
X0213956Y0073022D01*
G75*
G02*
X0214537Y0073602I0000581J0000000D01*
G01*
X0215698Y0073602D01*
G75*
G02*
X0216279Y0073022I0000000J-000581D01*
G01*
X0216279Y0071663D01*
G75*
G02*
X0215698Y0071083I-000581J0000000D01*
G01*
X0214537Y0071083D01*
G75*
G02*
X0213956Y0071663I0000000J0000581D01*
G01*
G37*
G36*
G01*
X0217775Y0071663D02*
X0217775Y0073022D01*
G75*
G02*
X0218356Y0073602I0000581J0000000D01*
G01*
X0219517Y0073602D01*
G75*
G02*
X0220098Y0073022I0000000J-000581D01*
G01*
X0220098Y0071663D01*
G75*
G02*
X0219517Y0071083I-000581J0000000D01*
G01*
X0218356Y0071083D01*
G75*
G02*
X0217775Y0071663I0000000J0000581D01*
G01*
G37*
G36*
G01*
X0206378Y0071663D02*
X0206378Y0073022D01*
G75*
G02*
X0206958Y0073602I0000581J0000000D01*
G01*
X0208120Y0073602D01*
G75*
G02*
X0208700Y0073022I0000000J-000581D01*
G01*
X0208700Y0071663D01*
G75*
G02*
X0208120Y0071083I-000581J0000000D01*
G01*
X0206958Y0071083D01*
G75*
G02*
X0206378Y0071663I0000000J0000581D01*
G01*
G37*
G36*
G01*
X0210196Y0071663D02*
X0210196Y0073022D01*
G75*
G02*
X0210777Y0073602I0000581J0000000D01*
G01*
X0211939Y0073602D01*
G75*
G02*
X0212519Y0073022I0000000J-000581D01*
G01*
X0212519Y0071663D01*
G75*
G02*
X0211939Y0071083I-000581J0000000D01*
G01*
X0210777Y0071083D01*
G75*
G02*
X0210196Y0071663I0000000J0000581D01*
G01*
G37*
G36*
G01*
X0260817Y0072618D02*
X0259458Y0072618D01*
G75*
G02*
X0258878Y0073199I0000000J0000581D01*
G01*
X0258878Y0074360D01*
G75*
G02*
X0259458Y0074941I0000581J0000000D01*
G01*
X0260817Y0074941D01*
G75*
G02*
X0261397Y0074360I0000000J-000581D01*
G01*
X0261397Y0073199D01*
G75*
G02*
X0260817Y0072618I-000581J0000000D01*
G01*
G37*
G36*
G01*
X0260817Y0076437D02*
X0259458Y0076437D01*
G75*
G02*
X0258878Y0077018I0000000J0000581D01*
G01*
X0258878Y0078179D01*
G75*
G02*
X0259458Y0078760I0000581J0000000D01*
G01*
X0260817Y0078760D01*
G75*
G02*
X0261397Y0078179I0000000J-000581D01*
G01*
X0261397Y0077018D01*
G75*
G02*
X0260817Y0076437I-000581J0000000D01*
G01*
G37*
G36*
G01*
X0226456Y0062805D02*
X0226456Y0064163D01*
G75*
G02*
X0227037Y0064744I0000581J0000000D01*
G01*
X0228198Y0064744D01*
G75*
G02*
X0228779Y0064163I0000000J-000581D01*
G01*
X0228779Y0062805D01*
G75*
G02*
X0228198Y0062225I-000581J0000000D01*
G01*
X0227037Y0062225D01*
G75*
G02*
X0226456Y0062805I0000000J0000581D01*
G01*
G37*
G36*
G01*
X0230275Y0062805D02*
X0230275Y0064163D01*
G75*
G02*
X0230856Y0064744I0000581J0000000D01*
G01*
X0232017Y0064744D01*
G75*
G02*
X0232598Y0064163I0000000J-000581D01*
G01*
X0232598Y0062805D01*
G75*
G02*
X0232017Y0062225I-000581J0000000D01*
G01*
X0230856Y0062225D01*
G75*
G02*
X0230275Y0062805I0000000J0000581D01*
G01*
G37*
G36*
G01*
X0264557Y0072618D02*
X0263198Y0072618D01*
G75*
G02*
X0262618Y0073199I0000000J0000581D01*
G01*
X0262618Y0074360D01*
G75*
G02*
X0263198Y0074941I0000581J0000000D01*
G01*
X0264557Y0074941D01*
G75*
G02*
X0265137Y0074360I0000000J-000581D01*
G01*
X0265137Y0073199D01*
G75*
G02*
X0264557Y0072618I-000581J0000000D01*
G01*
G37*
G36*
G01*
X0264557Y0076437D02*
X0263198Y0076437D01*
G75*
G02*
X0262618Y0077018I0000000J0000581D01*
G01*
X0262618Y0078179D01*
G75*
G02*
X0263198Y0078760I0000581J0000000D01*
G01*
X0264557Y0078760D01*
G75*
G02*
X0265137Y0078179I0000000J-000581D01*
G01*
X0265137Y0077018D01*
G75*
G02*
X0264557Y0076437I-000581J0000000D01*
G01*
G37*
G36*
G01*
X0264557Y0081280D02*
X0263198Y0081280D01*
G75*
G02*
X0262618Y0081860I0000000J0000581D01*
G01*
X0262618Y0083022D01*
G75*
G02*
X0263198Y0083602I0000581J0000000D01*
G01*
X0264557Y0083602D01*
G75*
G02*
X0265137Y0083022I0000000J-000581D01*
G01*
X0265137Y0081860D01*
G75*
G02*
X0264557Y0081280I-000581J0000000D01*
G01*
G37*
G36*
G01*
X0264557Y0085099D02*
X0263198Y0085099D01*
G75*
G02*
X0262618Y0085679I0000000J0000581D01*
G01*
X0262618Y0086841D01*
G75*
G02*
X0263198Y0087421I0000581J0000000D01*
G01*
X0264557Y0087421D01*
G75*
G02*
X0265137Y0086841I0000000J-000581D01*
G01*
X0265137Y0085679D01*
G75*
G02*
X0264557Y0085099I-000581J0000000D01*
G01*
G37*
G36*
G01*
X0279370Y0075473D02*
X0279370Y0074134D01*
G75*
G02*
X0278819Y0073583I-000551J0000000D01*
G01*
X0277716Y0073583D01*
G75*
G02*
X0277165Y0074134I0000000J0000551D01*
G01*
X0277165Y0075473D01*
G75*
G02*
X0277716Y0076024I0000551J0000000D01*
G01*
X0278819Y0076024D01*
G75*
G02*
X0279370Y0075473I0000000J-000551D01*
G01*
G37*
G36*
G01*
X0275590Y0075473D02*
X0275590Y0074134D01*
G75*
G02*
X0275039Y0073583I-000551J0000000D01*
G01*
X0273937Y0073583D01*
G75*
G02*
X0273386Y0074134I0000000J0000551D01*
G01*
X0273386Y0075473D01*
G75*
G02*
X0273937Y0076024I0000551J0000000D01*
G01*
X0275039Y0076024D01*
G75*
G02*
X0275590Y0075473I0000000J-000551D01*
G01*
G37*
G36*
G01*
X0224429Y0049213D02*
X0224429Y0050669D01*
G75*
G02*
X0224960Y0051201I0000531J0000000D01*
G01*
X0226023Y0051201D01*
G75*
G02*
X0226555Y0050669I0000000J-000531D01*
G01*
X0226555Y0049213D01*
G75*
G02*
X0226023Y0048681I-000531J0000000D01*
G01*
X0224960Y0048681D01*
G75*
G02*
X0224429Y0049213I0000000J0000531D01*
G01*
G37*
G36*
G01*
X0228444Y0049213D02*
X0228444Y0050669D01*
G75*
G02*
X0228976Y0051201I0000531J0000000D01*
G01*
X0230039Y0051201D01*
G75*
G02*
X0230570Y0050669I0000000J-000531D01*
G01*
X0230570Y0049213D01*
G75*
G02*
X0230039Y0048681I-000531J0000000D01*
G01*
X0228976Y0048681D01*
G75*
G02*
X0228444Y0049213I0000000J0000531D01*
G01*
G37*
G36*
G01*
X0285157Y0063746D02*
X0286614Y0063746D01*
G75*
G02*
X0287145Y0063214I0000000J-000531D01*
G01*
X0287145Y0062151D01*
G75*
G02*
X0286614Y0061620I-000531J0000000D01*
G01*
X0285157Y0061620D01*
G75*
G02*
X0284626Y0062151I0000000J0000531D01*
G01*
X0284626Y0063214D01*
G75*
G02*
X0285157Y0063746I0000531J0000000D01*
G01*
G37*
G36*
G01*
X0285157Y0059730D02*
X0286614Y0059730D01*
G75*
G02*
X0287145Y0059198I0000000J-000531D01*
G01*
X0287145Y0058135D01*
G75*
G02*
X0286614Y0057604I-000531J0000000D01*
G01*
X0285157Y0057604D01*
G75*
G02*
X0284626Y0058135I0000000J0000531D01*
G01*
X0284626Y0059198D01*
G75*
G02*
X0285157Y0059730I0000531J0000000D01*
G01*
G37*
G36*
G01*
X0284547Y0087697D02*
X0284547Y0086516D01*
G75*
G02*
X0283956Y0085925I-000591J0000000D01*
G01*
X0279330Y0085925D01*
G75*
G02*
X0278740Y0086516I0000000J0000591D01*
G01*
X0278740Y0087697D01*
G75*
G02*
X0279330Y0088287I0000591J0000000D01*
G01*
X0283956Y0088287D01*
G75*
G02*
X0284547Y0087697I0000000J-000591D01*
G01*
G37*
G36*
G01*
X0284547Y0080217D02*
X0284547Y0079036D01*
G75*
G02*
X0283956Y0078445I-000591J0000000D01*
G01*
X0279330Y0078445D01*
G75*
G02*
X0278740Y0079036I0000000J0000591D01*
G01*
X0278740Y0080217D01*
G75*
G02*
X0279330Y0080807I0000591J0000000D01*
G01*
X0283956Y0080807D01*
G75*
G02*
X0284547Y0080217I0000000J-000591D01*
G01*
G37*
G36*
G01*
X0277165Y0083957D02*
X0277165Y0082776D01*
G75*
G02*
X0276574Y0082185I-000591J0000000D01*
G01*
X0271948Y0082185D01*
G75*
G02*
X0271358Y0082776I0000000J0000591D01*
G01*
X0271358Y0083957D01*
G75*
G02*
X0271948Y0084547I0000591J0000000D01*
G01*
X0276574Y0084547D01*
G75*
G02*
X0277165Y0083957I0000000J-000591D01*
G01*
G37*
G36*
G01*
X0286594Y0049765D02*
X0285255Y0049765D01*
G75*
G02*
X0284704Y0050317I0000000J0000551D01*
G01*
X0284704Y0051419D01*
G75*
G02*
X0285255Y0051970I0000551J0000000D01*
G01*
X0286594Y0051970D01*
G75*
G02*
X0287145Y0051419I0000000J-000551D01*
G01*
X0287145Y0050317D01*
G75*
G02*
X0286594Y0049765I-000551J0000000D01*
G01*
G37*
G36*
G01*
X0286594Y0053545D02*
X0285255Y0053545D01*
G75*
G02*
X0284704Y0054096I0000000J0000551D01*
G01*
X0284704Y0055198D01*
G75*
G02*
X0285255Y0055750I0000551J0000000D01*
G01*
X0286594Y0055750D01*
G75*
G02*
X0287145Y0055198I0000000J-000551D01*
G01*
X0287145Y0054096D01*
G75*
G02*
X0286594Y0053545I-000551J0000000D01*
G01*
G37*
G36*
G01*
X0255807Y0052836D02*
X0255807Y0054017D01*
G75*
G02*
X0256397Y0054608I0000591J0000000D01*
G01*
X0262106Y0054608D01*
G75*
G02*
X0262696Y0054017I0000000J-000591D01*
G01*
X0262696Y0052836D01*
G75*
G02*
X0262106Y0052246I-000591J0000000D01*
G01*
X0256397Y0052246D01*
G75*
G02*
X0255807Y0052836I0000000J0000591D01*
G01*
G37*
G36*
G01*
X0255807Y0057836D02*
X0255807Y0059017D01*
G75*
G02*
X0256397Y0059608I0000591J0000000D01*
G01*
X0262106Y0059608D01*
G75*
G02*
X0262696Y0059017I0000000J-000591D01*
G01*
X0262696Y0057836D01*
G75*
G02*
X0262106Y0057246I-000591J0000000D01*
G01*
X0256397Y0057246D01*
G75*
G02*
X0255807Y0057836I0000000J0000591D01*
G01*
G37*
G36*
G01*
X0255807Y0062836D02*
X0255807Y0064017D01*
G75*
G02*
X0256397Y0064608I0000591J0000000D01*
G01*
X0262106Y0064608D01*
G75*
G02*
X0262696Y0064017I0000000J-000591D01*
G01*
X0262696Y0062836D01*
G75*
G02*
X0262106Y0062246I-000591J0000000D01*
G01*
X0256397Y0062246D01*
G75*
G02*
X0255807Y0062836I0000000J0000591D01*
G01*
G37*
G36*
G01*
X0255807Y0067836D02*
X0255807Y0069017D01*
G75*
G02*
X0256397Y0069608I0000591J0000000D01*
G01*
X0262106Y0069608D01*
G75*
G02*
X0262696Y0069017I0000000J-000591D01*
G01*
X0262696Y0067836D01*
G75*
G02*
X0262106Y0067246I-000591J0000000D01*
G01*
X0256397Y0067246D01*
G75*
G02*
X0255807Y0067836I0000000J0000591D01*
G01*
G37*
G36*
G01*
X0276082Y0067836D02*
X0276082Y0069017D01*
G75*
G02*
X0276673Y0069608I0000591J0000000D01*
G01*
X0282381Y0069608D01*
G75*
G02*
X0282972Y0069017I0000000J-000591D01*
G01*
X0282972Y0067836D01*
G75*
G02*
X0282381Y0067246I-000591J0000000D01*
G01*
X0276673Y0067246D01*
G75*
G02*
X0276082Y0067836I0000000J0000591D01*
G01*
G37*
G36*
G01*
X0276082Y0062836D02*
X0276082Y0064017D01*
G75*
G02*
X0276673Y0064608I0000591J0000000D01*
G01*
X0282381Y0064608D01*
G75*
G02*
X0282972Y0064017I0000000J-000591D01*
G01*
X0282972Y0062836D01*
G75*
G02*
X0282381Y0062246I-000591J0000000D01*
G01*
X0276673Y0062246D01*
G75*
G02*
X0276082Y0062836I0000000J0000591D01*
G01*
G37*
G36*
G01*
X0276082Y0057836D02*
X0276082Y0059017D01*
G75*
G02*
X0276673Y0059608I0000591J0000000D01*
G01*
X0282381Y0059608D01*
G75*
G02*
X0282972Y0059017I0000000J-000591D01*
G01*
X0282972Y0057836D01*
G75*
G02*
X0282381Y0057246I-000591J0000000D01*
G01*
X0276673Y0057246D01*
G75*
G02*
X0276082Y0057836I0000000J0000591D01*
G01*
G37*
G36*
G01*
X0276082Y0052836D02*
X0276082Y0054017D01*
G75*
G02*
X0276673Y0054608I0000591J0000000D01*
G01*
X0282381Y0054608D01*
G75*
G02*
X0282972Y0054017I0000000J-000591D01*
G01*
X0282972Y0052836D01*
G75*
G02*
X0282381Y0052246I-000591J0000000D01*
G01*
X0276673Y0052246D01*
G75*
G02*
X0276082Y0052836I0000000J0000591D01*
G01*
G37*
X0349606Y0338681D02*
G01*
G75*
D430*
X0359842Y0310728D02*
D03*
X0359842Y0306791D02*
D03*
X0359842Y0321851D02*
D03*
X0359842Y0325788D02*
D03*
X0359842Y0330217D02*
D03*
X0359842Y0334154D02*
D03*
X0352559Y0310728D02*
D03*
X0352559Y0306791D02*
D03*
D431*
X0352362Y0314113D02*
D03*
X0355905Y0314113D02*
D03*
D432*
X0359075Y0317998D02*
D03*
X0352854Y0317998D02*
D03*
D433*
X0355905Y0330610D02*
D03*
X0355905Y0334153D02*
D03*
X0352362Y0322244D02*
D03*
X0352362Y0325787D02*
D03*
X0355963Y0307382D02*
D03*
X0355963Y0310925D02*
D03*
X0352362Y0334153D02*
D03*
X0352362Y0330610D02*
D03*
X0363511Y0338702D02*
G01*
G75*
D430*
X0373747Y0310749D02*
D03*
X0373747Y0306812D02*
D03*
X0373747Y0321872D02*
D03*
X0373747Y0325809D02*
D03*
X0373747Y0330238D02*
D03*
X0373747Y0334175D02*
D03*
X0366464Y0310749D02*
D03*
X0366464Y0306812D02*
D03*
D431*
X0366267Y0314134D02*
D03*
X0369810Y0314134D02*
D03*
D432*
X0372980Y0318019D02*
D03*
X0366759Y0318019D02*
D03*
D433*
X0369810Y0330631D02*
D03*
X0369810Y0334174D02*
D03*
X0366267Y0322265D02*
D03*
X0366267Y0325808D02*
D03*
X0369868Y0307403D02*
D03*
X0369868Y0310946D02*
D03*
X0366267Y0334174D02*
D03*
X0366267Y0330631D02*
D03*
M02*
