G75*
G70*
%OFA0B0*%
%FSLAX25Y25*%
%IPPOS*%
%LPD*%
%AMOC8*
5,1,8,0,0,1.08239X$1,22.5*
%
%ADD115C,0.00984*%
%ADD116C,0.01181*%
%ADD12C,0.31496*%
%ADD13C,0.06496*%
%ADD14C,0.07874*%
%ADD15C,0.06000*%
%ADD16C,0.05906*%
%ADD162C,0.00492*%
%ADD164C,0.04331*%
%ADD17C,0.02756*%
%ADD20R,0.00984X0.04331*%
%ADD21R,0.00984X0.03858*%
%ADD23R,1.08661X0.00984*%
%ADD230C,0.05118*%
%ADD233R,0.07500X0.07874*%
%ADD234O,0.07500X0.07874*%
%ADD25R,0.00984X0.03740*%
%ADD26C,0.02362*%
%ADD27O,0.04823X0.00787*%
%ADD28O,0.00787X0.36614*%
%ADD29O,0.00787X0.12992*%
%ADD30O,0.00787X0.40157*%
%ADD31O,0.00787X0.01181*%
%ADD32O,0.66929X0.00787*%
%ADD33O,0.60630X0.00787*%
%ADD34O,0.00787X0.18898*%
%ADD35O,0.00787X0.10236*%
%ADD36O,0.00787X0.03937*%
%ADD37O,0.00787X0.05906*%
%ADD38R,0.14567X0.00787*%
%ADD39R,0.01575X0.00787*%
%ADD40R,0.06299X0.00787*%
%ADD41R,0.38189X0.00787*%
%ADD42R,0.09055X0.00787*%
%ADD43R,0.00787X0.05512*%
%ADD44R,0.00787X0.25197*%
%ADD45R,0.00787X0.06693*%
%ADD46R,0.00787X0.12992*%
%ADD47R,0.27559X0.00787*%
%ADD48R,0.12992X0.00787*%
%ADD49R,0.24803X0.00787*%
%ADD50R,0.06693X0.06693*%
%ADD51C,0.06693*%
%ADD52C,0.13780*%
%ADD53O,0.10630X0.14567*%
%ADD65C,0.07480*%
%ADD75C,0.00800*%
%ADD78C,0.00787*%
%ADD79R,0.00984X0.24803*%
%ADD80R,0.00984X0.34449*%
%ADD82C,0.01968*%
%ADD83C,0.01575*%
%ADD97O,0.00787X0.40158*%
X0000000Y0000000D02*
%LPD*%
G01*
D12*
X0013780Y0448819D03*
D13*
X0127953Y0316772D03*
X0127953Y0336772D03*
D14*
D15*
X0065335Y0324803D03*
X0080335Y0324803D03*
X0067106Y0186941D03*
X0082106Y0186941D03*
D12*
X0031496Y0015748D03*
D14*
D15*
X0452382Y0342520D03*
X0437382Y0342520D03*
D16*
X0379921Y0075965D03*
X0387795Y0075965D03*
X0395669Y0075965D03*
X0403543Y0075965D03*
X0411417Y0075965D03*
X0450787Y0075965D03*
X0458661Y0075965D03*
X0466535Y0075965D03*
X0474409Y0075965D03*
X0482283Y0075965D03*
X0379921Y0067304D03*
X0387795Y0067304D03*
X0395669Y0067304D03*
X0403543Y0067304D03*
X0411417Y0067304D03*
X0419291Y0067304D03*
X0427165Y0067304D03*
X0435039Y0067304D03*
X0442913Y0067304D03*
X0450787Y0067304D03*
X0458661Y0067304D03*
X0466535Y0067304D03*
X0474409Y0067304D03*
X0482283Y0067304D03*
D17*
X0185335Y0083760D03*
X0185335Y0071949D03*
X0185335Y0075886D03*
X0185335Y0079823D03*
D20*
X0291535Y0037106D03*
X0291535Y0037106D03*
D21*
X0291535Y0054193D03*
D79*
X0291535Y0077657D03*
D23*
X0237697Y0035433D03*
X0237697Y0089567D03*
D80*
X0183858Y0052165D03*
D25*
X0183858Y0088189D03*
D17*
X0290024Y0045768D03*
X0290024Y0049705D03*
X0290024Y0062681D03*
X0290024Y0058681D03*
X0290024Y0041831D03*
D14*
D15*
X0065138Y0275508D03*
X0080138Y0275508D03*
D26*
X0373747Y0303269D03*
D27*
X0365972Y0338309D03*
D28*
X0376109Y0320395D03*
X0363905Y0320395D03*
D26*
X0370007Y0303269D03*
X0366267Y0303269D03*
X0370204Y0337521D03*
X0373747Y0337521D03*
D13*
X0163386Y0316772D03*
X0163386Y0336772D03*
D15*
X0302562Y0327146D03*
X0302562Y0342146D03*
D14*
D16*
X0536035Y0253335D03*
X0536035Y0278531D03*
X0536035Y0286012D03*
X0536035Y0302941D03*
D26*
X0534264Y0312390D03*
X0534264Y0316327D03*
D29*
X0599618Y0268492D03*
D30*
X0599618Y0301957D03*
D31*
X0599618Y0329909D03*
D32*
X0566547Y0330106D03*
D33*
X0563398Y0249004D03*
D16*
X0536035Y0327547D03*
D31*
X0533476Y0249201D03*
D34*
X0533476Y0265736D03*
D35*
X0533476Y0294673D03*
D36*
X0533476Y0308453D03*
D37*
X0533476Y0321445D03*
D16*
X0597059Y0251563D03*
X0597059Y0258846D03*
X0597059Y0278335D03*
X0597059Y0325776D03*
D26*
X0321161Y0243405D03*
X0304232Y0243406D03*
X0301083Y0243406D03*
X0297933Y0243406D03*
X0294783Y0243406D03*
X0291634Y0243406D03*
X0288484Y0243406D03*
X0285335Y0243406D03*
X0282185Y0243406D03*
X0279035Y0243406D03*
X0275886Y0243406D03*
X0272736Y0243406D03*
X0269587Y0243406D03*
X0266437Y0243406D03*
X0263287Y0243406D03*
X0260138Y0243405D03*
X0256988Y0243406D03*
X0251476Y0243406D03*
X0248327Y0243406D03*
X0245177Y0243406D03*
X0242028Y0243406D03*
X0238878Y0243406D03*
X0235728Y0243406D03*
D38*
X0216634Y0111122D03*
D39*
X0228642Y0111122D03*
D38*
X0240650Y0111122D03*
D40*
X0258169Y0111122D03*
D41*
X0311909Y0111122D03*
D42*
X0343406Y0111122D03*
D43*
X0347539Y0118209D03*
D44*
X0206595Y0126476D03*
D45*
X0206595Y0150295D03*
D46*
X0206595Y0164075D03*
D43*
X0206595Y0202461D03*
D44*
X0347539Y0231988D03*
D47*
X0219980Y0244193D03*
D39*
X0254232Y0244193D03*
D48*
X0312697Y0244193D03*
D49*
X0335532Y0244193D03*
D26*
X0207382Y0241831D03*
X0207382Y0238681D03*
X0207382Y0235532D03*
X0207382Y0232382D03*
X0207382Y0229232D03*
X0207382Y0226083D03*
X0207382Y0222933D03*
X0207382Y0219783D03*
X0207382Y0216634D03*
X0207382Y0213484D03*
X0207382Y0210335D03*
X0207382Y0207185D03*
X0207382Y0197736D03*
X0207382Y0194587D03*
X0207382Y0191437D03*
X0207382Y0188287D03*
X0207382Y0185138D03*
X0207382Y0181988D03*
X0207382Y0178839D03*
X0207382Y0175689D03*
X0207382Y0172539D03*
X0207382Y0155610D03*
X0207382Y0144980D03*
X0207382Y0141043D03*
X0207382Y0111909D03*
X0346752Y0217421D03*
X0346752Y0212697D03*
X0346752Y0207972D03*
X0346752Y0203248D03*
X0346752Y0198524D03*
X0346752Y0193799D03*
X0346752Y0189075D03*
X0346752Y0184350D03*
X0346752Y0179626D03*
X0346752Y0174902D03*
X0346752Y0170177D03*
X0346752Y0165453D03*
X0346752Y0160728D03*
X0346752Y0156004D03*
X0346752Y0151280D03*
X0346752Y0146555D03*
X0346752Y0141831D03*
X0346752Y0137106D03*
X0346752Y0132382D03*
X0346752Y0127657D03*
X0346752Y0122933D03*
X0346752Y0113484D03*
X0336909Y0111909D03*
X0332972Y0111909D03*
X0290847Y0111909D03*
X0286909Y0111909D03*
X0282972Y0111909D03*
X0279035Y0111909D03*
X0275098Y0111909D03*
X0271161Y0111909D03*
X0267224Y0111909D03*
X0263287Y0111909D03*
X0253051Y0111909D03*
X0249902Y0111909D03*
X0231398Y0111909D03*
X0225886Y0111909D03*
D50*
X0542323Y0059791D03*
D51*
X0532480Y0059791D03*
X0532480Y0051917D03*
X0542323Y0051917D03*
D52*
X0561102Y0041247D03*
X0513701Y0041247D03*
D15*
X0291339Y0327146D03*
X0291339Y0342146D03*
D26*
X0359843Y0303248D03*
D27*
X0352067Y0338287D03*
D28*
X0362205Y0320374D03*
X0350000Y0320374D03*
D26*
X0356102Y0303248D03*
X0352362Y0303248D03*
X0356299Y0337500D03*
X0359843Y0337500D03*
D13*
X0181102Y0316772D03*
X0181102Y0336772D03*
D12*
X0614173Y0015748D03*
D15*
X0313786Y0327146D03*
X0313786Y0342146D03*
G36*
G01*
X0149016Y0061240D02*
X0149016Y0048642D01*
G75*
G02*
X0148031Y0047657I-000984J0000000D01*
G01*
X0139370Y0047657D01*
G75*
G02*
X0138386Y0048642I0000000J0000984D01*
G01*
X0138386Y0061240D01*
G75*
G02*
X0139370Y0062224I0000984J0000000D01*
G01*
X0148031Y0062224D01*
G75*
G02*
X0149016Y0061240I0000000J-000984D01*
G01*
G37*
D53*
X0127165Y0054941D03*
X0110630Y0054941D03*
X0143701Y0076594D03*
X0127165Y0076594D03*
X0110630Y0076594D03*
D14*
D13*
X0145669Y0316772D03*
X0145669Y0336772D03*
D14*
D12*
X0631890Y0448819D03*
D26*
X0157106Y0253642D03*
X0149902Y0228346D03*
X0154921Y0228346D03*
X0161417Y0228346D03*
X0164961Y0228346D03*
D14*
D26*
X0415354Y0139862D03*
X0413287Y0136417D03*
X0410335Y0141043D03*
X0396358Y0140748D03*
D65*
X0544219Y0411102D03*
X0524553Y0411102D03*
X0504884Y0411102D03*
X0544219Y0388657D03*
X0524553Y0388657D03*
X0504884Y0388657D03*
X0544219Y0366217D03*
X0524553Y0366217D03*
X0504884Y0366217D03*
D16*
X0477297Y0413433D03*
X0467297Y0413433D03*
X0457297Y0413433D03*
X0447297Y0413433D03*
X0437293Y0413433D03*
X0427293Y0413433D03*
X0477297Y0403421D03*
X0467297Y0403421D03*
X0457297Y0403421D03*
X0447297Y0403421D03*
X0437293Y0403421D03*
X0427293Y0403421D03*
X0477297Y0379646D03*
X0467297Y0379646D03*
X0457297Y0379646D03*
X0447297Y0379646D03*
X0437293Y0379646D03*
X0427293Y0379646D03*
X0477297Y0369555D03*
X0467297Y0369555D03*
X0457297Y0369555D03*
X0447297Y0369555D03*
X0437293Y0369555D03*
X0427293Y0369555D03*
X0404876Y0413433D03*
X0394876Y0413433D03*
X0384876Y0413433D03*
X0374876Y0413433D03*
X0364872Y0413433D03*
X0354872Y0413433D03*
X0344872Y0413433D03*
X0334872Y0413433D03*
X0324868Y0413433D03*
X0314868Y0413433D03*
X0304868Y0413433D03*
X0294868Y0413433D03*
X0284868Y0413433D03*
X0404876Y0403421D03*
X0394876Y0403421D03*
X0384876Y0403421D03*
X0374876Y0403421D03*
X0364872Y0403421D03*
X0354872Y0403421D03*
X0344872Y0403421D03*
X0334872Y0403421D03*
X0324868Y0403421D03*
X0314868Y0403421D03*
X0304868Y0403421D03*
X0294868Y0403421D03*
X0284868Y0403421D03*
X0404876Y0379646D03*
X0394876Y0379646D03*
X0384876Y0379646D03*
X0374876Y0379646D03*
X0364872Y0379646D03*
X0354872Y0379646D03*
X0344872Y0379646D03*
X0334872Y0379646D03*
X0324868Y0379646D03*
X0314868Y0379646D03*
X0304868Y0379646D03*
X0294868Y0379646D03*
X0284868Y0379646D03*
X0404876Y0369555D03*
X0394876Y0369555D03*
X0384876Y0369555D03*
X0374876Y0369555D03*
X0364872Y0369555D03*
X0354872Y0369555D03*
X0344872Y0369555D03*
X0334872Y0369555D03*
X0324868Y0369555D03*
X0314868Y0369555D03*
X0304868Y0369555D03*
X0294868Y0369555D03*
X0284868Y0369555D03*
X0262278Y0413433D03*
X0252278Y0413433D03*
X0242278Y0413433D03*
X0232278Y0413433D03*
X0222278Y0413433D03*
X0212274Y0413433D03*
X0202274Y0413433D03*
X0192274Y0413433D03*
X0182274Y0413433D03*
X0172270Y0413433D03*
X0262278Y0403421D03*
X0252278Y0403421D03*
X0242278Y0403421D03*
X0232278Y0403421D03*
X0222278Y0403421D03*
X0212274Y0403421D03*
X0202274Y0403421D03*
X0192274Y0403421D03*
X0182274Y0403421D03*
X0172270Y0403421D03*
X0262278Y0379646D03*
X0252278Y0379646D03*
X0242278Y0379646D03*
X0232278Y0379646D03*
X0222278Y0379646D03*
X0212274Y0379646D03*
X0202274Y0379646D03*
X0192274Y0379646D03*
X0182274Y0379646D03*
X0172270Y0379646D03*
X0262278Y0369555D03*
X0252278Y0369555D03*
X0242278Y0369555D03*
X0232278Y0369555D03*
X0222278Y0369555D03*
X0212274Y0369555D03*
X0202274Y0369555D03*
X0192274Y0369555D03*
X0182274Y0369555D03*
X0172270Y0369555D03*
D65*
X0145018Y0411102D03*
X0125266Y0411102D03*
X0105600Y0411102D03*
X0145018Y0388657D03*
X0125266Y0388657D03*
X0105600Y0388657D03*
X0145018Y0366217D03*
X0125266Y0366217D03*
X0105600Y0366217D03*
D15*
X0325009Y0327146D03*
X0325009Y0342146D03*
X0065335Y0231335D03*
X0080335Y0231335D03*
X0600012Y0330500D02*
G01*
G75*
G36*
X0537931Y0249201D02*
X0538816Y0249712D01*
X0539659Y0250555D01*
X0540255Y0251587D01*
X0540293Y0251729D01*
X0546145Y0251729D01*
X0546760Y0251851D01*
X0547281Y0252199D01*
X0547281Y0252199D01*
X0550910Y0255829D01*
X0566025Y0255829D01*
X0571610Y0250244D01*
X0572131Y0249896D01*
X0572745Y0249774D01*
X0572745Y0249774D01*
X0584856Y0249774D01*
X0584856Y0249774D01*
X0585471Y0249896D01*
X0585992Y0250244D01*
X0591281Y0255533D01*
X0591371Y0255533D01*
X0592094Y0255833D01*
X0592598Y0256337D01*
X0592915Y0256404D01*
X0593229Y0256425D01*
X0593436Y0256067D01*
X0593906Y0255596D01*
X0594262Y0255205D01*
X0593906Y0254813D01*
X0593436Y0254343D01*
X0592840Y0253311D01*
X0592532Y0252159D01*
X0592532Y0250967D01*
X0592840Y0249815D01*
X0593195Y0249201D01*
X0592854Y0248610D01*
X0538089Y0248610D01*
X0537931Y0249201D01*
D02*
G37*
G36*
X0540255Y0255082D02*
X0539659Y0256115D01*
X0538816Y0256958D01*
X0537783Y0257554D01*
X0536632Y0257862D01*
X0535440Y0257862D01*
X0534288Y0257554D01*
X0533673Y0257199D01*
X0533083Y0257540D01*
X0533083Y0274326D01*
X0533673Y0274667D01*
X0534288Y0274313D01*
X0535440Y0274004D01*
X0536632Y0274004D01*
X0537783Y0274313D01*
X0538816Y0274909D01*
X0539659Y0275752D01*
X0540255Y0276784D01*
X0540293Y0276926D01*
X0543008Y0276926D01*
X0559102Y0260832D01*
X0559623Y0260484D01*
X0560238Y0260361D01*
X0560238Y0260361D01*
X0565563Y0260361D01*
X0566294Y0259631D01*
X0566049Y0259040D01*
X0550245Y0259040D01*
X0550245Y0259040D01*
X0549630Y0258918D01*
X0549110Y0258570D01*
X0545480Y0254940D01*
X0540293Y0254940D01*
X0540255Y0255082D01*
D02*
G37*
G36*
X0577408Y0255831D02*
X0577546Y0256528D01*
X0577722Y0256600D01*
X0578276Y0257154D01*
X0578576Y0257878D01*
X0578576Y0257967D01*
X0584519Y0263910D01*
X0584867Y0264431D01*
X0584990Y0265046D01*
X0584990Y0265046D01*
X0584990Y0279042D01*
X0584990Y0279042D01*
X0584867Y0279656D01*
X0584519Y0280177D01*
X0572454Y0292243D01*
X0572454Y0292332D01*
X0572154Y0293056D01*
X0571600Y0293609D01*
X0570877Y0293909D01*
X0570094Y0293909D01*
X0569370Y0293609D01*
X0568816Y0293056D01*
X0568517Y0292332D01*
X0568517Y0291549D01*
X0568816Y0290825D01*
X0569370Y0290272D01*
X0570094Y0289972D01*
X0570183Y0289972D01*
X0572107Y0288048D01*
X0571793Y0287527D01*
X0571338Y0287618D01*
X0540293Y0287618D01*
X0540255Y0287759D01*
X0539659Y0288792D01*
X0538816Y0289635D01*
X0537783Y0290231D01*
X0536632Y0290539D01*
X0535440Y0290539D01*
X0534288Y0290231D01*
X0533673Y0289876D01*
X0533083Y0290217D01*
X0533083Y0298736D01*
X0533673Y0299077D01*
X0534288Y0298722D01*
X0535440Y0298413D01*
X0536632Y0298413D01*
X0537783Y0298722D01*
X0538816Y0299318D01*
X0539659Y0300161D01*
X0540255Y0301193D01*
X0540563Y0302345D01*
X0540563Y0303537D01*
X0540255Y0304689D01*
X0539659Y0305721D01*
X0538816Y0306564D01*
X0537783Y0307160D01*
X0536632Y0307469D01*
X0535440Y0307469D01*
X0534288Y0307160D01*
X0533673Y0306805D01*
X0533083Y0307146D01*
X0533083Y0309242D01*
X0533673Y0309695D01*
X0533901Y0309634D01*
X0534627Y0309634D01*
X0535328Y0309822D01*
X0535956Y0310185D01*
X0536469Y0310698D01*
X0536751Y0311185D01*
X0540911Y0311185D01*
X0546839Y0305257D01*
X0546839Y0295635D01*
X0546319Y0295115D01*
X0546019Y0294391D01*
X0546019Y0293608D01*
X0546319Y0292885D01*
X0546873Y0292331D01*
X0547596Y0292031D01*
X0548379Y0292031D01*
X0549103Y0292331D01*
X0549657Y0292885D01*
X0549956Y0293608D01*
X0549956Y0294391D01*
X0549657Y0295115D01*
X0549248Y0295524D01*
X0549248Y0305756D01*
X0549248Y0305756D01*
X0549156Y0306217D01*
X0548895Y0306608D01*
X0542262Y0313241D01*
X0542261Y0313241D01*
X0541871Y0313502D01*
X0541410Y0313594D01*
X0536751Y0313594D01*
X0536469Y0314082D01*
X0536193Y0314358D01*
X0536469Y0314635D01*
X0536832Y0315263D01*
X0537020Y0315964D01*
X0537020Y0316690D01*
X0536832Y0317390D01*
X0536469Y0318019D01*
X0535956Y0318532D01*
X0535328Y0318895D01*
X0534627Y0319083D01*
X0533901Y0319083D01*
X0533673Y0319022D01*
X0533083Y0319475D01*
X0533083Y0330500D01*
X0595006Y0330500D01*
X0595164Y0329909D01*
X0594279Y0329399D01*
X0593436Y0328556D01*
X0592840Y0327523D01*
X0592532Y0326372D01*
X0592532Y0325180D01*
X0592840Y0324028D01*
X0593436Y0322996D01*
X0594279Y0322153D01*
X0595312Y0321557D01*
X0596463Y0321248D01*
X0597655Y0321248D01*
X0598807Y0321557D01*
X0599421Y0321911D01*
X0600012Y0321571D01*
X0600012Y0282540D01*
X0599421Y0282199D01*
X0598807Y0282554D01*
X0597655Y0282862D01*
X0596463Y0282862D01*
X0595312Y0282554D01*
X0594279Y0281958D01*
X0593436Y0281115D01*
X0592840Y0280082D01*
X0592532Y0278931D01*
X0592532Y0277739D01*
X0592840Y0276587D01*
X0593436Y0275555D01*
X0594279Y0274712D01*
X0595312Y0274116D01*
X0596463Y0273807D01*
X0597655Y0273807D01*
X0598807Y0274116D01*
X0599421Y0274471D01*
X0600012Y0274129D01*
X0600012Y0263052D01*
X0599421Y0262711D01*
X0598807Y0263065D01*
X0597655Y0263374D01*
X0596463Y0263374D01*
X0595312Y0263065D01*
X0594279Y0262469D01*
X0593436Y0261626D01*
X0593168Y0261161D01*
X0592906Y0261033D01*
X0592418Y0260977D01*
X0591957Y0261068D01*
X0588559Y0261068D01*
X0588559Y0261068D01*
X0588098Y0260977D01*
X0587707Y0260716D01*
X0581705Y0254713D01*
X0578526Y0254713D01*
X0577408Y0255831D01*
D02*
G37*
G36*
X0568452Y0264787D02*
X0568061Y0265048D01*
X0567600Y0265140D01*
X0567600Y0265140D01*
X0561552Y0265140D01*
X0544657Y0282035D01*
X0544267Y0282296D01*
X0543903Y0282368D01*
X0543807Y0282599D01*
X0543253Y0283153D01*
X0542530Y0283453D01*
X0541746Y0283453D01*
X0541023Y0283153D01*
X0540469Y0282599D01*
X0540170Y0281876D01*
X0540170Y0281607D01*
X0539903Y0281453D01*
X0539579Y0281391D01*
X0539099Y0281871D01*
X0538880Y0282272D01*
X0539099Y0282673D01*
X0539659Y0283232D01*
X0540255Y0284264D01*
X0540293Y0284406D01*
X0570673Y0284406D01*
X0579022Y0276057D01*
X0579022Y0269901D01*
X0578959Y0269837D01*
X0578660Y0269114D01*
X0578660Y0268331D01*
X0578959Y0267607D01*
X0579513Y0267054D01*
X0580237Y0266754D01*
X0581020Y0266754D01*
X0581188Y0266824D01*
X0581778Y0266429D01*
X0581778Y0265711D01*
X0576305Y0260238D01*
X0576216Y0260238D01*
X0575492Y0259938D01*
X0574938Y0259384D01*
X0574866Y0259208D01*
X0574169Y0259070D01*
X0568452Y0264787D01*
D02*
G37*
%LPC*%
G36*
X0545416Y0259755D02*
X0546199Y0259755D01*
X0546923Y0260054D01*
X0547476Y0260608D01*
X0547776Y0261332D01*
X0547776Y0262115D01*
X0547476Y0262838D01*
X0546923Y0263392D01*
X0546199Y0263692D01*
X0545416Y0263692D01*
X0544692Y0263392D01*
X0544139Y0262838D01*
X0543839Y0262115D01*
X0543839Y0261332D01*
X0544139Y0260608D01*
X0544692Y0260054D01*
X0545416Y0259755D01*
D02*
G37*
G36*
X0591353Y0269670D02*
X0592136Y0269670D01*
X0592859Y0269970D01*
X0593413Y0270524D01*
X0593713Y0271247D01*
X0593713Y0272031D01*
X0593413Y0272754D01*
X0592859Y0273308D01*
X0592136Y0273607D01*
X0591763Y0273607D01*
X0589212Y0276158D01*
X0589212Y0297830D01*
X0591763Y0300380D01*
X0592136Y0300380D01*
X0592859Y0300680D01*
X0593413Y0301234D01*
X0593713Y0301957D01*
X0593713Y0302740D01*
X0593413Y0303464D01*
X0592859Y0304018D01*
X0592136Y0304317D01*
X0591353Y0304317D01*
X0590629Y0304018D01*
X0590075Y0303464D01*
X0589776Y0302740D01*
X0589776Y0302367D01*
X0586814Y0299405D01*
X0586509Y0298950D01*
X0586402Y0298412D01*
X0586402Y0275576D01*
X0586509Y0275038D01*
X0586814Y0274582D01*
X0589776Y0271620D01*
X0589776Y0271247D01*
X0590075Y0270524D01*
X0590629Y0269970D01*
X0591353Y0269670D01*
D02*
G37*
G36*
X0570880Y0310028D02*
X0571663Y0310028D01*
X0572387Y0310327D01*
X0572941Y0310881D01*
X0573240Y0311605D01*
X0573240Y0312388D01*
X0572941Y0313111D01*
X0572387Y0313665D01*
X0571663Y0313965D01*
X0570880Y0313965D01*
X0570157Y0313665D01*
X0569603Y0313111D01*
X0569303Y0312388D01*
X0569303Y0311605D01*
X0569603Y0310881D01*
X0570157Y0310327D01*
X0570880Y0310028D01*
D02*
G37*
G36*
X0595683Y0312200D02*
X0596467Y0312200D01*
X0597190Y0312500D01*
X0597744Y0313053D01*
X0598043Y0313777D01*
X0598043Y0314560D01*
X0597744Y0315283D01*
X0597190Y0315837D01*
X0596467Y0316137D01*
X0595683Y0316137D01*
X0594960Y0315837D01*
X0594406Y0315283D01*
X0594106Y0314560D01*
X0594106Y0313777D01*
X0594406Y0313053D01*
X0594960Y0312500D01*
X0595683Y0312200D01*
D02*
G37*
%LPD*%
D78*
X0578027Y0253509D02*
X0567600Y0263936D01*
X0561053Y0263936D01*
X0592975Y0258847D02*
X0591957Y0259864D01*
X0588559Y0259864D02*
X0582203Y0253509D01*
X0597059Y0258847D02*
X0592975Y0258847D01*
X0591957Y0259864D02*
X0588559Y0259864D01*
X0582203Y0253509D02*
X0578027Y0253509D01*
X0561053Y0263936D02*
X0543806Y0281183D01*
X0542439Y0281183D01*
X0542138Y0281484D01*
X0548044Y0305756D02*
X0548044Y0294056D01*
X0547988Y0294000D01*
X0541410Y0312390D02*
X0534264Y0312390D01*
X0548044Y0305756D02*
X0541410Y0312390D01*
D83*
X0583384Y0279042D02*
X0583384Y0265046D01*
X0576607Y0258269D01*
X0573958Y0254238D02*
X0566228Y0261967D01*
X0572745Y0251379D02*
X0566690Y0257434D01*
X0566228Y0261967D02*
X0560238Y0261967D01*
X0566690Y0257434D02*
X0550245Y0257434D01*
X0584856Y0251379D02*
X0572745Y0251379D01*
X0560238Y0261967D02*
X0543673Y0278532D01*
X0536036Y0278532D01*
X0583384Y0279042D02*
X0570485Y0291940D01*
X0580628Y0276722D02*
X0571338Y0286012D01*
X0580628Y0276722D02*
X0580628Y0268722D01*
X0571338Y0286012D02*
X0536036Y0286012D01*
X0590979Y0257502D02*
X0584856Y0251379D01*
X0550245Y0257434D02*
X0546145Y0253335D01*
X0536036Y0253335D01*
D37*
X0533477Y0321445D02*
D03*
D36*
X0533477Y0308453D02*
D03*
D97*
X0599618Y0301957D02*
D03*
D32*
X0566547Y0330106D02*
D03*
D34*
X0533477Y0265736D02*
D03*
D35*
X0533477Y0294673D02*
D03*
D29*
X0599618Y0268492D02*
D03*
D33*
X0563398Y0249004D02*
D03*
D31*
X0599618Y0329909D02*
D03*
X0533477Y0249201D02*
D03*
D26*
X0534264Y0312390D02*
D03*
X0566090Y0254138D02*
D03*
X0573958Y0254238D02*
D03*
X0576607Y0258269D02*
D03*
X0542138Y0281484D02*
D03*
X0534667Y0308471D02*
D03*
X0547988Y0294000D02*
D03*
X0548437Y0312390D02*
D03*
X0541644Y0297895D02*
D03*
X0541636Y0306746D02*
D03*
X0570485Y0291940D02*
D03*
X0564597Y0281961D02*
D03*
X0567346Y0297533D02*
D03*
X0594500Y0294083D02*
D03*
X0590563Y0297035D02*
D03*
X0570161Y0268965D02*
D03*
X0548921Y0316720D02*
D03*
X0561606Y0322238D02*
D03*
X0541079Y0315391D02*
D03*
X0591806Y0322307D02*
D03*
X0589087Y0328672D02*
D03*
X0579343Y0328672D02*
D03*
X0544286Y0327751D02*
D03*
X0540313Y0323446D02*
D03*
X0548593Y0281536D02*
D03*
X0543319Y0293098D02*
D03*
X0537414Y0295067D02*
D03*
X0537414Y0259634D02*
D03*
X0541351Y0265539D02*
D03*
X0537414Y0271445D02*
D03*
X0545288Y0257665D02*
D03*
X0586894Y0263851D02*
D03*
X0595289Y0266178D02*
D03*
X0596469Y0271445D02*
D03*
X0596469Y0287193D02*
D03*
X0596469Y0299004D02*
D03*
X0594500Y0304909D02*
D03*
X0596469Y0310815D02*
D03*
X0590979Y0257502D02*
D03*
X0580628Y0268722D02*
D03*
X0589658Y0318456D02*
D03*
X0561606Y0328531D02*
D03*
X0555130Y0262390D02*
D03*
X0566941Y0271847D02*
D03*
X0591744Y0271639D02*
D03*
X0591744Y0302349D02*
D03*
X0556410Y0272595D02*
D03*
X0545288Y0271445D02*
D03*
X0544178Y0320278D02*
D03*
X0565669Y0250075D02*
D03*
X0577117Y0322250D02*
D03*
X0574815Y0297035D02*
D03*
X0570790Y0328672D02*
D03*
X0548168Y0323962D02*
D03*
D16*
X0597059Y0258847D02*
D03*
X0536036Y0278532D02*
D03*
X0536036Y0253335D02*
D03*
X0536036Y0286012D02*
D03*
X0536036Y0327547D02*
D03*
D116*
X0587807Y0298412D02*
X0587807Y0275576D01*
X0591744Y0271639D02*
X0587807Y0275576D01*
X0591744Y0302349D02*
X0587807Y0298412D01*
X0591744Y0302349D02*
X0591744Y0302349D01*
X0347933Y0110728D02*
G01*
G75*
G36*
X0206988Y0139288D02*
X0207029Y0139271D01*
X0207734Y0139271D01*
X0207997Y0139380D01*
X0208785Y0138912D01*
X0208785Y0134794D01*
X0208785Y0134794D01*
X0208876Y0134333D01*
X0209138Y0133942D01*
X0209138Y0133942D01*
X0211162Y0131918D01*
X0211553Y0131657D01*
X0212014Y0131565D01*
X0212014Y0131565D01*
X0221149Y0131565D01*
X0221312Y0131401D01*
X0221609Y0130778D01*
X0221434Y0130355D01*
X0221434Y0129650D01*
X0221704Y0128999D01*
X0222202Y0128501D01*
X0222853Y0128231D01*
X0223558Y0128231D01*
X0223725Y0128300D01*
X0232363Y0119663D01*
X0232363Y0114293D01*
X0231750Y0113681D01*
X0231750Y0113681D01*
X0231045Y0113681D01*
X0230394Y0113411D01*
X0229896Y0112913D01*
X0229626Y0112262D01*
X0229626Y0111557D01*
X0229643Y0111515D01*
X0229117Y0110728D01*
X0228166Y0110728D01*
X0227640Y0111515D01*
X0227657Y0111557D01*
X0227657Y0112262D01*
X0227388Y0112913D01*
X0226889Y0113411D01*
X0226238Y0113681D01*
X0225533Y0113681D01*
X0224882Y0113411D01*
X0224384Y0112913D01*
X0224114Y0112262D01*
X0224114Y0111557D01*
X0224131Y0111515D01*
X0223605Y0110728D01*
X0210377Y0110728D01*
X0209837Y0111515D01*
X0209927Y0111749D01*
X0209941Y0111753D01*
X0210091Y0111712D01*
X0210972Y0111712D01*
X0211823Y0111940D01*
X0212586Y0112381D01*
X0213209Y0113004D01*
X0213650Y0113767D01*
X0213878Y0114618D01*
X0213878Y0115499D01*
X0213650Y0116350D01*
X0213209Y0117113D01*
X0212586Y0117737D01*
X0211823Y0118177D01*
X0210972Y0118405D01*
X0210091Y0118405D01*
X0209240Y0118177D01*
X0208477Y0117737D01*
X0207854Y0117113D01*
X0207413Y0116350D01*
X0207185Y0115499D01*
X0207185Y0114618D01*
X0207225Y0114468D01*
X0207222Y0114455D01*
X0206988Y0114364D01*
X0206201Y0114904D01*
X0206201Y0138762D01*
X0206988Y0139288D01*
D02*
G37*
G36*
X0206988Y0170785D02*
X0207029Y0170767D01*
X0207734Y0170767D01*
X0208048Y0170897D01*
X0208835Y0170458D01*
X0208835Y0160276D01*
X0208699Y0160220D01*
X0208200Y0159722D01*
X0207931Y0159070D01*
X0207931Y0158366D01*
X0208037Y0158108D01*
X0207945Y0157887D01*
X0207505Y0157382D01*
X0207029Y0157382D01*
X0206988Y0157365D01*
X0206201Y0157891D01*
X0206201Y0170258D01*
X0206988Y0170785D01*
D02*
G37*
G36*
X0206907Y0244586D02*
X0233448Y0244586D01*
X0233974Y0243799D01*
X0233957Y0243758D01*
X0233957Y0243053D01*
X0234226Y0242402D01*
X0234295Y0242333D01*
X0234082Y0241432D01*
X0233849Y0241335D01*
X0233453Y0240940D01*
X0230904Y0240940D01*
X0230443Y0240848D01*
X0230053Y0240587D01*
X0230052Y0240587D01*
X0229592Y0240127D01*
X0226695Y0240127D01*
X0226397Y0240425D01*
X0225746Y0240694D01*
X0225041Y0240694D01*
X0224390Y0240425D01*
X0224092Y0240127D01*
X0222154Y0240127D01*
X0219993Y0242288D01*
X0219993Y0242288D01*
X0219602Y0242549D01*
X0219141Y0242641D01*
X0219141Y0242641D01*
X0214370Y0242641D01*
X0213909Y0242549D01*
X0213518Y0242288D01*
X0213518Y0242288D01*
X0210678Y0239448D01*
X0210417Y0239057D01*
X0210325Y0238596D01*
X0210325Y0238596D01*
X0210325Y0224765D01*
X0210028Y0224468D01*
X0209772Y0223850D01*
X0209644Y0223803D01*
X0208971Y0223726D01*
X0208884Y0223936D01*
X0208827Y0223993D01*
X0208440Y0224507D01*
X0208827Y0225022D01*
X0208884Y0225079D01*
X0209154Y0225730D01*
X0209154Y0226435D01*
X0208884Y0227086D01*
X0208827Y0227143D01*
X0208440Y0227657D01*
X0208827Y0228172D01*
X0208884Y0228228D01*
X0209154Y0228880D01*
X0209154Y0229584D01*
X0208884Y0230236D01*
X0208827Y0230292D01*
X0208440Y0230807D01*
X0208827Y0231321D01*
X0208884Y0231378D01*
X0209154Y0232029D01*
X0209154Y0232734D01*
X0208884Y0233385D01*
X0208827Y0233442D01*
X0208440Y0233956D01*
X0208827Y0234471D01*
X0208884Y0234528D01*
X0209154Y0235179D01*
X0209154Y0235884D01*
X0208884Y0236535D01*
X0208827Y0236592D01*
X0208440Y0237106D01*
X0208827Y0237620D01*
X0208884Y0237677D01*
X0209154Y0238328D01*
X0209154Y0239033D01*
X0208884Y0239684D01*
X0208827Y0239741D01*
X0208440Y0240256D01*
X0208827Y0240770D01*
X0208884Y0240827D01*
X0209154Y0241478D01*
X0209154Y0242183D01*
X0208884Y0242834D01*
X0208385Y0243332D01*
X0207734Y0243602D01*
X0207431Y0243602D01*
X0206843Y0244277D01*
X0206829Y0244329D01*
X0206907Y0244586D01*
D02*
G37*
G36*
X0206988Y0205430D02*
X0207029Y0205413D01*
X0207734Y0205413D01*
X0208385Y0205683D01*
X0208518Y0205816D01*
X0209306Y0205490D01*
X0209306Y0205460D01*
X0209506Y0204714D01*
X0209892Y0204045D01*
X0210438Y0203498D01*
X0211107Y0203112D01*
X0211854Y0202912D01*
X0212626Y0202912D01*
X0213373Y0203112D01*
X0214042Y0203498D01*
X0214334Y0203791D01*
X0215222Y0203801D01*
X0215327Y0203751D01*
X0215649Y0203536D01*
X0215781Y0203448D01*
X0216357Y0203333D01*
X0216933Y0203448D01*
X0217491Y0203266D01*
X0217678Y0203147D01*
X0217757Y0202880D01*
X0217651Y0202774D01*
X0217382Y0202123D01*
X0217382Y0201418D01*
X0217651Y0200767D01*
X0218150Y0200268D01*
X0218801Y0199999D01*
X0219506Y0199999D01*
X0219843Y0200138D01*
X0220580Y0199741D01*
X0220631Y0199677D01*
X0220631Y0199493D01*
X0220900Y0198842D01*
X0221399Y0198344D01*
X0222050Y0198074D01*
X0222755Y0198074D01*
X0223406Y0198344D01*
X0223503Y0198441D01*
X0227066Y0198441D01*
X0227604Y0198547D01*
X0228060Y0198852D01*
X0228618Y0199411D01*
X0229406Y0199085D01*
X0229406Y0191481D01*
X0224153Y0186227D01*
X0223864Y0186319D01*
X0223425Y0186613D01*
X0223425Y0187163D01*
X0223155Y0187814D01*
X0222657Y0188313D01*
X0222006Y0188582D01*
X0221301Y0188582D01*
X0220630Y0188564D01*
X0220361Y0189215D01*
X0219862Y0189713D01*
X0219211Y0189983D01*
X0218506Y0189983D01*
X0217855Y0189713D01*
X0217357Y0189215D01*
X0217087Y0188564D01*
X0217087Y0187859D01*
X0217357Y0187208D01*
X0217855Y0186710D01*
X0218506Y0186440D01*
X0218792Y0185652D01*
X0209764Y0176624D01*
X0208901Y0176691D01*
X0208489Y0177329D01*
X0208827Y0177778D01*
X0208884Y0177835D01*
X0209154Y0178486D01*
X0209154Y0179191D01*
X0208884Y0179842D01*
X0208827Y0179899D01*
X0208440Y0180413D01*
X0208827Y0180927D01*
X0208884Y0180984D01*
X0209154Y0181635D01*
X0209154Y0182340D01*
X0208884Y0182991D01*
X0208827Y0183048D01*
X0208440Y0183563D01*
X0208827Y0184077D01*
X0208884Y0184134D01*
X0209154Y0184785D01*
X0209154Y0185490D01*
X0208884Y0186141D01*
X0208827Y0186198D01*
X0208440Y0186712D01*
X0208827Y0187227D01*
X0208884Y0187284D01*
X0209154Y0187935D01*
X0209154Y0188640D01*
X0208884Y0189291D01*
X0208827Y0189347D01*
X0208440Y0189862D01*
X0208827Y0190376D01*
X0208884Y0190433D01*
X0209154Y0191084D01*
X0209154Y0191789D01*
X0208884Y0192440D01*
X0208827Y0192497D01*
X0208440Y0193012D01*
X0208827Y0193526D01*
X0208884Y0193583D01*
X0209154Y0194234D01*
X0209154Y0194939D01*
X0208884Y0195590D01*
X0208827Y0195647D01*
X0208440Y0196161D01*
X0208827Y0196676D01*
X0208884Y0196732D01*
X0209154Y0197383D01*
X0209154Y0198088D01*
X0208884Y0198739D01*
X0208385Y0199238D01*
X0207734Y0199507D01*
X0207029Y0199507D01*
X0206988Y0199490D01*
X0206201Y0200017D01*
X0206201Y0204904D01*
X0206988Y0205430D01*
D02*
G37*
G36*
X0211838Y0135697D02*
X0211900Y0135736D01*
X0212605Y0135736D01*
X0213256Y0136006D01*
X0213755Y0136504D01*
X0214025Y0137155D01*
X0214025Y0137505D01*
X0215277Y0138758D01*
X0215582Y0139214D01*
X0215689Y0139752D01*
X0215689Y0150452D01*
X0218219Y0152983D01*
X0219007Y0152657D01*
X0219007Y0143293D01*
X0218580Y0142866D01*
X0218310Y0142215D01*
X0218310Y0141510D01*
X0218580Y0140859D01*
X0219078Y0140361D01*
X0219730Y0140091D01*
X0220434Y0140091D01*
X0221085Y0140361D01*
X0221584Y0140859D01*
X0221854Y0141510D01*
X0221854Y0142215D01*
X0221584Y0142866D01*
X0221085Y0143365D01*
X0221014Y0143395D01*
X0221014Y0152665D01*
X0223347Y0154999D01*
X0223565Y0155324D01*
X0223641Y0155708D01*
X0223641Y0164603D01*
X0224041Y0164921D01*
X0224511Y0164784D01*
X0224831Y0164608D01*
X0224879Y0164369D01*
X0225064Y0164093D01*
X0225708Y0163449D01*
X0225368Y0163109D01*
X0225098Y0162458D01*
X0225098Y0161754D01*
X0225368Y0161102D01*
X0225866Y0160604D01*
X0226412Y0160378D01*
X0226606Y0159942D01*
X0226695Y0159547D01*
X0226658Y0159510D01*
X0226473Y0159233D01*
X0226408Y0158907D01*
X0226408Y0152910D01*
X0226473Y0152583D01*
X0226658Y0152307D01*
X0227265Y0151700D01*
X0227265Y0147865D01*
X0227275Y0147811D01*
X0226550Y0147423D01*
X0226410Y0147563D01*
X0225759Y0147833D01*
X0225054Y0147833D01*
X0224403Y0147563D01*
X0223904Y0147065D01*
X0223635Y0146414D01*
X0223635Y0145709D01*
X0223904Y0145058D01*
X0224403Y0144559D01*
X0225054Y0144290D01*
X0225759Y0144290D01*
X0226410Y0144559D01*
X0226908Y0145058D01*
X0227178Y0145709D01*
X0227178Y0146414D01*
X0227127Y0146536D01*
X0227795Y0146982D01*
X0242802Y0131975D01*
X0243078Y0131790D01*
X0243405Y0131725D01*
X0246682Y0131725D01*
X0246782Y0131638D01*
X0247143Y0130938D01*
X0246990Y0130569D01*
X0246990Y0129864D01*
X0247260Y0129213D01*
X0247758Y0128714D01*
X0248409Y0128445D01*
X0249114Y0128445D01*
X0249765Y0128714D01*
X0250264Y0129213D01*
X0250533Y0129864D01*
X0250533Y0130569D01*
X0250380Y0130938D01*
X0250742Y0131638D01*
X0250841Y0131725D01*
X0255652Y0131725D01*
X0256102Y0131138D01*
X0256128Y0130938D01*
X0250203Y0125013D01*
X0243765Y0125013D01*
X0243364Y0125179D01*
X0242659Y0125179D01*
X0242008Y0124910D01*
X0241510Y0124411D01*
X0241240Y0123760D01*
X0241240Y0123055D01*
X0241510Y0122404D01*
X0242008Y0121906D01*
X0242659Y0121636D01*
X0243364Y0121636D01*
X0243765Y0121802D01*
X0250868Y0121802D01*
X0250868Y0121802D01*
X0251483Y0121924D01*
X0252004Y0122272D01*
X0258471Y0128739D01*
X0258872Y0128905D01*
X0259370Y0129404D01*
X0259442Y0129577D01*
X0260367Y0129765D01*
X0260420Y0129711D01*
X0260697Y0129527D01*
X0261023Y0129462D01*
X0277862Y0129462D01*
X0278188Y0129527D01*
X0278465Y0129711D01*
X0289116Y0140362D01*
X0289266Y0140299D01*
X0289971Y0140299D01*
X0290622Y0140569D01*
X0291120Y0141068D01*
X0291124Y0141076D01*
X0292057Y0141419D01*
X0292161Y0141364D01*
X0292356Y0141096D01*
X0292356Y0127557D01*
X0292421Y0127230D01*
X0292605Y0126954D01*
X0295712Y0123847D01*
X0295989Y0123662D01*
X0296315Y0123597D01*
X0310657Y0123597D01*
X0310983Y0123662D01*
X0311224Y0123576D01*
X0311428Y0122666D01*
X0309758Y0120996D01*
X0309608Y0121059D01*
X0308903Y0121059D01*
X0308252Y0120789D01*
X0307753Y0120291D01*
X0307483Y0119640D01*
X0307483Y0118935D01*
X0307753Y0118284D01*
X0308252Y0117785D01*
X0308903Y0117516D01*
X0309608Y0117516D01*
X0310259Y0117785D01*
X0310757Y0118284D01*
X0311027Y0118935D01*
X0311027Y0119595D01*
X0311395Y0119972D01*
X0312128Y0119595D01*
X0312128Y0119319D01*
X0312398Y0118668D01*
X0312896Y0118170D01*
X0313007Y0117271D01*
X0309777Y0114042D01*
X0305499Y0114042D01*
X0305436Y0114192D01*
X0304938Y0114691D01*
X0304287Y0114960D01*
X0303582Y0114960D01*
X0302931Y0114691D01*
X0302432Y0114192D01*
X0302163Y0113541D01*
X0302163Y0112836D01*
X0302432Y0112185D01*
X0302931Y0111687D01*
X0303344Y0111515D01*
X0303188Y0110728D01*
X0293127Y0110728D01*
X0292601Y0111515D01*
X0292618Y0111557D01*
X0292618Y0112262D01*
X0292348Y0112913D01*
X0291850Y0113411D01*
X0291199Y0113681D01*
X0290494Y0113681D01*
X0289843Y0113411D01*
X0289344Y0112913D01*
X0289304Y0112815D01*
X0288452Y0112815D01*
X0288411Y0112913D01*
X0287913Y0113411D01*
X0287262Y0113681D01*
X0286557Y0113681D01*
X0285906Y0113411D01*
X0285407Y0112913D01*
X0285367Y0112815D01*
X0284515Y0112815D01*
X0284474Y0112913D01*
X0283976Y0113411D01*
X0283325Y0113681D01*
X0282620Y0113681D01*
X0281969Y0113411D01*
X0281470Y0112913D01*
X0281430Y0112815D01*
X0280578Y0112815D01*
X0280537Y0112913D01*
X0280039Y0113411D01*
X0279388Y0113681D01*
X0278683Y0113681D01*
X0278032Y0113411D01*
X0277533Y0112913D01*
X0277493Y0112815D01*
X0276641Y0112815D01*
X0276600Y0112913D01*
X0276102Y0113411D01*
X0275451Y0113681D01*
X0274746Y0113681D01*
X0274095Y0113411D01*
X0273596Y0112913D01*
X0273556Y0112815D01*
X0272704Y0112815D01*
X0272663Y0112913D01*
X0272165Y0113411D01*
X0271514Y0113681D01*
X0270809Y0113681D01*
X0270158Y0113411D01*
X0269659Y0112913D01*
X0269619Y0112815D01*
X0268767Y0112815D01*
X0268726Y0112913D01*
X0268228Y0113411D01*
X0267577Y0113681D01*
X0266872Y0113681D01*
X0266221Y0113411D01*
X0265722Y0112913D01*
X0265682Y0112815D01*
X0264830Y0112815D01*
X0264789Y0112913D01*
X0264291Y0113411D01*
X0263640Y0113681D01*
X0262935Y0113681D01*
X0262284Y0113411D01*
X0261785Y0112913D01*
X0261516Y0112262D01*
X0261516Y0111557D01*
X0261533Y0111515D01*
X0261007Y0110728D01*
X0255332Y0110728D01*
X0254806Y0111515D01*
X0254823Y0111557D01*
X0254823Y0112262D01*
X0254553Y0112913D01*
X0254055Y0113411D01*
X0253404Y0113681D01*
X0252699Y0113681D01*
X0252048Y0113411D01*
X0251991Y0113354D01*
X0251476Y0112967D01*
X0250962Y0113354D01*
X0250905Y0113411D01*
X0250254Y0113681D01*
X0249549Y0113681D01*
X0248898Y0113411D01*
X0248400Y0112913D01*
X0248130Y0112262D01*
X0248130Y0111557D01*
X0248147Y0111515D01*
X0247621Y0110728D01*
X0242080Y0110728D01*
X0241923Y0111515D01*
X0242337Y0111687D01*
X0242835Y0112185D01*
X0243105Y0112836D01*
X0243105Y0113541D01*
X0242835Y0114192D01*
X0242538Y0114490D01*
X0242538Y0115279D01*
X0242538Y0115279D01*
X0242446Y0115740D01*
X0242185Y0116131D01*
X0226325Y0131991D01*
X0226437Y0132859D01*
X0226490Y0132940D01*
X0226939Y0133390D01*
X0227209Y0134041D01*
X0227209Y0134746D01*
X0226939Y0135397D01*
X0226441Y0135895D01*
X0225790Y0136165D01*
X0225085Y0136165D01*
X0224434Y0135895D01*
X0223935Y0135397D01*
X0223666Y0134746D01*
X0223666Y0134041D01*
X0223621Y0133974D01*
X0212512Y0133974D01*
X0211601Y0134885D01*
X0211838Y0135697D01*
D02*
G37*
G36*
X0213484Y0238848D02*
X0214272Y0238525D01*
X0214541Y0237874D01*
X0215040Y0237376D01*
X0215691Y0237106D01*
X0216396Y0237106D01*
X0217047Y0237376D01*
X0217545Y0237874D01*
X0217815Y0238525D01*
X0217815Y0239230D01*
X0218294Y0239906D01*
X0218914Y0239961D01*
X0220804Y0238071D01*
X0221194Y0237810D01*
X0221655Y0237718D01*
X0221655Y0237718D01*
X0224092Y0237718D01*
X0224390Y0237421D01*
X0225041Y0237151D01*
X0225746Y0237151D01*
X0226397Y0237421D01*
X0226695Y0237718D01*
X0230091Y0237718D01*
X0230091Y0237718D01*
X0230552Y0237810D01*
X0230942Y0238071D01*
X0231403Y0238532D01*
X0233648Y0238532D01*
X0233849Y0238332D01*
X0234500Y0238062D01*
X0235204Y0238062D01*
X0235856Y0238332D01*
X0236354Y0238830D01*
X0236624Y0239481D01*
X0236624Y0240186D01*
X0236621Y0240193D01*
X0237289Y0240639D01*
X0242946Y0234981D01*
X0242946Y0232877D01*
X0242159Y0232351D01*
X0242085Y0232381D01*
X0241380Y0232381D01*
X0240729Y0232112D01*
X0240230Y0231613D01*
X0239961Y0230962D01*
X0239961Y0230619D01*
X0239284Y0230081D01*
X0239233Y0230068D01*
X0239166Y0230096D01*
X0238461Y0230096D01*
X0237810Y0229826D01*
X0237311Y0229328D01*
X0237042Y0228676D01*
X0237042Y0227972D01*
X0237311Y0227321D01*
X0237810Y0226822D01*
X0238461Y0226552D01*
X0239166Y0226552D01*
X0239817Y0226822D01*
X0240315Y0227321D01*
X0240585Y0227972D01*
X0240585Y0228315D01*
X0241261Y0228853D01*
X0241312Y0228866D01*
X0241380Y0228838D01*
X0242085Y0228838D01*
X0242159Y0228869D01*
X0242946Y0228343D01*
X0242946Y0227034D01*
X0243011Y0226708D01*
X0243196Y0226431D01*
X0244969Y0224658D01*
X0244969Y0219834D01*
X0244255Y0219278D01*
X0243551Y0219278D01*
X0242899Y0219008D01*
X0242401Y0218510D01*
X0241581Y0218587D01*
X0241249Y0218724D01*
X0240544Y0218724D01*
X0239893Y0218455D01*
X0239394Y0217956D01*
X0239125Y0217305D01*
X0239125Y0216600D01*
X0239394Y0215949D01*
X0239893Y0215451D01*
X0240544Y0215181D01*
X0241249Y0215181D01*
X0241900Y0215451D01*
X0242144Y0215695D01*
X0242403Y0215612D01*
X0242620Y0214715D01*
X0242261Y0214356D01*
X0242076Y0214079D01*
X0242011Y0213753D01*
X0242011Y0211665D01*
X0241308Y0211103D01*
X0240604Y0211103D01*
X0239952Y0210834D01*
X0239454Y0210335D01*
X0239066Y0210258D01*
X0238895Y0210430D01*
X0238244Y0210700D01*
X0237539Y0210700D01*
X0237523Y0210693D01*
X0236736Y0211219D01*
X0236736Y0217815D01*
X0236736Y0217815D01*
X0236644Y0218275D01*
X0236383Y0218666D01*
X0232739Y0222310D01*
X0232739Y0222310D01*
X0232349Y0222571D01*
X0231888Y0222662D01*
X0227465Y0222662D01*
X0222891Y0227237D01*
X0222891Y0231660D01*
X0222891Y0231660D01*
X0222799Y0232121D01*
X0222538Y0232511D01*
X0220227Y0234822D01*
X0220227Y0235482D01*
X0219957Y0236133D01*
X0219459Y0236631D01*
X0218807Y0236901D01*
X0218102Y0236901D01*
X0217451Y0236631D01*
X0216953Y0236133D01*
X0216683Y0235482D01*
X0216683Y0234777D01*
X0216953Y0234126D01*
X0217451Y0233628D01*
X0218102Y0233358D01*
X0218285Y0233358D01*
X0220482Y0231161D01*
X0220482Y0226738D01*
X0220482Y0226738D01*
X0220574Y0226278D01*
X0220835Y0225887D01*
X0225200Y0221522D01*
X0224899Y0220794D01*
X0216186Y0220794D01*
X0214328Y0222653D01*
X0214812Y0223283D01*
X0215107Y0223112D01*
X0215854Y0222912D01*
X0216626Y0222912D01*
X0217373Y0223112D01*
X0218042Y0223498D01*
X0218588Y0224045D01*
X0218974Y0224714D01*
X0219174Y0225460D01*
X0219174Y0226233D01*
X0218974Y0226979D01*
X0218588Y0227648D01*
X0218042Y0228194D01*
X0217373Y0228580D01*
X0216626Y0228780D01*
X0215854Y0228780D01*
X0215107Y0228580D01*
X0214438Y0228194D01*
X0213892Y0227648D01*
X0213506Y0226979D01*
X0212734Y0227141D01*
X0212734Y0238097D01*
X0213484Y0238848D01*
D02*
G37*
G36*
X0222033Y0172741D02*
X0222125Y0172833D01*
X0222310Y0173110D01*
X0222375Y0173436D01*
X0222375Y0174405D01*
X0228608Y0180639D01*
X0229507Y0180528D01*
X0230005Y0180029D01*
X0230656Y0179760D01*
X0231361Y0179760D01*
X0232012Y0180029D01*
X0232511Y0180528D01*
X0232780Y0181179D01*
X0232780Y0181884D01*
X0232511Y0182535D01*
X0232012Y0183033D01*
X0231901Y0183932D01*
X0240620Y0192651D01*
X0244499Y0192651D01*
X0244561Y0192500D01*
X0245059Y0192002D01*
X0245710Y0191732D01*
X0246415Y0191732D01*
X0247067Y0192002D01*
X0247565Y0192500D01*
X0247835Y0193151D01*
X0248582Y0193055D01*
X0248582Y0179384D01*
X0241748Y0172549D01*
X0241726Y0172541D01*
X0240962Y0172583D01*
X0240799Y0172659D01*
X0240743Y0172743D01*
X0235426Y0178060D01*
X0234971Y0178365D01*
X0234433Y0178471D01*
X0229812Y0178471D01*
X0229275Y0178365D01*
X0228819Y0178060D01*
X0226036Y0175277D01*
X0225732Y0174822D01*
X0225625Y0174284D01*
X0225625Y0173102D01*
X0222956Y0170433D01*
X0222288Y0170879D01*
X0222302Y0170912D01*
X0222302Y0171617D01*
X0222033Y0172268D01*
X0222033Y0172741D01*
D02*
G37*
G36*
X0208827Y0212424D02*
X0208884Y0212480D01*
X0209154Y0213131D01*
X0209154Y0213549D01*
X0227745Y0213549D01*
X0228548Y0212746D01*
X0228521Y0212569D01*
X0228200Y0211980D01*
X0215751Y0211980D01*
X0215425Y0211916D01*
X0215148Y0211731D01*
X0214605Y0211187D01*
X0208946Y0211187D01*
X0208884Y0211338D01*
X0208827Y0211395D01*
X0208440Y0211909D01*
X0208827Y0212424D01*
D02*
G37*
G36*
X0229969Y0168142D02*
X0230452Y0167942D01*
X0231157Y0167942D01*
X0231808Y0168212D01*
X0232306Y0168710D01*
X0232576Y0169362D01*
X0232576Y0170066D01*
X0232306Y0170717D01*
X0231808Y0171216D01*
X0231710Y0172109D01*
X0231889Y0172342D01*
X0232144Y0172342D01*
X0232795Y0172612D01*
X0233293Y0173110D01*
X0233563Y0173761D01*
X0233563Y0174466D01*
X0234160Y0175083D01*
X0234391Y0175122D01*
X0238344Y0171168D01*
X0238344Y0164890D01*
X0238451Y0164352D01*
X0238756Y0163897D01*
X0244028Y0158624D01*
X0244028Y0158487D01*
X0244298Y0157836D01*
X0244796Y0157338D01*
X0245447Y0157068D01*
X0245724Y0156281D01*
X0242353Y0152910D01*
X0236795Y0152910D01*
X0236748Y0153024D01*
X0236301Y0153471D01*
X0236256Y0153542D01*
X0236268Y0153596D01*
X0236826Y0154329D01*
X0236963Y0154329D01*
X0237614Y0154598D01*
X0238113Y0155097D01*
X0238382Y0155748D01*
X0238382Y0156453D01*
X0238113Y0157104D01*
X0237614Y0157602D01*
X0236963Y0157872D01*
X0236258Y0157872D01*
X0235607Y0157602D01*
X0235109Y0157104D01*
X0235061Y0156989D01*
X0234132Y0156804D01*
X0234022Y0156915D01*
X0233370Y0157185D01*
X0232666Y0157185D01*
X0232014Y0156915D01*
X0231555Y0156455D01*
X0231168Y0156842D01*
X0230517Y0157112D01*
X0230461Y0157112D01*
X0229899Y0157899D01*
X0229938Y0158012D01*
X0231560Y0158012D01*
X0231886Y0158077D01*
X0232163Y0158262D01*
X0233287Y0159386D01*
X0233472Y0159663D01*
X0233537Y0159989D01*
X0233537Y0161579D01*
X0233472Y0161906D01*
X0233287Y0162182D01*
X0230627Y0164843D01*
X0230627Y0166018D01*
X0230562Y0166344D01*
X0230377Y0166621D01*
X0229523Y0167475D01*
X0229969Y0168142D01*
D02*
G37*
G36*
X0233169Y0111557D02*
X0233169Y0112262D01*
X0233169Y0112262D01*
X0234076Y0113168D01*
X0234293Y0113494D01*
X0234370Y0113878D01*
X0234370Y0119426D01*
X0235157Y0119753D01*
X0240129Y0114781D01*
X0240129Y0114490D01*
X0239831Y0114192D01*
X0239562Y0113541D01*
X0239562Y0112836D01*
X0239831Y0112185D01*
X0240330Y0111687D01*
X0240743Y0111515D01*
X0240587Y0110728D01*
X0233678Y0110728D01*
X0233152Y0111515D01*
X0233169Y0111557D01*
D02*
G37*
G36*
X0243188Y0151372D02*
X0243310Y0151453D01*
X0247376Y0155520D01*
X0248104Y0155219D01*
X0248104Y0153780D01*
X0247953Y0153718D01*
X0247455Y0153219D01*
X0247185Y0152568D01*
X0247185Y0151863D01*
X0247455Y0151212D01*
X0247953Y0150714D01*
X0248604Y0150444D01*
X0249309Y0150444D01*
X0249960Y0150714D01*
X0250459Y0151212D01*
X0250728Y0151863D01*
X0250728Y0152568D01*
X0250459Y0153219D01*
X0249960Y0153718D01*
X0249810Y0153780D01*
X0249810Y0160505D01*
X0249745Y0160832D01*
X0249560Y0161109D01*
X0246919Y0163750D01*
X0247143Y0164639D01*
X0247494Y0164745D01*
X0247802Y0164567D01*
X0247987Y0164291D01*
X0251903Y0160375D01*
X0251903Y0152504D01*
X0251968Y0152177D01*
X0252153Y0151901D01*
X0252664Y0151390D01*
X0252404Y0150602D01*
X0251753Y0150333D01*
X0251255Y0149834D01*
X0250985Y0149183D01*
X0250985Y0148478D01*
X0251255Y0147827D01*
X0251449Y0147633D01*
X0251238Y0146996D01*
X0251134Y0146835D01*
X0250804Y0146769D01*
X0250479Y0146551D01*
X0247680Y0143753D01*
X0247680Y0143753D01*
X0246975Y0143753D01*
X0246324Y0143483D01*
X0245826Y0142985D01*
X0245556Y0142334D01*
X0245556Y0141629D01*
X0245826Y0140978D01*
X0246324Y0140479D01*
X0246975Y0140210D01*
X0247680Y0140210D01*
X0248331Y0140479D01*
X0248830Y0140978D01*
X0249099Y0141629D01*
X0249099Y0142334D01*
X0249099Y0142334D01*
X0251604Y0144838D01*
X0259845Y0144838D01*
X0260171Y0144051D01*
X0259344Y0143224D01*
X0259127Y0142899D01*
X0259050Y0142515D01*
X0259050Y0140802D01*
X0259127Y0140418D01*
X0259344Y0140093D01*
X0260297Y0139140D01*
X0259971Y0138353D01*
X0245796Y0138353D01*
X0243280Y0140869D01*
X0243280Y0147354D01*
X0243430Y0147416D01*
X0243490Y0147476D01*
X0244096Y0147790D01*
X0244519Y0147476D01*
X0244666Y0147329D01*
X0245318Y0147059D01*
X0246023Y0147059D01*
X0246674Y0147329D01*
X0247172Y0147827D01*
X0247442Y0148478D01*
X0247442Y0149183D01*
X0247172Y0149834D01*
X0246674Y0150333D01*
X0246023Y0150602D01*
X0245318Y0150602D01*
X0244666Y0150333D01*
X0244607Y0150273D01*
X0244001Y0149959D01*
X0243578Y0150273D01*
X0243430Y0150420D01*
X0243209Y0150512D01*
X0243145Y0150787D01*
X0243188Y0151372D01*
D02*
G37*
G36*
X0246426Y0216108D02*
X0246610Y0216385D01*
X0246675Y0216711D01*
X0246675Y0225011D01*
X0246610Y0225338D01*
X0246426Y0225614D01*
X0244652Y0227388D01*
X0244652Y0230591D01*
X0245439Y0231091D01*
X0245650Y0231004D01*
X0246355Y0231004D01*
X0247006Y0231273D01*
X0247505Y0231772D01*
X0247706Y0232257D01*
X0248264Y0232480D01*
X0248562Y0232515D01*
X0249946Y0231131D01*
X0249946Y0225832D01*
X0250011Y0225505D01*
X0250196Y0225229D01*
X0251411Y0224014D01*
X0251411Y0220099D01*
X0250968Y0219915D01*
X0250470Y0219417D01*
X0250438Y0219342D01*
X0249872Y0218724D01*
X0249167Y0218724D01*
X0248516Y0218455D01*
X0248017Y0217956D01*
X0247748Y0217305D01*
X0247748Y0216600D01*
X0248017Y0215949D01*
X0248516Y0215451D01*
X0248733Y0215361D01*
X0248619Y0214556D01*
X0248509Y0214534D01*
X0248233Y0214349D01*
X0247846Y0213963D01*
X0247696Y0214025D01*
X0246991Y0214025D01*
X0246340Y0213755D01*
X0245842Y0213257D01*
X0245632Y0212752D01*
X0245211Y0212204D01*
X0244391Y0212137D01*
X0243759Y0212630D01*
X0243731Y0213413D01*
X0246426Y0216108D01*
D02*
G37*
G36*
X0252978Y0242402D02*
X0253248Y0243053D01*
X0253248Y0243758D01*
X0253231Y0243799D01*
X0253757Y0244586D01*
X0254707Y0244586D01*
X0255234Y0243799D01*
X0255217Y0243758D01*
X0255217Y0243053D01*
X0255486Y0242402D01*
X0255985Y0241903D01*
X0256636Y0241633D01*
X0257341Y0241633D01*
X0257491Y0241696D01*
X0264797Y0234390D01*
X0264797Y0229943D01*
X0264009Y0229774D01*
X0261078Y0232705D01*
X0261078Y0233526D01*
X0261013Y0233852D01*
X0260828Y0234129D01*
X0256528Y0238429D01*
X0256251Y0238614D01*
X0255925Y0238679D01*
X0255318Y0238679D01*
X0252687Y0241310D01*
X0252687Y0242111D01*
X0252978Y0242402D01*
D02*
G37*
G36*
X0255820Y0176745D02*
X0256005Y0177021D01*
X0256069Y0177348D01*
X0256069Y0196834D01*
X0256797Y0197136D01*
X0258385Y0195548D01*
X0258385Y0169063D01*
X0257674Y0168505D01*
X0256969Y0168505D01*
X0256318Y0168235D01*
X0255831Y0167748D01*
X0255474Y0168106D01*
X0254822Y0168376D01*
X0254118Y0168376D01*
X0253466Y0168106D01*
X0252968Y0167608D01*
X0252698Y0166956D01*
X0252698Y0166252D01*
X0252968Y0165600D01*
X0253466Y0165102D01*
X0254118Y0164832D01*
X0254822Y0164832D01*
X0255474Y0165102D01*
X0255550Y0165179D01*
X0256097Y0164977D01*
X0256252Y0164146D01*
X0254261Y0162155D01*
X0253957Y0162125D01*
X0250427Y0165655D01*
X0250427Y0171352D01*
X0255820Y0176745D01*
D02*
G37*
G36*
X0254459Y0205151D02*
X0255020Y0205151D01*
X0255346Y0205216D01*
X0255623Y0205400D01*
X0258454Y0208231D01*
X0258604Y0208169D01*
X0259309Y0208169D01*
X0259960Y0208439D01*
X0260458Y0208937D01*
X0260728Y0209588D01*
X0260728Y0210293D01*
X0260491Y0210867D01*
X0260638Y0211317D01*
X0260816Y0211687D01*
X0261179Y0211777D01*
X0261862Y0211301D01*
X0261862Y0210819D01*
X0262131Y0210168D01*
X0262328Y0209972D01*
X0262319Y0209718D01*
X0262101Y0209101D01*
X0261651Y0208914D01*
X0261152Y0208416D01*
X0260883Y0207765D01*
X0260883Y0207060D01*
X0261152Y0206409D01*
X0261651Y0205911D01*
X0262302Y0205641D01*
X0263007Y0205641D01*
X0263658Y0205911D01*
X0264156Y0206409D01*
X0264426Y0207060D01*
X0264426Y0207765D01*
X0264156Y0208416D01*
X0263960Y0208613D01*
X0263968Y0208865D01*
X0264186Y0209483D01*
X0264637Y0209670D01*
X0265135Y0210168D01*
X0265405Y0210819D01*
X0265405Y0211524D01*
X0265135Y0212175D01*
X0264637Y0212673D01*
X0264323Y0212804D01*
X0264076Y0213671D01*
X0268221Y0217816D01*
X0268406Y0218093D01*
X0268471Y0218419D01*
X0268471Y0219824D01*
X0270581Y0221934D01*
X0271291Y0221565D01*
X0271309Y0221548D01*
X0271309Y0209504D01*
X0271038Y0209308D01*
X0270521Y0209095D01*
X0270012Y0209306D01*
X0269307Y0209306D01*
X0268656Y0209037D01*
X0268158Y0208538D01*
X0267888Y0207887D01*
X0267888Y0207182D01*
X0268158Y0206531D01*
X0268656Y0206033D01*
X0269307Y0205763D01*
X0270012Y0205763D01*
X0270521Y0205974D01*
X0271038Y0205762D01*
X0271309Y0205565D01*
X0271309Y0190288D01*
X0271158Y0190226D01*
X0270660Y0189727D01*
X0270390Y0189076D01*
X0270390Y0188371D01*
X0270660Y0187720D01*
X0271158Y0187222D01*
X0271809Y0186952D01*
X0272514Y0186952D01*
X0273165Y0187222D01*
X0273664Y0187720D01*
X0273933Y0188371D01*
X0273933Y0188801D01*
X0274705Y0188911D01*
X0275400Y0188352D01*
X0275400Y0186529D01*
X0267800Y0178929D01*
X0267452Y0178408D01*
X0267330Y0177794D01*
X0267330Y0177794D01*
X0267330Y0170798D01*
X0267164Y0170398D01*
X0267164Y0170103D01*
X0267105Y0170030D01*
X0266402Y0169631D01*
X0266034Y0169784D01*
X0265329Y0169784D01*
X0265026Y0169658D01*
X0264239Y0170103D01*
X0264239Y0176824D01*
X0265940Y0178526D01*
X0266125Y0178802D01*
X0266190Y0179129D01*
X0266190Y0187624D01*
X0266341Y0187686D01*
X0266839Y0188185D01*
X0267109Y0188836D01*
X0267109Y0189540D01*
X0266839Y0190192D01*
X0266341Y0190690D01*
X0265690Y0190960D01*
X0265542Y0190960D01*
X0264966Y0191041D01*
X0264814Y0191687D01*
X0264814Y0191767D01*
X0264544Y0192419D01*
X0264046Y0192917D01*
X0263395Y0193187D01*
X0262690Y0193187D01*
X0262459Y0193091D01*
X0261671Y0193578D01*
X0261671Y0196493D01*
X0261595Y0196878D01*
X0261377Y0197203D01*
X0254157Y0204423D01*
X0254459Y0205151D01*
D02*
G37*
G36*
X0262224Y0152985D02*
X0264248Y0152985D01*
X0272822Y0144411D01*
X0272464Y0143656D01*
X0272041Y0143656D01*
X0271390Y0143386D01*
X0270957Y0142953D01*
X0270524Y0143386D01*
X0269873Y0143656D01*
X0269168Y0143656D01*
X0268517Y0143386D01*
X0268085Y0142953D01*
X0267652Y0143386D01*
X0267001Y0143656D01*
X0266296Y0143656D01*
X0265645Y0143386D01*
X0265146Y0142887D01*
X0264877Y0142236D01*
X0264877Y0141531D01*
X0265146Y0140880D01*
X0265645Y0140382D01*
X0265863Y0140292D01*
X0265863Y0139453D01*
X0265074Y0138664D01*
X0264286Y0138990D01*
X0264286Y0139009D01*
X0264017Y0139660D01*
X0263518Y0140158D01*
X0263453Y0140485D01*
X0263623Y0140655D01*
X0263893Y0141306D01*
X0263893Y0142011D01*
X0263623Y0142662D01*
X0263124Y0143160D01*
X0263016Y0144058D01*
X0263321Y0144362D01*
X0263538Y0144688D01*
X0263614Y0145072D01*
X0263614Y0150150D01*
X0263538Y0150534D01*
X0263321Y0150860D01*
X0261922Y0152258D01*
X0262224Y0152985D01*
D02*
G37*
G36*
X0277555Y0184142D02*
X0278223Y0183696D01*
X0278077Y0183345D01*
X0278077Y0182641D01*
X0278347Y0181989D01*
X0278845Y0181491D01*
X0279497Y0181221D01*
X0280201Y0181221D01*
X0280853Y0181491D01*
X0281351Y0181989D01*
X0281621Y0182641D01*
X0281621Y0183345D01*
X0281351Y0183997D01*
X0280853Y0184495D01*
X0280201Y0184765D01*
X0279497Y0184765D01*
X0278965Y0184545D01*
X0278610Y0184798D01*
X0278383Y0185091D01*
X0278489Y0185249D01*
X0278611Y0185863D01*
X0278611Y0185864D01*
X0278611Y0198584D01*
X0288832Y0208805D01*
X0288832Y0208805D01*
X0289180Y0209326D01*
X0289302Y0209941D01*
X0289302Y0213857D01*
X0290090Y0214183D01*
X0290176Y0214096D01*
X0290827Y0213827D01*
X0291532Y0213827D01*
X0292183Y0214096D01*
X0292682Y0214595D01*
X0292951Y0215246D01*
X0292951Y0215951D01*
X0292682Y0216602D01*
X0292183Y0217100D01*
X0291532Y0217370D01*
X0290827Y0217370D01*
X0290176Y0217100D01*
X0290090Y0217014D01*
X0289302Y0217340D01*
X0289302Y0218636D01*
X0289468Y0219037D01*
X0289468Y0219742D01*
X0289199Y0220393D01*
X0288700Y0220891D01*
X0288049Y0221161D01*
X0287344Y0221161D01*
X0286693Y0220891D01*
X0286195Y0220393D01*
X0285925Y0219742D01*
X0285925Y0219037D01*
X0286091Y0218636D01*
X0286091Y0210606D01*
X0275870Y0200385D01*
X0275522Y0199864D01*
X0275485Y0199678D01*
X0274715Y0199161D01*
X0274639Y0199151D01*
X0273996Y0199151D01*
X0273802Y0199071D01*
X0273015Y0199580D01*
X0273015Y0209779D01*
X0273802Y0210305D01*
X0273959Y0210241D01*
X0274663Y0210241D01*
X0275387Y0209688D01*
X0275387Y0207603D01*
X0275237Y0207541D01*
X0274738Y0207042D01*
X0274468Y0206391D01*
X0274468Y0205686D01*
X0274738Y0205035D01*
X0275237Y0204537D01*
X0275888Y0204267D01*
X0276593Y0204267D01*
X0277244Y0204537D01*
X0277742Y0205035D01*
X0277926Y0205478D01*
X0278012Y0205686D01*
X0278735Y0206206D01*
X0279386Y0206475D01*
X0279884Y0206974D01*
X0280154Y0207625D01*
X0280154Y0208246D01*
X0280775Y0208246D01*
X0281426Y0208516D01*
X0281925Y0209014D01*
X0282195Y0209665D01*
X0282195Y0210269D01*
X0282798Y0210269D01*
X0283450Y0210539D01*
X0283948Y0211037D01*
X0284218Y0211689D01*
X0284218Y0212393D01*
X0283948Y0213044D01*
X0283450Y0213543D01*
X0283299Y0213605D01*
X0283299Y0225919D01*
X0286743Y0229363D01*
X0287642Y0229252D01*
X0288140Y0228754D01*
X0288791Y0228484D01*
X0289496Y0228484D01*
X0290147Y0228754D01*
X0290645Y0229252D01*
X0290915Y0229903D01*
X0290915Y0230608D01*
X0290863Y0230735D01*
X0291389Y0231522D01*
X0294571Y0231522D01*
X0294929Y0230767D01*
X0294660Y0230116D01*
X0294660Y0229411D01*
X0294929Y0228760D01*
X0294826Y0227867D01*
X0294613Y0227654D01*
X0294344Y0227003D01*
X0294344Y0226298D01*
X0294613Y0225647D01*
X0295112Y0225149D01*
X0295763Y0224879D01*
X0296468Y0224879D01*
X0297119Y0225149D01*
X0297617Y0225647D01*
X0297887Y0226298D01*
X0297887Y0227003D01*
X0297617Y0227654D01*
X0297364Y0227907D01*
X0297435Y0228261D01*
X0297933Y0228760D01*
X0298203Y0229411D01*
X0298203Y0230116D01*
X0297933Y0230767D01*
X0298291Y0231522D01*
X0334561Y0231522D01*
X0334887Y0231587D01*
X0335164Y0231772D01*
X0339378Y0235986D01*
X0339530Y0235923D01*
X0340234Y0235923D01*
X0340886Y0236193D01*
X0341384Y0236691D01*
X0341654Y0237342D01*
X0341654Y0238047D01*
X0341384Y0238698D01*
X0340886Y0239197D01*
X0340234Y0239466D01*
X0339530Y0239466D01*
X0338878Y0239197D01*
X0338804Y0239122D01*
X0338290Y0238761D01*
X0337775Y0239122D01*
X0337701Y0239197D01*
X0337050Y0239466D01*
X0336346Y0239466D01*
X0335694Y0239197D01*
X0335620Y0239122D01*
X0335106Y0238761D01*
X0334591Y0239122D01*
X0334517Y0239197D01*
X0333866Y0239466D01*
X0333161Y0239466D01*
X0332510Y0239197D01*
X0332436Y0239122D01*
X0331922Y0238761D01*
X0331407Y0239122D01*
X0331333Y0239197D01*
X0330682Y0239466D01*
X0329977Y0239466D01*
X0329326Y0239197D01*
X0328828Y0238698D01*
X0328558Y0238047D01*
X0328558Y0237342D01*
X0328620Y0237192D01*
X0327610Y0236181D01*
X0296646Y0236181D01*
X0296120Y0236968D01*
X0296137Y0237012D01*
X0296137Y0237716D01*
X0295868Y0238367D01*
X0295369Y0238866D01*
X0294718Y0239136D01*
X0294013Y0239136D01*
X0293362Y0238866D01*
X0292864Y0238367D01*
X0292594Y0237716D01*
X0292594Y0237012D01*
X0292612Y0236968D01*
X0292086Y0236181D01*
X0289794Y0236181D01*
X0289493Y0236908D01*
X0294280Y0241696D01*
X0294431Y0241633D01*
X0295136Y0241633D01*
X0295787Y0241903D01*
X0295844Y0241960D01*
X0296358Y0242347D01*
X0296873Y0241960D01*
X0296929Y0241903D01*
X0297581Y0241633D01*
X0298285Y0241633D01*
X0298937Y0241903D01*
X0298993Y0241960D01*
X0299508Y0242347D01*
X0300022Y0241960D01*
X0300079Y0241903D01*
X0300730Y0241633D01*
X0301435Y0241633D01*
X0302086Y0241903D01*
X0302143Y0241960D01*
X0302657Y0242347D01*
X0303172Y0241960D01*
X0303229Y0241903D01*
X0303880Y0241633D01*
X0304585Y0241633D01*
X0305236Y0241903D01*
X0305734Y0242402D01*
X0306004Y0243053D01*
X0306004Y0243758D01*
X0305987Y0243799D01*
X0306513Y0244586D01*
X0318881Y0244586D01*
X0319407Y0243799D01*
X0319390Y0243758D01*
X0319390Y0243053D01*
X0319659Y0242402D01*
X0320158Y0241903D01*
X0320809Y0241633D01*
X0321514Y0241633D01*
X0322165Y0241903D01*
X0322663Y0242402D01*
X0322933Y0243053D01*
X0322933Y0243758D01*
X0322916Y0243799D01*
X0323442Y0244586D01*
X0347933Y0244586D01*
X0347933Y0219389D01*
X0345964Y0219389D01*
X0345964Y0219012D01*
X0345748Y0218923D01*
X0345250Y0218425D01*
X0344980Y0217773D01*
X0344980Y0217069D01*
X0345250Y0216417D01*
X0345748Y0215919D01*
X0345964Y0215830D01*
X0345964Y0214288D01*
X0345748Y0214199D01*
X0345250Y0213700D01*
X0344980Y0213049D01*
X0344980Y0212344D01*
X0345250Y0211693D01*
X0345748Y0211195D01*
X0345964Y0211105D01*
X0345964Y0209564D01*
X0345748Y0209474D01*
X0345250Y0208976D01*
X0344980Y0208325D01*
X0344980Y0207620D01*
X0345250Y0206969D01*
X0345748Y0206470D01*
X0345964Y0206381D01*
X0345964Y0204839D01*
X0345748Y0204750D01*
X0345250Y0204251D01*
X0344980Y0203600D01*
X0344980Y0202895D01*
X0345250Y0202244D01*
X0345748Y0201746D01*
X0345964Y0201656D01*
X0345964Y0200115D01*
X0345748Y0200025D01*
X0345250Y0199527D01*
X0344980Y0198876D01*
X0344980Y0198171D01*
X0344394Y0197933D01*
X0344391Y0197933D01*
X0343990Y0197767D01*
X0343799Y0197767D01*
X0343185Y0197645D01*
X0342664Y0197296D01*
X0342316Y0196776D01*
X0342193Y0196161D01*
X0342193Y0122176D01*
X0338878Y0122176D01*
X0338878Y0122176D01*
X0338263Y0122054D01*
X0337742Y0121706D01*
X0337742Y0121706D01*
X0335774Y0119737D01*
X0335426Y0119217D01*
X0335304Y0118602D01*
X0335304Y0118602D01*
X0335304Y0117361D01*
X0332852Y0117361D01*
X0332695Y0118149D01*
X0333021Y0118283D01*
X0333520Y0118782D01*
X0333789Y0119433D01*
X0333789Y0120138D01*
X0333520Y0120789D01*
X0333021Y0121287D01*
X0332629Y0121450D01*
X0332392Y0122158D01*
X0332398Y0122333D01*
X0335257Y0125192D01*
X0335441Y0125468D01*
X0335506Y0125795D01*
X0335506Y0129519D01*
X0335441Y0129846D01*
X0335257Y0130123D01*
X0332396Y0132983D01*
X0332390Y0133161D01*
X0332627Y0133866D01*
X0333021Y0134029D01*
X0333520Y0134528D01*
X0333789Y0135179D01*
X0333789Y0135884D01*
X0333520Y0136535D01*
X0333047Y0137008D01*
X0333520Y0137480D01*
X0333789Y0138132D01*
X0333789Y0138836D01*
X0333727Y0138987D01*
X0338555Y0143815D01*
X0338740Y0144091D01*
X0338805Y0144418D01*
X0338805Y0193544D01*
X0338740Y0193871D01*
X0338555Y0194147D01*
X0330893Y0201809D01*
X0330893Y0215593D01*
X0330828Y0215920D01*
X0330643Y0216196D01*
X0327409Y0219431D01*
X0327132Y0219616D01*
X0326806Y0219681D01*
X0322612Y0219681D01*
X0322086Y0220468D01*
X0322146Y0220612D01*
X0322146Y0221317D01*
X0321876Y0221968D01*
X0321378Y0222466D01*
X0320726Y0222736D01*
X0320022Y0222736D01*
X0319370Y0222466D01*
X0318872Y0221968D01*
X0318602Y0221317D01*
X0318602Y0220725D01*
X0318299Y0220498D01*
X0317875Y0220339D01*
X0316917Y0221297D01*
X0316640Y0221482D01*
X0316314Y0221547D01*
X0312051Y0221547D01*
X0311724Y0221482D01*
X0311447Y0221297D01*
X0310641Y0220490D01*
X0310490Y0220553D01*
X0309785Y0220553D01*
X0309134Y0220283D01*
X0308670Y0219819D01*
X0308261Y0220228D01*
X0307610Y0220498D01*
X0306905Y0220498D01*
X0306254Y0220228D01*
X0305762Y0219735D01*
X0305279Y0220218D01*
X0304627Y0220488D01*
X0303923Y0220488D01*
X0303271Y0220218D01*
X0302773Y0219720D01*
X0302503Y0219069D01*
X0302503Y0218364D01*
X0302773Y0217713D01*
X0303271Y0217214D01*
X0303923Y0216945D01*
X0304627Y0216945D01*
X0304778Y0217007D01*
X0305755Y0216030D01*
X0306031Y0215845D01*
X0306358Y0215780D01*
X0310237Y0215780D01*
X0310416Y0215569D01*
X0310671Y0214993D01*
X0310477Y0214525D01*
X0310477Y0213821D01*
X0310746Y0213169D01*
X0311245Y0212671D01*
X0311896Y0212401D01*
X0312601Y0212401D01*
X0313252Y0212671D01*
X0313750Y0213169D01*
X0314020Y0213821D01*
X0314020Y0214525D01*
X0313826Y0214993D01*
X0314081Y0215569D01*
X0314260Y0215780D01*
X0317189Y0215780D01*
X0317516Y0215845D01*
X0317793Y0216030D01*
X0318724Y0216962D01*
X0322403Y0216962D01*
X0322506Y0216871D01*
X0322865Y0216174D01*
X0322710Y0215802D01*
X0322710Y0215097D01*
X0322980Y0214446D01*
X0323179Y0214247D01*
X0323332Y0213639D01*
X0323148Y0213250D01*
X0322875Y0212977D01*
X0322605Y0212326D01*
X0322605Y0211621D01*
X0322875Y0210970D01*
X0322939Y0210906D01*
X0323315Y0210392D01*
X0322939Y0209877D01*
X0322875Y0209814D01*
X0322605Y0209163D01*
X0322605Y0208458D01*
X0322875Y0207807D01*
X0323098Y0207584D01*
X0323287Y0207077D01*
X0323098Y0206570D01*
X0322875Y0206348D01*
X0322605Y0205696D01*
X0322605Y0204992D01*
X0322875Y0204340D01*
X0323374Y0203842D01*
X0324025Y0203572D01*
X0324730Y0203572D01*
X0325381Y0203842D01*
X0325879Y0204340D01*
X0326149Y0204992D01*
X0326149Y0205696D01*
X0325879Y0206348D01*
X0325657Y0206570D01*
X0325467Y0207077D01*
X0325657Y0207584D01*
X0325879Y0207807D01*
X0326149Y0208458D01*
X0326149Y0209163D01*
X0325879Y0209814D01*
X0325815Y0209877D01*
X0325439Y0210392D01*
X0325815Y0210906D01*
X0325879Y0210970D01*
X0326149Y0211621D01*
X0326149Y0212326D01*
X0325879Y0212977D01*
X0325680Y0213176D01*
X0325527Y0213784D01*
X0325711Y0214173D01*
X0325984Y0214446D01*
X0326254Y0215097D01*
X0326254Y0215668D01*
X0326625Y0215930D01*
X0326981Y0216054D01*
X0328203Y0214832D01*
X0328203Y0200886D01*
X0328268Y0200559D01*
X0328453Y0200282D01*
X0333694Y0195041D01*
X0333694Y0193860D01*
X0333301Y0193629D01*
X0332907Y0193484D01*
X0332340Y0193718D01*
X0331636Y0193718D01*
X0330985Y0193449D01*
X0330486Y0192950D01*
X0330424Y0192800D01*
X0329260Y0192800D01*
X0329078Y0193025D01*
X0328833Y0193587D01*
X0329031Y0194065D01*
X0329031Y0194770D01*
X0328761Y0195421D01*
X0328263Y0195920D01*
X0327612Y0196189D01*
X0326907Y0196189D01*
X0326256Y0195920D01*
X0325757Y0195421D01*
X0325488Y0194770D01*
X0325488Y0194065D01*
X0325686Y0193587D01*
X0325441Y0193025D01*
X0325258Y0192800D01*
X0320824Y0192800D01*
X0312996Y0200627D01*
X0313017Y0200716D01*
X0313382Y0201355D01*
X0313873Y0201355D01*
X0314524Y0201624D01*
X0315022Y0202123D01*
X0315292Y0202774D01*
X0315292Y0203479D01*
X0315022Y0204130D01*
X0314524Y0204628D01*
X0313873Y0204898D01*
X0313168Y0204898D01*
X0312517Y0204628D01*
X0312018Y0204130D01*
X0311940Y0203941D01*
X0311610Y0203864D01*
X0311057Y0203866D01*
X0310665Y0204257D01*
X0310014Y0204527D01*
X0309309Y0204527D01*
X0308658Y0204257D01*
X0308159Y0203759D01*
X0307890Y0203108D01*
X0307890Y0202403D01*
X0308159Y0201752D01*
X0308260Y0201652D01*
X0307934Y0200864D01*
X0307032Y0200864D01*
X0305644Y0202253D01*
X0305706Y0202403D01*
X0305706Y0203108D01*
X0305436Y0203759D01*
X0304938Y0204257D01*
X0304287Y0204527D01*
X0304071Y0204527D01*
X0303537Y0205296D01*
X0303541Y0205307D01*
X0303541Y0206012D01*
X0304098Y0206725D01*
X0310590Y0206725D01*
X0310916Y0206790D01*
X0311193Y0206975D01*
X0311675Y0207458D01*
X0311826Y0207395D01*
X0312531Y0207395D01*
X0313182Y0207665D01*
X0313680Y0208163D01*
X0313950Y0208815D01*
X0313950Y0209519D01*
X0313680Y0210170D01*
X0313182Y0210669D01*
X0312531Y0210938D01*
X0311826Y0210938D01*
X0311175Y0210669D01*
X0310676Y0210170D01*
X0310407Y0209519D01*
X0310407Y0208815D01*
X0309713Y0208431D01*
X0302906Y0208431D01*
X0302749Y0209219D01*
X0303061Y0209348D01*
X0303559Y0209846D01*
X0303829Y0210497D01*
X0303829Y0211202D01*
X0303559Y0211853D01*
X0303061Y0212352D01*
X0302410Y0212621D01*
X0301705Y0212621D01*
X0301054Y0212352D01*
X0300555Y0211853D01*
X0300398Y0211474D01*
X0299558Y0211444D01*
X0299426Y0211763D01*
X0298928Y0212261D01*
X0298276Y0212531D01*
X0297572Y0212531D01*
X0296921Y0212261D01*
X0296422Y0211763D01*
X0296153Y0211112D01*
X0296153Y0210407D01*
X0296155Y0210400D01*
X0295629Y0209612D01*
X0291240Y0209612D01*
X0290914Y0209548D01*
X0290637Y0209363D01*
X0281582Y0200307D01*
X0281397Y0200031D01*
X0281332Y0199704D01*
X0281332Y0189458D01*
X0281181Y0189395D01*
X0280683Y0188897D01*
X0280413Y0188246D01*
X0280413Y0187541D01*
X0280683Y0186890D01*
X0281181Y0186391D01*
X0281833Y0186122D01*
X0281847Y0186122D01*
X0282408Y0185909D01*
X0282408Y0185205D01*
X0282677Y0184554D01*
X0283176Y0184055D01*
X0283410Y0183958D01*
X0283623Y0183058D01*
X0278873Y0178307D01*
X0278688Y0178030D01*
X0278655Y0177864D01*
X0278197Y0177622D01*
X0277849Y0177555D01*
X0277198Y0177825D01*
X0276494Y0177825D01*
X0275842Y0177555D01*
X0275344Y0177057D01*
X0275074Y0176406D01*
X0275074Y0175701D01*
X0275344Y0175050D01*
X0275842Y0174552D01*
X0276494Y0174282D01*
X0277198Y0174282D01*
X0277849Y0174552D01*
X0278623Y0174212D01*
X0278623Y0168102D01*
X0278136Y0167615D01*
X0277866Y0166964D01*
X0277866Y0166259D01*
X0277895Y0166190D01*
X0277369Y0165402D01*
X0275849Y0165402D01*
X0270604Y0170648D01*
X0270542Y0170798D01*
X0270542Y0177129D01*
X0277555Y0184142D01*
D02*
G37*
G36*
X0266728Y0156815D02*
X0267127Y0156867D01*
X0269184Y0154810D01*
X0269461Y0154625D01*
X0269788Y0154560D01*
X0272580Y0154560D01*
X0278875Y0148265D01*
X0278574Y0147537D01*
X0274892Y0147537D01*
X0266445Y0155985D01*
X0266728Y0156815D01*
D02*
G37*
G36*
X0275037Y0155544D02*
X0278288Y0155544D01*
X0284319Y0149513D01*
X0284018Y0148786D01*
X0280767Y0148786D01*
X0274735Y0154817D01*
X0275037Y0155544D01*
D02*
G37*
G36*
X0288694Y0185715D02*
X0288879Y0185992D01*
X0288943Y0186318D01*
X0288943Y0200898D01*
X0290293Y0202248D01*
X0291172Y0202013D01*
X0291231Y0201790D01*
X0291594Y0201162D01*
X0292107Y0200649D01*
X0292735Y0200286D01*
X0292749Y0200282D01*
X0292749Y0194980D01*
X0292790Y0194776D01*
X0292559Y0194322D01*
X0292307Y0193996D01*
X0292069Y0193996D01*
X0291418Y0193726D01*
X0290919Y0193228D01*
X0290649Y0192577D01*
X0290649Y0191872D01*
X0290919Y0191221D01*
X0291418Y0190722D01*
X0291344Y0189900D01*
X0291231Y0189705D01*
X0291043Y0189004D01*
X0291043Y0188279D01*
X0291231Y0187578D01*
X0291594Y0186949D01*
X0292107Y0186436D01*
X0292735Y0186073D01*
X0292749Y0186070D01*
X0292749Y0178523D01*
X0292814Y0178197D01*
X0292999Y0177920D01*
X0294616Y0176303D01*
X0294208Y0175597D01*
X0294162Y0175610D01*
X0293436Y0175610D01*
X0292735Y0175422D01*
X0292107Y0175059D01*
X0291594Y0174546D01*
X0291231Y0173918D01*
X0291043Y0173217D01*
X0291043Y0172491D01*
X0291231Y0171790D01*
X0291594Y0171162D01*
X0292107Y0170649D01*
X0292434Y0170460D01*
X0292223Y0169673D01*
X0292035Y0169673D01*
X0291384Y0169403D01*
X0290886Y0168904D01*
X0290616Y0168253D01*
X0290616Y0167548D01*
X0290886Y0166897D01*
X0291384Y0166399D01*
X0291889Y0166190D01*
X0291733Y0165402D01*
X0285422Y0165402D01*
X0285422Y0173398D01*
X0285588Y0173798D01*
X0285588Y0174503D01*
X0285318Y0175154D01*
X0284820Y0175653D01*
X0284169Y0175923D01*
X0283464Y0175923D01*
X0282813Y0175653D01*
X0282314Y0175154D01*
X0282045Y0174503D01*
X0282045Y0173798D01*
X0282211Y0173398D01*
X0282211Y0166365D01*
X0282197Y0166361D01*
X0281410Y0166945D01*
X0281410Y0166964D01*
X0281140Y0167615D01*
X0280642Y0168114D01*
X0280329Y0168243D01*
X0280329Y0177351D01*
X0288694Y0185715D01*
D02*
G37*
G36*
X0279657Y0140054D02*
X0279696Y0140112D01*
X0279764Y0140112D01*
X0280416Y0140382D01*
X0280914Y0140880D01*
X0281155Y0141461D01*
X0281421Y0141527D01*
X0281965Y0141517D01*
X0282152Y0141068D01*
X0282650Y0140569D01*
X0283301Y0140299D01*
X0284006Y0140299D01*
X0284657Y0140569D01*
X0284678Y0140590D01*
X0285192Y0141036D01*
X0285707Y0140590D01*
X0285728Y0140569D01*
X0285776Y0140549D01*
X0285961Y0139620D01*
X0277509Y0131168D01*
X0271800Y0131168D01*
X0271499Y0131895D01*
X0279657Y0140054D01*
D02*
G37*
G36*
X0285081Y0153290D02*
X0285358Y0153739D01*
X0292298Y0153739D01*
X0296412Y0149626D01*
X0296688Y0149441D01*
X0296842Y0149410D01*
X0296983Y0148846D01*
X0296968Y0148608D01*
X0296475Y0148114D01*
X0296205Y0147463D01*
X0296205Y0147354D01*
X0295418Y0147028D01*
X0291907Y0150539D01*
X0291630Y0150724D01*
X0291304Y0150789D01*
X0287195Y0150789D01*
X0285017Y0152967D01*
X0285081Y0153290D01*
D02*
G37*
G36*
X0284440Y0157539D02*
X0284939Y0158037D01*
X0285208Y0158688D01*
X0285208Y0159393D01*
X0285146Y0159544D01*
X0286265Y0160662D01*
X0296989Y0160662D01*
X0300340Y0157312D01*
X0300219Y0157021D01*
X0300219Y0156316D01*
X0300489Y0155665D01*
X0300988Y0155167D01*
X0301639Y0154897D01*
X0302344Y0154897D01*
X0303058Y0154340D01*
X0303058Y0152530D01*
X0302279Y0152001D01*
X0301575Y0152001D01*
X0300923Y0151731D01*
X0300425Y0151232D01*
X0300363Y0151082D01*
X0297368Y0151082D01*
X0293255Y0155195D01*
X0292978Y0155380D01*
X0292651Y0155445D01*
X0285524Y0155445D01*
X0284329Y0156641D01*
X0284440Y0157539D01*
D02*
G37*
G36*
X0302870Y0146195D02*
X0303616Y0146240D01*
X0304114Y0145742D01*
X0304766Y0145472D01*
X0305470Y0145472D01*
X0306122Y0145742D01*
X0306620Y0146240D01*
X0306890Y0146891D01*
X0306890Y0147538D01*
X0308718Y0149366D01*
X0309351Y0149304D01*
X0309574Y0148545D01*
X0309280Y0148251D01*
X0309010Y0147599D01*
X0309010Y0146895D01*
X0309280Y0146243D01*
X0309778Y0145745D01*
X0309929Y0145683D01*
X0309929Y0143942D01*
X0309994Y0143616D01*
X0310179Y0143339D01*
X0317232Y0136286D01*
X0317509Y0136101D01*
X0317835Y0136036D01*
X0321989Y0136036D01*
X0328251Y0129774D01*
X0328188Y0129624D01*
X0328188Y0128919D01*
X0328458Y0128268D01*
X0328887Y0127839D01*
X0328458Y0127410D01*
X0328221Y0126838D01*
X0324762Y0126838D01*
X0324376Y0127223D01*
X0324376Y0129626D01*
X0324312Y0129952D01*
X0324127Y0130229D01*
X0320355Y0134000D01*
X0320079Y0134185D01*
X0319752Y0134250D01*
X0315779Y0134250D01*
X0315222Y0134964D01*
X0315222Y0135669D01*
X0314952Y0136320D01*
X0314454Y0136818D01*
X0313803Y0137088D01*
X0313098Y0137088D01*
X0312447Y0136818D01*
X0312308Y0136680D01*
X0311794Y0136403D01*
X0311280Y0136680D01*
X0311141Y0136818D01*
X0310490Y0137088D01*
X0309785Y0137088D01*
X0309134Y0136818D01*
X0308661Y0136346D01*
X0308189Y0136818D01*
X0307537Y0137088D01*
X0306833Y0137088D01*
X0306181Y0136818D01*
X0305698Y0136335D01*
X0305279Y0136754D01*
X0304627Y0137023D01*
X0303923Y0137023D01*
X0303271Y0136754D01*
X0303175Y0136657D01*
X0302387Y0136983D01*
X0302387Y0145782D01*
X0302870Y0146195D01*
D02*
G37*
G36*
X0321333Y0189796D02*
X0328288Y0189796D01*
X0329575Y0188510D01*
X0329582Y0188344D01*
X0329344Y0187627D01*
X0328956Y0187466D01*
X0328458Y0186968D01*
X0328188Y0186317D01*
X0328188Y0185612D01*
X0328458Y0184961D01*
X0328370Y0184015D01*
X0328160Y0183507D01*
X0326509Y0183507D01*
X0321007Y0189009D01*
X0321333Y0189796D01*
D02*
G37*
G36*
X0304938Y0111687D02*
X0305436Y0112185D01*
X0305499Y0112336D01*
X0310131Y0112336D01*
X0310457Y0112401D01*
X0310734Y0112585D01*
X0314590Y0116441D01*
X0314716Y0116450D01*
X0315472Y0116211D01*
X0315624Y0115845D01*
X0316122Y0115346D01*
X0316774Y0115077D01*
X0317478Y0115077D01*
X0318130Y0115346D01*
X0318628Y0115845D01*
X0318898Y0116496D01*
X0318898Y0117200D01*
X0318835Y0117351D01*
X0320136Y0118652D01*
X0320553Y0118611D01*
X0321262Y0118265D01*
X0321262Y0117561D01*
X0321531Y0116910D01*
X0322030Y0116411D01*
X0322681Y0116141D01*
X0323386Y0116141D01*
X0323819Y0116321D01*
X0323849Y0116308D01*
X0324376Y0115608D01*
X0324376Y0114903D01*
X0324646Y0114252D01*
X0325144Y0113754D01*
X0325796Y0113484D01*
X0326500Y0113484D01*
X0327152Y0113754D01*
X0327650Y0114252D01*
X0327888Y0114826D01*
X0328246Y0114993D01*
X0328707Y0115120D01*
X0329207Y0114620D01*
X0329728Y0114272D01*
X0330343Y0114150D01*
X0330343Y0114150D01*
X0331695Y0114150D01*
X0331900Y0113598D01*
X0331920Y0113362D01*
X0331470Y0112913D01*
X0331201Y0112262D01*
X0331201Y0111557D01*
X0331218Y0111515D01*
X0330692Y0110728D01*
X0304681Y0110728D01*
X0304524Y0111515D01*
X0304938Y0111687D01*
D02*
G37*
G36*
X0339302Y0116915D02*
X0339344Y0116813D01*
X0339843Y0116315D01*
X0340494Y0116045D01*
X0341199Y0116045D01*
X0341850Y0116315D01*
X0342348Y0116813D01*
X0342618Y0117464D01*
X0342618Y0118169D01*
X0342615Y0118178D01*
X0343141Y0118965D01*
X0343793Y0118965D01*
X0344194Y0118799D01*
X0344899Y0118799D01*
X0345550Y0119069D01*
X0346048Y0119567D01*
X0346318Y0120218D01*
X0346318Y0120923D01*
X0346346Y0120964D01*
X0347933Y0120964D01*
X0347933Y0115765D01*
X0347145Y0115238D01*
X0347104Y0115256D01*
X0346399Y0115256D01*
X0345748Y0114986D01*
X0345250Y0114488D01*
X0344980Y0113836D01*
X0344980Y0113131D01*
X0345250Y0112480D01*
X0345748Y0111982D01*
X0346399Y0111712D01*
X0346703Y0111712D01*
X0347290Y0111037D01*
X0347305Y0110985D01*
X0347227Y0110728D01*
X0339190Y0110728D01*
X0338664Y0111515D01*
X0338681Y0111557D01*
X0338681Y0112262D01*
X0338515Y0112662D01*
X0338515Y0116758D01*
X0339302Y0116915D01*
D02*
G37*
%LPC*%
G36*
X0220922Y0191890D02*
X0220922Y0191185D01*
X0221192Y0190534D01*
X0221691Y0190036D01*
X0222342Y0189766D01*
X0223047Y0189766D01*
X0223698Y0190036D01*
X0224196Y0190534D01*
X0224466Y0191185D01*
X0224466Y0191890D01*
X0224196Y0192541D01*
X0223698Y0193039D01*
X0223047Y0193309D01*
X0222342Y0193309D01*
X0221691Y0193039D01*
X0221192Y0192541D01*
X0220922Y0191890D01*
D02*
G37*
G36*
X0236387Y0132452D02*
X0236387Y0131748D01*
X0236657Y0131097D01*
X0237155Y0130598D01*
X0237807Y0130329D01*
X0238511Y0130329D01*
X0239162Y0130598D01*
X0239661Y0131097D01*
X0239931Y0131748D01*
X0239931Y0132452D01*
X0239661Y0133104D01*
X0239162Y0133602D01*
X0238511Y0133872D01*
X0237807Y0133872D01*
X0237155Y0133602D01*
X0236657Y0133104D01*
X0236387Y0132452D01*
D02*
G37*
G36*
X0295453Y0117301D02*
X0295453Y0116597D01*
X0295723Y0115946D01*
X0296222Y0115447D01*
X0296873Y0115178D01*
X0297577Y0115178D01*
X0298229Y0115447D01*
X0298727Y0115946D01*
X0298997Y0116597D01*
X0298997Y0117301D01*
X0298734Y0117935D01*
X0299204Y0118130D01*
X0299492Y0118418D01*
X0299727Y0118623D01*
X0300483Y0118456D01*
X0300541Y0118398D01*
X0301192Y0118129D01*
X0301896Y0118129D01*
X0302548Y0118398D01*
X0303046Y0118897D01*
X0303316Y0119548D01*
X0303316Y0120253D01*
X0303046Y0120904D01*
X0302548Y0121402D01*
X0301896Y0121672D01*
X0301192Y0121672D01*
X0300541Y0121402D01*
X0300252Y0121114D01*
X0300017Y0120909D01*
X0299261Y0121076D01*
X0299204Y0121134D01*
X0298553Y0121403D01*
X0297848Y0121403D01*
X0297197Y0121134D01*
X0296698Y0120635D01*
X0296429Y0119984D01*
X0296429Y0119279D01*
X0296691Y0118646D01*
X0296222Y0118451D01*
X0295723Y0117953D01*
X0295453Y0117301D01*
D02*
G37*
G36*
X0214272Y0231750D02*
X0214272Y0231045D01*
X0214541Y0230394D01*
X0215040Y0229895D01*
X0215691Y0229626D01*
X0216396Y0229626D01*
X0217047Y0229895D01*
X0217545Y0230394D01*
X0217815Y0231045D01*
X0217815Y0231750D01*
X0217545Y0232401D01*
X0217047Y0232899D01*
X0216396Y0233169D01*
X0215691Y0233169D01*
X0215040Y0232899D01*
X0214541Y0232401D01*
X0214272Y0231750D01*
D02*
G37*
G36*
X0228740Y0226533D02*
X0228740Y0225828D01*
X0229010Y0225177D01*
X0229508Y0224679D01*
X0230159Y0224409D01*
X0230864Y0224409D01*
X0231515Y0224679D01*
X0232014Y0225177D01*
X0232283Y0225828D01*
X0232283Y0226533D01*
X0232014Y0227184D01*
X0231515Y0227683D01*
X0230864Y0227952D01*
X0230159Y0227952D01*
X0229508Y0227683D01*
X0229010Y0227184D01*
X0228740Y0226533D01*
D02*
G37*
G36*
X0239728Y0181251D02*
X0239728Y0180546D01*
X0239997Y0179895D01*
X0240496Y0179397D01*
X0241147Y0179127D01*
X0241852Y0179127D01*
X0242503Y0179397D01*
X0243001Y0179895D01*
X0243271Y0180546D01*
X0243271Y0181251D01*
X0243001Y0181902D01*
X0242503Y0182400D01*
X0241852Y0182670D01*
X0241147Y0182670D01*
X0240496Y0182400D01*
X0239997Y0181902D01*
X0239728Y0181251D01*
D02*
G37*
G36*
X0295663Y0222369D02*
X0295663Y0221664D01*
X0295933Y0221013D01*
X0296431Y0220514D01*
X0297083Y0220245D01*
X0297787Y0220245D01*
X0298439Y0220514D01*
X0298937Y0221013D01*
X0299207Y0221664D01*
X0299207Y0222369D01*
X0298937Y0223020D01*
X0298439Y0223518D01*
X0297787Y0223788D01*
X0297083Y0223788D01*
X0296431Y0223518D01*
X0295933Y0223020D01*
X0295663Y0222369D01*
D02*
G37*
G36*
X0315938Y0211118D02*
X0315938Y0210413D01*
X0316208Y0209762D01*
X0316706Y0209263D01*
X0317357Y0208993D01*
X0318062Y0208993D01*
X0318713Y0209263D01*
X0319211Y0209762D01*
X0319481Y0210413D01*
X0319481Y0211118D01*
X0319211Y0211769D01*
X0318713Y0212267D01*
X0318062Y0212537D01*
X0317357Y0212537D01*
X0316706Y0212267D01*
X0316208Y0211769D01*
X0315938Y0211118D01*
D02*
G37*
G36*
X0318602Y0197695D02*
X0318602Y0196990D01*
X0318872Y0196339D01*
X0319370Y0195840D01*
X0320022Y0195570D01*
X0320726Y0195570D01*
X0321378Y0195840D01*
X0321876Y0196339D01*
X0322146Y0196990D01*
X0322146Y0197695D01*
X0321876Y0198346D01*
X0321378Y0198844D01*
X0320726Y0199114D01*
X0320022Y0199114D01*
X0319370Y0198844D01*
X0318872Y0198346D01*
X0318602Y0197695D01*
D02*
G37*
G36*
X0333487Y0225632D02*
X0333487Y0224928D01*
X0333756Y0224277D01*
X0334254Y0223778D01*
X0334906Y0223508D01*
X0335610Y0223508D01*
X0336262Y0223778D01*
X0336760Y0224277D01*
X0337030Y0224928D01*
X0337030Y0225632D01*
X0336760Y0226284D01*
X0336262Y0226782D01*
X0335610Y0227052D01*
X0334906Y0227052D01*
X0334254Y0226782D01*
X0333756Y0226284D01*
X0333487Y0225632D01*
D02*
G37*
G36*
X0335945Y0207648D02*
X0335945Y0206943D01*
X0336214Y0206292D01*
X0336713Y0205794D01*
X0337364Y0205524D01*
X0338068Y0205524D01*
X0338720Y0205794D01*
X0339218Y0206292D01*
X0339488Y0206943D01*
X0339488Y0207648D01*
X0339218Y0208299D01*
X0338720Y0208797D01*
X0338068Y0209067D01*
X0337364Y0209067D01*
X0336713Y0208797D01*
X0336214Y0208299D01*
X0335945Y0207648D01*
D02*
G37*
G36*
X0335965Y0202921D02*
X0335965Y0202216D01*
X0336235Y0201565D01*
X0336733Y0201067D01*
X0337384Y0200797D01*
X0338089Y0200797D01*
X0338740Y0201067D01*
X0339239Y0201565D01*
X0339508Y0202216D01*
X0339508Y0202921D01*
X0339239Y0203572D01*
X0338740Y0204071D01*
X0338089Y0204340D01*
X0337384Y0204340D01*
X0336733Y0204071D01*
X0336235Y0203572D01*
X0335965Y0202921D01*
D02*
G37*
G36*
X0336008Y0212074D02*
X0336008Y0211369D01*
X0336277Y0210718D01*
X0336776Y0210220D01*
X0337427Y0209950D01*
X0338132Y0209950D01*
X0338783Y0210220D01*
X0339281Y0210718D01*
X0339551Y0211369D01*
X0339551Y0212074D01*
X0339281Y0212725D01*
X0338783Y0213223D01*
X0338132Y0213493D01*
X0337427Y0213493D01*
X0336776Y0213223D01*
X0336277Y0212725D01*
X0336008Y0212074D01*
D02*
G37*
G36*
X0336108Y0216585D02*
X0336108Y0215880D01*
X0336378Y0215229D01*
X0336876Y0214731D01*
X0337527Y0214461D01*
X0338232Y0214461D01*
X0338883Y0214731D01*
X0339382Y0215229D01*
X0339651Y0215880D01*
X0339651Y0216585D01*
X0339382Y0217236D01*
X0338883Y0217735D01*
X0338232Y0218004D01*
X0337527Y0218004D01*
X0336876Y0217735D01*
X0336378Y0217236D01*
X0336108Y0216585D01*
D02*
G37*
G36*
X0341802Y0241592D02*
X0341802Y0240887D01*
X0342071Y0240236D01*
X0342570Y0239738D01*
X0343221Y0239468D01*
X0343926Y0239468D01*
X0344577Y0239738D01*
X0345075Y0240236D01*
X0345345Y0240887D01*
X0345345Y0241592D01*
X0345075Y0242243D01*
X0344577Y0242742D01*
X0343926Y0243011D01*
X0343221Y0243011D01*
X0342570Y0242742D01*
X0342071Y0242243D01*
X0341802Y0241592D01*
D02*
G37*
G36*
X0296161Y0155027D02*
X0296161Y0154323D01*
X0296431Y0153671D01*
X0296929Y0153173D01*
X0297581Y0152903D01*
X0298285Y0152903D01*
X0298937Y0153173D01*
X0299435Y0153671D01*
X0299705Y0154323D01*
X0299705Y0155027D01*
X0299435Y0155678D01*
X0298937Y0156177D01*
X0298285Y0156447D01*
X0297581Y0156447D01*
X0296929Y0156177D01*
X0296431Y0155678D01*
X0296161Y0155027D01*
D02*
G37*
%LPD*%
D78*
X0220010Y0141935D02*
X0220010Y0153081D01*
X0222638Y0155708D01*
X0220082Y0141863D02*
X0220010Y0141935D01*
X0222638Y0155708D02*
X0222638Y0165157D01*
X0231594Y0174114D01*
X0231791Y0174114D02*
X0231594Y0174114D01*
X0223442Y0130003D02*
X0223206Y0130003D01*
X0233366Y0120078D02*
X0223442Y0130003D01*
X0233366Y0113878D02*
X0233366Y0120078D01*
X0231398Y0111909D02*
X0233366Y0113878D01*
X0261331Y0146303D02*
X0261331Y0149595D01*
X0260870Y0145842D02*
X0261331Y0146303D01*
X0247328Y0141981D02*
X0251188Y0145842D01*
X0260870Y0145842D02*
X0251188Y0145842D01*
X0262611Y0150150D02*
X0256250Y0156511D01*
X0262611Y0145072D02*
X0262611Y0150150D01*
X0261331Y0149595D02*
X0254970Y0155956D01*
X0256250Y0156511D02*
X0256250Y0160915D01*
X0254970Y0155956D02*
X0254970Y0161446D01*
X0252290Y0204872D02*
X0245416Y0204872D01*
X0240956Y0209332D01*
X0259388Y0165864D02*
X0259388Y0195964D01*
X0251760Y0203592D02*
X0243227Y0203592D01*
X0260668Y0196493D02*
X0252290Y0204872D01*
X0259388Y0195964D02*
X0251760Y0203592D01*
X0260668Y0165334D02*
X0260668Y0196493D01*
X0243227Y0203592D02*
X0237891Y0208928D01*
X0262515Y0138657D02*
X0262200Y0138657D01*
X0260054Y0140802D02*
X0260054Y0142515D01*
X0262611Y0145072D01*
X0262200Y0138657D02*
X0260054Y0140802D01*
X0254970Y0161446D02*
X0259388Y0165864D01*
X0256250Y0160915D02*
X0260668Y0165334D01*
D82*
X0250868Y0123407D02*
X0257868Y0130407D01*
X0344783Y0196161D02*
X0343799Y0196161D01*
X0343799Y0186712D02*
X0343799Y0191437D01*
X0343799Y0181988D02*
X0343799Y0186712D01*
X0343799Y0191437D02*
X0343799Y0196161D01*
X0344783Y0191437D02*
X0343799Y0191437D01*
X0344783Y0186712D02*
X0343799Y0186712D01*
X0344783Y0181988D02*
X0343799Y0181988D01*
X0344940Y0177264D02*
X0343956Y0177264D01*
X0343799Y0163090D02*
X0343799Y0167815D01*
X0343799Y0172539D02*
X0343799Y0181988D01*
X0343799Y0167815D02*
X0343799Y0172539D01*
X0344783Y0172539D02*
X0343799Y0172539D01*
X0344783Y0167815D02*
X0343799Y0167815D01*
X0344783Y0163090D02*
X0343799Y0163090D01*
X0343799Y0153641D02*
X0343799Y0163090D01*
X0344940Y0153641D02*
X0343956Y0153641D01*
X0343799Y0121424D02*
X0343799Y0153641D01*
X0344940Y0148917D02*
X0343956Y0148917D01*
X0344940Y0139468D02*
X0343956Y0139468D01*
X0344940Y0134744D02*
X0343956Y0134744D01*
X0344668Y0125188D02*
X0344561Y0125295D01*
X0287697Y0209941D02*
X0287697Y0219389D01*
X0277006Y0199249D02*
X0287697Y0209941D01*
X0277006Y0185863D02*
X0277006Y0199249D01*
X0268936Y0177794D02*
X0277006Y0185863D01*
X0283816Y0163821D02*
X0283816Y0174151D01*
X0283841Y0163797D02*
X0283816Y0163821D01*
X0295179Y0163797D02*
X0283841Y0163797D01*
X0344743Y0144193D02*
X0343956Y0144193D01*
X0344743Y0158366D02*
X0343956Y0158366D01*
X0344546Y0120571D02*
X0338878Y0120571D01*
X0283841Y0163797D02*
X0275184Y0163797D01*
X0268936Y0170045D01*
X0268936Y0177794D01*
X0323033Y0117913D02*
X0323053Y0117933D01*
X0328165Y0117933D02*
X0323053Y0117933D01*
X0330343Y0115756D02*
X0328165Y0117933D01*
X0336909Y0115756D02*
X0330343Y0115756D01*
X0250868Y0123407D02*
X0243012Y0123407D01*
X0344546Y0120677D02*
X0343799Y0121424D01*
X0344546Y0120571D02*
X0344546Y0120677D01*
X0336909Y0118602D02*
X0338878Y0120571D01*
X0336909Y0111909D02*
X0336909Y0115756D01*
X0336909Y0118602D01*
D46*
X0206594Y0164075D02*
D03*
D45*
X0206594Y0150295D02*
D03*
D48*
X0312697Y0244193D02*
D03*
D43*
X0206594Y0202460D02*
D03*
X0347539Y0118208D02*
D03*
D44*
X0347539Y0231988D02*
D03*
X0206594Y0126476D02*
D03*
D41*
X0311909Y0111122D02*
D03*
D42*
X0343405Y0111122D02*
D03*
D40*
X0258169Y0111122D02*
D03*
D49*
X0335531Y0244193D02*
D03*
D47*
X0219980Y0244193D02*
D03*
D38*
X0240650Y0111122D02*
D03*
X0216634Y0111122D02*
D03*
D39*
X0228642Y0111122D02*
D03*
X0254232Y0244193D02*
D03*
D162*
X0217637Y0209208D02*
X0216997Y0208568D01*
X0216357Y0204199D02*
X0216997Y0204838D01*
X0215717Y0204838D02*
X0216357Y0204199D01*
X0215717Y0208568D02*
X0215078Y0209208D01*
X0242706Y0152057D02*
X0235281Y0152057D01*
X0232370Y0149181D02*
X0232370Y0151859D01*
X0236611Y0156100D01*
X0235246Y0152021D02*
X0235281Y0152057D01*
X0231560Y0158865D02*
X0232684Y0159989D01*
X0231560Y0158865D02*
X0228611Y0158865D01*
X0232684Y0159989D02*
X0232684Y0161579D01*
X0228245Y0158499D02*
X0228611Y0158865D01*
X0228789Y0160435D02*
X0228789Y0164243D01*
X0227261Y0158907D02*
X0228789Y0160435D01*
X0229774Y0164490D02*
X0229774Y0166018D01*
X0232684Y0161579D02*
X0229774Y0164490D01*
X0228245Y0153318D02*
X0228245Y0158499D01*
X0226870Y0162106D02*
X0226698Y0162278D01*
X0226698Y0163664D02*
X0225667Y0164696D01*
X0226698Y0162278D02*
X0226698Y0163664D01*
X0229774Y0166018D02*
X0228381Y0167410D01*
X0228789Y0164243D02*
X0227586Y0165446D01*
X0225667Y0164696D02*
X0225667Y0166286D01*
X0228381Y0167410D02*
X0226791Y0167410D01*
X0225667Y0166286D02*
X0226791Y0167410D01*
X0233018Y0155413D02*
X0232962Y0155413D01*
X0231386Y0153837D02*
X0232962Y0155413D01*
X0228118Y0152053D02*
X0227261Y0152910D01*
X0244220Y0134547D02*
X0230286Y0148481D01*
X0227261Y0152910D02*
X0227261Y0158907D01*
X0230286Y0148481D02*
X0230286Y0155219D01*
X0230165Y0155340D01*
X0229102Y0152461D02*
X0228245Y0153318D01*
X0231386Y0148773D02*
X0231386Y0153837D01*
X0227586Y0165446D02*
X0227586Y0165491D01*
X0220888Y0171622D02*
X0220888Y0172803D01*
X0221522Y0173436D02*
X0221522Y0174759D01*
X0220888Y0172803D02*
X0221522Y0173436D01*
X0220531Y0171265D02*
X0220888Y0171622D01*
X0221522Y0174759D02*
X0240267Y0193504D01*
X0217258Y0158137D02*
X0217258Y0175132D01*
X0241420Y0199294D01*
X0207882Y0153395D02*
X0206742Y0153395D01*
X0206594Y0153248D02*
X0206742Y0153395D01*
X0206594Y0150295D02*
X0206594Y0153248D01*
X0209301Y0156405D02*
X0207882Y0157824D01*
X0209301Y0154815D02*
X0209301Y0156405D01*
X0207882Y0153395D02*
X0209301Y0154815D01*
X0206594Y0157972D02*
X0206594Y0164075D01*
X0206742Y0157824D02*
X0206594Y0157972D01*
X0207882Y0157824D02*
X0206742Y0157824D01*
X0294783Y0192224D02*
X0292421Y0192224D01*
X0293602Y0194980D02*
X0293602Y0202854D01*
X0296788Y0190220D02*
X0294783Y0192224D01*
X0265649Y0234744D02*
X0256988Y0243405D01*
X0265649Y0229642D02*
X0265649Y0234744D01*
X0251616Y0179819D02*
X0251616Y0193480D01*
X0243110Y0171313D02*
X0251616Y0179819D01*
X0261590Y0131299D02*
X0259326Y0133563D01*
X0277862Y0130315D02*
X0289618Y0142071D01*
X0261023Y0130315D02*
X0258760Y0132578D01*
X0279054Y0140657D02*
X0279054Y0141526D01*
X0279412Y0141884D01*
X0269696Y0131299D02*
X0261590Y0131299D01*
X0269696Y0131299D02*
X0279054Y0140657D01*
X0277862Y0130315D02*
X0261023Y0130315D01*
X0266716Y0139100D02*
X0266716Y0141884D01*
X0301991Y0156867D02*
X0297343Y0161515D01*
X0285911Y0161515D01*
X0283437Y0159041D02*
X0285911Y0161515D01*
X0272162Y0221556D02*
X0287172Y0236566D01*
X0287944Y0236566D02*
X0294783Y0243405D01*
X0287944Y0236566D02*
X0287172Y0236566D01*
X0282446Y0226272D02*
X0288549Y0232375D01*
X0334561Y0232375D02*
X0288549Y0232375D01*
X0332363Y0233359D02*
X0288141Y0233359D01*
X0280423Y0225641D02*
X0288141Y0233359D01*
X0282446Y0212041D02*
X0282446Y0226272D01*
X0278382Y0224993D02*
X0287734Y0234344D01*
X0327963Y0235328D02*
X0287326Y0235328D01*
X0330163Y0234344D02*
X0287734Y0234344D01*
X0272162Y0188724D02*
X0272162Y0221556D01*
X0276240Y0206039D02*
X0276240Y0224242D01*
X0287326Y0235328D01*
X0280423Y0210018D02*
X0280423Y0225641D01*
X0278382Y0207977D02*
X0278382Y0224993D01*
X0272343Y0240649D02*
X0269586Y0243405D01*
X0267618Y0220177D02*
X0272343Y0224901D01*
X0272343Y0240649D01*
X0269980Y0229232D02*
X0269980Y0239862D01*
X0267774Y0231045D02*
X0267774Y0238919D01*
X0260225Y0232352D02*
X0260225Y0233526D01*
X0264631Y0227946D02*
X0260225Y0232352D01*
X0260225Y0233526D02*
X0255925Y0237826D01*
X0258980Y0217858D02*
X0258980Y0233379D01*
X0260712Y0216125D02*
X0258980Y0217858D01*
X0258980Y0233379D02*
X0255517Y0236842D01*
X0255807Y0215846D02*
X0257628Y0217667D01*
X0257628Y0233339D01*
X0255517Y0236842D02*
X0254557Y0236842D01*
X0254964Y0237826D02*
X0251834Y0240956D01*
X0251834Y0243047D01*
X0254557Y0236842D02*
X0248327Y0243072D01*
X0255110Y0235858D02*
X0254117Y0235858D01*
X0255925Y0237826D02*
X0254964Y0237826D01*
X0251097Y0238878D02*
X0247440Y0238878D01*
X0254117Y0235858D02*
X0251097Y0238878D01*
X0248327Y0243072D02*
X0248327Y0243405D01*
X0250689Y0237893D02*
X0246060Y0237893D01*
X0252822Y0227385D02*
X0252822Y0235760D01*
X0250689Y0237893D01*
X0250170Y0235307D02*
X0250170Y0235361D01*
X0266551Y0228741D02*
X0265649Y0229642D01*
X0261553Y0213746D02*
X0266551Y0218744D01*
X0266551Y0228741D01*
X0251834Y0243047D02*
X0251476Y0243405D01*
X0257628Y0233339D02*
X0255110Y0235858D01*
X0250799Y0225832D02*
X0250799Y0231484D01*
X0238878Y0243405D01*
X0252264Y0224367D02*
X0250799Y0225832D01*
X0269980Y0239862D02*
X0266437Y0243405D01*
X0267774Y0238919D02*
X0263287Y0243405D01*
X0247440Y0238878D02*
X0245177Y0241141D01*
X0246060Y0237893D02*
X0242153Y0241801D01*
X0245177Y0241141D02*
X0245177Y0243405D01*
X0242153Y0241801D02*
X0242153Y0243280D01*
X0242028Y0243405D01*
X0230981Y0211519D02*
X0228098Y0214402D01*
X0207849Y0213484D02*
X0208767Y0214402D01*
X0228098Y0214402D02*
X0208767Y0214402D01*
X0214958Y0210334D02*
X0207382Y0210334D01*
X0207849Y0213484D02*
X0207382Y0213484D01*
X0214958Y0210334D02*
X0215751Y0211127D01*
X0231092Y0208466D02*
X0228431Y0211127D01*
X0215751Y0211127D01*
X0210993Y0209208D02*
X0209405Y0209208D01*
X0207382Y0207185D02*
X0209405Y0209208D01*
X0282185Y0199704D02*
X0291240Y0208760D01*
X0282185Y0187893D02*
X0282185Y0199704D01*
X0300056Y0173462D02*
X0296788Y0176730D01*
X0296788Y0190220D01*
X0279476Y0166774D02*
X0279476Y0177704D01*
X0279638Y0166612D02*
X0279476Y0166774D01*
X0317189Y0216633D02*
X0318370Y0217815D01*
X0326427Y0217815D02*
X0318370Y0217815D01*
X0317189Y0216633D02*
X0306358Y0216633D01*
X0316314Y0220694D02*
X0312051Y0220694D01*
X0318180Y0218828D02*
X0316314Y0220694D01*
X0310138Y0218781D02*
X0312051Y0220694D01*
X0330040Y0215593D02*
X0326806Y0218828D01*
X0318180Y0218828D01*
X0329056Y0215185D02*
X0326427Y0217815D01*
X0306358Y0216633D02*
X0304275Y0218716D01*
X0330040Y0201455D02*
X0330040Y0215593D01*
X0329056Y0200886D02*
X0329056Y0215185D01*
X0337951Y0193544D02*
X0330040Y0201455D01*
X0334547Y0179081D02*
X0334547Y0195394D01*
X0329056Y0200886D01*
X0332018Y0138484D02*
X0337951Y0144418D01*
X0336967Y0166738D02*
X0332741Y0170964D01*
X0337951Y0144418D02*
X0337951Y0193544D01*
X0329823Y0140840D02*
X0336967Y0147985D01*
X0336967Y0166738D01*
X0333957Y0163070D02*
X0329960Y0167067D01*
X0332039Y0154649D02*
X0332039Y0157044D01*
X0330019Y0147736D02*
X0334941Y0152658D01*
X0329960Y0153962D02*
X0329960Y0164143D01*
X0326293Y0150295D02*
X0329960Y0153962D01*
X0334941Y0165918D02*
X0331864Y0168996D01*
X0333957Y0155174D02*
X0333957Y0163070D01*
X0332039Y0157044D02*
X0332037Y0157046D01*
X0335925Y0166388D02*
X0332333Y0169980D01*
X0325639Y0146857D02*
X0333957Y0155174D01*
X0334941Y0152658D02*
X0334941Y0165918D01*
X0335925Y0150292D02*
X0335925Y0166388D01*
X0330369Y0144736D02*
X0335925Y0150292D01*
X0331988Y0191947D02*
X0320470Y0191947D01*
X0332087Y0176620D02*
X0334547Y0179081D01*
X0312248Y0214173D02*
X0312150Y0214271D01*
X0329429Y0177657D02*
X0332972Y0181200D01*
X0329514Y0182654D02*
X0329872Y0183012D01*
X0331791Y0181988D02*
X0331791Y0184133D01*
X0328642Y0178838D02*
X0331791Y0181988D01*
X0331791Y0184133D02*
X0329960Y0185964D01*
X0332972Y0186318D02*
X0328642Y0190649D01*
X0332972Y0181200D02*
X0332972Y0186318D01*
X0329514Y0182654D02*
X0326155Y0182654D01*
X0319683Y0190649D02*
X0310321Y0200011D01*
X0306679Y0200011D02*
X0303934Y0202755D01*
X0310321Y0200011D02*
X0306679Y0200011D01*
X0328642Y0190649D02*
X0319683Y0190649D01*
X0320470Y0191947D02*
X0309661Y0202755D01*
X0329429Y0175483D02*
X0329429Y0177657D01*
X0331577Y0173335D02*
X0329429Y0175483D01*
X0328642Y0178838D02*
X0313173Y0178838D01*
X0279476Y0177704D02*
X0288091Y0186318D01*
X0288091Y0201252D01*
X0292597Y0205758D01*
X0301671Y0205758D02*
X0292597Y0205758D01*
X0301770Y0205659D02*
X0301671Y0205758D01*
X0286516Y0202067D02*
X0292028Y0207578D01*
X0299967Y0208760D02*
X0291240Y0208760D01*
X0286516Y0187893D02*
X0286516Y0202067D01*
X0310590Y0207578D02*
X0292028Y0207578D01*
X0309596Y0170964D02*
X0305364Y0175196D01*
X0305140Y0175196D01*
X0303221Y0174212D02*
X0303221Y0181764D01*
X0307453Y0169980D02*
X0303221Y0174212D01*
X0303221Y0181764D02*
X0304275Y0182818D01*
X0302579Y0173462D02*
X0300056Y0173462D01*
X0293602Y0178523D02*
X0293602Y0187854D01*
X0299649Y0172476D02*
X0293602Y0178523D01*
X0300850Y0172476D02*
X0299649Y0172476D01*
X0301535Y0146541D02*
X0303910Y0148917D01*
X0303446Y0132382D02*
X0301535Y0134293D01*
X0301535Y0146541D01*
X0313681Y0132382D02*
X0303446Y0132382D01*
X0305389Y0147244D02*
X0305118Y0147244D01*
X0303910Y0158294D02*
X0294783Y0167421D01*
X0305389Y0147244D02*
X0308440Y0150295D01*
X0303910Y0148917D02*
X0303910Y0158294D01*
X0310131Y0113189D02*
X0303934Y0113189D01*
X0310131Y0113189D02*
X0318906Y0121964D01*
X0330822Y0121964D02*
X0318906Y0121964D01*
X0307096Y0155692D02*
X0307096Y0159457D01*
X0303469Y0163085D01*
X0312500Y0163541D02*
X0302579Y0173462D01*
X0310138Y0163189D02*
X0300850Y0172476D01*
X0312500Y0160137D02*
X0312500Y0163541D01*
X0310138Y0159153D02*
X0310138Y0163189D01*
X0301991Y0156669D02*
X0301991Y0156867D01*
X0301927Y0150229D02*
X0297015Y0150229D01*
X0292651Y0154592D01*
X0310590Y0207578D02*
X0312178Y0209167D01*
X0299967Y0208760D02*
X0302057Y0210850D01*
X0284179Y0185557D02*
X0286516Y0187893D01*
X0274348Y0190686D02*
X0274348Y0197379D01*
X0297425Y0191157D02*
X0293602Y0194980D01*
X0304275Y0191157D02*
X0297425Y0191157D01*
X0331864Y0168996D02*
X0327699Y0168996D01*
X0324705Y0166001D02*
X0327699Y0168996D01*
X0332741Y0170964D02*
X0309596Y0170964D01*
X0332333Y0169980D02*
X0307453Y0169980D01*
X0309532Y0175196D02*
X0313173Y0178838D01*
X0326155Y0182654D02*
X0319735Y0189075D01*
X0312285Y0189075D01*
X0310138Y0191222D01*
X0324705Y0162303D02*
X0324705Y0166001D01*
X0329823Y0137726D02*
X0329823Y0140840D01*
X0332018Y0135531D02*
X0329823Y0137726D01*
X0304275Y0182818D02*
X0304275Y0191157D01*
X0325957Y0155016D02*
X0323001Y0157972D01*
X0326235Y0154738D02*
X0325957Y0155016D01*
X0323001Y0157972D02*
X0311319Y0157972D01*
X0310138Y0159153D01*
X0314635Y0123243D02*
X0313211Y0123243D01*
X0309255Y0119287D02*
X0313211Y0123243D01*
X0330293Y0123243D02*
X0314635Y0123243D01*
X0314635Y0131427D02*
X0313681Y0132382D01*
X0314635Y0123243D02*
X0314635Y0131427D01*
X0310657Y0124450D02*
X0311909Y0125702D01*
X0306884Y0125689D02*
X0311657Y0130462D01*
X0310657Y0124450D02*
X0296315Y0124450D01*
X0311911Y0130462D02*
X0311657Y0130462D01*
X0323524Y0129626D02*
X0319752Y0133397D01*
X0306130Y0133397D02*
X0304275Y0135252D01*
X0319752Y0133397D02*
X0306130Y0133397D01*
X0302057Y0127622D02*
X0295177Y0134502D01*
X0295177Y0143799D01*
X0326293Y0150295D02*
X0308440Y0150295D01*
X0317835Y0136889D02*
X0310782Y0143942D01*
X0322342Y0136889D02*
X0317835Y0136889D01*
X0310782Y0143942D02*
X0310782Y0147247D01*
X0311509Y0151279D02*
X0307096Y0155692D01*
X0325886Y0151279D02*
X0311509Y0151279D01*
X0294783Y0167421D02*
X0294783Y0174311D01*
X0293602Y0173130D02*
X0294783Y0174311D01*
X0293602Y0172854D02*
X0293602Y0173130D01*
X0328642Y0158366D02*
X0324705Y0162303D01*
X0332838Y0125789D02*
X0332838Y0129526D01*
X0334653Y0125795D02*
X0334653Y0129519D01*
X0325639Y0138534D01*
X0332838Y0129526D02*
X0324311Y0138052D01*
X0325639Y0138534D02*
X0325639Y0146857D01*
X0324311Y0138052D02*
X0324311Y0146921D01*
X0325886Y0151279D02*
X0328642Y0154035D01*
X0328642Y0158366D01*
X0324311Y0146921D02*
X0332039Y0154649D01*
X0285171Y0154592D02*
X0278248Y0161515D01*
X0292651Y0154592D02*
X0285171Y0154592D01*
X0278248Y0161515D02*
X0266145Y0161515D01*
X0286841Y0149936D02*
X0277919Y0158858D01*
X0296927Y0144313D02*
X0291304Y0149936D01*
X0286841Y0149936D01*
X0297026Y0144313D02*
X0296927Y0144313D01*
X0294193Y0143391D02*
X0289651Y0147933D01*
X0295177Y0143799D02*
X0290059Y0148917D01*
X0278642Y0156397D02*
X0271658Y0156397D01*
X0289651Y0147933D02*
X0280413Y0147933D01*
X0286122Y0148917D02*
X0278642Y0156397D01*
X0290059Y0148917D02*
X0286122Y0148917D01*
X0293209Y0142013D02*
X0288537Y0146684D01*
X0274539Y0146684D01*
X0263488Y0158858D02*
X0266145Y0161515D01*
X0277919Y0158858D02*
X0277880Y0158858D01*
X0280413Y0147933D02*
X0272933Y0155413D01*
X0269788Y0155413D02*
X0266343Y0158858D01*
X0271658Y0156397D02*
X0269197Y0158858D01*
X0329960Y0129271D02*
X0322342Y0136889D01*
X0330822Y0121964D02*
X0334653Y0125795D01*
X0330293Y0123243D02*
X0332838Y0125789D01*
X0329538Y0125985D02*
X0324408Y0125985D01*
X0329538Y0125985D02*
X0329960Y0126407D01*
X0324408Y0125985D02*
X0323524Y0126870D01*
X0272933Y0155413D02*
X0269788Y0155413D01*
X0306884Y0125689D02*
X0296752Y0125689D01*
X0296315Y0124450D02*
X0293209Y0127557D01*
X0296752Y0125689D02*
X0294193Y0128248D01*
X0294193Y0143391D01*
X0293209Y0127557D02*
X0293209Y0142013D01*
X0286731Y0142071D02*
X0283232Y0145571D01*
X0274261Y0145571D01*
X0281138Y0144586D02*
X0273853Y0144586D01*
X0283654Y0142071D02*
X0281138Y0144586D01*
X0274539Y0146684D02*
X0265417Y0155807D01*
X0274261Y0145571D02*
X0265009Y0154822D01*
X0273853Y0144586D02*
X0264601Y0153838D01*
X0323524Y0126870D02*
X0323524Y0129626D01*
X0331823Y0119980D02*
X0320258Y0119980D01*
X0317126Y0116848D02*
X0320258Y0119980D01*
X0332018Y0119785D02*
X0331823Y0119980D01*
X0265417Y0155807D02*
X0263534Y0155807D01*
X0265009Y0154822D02*
X0261024Y0154822D01*
X0264601Y0153838D02*
X0260616Y0153838D01*
X0263534Y0155807D02*
X0260482Y0158858D01*
X0261024Y0154822D02*
X0258366Y0157480D01*
X0260616Y0153838D02*
X0257382Y0157072D01*
X0256272Y0148988D02*
X0252756Y0152504D01*
X0258366Y0157480D02*
X0258366Y0160039D01*
X0257382Y0157072D02*
X0257382Y0160447D01*
X0256042Y0151962D02*
X0256042Y0151966D01*
X0252756Y0152504D02*
X0252756Y0160728D01*
X0256042Y0151966D02*
X0253838Y0154168D01*
X0330163Y0234344D02*
X0333514Y0237695D01*
X0327963Y0235328D02*
X0330330Y0237695D01*
X0332363Y0233359D02*
X0336698Y0237695D01*
X0248327Y0210334D02*
X0244783Y0210334D01*
X0246400Y0206004D02*
X0242864Y0209539D01*
X0242864Y0213753D02*
X0245822Y0216711D01*
X0242864Y0209539D02*
X0242864Y0213753D01*
X0255020Y0206004D02*
X0246400Y0206004D01*
X0243799Y0227034D02*
X0243799Y0235334D01*
X0245822Y0216711D02*
X0245822Y0225011D01*
X0243799Y0227034D01*
X0261553Y0213746D02*
X0248836Y0213746D01*
X0243799Y0235334D02*
X0235728Y0243405D01*
X0248327Y0210334D02*
X0250754Y0212761D01*
X0247343Y0212254D02*
X0248836Y0213746D01*
X0261960Y0212761D02*
X0250754Y0212761D01*
X0261960Y0212761D02*
X0267618Y0218419D01*
X0260712Y0215665D02*
X0260712Y0216125D01*
X0255020Y0206004D02*
X0258957Y0209941D01*
X0267618Y0218419D02*
X0267618Y0220177D01*
X0249773Y0198991D02*
X0249470Y0199294D01*
X0241420Y0199294D01*
X0244034Y0195586D02*
X0240957Y0195586D01*
X0250886Y0201082D02*
X0241718Y0201082D01*
X0238584Y0197949D02*
X0241718Y0201082D01*
X0239112Y0199868D02*
X0241310Y0202067D01*
X0251293Y0202067D02*
X0241310Y0202067D01*
X0254232Y0197736D02*
X0250886Y0201082D01*
X0255217Y0198144D02*
X0251293Y0202067D01*
X0252264Y0218706D02*
X0252264Y0224367D01*
X0251972Y0218413D02*
X0252264Y0218706D01*
X0249435Y0195273D02*
X0249304Y0195404D01*
X0249435Y0179030D02*
X0249435Y0195273D01*
X0246063Y0193504D02*
X0240267Y0193504D01*
X0334561Y0232375D02*
X0339882Y0237697D01*
X0263386Y0177177D02*
X0265337Y0179129D01*
X0263386Y0165059D02*
X0263386Y0177177D01*
X0263043Y0178508D02*
X0263043Y0191415D01*
X0262401Y0165466D02*
X0262401Y0177867D01*
X0265337Y0179129D02*
X0265337Y0189188D01*
X0262401Y0177867D02*
X0263043Y0178508D01*
X0258366Y0160039D02*
X0263386Y0165059D01*
X0257382Y0160447D02*
X0262401Y0165466D01*
X0252756Y0160728D02*
X0248590Y0164894D01*
X0253838Y0161037D02*
X0249574Y0165302D01*
X0253838Y0154168D02*
X0253838Y0161037D01*
X0242126Y0171721D02*
X0249435Y0179030D01*
X0260957Y0137500D02*
X0245443Y0137500D01*
X0245035Y0136515D02*
X0232370Y0149181D01*
X0260549Y0136515D02*
X0245035Y0136515D01*
X0258760Y0132578D02*
X0243405Y0132578D01*
X0243812Y0133563D02*
X0229102Y0148273D01*
X0243405Y0132578D02*
X0228118Y0147865D01*
X0228118Y0152053D01*
X0244628Y0135531D02*
X0231386Y0148773D01*
X0259326Y0133563D02*
X0243812Y0133563D01*
X0260142Y0135531D02*
X0244628Y0135531D01*
X0259734Y0134547D02*
X0244220Y0134547D01*
X0229102Y0148273D02*
X0229102Y0152461D01*
X0245443Y0137500D02*
X0242427Y0140516D01*
X0242427Y0148918D01*
X0272219Y0141709D02*
X0272393Y0141884D01*
X0272219Y0140329D02*
X0272219Y0141709D01*
X0271260Y0139370D02*
X0272219Y0140329D01*
X0271260Y0139370D02*
X0269769Y0139370D01*
X0261520Y0135545D02*
X0260549Y0136515D01*
X0264145Y0136529D02*
X0261927Y0136529D01*
X0265368Y0133576D02*
X0260704Y0133576D01*
X0261112Y0134561D02*
X0260142Y0135531D01*
X0260704Y0133576D02*
X0259734Y0134547D01*
X0261927Y0136529D02*
X0260957Y0137500D01*
X0264553Y0135545D02*
X0261520Y0135545D01*
X0264960Y0134561D02*
X0261112Y0134561D01*
X0265368Y0133576D02*
X0268553Y0136761D01*
X0264145Y0136529D02*
X0266716Y0139100D01*
X0264553Y0135545D02*
X0269212Y0140204D01*
X0264960Y0134561D02*
X0269769Y0139370D01*
X0271436Y0136761D02*
X0268553Y0136761D01*
X0271436Y0136761D02*
X0276558Y0141884D01*
X0270475Y0141961D02*
X0270475Y0142149D01*
X0269212Y0140204D02*
X0269212Y0140697D01*
X0270475Y0141961D01*
X0242706Y0152057D02*
X0247933Y0157283D01*
X0249574Y0171706D02*
X0255217Y0177348D01*
X0249574Y0165302D02*
X0249574Y0171706D01*
X0248590Y0164894D02*
X0248590Y0172113D01*
X0254232Y0177755D01*
X0243110Y0166352D02*
X0243110Y0171313D01*
X0242126Y0165944D02*
X0242126Y0171721D01*
X0247933Y0157283D02*
X0247933Y0160137D01*
X0248957Y0152216D02*
X0248957Y0160505D01*
X0243110Y0166352D01*
X0247933Y0160137D02*
X0242126Y0165944D01*
X0255217Y0177348D02*
X0255217Y0198144D01*
X0239112Y0199868D02*
X0235853Y0199868D01*
X0238584Y0197949D02*
X0234362Y0197949D01*
X0233027Y0199283D01*
X0254232Y0177755D02*
X0254232Y0197736D01*
X0219602Y0174231D02*
X0240957Y0195586D01*
X0230981Y0211408D02*
X0230981Y0211519D01*
X0231092Y0214317D02*
X0228775Y0216633D01*
X0222441Y0209208D02*
X0217637Y0209208D01*
X0216997Y0204838D02*
X0216997Y0208568D01*
X0216357Y0204199D02*
X0216357Y0204199D01*
X0215717Y0204838D02*
X0215717Y0208568D01*
X0215078Y0209208D02*
X0210993Y0209208D01*
X0222613Y0209208D02*
X0222441Y0209208D01*
X0228775Y0216633D02*
X0207382Y0216633D01*
D83*
X0221385Y0166875D02*
X0219621Y0166875D01*
X0219573Y0166827D02*
X0219621Y0166875D01*
X0221385Y0166875D02*
X0227030Y0172520D01*
X0219756Y0156506D02*
X0219756Y0166086D01*
X0214284Y0151034D02*
X0219756Y0156506D01*
X0214284Y0139752D02*
X0214284Y0151034D01*
X0227030Y0174284D02*
X0229812Y0177067D01*
X0227030Y0172520D02*
X0227030Y0174284D01*
X0234433Y0177067D02*
X0229812Y0177067D01*
X0239749Y0164890D02*
X0239749Y0171750D01*
X0234433Y0177067D01*
X0212253Y0137721D02*
X0214284Y0139752D01*
X0219723Y0166676D02*
X0219573Y0166827D01*
X0219723Y0166119D02*
X0219723Y0166676D01*
X0219756Y0166086D02*
X0219723Y0166119D01*
X0212253Y0137507D02*
X0212253Y0137721D01*
X0245800Y0158840D02*
X0239749Y0164890D01*
X0227066Y0199845D02*
X0233661Y0206441D01*
X0233661Y0216141D02*
X0230413Y0219389D01*
X0233661Y0206441D02*
X0233661Y0216141D01*
X0227066Y0199845D02*
X0222402Y0199845D01*
X0230413Y0219389D02*
X0215604Y0219389D01*
X0211530Y0223464D01*
D116*
X0209702Y0158718D02*
X0209928Y0158944D01*
X0209928Y0159779D01*
X0210039Y0159890D02*
X0210039Y0175196D01*
X0209928Y0159779D02*
X0210039Y0159890D01*
X0209702Y0158412D02*
X0209702Y0158718D01*
X0210039Y0175196D02*
X0221654Y0186811D01*
X0210679Y0144340D02*
X0210679Y0157435D01*
X0209702Y0158412D01*
X0211906Y0172278D02*
X0230610Y0190982D01*
X0212352Y0159270D02*
X0211906Y0159716D01*
X0212352Y0143647D02*
X0212352Y0159270D01*
X0211906Y0159716D02*
X0211906Y0172278D01*
X0209989Y0141284D02*
X0212352Y0143647D01*
X0209989Y0134794D02*
X0209989Y0141284D01*
X0223843Y0132769D02*
X0212014Y0132769D01*
X0207382Y0141043D02*
X0210679Y0144340D01*
X0230610Y0190982D02*
X0230610Y0200196D01*
X0235531Y0205118D01*
X0241333Y0115279D02*
X0223843Y0132769D01*
X0241333Y0113189D02*
X0241333Y0115279D01*
X0212014Y0132769D02*
X0209989Y0134794D01*
X0234754Y0239736D02*
X0234852Y0239834D01*
X0234754Y0239736D02*
X0230904Y0239736D01*
X0221686Y0231660D02*
X0218455Y0234891D01*
X0235531Y0217815D02*
X0231888Y0221458D01*
X0226967Y0221458D01*
X0221686Y0226738D01*
X0221686Y0231660D01*
X0230091Y0238923D02*
X0230904Y0239736D01*
X0230091Y0238923D02*
X0225394Y0238923D01*
X0221655Y0238923D01*
X0235531Y0205118D02*
X0235531Y0217815D01*
X0221655Y0238923D02*
X0219141Y0241437D01*
X0218455Y0234891D02*
X0218455Y0235130D01*
X0219141Y0241437D02*
X0214370Y0241437D01*
X0211530Y0238596D02*
X0214370Y0241437D01*
X0211530Y0223464D02*
X0211530Y0238596D01*
D26*
X0207382Y0141043D02*
D03*
X0231398Y0111909D02*
D03*
X0336909Y0111909D02*
D03*
X0294783Y0243405D02*
D03*
X0263287Y0243405D02*
D03*
X0251476Y0243405D02*
D03*
X0266437Y0243405D02*
D03*
X0269586Y0243405D02*
D03*
X0235728Y0243405D02*
D03*
X0256988Y0243405D02*
D03*
X0238878Y0243405D02*
D03*
X0242028Y0243405D02*
D03*
X0245177Y0243405D02*
D03*
X0248327Y0243405D02*
D03*
X0207382Y0207185D02*
D03*
X0207382Y0213484D02*
D03*
X0207382Y0210334D02*
D03*
X0207382Y0216633D02*
D03*
X0235246Y0152021D02*
D03*
X0226870Y0162106D02*
D03*
X0239574Y0156131D02*
D03*
X0230165Y0155340D02*
D03*
X0233018Y0155413D02*
D03*
X0236611Y0156100D02*
D03*
X0227586Y0165491D02*
D03*
X0217258Y0158137D02*
D03*
X0216890Y0146489D02*
D03*
X0215797Y0188919D02*
D03*
X0209702Y0158718D02*
D03*
X0207776Y0167421D02*
D03*
X0291634Y0198523D02*
D03*
X0292421Y0192224D02*
D03*
X0231791Y0174114D02*
D03*
X0223228Y0172198D02*
D03*
X0209350Y0201279D02*
D03*
X0345177Y0220571D02*
D03*
X0262264Y0235415D02*
D03*
X0241333Y0113189D02*
D03*
X0219573Y0166827D02*
D03*
X0256988Y0112303D02*
D03*
X0223206Y0130003D02*
D03*
X0216698Y0135212D02*
D03*
X0257868Y0130407D02*
D03*
X0212253Y0137507D02*
D03*
X0207622Y0137425D02*
D03*
X0220082Y0141863D02*
D03*
X0316437Y0242618D02*
D03*
X0214263Y0112118D02*
D03*
X0230289Y0114743D02*
D03*
X0237697Y0112303D02*
D03*
X0238878Y0211909D02*
D03*
X0240059Y0190256D02*
D03*
X0288903Y0158941D02*
D03*
X0283437Y0159041D02*
D03*
X0269980Y0229232D02*
D03*
X0267774Y0231045D02*
D03*
X0234852Y0239834D02*
D03*
X0254209Y0242016D02*
D03*
X0250170Y0235307D02*
D03*
X0264631Y0227946D02*
D03*
X0252822Y0227385D02*
D03*
X0236422Y0229884D02*
D03*
X0210260Y0212363D02*
D03*
X0280242Y0191375D02*
D03*
X0251761Y0142011D02*
D03*
X0247328Y0141981D02*
D03*
X0240059Y0122145D02*
D03*
X0225886Y0226476D02*
D03*
X0232418Y0242013D02*
D03*
X0279638Y0166612D02*
D03*
X0276674Y0170075D02*
D03*
X0332037Y0157046D02*
D03*
X0331988Y0191947D02*
D03*
X0312248Y0214173D02*
D03*
X0327259Y0197513D02*
D03*
X0329872Y0183012D02*
D03*
X0329960Y0185964D02*
D03*
X0305140Y0175196D02*
D03*
X0305118Y0147244D02*
D03*
X0303469Y0163085D02*
D03*
X0310138Y0163189D02*
D03*
X0301991Y0156669D02*
D03*
X0301927Y0150229D02*
D03*
X0301770Y0205659D02*
D03*
X0274348Y0197379D02*
D03*
X0274348Y0190686D02*
D03*
X0303934Y0202755D02*
D03*
X0327165Y0184573D02*
D03*
X0329960Y0164143D02*
D03*
X0329960Y0167067D02*
D03*
X0331577Y0173335D02*
D03*
X0309532Y0175196D02*
D03*
X0332087Y0176620D02*
D03*
X0310138Y0191222D02*
D03*
X0304275Y0191157D02*
D03*
X0282185Y0187893D02*
D03*
X0284179Y0185557D02*
D03*
X0278382Y0207977D02*
D03*
X0282446Y0212041D02*
D03*
X0280423Y0210018D02*
D03*
X0276240Y0206039D02*
D03*
X0272162Y0188724D02*
D03*
X0311909Y0125702D02*
D03*
X0311911Y0130462D02*
D03*
X0304275Y0135252D02*
D03*
X0283816Y0174151D02*
D03*
X0295179Y0163797D02*
D03*
X0332018Y0138484D02*
D03*
X0330019Y0147736D02*
D03*
X0330369Y0144736D02*
D03*
X0326235Y0154738D02*
D03*
X0287636Y0151855D02*
D03*
X0269197Y0158858D02*
D03*
X0266343Y0158858D02*
D03*
X0277880Y0158858D02*
D03*
X0310782Y0147247D02*
D03*
X0327132Y0128052D02*
D03*
X0329960Y0126407D02*
D03*
X0329960Y0129271D02*
D03*
X0279642Y0152304D02*
D03*
X0291242Y0133213D02*
D03*
X0297026Y0144313D02*
D03*
X0302057Y0127622D02*
D03*
X0323033Y0117913D02*
D03*
X0332018Y0119785D02*
D03*
X0309255Y0119287D02*
D03*
X0317126Y0116848D02*
D03*
X0317511Y0111943D02*
D03*
X0271998Y0152046D02*
D03*
X0263893Y0151833D02*
D03*
X0283654Y0142071D02*
D03*
X0256272Y0148988D02*
D03*
X0256042Y0151962D02*
D03*
X0272276Y0185819D02*
D03*
X0244783Y0210334D02*
D03*
X0240956Y0209332D02*
D03*
X0247343Y0212254D02*
D03*
X0260712Y0215665D02*
D03*
X0258957Y0209941D02*
D03*
X0249773Y0198991D02*
D03*
X0244034Y0195586D02*
D03*
X0255807Y0215846D02*
D03*
X0251972Y0218413D02*
D03*
X0251616Y0193480D02*
D03*
X0249304Y0195404D02*
D03*
X0246063Y0193504D02*
D03*
X0225394Y0238923D02*
D03*
X0286731Y0142071D02*
D03*
X0289618Y0142071D02*
D03*
X0263488Y0158858D02*
D03*
X0260482Y0158858D02*
D03*
X0265337Y0189188D02*
D03*
X0263043Y0191415D02*
D03*
X0256805Y0169623D02*
D03*
X0245800Y0158840D02*
D03*
X0268936Y0170045D02*
D03*
X0241380Y0177131D02*
D03*
X0220531Y0171265D02*
D03*
X0262515Y0138657D02*
D03*
X0266648Y0141884D02*
D03*
X0272393Y0141884D02*
D03*
X0269521Y0141884D02*
D03*
X0253974Y0130422D02*
D03*
X0283630Y0133213D02*
D03*
X0242427Y0148918D02*
D03*
X0276019Y0133213D02*
D03*
X0251493Y0166289D02*
D03*
X0235853Y0199868D02*
D03*
X0233027Y0199283D02*
D03*
X0231092Y0208466D02*
D03*
X0310373Y0238220D02*
D03*
X0237891Y0208928D02*
D03*
X0231092Y0211408D02*
D03*
X0222402Y0199845D02*
D03*
X0219602Y0174231D02*
D03*
X0248957Y0152216D02*
D03*
X0221654Y0186811D02*
D03*
X0211530Y0223464D02*
D03*
X0231092Y0214317D02*
D03*
X0222613Y0209208D02*
D03*
X0220575Y0223729D02*
D03*
X0215601Y0235145D02*
D03*
X0245984Y0228366D02*
D03*
X0218455Y0235130D02*
D03*
X0243012Y0123407D02*
D03*
X0225886Y0150492D02*
D03*
X0327146Y0237695D02*
D03*
X0346440Y0118246D02*
D03*
X0329478Y0226607D02*
D03*
X0343144Y0234055D02*
D03*
X0339822Y0220501D02*
D03*
X0344743Y0215059D02*
D03*
X0344743Y0210334D02*
D03*
X0344743Y0200886D02*
D03*
X0344743Y0205610D02*
D03*
X0246165Y0111909D02*
D03*
X0296798Y0112160D02*
D03*
X0342765Y0112106D02*
D03*
X0330330Y0237695D02*
D03*
X0287697Y0219389D02*
D03*
X0344546Y0120571D02*
D03*
X0309661Y0202755D02*
D03*
X0339882Y0237695D02*
D03*
X0336698Y0237695D02*
D03*
X0333514Y0237695D02*
D03*
X0304275Y0218716D02*
D03*
X0310138Y0218781D02*
D03*
X0276558Y0141884D02*
D03*
X0279412Y0141884D02*
D03*
X0312178Y0209167D02*
D03*
X0344743Y0196161D02*
D03*
X0302057Y0210850D02*
D03*
X0312500Y0160137D02*
D03*
X0303934Y0113189D02*
D03*
X0344743Y0134744D02*
D03*
X0344743Y0130019D02*
D03*
X0344743Y0186712D02*
D03*
X0344743Y0172539D02*
D03*
X0344743Y0153641D02*
D03*
X0332018Y0135531D02*
D03*
X0344743Y0125295D02*
D03*
X0344743Y0177264D02*
D03*
X0344743Y0181988D02*
D03*
X0344743Y0191437D02*
D03*
X0344743Y0158366D02*
D03*
X0344743Y0163090D02*
D03*
X0344743Y0167815D02*
D03*
X0344743Y0139468D02*
D03*
X0344743Y0144193D02*
D03*
X0344743Y0148917D02*
D03*
D164*
X0293799Y0188641D02*
D03*
X0293799Y0202854D02*
D03*
X0293799Y0172854D02*
D03*
X0292224Y0090256D02*
%LPD*%
G01*
D230*
X0201043Y0078642D03*
X0208917Y0066831D03*
X0216791Y0078642D03*
D17*
X0185334Y0083760D03*
X0185334Y0071949D03*
X0185334Y0075886D03*
X0185334Y0079823D03*
D23*
X0237696Y0035433D03*
D79*
X0291535Y0077658D03*
D21*
X0291535Y0054193D03*
D23*
X0237696Y0089567D03*
D20*
X0291535Y0037106D03*
X0291535Y0037106D03*
D80*
X0183858Y0052165D03*
D25*
X0183858Y0088189D03*
D17*
X0290024Y0045768D03*
X0290024Y0049705D03*
X0290024Y0062681D03*
X0290024Y0058681D03*
X0290024Y0041831D03*
D233*
X0198563Y0040551D03*
D234*
X0208563Y0040551D03*
X0218563Y0040551D03*
D26*
X0289468Y0053839D03*
X0229724Y0088287D03*
X0192923Y0071219D03*
X0258661Y0036262D03*
X0275885Y0036319D03*
X0249704Y0056630D03*
X0289468Y0087500D03*
X0290649Y0066437D03*
X0218405Y0056988D03*
X0282749Y0055369D03*
X0274212Y0071891D03*
X0192519Y0038681D03*
X0222203Y0077264D03*
X0184645Y0038878D03*
X0271456Y0087106D03*
X0187696Y0088780D03*
X0236712Y0080215D03*
X0195098Y0088708D03*
X0266633Y0087500D03*
X0227654Y0041906D03*
X0238878Y0067225D03*
X0274253Y0059527D03*
X0256988Y0079429D03*
X0249507Y0088484D03*
X0268799Y0059646D03*
X0241633Y0088189D03*
X0239783Y0046711D03*
X0227402Y0036061D03*
X0275425Y0042685D03*
X0289905Y0037135D03*
X0241476Y0053250D03*
X0233444Y0040215D03*
X0242886Y0046772D03*
X0269389Y0079134D03*
X0285037Y0039460D03*
X0276911Y0086713D03*
X0222163Y0072343D03*
X0268700Y0049172D03*
X0243772Y0067618D03*
X0286575Y0069685D03*
X0279831Y0083998D03*
X0222203Y0080274D03*
X0222203Y0068266D03*
X0238287Y0057225D03*
X0222203Y0083284D03*
X0215846Y0059154D03*
X0236752Y0050472D03*
X0233526Y0043224D03*
X0248922Y0060040D03*
X0187893Y0043012D03*
X0190059Y0072146D03*
X0222901Y0063140D03*
X0245854Y0046270D03*
X0222203Y0086295D03*
X0239605Y0081047D03*
X0254088Y0061374D03*
X0251766Y0059053D03*
X0191043Y0042815D03*
X0224745Y0038250D03*
X0251770Y0066987D03*
X0270648Y0066249D03*
X0251789Y0051986D03*
X0281833Y0048387D03*
X0286577Y0072795D03*
X0267618Y0066751D03*
X0281199Y0074670D03*
X0223363Y0054667D03*
X0275000Y0046457D03*
X0233700Y0072887D03*
X0186614Y0048622D03*
X0189665Y0051378D03*
X0189665Y0048622D03*
X0189665Y0054134D03*
X0186614Y0051378D03*
X0287138Y0085594D03*
X0227311Y0044897D03*
D115*
X0248366Y0047232D02*
X0242348Y0053250D01*
X0233444Y0040215D02*
X0233482Y0040177D01*
X0245059Y0040177D02*
X0248366Y0043484D01*
X0242348Y0053250D02*
X0241476Y0053250D01*
X0233482Y0040177D02*
X0245059Y0040177D01*
X0248366Y0043484D02*
X0248366Y0047232D01*
X0192764Y0075886D02*
X0185334Y0075886D01*
X0237342Y0043799D02*
X0232501Y0048641D01*
X0232501Y0048641D02*
X0220009Y0048641D01*
X0241870Y0043799D02*
X0237342Y0043799D01*
X0220009Y0048641D02*
X0192764Y0075886D01*
X0242886Y0046772D02*
X0242886Y0044816D01*
X0242886Y0044816D02*
X0241870Y0043799D01*
X0268659Y0049213D02*
X0251259Y0049213D01*
X0225590Y0072343D02*
X0230276Y0077028D01*
X0290059Y0049606D02*
X0290059Y0049705D01*
X0275628Y0049114D02*
X0280234Y0044508D01*
X0241240Y0059232D02*
X0241240Y0076870D01*
X0285037Y0044585D02*
X0290059Y0049606D01*
X0268700Y0049172D02*
X0268758Y0049114D01*
X0261083Y0077028D02*
X0263189Y0079134D01*
X0230276Y0077028D02*
X0261083Y0077028D01*
X0263189Y0079134D02*
X0269389Y0079134D01*
X0280234Y0044508D02*
X0285098Y0044508D01*
X0285037Y0039460D02*
X0285037Y0044585D01*
X0251259Y0049213D02*
X0241240Y0059232D01*
X0276911Y0086713D02*
X0276911Y0086557D01*
X0222163Y0072343D02*
X0225590Y0072343D01*
X0269488Y0079134D02*
X0269389Y0079134D01*
X0268700Y0049172D02*
X0268659Y0049213D01*
X0276911Y0086557D02*
X0269488Y0079134D01*
X0268758Y0049114D02*
X0275628Y0049114D01*
X0243772Y0067618D02*
X0246360Y0070206D01*
X0278641Y0072095D02*
X0278641Y0082808D01*
X0279685Y0062795D02*
X0286575Y0069685D01*
X0257972Y0064665D02*
X0259842Y0062795D01*
X0272287Y0070206D02*
X0272925Y0069568D01*
X0278641Y0082808D02*
X0279831Y0083998D01*
X0246725Y0064665D02*
X0257972Y0064665D01*
X0272925Y0069568D02*
X0276115Y0069568D01*
X0246360Y0070206D02*
X0272287Y0070206D01*
X0243772Y0067618D02*
X0246725Y0064665D01*
X0276115Y0069568D02*
X0278641Y0072095D01*
X0259842Y0062795D02*
X0279685Y0062795D01*
X0236318Y0062364D02*
X0236318Y0074213D01*
X0235137Y0075394D02*
X0232677Y0075394D01*
X0238287Y0060396D02*
X0236318Y0062364D01*
X0236318Y0074213D02*
X0235137Y0075394D01*
X0225549Y0068266D02*
X0222203Y0068266D01*
X0238287Y0057225D02*
X0238287Y0060396D01*
X0232677Y0075394D02*
X0225549Y0068266D01*
X0216141Y0059449D02*
X0216141Y0072638D01*
X0215846Y0059154D02*
X0216141Y0059449D01*
X0215370Y0083284D02*
X0222203Y0083284D01*
X0212893Y0080807D02*
X0215370Y0083284D01*
X0212893Y0075886D02*
X0212893Y0080807D01*
X0236752Y0050472D02*
X0236693Y0050413D01*
X0220547Y0050413D02*
X0215846Y0055115D01*
X0236693Y0050413D02*
X0220547Y0050413D01*
X0216141Y0072638D02*
X0212893Y0075886D01*
X0215846Y0055115D02*
X0215846Y0059154D01*
X0193504Y0048561D02*
X0193504Y0056791D01*
X0187893Y0043012D02*
X0187954Y0043012D01*
X0190059Y0060236D02*
X0190059Y0072146D01*
X0187954Y0043012D02*
X0193504Y0048561D01*
X0193504Y0056791D02*
X0190059Y0060236D01*
X0240246Y0050698D02*
X0238150Y0052795D01*
X0235789Y0052795D02*
X0235338Y0052344D01*
X0221593Y0052344D02*
X0220669Y0053268D01*
X0245854Y0047432D02*
X0242588Y0050698D01*
X0220669Y0055512D02*
X0222901Y0057744D01*
X0235338Y0052344D02*
X0221593Y0052344D01*
X0242588Y0050698D02*
X0240246Y0050698D01*
X0220669Y0053268D02*
X0220669Y0055512D01*
X0238150Y0052795D02*
X0235789Y0052795D01*
X0245854Y0046270D02*
X0245854Y0047432D01*
X0222901Y0057744D02*
X0222901Y0063140D01*
X0235318Y0085335D02*
X0227263Y0085335D01*
X0239605Y0081047D02*
X0235318Y0085335D01*
X0227263Y0085335D02*
X0226303Y0086295D01*
X0226303Y0086295D02*
X0222203Y0086295D01*
X0221576Y0047006D02*
X0219332Y0047006D01*
X0218700Y0047638D02*
X0195866Y0047638D01*
X0224779Y0043804D02*
X0221576Y0047006D01*
X0224779Y0038283D02*
X0224779Y0043804D01*
X0224745Y0038250D02*
X0224779Y0038283D01*
X0219332Y0047006D02*
X0218700Y0047638D01*
X0195866Y0047638D02*
X0191043Y0042815D01*
X0258013Y0066987D02*
X0260570Y0064430D01*
X0260570Y0064430D02*
X0268829Y0064430D01*
X0251770Y0066987D02*
X0258013Y0066987D01*
X0268829Y0064430D02*
X0270648Y0066249D01*
X0281833Y0048387D02*
X0278666Y0048387D01*
X0274511Y0052542D02*
X0251675Y0052542D01*
X0278666Y0048387D02*
X0274511Y0052542D01*
X0269439Y0068572D02*
X0271610Y0068572D01*
X0276792Y0067934D02*
X0281199Y0072341D01*
D75*
X0281199Y0074670D02*
X0285074Y0074670D01*
D115*
X0281199Y0072341D02*
X0281199Y0074670D01*
X0267618Y0066751D02*
X0269439Y0068572D01*
D75*
X0285074Y0074670D02*
X0286577Y0073167D01*
D115*
X0272248Y0067934D02*
X0276792Y0067934D01*
X0271610Y0068572D02*
X0272248Y0067934D01*
X0239016Y0054429D02*
X0240158Y0055571D01*
X0233858Y0072729D02*
X0233858Y0055512D01*
X0240158Y0055571D02*
X0242590Y0055571D01*
X0224011Y0055315D02*
X0234055Y0055315D01*
X0242590Y0055571D02*
X0251704Y0046457D01*
X0251704Y0046457D02*
X0275000Y0046457D01*
X0233858Y0055512D02*
X0234055Y0055315D01*
X0223363Y0054667D02*
X0224011Y0055315D01*
X0233700Y0072887D02*
X0233858Y0072729D01*
X0234941Y0054429D02*
X0239016Y0054429D01*
X0234055Y0055315D02*
X0234941Y0054429D01*
X0284350Y0081201D02*
X0284350Y0078347D01*
X0287138Y0083989D02*
X0284350Y0081201D01*
X0286909Y0061796D02*
X0290024Y0058681D01*
X0287138Y0085594D02*
X0287138Y0083989D01*
X0288900Y0068232D02*
X0286909Y0066240D01*
X0284350Y0078347D02*
X0288900Y0073796D01*
X0288900Y0073796D02*
X0288900Y0068232D01*
X0286909Y0066240D02*
X0286909Y0061796D01*
X0287933Y0039784D02*
X0289901Y0041752D01*
X0279586Y0039902D02*
X0282420Y0037067D01*
X0246043Y0037343D02*
X0248602Y0039902D01*
X0282420Y0037067D02*
X0286610Y0037067D01*
X0227311Y0044897D02*
X0227949Y0044897D01*
X0286610Y0037067D02*
X0287933Y0038390D01*
X0232303Y0037343D02*
X0246043Y0037343D01*
X0289901Y0041752D02*
X0289901Y0041831D01*
X0287933Y0038390D02*
X0287933Y0039784D01*
X0230452Y0042393D02*
X0230452Y0039193D01*
X0248602Y0039902D02*
X0279586Y0039902D01*
X0227949Y0044897D02*
X0230452Y0042393D01*
X0230452Y0039193D02*
X0232303Y0037343D01*
G36*
X0218722Y0054051D02*
G01*
X0217242Y0055531D01*
X0217132Y0055746D01*
X0217128Y0055807D01*
X0217128Y0057480D01*
X0217202Y0057709D01*
X0217225Y0057738D01*
X0217510Y0058061D01*
X0217750Y0058572D01*
X0217754Y0058599D01*
X0217754Y0058599D01*
X0217800Y0058895D01*
X0217837Y0059129D01*
X0217833Y0059157D01*
X0217833Y0059157D01*
X0217767Y0059661D01*
X0217763Y0059689D01*
X0217752Y0059714D01*
X0217752Y0059714D01*
X0217609Y0060040D01*
X0217536Y0060206D01*
X0217514Y0060232D01*
X0217514Y0060232D01*
X0217512Y0060236D01*
X0217504Y0060250D01*
X0217506Y0060252D01*
X0217424Y0060455D01*
X0217423Y0060482D01*
X0217423Y0072565D01*
X0217424Y0072599D01*
X0217438Y0072751D01*
X0217429Y0072784D01*
X0217398Y0072899D01*
X0217391Y0072932D01*
X0217371Y0073042D01*
X0217364Y0073083D01*
X0217347Y0073112D01*
X0217339Y0073134D01*
X0217329Y0073155D01*
X0217321Y0073188D01*
X0217256Y0073280D01*
X0217233Y0073313D01*
X0217215Y0073342D01*
X0217138Y0073474D01*
X0217095Y0073510D01*
X0217021Y0073573D01*
X0216996Y0073596D01*
X0215921Y0074671D01*
X0215811Y0074886D01*
X0215849Y0075123D01*
X0216019Y0075294D01*
X0216277Y0075328D01*
X0216419Y0075298D01*
X0216419Y0075298D01*
X0216439Y0075293D01*
X0217143Y0075293D01*
X0217678Y0075407D01*
X0217811Y0075436D01*
X0217811Y0075436D01*
X0217831Y0075440D01*
X0217850Y0075448D01*
X0217850Y0075448D01*
X0218456Y0075718D01*
X0218456Y0075718D01*
X0218474Y0075726D01*
X0219044Y0076140D01*
X0219057Y0076155D01*
X0219057Y0076155D01*
X0219378Y0076511D01*
X0219515Y0076663D01*
X0219525Y0076681D01*
X0219525Y0076681D01*
X0219560Y0076740D01*
X0219867Y0077272D01*
X0219873Y0077292D01*
X0219873Y0077292D01*
X0220078Y0077922D01*
X0220078Y0077922D01*
X0220084Y0077942D01*
X0220151Y0078579D01*
X0220156Y0078624D01*
X0220254Y0078844D01*
X0220463Y0078965D01*
X0220702Y0078940D01*
X0220839Y0078838D01*
X0220876Y0078795D01*
X0220876Y0078795D01*
X0220894Y0078774D01*
X0221368Y0078467D01*
X0221908Y0078305D01*
X0222236Y0078303D01*
X0222445Y0078302D01*
X0222445Y0078302D01*
X0222473Y0078302D01*
X0222500Y0078309D01*
X0222500Y0078309D01*
X0222989Y0078449D01*
X0222989Y0078449D01*
X0223016Y0078457D01*
X0223493Y0078758D01*
X0223511Y0078779D01*
X0223511Y0078779D01*
X0223848Y0079160D01*
X0223848Y0079160D01*
X0223867Y0079181D01*
X0223878Y0079206D01*
X0223878Y0079206D01*
X0223914Y0079282D01*
X0224106Y0079692D01*
X0224111Y0079720D01*
X0224111Y0079720D01*
X0224154Y0080000D01*
X0224193Y0080250D01*
X0224190Y0080277D01*
X0224190Y0080277D01*
X0224175Y0080391D01*
X0224120Y0080809D01*
X0224109Y0080835D01*
X0224109Y0080835D01*
X0223913Y0081280D01*
X0223893Y0081326D01*
X0223723Y0081528D01*
X0223633Y0081751D01*
X0223691Y0081985D01*
X0223730Y0082036D01*
X0223848Y0082171D01*
X0223848Y0082171D01*
X0223867Y0082191D01*
X0224106Y0082702D01*
X0224111Y0082730D01*
X0224111Y0082730D01*
X0224155Y0083012D01*
X0224193Y0083260D01*
X0224120Y0083820D01*
X0224109Y0083845D01*
X0224109Y0083845D01*
X0223905Y0084308D01*
X0223893Y0084336D01*
X0223869Y0084365D01*
X0223862Y0084373D01*
X0223772Y0084596D01*
X0223830Y0084830D01*
X0224014Y0084985D01*
X0224161Y0085013D01*
X0225611Y0085013D01*
X0225840Y0084939D01*
X0225887Y0084899D01*
X0226306Y0084480D01*
X0226329Y0084455D01*
X0226338Y0084444D01*
X0226427Y0084338D01*
X0226559Y0084261D01*
X0226588Y0084243D01*
X0226598Y0084236D01*
X0226713Y0084155D01*
X0226746Y0084147D01*
X0226767Y0084137D01*
X0226789Y0084129D01*
X0226818Y0084112D01*
X0226852Y0084106D01*
X0226852Y0084106D01*
X0226969Y0084085D01*
X0227002Y0084078D01*
X0227117Y0084047D01*
X0227150Y0084038D01*
X0227184Y0084041D01*
X0227302Y0084052D01*
X0227336Y0084053D01*
X0234625Y0084053D01*
X0234854Y0083979D01*
X0234901Y0083939D01*
X0237500Y0081340D01*
X0237610Y0081125D01*
X0237613Y0081077D01*
X0237613Y0081077D01*
X0237614Y0081062D01*
X0237614Y0081047D01*
X0237694Y0080489D01*
X0237822Y0080207D01*
X0237916Y0080000D01*
X0237916Y0080000D01*
X0237928Y0079975D01*
X0238296Y0079547D01*
X0238770Y0079240D01*
X0239311Y0079078D01*
X0239310Y0079077D01*
X0239511Y0078977D01*
X0239605Y0078796D01*
X0239605Y0078820D01*
X0239746Y0079015D01*
X0239877Y0079067D01*
X0239875Y0079075D01*
X0240391Y0079222D01*
X0240391Y0079222D01*
X0240418Y0079230D01*
X0240895Y0079531D01*
X0240914Y0079552D01*
X0240914Y0079552D01*
X0241250Y0079934D01*
X0241250Y0079934D01*
X0241269Y0079954D01*
X0241281Y0079979D01*
X0241281Y0079979D01*
X0241290Y0080000D01*
X0241509Y0080465D01*
X0241513Y0080493D01*
X0241513Y0080493D01*
X0241540Y0080666D01*
X0241596Y0081023D01*
X0241592Y0081051D01*
X0241592Y0081051D01*
X0241536Y0081478D01*
X0241522Y0081583D01*
X0241511Y0081608D01*
X0241511Y0081608D01*
X0241313Y0082059D01*
X0241295Y0082099D01*
X0241174Y0082243D01*
X0240950Y0082510D01*
X0240950Y0082510D01*
X0240932Y0082531D01*
X0240462Y0082844D01*
X0240111Y0082954D01*
X0239950Y0083004D01*
X0239950Y0083004D01*
X0239923Y0083012D01*
X0239753Y0083016D01*
X0239601Y0083018D01*
X0239373Y0083097D01*
X0239332Y0083132D01*
X0236275Y0086189D01*
X0236252Y0086214D01*
X0236154Y0086332D01*
X0236021Y0086408D01*
X0235993Y0086426D01*
X0235868Y0086514D01*
X0235835Y0086523D01*
X0235814Y0086533D01*
X0235792Y0086540D01*
X0235763Y0086558D01*
X0235729Y0086563D01*
X0235729Y0086563D01*
X0235612Y0086584D01*
X0235579Y0086591D01*
X0235431Y0086631D01*
X0235279Y0086618D01*
X0235245Y0086616D01*
X0227956Y0086616D01*
X0227727Y0086691D01*
X0227680Y0086730D01*
X0227261Y0087149D01*
X0227238Y0087174D01*
X0227140Y0087291D01*
X0227007Y0087368D01*
X0226979Y0087386D01*
X0226853Y0087474D01*
X0226820Y0087483D01*
X0226800Y0087492D01*
X0226778Y0087500D01*
X0226749Y0087517D01*
X0226715Y0087523D01*
X0226715Y0087523D01*
X0226598Y0087544D01*
X0226565Y0087551D01*
X0226417Y0087591D01*
X0226383Y0087588D01*
X0226264Y0087578D01*
X0226231Y0087576D01*
X0223881Y0087576D01*
X0223652Y0087651D01*
X0223583Y0087715D01*
X0223530Y0087779D01*
X0223507Y0087794D01*
X0223507Y0087794D01*
X0223382Y0087877D01*
X0223060Y0088091D01*
X0222673Y0088212D01*
X0222548Y0088251D01*
X0222548Y0088251D01*
X0222521Y0088260D01*
X0222239Y0088265D01*
X0221984Y0088270D01*
X0221984Y0088270D01*
X0221957Y0088270D01*
X0221930Y0088263D01*
X0221930Y0088263D01*
X0221610Y0088175D01*
X0221412Y0088122D01*
X0220931Y0087826D01*
X0220902Y0087794D01*
X0220571Y0087428D01*
X0220552Y0087408D01*
X0220306Y0086900D01*
X0220278Y0086730D01*
X0220215Y0086358D01*
X0220215Y0086358D01*
X0220213Y0086343D01*
X0220212Y0086295D01*
X0220292Y0085736D01*
X0220378Y0085547D01*
X0220514Y0085247D01*
X0220514Y0085247D01*
X0220526Y0085222D01*
X0220544Y0085201D01*
X0220559Y0085178D01*
X0220552Y0085173D01*
X0220629Y0084988D01*
X0220574Y0084753D01*
X0220391Y0084596D01*
X0220241Y0084566D01*
X0215443Y0084566D01*
X0215409Y0084567D01*
X0215257Y0084581D01*
X0215109Y0084541D01*
X0215076Y0084534D01*
X0215072Y0084533D01*
X0215058Y0084531D01*
X0214959Y0084513D01*
X0214959Y0084513D01*
X0214925Y0084507D01*
X0214896Y0084490D01*
X0214874Y0084482D01*
X0214853Y0084473D01*
X0214821Y0084464D01*
X0214695Y0084376D01*
X0214667Y0084358D01*
X0214534Y0084281D01*
X0214436Y0084164D01*
X0214413Y0084139D01*
X0212039Y0081765D01*
X0212014Y0081742D01*
X0211988Y0081720D01*
X0211896Y0081644D01*
X0211820Y0081511D01*
X0211802Y0081482D01*
X0211787Y0081462D01*
X0211714Y0081357D01*
X0211705Y0081324D01*
X0211695Y0081303D01*
X0211688Y0081282D01*
X0211671Y0081252D01*
X0211662Y0081207D01*
X0211644Y0081102D01*
X0211637Y0081068D01*
X0211606Y0080954D01*
X0211597Y0080921D01*
X0211610Y0080768D01*
X0211612Y0080734D01*
X0211612Y0078642D01*
X0204410Y0078642D01*
X0204336Y0079342D01*
X0204330Y0079361D01*
X0204330Y0079361D01*
X0204129Y0079979D01*
X0204119Y0080011D01*
X0204108Y0080029D01*
X0204108Y0080029D01*
X0203852Y0080473D01*
X0203767Y0080621D01*
X0203296Y0081144D01*
X0203279Y0081156D01*
X0203279Y0081156D01*
X0203210Y0081207D01*
X0202726Y0081558D01*
X0202528Y0081646D01*
X0202102Y0081836D01*
X0202102Y0081836D01*
X0202083Y0081844D01*
X0202063Y0081848D01*
X0202063Y0081848D01*
X0202002Y0081861D01*
X0201395Y0081990D01*
X0200691Y0081990D01*
X0200084Y0081861D01*
X0200022Y0081848D01*
X0200022Y0081848D01*
X0200002Y0081844D01*
X0199984Y0081836D01*
X0199984Y0081836D01*
X0199558Y0081646D01*
X0199359Y0081558D01*
X0198876Y0081207D01*
X0198807Y0081156D01*
X0198807Y0081156D01*
X0198790Y0081144D01*
X0198319Y0080621D01*
X0198234Y0080473D01*
X0197977Y0080029D01*
X0197977Y0080029D01*
X0197967Y0080011D01*
X0197957Y0079979D01*
X0197756Y0079361D01*
X0197756Y0079361D01*
X0197750Y0079342D01*
X0197676Y0078642D01*
X0197750Y0077942D01*
X0197756Y0077922D01*
X0197756Y0077922D01*
X0197961Y0077292D01*
X0197961Y0077292D01*
X0197967Y0077272D01*
X0198274Y0076740D01*
X0198309Y0076681D01*
X0198309Y0076681D01*
X0198319Y0076663D01*
X0198790Y0076140D01*
X0198903Y0076057D01*
X0198984Y0075999D01*
X0199359Y0075726D01*
X0199681Y0075583D01*
X0199984Y0075448D01*
X0199984Y0075448D01*
X0200002Y0075440D01*
X0200022Y0075436D01*
X0200022Y0075436D01*
X0200156Y0075407D01*
X0200691Y0075293D01*
X0201395Y0075293D01*
X0201930Y0075407D01*
X0202063Y0075436D01*
X0202063Y0075436D01*
X0202083Y0075440D01*
X0202102Y0075448D01*
X0202102Y0075448D01*
X0202708Y0075718D01*
X0202708Y0075718D01*
X0202726Y0075726D01*
X0203296Y0076140D01*
X0203309Y0076155D01*
X0203309Y0076155D01*
X0203630Y0076511D01*
X0203767Y0076663D01*
X0203777Y0076681D01*
X0203777Y0076681D01*
X0203812Y0076740D01*
X0204119Y0077272D01*
X0204125Y0077292D01*
X0204125Y0077292D01*
X0204330Y0077922D01*
X0204330Y0077922D01*
X0204336Y0077942D01*
X0204410Y0078642D01*
X0211612Y0078642D01*
X0211612Y0075959D01*
X0211610Y0075925D01*
X0211600Y0075806D01*
X0211597Y0075773D01*
X0211606Y0075740D01*
X0211606Y0075740D01*
X0211637Y0075625D01*
X0211644Y0075592D01*
X0211665Y0075474D01*
X0211671Y0075441D01*
X0211688Y0075411D01*
X0211695Y0075390D01*
X0211705Y0075369D01*
X0211714Y0075336D01*
X0211802Y0075211D01*
X0211820Y0075182D01*
X0211896Y0075049D01*
X0212014Y0074951D01*
X0212039Y0074928D01*
X0213383Y0073584D01*
X0214746Y0072221D01*
X0214855Y0072007D01*
X0214860Y0071946D01*
X0214860Y0061079D01*
X0214785Y0060849D01*
X0214674Y0060746D01*
X0214574Y0060685D01*
X0214196Y0060267D01*
X0213982Y0059825D01*
X0213962Y0059784D01*
X0213950Y0059759D01*
X0213940Y0059703D01*
X0213858Y0059217D01*
X0213858Y0059217D01*
X0213856Y0059202D01*
X0213855Y0059154D01*
X0213935Y0058595D01*
X0214112Y0058207D01*
X0214157Y0058106D01*
X0214157Y0058106D01*
X0214169Y0058081D01*
X0214470Y0057732D01*
X0214563Y0057509D01*
X0214565Y0057477D01*
X0214565Y0056838D01*
X0214490Y0056609D01*
X0214295Y0056467D01*
X0214054Y0056467D01*
X0213899Y0056563D01*
X0207475Y0062986D01*
X0207366Y0063201D01*
X0207404Y0063439D01*
X0207574Y0063609D01*
X0207812Y0063647D01*
X0207864Y0063635D01*
X0207876Y0063629D01*
X0207896Y0063624D01*
X0207896Y0063624D01*
X0208135Y0063574D01*
X0208565Y0063482D01*
X0209269Y0063482D01*
X0209699Y0063574D01*
X0209937Y0063624D01*
X0209937Y0063624D01*
X0209957Y0063629D01*
X0209976Y0063637D01*
X0209976Y0063637D01*
X0210582Y0063907D01*
X0210582Y0063907D01*
X0210600Y0063915D01*
X0211170Y0064329D01*
X0211183Y0064344D01*
X0211183Y0064344D01*
X0211479Y0064672D01*
X0211641Y0064852D01*
X0211651Y0064869D01*
X0211651Y0064869D01*
X0211964Y0065412D01*
X0211993Y0065461D01*
X0211999Y0065481D01*
X0211999Y0065481D01*
X0212204Y0066111D01*
X0212204Y0066111D01*
X0212210Y0066131D01*
X0212245Y0066464D01*
X0212277Y0066766D01*
X0212284Y0066831D01*
X0212210Y0067531D01*
X0212204Y0067550D01*
X0212204Y0067550D01*
X0212019Y0068120D01*
X0211993Y0068200D01*
X0211982Y0068218D01*
X0211982Y0068218D01*
X0211775Y0068578D01*
X0211641Y0068810D01*
X0211170Y0069333D01*
X0211153Y0069345D01*
X0211153Y0069345D01*
X0211086Y0069394D01*
X0210600Y0069747D01*
X0210413Y0069830D01*
X0209976Y0070025D01*
X0209976Y0070025D01*
X0209957Y0070033D01*
X0209937Y0070037D01*
X0209937Y0070037D01*
X0209870Y0070051D01*
X0209269Y0070179D01*
X0208565Y0070179D01*
X0207964Y0070051D01*
X0207896Y0070037D01*
X0207896Y0070037D01*
X0207876Y0070033D01*
X0207858Y0070025D01*
X0207858Y0070025D01*
X0207421Y0069830D01*
X0207233Y0069747D01*
X0206748Y0069394D01*
X0206681Y0069345D01*
X0206681Y0069345D01*
X0206664Y0069333D01*
X0206193Y0068810D01*
X0206059Y0068578D01*
X0205851Y0068218D01*
X0205851Y0068218D01*
X0205841Y0068200D01*
X0205815Y0068120D01*
X0205630Y0067550D01*
X0205630Y0067550D01*
X0205624Y0067531D01*
X0205550Y0066831D01*
X0205557Y0066766D01*
X0205589Y0066464D01*
X0205624Y0066131D01*
X0205630Y0066111D01*
X0205630Y0066111D01*
X0205744Y0065760D01*
X0205744Y0065519D01*
X0205603Y0065324D01*
X0205373Y0065250D01*
X0205144Y0065324D01*
X0205098Y0065364D01*
X0193721Y0076740D01*
X0193698Y0076766D01*
X0193600Y0076883D01*
X0193467Y0076959D01*
X0193439Y0076978D01*
X0193313Y0077065D01*
X0193281Y0077074D01*
X0193260Y0077084D01*
X0193238Y0077092D01*
X0193209Y0077109D01*
X0193058Y0077135D01*
X0193025Y0077143D01*
X0192910Y0077173D01*
X0192910Y0077173D01*
X0192877Y0077182D01*
X0192725Y0077169D01*
X0192691Y0077167D01*
X0187275Y0077167D01*
X0187046Y0077242D01*
X0186966Y0077320D01*
X0186880Y0077432D01*
X0186860Y0077447D01*
X0186860Y0077447D01*
X0186732Y0077545D01*
X0186596Y0077744D01*
X0186602Y0077985D01*
X0186732Y0078164D01*
X0186860Y0078262D01*
X0186860Y0078262D01*
X0186880Y0078277D01*
X0187227Y0078730D01*
X0187446Y0079257D01*
X0187449Y0079282D01*
X0187449Y0079282D01*
X0187484Y0079547D01*
X0187520Y0079823D01*
X0187517Y0079848D01*
X0187454Y0080328D01*
X0187446Y0080389D01*
X0187227Y0080916D01*
X0186880Y0081369D01*
X0186860Y0081384D01*
X0186860Y0081384D01*
X0186732Y0081482D01*
X0186596Y0081681D01*
X0186602Y0081922D01*
X0186732Y0082101D01*
X0186860Y0082199D01*
X0186860Y0082199D01*
X0186880Y0082214D01*
X0187227Y0082667D01*
X0187446Y0083194D01*
X0187449Y0083219D01*
X0187449Y0083219D01*
X0187492Y0083544D01*
X0187520Y0083760D01*
X0187517Y0083785D01*
X0187455Y0084255D01*
X0187446Y0084326D01*
X0187227Y0084853D01*
X0186880Y0085306D01*
X0186860Y0085321D01*
X0186448Y0085638D01*
X0186447Y0085638D01*
X0186427Y0085653D01*
X0186412Y0085659D01*
X0186254Y0085835D01*
X0186220Y0085994D01*
X0186220Y0086319D01*
X0184348Y0086319D01*
X0184119Y0086393D01*
X0183977Y0086588D01*
X0183958Y0086709D01*
X0183958Y0089077D01*
X0184033Y0089306D01*
X0184228Y0089448D01*
X0184348Y0089467D01*
X0276664Y0089467D01*
X0276694Y0089457D01*
X0276726Y0089467D01*
X0291045Y0089467D01*
X0291274Y0089392D01*
X0291416Y0089197D01*
X0291435Y0089077D01*
X0291435Y0080363D01*
X0291360Y0080134D01*
X0291165Y0079992D01*
X0290924Y0079992D01*
X0290730Y0080134D01*
X0290666Y0080272D01*
X0290637Y0080391D01*
X0290528Y0080603D01*
X0290364Y0080921D01*
X0290333Y0080980D01*
X0289897Y0081480D01*
X0289878Y0081493D01*
X0289878Y0081493D01*
X0289509Y0081753D01*
X0289355Y0081861D01*
X0289046Y0081982D01*
X0288905Y0082036D01*
X0288737Y0082102D01*
X0288714Y0082105D01*
X0288714Y0082105D01*
X0288244Y0082167D01*
X0288231Y0082169D01*
X0288071Y0082169D01*
X0287842Y0082243D01*
X0287700Y0082438D01*
X0287700Y0082679D01*
X0287795Y0082834D01*
X0287993Y0083031D01*
X0288018Y0083054D01*
X0288135Y0083153D01*
X0288174Y0083219D01*
X0288212Y0083285D01*
X0288230Y0083314D01*
X0288318Y0083439D01*
X0288326Y0083472D01*
X0288336Y0083493D01*
X0288344Y0083515D01*
X0288361Y0083544D01*
X0288367Y0083578D01*
X0288367Y0083578D01*
X0288388Y0083695D01*
X0288395Y0083728D01*
X0288435Y0083876D01*
X0288432Y0083910D01*
X0288435Y0083944D01*
X0288443Y0083943D01*
X0288487Y0084134D01*
X0288529Y0084191D01*
X0288802Y0084501D01*
X0289042Y0085012D01*
X0289046Y0085039D01*
X0289046Y0085039D01*
X0289088Y0085306D01*
X0289129Y0085570D01*
X0289125Y0085597D01*
X0289125Y0085597D01*
X0289120Y0085638D01*
X0289056Y0086129D01*
X0289045Y0086155D01*
X0289045Y0086155D01*
X0288841Y0086616D01*
X0288828Y0086646D01*
X0288731Y0086761D01*
X0288483Y0087057D01*
X0288483Y0087057D01*
X0288465Y0087078D01*
X0288442Y0087093D01*
X0288442Y0087093D01*
X0288394Y0087126D01*
X0287995Y0087391D01*
X0287669Y0087492D01*
X0287483Y0087551D01*
X0287483Y0087551D01*
X0287457Y0087559D01*
X0287174Y0087564D01*
X0286920Y0087569D01*
X0286920Y0087569D01*
X0286892Y0087569D01*
X0286865Y0087562D01*
X0286865Y0087562D01*
X0286569Y0087481D01*
X0286348Y0087421D01*
X0285867Y0087126D01*
X0285837Y0087093D01*
X0285507Y0086728D01*
X0285488Y0086707D01*
X0285242Y0086199D01*
X0285237Y0086169D01*
X0285151Y0085657D01*
X0285151Y0085657D01*
X0285148Y0085643D01*
X0285148Y0085594D01*
X0285228Y0085035D01*
X0285337Y0084794D01*
X0285450Y0084547D01*
X0285450Y0084547D01*
X0285452Y0084541D01*
X0285461Y0084521D01*
X0285457Y0084519D01*
X0285511Y0084313D01*
X0285423Y0084089D01*
X0285397Y0084060D01*
X0283495Y0082159D01*
X0283470Y0082136D01*
X0283353Y0082037D01*
X0283333Y0082003D01*
X0283282Y0081913D01*
X0283277Y0081905D01*
X0283258Y0081876D01*
X0283254Y0081870D01*
X0283171Y0081751D01*
X0283162Y0081718D01*
X0283152Y0081697D01*
X0283144Y0081675D01*
X0283127Y0081646D01*
X0283101Y0081495D01*
X0283093Y0081462D01*
X0283076Y0081396D01*
X0283054Y0081314D01*
X0283067Y0081162D01*
X0283068Y0081128D01*
X0283068Y0078420D01*
X0283067Y0078386D01*
X0283058Y0078280D01*
X0283054Y0078233D01*
X0283093Y0078085D01*
X0283101Y0078052D01*
X0283121Y0077935D01*
X0283121Y0077935D01*
X0283127Y0077901D01*
X0283144Y0077872D01*
X0283152Y0077850D01*
X0283162Y0077830D01*
X0283171Y0077797D01*
X0283258Y0077671D01*
X0283277Y0077643D01*
X0283323Y0077562D01*
X0283353Y0077510D01*
X0283470Y0077412D01*
X0283495Y0077389D01*
X0284359Y0076525D01*
X0284469Y0076310D01*
X0284431Y0076072D01*
X0284261Y0075902D01*
X0284084Y0075860D01*
X0282955Y0075860D01*
X0282726Y0075934D01*
X0282657Y0075999D01*
X0282544Y0076133D01*
X0282544Y0076133D01*
X0282526Y0076154D01*
X0282503Y0076170D01*
X0282503Y0076170D01*
X0282462Y0076197D01*
X0282056Y0076467D01*
X0281660Y0076591D01*
X0281544Y0076627D01*
X0281544Y0076627D01*
X0281517Y0076635D01*
X0281235Y0076640D01*
X0280981Y0076645D01*
X0280981Y0076645D01*
X0280953Y0076646D01*
X0280926Y0076638D01*
X0280926Y0076638D01*
X0280415Y0076499D01*
X0280174Y0076511D01*
X0279987Y0076661D01*
X0279923Y0076875D01*
X0279923Y0081680D01*
X0279997Y0081909D01*
X0280205Y0082055D01*
X0280618Y0082173D01*
X0280618Y0082173D01*
X0280644Y0082181D01*
X0281122Y0082482D01*
X0281140Y0082503D01*
X0281140Y0082503D01*
X0281477Y0082884D01*
X0281477Y0082884D01*
X0281495Y0082905D01*
X0281507Y0082930D01*
X0281507Y0082930D01*
X0281546Y0083013D01*
X0281735Y0083416D01*
X0281822Y0083973D01*
X0281818Y0084001D01*
X0281818Y0084001D01*
X0281764Y0084418D01*
X0281749Y0084533D01*
X0281738Y0084558D01*
X0281738Y0084559D01*
X0281538Y0085013D01*
X0281522Y0085050D01*
X0281470Y0085111D01*
X0281176Y0085461D01*
X0281176Y0085461D01*
X0281158Y0085482D01*
X0281135Y0085497D01*
X0281135Y0085497D01*
X0281012Y0085579D01*
X0280688Y0085795D01*
X0280335Y0085905D01*
X0280176Y0085955D01*
X0280176Y0085955D01*
X0280150Y0085963D01*
X0279868Y0085968D01*
X0279613Y0085973D01*
X0279613Y0085973D01*
X0279585Y0085973D01*
X0279335Y0085905D01*
X0279094Y0085916D01*
X0278906Y0086067D01*
X0278843Y0086300D01*
X0278847Y0086341D01*
X0278901Y0086688D01*
X0278898Y0086716D01*
X0278898Y0086716D01*
X0278870Y0086925D01*
X0278828Y0087248D01*
X0278817Y0087273D01*
X0278817Y0087273D01*
X0278690Y0087562D01*
X0278601Y0087765D01*
X0278532Y0087846D01*
X0278255Y0088175D01*
X0278255Y0088175D01*
X0278238Y0088197D01*
X0278214Y0088212D01*
X0278214Y0088212D01*
X0278138Y0088263D01*
X0277768Y0088510D01*
X0277372Y0088633D01*
X0277255Y0088670D01*
X0277255Y0088670D01*
X0277229Y0088678D01*
X0276728Y0088687D01*
X0276719Y0088687D01*
X0276711Y0088690D01*
X0276692Y0088688D01*
X0276665Y0088688D01*
X0276638Y0088681D01*
X0276638Y0088681D01*
X0276342Y0088600D01*
X0276120Y0088540D01*
X0275680Y0088270D01*
X0275663Y0088259D01*
X0275639Y0088244D01*
X0275610Y0088212D01*
X0275279Y0087846D01*
X0275260Y0087826D01*
X0275068Y0087428D01*
X0275026Y0087343D01*
X0275014Y0087318D01*
X0275005Y0087265D01*
X0274923Y0086776D01*
X0274923Y0086776D01*
X0274920Y0086761D01*
X0274920Y0086713D01*
X0274934Y0086613D01*
X0274893Y0086376D01*
X0274824Y0086282D01*
X0271454Y0082913D01*
X0271240Y0082804D01*
X0271002Y0082841D01*
X0270832Y0083012D01*
X0270789Y0083191D01*
X0270792Y0083712D01*
X0270792Y0083746D01*
X0270712Y0084078D01*
X0270647Y0084349D01*
X0270637Y0084391D01*
X0270539Y0084581D01*
X0270399Y0084853D01*
X0270333Y0084980D01*
X0269897Y0085480D01*
X0269878Y0085493D01*
X0269878Y0085493D01*
X0269438Y0085803D01*
X0269355Y0085861D01*
X0269069Y0085973D01*
X0268826Y0086067D01*
X0268737Y0086102D01*
X0268714Y0086105D01*
X0268714Y0086105D01*
X0268244Y0086167D01*
X0268231Y0086169D01*
X0267885Y0086169D01*
X0267871Y0086167D01*
X0267416Y0086112D01*
X0267416Y0086112D01*
X0267393Y0086109D01*
X0267351Y0086093D01*
X0267182Y0086029D01*
X0266772Y0085875D01*
X0266753Y0085861D01*
X0266753Y0085861D01*
X0266245Y0085512D01*
X0266226Y0085499D01*
X0265785Y0085004D01*
X0265475Y0084418D01*
X0265388Y0084072D01*
X0265319Y0083798D01*
X0265319Y0083798D01*
X0265313Y0083775D01*
X0265311Y0083385D01*
X0265310Y0083136D01*
X0265310Y0083136D01*
X0265310Y0083112D01*
X0265464Y0082467D01*
X0265643Y0082121D01*
X0265758Y0081899D01*
X0265758Y0081899D01*
X0265768Y0081878D01*
X0266204Y0081379D01*
X0266566Y0081124D01*
X0266711Y0080931D01*
X0266715Y0080691D01*
X0266576Y0080494D01*
X0266342Y0080415D01*
X0263262Y0080415D01*
X0263228Y0080417D01*
X0263075Y0080430D01*
X0262927Y0080391D01*
X0262894Y0080383D01*
X0262777Y0080363D01*
X0262777Y0080363D01*
X0262744Y0080357D01*
X0262714Y0080340D01*
X0262692Y0080332D01*
X0262672Y0080322D01*
X0262639Y0080313D01*
X0262513Y0080226D01*
X0262485Y0080207D01*
X0262352Y0080131D01*
X0262254Y0080014D01*
X0262231Y0079989D01*
X0260666Y0078424D01*
X0260451Y0078314D01*
X0260390Y0078310D01*
X0239975Y0078310D01*
X0239746Y0078384D01*
X0239605Y0078579D01*
X0239605Y0078650D01*
X0239586Y0078525D01*
X0239417Y0078354D01*
X0239237Y0078310D01*
X0230349Y0078310D01*
X0230315Y0078311D01*
X0230162Y0078324D01*
X0230125Y0078314D01*
X0230014Y0078285D01*
X0229981Y0078277D01*
X0229864Y0078257D01*
X0229864Y0078257D01*
X0229831Y0078251D01*
X0229801Y0078234D01*
X0229779Y0078226D01*
X0229759Y0078216D01*
X0229726Y0078207D01*
X0229600Y0078120D01*
X0229572Y0078101D01*
X0229544Y0078085D01*
X0229439Y0078025D01*
X0229341Y0077908D01*
X0229318Y0077883D01*
X0225173Y0073738D01*
X0224959Y0073629D01*
X0224898Y0073624D01*
X0223842Y0073624D01*
X0223613Y0073699D01*
X0223544Y0073763D01*
X0223490Y0073827D01*
X0223467Y0073842D01*
X0223467Y0073842D01*
X0223406Y0073883D01*
X0223020Y0074139D01*
X0222741Y0074227D01*
X0222508Y0074299D01*
X0222508Y0074299D01*
X0222482Y0074308D01*
X0222199Y0074313D01*
X0221945Y0074318D01*
X0221945Y0074318D01*
X0221917Y0074318D01*
X0221891Y0074311D01*
X0221891Y0074311D01*
X0221512Y0074208D01*
X0221373Y0074170D01*
X0220892Y0073874D01*
X0220863Y0073842D01*
X0220532Y0073476D01*
X0220513Y0073456D01*
X0220267Y0072948D01*
X0220241Y0072795D01*
X0220176Y0072406D01*
X0220176Y0072406D01*
X0220173Y0072391D01*
X0220173Y0072343D01*
X0220253Y0071784D01*
X0220387Y0071487D01*
X0220475Y0071295D01*
X0220475Y0071295D01*
X0220486Y0071270D01*
X0220855Y0070842D01*
X0221201Y0070618D01*
X0221353Y0070431D01*
X0221366Y0070190D01*
X0221235Y0069988D01*
X0221193Y0069959D01*
X0220955Y0069812D01*
X0220931Y0069798D01*
X0220902Y0069766D01*
X0220571Y0069400D01*
X0220552Y0069379D01*
X0220306Y0068871D01*
X0220298Y0068825D01*
X0220215Y0068330D01*
X0220215Y0068330D01*
X0220213Y0068315D01*
X0220212Y0068266D01*
X0220292Y0067708D01*
X0220491Y0067269D01*
X0220514Y0067219D01*
X0220514Y0067219D01*
X0220526Y0067194D01*
X0220763Y0066918D01*
X0220876Y0066787D01*
X0220876Y0066787D01*
X0220894Y0066766D01*
X0221368Y0066459D01*
X0221908Y0066297D01*
X0222236Y0066295D01*
X0222445Y0066294D01*
X0222445Y0066294D01*
X0222473Y0066294D01*
X0222500Y0066302D01*
X0222500Y0066302D01*
X0222989Y0066441D01*
X0222989Y0066441D01*
X0223016Y0066449D01*
X0223493Y0066750D01*
X0223511Y0066771D01*
X0223511Y0066771D01*
X0223584Y0066853D01*
X0223791Y0066975D01*
X0223876Y0066985D01*
X0225476Y0066985D01*
X0225510Y0066983D01*
X0225523Y0066982D01*
X0225663Y0066970D01*
X0225696Y0066979D01*
X0225696Y0066979D01*
X0225810Y0067010D01*
X0225844Y0067017D01*
X0225994Y0067043D01*
X0226024Y0067060D01*
X0226045Y0067068D01*
X0226066Y0067078D01*
X0226099Y0067087D01*
X0226222Y0067173D01*
X0226224Y0067175D01*
X0226253Y0067193D01*
X0226386Y0067269D01*
X0226408Y0067296D01*
X0226484Y0067387D01*
X0226507Y0067412D01*
X0229090Y0069994D01*
X0231277Y0072182D01*
X0231492Y0072291D01*
X0231730Y0072254D01*
X0231908Y0072068D01*
X0232011Y0071840D01*
X0232011Y0071840D01*
X0232023Y0071815D01*
X0232294Y0071499D01*
X0232373Y0071408D01*
X0232373Y0071408D01*
X0232391Y0071387D01*
X0232415Y0071372D01*
X0232436Y0071354D01*
X0232428Y0071345D01*
X0232550Y0071195D01*
X0232576Y0071055D01*
X0232576Y0056986D01*
X0232502Y0056757D01*
X0232307Y0056616D01*
X0232187Y0056597D01*
X0224407Y0056597D01*
X0224178Y0056671D01*
X0224036Y0056866D01*
X0224036Y0057107D01*
X0224054Y0057151D01*
X0224060Y0057166D01*
X0224080Y0057194D01*
X0224089Y0057227D01*
X0224098Y0057247D01*
X0224106Y0057269D01*
X0224123Y0057299D01*
X0224129Y0057332D01*
X0224129Y0057332D01*
X0224150Y0057449D01*
X0224157Y0057482D01*
X0224197Y0057630D01*
X0224194Y0057664D01*
X0224184Y0057783D01*
X0224182Y0057817D01*
X0224182Y0061467D01*
X0224257Y0061696D01*
X0224280Y0061724D01*
X0224564Y0062047D01*
X0224804Y0062558D01*
X0224809Y0062585D01*
X0224809Y0062585D01*
X0224859Y0062906D01*
X0224891Y0063116D01*
X0224888Y0063143D01*
X0224888Y0063143D01*
X0224831Y0063574D01*
X0224818Y0063675D01*
X0224807Y0063701D01*
X0224807Y0063701D01*
X0224716Y0063907D01*
X0224591Y0064192D01*
X0224461Y0064346D01*
X0224245Y0064603D01*
X0224245Y0064603D01*
X0224228Y0064624D01*
X0224204Y0064639D01*
X0224204Y0064639D01*
X0224164Y0064666D01*
X0223758Y0064937D01*
X0223362Y0065060D01*
X0223245Y0065097D01*
X0223245Y0065097D01*
X0223219Y0065105D01*
X0222937Y0065110D01*
X0222682Y0065115D01*
X0222682Y0065115D01*
X0222655Y0065115D01*
X0222628Y0065108D01*
X0222628Y0065108D01*
X0222327Y0065026D01*
X0222110Y0064967D01*
X0221629Y0064672D01*
X0221600Y0064639D01*
X0221269Y0064274D01*
X0221250Y0064253D01*
X0221004Y0063745D01*
X0220996Y0063695D01*
X0220913Y0063203D01*
X0220913Y0063203D01*
X0220910Y0063189D01*
X0220910Y0063140D01*
X0220990Y0062581D01*
X0221224Y0062067D01*
X0221525Y0061718D01*
X0221618Y0061496D01*
X0221619Y0061463D01*
X0221619Y0058436D01*
X0221545Y0058207D01*
X0221505Y0058160D01*
X0219814Y0056470D01*
X0219789Y0056447D01*
X0219704Y0056375D01*
X0219672Y0056348D01*
X0219596Y0056216D01*
X0219577Y0056187D01*
X0219546Y0056143D01*
X0219490Y0056062D01*
X0219481Y0056029D01*
X0219471Y0056008D01*
X0219463Y0055986D01*
X0219446Y0055957D01*
X0219420Y0055806D01*
X0219412Y0055773D01*
X0219381Y0055658D01*
X0219373Y0055625D01*
X0219386Y0055473D01*
X0219387Y0055439D01*
X0219387Y0054327D01*
X0219313Y0054097D01*
X0219118Y0053956D01*
X0218877Y0053956D01*
X0218722Y0054051D01*
G37*
G36*
X0242773Y0069466D02*
G01*
X0242585Y0069616D01*
X0242521Y0069830D01*
X0242521Y0075357D01*
X0242596Y0075586D01*
X0242791Y0075727D01*
X0242911Y0075747D01*
X0261010Y0075747D01*
X0261044Y0075745D01*
X0261162Y0075735D01*
X0261196Y0075732D01*
X0261229Y0075741D01*
X0261344Y0075771D01*
X0261377Y0075779D01*
X0261494Y0075799D01*
X0261494Y0075799D01*
X0261528Y0075805D01*
X0261557Y0075822D01*
X0261579Y0075830D01*
X0261600Y0075840D01*
X0261633Y0075849D01*
X0261709Y0075902D01*
X0261758Y0075936D01*
X0261787Y0075955D01*
X0261919Y0076031D01*
X0262004Y0076133D01*
X0262017Y0076148D01*
X0262040Y0076173D01*
X0263605Y0077738D01*
X0263820Y0077848D01*
X0263881Y0077852D01*
X0265671Y0077852D01*
X0265900Y0077778D01*
X0266042Y0077583D01*
X0266042Y0077342D01*
X0265962Y0077203D01*
X0265936Y0077173D01*
X0265785Y0077004D01*
X0265771Y0076978D01*
X0265713Y0076868D01*
X0265475Y0076418D01*
X0265384Y0076057D01*
X0265319Y0075798D01*
X0265319Y0075798D01*
X0265313Y0075775D01*
X0265311Y0075390D01*
X0265310Y0075136D01*
X0265310Y0075136D01*
X0265310Y0075112D01*
X0265464Y0074467D01*
X0265667Y0074074D01*
X0265758Y0073899D01*
X0265758Y0073899D01*
X0265768Y0073878D01*
X0266204Y0073379D01*
X0266251Y0073346D01*
X0266728Y0073011D01*
X0266728Y0073011D01*
X0266747Y0072997D01*
X0267293Y0072784D01*
X0267343Y0072765D01*
X0267343Y0072765D01*
X0267365Y0072756D01*
X0267388Y0072753D01*
X0267388Y0072753D01*
X0267858Y0072692D01*
X0267870Y0072690D01*
X0268217Y0072690D01*
X0268229Y0072691D01*
X0268229Y0072691D01*
X0268686Y0072747D01*
X0268686Y0072747D01*
X0268709Y0072749D01*
X0268731Y0072758D01*
X0268731Y0072758D01*
X0268801Y0072784D01*
X0269329Y0072984D01*
X0269349Y0072997D01*
X0269349Y0072997D01*
X0269577Y0073154D01*
X0269876Y0073359D01*
X0270317Y0073854D01*
X0270328Y0073875D01*
X0270328Y0073875D01*
X0270340Y0073899D01*
X0270627Y0074440D01*
X0270681Y0074654D01*
X0270780Y0075049D01*
X0270788Y0075083D01*
X0270789Y0075107D01*
X0270792Y0075687D01*
X0270792Y0075746D01*
X0270637Y0076391D01*
X0270476Y0076703D01*
X0270334Y0076979D01*
X0270295Y0077216D01*
X0270403Y0077432D01*
X0270472Y0077487D01*
X0270591Y0077562D01*
X0270680Y0077618D01*
X0270698Y0077639D01*
X0270698Y0077639D01*
X0271035Y0078020D01*
X0271035Y0078020D01*
X0271053Y0078041D01*
X0271065Y0078066D01*
X0271065Y0078066D01*
X0271074Y0078085D01*
X0271293Y0078552D01*
X0271297Y0078579D01*
X0271297Y0078579D01*
X0271332Y0078803D01*
X0271376Y0079086D01*
X0271380Y0079107D01*
X0271489Y0079323D01*
X0276793Y0084627D01*
X0277008Y0084736D01*
X0277071Y0084741D01*
X0277153Y0084741D01*
X0277153Y0084741D01*
X0277181Y0084740D01*
X0277207Y0084748D01*
X0277403Y0084804D01*
X0277644Y0084795D01*
X0277834Y0084647D01*
X0277900Y0084415D01*
X0277895Y0084365D01*
X0277894Y0084358D01*
X0277841Y0084046D01*
X0277841Y0083998D01*
X0277836Y0083998D01*
X0277781Y0083783D01*
X0277702Y0083693D01*
X0277671Y0083666D01*
X0277644Y0083644D01*
X0277568Y0083511D01*
X0277550Y0083483D01*
X0277522Y0083443D01*
X0277462Y0083358D01*
X0277453Y0083325D01*
X0277443Y0083304D01*
X0277436Y0083282D01*
X0277419Y0083253D01*
X0277392Y0083102D01*
X0277385Y0083069D01*
X0277354Y0082954D01*
X0277354Y0082954D01*
X0277345Y0082921D01*
X0277358Y0082769D01*
X0277360Y0082735D01*
X0277360Y0072787D01*
X0277285Y0072558D01*
X0277246Y0072511D01*
X0275698Y0070964D01*
X0275484Y0070854D01*
X0275423Y0070850D01*
X0273617Y0070850D01*
X0273388Y0070924D01*
X0273341Y0070964D01*
X0273245Y0071061D01*
X0273222Y0071086D01*
X0273123Y0071203D01*
X0273052Y0071244D01*
X0272991Y0071279D01*
X0272962Y0071298D01*
X0272837Y0071385D01*
X0272804Y0071394D01*
X0272783Y0071404D01*
X0272762Y0071412D01*
X0272732Y0071429D01*
X0272698Y0071435D01*
X0272698Y0071435D01*
X0272581Y0071455D01*
X0272548Y0071463D01*
X0272400Y0071502D01*
X0272248Y0071489D01*
X0272214Y0071487D01*
X0246433Y0071487D01*
X0246399Y0071489D01*
X0246246Y0071502D01*
X0246099Y0071463D01*
X0246065Y0071455D01*
X0245948Y0071435D01*
X0245948Y0071435D01*
X0245915Y0071429D01*
X0245885Y0071412D01*
X0245864Y0071404D01*
X0245843Y0071394D01*
X0245810Y0071385D01*
X0245685Y0071298D01*
X0245656Y0071279D01*
X0245594Y0071244D01*
X0245523Y0071203D01*
X0245425Y0071086D01*
X0245402Y0071061D01*
X0244045Y0069703D01*
X0243830Y0069594D01*
X0243762Y0069589D01*
X0243696Y0069591D01*
X0243554Y0069593D01*
X0243554Y0069593D01*
X0243526Y0069594D01*
X0243499Y0069586D01*
X0243499Y0069586D01*
X0243014Y0069454D01*
X0242773Y0069466D01*
G37*
G36*
X0288360Y0064475D02*
G01*
X0288213Y0064666D01*
X0288191Y0064797D01*
X0288191Y0065548D01*
X0288265Y0065777D01*
X0288305Y0065824D01*
X0289755Y0067274D01*
X0289780Y0067297D01*
X0289897Y0067395D01*
X0289974Y0067528D01*
X0289992Y0067556D01*
X0290080Y0067682D01*
X0290089Y0067715D01*
X0290098Y0067735D01*
X0290106Y0067757D01*
X0290123Y0067787D01*
X0290129Y0067820D01*
X0290129Y0067820D01*
X0290150Y0067937D01*
X0290157Y0067970D01*
X0290197Y0068118D01*
X0290194Y0068152D01*
X0290183Y0068271D01*
X0290182Y0068305D01*
X0290182Y0073723D01*
X0290183Y0073757D01*
X0290197Y0073910D01*
X0290188Y0073942D01*
X0290157Y0074057D01*
X0290150Y0074091D01*
X0290135Y0074177D01*
X0290123Y0074241D01*
X0290106Y0074271D01*
X0290098Y0074292D01*
X0290089Y0074313D01*
X0290080Y0074346D01*
X0290028Y0074420D01*
X0289992Y0074471D01*
X0289974Y0074500D01*
X0289897Y0074633D01*
X0289852Y0074671D01*
X0289780Y0074731D01*
X0289755Y0074754D01*
X0288428Y0076081D01*
X0288319Y0076295D01*
X0288357Y0076533D01*
X0288527Y0076703D01*
X0288657Y0076743D01*
X0288665Y0076744D01*
X0288686Y0076747D01*
X0288686Y0076747D01*
X0288709Y0076749D01*
X0288731Y0076758D01*
X0288731Y0076758D01*
X0288920Y0076829D01*
X0289329Y0076984D01*
X0289349Y0076997D01*
X0289349Y0076997D01*
X0289649Y0077203D01*
X0289876Y0077359D01*
X0290317Y0077854D01*
X0290627Y0078440D01*
X0290633Y0078463D01*
X0290633Y0078463D01*
X0290667Y0078599D01*
X0290795Y0078803D01*
X0291018Y0078893D01*
X0291252Y0078834D01*
X0291407Y0078649D01*
X0291435Y0078504D01*
X0291435Y0065026D01*
X0291360Y0064797D01*
X0291165Y0064655D01*
X0290924Y0064655D01*
X0290896Y0064666D01*
X0290748Y0064727D01*
X0290590Y0064793D01*
X0290564Y0064796D01*
X0290564Y0064796D01*
X0290049Y0064864D01*
X0290024Y0064867D01*
X0289999Y0064864D01*
X0289484Y0064796D01*
X0289484Y0064796D01*
X0289458Y0064793D01*
X0288931Y0064574D01*
X0288911Y0064559D01*
X0288911Y0064559D01*
X0288818Y0064487D01*
X0288591Y0064407D01*
X0288360Y0064475D01*
G37*
G36*
X0239286Y0061229D02*
G01*
X0239284Y0061232D01*
X0239201Y0061302D01*
X0239167Y0061330D01*
X0239142Y0061353D01*
X0237714Y0062781D01*
X0237605Y0062995D01*
X0237600Y0063056D01*
X0237600Y0074140D01*
X0237601Y0074174D01*
X0237615Y0074326D01*
X0237606Y0074359D01*
X0237575Y0074474D01*
X0237568Y0074507D01*
X0237551Y0074604D01*
X0237541Y0074658D01*
X0237524Y0074687D01*
X0237516Y0074709D01*
X0237507Y0074730D01*
X0237498Y0074763D01*
X0237417Y0074878D01*
X0237410Y0074888D01*
X0237392Y0074917D01*
X0237315Y0075049D01*
X0237289Y0075071D01*
X0237267Y0075097D01*
X0237276Y0075104D01*
X0237177Y0075263D01*
X0237194Y0075503D01*
X0237349Y0075687D01*
X0237555Y0075747D01*
X0239568Y0075747D01*
X0239798Y0075672D01*
X0239939Y0075477D01*
X0239958Y0075357D01*
X0239958Y0061490D01*
X0239884Y0061261D01*
X0239689Y0061119D01*
X0239448Y0061119D01*
X0239286Y0061229D01*
G37*
G36*
X0194890Y0048909D02*
G01*
X0194788Y0049127D01*
X0194785Y0049175D01*
X0194785Y0056718D01*
X0194787Y0056752D01*
X0194800Y0056905D01*
X0194791Y0056938D01*
X0194760Y0057053D01*
X0194753Y0057086D01*
X0194734Y0057194D01*
X0194726Y0057236D01*
X0194709Y0057266D01*
X0194701Y0057288D01*
X0194692Y0057308D01*
X0194683Y0057341D01*
X0194607Y0057449D01*
X0194595Y0057467D01*
X0194577Y0057495D01*
X0194500Y0057628D01*
X0194403Y0057709D01*
X0194383Y0057726D01*
X0194358Y0057749D01*
X0191454Y0060653D01*
X0191345Y0060868D01*
X0191340Y0060929D01*
X0191340Y0070472D01*
X0191415Y0070701D01*
X0191438Y0070730D01*
X0191723Y0071053D01*
X0191962Y0071564D01*
X0191967Y0071591D01*
X0191967Y0071591D01*
X0191998Y0071791D01*
X0192049Y0072121D01*
X0192046Y0072149D01*
X0192046Y0072149D01*
X0191980Y0072648D01*
X0191976Y0072681D01*
X0191965Y0072707D01*
X0191965Y0072707D01*
X0191768Y0073154D01*
X0191749Y0073198D01*
X0191613Y0073359D01*
X0191403Y0073609D01*
X0191403Y0073609D01*
X0191386Y0073630D01*
X0191362Y0073645D01*
X0191362Y0073645D01*
X0190994Y0073890D01*
X0190845Y0074079D01*
X0190835Y0074320D01*
X0190968Y0074520D01*
X0191210Y0074604D01*
X0192071Y0074604D01*
X0192300Y0074530D01*
X0192347Y0074490D01*
X0217252Y0049585D01*
X0217362Y0049370D01*
X0217324Y0049132D01*
X0217154Y0048962D01*
X0216977Y0048919D01*
X0195939Y0048919D01*
X0195905Y0048921D01*
X0195752Y0048934D01*
X0195710Y0048923D01*
X0195605Y0048895D01*
X0195571Y0048887D01*
X0195454Y0048867D01*
X0195454Y0048867D01*
X0195421Y0048861D01*
X0195391Y0048844D01*
X0195370Y0048836D01*
X0195349Y0048826D01*
X0195327Y0048820D01*
X0195324Y0048820D01*
X0195322Y0048819D01*
X0195316Y0048817D01*
X0195315Y0048819D01*
X0195100Y0048792D01*
X0194890Y0048909D01*
G37*
G36*
X0184121Y0051779D02*
G01*
X0183978Y0051973D01*
X0183958Y0052095D01*
X0183958Y0069000D01*
X0184033Y0069229D01*
X0184228Y0069371D01*
X0184348Y0069390D01*
X0186220Y0069390D01*
X0186220Y0069715D01*
X0186294Y0069944D01*
X0186411Y0070049D01*
X0186427Y0070056D01*
X0186447Y0070071D01*
X0186448Y0070071D01*
X0186710Y0070273D01*
X0186880Y0070403D01*
X0187227Y0070856D01*
X0187446Y0071383D01*
X0187449Y0071408D01*
X0187456Y0071433D01*
X0187466Y0071430D01*
X0187550Y0071606D01*
X0187762Y0071721D01*
X0188001Y0071690D01*
X0188175Y0071524D01*
X0188188Y0071499D01*
X0188370Y0071099D01*
X0188370Y0071098D01*
X0188382Y0071073D01*
X0188683Y0070724D01*
X0188776Y0070502D01*
X0188777Y0070469D01*
X0188777Y0060309D01*
X0188776Y0060275D01*
X0188765Y0060157D01*
X0188762Y0060123D01*
X0188802Y0059975D01*
X0188809Y0059942D01*
X0188830Y0059825D01*
X0188830Y0059825D01*
X0188836Y0059791D01*
X0188853Y0059762D01*
X0188861Y0059740D01*
X0188870Y0059719D01*
X0188879Y0059686D01*
X0188967Y0059561D01*
X0188985Y0059532D01*
X0189015Y0059481D01*
X0189062Y0059400D01*
X0189179Y0059302D01*
X0189204Y0059279D01*
X0192108Y0056375D01*
X0192217Y0056160D01*
X0192222Y0056099D01*
X0192222Y0055069D01*
X0192148Y0054840D01*
X0191953Y0054698D01*
X0191712Y0054698D01*
X0191517Y0054840D01*
X0191476Y0054912D01*
X0191355Y0055186D01*
X0191304Y0055247D01*
X0191010Y0055597D01*
X0191010Y0055597D01*
X0190992Y0055618D01*
X0190969Y0055633D01*
X0190969Y0055633D01*
X0190931Y0055658D01*
X0190522Y0055931D01*
X0190164Y0056043D01*
X0190010Y0056091D01*
X0190010Y0056091D01*
X0189983Y0056099D01*
X0189701Y0056104D01*
X0189447Y0056109D01*
X0189447Y0056109D01*
X0189419Y0056109D01*
X0189392Y0056102D01*
X0189392Y0056102D01*
X0189042Y0056007D01*
X0188874Y0055961D01*
X0188393Y0055666D01*
X0188364Y0055633D01*
X0188033Y0055268D01*
X0188015Y0055247D01*
X0187768Y0054739D01*
X0187675Y0054183D01*
X0187674Y0054134D01*
X0187740Y0053675D01*
X0187699Y0053438D01*
X0187526Y0053270D01*
X0187287Y0053236D01*
X0187238Y0053248D01*
X0186959Y0053335D01*
X0186959Y0053335D01*
X0186932Y0053343D01*
X0186650Y0053348D01*
X0186395Y0053353D01*
X0186395Y0053353D01*
X0186368Y0053354D01*
X0186341Y0053346D01*
X0186341Y0053346D01*
X0185935Y0053236D01*
X0185823Y0053205D01*
X0185342Y0052910D01*
X0184963Y0052491D01*
X0184717Y0051983D01*
X0184715Y0051971D01*
X0184579Y0051781D01*
X0184350Y0051706D01*
X0184121Y0051779D01*
G37*
G36*
X0282467Y0045864D02*
G01*
X0282325Y0046059D01*
X0282325Y0046300D01*
X0282467Y0046495D01*
X0282589Y0046554D01*
X0282619Y0046563D01*
X0282619Y0046563D01*
X0282646Y0046570D01*
X0282669Y0046585D01*
X0283021Y0046807D01*
X0283123Y0046871D01*
X0283141Y0046892D01*
X0283141Y0046892D01*
X0283478Y0047274D01*
X0283478Y0047274D01*
X0283497Y0047295D01*
X0283737Y0047805D01*
X0283741Y0047833D01*
X0283741Y0047833D01*
X0283776Y0048055D01*
X0283823Y0048363D01*
X0283820Y0048391D01*
X0283820Y0048391D01*
X0283790Y0048617D01*
X0283750Y0048923D01*
X0283739Y0048948D01*
X0283739Y0048948D01*
X0283539Y0049404D01*
X0283523Y0049439D01*
X0283382Y0049607D01*
X0283178Y0049850D01*
X0283178Y0049850D01*
X0283160Y0049872D01*
X0282690Y0050184D01*
X0282294Y0050308D01*
X0282178Y0050344D01*
X0282178Y0050344D01*
X0282151Y0050353D01*
X0281869Y0050358D01*
X0281615Y0050362D01*
X0281615Y0050362D01*
X0281587Y0050363D01*
X0281560Y0050356D01*
X0281560Y0050356D01*
X0281264Y0050275D01*
X0281042Y0050215D01*
X0280561Y0049919D01*
X0280541Y0049897D01*
X0280451Y0049797D01*
X0280242Y0049677D01*
X0280162Y0049669D01*
X0279358Y0049669D01*
X0279129Y0049743D01*
X0279082Y0049783D01*
X0275469Y0053396D01*
X0275446Y0053421D01*
X0275348Y0053539D01*
X0275215Y0053615D01*
X0275187Y0053633D01*
X0275061Y0053721D01*
X0275028Y0053730D01*
X0275007Y0053740D01*
X0274986Y0053748D01*
X0274956Y0053765D01*
X0274923Y0053770D01*
X0274923Y0053770D01*
X0274806Y0053791D01*
X0274773Y0053798D01*
X0274718Y0053813D01*
X0274625Y0053838D01*
X0274472Y0053825D01*
X0274438Y0053823D01*
X0252575Y0053823D01*
X0252459Y0053841D01*
X0252133Y0053943D01*
X0252133Y0053943D01*
X0252107Y0053951D01*
X0251825Y0053956D01*
X0251570Y0053961D01*
X0251570Y0053961D01*
X0251543Y0053961D01*
X0251516Y0053954D01*
X0251516Y0053954D01*
X0251090Y0053838D01*
X0250998Y0053813D01*
X0250517Y0053518D01*
X0250418Y0053408D01*
X0250157Y0053120D01*
X0250138Y0053099D01*
X0250066Y0052950D01*
X0249899Y0052777D01*
X0249662Y0052734D01*
X0249440Y0052845D01*
X0242635Y0059649D01*
X0242526Y0059864D01*
X0242521Y0059925D01*
X0242521Y0065412D01*
X0242596Y0065641D01*
X0242791Y0065783D01*
X0243023Y0065785D01*
X0243271Y0065711D01*
X0243478Y0065649D01*
X0243567Y0065649D01*
X0243771Y0065648D01*
X0244000Y0065572D01*
X0244045Y0065533D01*
X0245767Y0063811D01*
X0245790Y0063786D01*
X0245861Y0063701D01*
X0245888Y0063669D01*
X0246021Y0063592D01*
X0246050Y0063574D01*
X0246059Y0063567D01*
X0246175Y0063486D01*
X0246208Y0063477D01*
X0246229Y0063468D01*
X0246250Y0063460D01*
X0246280Y0063443D01*
X0246313Y0063437D01*
X0246313Y0063437D01*
X0246430Y0063416D01*
X0246464Y0063409D01*
X0246578Y0063378D01*
X0246611Y0063369D01*
X0246645Y0063372D01*
X0246764Y0063382D01*
X0246798Y0063384D01*
X0252370Y0063384D01*
X0252599Y0063310D01*
X0252741Y0063115D01*
X0252741Y0062874D01*
X0252659Y0062733D01*
X0252456Y0062508D01*
X0252437Y0062487D01*
X0252191Y0061979D01*
X0252182Y0061929D01*
X0252100Y0061438D01*
X0252100Y0061438D01*
X0252097Y0061423D01*
X0252097Y0061408D01*
X0252096Y0061393D01*
X0252092Y0061393D01*
X0252020Y0061182D01*
X0251823Y0061043D01*
X0251700Y0061025D01*
X0251653Y0061026D01*
X0251548Y0061028D01*
X0251548Y0061028D01*
X0251520Y0061028D01*
X0251493Y0061021D01*
X0251493Y0061021D01*
X0251054Y0060901D01*
X0250813Y0060913D01*
X0250622Y0061070D01*
X0250612Y0061092D01*
X0250595Y0061113D01*
X0250595Y0061113D01*
X0250267Y0061502D01*
X0250267Y0061502D01*
X0250249Y0061524D01*
X0250226Y0061539D01*
X0250226Y0061539D01*
X0250101Y0061622D01*
X0249779Y0061836D01*
X0249409Y0061952D01*
X0249267Y0061996D01*
X0249267Y0061996D01*
X0249241Y0062005D01*
X0248958Y0062010D01*
X0248704Y0062015D01*
X0248704Y0062015D01*
X0248676Y0062015D01*
X0248649Y0062008D01*
X0248649Y0062008D01*
X0248289Y0061910D01*
X0248132Y0061867D01*
X0247651Y0061571D01*
X0247622Y0061539D01*
X0247291Y0061173D01*
X0247272Y0061153D01*
X0247085Y0060767D01*
X0247038Y0060670D01*
X0247026Y0060645D01*
X0247014Y0060574D01*
X0246935Y0060103D01*
X0246935Y0060103D01*
X0246932Y0060088D01*
X0246932Y0060040D01*
X0247012Y0059481D01*
X0247163Y0059147D01*
X0247234Y0058992D01*
X0247234Y0058992D01*
X0247245Y0058967D01*
X0247513Y0058656D01*
X0247596Y0058561D01*
X0247596Y0058561D01*
X0247614Y0058539D01*
X0248087Y0058232D01*
X0248628Y0058071D01*
X0248956Y0058069D01*
X0249165Y0058067D01*
X0249165Y0058067D01*
X0249192Y0058067D01*
X0249628Y0058192D01*
X0249869Y0058183D01*
X0250064Y0058027D01*
X0250078Y0058006D01*
X0250089Y0057980D01*
X0250389Y0057632D01*
X0250439Y0057574D01*
X0250439Y0057574D01*
X0250458Y0057553D01*
X0250931Y0057246D01*
X0251472Y0057084D01*
X0251800Y0057082D01*
X0252009Y0057081D01*
X0252009Y0057081D01*
X0252036Y0057081D01*
X0252063Y0057088D01*
X0252063Y0057088D01*
X0252552Y0057228D01*
X0252552Y0057228D01*
X0252579Y0057236D01*
X0253056Y0057537D01*
X0253075Y0057558D01*
X0253075Y0057558D01*
X0253412Y0057939D01*
X0253412Y0057939D01*
X0253430Y0057960D01*
X0253442Y0057985D01*
X0253442Y0057985D01*
X0253477Y0058060D01*
X0253670Y0058471D01*
X0253674Y0058498D01*
X0253674Y0058498D01*
X0253712Y0058739D01*
X0253757Y0059029D01*
X0253757Y0059030D01*
X0253830Y0059246D01*
X0254027Y0059386D01*
X0254145Y0059403D01*
X0254330Y0059402D01*
X0254330Y0059402D01*
X0254358Y0059402D01*
X0254384Y0059409D01*
X0254384Y0059409D01*
X0254874Y0059549D01*
X0254874Y0059549D01*
X0254900Y0059557D01*
X0255378Y0059858D01*
X0255396Y0059879D01*
X0255396Y0059879D01*
X0255733Y0060260D01*
X0255733Y0060260D01*
X0255751Y0060281D01*
X0255991Y0060792D01*
X0255996Y0060820D01*
X0255996Y0060820D01*
X0256049Y0061161D01*
X0256078Y0061350D01*
X0256074Y0061377D01*
X0256074Y0061377D01*
X0256019Y0061799D01*
X0256005Y0061910D01*
X0255994Y0061935D01*
X0255994Y0061935D01*
X0255924Y0062093D01*
X0255778Y0062426D01*
X0255520Y0062733D01*
X0255511Y0062743D01*
X0255420Y0062967D01*
X0255479Y0063200D01*
X0255663Y0063355D01*
X0255809Y0063384D01*
X0257280Y0063384D01*
X0257509Y0063310D01*
X0257555Y0063270D01*
X0258884Y0061941D01*
X0258907Y0061916D01*
X0258946Y0061869D01*
X0259006Y0061799D01*
X0259138Y0061722D01*
X0259167Y0061704D01*
X0259197Y0061683D01*
X0259292Y0061616D01*
X0259325Y0061607D01*
X0259346Y0061597D01*
X0259368Y0061590D01*
X0259397Y0061573D01*
X0259431Y0061567D01*
X0259431Y0061567D01*
X0259548Y0061546D01*
X0259581Y0061539D01*
X0259595Y0061535D01*
X0259637Y0061524D01*
X0259696Y0061508D01*
X0259729Y0061499D01*
X0259763Y0061502D01*
X0259881Y0061512D01*
X0259915Y0061514D01*
X0279612Y0061514D01*
X0279646Y0061512D01*
X0279765Y0061502D01*
X0279799Y0061499D01*
X0279832Y0061508D01*
X0279891Y0061524D01*
X0279933Y0061535D01*
X0279947Y0061539D01*
X0279980Y0061546D01*
X0280097Y0061567D01*
X0280097Y0061567D01*
X0280131Y0061573D01*
X0280160Y0061590D01*
X0280182Y0061597D01*
X0280202Y0061607D01*
X0280235Y0061616D01*
X0280331Y0061683D01*
X0280361Y0061704D01*
X0280389Y0061722D01*
X0280522Y0061799D01*
X0280592Y0061882D01*
X0280620Y0061916D01*
X0280643Y0061941D01*
X0284962Y0066260D01*
X0285177Y0066369D01*
X0285415Y0066331D01*
X0285585Y0066161D01*
X0285628Y0065984D01*
X0285628Y0061869D01*
X0285626Y0061835D01*
X0285616Y0061717D01*
X0285613Y0061683D01*
X0285652Y0061535D01*
X0285660Y0061502D01*
X0285680Y0061385D01*
X0285680Y0061385D01*
X0285686Y0061351D01*
X0285703Y0061322D01*
X0285711Y0061300D01*
X0285721Y0061279D01*
X0285730Y0061246D01*
X0285817Y0061121D01*
X0285836Y0061092D01*
X0285840Y0061085D01*
X0285912Y0060960D01*
X0286029Y0060861D01*
X0286054Y0060838D01*
X0287746Y0059147D01*
X0287855Y0058933D01*
X0287856Y0058821D01*
X0287838Y0058681D01*
X0287880Y0058358D01*
X0287909Y0058141D01*
X0287909Y0058141D01*
X0287912Y0058115D01*
X0288131Y0057588D01*
X0288478Y0057135D01*
X0288931Y0056788D01*
X0289458Y0056570D01*
X0289484Y0056566D01*
X0289484Y0056566D01*
X0289999Y0056499D01*
X0290024Y0056495D01*
X0290049Y0056499D01*
X0290564Y0056566D01*
X0290564Y0056566D01*
X0290590Y0056570D01*
X0290701Y0056616D01*
X0290896Y0056696D01*
X0291136Y0056715D01*
X0291341Y0056589D01*
X0291433Y0056367D01*
X0291435Y0056336D01*
X0291435Y0052050D01*
X0291360Y0051821D01*
X0291165Y0051679D01*
X0290924Y0051679D01*
X0290896Y0051690D01*
X0290719Y0051763D01*
X0290590Y0051816D01*
X0290564Y0051820D01*
X0290564Y0051820D01*
X0290049Y0051888D01*
X0290024Y0051891D01*
X0289999Y0051888D01*
X0289484Y0051820D01*
X0289484Y0051820D01*
X0289458Y0051816D01*
X0288931Y0051598D01*
X0288478Y0051251D01*
X0288131Y0050798D01*
X0287912Y0050271D01*
X0287899Y0050169D01*
X0287841Y0049730D01*
X0287838Y0049705D01*
X0287872Y0049448D01*
X0287828Y0049211D01*
X0287761Y0049121D01*
X0284544Y0045904D01*
X0284329Y0045794D01*
X0284268Y0045789D01*
X0282696Y0045789D01*
X0282467Y0045864D01*
G37*
G36*
X0237805Y0045155D02*
G01*
X0237759Y0045195D01*
X0234487Y0048467D01*
X0234378Y0048681D01*
X0234415Y0048919D01*
X0234586Y0049090D01*
X0234763Y0049132D01*
X0235126Y0049132D01*
X0235355Y0049058D01*
X0235421Y0048997D01*
X0235425Y0048993D01*
X0235425Y0048993D01*
X0235443Y0048972D01*
X0235917Y0048665D01*
X0236457Y0048503D01*
X0236785Y0048501D01*
X0236994Y0048500D01*
X0236994Y0048500D01*
X0237022Y0048499D01*
X0237048Y0048507D01*
X0237048Y0048507D01*
X0237538Y0048647D01*
X0237538Y0048647D01*
X0237564Y0048655D01*
X0237607Y0048681D01*
X0237994Y0048925D01*
X0238042Y0048956D01*
X0238060Y0048977D01*
X0238060Y0048977D01*
X0238397Y0049358D01*
X0238397Y0049358D01*
X0238415Y0049379D01*
X0238607Y0049787D01*
X0238772Y0049963D01*
X0239008Y0050008D01*
X0239235Y0049897D01*
X0239289Y0049844D01*
X0239312Y0049819D01*
X0239373Y0049745D01*
X0239410Y0049701D01*
X0239542Y0049625D01*
X0239571Y0049607D01*
X0239602Y0049585D01*
X0239696Y0049519D01*
X0239729Y0049510D01*
X0239750Y0049500D01*
X0239772Y0049492D01*
X0239801Y0049475D01*
X0239835Y0049470D01*
X0239835Y0049470D01*
X0239952Y0049449D01*
X0239985Y0049442D01*
X0240100Y0049411D01*
X0240133Y0049402D01*
X0240167Y0049405D01*
X0240285Y0049415D01*
X0240319Y0049417D01*
X0241896Y0049417D01*
X0242125Y0049342D01*
X0242172Y0049303D01*
X0242237Y0049237D01*
X0242346Y0049023D01*
X0242308Y0048785D01*
X0242118Y0048605D01*
X0242095Y0048599D01*
X0241614Y0048304D01*
X0241236Y0047886D01*
X0240990Y0047378D01*
X0240958Y0047188D01*
X0240898Y0046836D01*
X0240898Y0046836D01*
X0240896Y0046821D01*
X0240895Y0046772D01*
X0240975Y0046214D01*
X0241209Y0045700D01*
X0241226Y0045680D01*
X0241287Y0045447D01*
X0241199Y0045223D01*
X0240996Y0045093D01*
X0240898Y0045081D01*
X0238034Y0045081D01*
X0237805Y0045155D01*
G37*
G36*
X0184119Y0035608D02*
G01*
X0183977Y0035803D01*
X0183958Y0035923D01*
X0183958Y0047903D01*
X0184033Y0048132D01*
X0184228Y0048274D01*
X0184468Y0048274D01*
X0184663Y0048132D01*
X0184698Y0048061D01*
X0184703Y0048063D01*
X0184925Y0047575D01*
X0184925Y0047575D01*
X0184937Y0047550D01*
X0185305Y0047122D01*
X0185779Y0046815D01*
X0186320Y0046653D01*
X0186647Y0046651D01*
X0186856Y0046650D01*
X0186856Y0046650D01*
X0186884Y0046650D01*
X0186911Y0046657D01*
X0186911Y0046657D01*
X0187400Y0046797D01*
X0187400Y0046797D01*
X0187427Y0046805D01*
X0187904Y0047106D01*
X0187905Y0047104D01*
X0188109Y0047188D01*
X0188343Y0047131D01*
X0188356Y0047122D01*
X0188356Y0047122D01*
X0188711Y0046892D01*
X0188830Y0046815D01*
X0189062Y0046745D01*
X0189261Y0046608D01*
X0189340Y0046381D01*
X0189271Y0046150D01*
X0189226Y0046096D01*
X0188226Y0045096D01*
X0188011Y0044987D01*
X0187943Y0044982D01*
X0187809Y0044984D01*
X0187675Y0044987D01*
X0187675Y0044987D01*
X0187647Y0044987D01*
X0187620Y0044980D01*
X0187620Y0044980D01*
X0187177Y0044859D01*
X0187103Y0044839D01*
X0186622Y0044544D01*
X0186524Y0044436D01*
X0186262Y0044146D01*
X0186243Y0044125D01*
X0185997Y0043617D01*
X0185987Y0043558D01*
X0185906Y0043075D01*
X0185906Y0043075D01*
X0185903Y0043061D01*
X0185903Y0043012D01*
X0185983Y0042453D01*
X0186149Y0042087D01*
X0186205Y0041965D01*
X0186205Y0041965D01*
X0186216Y0041939D01*
X0186532Y0041573D01*
X0186566Y0041533D01*
X0186567Y0041533D01*
X0186585Y0041512D01*
X0187058Y0041205D01*
X0187599Y0041043D01*
X0187927Y0041041D01*
X0188136Y0041040D01*
X0188136Y0041040D01*
X0188163Y0041040D01*
X0188190Y0041047D01*
X0188190Y0041047D01*
X0188679Y0041187D01*
X0188679Y0041187D01*
X0188706Y0041195D01*
X0188730Y0041210D01*
X0188730Y0041210D01*
X0189155Y0041478D01*
X0189389Y0041537D01*
X0189612Y0041448D01*
X0189658Y0041403D01*
X0189716Y0041336D01*
X0189716Y0041336D01*
X0189734Y0041315D01*
X0190208Y0041008D01*
X0190749Y0040846D01*
X0191076Y0040844D01*
X0191285Y0040843D01*
X0191285Y0040843D01*
X0191313Y0040843D01*
X0191340Y0040850D01*
X0191340Y0040850D01*
X0191829Y0040990D01*
X0191829Y0040990D01*
X0191856Y0040998D01*
X0192333Y0041299D01*
X0192352Y0041320D01*
X0192352Y0041320D01*
X0192688Y0041701D01*
X0192688Y0041701D01*
X0192707Y0041722D01*
X0192947Y0042233D01*
X0192951Y0042260D01*
X0192951Y0042260D01*
X0193022Y0042717D01*
X0193033Y0042791D01*
X0193030Y0042818D01*
X0193030Y0042833D01*
X0193107Y0043061D01*
X0193144Y0043104D01*
X0193358Y0043318D01*
X0193572Y0043427D01*
X0193810Y0043389D01*
X0193981Y0043219D01*
X0194023Y0043042D01*
X0194023Y0036537D01*
X0194045Y0036425D01*
X0194062Y0036344D01*
X0194062Y0036344D01*
X0194069Y0036306D01*
X0194157Y0036174D01*
X0194180Y0036140D01*
X0194246Y0035908D01*
X0194162Y0035682D01*
X0193962Y0035548D01*
X0193856Y0035534D01*
X0184348Y0035534D01*
X0184119Y0035608D01*
G37*
G36*
X0282421Y0038879D02*
G01*
X0280544Y0040756D01*
X0280521Y0040781D01*
X0280423Y0040898D01*
X0280290Y0040975D01*
X0280262Y0040993D01*
X0280136Y0041081D01*
X0280103Y0041090D01*
X0280082Y0041100D01*
X0280061Y0041107D01*
X0280031Y0041124D01*
X0279881Y0041151D01*
X0279847Y0041158D01*
X0279733Y0041189D01*
X0279733Y0041189D01*
X0279700Y0041198D01*
X0279547Y0041185D01*
X0279513Y0041183D01*
X0248818Y0041183D01*
X0248589Y0041258D01*
X0248447Y0041452D01*
X0248447Y0041693D01*
X0248542Y0041849D01*
X0249220Y0042527D01*
X0249245Y0042550D01*
X0249312Y0042605D01*
X0249363Y0042648D01*
X0249439Y0042780D01*
X0249457Y0042809D01*
X0249545Y0042934D01*
X0249554Y0042967D01*
X0249564Y0042988D01*
X0249571Y0043010D01*
X0249589Y0043039D01*
X0249594Y0043073D01*
X0249594Y0043073D01*
X0249615Y0043190D01*
X0249622Y0043223D01*
X0249662Y0043371D01*
X0249659Y0043405D01*
X0249649Y0043523D01*
X0249647Y0043557D01*
X0249647Y0045760D01*
X0249722Y0045990D01*
X0249917Y0046131D01*
X0250157Y0046131D01*
X0250313Y0046036D01*
X0250746Y0045602D01*
X0250769Y0045577D01*
X0250832Y0045502D01*
X0250868Y0045460D01*
X0251000Y0045383D01*
X0251029Y0045365D01*
X0251061Y0045343D01*
X0251154Y0045277D01*
X0251187Y0045269D01*
X0251208Y0045259D01*
X0251230Y0045251D01*
X0251259Y0045234D01*
X0251293Y0045228D01*
X0251293Y0045228D01*
X0251410Y0045207D01*
X0251443Y0045200D01*
X0251558Y0045169D01*
X0251591Y0045160D01*
X0251625Y0045163D01*
X0251743Y0045174D01*
X0251777Y0045175D01*
X0273324Y0045175D01*
X0273553Y0045101D01*
X0273619Y0045040D01*
X0273673Y0044978D01*
X0273673Y0044978D01*
X0273691Y0044957D01*
X0274165Y0044650D01*
X0274705Y0044488D01*
X0275033Y0044486D01*
X0275242Y0044485D01*
X0275242Y0044485D01*
X0275270Y0044484D01*
X0275296Y0044492D01*
X0275296Y0044492D01*
X0275786Y0044632D01*
X0275786Y0044632D01*
X0275812Y0044640D01*
X0276290Y0044941D01*
X0276308Y0044962D01*
X0276308Y0044962D01*
X0276645Y0045343D01*
X0276645Y0045343D01*
X0276663Y0045364D01*
X0276709Y0045460D01*
X0276716Y0045475D01*
X0276881Y0045651D01*
X0277117Y0045696D01*
X0277344Y0045585D01*
X0279276Y0043653D01*
X0279299Y0043628D01*
X0279359Y0043558D01*
X0279398Y0043511D01*
X0279530Y0043435D01*
X0279559Y0043416D01*
X0279593Y0043392D01*
X0279684Y0043329D01*
X0279717Y0043320D01*
X0279738Y0043310D01*
X0279759Y0043302D01*
X0279789Y0043285D01*
X0279822Y0043279D01*
X0279822Y0043279D01*
X0279922Y0043262D01*
X0279940Y0043259D01*
X0279973Y0043251D01*
X0280088Y0043220D01*
X0280121Y0043212D01*
X0280155Y0043215D01*
X0280273Y0043225D01*
X0280307Y0043226D01*
X0283366Y0043226D01*
X0283595Y0043152D01*
X0283737Y0042957D01*
X0283756Y0042837D01*
X0283756Y0041130D01*
X0283681Y0040901D01*
X0283655Y0040869D01*
X0283642Y0040854D01*
X0283387Y0040573D01*
X0283160Y0040105D01*
X0283153Y0040090D01*
X0283141Y0040065D01*
X0283107Y0039865D01*
X0283050Y0039523D01*
X0283050Y0039523D01*
X0283047Y0039508D01*
X0283047Y0039460D01*
X0283082Y0039210D01*
X0283041Y0038973D01*
X0282868Y0038805D01*
X0282630Y0038771D01*
X0282421Y0038879D01*
G37*
G36*
X0224966Y0035608D02*
G01*
X0224825Y0035803D01*
X0224825Y0036044D01*
X0224966Y0036239D01*
X0225088Y0036298D01*
X0225531Y0036425D01*
X0225531Y0036425D01*
X0225558Y0036432D01*
X0226035Y0036733D01*
X0226054Y0036754D01*
X0226054Y0036754D01*
X0226391Y0037136D01*
X0226391Y0037136D01*
X0226409Y0037157D01*
X0226649Y0037667D01*
X0226653Y0037695D01*
X0226653Y0037695D01*
X0226697Y0037979D01*
X0226736Y0038225D01*
X0226732Y0038253D01*
X0226732Y0038253D01*
X0226674Y0038698D01*
X0226662Y0038785D01*
X0226651Y0038810D01*
X0226651Y0038810D01*
X0226458Y0039249D01*
X0226435Y0039301D01*
X0226225Y0039551D01*
X0226152Y0039639D01*
X0226061Y0039862D01*
X0226060Y0039890D01*
X0226060Y0042691D01*
X0226135Y0042920D01*
X0226329Y0043062D01*
X0226562Y0043064D01*
X0227017Y0042928D01*
X0227345Y0042926D01*
X0227553Y0042925D01*
X0227553Y0042925D01*
X0227581Y0042925D01*
X0227608Y0042932D01*
X0227608Y0042932D01*
X0227621Y0042936D01*
X0227771Y0042979D01*
X0228012Y0042970D01*
X0228154Y0042880D01*
X0229057Y0041977D01*
X0229166Y0041762D01*
X0229171Y0041701D01*
X0229171Y0039266D01*
X0229169Y0039232D01*
X0229159Y0039114D01*
X0229156Y0039080D01*
X0229165Y0039047D01*
X0229165Y0039047D01*
X0229196Y0038932D01*
X0229203Y0038899D01*
X0229219Y0038805D01*
X0229230Y0038748D01*
X0229247Y0038718D01*
X0229254Y0038697D01*
X0229264Y0038676D01*
X0229273Y0038643D01*
X0229361Y0038518D01*
X0229379Y0038489D01*
X0229456Y0038357D01*
X0229573Y0038258D01*
X0229598Y0038235D01*
X0231345Y0036488D01*
X0231368Y0036463D01*
X0231373Y0036457D01*
X0231466Y0036346D01*
X0231599Y0036269D01*
X0231627Y0036251D01*
X0231639Y0036243D01*
X0231784Y0036050D01*
X0231789Y0035809D01*
X0231651Y0035612D01*
X0231416Y0035534D01*
X0225195Y0035534D01*
X0224966Y0035608D01*
G37*
G36*
X0287602Y0035608D02*
G01*
X0287461Y0035803D01*
X0287461Y0036044D01*
X0287533Y0036174D01*
X0287545Y0036188D01*
X0287567Y0036213D01*
X0288787Y0037433D01*
X0288812Y0037456D01*
X0288929Y0037554D01*
X0288982Y0037645D01*
X0289006Y0037686D01*
X0289024Y0037715D01*
X0289112Y0037840D01*
X0289121Y0037873D01*
X0289131Y0037894D01*
X0289138Y0037916D01*
X0289155Y0037945D01*
X0289161Y0037979D01*
X0289161Y0037979D01*
X0289182Y0038096D01*
X0289189Y0038129D01*
X0289215Y0038225D01*
X0289229Y0038277D01*
X0289226Y0038311D01*
X0289216Y0038429D01*
X0289214Y0038463D01*
X0289214Y0039091D01*
X0289289Y0039320D01*
X0289328Y0039367D01*
X0289519Y0039557D01*
X0289734Y0039667D01*
X0289845Y0039668D01*
X0289999Y0039648D01*
X0289999Y0039648D01*
X0290024Y0039645D01*
X0290049Y0039648D01*
X0290564Y0039716D01*
X0290564Y0039716D01*
X0290590Y0039719D01*
X0290719Y0039773D01*
X0290896Y0039846D01*
X0291136Y0039865D01*
X0291341Y0039739D01*
X0291433Y0039516D01*
X0291435Y0039486D01*
X0291435Y0035923D01*
X0291360Y0035694D01*
X0291165Y0035553D01*
X0291045Y0035534D01*
X0287831Y0035534D01*
X0287602Y0035608D01*
G37*
G36*
X0246701Y0035608D02*
G01*
X0246559Y0035803D01*
X0246559Y0036044D01*
X0246706Y0036243D01*
X0246718Y0036251D01*
X0246747Y0036269D01*
X0246879Y0036346D01*
X0246901Y0036372D01*
X0246978Y0036463D01*
X0247001Y0036488D01*
X0249019Y0038506D01*
X0249233Y0038615D01*
X0249294Y0038620D01*
X0278894Y0038620D01*
X0279123Y0038546D01*
X0279170Y0038506D01*
X0281463Y0036213D01*
X0281486Y0036188D01*
X0281497Y0036174D01*
X0281588Y0035951D01*
X0281529Y0035717D01*
X0281345Y0035562D01*
X0281199Y0035534D01*
X0246930Y0035534D01*
X0246701Y0035608D01*
G37*
X0349606Y0338681D02*
G01*
G75*
G36*
X0362008Y0303461D02*
X0361882Y0304093D01*
X0361403Y0304809D01*
X0361247Y0304913D01*
X0361247Y0309411D01*
X0361140Y0309949D01*
X0360836Y0310405D01*
X0360461Y0310780D01*
X0360651Y0311425D01*
X0361129Y0311744D01*
X0361520Y0312330D01*
X0361658Y0313021D01*
X0361520Y0313712D01*
X0361129Y0314298D01*
X0360543Y0314690D01*
X0359852Y0314827D01*
X0359160Y0314690D01*
X0358885Y0314506D01*
X0358294Y0314822D01*
X0358294Y0316253D01*
X0358577Y0316536D01*
X0358882Y0316992D01*
X0358989Y0317529D01*
X0358989Y0321222D01*
X0359253Y0321617D01*
X0359390Y0322308D01*
X0359253Y0322999D01*
X0358861Y0323585D01*
X0358275Y0323977D01*
X0357584Y0324114D01*
X0356893Y0323977D01*
X0356307Y0323585D01*
X0355915Y0322999D01*
X0355778Y0322308D01*
X0355915Y0321617D01*
X0356179Y0321222D01*
X0356179Y0318111D01*
X0355896Y0317828D01*
X0355591Y0317372D01*
X0355484Y0316835D01*
X0355484Y0312364D01*
X0355591Y0311826D01*
X0355896Y0311371D01*
X0358437Y0308830D01*
X0358437Y0304913D01*
X0358281Y0304809D01*
X0357802Y0304093D01*
X0357634Y0303248D01*
X0354570Y0303248D01*
X0354402Y0304093D01*
X0353923Y0304809D01*
X0353207Y0305288D01*
X0352362Y0305456D01*
X0351517Y0305288D01*
X0350801Y0304809D01*
X0350322Y0304093D01*
X0350197Y0303461D01*
X0349606Y0303520D01*
X0349606Y0338681D01*
X0353828Y0338681D01*
X0354145Y0338188D01*
X0353911Y0337633D01*
X0353424Y0337730D01*
X0352733Y0337592D01*
X0352147Y0337201D01*
X0351755Y0336615D01*
X0351618Y0335924D01*
X0351755Y0335232D01*
X0352147Y0334646D01*
X0352733Y0334255D01*
X0353424Y0334117D01*
X0354115Y0334255D01*
X0354701Y0334646D01*
X0354982Y0335066D01*
X0355224Y0335268D01*
X0355730Y0335405D01*
X0356299Y0335292D01*
X0357144Y0335460D01*
X0357660Y0335805D01*
X0358071Y0335893D01*
X0358481Y0335805D01*
X0358997Y0335460D01*
X0359842Y0335292D01*
X0360687Y0335460D01*
X0361403Y0335939D01*
X0361882Y0336655D01*
X0362008Y0337287D01*
X0362598Y0337228D01*
X0362598Y0303519D01*
X0362008Y0303461D01*
D02*
G37*
%LPC*%
G36*
X0354267Y0327815D02*
X0354129Y0328506D01*
X0353738Y0329092D01*
X0353152Y0329484D01*
X0352460Y0329621D01*
X0351769Y0329484D01*
X0351183Y0329092D01*
X0350791Y0328506D01*
X0350654Y0327815D01*
X0350791Y0327124D01*
X0351183Y0326538D01*
X0351769Y0326146D01*
X0352460Y0326008D01*
X0353152Y0326146D01*
X0353738Y0326538D01*
X0354129Y0327124D01*
X0354267Y0327815D01*
D02*
G37*
%LPD*%
D28*
X0362204Y0320374D02*
D03*
X0350000Y0320374D02*
D03*
D27*
X0352067Y0338287D02*
D03*
D83*
X0359842Y0309411D02*
X0359842Y0303248D01*
X0356889Y0316835D02*
X0356889Y0312364D01*
X0359842Y0309411D01*
X0357584Y0322308D02*
X0357584Y0317529D01*
X0356889Y0316835D01*
D26*
X0359842Y0303248D02*
D03*
X0356102Y0303248D02*
D03*
X0357584Y0322308D02*
D03*
X0350891Y0337441D02*
D03*
X0355453Y0324739D02*
D03*
X0356509Y0327478D02*
D03*
X0363511Y0338702D02*
G01*
G75*
G36*
X0375913Y0303482D02*
X0375787Y0304114D01*
X0375308Y0304830D01*
X0375152Y0304934D01*
X0375152Y0309432D01*
X0375045Y0309970D01*
X0374741Y0310426D01*
X0374366Y0310801D01*
X0374556Y0311446D01*
X0375034Y0311765D01*
X0375425Y0312351D01*
X0375563Y0313042D01*
X0375425Y0313733D01*
X0375034Y0314319D01*
X0374448Y0314711D01*
X0373757Y0314848D01*
X0373065Y0314711D01*
X0372790Y0314527D01*
X0372199Y0314843D01*
X0372199Y0316274D01*
X0372482Y0316557D01*
X0372787Y0317013D01*
X0372894Y0317550D01*
X0372894Y0321243D01*
X0373158Y0321638D01*
X0373295Y0322329D01*
X0373158Y0323020D01*
X0372766Y0323606D01*
X0372180Y0323998D01*
X0371489Y0324135D01*
X0370798Y0323998D01*
X0370212Y0323606D01*
X0369820Y0323020D01*
X0369683Y0322329D01*
X0369820Y0321638D01*
X0370084Y0321243D01*
X0370084Y0318132D01*
X0369801Y0317849D01*
X0369496Y0317393D01*
X0369389Y0316856D01*
X0369389Y0312385D01*
X0369496Y0311847D01*
X0369801Y0311392D01*
X0372342Y0308851D01*
X0372342Y0304934D01*
X0372186Y0304830D01*
X0371707Y0304114D01*
X0371539Y0303269D01*
X0368475Y0303269D01*
X0368307Y0304114D01*
X0367828Y0304830D01*
X0367112Y0305309D01*
X0366267Y0305477D01*
X0365422Y0305309D01*
X0364706Y0304830D01*
X0364227Y0304114D01*
X0364102Y0303482D01*
X0363511Y0303541D01*
X0363511Y0338702D01*
X0367733Y0338702D01*
X0368050Y0338209D01*
X0367816Y0337654D01*
X0367329Y0337751D01*
X0366638Y0337613D01*
X0366052Y0337222D01*
X0365660Y0336636D01*
X0365523Y0335945D01*
X0365660Y0335253D01*
X0366052Y0334667D01*
X0366638Y0334276D01*
X0367329Y0334138D01*
X0368020Y0334276D01*
X0368606Y0334667D01*
X0368887Y0335087D01*
X0369129Y0335289D01*
X0369635Y0335426D01*
X0370204Y0335313D01*
X0371049Y0335481D01*
X0371565Y0335826D01*
X0371976Y0335914D01*
X0372386Y0335826D01*
X0372902Y0335481D01*
X0373747Y0335313D01*
X0374592Y0335481D01*
X0375308Y0335960D01*
X0375787Y0336676D01*
X0375913Y0337308D01*
X0376503Y0337249D01*
X0376503Y0303540D01*
X0375913Y0303482D01*
D02*
G37*
%LPC*%
G36*
X0368172Y0327836D02*
X0368034Y0328527D01*
X0367643Y0329113D01*
X0367057Y0329505D01*
X0366365Y0329642D01*
X0365674Y0329505D01*
X0365088Y0329113D01*
X0364696Y0328527D01*
X0364559Y0327836D01*
X0364696Y0327145D01*
X0365088Y0326559D01*
X0365674Y0326167D01*
X0366365Y0326029D01*
X0367057Y0326167D01*
X0367643Y0326559D01*
X0368034Y0327145D01*
X0368172Y0327836D01*
D02*
G37*
%LPD*%
D28*
X0376109Y0320395D02*
D03*
X0363905Y0320395D02*
D03*
D27*
X0365972Y0338308D02*
D03*
D83*
X0373747Y0309432D02*
X0373747Y0303269D01*
X0370794Y0316856D02*
X0370794Y0312385D01*
X0373747Y0309432D01*
X0371489Y0322329D02*
X0371489Y0317550D01*
X0370794Y0316856D01*
D26*
X0373747Y0303269D02*
D03*
X0370007Y0303269D02*
D03*
X0371489Y0322329D02*
D03*
X0364796Y0337462D02*
D03*
X0369358Y0324760D02*
D03*
X0370414Y0327499D02*
D03*
M02*
