G75*
G70*
%OFA0B0*%
%FSLAX25Y25*%
%IPPOS*%
%LPD*%
%AMOC8*
5,1,8,0,0,1.08239X$1,22.5*
%
%AMM12*
21,1,0.019680,0.019680,0.000000,0.000000,0.000000*
21,1,0.015750,0.023620,0.000000,0.000000,0.000000*
1,1,0.003940,0.007870,-0.009840*
1,1,0.003940,-0.007870,-0.009840*
1,1,0.003940,-0.007870,0.009840*
1,1,0.003940,0.007870,0.009840*
%
%AMM13*
21,1,0.019680,0.019680,0.000000,0.000000,270.000000*
21,1,0.015750,0.023620,0.000000,0.000000,270.000000*
1,1,0.003940,-0.009840,-0.007870*
1,1,0.003940,-0.009840,0.007870*
1,1,0.003940,0.009840,0.007870*
1,1,0.003940,0.009840,-0.007870*
%
%AMM139*
21,1,0.035830,0.026770,-0.000000,-0.000000,180.000000*
21,1,0.029130,0.033470,-0.000000,-0.000000,180.000000*
1,1,0.006690,-0.014570,0.013390*
1,1,0.006690,0.014570,0.013390*
1,1,0.006690,0.014570,-0.013390*
1,1,0.006690,-0.014570,-0.013390*
%
%AMM140*
21,1,0.070870,0.036220,-0.000000,-0.000000,270.000000*
21,1,0.061810,0.045280,-0.000000,-0.000000,270.000000*
1,1,0.009060,-0.018110,-0.030910*
1,1,0.009060,-0.018110,0.030910*
1,1,0.009060,0.018110,0.030910*
1,1,0.009060,0.018110,-0.030910*
%
%AMM143*
21,1,0.023620,0.018900,-0.000000,-0.000000,270.000000*
21,1,0.018900,0.023620,-0.000000,-0.000000,270.000000*
1,1,0.004720,-0.009450,-0.009450*
1,1,0.004720,-0.009450,0.009450*
1,1,0.004720,0.009450,0.009450*
1,1,0.004720,0.009450,-0.009450*
%
%AMM144*
21,1,0.019680,0.019680,-0.000000,-0.000000,180.000000*
21,1,0.015750,0.023620,-0.000000,-0.000000,180.000000*
1,1,0.003940,-0.007870,0.009840*
1,1,0.003940,0.007870,0.009840*
1,1,0.003940,0.007870,-0.009840*
1,1,0.003940,-0.007870,-0.009840*
%
%AMM145*
21,1,0.019680,0.019680,-0.000000,-0.000000,90.000000*
21,1,0.015750,0.023620,-0.000000,-0.000000,90.000000*
1,1,0.003940,0.009840,0.007870*
1,1,0.003940,0.009840,-0.007870*
1,1,0.003940,-0.009840,-0.007870*
1,1,0.003940,-0.009840,0.007870*
%
%AMM159*
21,1,0.106300,0.050390,-0.000000,-0.000000,270.000000*
21,1,0.093700,0.062990,-0.000000,-0.000000,270.000000*
1,1,0.012600,-0.025200,-0.046850*
1,1,0.012600,-0.025200,0.046850*
1,1,0.012600,0.025200,0.046850*
1,1,0.012600,0.025200,-0.046850*
%
%AMM160*
21,1,0.033470,0.026770,-0.000000,-0.000000,90.000000*
21,1,0.026770,0.033470,-0.000000,-0.000000,90.000000*
1,1,0.006690,0.013390,0.013390*
1,1,0.006690,0.013390,-0.013390*
1,1,0.006690,-0.013390,-0.013390*
1,1,0.006690,-0.013390,0.013390*
%
%AMM161*
21,1,0.023620,0.018900,-0.000000,-0.000000,0.000000*
21,1,0.018900,0.023620,-0.000000,-0.000000,0.000000*
1,1,0.004720,0.009450,-0.009450*
1,1,0.004720,-0.009450,-0.009450*
1,1,0.004720,-0.009450,0.009450*
1,1,0.004720,0.009450,0.009450*
%
%AMM162*
21,1,0.122050,0.075590,-0.000000,-0.000000,0.000000*
21,1,0.103150,0.094490,-0.000000,-0.000000,0.000000*
1,1,0.018900,0.051580,-0.037800*
1,1,0.018900,-0.051580,-0.037800*
1,1,0.018900,-0.051580,0.037800*
1,1,0.018900,0.051580,0.037800*
%
%AMM163*
21,1,0.118110,0.083460,-0.000000,-0.000000,180.000000*
21,1,0.097240,0.104330,-0.000000,-0.000000,180.000000*
1,1,0.020870,-0.048620,0.041730*
1,1,0.020870,0.048620,0.041730*
1,1,0.020870,0.048620,-0.041730*
1,1,0.020870,-0.048620,-0.041730*
%
%AMM28*
21,1,0.033470,0.026770,0.000000,0.000000,270.000000*
21,1,0.026770,0.033470,0.000000,0.000000,270.000000*
1,1,0.006690,-0.013390,-0.013390*
1,1,0.006690,-0.013390,0.013390*
1,1,0.006690,0.013390,0.013390*
1,1,0.006690,0.013390,-0.013390*
%
%AMM29*
21,1,0.023620,0.018900,0.000000,0.000000,180.000000*
21,1,0.018900,0.023620,0.000000,0.000000,180.000000*
1,1,0.004720,-0.009450,0.009450*
1,1,0.004720,0.009450,0.009450*
1,1,0.004720,0.009450,-0.009450*
1,1,0.004720,-0.009450,-0.009450*
%
%AMM37*
21,1,0.025590,0.026380,0.000000,0.000000,270.000000*
21,1,0.020470,0.031500,0.000000,0.000000,270.000000*
1,1,0.005120,-0.013190,-0.010240*
1,1,0.005120,-0.013190,0.010240*
1,1,0.005120,0.013190,0.010240*
1,1,0.005120,0.013190,-0.010240*
%
%AMM38*
21,1,0.017720,0.027950,0.000000,0.000000,270.000000*
21,1,0.014170,0.031500,0.000000,0.000000,270.000000*
1,1,0.003540,-0.013980,-0.007090*
1,1,0.003540,-0.013980,0.007090*
1,1,0.003540,0.013980,0.007090*
1,1,0.003540,0.013980,-0.007090*
%
%AMM41*
21,1,0.027560,0.018900,0.000000,0.000000,90.000000*
21,1,0.022840,0.023620,0.000000,0.000000,90.000000*
1,1,0.004720,0.009450,0.011420*
1,1,0.004720,0.009450,-0.011420*
1,1,0.004720,-0.009450,-0.011420*
1,1,0.004720,-0.009450,0.011420*
%
%AMM43*
21,1,0.027560,0.018900,0.000000,0.000000,180.000000*
21,1,0.022840,0.023620,0.000000,0.000000,180.000000*
1,1,0.004720,-0.011420,0.009450*
1,1,0.004720,0.011420,0.009450*
1,1,0.004720,0.011420,-0.009450*
1,1,0.004720,-0.011420,-0.009450*
%
%AMM45*
21,1,0.035430,0.030320,0.000000,0.000000,270.000000*
21,1,0.028350,0.037400,0.000000,0.000000,270.000000*
1,1,0.007090,-0.015160,-0.014170*
1,1,0.007090,-0.015160,0.014170*
1,1,0.007090,0.015160,0.014170*
1,1,0.007090,0.015160,-0.014170*
%
%AMM48*
21,1,0.027560,0.030710,0.000000,0.000000,0.000000*
21,1,0.022050,0.036220,0.000000,0.000000,0.000000*
1,1,0.005510,0.011020,-0.015350*
1,1,0.005510,-0.011020,-0.015350*
1,1,0.005510,-0.011020,0.015350*
1,1,0.005510,0.011020,0.015350*
%
%AMM69*
21,1,0.033470,0.026770,0.000000,0.000000,90.000000*
21,1,0.026770,0.033470,0.000000,0.000000,90.000000*
1,1,0.006690,0.013390,0.013390*
1,1,0.006690,0.013390,-0.013390*
1,1,0.006690,-0.013390,-0.013390*
1,1,0.006690,-0.013390,0.013390*
%
%AMM7*
21,1,0.035830,0.026770,0.000000,0.000000,0.000000*
21,1,0.029130,0.033470,0.000000,0.000000,0.000000*
1,1,0.006690,0.014570,-0.013390*
1,1,0.006690,-0.014570,-0.013390*
1,1,0.006690,-0.014570,0.013390*
1,1,0.006690,0.014570,0.013390*
%
%AMM70*
21,1,0.025590,0.026380,0.000000,0.000000,0.000000*
21,1,0.020470,0.031500,0.000000,0.000000,0.000000*
1,1,0.005120,0.010240,-0.013190*
1,1,0.005120,-0.010240,-0.013190*
1,1,0.005120,-0.010240,0.013190*
1,1,0.005120,0.010240,0.013190*
%
%AMM71*
21,1,0.017720,0.027950,0.000000,0.000000,0.000000*
21,1,0.014170,0.031500,0.000000,0.000000,0.000000*
1,1,0.003540,0.007090,-0.013980*
1,1,0.003540,-0.007090,-0.013980*
1,1,0.003540,-0.007090,0.013980*
1,1,0.003540,0.007090,0.013980*
%
%AMM72*
21,1,0.078740,0.045670,0.000000,0.000000,180.000000*
21,1,0.067320,0.057090,0.000000,0.000000,180.000000*
1,1,0.011420,-0.033660,0.022840*
1,1,0.011420,0.033660,0.022840*
1,1,0.011420,0.033660,-0.022840*
1,1,0.011420,-0.033660,-0.022840*
%
%AMM73*
21,1,0.059060,0.020470,0.000000,0.000000,180.000000*
21,1,0.053940,0.025590,0.000000,0.000000,180.000000*
1,1,0.005120,-0.026970,0.010240*
1,1,0.005120,0.026970,0.010240*
1,1,0.005120,0.026970,-0.010240*
1,1,0.005120,-0.026970,-0.010240*
%
%AMM74*
21,1,0.035430,0.030320,0.000000,0.000000,180.000000*
21,1,0.028350,0.037400,0.000000,0.000000,180.000000*
1,1,0.007090,-0.014170,0.015160*
1,1,0.007090,0.014170,0.015160*
1,1,0.007090,0.014170,-0.015160*
1,1,0.007090,-0.014170,-0.015160*
%
%AMM75*
21,1,0.012600,0.028980,0.000000,0.000000,180.000000*
21,1,0.010080,0.031500,0.000000,0.000000,180.000000*
1,1,0.002520,-0.005040,0.014490*
1,1,0.002520,0.005040,0.014490*
1,1,0.002520,0.005040,-0.014490*
1,1,0.002520,-0.005040,-0.014490*
%
%AMM76*
21,1,0.070870,0.036220,0.000000,0.000000,0.000000*
21,1,0.061810,0.045280,0.000000,0.000000,0.000000*
1,1,0.009060,0.030910,-0.018110*
1,1,0.009060,-0.030910,-0.018110*
1,1,0.009060,-0.030910,0.018110*
1,1,0.009060,0.030910,0.018110*
%
%AMM77*
21,1,0.027560,0.049610,0.000000,0.000000,0.000000*
21,1,0.022050,0.055120,0.000000,0.000000,0.000000*
1,1,0.005510,0.011020,-0.024800*
1,1,0.005510,-0.011020,-0.024800*
1,1,0.005510,-0.011020,0.024800*
1,1,0.005510,0.011020,0.024800*
%
%AMM78*
21,1,0.027560,0.030710,0.000000,0.000000,90.000000*
21,1,0.022050,0.036220,0.000000,0.000000,90.000000*
1,1,0.005510,0.015350,0.011020*
1,1,0.005510,0.015350,-0.011020*
1,1,0.005510,-0.015350,-0.011020*
1,1,0.005510,-0.015350,0.011020*
%
%AMM8*
21,1,0.070870,0.036220,0.000000,0.000000,90.000000*
21,1,0.061810,0.045280,0.000000,0.000000,90.000000*
1,1,0.009060,0.018110,0.030910*
1,1,0.009060,0.018110,-0.030910*
1,1,0.009060,-0.018110,-0.030910*
1,1,0.009060,-0.018110,0.030910*
%
%AMM9*
21,1,0.033470,0.026770,0.000000,0.000000,0.000000*
21,1,0.026770,0.033470,0.000000,0.000000,0.000000*
1,1,0.006690,0.013390,-0.013390*
1,1,0.006690,-0.013390,-0.013390*
1,1,0.006690,-0.013390,0.013390*
1,1,0.006690,0.013390,0.013390*
%
%ADD112M28*%
%ADD113M29*%
%ADD114O,0.01968X0.08661*%
%ADD123M37*%
%ADD124M38*%
%ADD130M41*%
%ADD134M43*%
%ADD136M45*%
%ADD140M48*%
%ADD179M69*%
%ADD180M70*%
%ADD181M71*%
%ADD182M72*%
%ADD183M73*%
%ADD184M74*%
%ADD185R,0.01378X0.01476*%
%ADD187M75*%
%ADD188O,0.04961X0.00984*%
%ADD189M76*%
%ADD190R,0.09449X0.06693*%
%ADD191R,0.01476X0.01378*%
%ADD192M77*%
%ADD193R,0.03937X0.04331*%
%ADD194M78*%
%ADD304M139*%
%ADD305M140*%
%ADD308M143*%
%ADD309M144*%
%ADD310M145*%
%ADD324M159*%
%ADD325M160*%
%ADD326M161*%
%ADD327M162*%
%ADD328M163*%
%ADD34R,0.00787X0.14567*%
%ADD35R,0.00787X0.01575*%
%ADD351R,0.01772X0.05709*%
%ADD352R,0.02559X0.04803*%
%ADD36R,0.00787X0.06299*%
%ADD37R,0.00787X0.38189*%
%ADD38R,0.00787X0.09055*%
%ADD39R,0.05512X0.00787*%
%ADD40R,0.25197X0.00787*%
%ADD41R,0.06693X0.00787*%
%ADD42R,0.12992X0.00787*%
%ADD43R,0.00787X0.27559*%
%ADD44R,0.00787X0.12992*%
%ADD45R,0.00787X0.24803*%
%ADD83M7*%
%ADD84M8*%
%ADD85M9*%
%ADD88M12*%
%ADD89M13*%
X0000000Y0000000D02*
%LPD*%
G01*
X0600012Y0330500D02*
G01*
G75*
D304*
X0570097Y0254122D02*
D03*
X0583089Y0254122D02*
D03*
D305*
X0550237Y0253728D02*
D03*
X0561654Y0253728D02*
D03*
X0550237Y0261760D02*
D03*
X0561654Y0261760D02*
D03*
D308*
X0587610Y0275776D02*
D03*
X0587610Y0271839D02*
D03*
X0590957Y0261209D02*
D03*
X0582295Y0261209D02*
D03*
X0591744Y0266457D02*
D03*
X0583083Y0266457D02*
D03*
D309*
X0579857Y0319083D02*
D03*
X0583401Y0319083D02*
D03*
X0570466Y0282350D02*
D03*
X0566922Y0282350D02*
D03*
X0578463Y0267245D02*
D03*
X0574920Y0267245D02*
D03*
X0571239Y0319083D02*
D03*
X0574782Y0319083D02*
D03*
X0591744Y0315146D02*
D03*
X0588201Y0315146D02*
D03*
D310*
X0566259Y0265670D02*
D03*
X0566259Y0262126D02*
D03*
X0587026Y0253268D02*
D03*
X0587026Y0256812D02*
D03*
X0538262Y0311585D02*
D03*
X0538262Y0308041D02*
D03*
D324*
X0550799Y0274201D02*
D03*
X0561823Y0274201D02*
D03*
D325*
X0583477Y0278524D02*
D03*
X0583477Y0272304D02*
D03*
X0569383Y0278524D02*
D03*
X0569383Y0272304D02*
D03*
X0574074Y0278524D02*
D03*
X0574074Y0272304D02*
D03*
X0578766Y0278524D02*
D03*
X0578766Y0272304D02*
D03*
X0570564Y0266280D02*
D03*
X0570564Y0260059D02*
D03*
D326*
X0580054Y0315146D02*
D03*
X0583991Y0315146D02*
D03*
X0575373Y0315146D02*
D03*
X0571436Y0315146D02*
D03*
X0578660Y0261209D02*
D03*
X0574723Y0261209D02*
D03*
X0555727Y0282823D02*
D03*
X0551790Y0282823D02*
D03*
X0547951Y0320264D02*
D03*
X0551889Y0320264D02*
D03*
D114*
X0574940Y0308386D02*
D03*
X0579940Y0308386D02*
D03*
X0584940Y0308386D02*
D03*
X0589940Y0308386D02*
D03*
X0574940Y0285749D02*
D03*
X0579940Y0285749D02*
D03*
X0584940Y0285749D02*
D03*
X0589940Y0285749D02*
D03*
X0551873Y0313669D02*
D03*
X0556873Y0313669D02*
D03*
X0561873Y0313669D02*
D03*
X0566873Y0313669D02*
D03*
X0551873Y0290244D02*
D03*
X0556873Y0290244D02*
D03*
X0561873Y0290244D02*
D03*
X0566873Y0290244D02*
D03*
D327*
X0582440Y0297068D02*
D03*
D328*
X0559373Y0301957D02*
D03*
X0250202Y0106073D02*
G01*
G75*
D42*
X0303549Y0247412D02*
D03*
D41*
X0289769Y0247412D02*
D03*
D44*
X0383667Y0141309D02*
D03*
D39*
X0341934Y0247412D02*
D03*
X0257682Y0106467D02*
D03*
D40*
X0371462Y0106467D02*
D03*
X0265950Y0247412D02*
D03*
D37*
X0250596Y0142097D02*
D03*
D38*
X0250596Y0110601D02*
D03*
D36*
X0250596Y0195837D02*
D03*
D45*
X0383667Y0118475D02*
D03*
D43*
X0383667Y0234026D02*
D03*
D34*
X0250596Y0213356D02*
D03*
X0250596Y0237372D02*
D03*
D35*
X0250596Y0225364D02*
D03*
X0383667Y0199774D02*
D03*
D123*
X0302171Y0191112D02*
D03*
X0302171Y0165817D02*
D03*
X0302171Y0181073D02*
D03*
X0302171Y0175857D02*
D03*
X0295084Y0206368D02*
D03*
X0302171Y0206368D02*
D03*
X0302171Y0196329D02*
D03*
X0295084Y0196329D02*
D03*
X0295084Y0165817D02*
D03*
X0295084Y0175857D02*
D03*
X0295084Y0181073D02*
D03*
X0295084Y0191112D02*
D03*
D124*
X0302171Y0187667D02*
D03*
X0302171Y0172412D02*
D03*
X0302171Y0184518D02*
D03*
X0302171Y0169262D02*
D03*
X0302171Y0199774D02*
D03*
X0302171Y0202923D02*
D03*
X0295084Y0202923D02*
D03*
X0295084Y0199774D02*
D03*
X0295084Y0172412D02*
D03*
X0295084Y0169262D02*
D03*
X0295084Y0187667D02*
D03*
X0295084Y0184518D02*
D03*
D130*
X0304139Y0244262D02*
D03*
X0300202Y0244262D02*
D03*
X0298627Y0240719D02*
D03*
X0294690Y0240719D02*
D03*
X0306501Y0223396D02*
D03*
X0302564Y0223396D02*
D03*
X0335154Y0165694D02*
D03*
X0331217Y0165694D02*
D03*
X0326958Y0165694D02*
D03*
X0323021Y0165694D02*
D03*
X0283636Y0198161D02*
D03*
X0279699Y0198161D02*
D03*
X0283636Y0194438D02*
D03*
X0279699Y0194438D02*
D03*
X0281220Y0231270D02*
D03*
X0285157Y0231270D02*
D03*
X0369854Y0242203D02*
D03*
X0334106Y0241964D02*
D03*
X0349021Y0165694D02*
D03*
X0316737Y0219852D02*
D03*
X0316737Y0215522D02*
D03*
X0313307Y0211303D02*
D03*
X0302030Y0211358D02*
D03*
X0322446Y0181698D02*
D03*
X0313657Y0181698D02*
D03*
X0309720Y0173213D02*
D03*
X0374637Y0143347D02*
D03*
X0349021Y0161191D02*
D03*
X0308076Y0244262D02*
D03*
X0294690Y0211267D02*
D03*
X0273037Y0212665D02*
D03*
X0258972Y0212665D02*
D03*
X0273037Y0208435D02*
D03*
X0258972Y0208435D02*
D03*
X0298675Y0161527D02*
D03*
X0254139Y0159616D02*
D03*
X0320674Y0219852D02*
D03*
X0309720Y0181698D02*
D03*
X0318509Y0181698D02*
D03*
X0318509Y0177210D02*
D03*
X0322446Y0177210D02*
D03*
X0376580Y0157254D02*
D03*
X0372643Y0157254D02*
D03*
X0370700Y0143347D02*
D03*
X0285255Y0214171D02*
D03*
X0281318Y0214171D02*
D03*
X0255034Y0212665D02*
D03*
X0298627Y0211267D02*
D03*
X0313657Y0173213D02*
D03*
X0305967Y0211358D02*
D03*
X0309370Y0211303D02*
D03*
X0269100Y0208435D02*
D03*
X0294738Y0161527D02*
D03*
X0258076Y0159616D02*
D03*
X0330169Y0241964D02*
D03*
X0304139Y0244262D02*
D03*
X0277367Y0219238D02*
D03*
X0273430Y0219238D02*
D03*
X0269100Y0212665D02*
D03*
X0352958Y0161191D02*
D03*
X0352958Y0165694D02*
D03*
X0320674Y0215522D02*
D03*
X0365917Y0242203D02*
D03*
X0356601Y0242203D02*
D03*
X0360538Y0242203D02*
D03*
X0262909Y0208435D02*
D03*
X0254139Y0163553D02*
D03*
X0258076Y0163553D02*
D03*
X0254139Y0175955D02*
D03*
X0258076Y0175955D02*
D03*
X0254139Y0180089D02*
D03*
X0258076Y0180089D02*
D03*
X0254139Y0188357D02*
D03*
X0258076Y0188357D02*
D03*
X0254139Y0184223D02*
D03*
X0258076Y0184223D02*
D03*
X0254139Y0192490D02*
D03*
X0258076Y0192490D02*
D03*
X0254139Y0171821D02*
D03*
X0258076Y0171821D02*
D03*
X0254139Y0167687D02*
D03*
X0258076Y0167687D02*
D03*
D134*
X0309129Y0195049D02*
D03*
X0309129Y0199282D02*
D03*
X0354533Y0111191D02*
D03*
X0349808Y0111191D02*
D03*
X0345084Y0111191D02*
D03*
X0340360Y0111191D02*
D03*
X0270281Y0239538D02*
D03*
X0274415Y0239538D02*
D03*
X0365595Y0147317D02*
D03*
X0365595Y0151254D02*
D03*
X0254666Y0238356D02*
D03*
X0254666Y0234420D02*
D03*
X0309129Y0203219D02*
D03*
X0309129Y0191112D02*
D03*
X0361423Y0146821D02*
D03*
X0361423Y0150758D02*
D03*
X0336650Y0119045D02*
D03*
X0336650Y0122982D02*
D03*
X0340360Y0122982D02*
D03*
X0340360Y0119045D02*
D03*
X0340360Y0133632D02*
D03*
X0340360Y0129695D02*
D03*
X0340360Y0115128D02*
D03*
X0345084Y0115128D02*
D03*
X0354533Y0115128D02*
D03*
X0349808Y0115128D02*
D03*
X0255701Y0148322D02*
D03*
X0255701Y0152259D02*
D03*
X0305911Y0151349D02*
D03*
X0305911Y0147412D02*
D03*
X0305911Y0141112D02*
D03*
X0305911Y0137175D02*
D03*
X0277958Y0151349D02*
D03*
X0277958Y0147412D02*
D03*
X0301383Y0125955D02*
D03*
X0301383Y0129892D02*
D03*
X0272053Y0125955D02*
D03*
X0272053Y0129892D02*
D03*
X0259257Y0125955D02*
D03*
X0259257Y0129892D02*
D03*
X0276149Y0119045D02*
D03*
X0276149Y0115108D02*
D03*
X0254533Y0118671D02*
D03*
X0254533Y0122608D02*
D03*
X0254730Y0115522D02*
D03*
X0254730Y0111585D02*
D03*
X0254666Y0226830D02*
D03*
X0254666Y0230767D02*
D03*
X0270281Y0243475D02*
D03*
X0274415Y0243475D02*
D03*
X0278155Y0129892D02*
D03*
X0278155Y0125955D02*
D03*
X0282485Y0129892D02*
D03*
X0282485Y0125955D02*
D03*
X0290950Y0129892D02*
D03*
X0290950Y0125955D02*
D03*
X0295116Y0115108D02*
D03*
X0295116Y0119045D02*
D03*
X0333863Y0147412D02*
D03*
X0333863Y0151349D02*
D03*
X0263588Y0129892D02*
D03*
X0263588Y0125955D02*
D03*
X0313959Y0115108D02*
D03*
X0313959Y0119045D02*
D03*
X0309848Y0129892D02*
D03*
X0309848Y0125955D02*
D03*
X0297053Y0129892D02*
D03*
X0297053Y0125955D02*
D03*
X0332939Y0115108D02*
D03*
X0332939Y0119045D02*
D03*
X0328746Y0129892D02*
D03*
X0328746Y0125955D02*
D03*
X0320281Y0129892D02*
D03*
X0320281Y0125955D02*
D03*
X0315950Y0129892D02*
D03*
X0315950Y0125955D02*
D03*
X0333727Y0133632D02*
D03*
X0333727Y0129695D02*
D03*
D136*
X0289759Y0236329D02*
D03*
X0282019Y0226854D02*
D03*
X0263686Y0203484D02*
D03*
D140*
X0337407Y0234912D02*
D03*
X0331107Y0234912D02*
D03*
X0300793Y0236290D02*
D03*
X0294493Y0236290D02*
D03*
X0300793Y0231664D02*
D03*
X0294493Y0231664D02*
D03*
D136*
X0272938Y0199743D02*
D03*
X0282019Y0219374D02*
D03*
X0291271Y0223114D02*
D03*
X0289759Y0243809D02*
D03*
X0280507Y0240069D02*
D03*
X0263686Y0196003D02*
D03*
D179*
X0298233Y0226467D02*
D03*
X0298233Y0220246D02*
D03*
D180*
X0327663Y0155679D02*
D03*
X0327663Y0148593D02*
D03*
X0317623Y0148593D02*
D03*
X0317623Y0155679D02*
D03*
X0299710Y0148593D02*
D03*
X0271757Y0148593D02*
D03*
X0289671Y0144656D02*
D03*
X0344789Y0119459D02*
D03*
X0344789Y0126545D02*
D03*
X0354828Y0126545D02*
D03*
X0354828Y0119459D02*
D03*
X0261718Y0137569D02*
D03*
X0261718Y0144656D02*
D03*
X0271757Y0144656D02*
D03*
X0271757Y0137569D02*
D03*
X0271757Y0155679D02*
D03*
X0261718Y0148593D02*
D03*
X0261718Y0155679D02*
D03*
X0289671Y0137569D02*
D03*
X0299710Y0144656D02*
D03*
X0299710Y0137569D02*
D03*
X0299710Y0155679D02*
D03*
X0289671Y0148593D02*
D03*
X0289671Y0155679D02*
D03*
X0290655Y0113750D02*
D03*
X0290655Y0120837D02*
D03*
X0280615Y0120837D02*
D03*
X0280615Y0113750D02*
D03*
X0271757Y0113750D02*
D03*
X0271757Y0120837D02*
D03*
X0261718Y0120837D02*
D03*
X0261718Y0113750D02*
D03*
X0309553Y0113750D02*
D03*
X0309553Y0120837D02*
D03*
X0299513Y0120837D02*
D03*
X0299513Y0113750D02*
D03*
X0328450Y0113750D02*
D03*
X0328450Y0120837D02*
D03*
X0318411Y0120837D02*
D03*
X0318411Y0113750D02*
D03*
X0327663Y0137569D02*
D03*
X0327663Y0144656D02*
D03*
X0317623Y0144656D02*
D03*
X0317623Y0137569D02*
D03*
X0355222Y0137569D02*
D03*
X0355222Y0144656D02*
D03*
X0345182Y0144656D02*
D03*
X0345182Y0137569D02*
D03*
X0345182Y0155679D02*
D03*
X0345182Y0148593D02*
D03*
X0355222Y0148593D02*
D03*
X0355222Y0155679D02*
D03*
D181*
X0321068Y0148593D02*
D03*
X0324218Y0148593D02*
D03*
X0324218Y0155679D02*
D03*
X0321068Y0155679D02*
D03*
X0296265Y0148593D02*
D03*
X0268312Y0148593D02*
D03*
X0293115Y0144656D02*
D03*
X0351383Y0126545D02*
D03*
X0348234Y0126545D02*
D03*
X0348234Y0119459D02*
D03*
X0351383Y0119459D02*
D03*
X0268312Y0144656D02*
D03*
X0265163Y0144656D02*
D03*
X0265163Y0137569D02*
D03*
X0268312Y0137569D02*
D03*
X0265163Y0148593D02*
D03*
X0268312Y0155679D02*
D03*
X0265163Y0155679D02*
D03*
X0296265Y0144656D02*
D03*
X0293115Y0137569D02*
D03*
X0296265Y0137569D02*
D03*
X0293116Y0148593D02*
D03*
X0296265Y0155679D02*
D03*
X0293116Y0155679D02*
D03*
X0287210Y0113750D02*
D03*
X0284060Y0113750D02*
D03*
X0284060Y0120837D02*
D03*
X0287210Y0120837D02*
D03*
X0268313Y0113750D02*
D03*
X0265163Y0113750D02*
D03*
X0265163Y0120837D02*
D03*
X0268313Y0120837D02*
D03*
X0306108Y0113750D02*
D03*
X0302958Y0113750D02*
D03*
X0302958Y0120837D02*
D03*
X0306108Y0120837D02*
D03*
X0325005Y0113750D02*
D03*
X0321856Y0113750D02*
D03*
X0321856Y0120837D02*
D03*
X0325005Y0120837D02*
D03*
X0324218Y0137569D02*
D03*
X0321068Y0137569D02*
D03*
X0321068Y0144656D02*
D03*
X0324218Y0144656D02*
D03*
X0351777Y0137569D02*
D03*
X0348627Y0137569D02*
D03*
X0348627Y0144656D02*
D03*
X0351777Y0144656D02*
D03*
X0348627Y0155679D02*
D03*
X0351777Y0155679D02*
D03*
X0351777Y0148593D02*
D03*
X0348627Y0148593D02*
D03*
D85*
X0360005Y0232943D02*
D03*
X0360005Y0237933D02*
D03*
X0353785Y0237933D02*
D03*
X0353785Y0232943D02*
D03*
D182*
X0372643Y0226053D02*
D03*
X0339966Y0226053D02*
D03*
X0372643Y0171920D02*
D03*
X0339966Y0171920D02*
D03*
D183*
X0362407Y0208022D02*
D03*
X0362407Y0216683D02*
D03*
X0362407Y0212353D02*
D03*
X0362407Y0203691D02*
D03*
X0362407Y0199360D02*
D03*
X0362407Y0195030D02*
D03*
X0362407Y0190699D02*
D03*
X0362407Y0186368D02*
D03*
D184*
X0380714Y0127412D02*
D03*
X0367510Y0127412D02*
D03*
X0373233Y0119380D02*
D03*
X0360030Y0119380D02*
D03*
X0376974Y0136664D02*
D03*
X0363770Y0136664D02*
D03*
X0363770Y0110128D02*
D03*
X0275596Y0225049D02*
D03*
X0271856Y0234301D02*
D03*
X0376974Y0110128D02*
D03*
D185*
X0374637Y0153185D02*
D03*
X0370700Y0153185D02*
D03*
X0374637Y0147181D02*
D03*
X0372669Y0147181D02*
D03*
X0372669Y0153185D02*
D03*
X0370700Y0147181D02*
D03*
D187*
X0284072Y0209833D02*
D03*
X0278954Y0209833D02*
D03*
X0281513Y0209833D02*
D03*
X0284072Y0202352D02*
D03*
X0278954Y0202352D02*
D03*
D188*
X0287289Y0190325D02*
D03*
X0264297Y0187766D02*
D03*
X0264297Y0190325D02*
D03*
X0287289Y0167294D02*
D03*
X0264297Y0164735D02*
D03*
X0264297Y0162175D02*
D03*
X0264297Y0167294D02*
D03*
X0264297Y0169853D02*
D03*
X0264297Y0172412D02*
D03*
X0264297Y0174971D02*
D03*
X0264297Y0177530D02*
D03*
X0264297Y0180089D02*
D03*
X0264297Y0182648D02*
D03*
X0264297Y0185207D02*
D03*
X0287289Y0162175D02*
D03*
X0287289Y0164735D02*
D03*
X0287289Y0169853D02*
D03*
X0287289Y0172412D02*
D03*
X0287289Y0174971D02*
D03*
X0287289Y0177530D02*
D03*
X0287289Y0180089D02*
D03*
X0287289Y0182648D02*
D03*
X0287289Y0185207D02*
D03*
X0287289Y0187766D02*
D03*
D189*
X0261226Y0227912D02*
D03*
X0261226Y0239330D02*
D03*
D83*
X0319316Y0230047D02*
D03*
X0306324Y0230047D02*
D03*
X0255239Y0218847D02*
D03*
X0268231Y0218847D02*
D03*
D190*
X0318091Y0204642D02*
D03*
X0318091Y0190075D02*
D03*
D191*
X0369667Y0149199D02*
D03*
X0369667Y0151167D02*
D03*
X0375671Y0151167D02*
D03*
X0375671Y0149199D02*
D03*
D192*
X0304680Y0217165D02*
D03*
X0310585Y0217165D02*
D03*
D184*
X0373233Y0127412D02*
D03*
X0360030Y0127412D02*
D03*
X0367510Y0119380D02*
D03*
X0268115Y0225049D02*
D03*
X0380714Y0119380D02*
D03*
D193*
X0307483Y0166506D02*
D03*
X0314176Y0166506D02*
D03*
D84*
X0323844Y0240043D02*
D03*
X0312427Y0240043D02*
D03*
D194*
X0254927Y0205679D02*
D03*
X0254927Y0199380D02*
D03*
X0162776Y0221083D02*
%LPD*%
G01*
G36*
G01*
X0170135Y0141378D02*
X0171493Y0141378D01*
G75*
G02*
X0172074Y0140798I0000000J-000581D01*
G01*
X0172074Y0139636D01*
G75*
G02*
X0171493Y0139055I-000581J0000000D01*
G01*
X0170135Y0139055D01*
G75*
G02*
X0169554Y0139636I0000000J0000581D01*
G01*
X0169554Y0140798D01*
G75*
G02*
X0170135Y0141378I0000581J0000000D01*
G01*
G37*
G36*
G01*
X0170135Y0137559D02*
X0171493Y0137559D01*
G75*
G02*
X0172074Y0136979I0000000J-000581D01*
G01*
X0172074Y0135817D01*
G75*
G02*
X0171493Y0135237I-000581J0000000D01*
G01*
X0170135Y0135237D01*
G75*
G02*
X0169554Y0135817I0000000J0000581D01*
G01*
X0169554Y0136979D01*
G75*
G02*
X0170135Y0137559I0000581J0000000D01*
G01*
G37*
G36*
G01*
X0185424Y0126910D02*
X0186782Y0126910D01*
G75*
G02*
X0187363Y0126329I0000000J-000581D01*
G01*
X0187363Y0125168D01*
G75*
G02*
X0186782Y0124587I-000581J0000000D01*
G01*
X0185424Y0124587D01*
G75*
G02*
X0184843Y0125168I0000000J0000581D01*
G01*
X0184843Y0126329D01*
G75*
G02*
X0185424Y0126910I0000581J0000000D01*
G01*
G37*
G36*
G01*
X0185424Y0123091D02*
X0186782Y0123091D01*
G75*
G02*
X0187363Y0122510I0000000J-000581D01*
G01*
X0187363Y0121349D01*
G75*
G02*
X0186782Y0120768I-000581J0000000D01*
G01*
X0185424Y0120768D01*
G75*
G02*
X0184843Y0121349I0000000J0000581D01*
G01*
X0184843Y0122510D01*
G75*
G02*
X0185424Y0123091I0000581J0000000D01*
G01*
G37*
G36*
G01*
X0211620Y0176792D02*
X0209602Y0176792D01*
G75*
G02*
X0208741Y0177653I0000000J0000861D01*
G01*
X0208741Y0179375D01*
G75*
G02*
X0209602Y0180237I0000861J0000000D01*
G01*
X0211620Y0180237D01*
G75*
G02*
X0212481Y0179375I0000000J-000861D01*
G01*
X0212481Y0177653D01*
G75*
G02*
X0211620Y0176792I-000861J0000000D01*
G01*
G37*
G36*
G01*
X0211620Y0182992D02*
X0209602Y0182992D01*
G75*
G02*
X0208741Y0183854I0000000J0000861D01*
G01*
X0208741Y0185576D01*
G75*
G02*
X0209602Y0186437I0000861J0000000D01*
G01*
X0211620Y0186437D01*
G75*
G02*
X0212481Y0185576I0000000J-000861D01*
G01*
X0212481Y0183854D01*
G75*
G02*
X0211620Y0182992I-000861J0000000D01*
G01*
G37*
G36*
G01*
X0167294Y0135237D02*
X0165935Y0135237D01*
G75*
G02*
X0165355Y0135817I0000000J0000581D01*
G01*
X0165355Y0136979D01*
G75*
G02*
X0165935Y0137559I0000581J0000000D01*
G01*
X0167294Y0137559D01*
G75*
G02*
X0167874Y0136979I0000000J-000581D01*
G01*
X0167874Y0135817D01*
G75*
G02*
X0167294Y0135237I-000581J0000000D01*
G01*
G37*
G36*
G01*
X0167294Y0139055D02*
X0165935Y0139055D01*
G75*
G02*
X0165355Y0139636I0000000J0000581D01*
G01*
X0165355Y0140798D01*
G75*
G02*
X0165935Y0141378I0000581J0000000D01*
G01*
X0167294Y0141378D01*
G75*
G02*
X0167874Y0140798I0000000J-000581D01*
G01*
X0167874Y0139636D01*
G75*
G02*
X0167294Y0139055I-000581J0000000D01*
G01*
G37*
G36*
G01*
X0206290Y0194938D02*
X0207648Y0194938D01*
G75*
G02*
X0208229Y0194358I0000000J-000581D01*
G01*
X0208229Y0193196D01*
G75*
G02*
X0207648Y0192616I-000581J0000000D01*
G01*
X0206290Y0192616D01*
G75*
G02*
X0205709Y0193196I0000000J0000581D01*
G01*
X0205709Y0194358D01*
G75*
G02*
X0206290Y0194938I0000581J0000000D01*
G01*
G37*
G36*
G01*
X0206290Y0191120D02*
X0207648Y0191120D01*
G75*
G02*
X0208229Y0190539I0000000J-000581D01*
G01*
X0208229Y0189377D01*
G75*
G02*
X0207648Y0188797I-000581J0000000D01*
G01*
X0206290Y0188797D01*
G75*
G02*
X0205709Y0189377I0000000J0000581D01*
G01*
X0205709Y0190539D01*
G75*
G02*
X0206290Y0191120I0000581J0000000D01*
G01*
G37*
G36*
G01*
X0204420Y0186851D02*
X0205778Y0186851D01*
G75*
G02*
X0206359Y0186270I0000000J-000581D01*
G01*
X0206359Y0185109D01*
G75*
G02*
X0205778Y0184528I-000581J0000000D01*
G01*
X0204420Y0184528D01*
G75*
G02*
X0203839Y0185109I0000000J0000581D01*
G01*
X0203839Y0186270D01*
G75*
G02*
X0204420Y0186851I0000581J0000000D01*
G01*
G37*
G36*
G01*
X0204420Y0183032D02*
X0205778Y0183032D01*
G75*
G02*
X0206359Y0182451I0000000J-000581D01*
G01*
X0206359Y0181290D01*
G75*
G02*
X0205778Y0180709I-000581J0000000D01*
G01*
X0204420Y0180709D01*
G75*
G02*
X0203839Y0181290I0000000J0000581D01*
G01*
X0203839Y0182451D01*
G75*
G02*
X0204420Y0183032I0000581J0000000D01*
G01*
G37*
G36*
G01*
X0211752Y0215463D02*
X0211752Y0214105D01*
G75*
G02*
X0211172Y0213524I-000581J0000000D01*
G01*
X0210010Y0213524D01*
G75*
G02*
X0209430Y0214105I0000000J0000581D01*
G01*
X0209430Y0215463D01*
G75*
G02*
X0210010Y0216044I0000581J0000000D01*
G01*
X0211172Y0216044D01*
G75*
G02*
X0211752Y0215463I0000000J-000581D01*
G01*
G37*
G36*
G01*
X0207933Y0215463D02*
X0207933Y0214105D01*
G75*
G02*
X0207353Y0213524I-000581J0000000D01*
G01*
X0206191Y0213524D01*
G75*
G02*
X0205611Y0214105I0000000J0000581D01*
G01*
X0205611Y0215463D01*
G75*
G02*
X0206191Y0216044I0000581J0000000D01*
G01*
X0207353Y0216044D01*
G75*
G02*
X0207933Y0215463I0000000J-000581D01*
G01*
G37*
G36*
G01*
X0194164Y0165945D02*
X0192806Y0165945D01*
G75*
G02*
X0192225Y0166526I0000000J0000581D01*
G01*
X0192225Y0167687D01*
G75*
G02*
X0192806Y0168268I0000581J0000000D01*
G01*
X0194164Y0168268D01*
G75*
G02*
X0194745Y0167687I0000000J-000581D01*
G01*
X0194745Y0166526D01*
G75*
G02*
X0194164Y0165945I-000581J0000000D01*
G01*
G37*
G36*
G01*
X0194164Y0169764D02*
X0192806Y0169764D01*
G75*
G02*
X0192225Y0170345I0000000J0000581D01*
G01*
X0192225Y0171506D01*
G75*
G02*
X0192806Y0172087I0000581J0000000D01*
G01*
X0194164Y0172087D01*
G75*
G02*
X0194745Y0171506I0000000J-000581D01*
G01*
X0194745Y0170345D01*
G75*
G02*
X0194164Y0169764I-000581J0000000D01*
G01*
G37*
G36*
G01*
X0188869Y0172087D02*
X0190227Y0172087D01*
G75*
G02*
X0190807Y0171506I0000000J-000581D01*
G01*
X0190807Y0170345D01*
G75*
G02*
X0190227Y0169764I-000581J0000000D01*
G01*
X0188869Y0169764D01*
G75*
G02*
X0188288Y0170345I0000000J0000581D01*
G01*
X0188288Y0171506D01*
G75*
G02*
X0188869Y0172087I0000581J0000000D01*
G01*
G37*
G36*
G01*
X0188869Y0168268D02*
X0190227Y0168268D01*
G75*
G02*
X0190807Y0167687I0000000J-000581D01*
G01*
X0190807Y0166526D01*
G75*
G02*
X0190227Y0165945I-000581J0000000D01*
G01*
X0188869Y0165945D01*
G75*
G02*
X0188288Y0166526I0000000J0000581D01*
G01*
X0188288Y0167687D01*
G75*
G02*
X0188869Y0168268I0000581J0000000D01*
G01*
G37*
G36*
G01*
X0191309Y0124607D02*
X0189951Y0124607D01*
G75*
G02*
X0189370Y0125187I0000000J0000581D01*
G01*
X0189370Y0126349D01*
G75*
G02*
X0189951Y0126929I0000581J0000000D01*
G01*
X0191309Y0126929D01*
G75*
G02*
X0191890Y0126349I0000000J-000581D01*
G01*
X0191890Y0125187D01*
G75*
G02*
X0191309Y0124607I-000581J0000000D01*
G01*
G37*
G36*
G01*
X0191309Y0128426D02*
X0189951Y0128426D01*
G75*
G02*
X0189370Y0129006I0000000J0000581D01*
G01*
X0189370Y0130168D01*
G75*
G02*
X0189951Y0130748I0000581J0000000D01*
G01*
X0191309Y0130748D01*
G75*
G02*
X0191890Y0130168I0000000J-000581D01*
G01*
X0191890Y0129006D01*
G75*
G02*
X0191309Y0128426I-000581J0000000D01*
G01*
G37*
D351*
X0167894Y0178957D03*
X0170453Y0178957D03*
X0173012Y0178957D03*
X0175571Y0178957D03*
X0178130Y0178957D03*
X0180689Y0178957D03*
X0183248Y0178957D03*
X0183248Y0155729D03*
X0180689Y0155729D03*
X0178130Y0155729D03*
X0175571Y0155729D03*
X0173012Y0155729D03*
X0170453Y0155729D03*
X0167894Y0155729D03*
G36*
G01*
X0211388Y0188780D02*
X0210030Y0188780D01*
G75*
G02*
X0209449Y0189361I0000000J0000581D01*
G01*
X0209449Y0190522D01*
G75*
G02*
X0210030Y0191103I0000581J0000000D01*
G01*
X0211388Y0191103D01*
G75*
G02*
X0211969Y0190522I0000000J-000581D01*
G01*
X0211969Y0189361D01*
G75*
G02*
X0211388Y0188780I-000581J0000000D01*
G01*
G37*
G36*
G01*
X0211388Y0192599D02*
X0210030Y0192599D01*
G75*
G02*
X0209449Y0193179I0000000J0000581D01*
G01*
X0209449Y0194341D01*
G75*
G02*
X0210030Y0194922I0000581J0000000D01*
G01*
X0211388Y0194922D01*
G75*
G02*
X0211969Y0194341I0000000J-000581D01*
G01*
X0211969Y0193179D01*
G75*
G02*
X0211388Y0192599I-000581J0000000D01*
G01*
G37*
G36*
G01*
X0213770Y0194922D02*
X0215128Y0194922D01*
G75*
G02*
X0215709Y0194341I0000000J-000581D01*
G01*
X0215709Y0193179D01*
G75*
G02*
X0215128Y0192599I-000581J0000000D01*
G01*
X0213770Y0192599D01*
G75*
G02*
X0213189Y0193179I0000000J0000581D01*
G01*
X0213189Y0194341D01*
G75*
G02*
X0213770Y0194922I0000581J0000000D01*
G01*
G37*
G36*
G01*
X0213770Y0191103D02*
X0215128Y0191103D01*
G75*
G02*
X0215709Y0190522I0000000J-000581D01*
G01*
X0215709Y0189361D01*
G75*
G02*
X0215128Y0188780I-000581J0000000D01*
G01*
X0213770Y0188780D01*
G75*
G02*
X0213189Y0189361I0000000J0000581D01*
G01*
X0213189Y0190522D01*
G75*
G02*
X0213770Y0191103I0000581J0000000D01*
G01*
G37*
G36*
G01*
X0204321Y0134685D02*
X0205680Y0134685D01*
G75*
G02*
X0206260Y0134105I0000000J-000581D01*
G01*
X0206260Y0132943D01*
G75*
G02*
X0205680Y0132363I-000581J0000000D01*
G01*
X0204321Y0132363D01*
G75*
G02*
X0203741Y0132943I0000000J0000581D01*
G01*
X0203741Y0134105D01*
G75*
G02*
X0204321Y0134685I0000581J0000000D01*
G01*
G37*
G36*
G01*
X0204321Y0130866D02*
X0205680Y0130866D01*
G75*
G02*
X0206260Y0130286I0000000J-000581D01*
G01*
X0206260Y0129124D01*
G75*
G02*
X0205680Y0128544I-000581J0000000D01*
G01*
X0204321Y0128544D01*
G75*
G02*
X0203741Y0129124I0000000J0000581D01*
G01*
X0203741Y0130286D01*
G75*
G02*
X0204321Y0130866I0000581J0000000D01*
G01*
G37*
G36*
G01*
X0175023Y0141378D02*
X0176382Y0141378D01*
G75*
G02*
X0176962Y0140798I0000000J-000581D01*
G01*
X0176962Y0139636D01*
G75*
G02*
X0176382Y0139055I-000581J0000000D01*
G01*
X0175023Y0139055D01*
G75*
G02*
X0174443Y0139636I0000000J0000581D01*
G01*
X0174443Y0140798D01*
G75*
G02*
X0175023Y0141378I0000581J0000000D01*
G01*
G37*
G36*
G01*
X0175023Y0137559D02*
X0176382Y0137559D01*
G75*
G02*
X0176962Y0136979I0000000J-000581D01*
G01*
X0176962Y0135817D01*
G75*
G02*
X0176382Y0135237I-000581J0000000D01*
G01*
X0175023Y0135237D01*
G75*
G02*
X0174443Y0135817I0000000J0000581D01*
G01*
X0174443Y0136979D01*
G75*
G02*
X0175023Y0137559I0000581J0000000D01*
G01*
G37*
G36*
G01*
X0198101Y0169193D02*
X0196743Y0169193D01*
G75*
G02*
X0196162Y0169774I0000000J0000581D01*
G01*
X0196162Y0170935D01*
G75*
G02*
X0196743Y0171516I0000581J0000000D01*
G01*
X0198101Y0171516D01*
G75*
G02*
X0198682Y0170935I0000000J-000581D01*
G01*
X0198682Y0169774D01*
G75*
G02*
X0198101Y0169193I-000581J0000000D01*
G01*
G37*
G36*
G01*
X0198101Y0173012D02*
X0196743Y0173012D01*
G75*
G02*
X0196162Y0173593I0000000J0000581D01*
G01*
X0196162Y0174754D01*
G75*
G02*
X0196743Y0175335I0000581J0000000D01*
G01*
X0198101Y0175335D01*
G75*
G02*
X0198682Y0174754I0000000J-000581D01*
G01*
X0198682Y0173593D01*
G75*
G02*
X0198101Y0173012I-000581J0000000D01*
G01*
G37*
G36*
G01*
X0205680Y0120866D02*
X0204321Y0120866D01*
G75*
G02*
X0203741Y0121447I0000000J0000581D01*
G01*
X0203741Y0122609D01*
G75*
G02*
X0204321Y0123189I0000581J0000000D01*
G01*
X0205680Y0123189D01*
G75*
G02*
X0206260Y0122609I0000000J-000581D01*
G01*
X0206260Y0121447D01*
G75*
G02*
X0205680Y0120866I-000581J0000000D01*
G01*
G37*
G36*
G01*
X0205680Y0124685D02*
X0204321Y0124685D01*
G75*
G02*
X0203741Y0125266I0000000J0000581D01*
G01*
X0203741Y0126427D01*
G75*
G02*
X0204321Y0127008I0000581J0000000D01*
G01*
X0205680Y0127008D01*
G75*
G02*
X0206260Y0126427I0000000J-000581D01*
G01*
X0206260Y0125266D01*
G75*
G02*
X0205680Y0124685I-000581J0000000D01*
G01*
G37*
G36*
G01*
X0190227Y0173327D02*
X0188869Y0173327D01*
G75*
G02*
X0188288Y0173908I0000000J0000581D01*
G01*
X0188288Y0175069D01*
G75*
G02*
X0188869Y0175650I0000581J0000000D01*
G01*
X0190227Y0175650D01*
G75*
G02*
X0190807Y0175069I0000000J-000581D01*
G01*
X0190807Y0173908D01*
G75*
G02*
X0190227Y0173327I-000581J0000000D01*
G01*
G37*
G36*
G01*
X0190227Y0177146D02*
X0188869Y0177146D01*
G75*
G02*
X0188288Y0177727I0000000J0000581D01*
G01*
X0188288Y0178888D01*
G75*
G02*
X0188869Y0179469I0000581J0000000D01*
G01*
X0190227Y0179469D01*
G75*
G02*
X0190807Y0178888I0000000J-000581D01*
G01*
X0190807Y0177727D01*
G75*
G02*
X0190227Y0177146I-000581J0000000D01*
G01*
G37*
G36*
G01*
X0165611Y0184577D02*
X0165611Y0185935D01*
G75*
G02*
X0166191Y0186516I0000581J0000000D01*
G01*
X0167353Y0186516D01*
G75*
G02*
X0167933Y0185935I0000000J-000581D01*
G01*
X0167933Y0184577D01*
G75*
G02*
X0167353Y0183996I-000581J0000000D01*
G01*
X0166191Y0183996D01*
G75*
G02*
X0165611Y0184577I0000000J0000581D01*
G01*
G37*
G36*
G01*
X0169430Y0184577D02*
X0169430Y0185935D01*
G75*
G02*
X0170010Y0186516I0000581J0000000D01*
G01*
X0171172Y0186516D01*
G75*
G02*
X0171752Y0185935I0000000J-000581D01*
G01*
X0171752Y0184577D01*
G75*
G02*
X0171172Y0183996I-000581J0000000D01*
G01*
X0170010Y0183996D01*
G75*
G02*
X0169430Y0184577I0000000J0000581D01*
G01*
G37*
G36*
G01*
X0194164Y0158465D02*
X0192806Y0158465D01*
G75*
G02*
X0192225Y0159046I0000000J0000581D01*
G01*
X0192225Y0160207D01*
G75*
G02*
X0192806Y0160788I0000581J0000000D01*
G01*
X0194164Y0160788D01*
G75*
G02*
X0194745Y0160207I0000000J-000581D01*
G01*
X0194745Y0159046D01*
G75*
G02*
X0194164Y0158465I-000581J0000000D01*
G01*
G37*
G36*
G01*
X0194164Y0162284D02*
X0192806Y0162284D01*
G75*
G02*
X0192225Y0162864I0000000J0000581D01*
G01*
X0192225Y0164026D01*
G75*
G02*
X0192806Y0164607I0000581J0000000D01*
G01*
X0194164Y0164607D01*
G75*
G02*
X0194745Y0164026I0000000J-000581D01*
G01*
X0194745Y0162864D01*
G75*
G02*
X0194164Y0162284I-000581J0000000D01*
G01*
G37*
G36*
G01*
X0192806Y0157126D02*
X0194164Y0157126D01*
G75*
G02*
X0194745Y0156546I0000000J-000581D01*
G01*
X0194745Y0155384D01*
G75*
G02*
X0194164Y0154803I-000581J0000000D01*
G01*
X0192806Y0154803D01*
G75*
G02*
X0192225Y0155384I0000000J0000581D01*
G01*
X0192225Y0156546D01*
G75*
G02*
X0192806Y0157126I0000581J0000000D01*
G01*
G37*
G36*
G01*
X0192806Y0153307D02*
X0194164Y0153307D01*
G75*
G02*
X0194745Y0152727I0000000J-000581D01*
G01*
X0194745Y0151565D01*
G75*
G02*
X0194164Y0150985I-000581J0000000D01*
G01*
X0192806Y0150985D01*
G75*
G02*
X0192225Y0151565I0000000J0000581D01*
G01*
X0192225Y0152727D01*
G75*
G02*
X0192806Y0153307I0000581J0000000D01*
G01*
G37*
G36*
G01*
X0165611Y0188317D02*
X0165611Y0189676D01*
G75*
G02*
X0166191Y0190256I0000581J0000000D01*
G01*
X0167353Y0190256D01*
G75*
G02*
X0167933Y0189676I0000000J-000581D01*
G01*
X0167933Y0188317D01*
G75*
G02*
X0167353Y0187737I-000581J0000000D01*
G01*
X0166191Y0187737D01*
G75*
G02*
X0165611Y0188317I0000000J0000581D01*
G01*
G37*
G36*
G01*
X0169430Y0188317D02*
X0169430Y0189676D01*
G75*
G02*
X0170010Y0190256I0000581J0000000D01*
G01*
X0171172Y0190256D01*
G75*
G02*
X0171752Y0189676I0000000J-000581D01*
G01*
X0171752Y0188317D01*
G75*
G02*
X0171172Y0187737I-000581J0000000D01*
G01*
X0170010Y0187737D01*
G75*
G02*
X0169430Y0188317I0000000J0000581D01*
G01*
G37*
D352*
X0214449Y0198996D03*
X0210709Y0198996D03*
X0206969Y0198996D03*
X0206969Y0209311D03*
X0214449Y0209311D03*
G36*
G01*
X0196743Y0164508D02*
X0198101Y0164508D01*
G75*
G02*
X0198682Y0163927I0000000J-000581D01*
G01*
X0198682Y0162766D01*
G75*
G02*
X0198101Y0162185I-000581J0000000D01*
G01*
X0196743Y0162185D01*
G75*
G02*
X0196162Y0162766I0000000J0000581D01*
G01*
X0196162Y0163927D01*
G75*
G02*
X0196743Y0164508I0000581J0000000D01*
G01*
G37*
G36*
G01*
X0196743Y0160689D02*
X0198101Y0160689D01*
G75*
G02*
X0198682Y0160109I0000000J-000581D01*
G01*
X0198682Y0158947D01*
G75*
G02*
X0198101Y0158366I-000581J0000000D01*
G01*
X0196743Y0158366D01*
G75*
G02*
X0196162Y0158947I0000000J0000581D01*
G01*
X0196162Y0160109D01*
G75*
G02*
X0196743Y0160689I0000581J0000000D01*
G01*
G37*
G36*
G01*
X0200847Y0177097D02*
X0200847Y0178455D01*
G75*
G02*
X0201428Y0179036I0000581J0000000D01*
G01*
X0202589Y0179036D01*
G75*
G02*
X0203170Y0178455I0000000J-000581D01*
G01*
X0203170Y0177097D01*
G75*
G02*
X0202589Y0176516I-000581J0000000D01*
G01*
X0201428Y0176516D01*
G75*
G02*
X0200847Y0177097I0000000J0000581D01*
G01*
G37*
G36*
G01*
X0204666Y0177097D02*
X0204666Y0178455D01*
G75*
G02*
X0205246Y0179036I0000581J0000000D01*
G01*
X0206408Y0179036D01*
G75*
G02*
X0206989Y0178455I0000000J-000581D01*
G01*
X0206989Y0177097D01*
G75*
G02*
X0206408Y0176516I-000581J0000000D01*
G01*
X0205246Y0176516D01*
G75*
G02*
X0204666Y0177097I0000000J0000581D01*
G01*
G37*
G36*
G01*
X0180414Y0185935D02*
X0180414Y0184577D01*
G75*
G02*
X0179833Y0183996I-000581J0000000D01*
G01*
X0178672Y0183996D01*
G75*
G02*
X0178091Y0184577I0000000J0000581D01*
G01*
X0178091Y0185935D01*
G75*
G02*
X0178672Y0186516I0000581J0000000D01*
G01*
X0179833Y0186516D01*
G75*
G02*
X0180414Y0185935I0000000J-000581D01*
G01*
G37*
G36*
G01*
X0176595Y0185935D02*
X0176595Y0184577D01*
G75*
G02*
X0176014Y0183996I-000581J0000000D01*
G01*
X0174853Y0183996D01*
G75*
G02*
X0174272Y0184577I0000000J0000581D01*
G01*
X0174272Y0185935D01*
G75*
G02*
X0174853Y0186516I0000581J0000000D01*
G01*
X0176014Y0186516D01*
G75*
G02*
X0176595Y0185935I0000000J-000581D01*
G01*
G37*
G36*
G01*
X0181369Y0142815D02*
X0180010Y0142815D01*
G75*
G02*
X0179430Y0143396I0000000J0000581D01*
G01*
X0179430Y0144557D01*
G75*
G02*
X0180010Y0145138I0000581J0000000D01*
G01*
X0181369Y0145138D01*
G75*
G02*
X0181949Y0144557I0000000J-000581D01*
G01*
X0181949Y0143396D01*
G75*
G02*
X0181369Y0142815I-000581J0000000D01*
G01*
G37*
G36*
G01*
X0181369Y0146634D02*
X0180010Y0146634D01*
G75*
G02*
X0179430Y0147215I0000000J0000581D01*
G01*
X0179430Y0148376D01*
G75*
G02*
X0180010Y0148957I0000581J0000000D01*
G01*
X0181369Y0148957D01*
G75*
G02*
X0181949Y0148376I0000000J-000581D01*
G01*
X0181949Y0147215D01*
G75*
G02*
X0181369Y0146634I-000581J0000000D01*
G01*
G37*
G36*
G01*
X0181369Y0135237D02*
X0180010Y0135237D01*
G75*
G02*
X0179430Y0135817I0000000J0000581D01*
G01*
X0179430Y0136979D01*
G75*
G02*
X0180010Y0137559I0000581J0000000D01*
G01*
X0181369Y0137559D01*
G75*
G02*
X0181949Y0136979I0000000J-000581D01*
G01*
X0181949Y0135817D01*
G75*
G02*
X0181369Y0135237I-000581J0000000D01*
G01*
G37*
G36*
G01*
X0181369Y0139055D02*
X0180010Y0139055D01*
G75*
G02*
X0179430Y0139636I0000000J0000581D01*
G01*
X0179430Y0140798D01*
G75*
G02*
X0180010Y0141378I0000581J0000000D01*
G01*
X0181369Y0141378D01*
G75*
G02*
X0181949Y0140798I0000000J-000581D01*
G01*
X0181949Y0139636D01*
G75*
G02*
X0181369Y0139055I-000581J0000000D01*
G01*
G37*
G36*
G01*
X0180414Y0189676D02*
X0180414Y0188317D01*
G75*
G02*
X0179833Y0187737I-000581J0000000D01*
G01*
X0178672Y0187737D01*
G75*
G02*
X0178091Y0188317I0000000J0000581D01*
G01*
X0178091Y0189676D01*
G75*
G02*
X0178672Y0190256I0000581J0000000D01*
G01*
X0179833Y0190256D01*
G75*
G02*
X0180414Y0189676I0000000J-000581D01*
G01*
G37*
G36*
G01*
X0176595Y0189676D02*
X0176595Y0188317D01*
G75*
G02*
X0176014Y0187737I-000581J0000000D01*
G01*
X0174853Y0187737D01*
G75*
G02*
X0174272Y0188317I0000000J0000581D01*
G01*
X0174272Y0189676D01*
G75*
G02*
X0174853Y0190256I0000581J0000000D01*
G01*
X0176014Y0190256D01*
G75*
G02*
X0176595Y0189676I0000000J-000581D01*
G01*
G37*
G36*
G01*
X0190227Y0155315D02*
X0188869Y0155315D01*
G75*
G02*
X0188288Y0155896I0000000J0000581D01*
G01*
X0188288Y0157057D01*
G75*
G02*
X0188869Y0157638I0000581J0000000D01*
G01*
X0190227Y0157638D01*
G75*
G02*
X0190807Y0157057I0000000J-000581D01*
G01*
X0190807Y0155896D01*
G75*
G02*
X0190227Y0155315I-000581J0000000D01*
G01*
G37*
G36*
G01*
X0190227Y0159134D02*
X0188869Y0159134D01*
G75*
G02*
X0188288Y0159715I0000000J0000581D01*
G01*
X0188288Y0160876D01*
G75*
G02*
X0188869Y0161457I0000581J0000000D01*
G01*
X0190227Y0161457D01*
G75*
G02*
X0190807Y0160876I0000000J-000581D01*
G01*
X0190807Y0159715D01*
G75*
G02*
X0190227Y0159134I-000581J0000000D01*
G01*
G37*
G36*
G01*
X0180414Y0193416D02*
X0180414Y0192057D01*
G75*
G02*
X0179833Y0191477I-000581J0000000D01*
G01*
X0178672Y0191477D01*
G75*
G02*
X0178091Y0192057I0000000J0000581D01*
G01*
X0178091Y0193416D01*
G75*
G02*
X0178672Y0193996I0000581J0000000D01*
G01*
X0179833Y0193996D01*
G75*
G02*
X0180414Y0193416I0000000J-000581D01*
G01*
G37*
G36*
G01*
X0176595Y0193416D02*
X0176595Y0192057D01*
G75*
G02*
X0176014Y0191477I-000581J0000000D01*
G01*
X0174853Y0191477D01*
G75*
G02*
X0174272Y0192057I0000000J0000581D01*
G01*
X0174272Y0193416D01*
G75*
G02*
X0174853Y0193996I0000581J0000000D01*
G01*
X0176014Y0193996D01*
G75*
G02*
X0176595Y0193416I0000000J-000581D01*
G01*
G37*
G36*
G01*
X0171752Y0193416D02*
X0171752Y0192057D01*
G75*
G02*
X0171172Y0191477I-000581J0000000D01*
G01*
X0170010Y0191477D01*
G75*
G02*
X0169430Y0192057I0000000J0000581D01*
G01*
X0169430Y0193416D01*
G75*
G02*
X0170010Y0193996I0000581J0000000D01*
G01*
X0171172Y0193996D01*
G75*
G02*
X0171752Y0193416I0000000J-000581D01*
G01*
G37*
G36*
G01*
X0167933Y0193416D02*
X0167933Y0192057D01*
G75*
G02*
X0167353Y0191477I-000581J0000000D01*
G01*
X0166191Y0191477D01*
G75*
G02*
X0165611Y0192057I0000000J0000581D01*
G01*
X0165611Y0193416D01*
G75*
G02*
X0166191Y0193996I0000581J0000000D01*
G01*
X0167353Y0193996D01*
G75*
G02*
X0167933Y0193416I0000000J-000581D01*
G01*
G37*
G36*
G01*
X0177559Y0208229D02*
X0178898Y0208229D01*
G75*
G02*
X0179449Y0207678I0000000J-000551D01*
G01*
X0179449Y0206575D01*
G75*
G02*
X0178898Y0206024I-000551J0000000D01*
G01*
X0177559Y0206024D01*
G75*
G02*
X0177008Y0206575I0000000J0000551D01*
G01*
X0177008Y0207678D01*
G75*
G02*
X0177559Y0208229I0000551J0000000D01*
G01*
G37*
G36*
G01*
X0177559Y0204449D02*
X0178898Y0204449D01*
G75*
G02*
X0179449Y0203898I0000000J-000551D01*
G01*
X0179449Y0202796D01*
G75*
G02*
X0178898Y0202245I-000551J0000000D01*
G01*
X0177559Y0202245D01*
G75*
G02*
X0177008Y0202796I0000000J0000551D01*
G01*
X0177008Y0203898D01*
G75*
G02*
X0177559Y0204449I0000551J0000000D01*
G01*
G37*
G36*
G01*
X0203819Y0153288D02*
X0202363Y0153288D01*
G75*
G02*
X0201831Y0153819I0000000J0000531D01*
G01*
X0201831Y0154882D01*
G75*
G02*
X0202363Y0155414I0000531J0000000D01*
G01*
X0203819Y0155414D01*
G75*
G02*
X0204351Y0154882I0000000J-000531D01*
G01*
X0204351Y0153819D01*
G75*
G02*
X0203819Y0153288I-000531J0000000D01*
G01*
G37*
G36*
G01*
X0203819Y0157303D02*
X0202363Y0157303D01*
G75*
G02*
X0201831Y0157835I0000000J0000531D01*
G01*
X0201831Y0158898D01*
G75*
G02*
X0202363Y0159429I0000531J0000000D01*
G01*
X0203819Y0159429D01*
G75*
G02*
X0204351Y0158898I0000000J-000531D01*
G01*
X0204351Y0157835D01*
G75*
G02*
X0203819Y0157303I-000531J0000000D01*
G01*
G37*
G36*
G01*
X0189286Y0214016D02*
X0189286Y0215473D01*
G75*
G02*
X0189818Y0216004I0000531J0000000D01*
G01*
X0190881Y0216004D01*
G75*
G02*
X0191412Y0215473I0000000J-000531D01*
G01*
X0191412Y0214016D01*
G75*
G02*
X0190881Y0213485I-000531J0000000D01*
G01*
X0189818Y0213485D01*
G75*
G02*
X0189286Y0214016I0000000J0000531D01*
G01*
G37*
G36*
G01*
X0193302Y0214016D02*
X0193302Y0215473D01*
G75*
G02*
X0193834Y0216004I0000531J0000000D01*
G01*
X0194897Y0216004D01*
G75*
G02*
X0195428Y0215473I0000000J-000531D01*
G01*
X0195428Y0214016D01*
G75*
G02*
X0194897Y0213485I-000531J0000000D01*
G01*
X0193834Y0213485D01*
G75*
G02*
X0193302Y0214016I0000000J0000531D01*
G01*
G37*
G36*
G01*
X0165335Y0213406D02*
X0166516Y0213406D01*
G75*
G02*
X0167107Y0212815I0000000J-000591D01*
G01*
X0167107Y0208189D01*
G75*
G02*
X0166516Y0207599I-000591J0000000D01*
G01*
X0165335Y0207599D01*
G75*
G02*
X0164745Y0208189I0000000J0000591D01*
G01*
X0164745Y0212815D01*
G75*
G02*
X0165335Y0213406I0000591J0000000D01*
G01*
G37*
G36*
G01*
X0172815Y0213406D02*
X0173996Y0213406D01*
G75*
G02*
X0174587Y0212815I0000000J-000591D01*
G01*
X0174587Y0208189D01*
G75*
G02*
X0173996Y0207599I-000591J0000000D01*
G01*
X0172815Y0207599D01*
G75*
G02*
X0172225Y0208189I0000000J0000591D01*
G01*
X0172225Y0212815D01*
G75*
G02*
X0172815Y0213406I0000591J0000000D01*
G01*
G37*
G36*
G01*
X0169075Y0206024D02*
X0170256Y0206024D01*
G75*
G02*
X0170847Y0205433I0000000J-000591D01*
G01*
X0170847Y0200807D01*
G75*
G02*
X0170256Y0200217I-000591J0000000D01*
G01*
X0169075Y0200217D01*
G75*
G02*
X0168485Y0200807I0000000J0000591D01*
G01*
X0168485Y0205433D01*
G75*
G02*
X0169075Y0206024I0000591J0000000D01*
G01*
G37*
G36*
G01*
X0203267Y0215453D02*
X0203267Y0214114D01*
G75*
G02*
X0202715Y0213563I-000551J0000000D01*
G01*
X0201613Y0213563D01*
G75*
G02*
X0201062Y0214114I0000000J0000551D01*
G01*
X0201062Y0215453D01*
G75*
G02*
X0201613Y0216004I0000551J0000000D01*
G01*
X0202715Y0216004D01*
G75*
G02*
X0203267Y0215453I0000000J-000551D01*
G01*
G37*
G36*
G01*
X0199487Y0215453D02*
X0199487Y0214114D01*
G75*
G02*
X0198936Y0213563I-000551J0000000D01*
G01*
X0197834Y0213563D01*
G75*
G02*
X0197282Y0214114I0000000J0000551D01*
G01*
X0197282Y0215453D01*
G75*
G02*
X0197834Y0216004I0000551J0000000D01*
G01*
X0198936Y0216004D01*
G75*
G02*
X0199487Y0215453I0000000J-000551D01*
G01*
G37*
G36*
G01*
X0200196Y0184666D02*
X0199015Y0184666D01*
G75*
G02*
X0198424Y0185256I0000000J0000591D01*
G01*
X0198424Y0190965D01*
G75*
G02*
X0199015Y0191555I0000591J0000000D01*
G01*
X0200196Y0191555D01*
G75*
G02*
X0200786Y0190965I0000000J-000591D01*
G01*
X0200786Y0185256D01*
G75*
G02*
X0200196Y0184666I-000591J0000000D01*
G01*
G37*
G36*
G01*
X0195196Y0184666D02*
X0194015Y0184666D01*
G75*
G02*
X0193424Y0185256I0000000J0000591D01*
G01*
X0193424Y0190965D01*
G75*
G02*
X0194015Y0191555I0000591J0000000D01*
G01*
X0195196Y0191555D01*
G75*
G02*
X0195786Y0190965I0000000J-000591D01*
G01*
X0195786Y0185256D01*
G75*
G02*
X0195196Y0184666I-000591J0000000D01*
G01*
G37*
G36*
G01*
X0190196Y0184666D02*
X0189015Y0184666D01*
G75*
G02*
X0188424Y0185256I0000000J0000591D01*
G01*
X0188424Y0190965D01*
G75*
G02*
X0189015Y0191555I0000591J0000000D01*
G01*
X0190196Y0191555D01*
G75*
G02*
X0190786Y0190965I0000000J-000591D01*
G01*
X0190786Y0185256D01*
G75*
G02*
X0190196Y0184666I-000591J0000000D01*
G01*
G37*
G36*
G01*
X0185196Y0184666D02*
X0184015Y0184666D01*
G75*
G02*
X0183424Y0185256I0000000J0000591D01*
G01*
X0183424Y0190965D01*
G75*
G02*
X0184015Y0191555I0000591J0000000D01*
G01*
X0185196Y0191555D01*
G75*
G02*
X0185786Y0190965I0000000J-000591D01*
G01*
X0185786Y0185256D01*
G75*
G02*
X0185196Y0184666I-000591J0000000D01*
G01*
G37*
G36*
G01*
X0185196Y0204941D02*
X0184015Y0204941D01*
G75*
G02*
X0183424Y0205532I0000000J0000591D01*
G01*
X0183424Y0211240D01*
G75*
G02*
X0184015Y0211831I0000591J0000000D01*
G01*
X0185196Y0211831D01*
G75*
G02*
X0185786Y0211240I0000000J-000591D01*
G01*
X0185786Y0205532D01*
G75*
G02*
X0185196Y0204941I-000591J0000000D01*
G01*
G37*
G36*
G01*
X0190196Y0204941D02*
X0189015Y0204941D01*
G75*
G02*
X0188424Y0205532I0000000J0000591D01*
G01*
X0188424Y0211240D01*
G75*
G02*
X0189015Y0211831I0000591J0000000D01*
G01*
X0190196Y0211831D01*
G75*
G02*
X0190786Y0211240I0000000J-000591D01*
G01*
X0190786Y0205532D01*
G75*
G02*
X0190196Y0204941I-000591J0000000D01*
G01*
G37*
G36*
G01*
X0195196Y0204941D02*
X0194015Y0204941D01*
G75*
G02*
X0193424Y0205532I0000000J0000591D01*
G01*
X0193424Y0211240D01*
G75*
G02*
X0194015Y0211831I0000591J0000000D01*
G01*
X0195196Y0211831D01*
G75*
G02*
X0195786Y0211240I0000000J-000591D01*
G01*
X0195786Y0205532D01*
G75*
G02*
X0195196Y0204941I-000591J0000000D01*
G01*
G37*
G36*
G01*
X0200196Y0204941D02*
X0199015Y0204941D01*
G75*
G02*
X0198424Y0205532I0000000J0000591D01*
G01*
X0198424Y0211240D01*
G75*
G02*
X0199015Y0211831I0000591J0000000D01*
G01*
X0200196Y0211831D01*
G75*
G02*
X0200786Y0211240I0000000J-000591D01*
G01*
X0200786Y0205532D01*
G75*
G02*
X0200196Y0204941I-000591J0000000D01*
G01*
G37*
X0358024Y0326643D02*
G01*
G75*
D113*
X0385977Y0336879D02*
D03*
X0389914Y0336879D02*
D03*
X0374854Y0336879D02*
D03*
X0370917Y0336879D02*
D03*
X0366488Y0336879D02*
D03*
X0362551Y0336879D02*
D03*
X0385977Y0329596D02*
D03*
X0389914Y0329596D02*
D03*
D89*
X0382592Y0329399D02*
D03*
X0382592Y0332942D02*
D03*
D112*
X0378707Y0336112D02*
D03*
X0378707Y0329891D02*
D03*
D88*
X0366095Y0332942D02*
D03*
X0362552Y0332942D02*
D03*
X0374461Y0329399D02*
D03*
X0370918Y0329399D02*
D03*
X0389323Y0333000D02*
D03*
X0385780Y0333000D02*
D03*
X0362552Y0329399D02*
D03*
X0366095Y0329399D02*
D03*
X0358003Y0312300D02*
G01*
G75*
D113*
X0385956Y0322536D02*
D03*
X0389893Y0322536D02*
D03*
X0374833Y0322536D02*
D03*
X0370896Y0322536D02*
D03*
X0366467Y0322536D02*
D03*
X0362530Y0322536D02*
D03*
X0385956Y0315253D02*
D03*
X0389893Y0315253D02*
D03*
D89*
X0382571Y0315056D02*
D03*
X0382571Y0318599D02*
D03*
D112*
X0378686Y0321769D02*
D03*
X0378686Y0315548D02*
D03*
D88*
X0366074Y0318599D02*
D03*
X0362531Y0318599D02*
D03*
X0374440Y0315056D02*
D03*
X0370897Y0315056D02*
D03*
X0389302Y0318657D02*
D03*
X0385759Y0318657D02*
D03*
X0362531Y0315056D02*
D03*
X0366074Y0315056D02*
D03*
M02*
