M48
; DRILL file {KiCad 8.0.8} date 2025-02-16T14:13:28+0100
; FORMAT={2:4/ absolute / inch / suppress leading zeros}
; #@! TF.CreationDate,2025-02-16T14:13:28+01:00
; #@! TF.GenerationSoftware,Kicad,Pcbnew,8.0.8
; #@! TF.FileFunction,MixedPlating,1,4
FMAT,2
INCH,TZ
; #@! TA.AperFunction,Plated,PTH,ComponentDrill
T1C0.0118
; #@! TA.AperFunction,Plated,PTH,ComponentDrill
T2C0.0118
; #@! TA.AperFunction,Plated,PTH,ComponentDrill
T3C0.0362
; #@! TA.AperFunction,Plated,PTH,ComponentDrill
T4C0.0394
; #@! TA.AperFunction,Plated,PTH,ComponentDrill
T5C0.0433
; #@! TA.AperFunction,Plated,PTH,ComponentDrill
T6C0.0591
; #@! TA.AperFunction,Plated,PTH,ComponentDrill
T7C0.0709
; #@! TA.AperFunction,Plated,PTH,ComponentDrill
T8C0.0917
; #@! TA.AperFunction,NonPlated,NPTH,ComponentDrill
T9C0.0866
; #@! TA.AperFunction,NonPlated,NPTH,ComponentDrill
T10C0.1083
; #@! TA.AperFunction,NonPlated,NPTH,ComponentDrill
T11C0.1181
; #@! TA.AperFunction,NonPlated,NPTH,ComponentDrill
T12C0.1457
%
G90
G05
T1
X77240Y-42898
X77270Y-44295
X77358Y-42396
X77703Y-42602
X78187Y-35092
X78689Y-35092
X78907Y-32563
X79338Y-35092
X79693Y-35092
T2
X48423Y-50785
X48817Y-50785
X49211Y-50785
X49604Y-50785
X50531Y-40316
X50931Y-40316
X51829Y-40316
X52222Y-40316
X52616Y-40316
X56634Y-37542
X56634Y-39393
X56634Y-39944
X56634Y-41794
X56634Y-42109
X56634Y-43133
X56634Y-43527
X56634Y-43920
X56634Y-44314
X56634Y-44708
X56634Y-45101
X56634Y-45495
X56634Y-45889
X56634Y-50101
X56634Y-50495
X56792Y-51479
X57737Y-51479
X58209Y-51479
X58682Y-51479
X59154Y-51479
X59548Y-37542
X59627Y-51479
X59941Y-37542
X60099Y-51479
X60571Y-51479
X61004Y-37542
X61044Y-51479
X61516Y-51479
X61989Y-51479
X62461Y-51479
X62697Y-37542
X62934Y-51479
X63012Y-37542
X63327Y-37542
X63406Y-51479
X63642Y-37542
X63879Y-51479
X63957Y-37542
X64272Y-37542
X64351Y-51479
X64587Y-37542
X64823Y-51479
X64902Y-37542
X65217Y-37542
X65296Y-51479
X65768Y-51479
X66162Y-37542
X66241Y-51479
X66477Y-37542
X66713Y-51479
X66792Y-37542
X67107Y-37542
X67186Y-51479
X67414Y-29951
X67414Y-30305
X67417Y-28517
X67417Y-28871
X67422Y-37542
X67737Y-37542
X68052Y-37542
X68367Y-37542
X68682Y-37542
X68997Y-37542
X69312Y-37542
X69627Y-37542
X69784Y-42818
X69784Y-48920
X69784Y-40377
X69784Y-40692
X69784Y-41007
X69784Y-41322
X69784Y-41637
X69784Y-41952
X69784Y-42503
X69784Y-43133
X69784Y-43448
X69784Y-43763
X69784Y-44078
X69784Y-44393
X69784Y-44708
X69784Y-45023
X69784Y-45338
X69784Y-45653
X69784Y-45967
X69784Y-46282
X69784Y-46597
X69784Y-46912
X69784Y-47227
X70840Y-29951
X70840Y-30325
X70840Y-30699
X70842Y-28517
X70842Y-28891
X70842Y-29265
X84922Y-30572
X84922Y-30966
T3
X87418Y-56226
X87418Y-57013
X88402Y-56226
X88402Y-57013
T4
X55282Y-54608
X55282Y-55474
X56069Y-54608
X56069Y-55474
X56857Y-54608
X56857Y-55474
X57644Y-54608
X57644Y-55474
X58431Y-54608
X58431Y-55474
X59219Y-55474
X60006Y-55474
X60794Y-55474
X61581Y-55474
X62368Y-54608
X62368Y-55474
X63156Y-54608
X63156Y-55474
X63943Y-54608
X63943Y-55474
X64731Y-54608
X64731Y-55474
X65518Y-54608
X65518Y-55474
X85100Y-29450
X85100Y-31911
X85100Y-33604
X85100Y-34352
X85100Y-36871
X91202Y-29627
X91202Y-34371
X91202Y-36320
X91202Y-37048
T5
X48723Y-20861
X48723Y-21863
X48723Y-24240
X48723Y-25249
X49723Y-20861
X49723Y-21863
X49723Y-24240
X49723Y-25249
X50723Y-20861
X50723Y-21863
X50723Y-24240
X50723Y-25249
X51723Y-20861
X51723Y-21863
X51723Y-24240
X51723Y-25249
X52723Y-20861
X52723Y-21863
X52723Y-24240
X52723Y-25249
X53724Y-20861
X53724Y-21863
X53724Y-24240
X53724Y-25249
X54724Y-20861
X54724Y-21863
X54724Y-24240
X54724Y-25249
X55724Y-20861
X55724Y-21863
X55724Y-24240
X55724Y-25249
X56724Y-20861
X56724Y-21863
X56724Y-24240
X56724Y-25249
X57724Y-20861
X57724Y-21863
X57724Y-24240
X57724Y-25249
X59983Y-20861
X59983Y-21863
X59983Y-24240
X59983Y-25249
X60983Y-20861
X60983Y-21863
X60983Y-24240
X60983Y-25249
X61983Y-20861
X61983Y-21863
X61983Y-24240
X61983Y-25249
X62983Y-20861
X62983Y-21863
X62983Y-24240
X62983Y-25249
X63983Y-20861
X63983Y-21863
X63983Y-24240
X63983Y-25249
X64983Y-20861
X64983Y-21863
X64983Y-24240
X64983Y-25249
X65983Y-20861
X65983Y-21863
X65983Y-24240
X65983Y-25249
X66983Y-20861
X66983Y-21863
X66983Y-24240
X66983Y-25249
X67983Y-20861
X67983Y-21863
X67983Y-24240
X67983Y-25249
X68984Y-20861
X68984Y-21863
X68984Y-24240
X68984Y-25249
X69984Y-20861
X69984Y-21863
X69984Y-24240
X69984Y-25249
X70984Y-20861
X70984Y-21863
X70984Y-24240
X70984Y-25249
X71984Y-20861
X71984Y-21863
X71984Y-24240
X71984Y-25249
X74225Y-20861
X74225Y-21863
X74225Y-24240
X74225Y-25249
X75225Y-20861
X75225Y-21863
X75225Y-24240
X75225Y-25249
X76226Y-20861
X76226Y-21863
X76226Y-24240
X76226Y-25249
X77226Y-20861
X77226Y-21863
X77226Y-24240
X77226Y-25249
X78226Y-20861
X78226Y-21863
X78226Y-24240
X78226Y-25249
X79226Y-20861
X79226Y-21863
X79226Y-24240
X79226Y-25249
T6
X42056Y-21094
X42056Y-23339
X42056Y-25583
X44023Y-21094
X44023Y-23339
X44023Y-25583
X45998Y-21094
X45998Y-23339
X45998Y-25583
X81984Y-21094
X81984Y-23339
X81984Y-25583
X83951Y-21094
X83951Y-23339
X83951Y-25583
X85918Y-21094
X85918Y-23339
X85918Y-25583
T7
X44946Y-54545
X44946Y-56711
X46600Y-54545
X46600Y-56711
X48254Y-54545
X48254Y-56711
T8
X85540Y-58080
X90280Y-58080
T9
X38022Y-20219
X89518Y-20219
T10
X54160Y-55120
X66640Y-55120
T11
X44946Y-59585
X48254Y-59585
T12
X38831Y-18291
X88718Y-18291
M30
