G04 #@! TF.GenerationSoftware,KiCad,Pcbnew,8.0.8-8.0.8-0~ubuntu24.04.1*
G04 #@! TF.CreationDate,2025-02-16T13:52:43+00:00*
G04 #@! TF.ProjectId,hellenbms46,68656c6c-656e-4626-9d73-34362e6b6963,rev?*
G04 #@! TF.SameCoordinates,PX4c4b400PY96ae380*
G04 #@! TF.FileFunction,Legend,Bot*
G04 #@! TF.FilePolarity,Positive*
%FSLAX46Y46*%
G04 Gerber Fmt 4.6, Leading zero omitted, Abs format (unit mm)*
G04 Created by KiCad (PCBNEW 8.0.8-8.0.8-0~ubuntu24.04.1) date 2025-02-16 13:52:43*
%MOMM*%
%LPD*%
G01*
G04 APERTURE LIST*
%ADD10C,0.200000*%
G04 APERTURE END LIST*
G04 #@! TO.C,M3004*
D10*
X55345000Y28555000D02*
X41445000Y28555000D01*
X41445000Y56055000D01*
X55345000Y56055000D01*
X55345000Y28555000D01*
G04 #@! TO.C,M6002*
X91032800Y82524199D02*
X100132800Y82524199D01*
X91032800Y79424196D02*
X91032800Y80424198D01*
X91032800Y79424196D02*
X100132800Y79424196D01*
G04 #@! TO.C,M3001*
X135503002Y63546999D02*
X135503002Y63247001D01*
X135503004Y82397001D02*
X135502999Y80847001D01*
X135503004Y78846999D02*
X135503004Y77746996D01*
X135503004Y76147001D02*
X135503004Y73447001D01*
X135503004Y69946999D02*
X135503004Y65146999D01*
X150803001Y63247003D02*
X135503002Y63247001D01*
X152303001Y83847001D02*
X136903001Y83847001D01*
X152303001Y83847001D02*
X152303001Y83547001D01*
X152303001Y81947001D02*
X152303001Y71546999D01*
X152303001Y69847001D02*
X152303001Y66646998D01*
G04 #@! TO.C,M3002*
X63651395Y62842585D02*
X97451405Y62842585D01*
X63651395Y27042595D02*
X63651395Y62842585D01*
X63651395Y27042595D02*
X97451405Y27042595D01*
X97451405Y27042595D02*
X97451405Y62842585D01*
G04 #@! TO.C,M6001*
X91038200Y86167401D02*
X100138200Y86167401D01*
X91038200Y83067398D02*
X91038200Y84067400D01*
X91038200Y83067398D02*
X100138200Y83067398D01*
G04 #@! TO.C,M3005*
X117819300Y65765566D02*
X117819300Y74190586D01*
X117819300Y65765566D02*
X123219299Y65765566D01*
X117844301Y74215587D02*
X118869300Y75240586D01*
X118869300Y78190565D02*
X119219302Y78540567D01*
X118869300Y75240586D02*
X118869300Y78190565D01*
X119219302Y78540567D02*
X122844299Y78540567D01*
X122844299Y78540567D02*
X123219299Y78165566D01*
X123219299Y65765566D02*
X123219299Y78165566D01*
G04 #@! TO.C,M3003*
X112915502Y51596540D02*
X112915502Y44703663D01*
X123759296Y51590337D02*
X112915502Y51590337D01*
X123815498Y51540337D02*
X123759296Y51590337D01*
X123815498Y51540337D02*
X123815498Y50715338D01*
X124090502Y50440332D02*
X123815498Y50715338D01*
X124090502Y50440332D02*
X124090502Y44742510D01*
X124090502Y44742510D02*
X112915502Y44703663D01*
G04 #@! TD*
M02*
