G04 #@! TF.GenerationSoftware,KiCad,Pcbnew,8.0.8-8.0.8-0~ubuntu24.04.1*
G04 #@! TF.CreationDate,2025-02-16T13:41:48+00:00*
G04 #@! TF.ProjectId,hellenbms46,68656c6c-656e-4626-9d73-34362e6b6963,rev?*
G04 #@! TF.SameCoordinates,PX4c4b400PY96ae380*
G04 #@! TF.FileFunction,Paste,Top*
G04 #@! TF.FilePolarity,Positive*
%FSLAX46Y46*%
G04 Gerber Fmt 4.6, Leading zero omitted, Abs format (unit mm)*
G04 Created by KiCad (PCBNEW 8.0.8-8.0.8-0~ubuntu24.04.1) date 2025-02-16 13:41:48*
%MOMM*%
%LPD*%
G01*
G04 APERTURE LIST*
%ADD10R,3.510000X2.540000*%
%ADD11O,0.000001X0.000001*%
G04 APERTURE END LIST*
D10*
G04 #@! TO.C,BT301*
X144078800Y54265200D03*
X144078800Y24905200D03*
G04 #@! TD*
G04 #@! TO.C,F403*
G36*
G01*
X25175500Y62239750D02*
X25175500Y62752250D01*
G75*
G02*
X25394250Y62971000I218750J0D01*
G01*
X25831750Y62971000D01*
G75*
G02*
X26050500Y62752250I0J-218750D01*
G01*
X26050500Y62239750D01*
G75*
G02*
X25831750Y62021000I-218750J0D01*
G01*
X25394250Y62021000D01*
G75*
G02*
X25175500Y62239750I0J218750D01*
G01*
G37*
G36*
G01*
X26750500Y62239750D02*
X26750500Y62752250D01*
G75*
G02*
X26969250Y62971000I218750J0D01*
G01*
X27406750Y62971000D01*
G75*
G02*
X27625500Y62752250I0J-218750D01*
G01*
X27625500Y62239750D01*
G75*
G02*
X27406750Y62021000I-218750J0D01*
G01*
X26969250Y62021000D01*
G75*
G02*
X26750500Y62239750I0J218750D01*
G01*
G37*
G04 #@! TD*
G04 #@! TO.C,F401*
G36*
G01*
X25175500Y77239750D02*
X25175500Y77752250D01*
G75*
G02*
X25394250Y77971000I218750J0D01*
G01*
X25831750Y77971000D01*
G75*
G02*
X26050500Y77752250I0J-218750D01*
G01*
X26050500Y77239750D01*
G75*
G02*
X25831750Y77021000I-218750J0D01*
G01*
X25394250Y77021000D01*
G75*
G02*
X25175500Y77239750I0J218750D01*
G01*
G37*
G36*
G01*
X26750500Y77239750D02*
X26750500Y77752250D01*
G75*
G02*
X26969250Y77971000I218750J0D01*
G01*
X27406750Y77971000D01*
G75*
G02*
X27625500Y77752250I0J-218750D01*
G01*
X27625500Y77239750D01*
G75*
G02*
X27406750Y77021000I-218750J0D01*
G01*
X26969250Y77021000D01*
G75*
G02*
X26750500Y77239750I0J218750D01*
G01*
G37*
G04 #@! TD*
G04 #@! TO.C,R401*
G36*
G01*
X21111000Y85779000D02*
X21111000Y82929000D01*
G75*
G02*
X20861000Y82679000I-250000J0D01*
G01*
X20136000Y82679000D01*
G75*
G02*
X19886000Y82929000I0J250000D01*
G01*
X19886000Y85779000D01*
G75*
G02*
X20136000Y86029000I250000J0D01*
G01*
X20861000Y86029000D01*
G75*
G02*
X21111000Y85779000I0J-250000D01*
G01*
G37*
G36*
G01*
X15186000Y85779000D02*
X15186000Y82929000D01*
G75*
G02*
X14936000Y82679000I-250000J0D01*
G01*
X14211000Y82679000D01*
G75*
G02*
X13961000Y82929000I0J250000D01*
G01*
X13961000Y85779000D01*
G75*
G02*
X14211000Y86029000I250000J0D01*
G01*
X14936000Y86029000D01*
G75*
G02*
X15186000Y85779000I0J-250000D01*
G01*
G37*
G04 #@! TD*
G04 #@! TO.C,U502*
G36*
G01*
X79257000Y77334000D02*
X78957000Y77334000D01*
G75*
G02*
X78807000Y77484000I0J150000D01*
G01*
X78807000Y79134000D01*
G75*
G02*
X78957000Y79284000I150000J0D01*
G01*
X79257000Y79284000D01*
G75*
G02*
X79407000Y79134000I0J-150000D01*
G01*
X79407000Y77484000D01*
G75*
G02*
X79257000Y77334000I-150000J0D01*
G01*
G37*
G36*
G01*
X80527000Y77334000D02*
X80227000Y77334000D01*
G75*
G02*
X80077000Y77484000I0J150000D01*
G01*
X80077000Y79134000D01*
G75*
G02*
X80227000Y79284000I150000J0D01*
G01*
X80527000Y79284000D01*
G75*
G02*
X80677000Y79134000I0J-150000D01*
G01*
X80677000Y77484000D01*
G75*
G02*
X80527000Y77334000I-150000J0D01*
G01*
G37*
G36*
G01*
X81797000Y77334000D02*
X81497000Y77334000D01*
G75*
G02*
X81347000Y77484000I0J150000D01*
G01*
X81347000Y79134000D01*
G75*
G02*
X81497000Y79284000I150000J0D01*
G01*
X81797000Y79284000D01*
G75*
G02*
X81947000Y79134000I0J-150000D01*
G01*
X81947000Y77484000D01*
G75*
G02*
X81797000Y77334000I-150000J0D01*
G01*
G37*
G36*
G01*
X83067000Y77334000D02*
X82767000Y77334000D01*
G75*
G02*
X82617000Y77484000I0J150000D01*
G01*
X82617000Y79134000D01*
G75*
G02*
X82767000Y79284000I150000J0D01*
G01*
X83067000Y79284000D01*
G75*
G02*
X83217000Y79134000I0J-150000D01*
G01*
X83217000Y77484000D01*
G75*
G02*
X83067000Y77334000I-150000J0D01*
G01*
G37*
G36*
G01*
X83067000Y82284000D02*
X82767000Y82284000D01*
G75*
G02*
X82617000Y82434000I0J150000D01*
G01*
X82617000Y84084000D01*
G75*
G02*
X82767000Y84234000I150000J0D01*
G01*
X83067000Y84234000D01*
G75*
G02*
X83217000Y84084000I0J-150000D01*
G01*
X83217000Y82434000D01*
G75*
G02*
X83067000Y82284000I-150000J0D01*
G01*
G37*
G36*
G01*
X81797000Y82284000D02*
X81497000Y82284000D01*
G75*
G02*
X81347000Y82434000I0J150000D01*
G01*
X81347000Y84084000D01*
G75*
G02*
X81497000Y84234000I150000J0D01*
G01*
X81797000Y84234000D01*
G75*
G02*
X81947000Y84084000I0J-150000D01*
G01*
X81947000Y82434000D01*
G75*
G02*
X81797000Y82284000I-150000J0D01*
G01*
G37*
G36*
G01*
X80527000Y82284000D02*
X80227000Y82284000D01*
G75*
G02*
X80077000Y82434000I0J150000D01*
G01*
X80077000Y84084000D01*
G75*
G02*
X80227000Y84234000I150000J0D01*
G01*
X80527000Y84234000D01*
G75*
G02*
X80677000Y84084000I0J-150000D01*
G01*
X80677000Y82434000D01*
G75*
G02*
X80527000Y82284000I-150000J0D01*
G01*
G37*
G36*
G01*
X79257000Y82284000D02*
X78957000Y82284000D01*
G75*
G02*
X78807000Y82434000I0J150000D01*
G01*
X78807000Y84084000D01*
G75*
G02*
X78957000Y84234000I150000J0D01*
G01*
X79257000Y84234000D01*
G75*
G02*
X79407000Y84084000I0J-150000D01*
G01*
X79407000Y82434000D01*
G75*
G02*
X79257000Y82284000I-150000J0D01*
G01*
G37*
G04 #@! TD*
G04 #@! TO.C,R502*
G36*
G01*
X77571954Y73257000D02*
X76791954Y73257000D01*
G75*
G02*
X76721954Y73327000I0J70000D01*
G01*
X76721954Y73887000D01*
G75*
G02*
X76791954Y73957000I70000J0D01*
G01*
X77571954Y73957000D01*
G75*
G02*
X77641954Y73887000I0J-70000D01*
G01*
X77641954Y73327000D01*
G75*
G02*
X77571954Y73257000I-70000J0D01*
G01*
G37*
G36*
G01*
X77571954Y74857000D02*
X76791954Y74857000D01*
G75*
G02*
X76721954Y74927000I0J70000D01*
G01*
X76721954Y75487000D01*
G75*
G02*
X76791954Y75557000I70000J0D01*
G01*
X77571954Y75557000D01*
G75*
G02*
X77641954Y75487000I0J-70000D01*
G01*
X77641954Y74927000D01*
G75*
G02*
X77571954Y74857000I-70000J0D01*
G01*
G37*
G04 #@! TD*
G04 #@! TO.C,U501*
G36*
G01*
X72677000Y77334000D02*
X72377000Y77334000D01*
G75*
G02*
X72227000Y77484000I0J150000D01*
G01*
X72227000Y79134000D01*
G75*
G02*
X72377000Y79284000I150000J0D01*
G01*
X72677000Y79284000D01*
G75*
G02*
X72827000Y79134000I0J-150000D01*
G01*
X72827000Y77484000D01*
G75*
G02*
X72677000Y77334000I-150000J0D01*
G01*
G37*
G36*
G01*
X73947000Y77334000D02*
X73647000Y77334000D01*
G75*
G02*
X73497000Y77484000I0J150000D01*
G01*
X73497000Y79134000D01*
G75*
G02*
X73647000Y79284000I150000J0D01*
G01*
X73947000Y79284000D01*
G75*
G02*
X74097000Y79134000I0J-150000D01*
G01*
X74097000Y77484000D01*
G75*
G02*
X73947000Y77334000I-150000J0D01*
G01*
G37*
G36*
G01*
X75217000Y77334000D02*
X74917000Y77334000D01*
G75*
G02*
X74767000Y77484000I0J150000D01*
G01*
X74767000Y79134000D01*
G75*
G02*
X74917000Y79284000I150000J0D01*
G01*
X75217000Y79284000D01*
G75*
G02*
X75367000Y79134000I0J-150000D01*
G01*
X75367000Y77484000D01*
G75*
G02*
X75217000Y77334000I-150000J0D01*
G01*
G37*
G36*
G01*
X76487000Y77334000D02*
X76187000Y77334000D01*
G75*
G02*
X76037000Y77484000I0J150000D01*
G01*
X76037000Y79134000D01*
G75*
G02*
X76187000Y79284000I150000J0D01*
G01*
X76487000Y79284000D01*
G75*
G02*
X76637000Y79134000I0J-150000D01*
G01*
X76637000Y77484000D01*
G75*
G02*
X76487000Y77334000I-150000J0D01*
G01*
G37*
G36*
G01*
X76487000Y82284000D02*
X76187000Y82284000D01*
G75*
G02*
X76037000Y82434000I0J150000D01*
G01*
X76037000Y84084000D01*
G75*
G02*
X76187000Y84234000I150000J0D01*
G01*
X76487000Y84234000D01*
G75*
G02*
X76637000Y84084000I0J-150000D01*
G01*
X76637000Y82434000D01*
G75*
G02*
X76487000Y82284000I-150000J0D01*
G01*
G37*
G36*
G01*
X75217000Y82284000D02*
X74917000Y82284000D01*
G75*
G02*
X74767000Y82434000I0J150000D01*
G01*
X74767000Y84084000D01*
G75*
G02*
X74917000Y84234000I150000J0D01*
G01*
X75217000Y84234000D01*
G75*
G02*
X75367000Y84084000I0J-150000D01*
G01*
X75367000Y82434000D01*
G75*
G02*
X75217000Y82284000I-150000J0D01*
G01*
G37*
G36*
G01*
X73947000Y82284000D02*
X73647000Y82284000D01*
G75*
G02*
X73497000Y82434000I0J150000D01*
G01*
X73497000Y84084000D01*
G75*
G02*
X73647000Y84234000I150000J0D01*
G01*
X73947000Y84234000D01*
G75*
G02*
X74097000Y84084000I0J-150000D01*
G01*
X74097000Y82434000D01*
G75*
G02*
X73947000Y82284000I-150000J0D01*
G01*
G37*
G36*
G01*
X72677000Y82284000D02*
X72377000Y82284000D01*
G75*
G02*
X72227000Y82434000I0J150000D01*
G01*
X72227000Y84084000D01*
G75*
G02*
X72377000Y84234000I150000J0D01*
G01*
X72677000Y84234000D01*
G75*
G02*
X72827000Y84084000I0J-150000D01*
G01*
X72827000Y82434000D01*
G75*
G02*
X72677000Y82284000I-150000J0D01*
G01*
G37*
G04 #@! TD*
G04 #@! TO.C,C602*
G36*
G01*
X107662400Y86680800D02*
X107662400Y87180800D01*
G75*
G02*
X107887400Y87405800I225000J0D01*
G01*
X108337400Y87405800D01*
G75*
G02*
X108562400Y87180800I0J-225000D01*
G01*
X108562400Y86680800D01*
G75*
G02*
X108337400Y86455800I-225000J0D01*
G01*
X107887400Y86455800D01*
G75*
G02*
X107662400Y86680800I0J225000D01*
G01*
G37*
G36*
G01*
X109212400Y86680800D02*
X109212400Y87180800D01*
G75*
G02*
X109437400Y87405800I225000J0D01*
G01*
X109887400Y87405800D01*
G75*
G02*
X110112400Y87180800I0J-225000D01*
G01*
X110112400Y86680800D01*
G75*
G02*
X109887400Y86455800I-225000J0D01*
G01*
X109437400Y86455800D01*
G75*
G02*
X109212400Y86680800I0J225000D01*
G01*
G37*
G04 #@! TD*
G04 #@! TO.C,R404*
G36*
G01*
X24225000Y30584000D02*
X23445000Y30584000D01*
G75*
G02*
X23375000Y30654000I0J70000D01*
G01*
X23375000Y31214000D01*
G75*
G02*
X23445000Y31284000I70000J0D01*
G01*
X24225000Y31284000D01*
G75*
G02*
X24295000Y31214000I0J-70000D01*
G01*
X24295000Y30654000D01*
G75*
G02*
X24225000Y30584000I-70000J0D01*
G01*
G37*
G36*
G01*
X24225000Y32184000D02*
X23445000Y32184000D01*
G75*
G02*
X23375000Y32254000I0J70000D01*
G01*
X23375000Y32814000D01*
G75*
G02*
X23445000Y32884000I70000J0D01*
G01*
X24225000Y32884000D01*
G75*
G02*
X24295000Y32814000I0J-70000D01*
G01*
X24295000Y32254000D01*
G75*
G02*
X24225000Y32184000I-70000J0D01*
G01*
G37*
G04 #@! TD*
G04 #@! TO.C,R407*
G36*
G01*
X21111000Y55779000D02*
X21111000Y52929000D01*
G75*
G02*
X20861000Y52679000I-250000J0D01*
G01*
X20136000Y52679000D01*
G75*
G02*
X19886000Y52929000I0J250000D01*
G01*
X19886000Y55779000D01*
G75*
G02*
X20136000Y56029000I250000J0D01*
G01*
X20861000Y56029000D01*
G75*
G02*
X21111000Y55779000I0J-250000D01*
G01*
G37*
G36*
G01*
X15186000Y55779000D02*
X15186000Y52929000D01*
G75*
G02*
X14936000Y52679000I-250000J0D01*
G01*
X14211000Y52679000D01*
G75*
G02*
X13961000Y52929000I0J250000D01*
G01*
X13961000Y55779000D01*
G75*
G02*
X14211000Y56029000I250000J0D01*
G01*
X14936000Y56029000D01*
G75*
G02*
X15186000Y55779000I0J-250000D01*
G01*
G37*
G04 #@! TD*
G04 #@! TO.C,D301*
G36*
G01*
X137811200Y58630400D02*
X138291200Y58630400D01*
G75*
G02*
X138351200Y58570400I0J-60000D01*
G01*
X138351200Y58090400D01*
G75*
G02*
X138291200Y58030400I-60000J0D01*
G01*
X137811200Y58030400D01*
G75*
G02*
X137751200Y58090400I0J60000D01*
G01*
X137751200Y58570400D01*
G75*
G02*
X137811200Y58630400I60000J0D01*
G01*
G37*
G36*
G01*
X140011200Y58630400D02*
X140491200Y58630400D01*
G75*
G02*
X140551200Y58570400I0J-60000D01*
G01*
X140551200Y58090400D01*
G75*
G02*
X140491200Y58030400I-60000J0D01*
G01*
X140011200Y58030400D01*
G75*
G02*
X139951200Y58090400I0J60000D01*
G01*
X139951200Y58570400D01*
G75*
G02*
X140011200Y58630400I60000J0D01*
G01*
G37*
G04 #@! TD*
G04 #@! TO.C,Q402*
G36*
G01*
X20872000Y30566000D02*
X20872000Y29866000D01*
G75*
G02*
X20622000Y29616000I-250000J0D01*
G01*
X18922000Y29616000D01*
G75*
G02*
X18672000Y29866000I0J250000D01*
G01*
X18672000Y30566000D01*
G75*
G02*
X18922000Y30816000I250000J0D01*
G01*
X20622000Y30816000D01*
G75*
G02*
X20872000Y30566000I0J-250000D01*
G01*
G37*
G36*
G01*
X16672000Y32096000D02*
X16672000Y29846000D01*
G75*
G02*
X16422000Y29596000I-250000J0D01*
G01*
X13872000Y29596000D01*
G75*
G02*
X13622000Y29846000I0J250000D01*
G01*
X13622000Y32096000D01*
G75*
G02*
X13872000Y32346000I250000J0D01*
G01*
X16422000Y32346000D01*
G75*
G02*
X16672000Y32096000I0J-250000D01*
G01*
G37*
G36*
G01*
X16672000Y35146000D02*
X16672000Y32896000D01*
G75*
G02*
X16422000Y32646000I-250000J0D01*
G01*
X13872000Y32646000D01*
G75*
G02*
X13622000Y32896000I0J250000D01*
G01*
X13622000Y35146000D01*
G75*
G02*
X13872000Y35396000I250000J0D01*
G01*
X16422000Y35396000D01*
G75*
G02*
X16672000Y35146000I0J-250000D01*
G01*
G37*
G36*
G01*
X13322000Y32096000D02*
X13322000Y29846000D01*
G75*
G02*
X13072000Y29596000I-250000J0D01*
G01*
X10522000Y29596000D01*
G75*
G02*
X10272000Y29846000I0J250000D01*
G01*
X10272000Y32096000D01*
G75*
G02*
X10522000Y32346000I250000J0D01*
G01*
X13072000Y32346000D01*
G75*
G02*
X13322000Y32096000I0J-250000D01*
G01*
G37*
G36*
G01*
X13322000Y35146000D02*
X13322000Y32896000D01*
G75*
G02*
X13072000Y32646000I-250000J0D01*
G01*
X10522000Y32646000D01*
G75*
G02*
X10272000Y32896000I0J250000D01*
G01*
X10272000Y35146000D01*
G75*
G02*
X10522000Y35396000I250000J0D01*
G01*
X13072000Y35396000D01*
G75*
G02*
X13322000Y35146000I0J-250000D01*
G01*
G37*
G36*
G01*
X20872000Y35126000D02*
X20872000Y34426000D01*
G75*
G02*
X20622000Y34176000I-250000J0D01*
G01*
X18922000Y34176000D01*
G75*
G02*
X18672000Y34426000I0J250000D01*
G01*
X18672000Y35126000D01*
G75*
G02*
X18922000Y35376000I250000J0D01*
G01*
X20622000Y35376000D01*
G75*
G02*
X20872000Y35126000I0J-250000D01*
G01*
G37*
G04 #@! TD*
G04 #@! TO.C,R501*
G36*
G01*
X75622908Y73257000D02*
X74842908Y73257000D01*
G75*
G02*
X74772908Y73327000I0J70000D01*
G01*
X74772908Y73887000D01*
G75*
G02*
X74842908Y73957000I70000J0D01*
G01*
X75622908Y73957000D01*
G75*
G02*
X75692908Y73887000I0J-70000D01*
G01*
X75692908Y73327000D01*
G75*
G02*
X75622908Y73257000I-70000J0D01*
G01*
G37*
G36*
G01*
X75622908Y74857000D02*
X74842908Y74857000D01*
G75*
G02*
X74772908Y74927000I0J70000D01*
G01*
X74772908Y75487000D01*
G75*
G02*
X74842908Y75557000I70000J0D01*
G01*
X75622908Y75557000D01*
G75*
G02*
X75692908Y75487000I0J-70000D01*
G01*
X75692908Y74927000D01*
G75*
G02*
X75622908Y74857000I-70000J0D01*
G01*
G37*
G04 #@! TD*
G04 #@! TO.C,C603*
G36*
G01*
X115066200Y82515200D02*
X115066200Y83015200D01*
G75*
G02*
X115291200Y83240200I225000J0D01*
G01*
X115741200Y83240200D01*
G75*
G02*
X115966200Y83015200I0J-225000D01*
G01*
X115966200Y82515200D01*
G75*
G02*
X115741200Y82290200I-225000J0D01*
G01*
X115291200Y82290200D01*
G75*
G02*
X115066200Y82515200I0J225000D01*
G01*
G37*
G36*
G01*
X116616200Y82515200D02*
X116616200Y83015200D01*
G75*
G02*
X116841200Y83240200I225000J0D01*
G01*
X117291200Y83240200D01*
G75*
G02*
X117516200Y83015200I0J-225000D01*
G01*
X117516200Y82515200D01*
G75*
G02*
X117291200Y82290200I-225000J0D01*
G01*
X116841200Y82290200D01*
G75*
G02*
X116616200Y82515200I0J225000D01*
G01*
G37*
G04 #@! TD*
G04 #@! TO.C,F404*
G36*
G01*
X25175500Y47239750D02*
X25175500Y47752250D01*
G75*
G02*
X25394250Y47971000I218750J0D01*
G01*
X25831750Y47971000D01*
G75*
G02*
X26050500Y47752250I0J-218750D01*
G01*
X26050500Y47239750D01*
G75*
G02*
X25831750Y47021000I-218750J0D01*
G01*
X25394250Y47021000D01*
G75*
G02*
X25175500Y47239750I0J218750D01*
G01*
G37*
G36*
G01*
X26750500Y47239750D02*
X26750500Y47752250D01*
G75*
G02*
X26969250Y47971000I218750J0D01*
G01*
X27406750Y47971000D01*
G75*
G02*
X27625500Y47752250I0J-218750D01*
G01*
X27625500Y47239750D01*
G75*
G02*
X27406750Y47021000I-218750J0D01*
G01*
X26969250Y47021000D01*
G75*
G02*
X26750500Y47239750I0J218750D01*
G01*
G37*
G04 #@! TD*
G04 #@! TO.C,R405*
G36*
G01*
X21111000Y70779000D02*
X21111000Y67929000D01*
G75*
G02*
X20861000Y67679000I-250000J0D01*
G01*
X20136000Y67679000D01*
G75*
G02*
X19886000Y67929000I0J250000D01*
G01*
X19886000Y70779000D01*
G75*
G02*
X20136000Y71029000I250000J0D01*
G01*
X20861000Y71029000D01*
G75*
G02*
X21111000Y70779000I0J-250000D01*
G01*
G37*
G36*
G01*
X15186000Y70779000D02*
X15186000Y67929000D01*
G75*
G02*
X14936000Y67679000I-250000J0D01*
G01*
X14211000Y67679000D01*
G75*
G02*
X13961000Y67929000I0J250000D01*
G01*
X13961000Y70779000D01*
G75*
G02*
X14211000Y71029000I250000J0D01*
G01*
X14936000Y71029000D01*
G75*
G02*
X15186000Y70779000I0J-250000D01*
G01*
G37*
G04 #@! TD*
G04 #@! TO.C,R403*
G36*
G01*
X24225000Y75584000D02*
X23445000Y75584000D01*
G75*
G02*
X23375000Y75654000I0J70000D01*
G01*
X23375000Y76214000D01*
G75*
G02*
X23445000Y76284000I70000J0D01*
G01*
X24225000Y76284000D01*
G75*
G02*
X24295000Y76214000I0J-70000D01*
G01*
X24295000Y75654000D01*
G75*
G02*
X24225000Y75584000I-70000J0D01*
G01*
G37*
G36*
G01*
X24225000Y77184000D02*
X23445000Y77184000D01*
G75*
G02*
X23375000Y77254000I0J70000D01*
G01*
X23375000Y77814000D01*
G75*
G02*
X23445000Y77884000I70000J0D01*
G01*
X24225000Y77884000D01*
G75*
G02*
X24295000Y77814000I0J-70000D01*
G01*
X24295000Y77254000D01*
G75*
G02*
X24225000Y77184000I-70000J0D01*
G01*
G37*
G04 #@! TD*
G04 #@! TO.C,F402*
G36*
G01*
X25175500Y32239750D02*
X25175500Y32752250D01*
G75*
G02*
X25394250Y32971000I218750J0D01*
G01*
X25831750Y32971000D01*
G75*
G02*
X26050500Y32752250I0J-218750D01*
G01*
X26050500Y32239750D01*
G75*
G02*
X25831750Y32021000I-218750J0D01*
G01*
X25394250Y32021000D01*
G75*
G02*
X25175500Y32239750I0J218750D01*
G01*
G37*
G36*
G01*
X26750500Y32239750D02*
X26750500Y32752250D01*
G75*
G02*
X26969250Y32971000I218750J0D01*
G01*
X27406750Y32971000D01*
G75*
G02*
X27625500Y32752250I0J-218750D01*
G01*
X27625500Y32239750D01*
G75*
G02*
X27406750Y32021000I-218750J0D01*
G01*
X26969250Y32021000D01*
G75*
G02*
X26750500Y32239750I0J218750D01*
G01*
G37*
G04 #@! TD*
G04 #@! TO.C,Q403*
G36*
G01*
X20872000Y60566000D02*
X20872000Y59866000D01*
G75*
G02*
X20622000Y59616000I-250000J0D01*
G01*
X18922000Y59616000D01*
G75*
G02*
X18672000Y59866000I0J250000D01*
G01*
X18672000Y60566000D01*
G75*
G02*
X18922000Y60816000I250000J0D01*
G01*
X20622000Y60816000D01*
G75*
G02*
X20872000Y60566000I0J-250000D01*
G01*
G37*
G36*
G01*
X16672000Y62096000D02*
X16672000Y59846000D01*
G75*
G02*
X16422000Y59596000I-250000J0D01*
G01*
X13872000Y59596000D01*
G75*
G02*
X13622000Y59846000I0J250000D01*
G01*
X13622000Y62096000D01*
G75*
G02*
X13872000Y62346000I250000J0D01*
G01*
X16422000Y62346000D01*
G75*
G02*
X16672000Y62096000I0J-250000D01*
G01*
G37*
G36*
G01*
X16672000Y65146000D02*
X16672000Y62896000D01*
G75*
G02*
X16422000Y62646000I-250000J0D01*
G01*
X13872000Y62646000D01*
G75*
G02*
X13622000Y62896000I0J250000D01*
G01*
X13622000Y65146000D01*
G75*
G02*
X13872000Y65396000I250000J0D01*
G01*
X16422000Y65396000D01*
G75*
G02*
X16672000Y65146000I0J-250000D01*
G01*
G37*
G36*
G01*
X13322000Y62096000D02*
X13322000Y59846000D01*
G75*
G02*
X13072000Y59596000I-250000J0D01*
G01*
X10522000Y59596000D01*
G75*
G02*
X10272000Y59846000I0J250000D01*
G01*
X10272000Y62096000D01*
G75*
G02*
X10522000Y62346000I250000J0D01*
G01*
X13072000Y62346000D01*
G75*
G02*
X13322000Y62096000I0J-250000D01*
G01*
G37*
G36*
G01*
X13322000Y65146000D02*
X13322000Y62896000D01*
G75*
G02*
X13072000Y62646000I-250000J0D01*
G01*
X10522000Y62646000D01*
G75*
G02*
X10272000Y62896000I0J250000D01*
G01*
X10272000Y65146000D01*
G75*
G02*
X10522000Y65396000I250000J0D01*
G01*
X13072000Y65396000D01*
G75*
G02*
X13322000Y65146000I0J-250000D01*
G01*
G37*
G36*
G01*
X20872000Y65126000D02*
X20872000Y64426000D01*
G75*
G02*
X20622000Y64176000I-250000J0D01*
G01*
X18922000Y64176000D01*
G75*
G02*
X18672000Y64426000I0J250000D01*
G01*
X18672000Y65126000D01*
G75*
G02*
X18922000Y65376000I250000J0D01*
G01*
X20622000Y65376000D01*
G75*
G02*
X20872000Y65126000I0J-250000D01*
G01*
G37*
G04 #@! TD*
G04 #@! TO.C,R406*
G36*
G01*
X24225000Y60584000D02*
X23445000Y60584000D01*
G75*
G02*
X23375000Y60654000I0J70000D01*
G01*
X23375000Y61214000D01*
G75*
G02*
X23445000Y61284000I70000J0D01*
G01*
X24225000Y61284000D01*
G75*
G02*
X24295000Y61214000I0J-70000D01*
G01*
X24295000Y60654000D01*
G75*
G02*
X24225000Y60584000I-70000J0D01*
G01*
G37*
G36*
G01*
X24225000Y62184000D02*
X23445000Y62184000D01*
G75*
G02*
X23375000Y62254000I0J70000D01*
G01*
X23375000Y62814000D01*
G75*
G02*
X23445000Y62884000I70000J0D01*
G01*
X24225000Y62884000D01*
G75*
G02*
X24295000Y62814000I0J-70000D01*
G01*
X24295000Y62254000D01*
G75*
G02*
X24225000Y62184000I-70000J0D01*
G01*
G37*
G04 #@! TD*
G04 #@! TO.C,R402*
G36*
G01*
X21111000Y40779000D02*
X21111000Y37929000D01*
G75*
G02*
X20861000Y37679000I-250000J0D01*
G01*
X20136000Y37679000D01*
G75*
G02*
X19886000Y37929000I0J250000D01*
G01*
X19886000Y40779000D01*
G75*
G02*
X20136000Y41029000I250000J0D01*
G01*
X20861000Y41029000D01*
G75*
G02*
X21111000Y40779000I0J-250000D01*
G01*
G37*
G36*
G01*
X15186000Y40779000D02*
X15186000Y37929000D01*
G75*
G02*
X14936000Y37679000I-250000J0D01*
G01*
X14211000Y37679000D01*
G75*
G02*
X13961000Y37929000I0J250000D01*
G01*
X13961000Y40779000D01*
G75*
G02*
X14211000Y41029000I250000J0D01*
G01*
X14936000Y41029000D01*
G75*
G02*
X15186000Y40779000I0J-250000D01*
G01*
G37*
G04 #@! TD*
G04 #@! TO.C,Q404*
G36*
G01*
X20872000Y45566000D02*
X20872000Y44866000D01*
G75*
G02*
X20622000Y44616000I-250000J0D01*
G01*
X18922000Y44616000D01*
G75*
G02*
X18672000Y44866000I0J250000D01*
G01*
X18672000Y45566000D01*
G75*
G02*
X18922000Y45816000I250000J0D01*
G01*
X20622000Y45816000D01*
G75*
G02*
X20872000Y45566000I0J-250000D01*
G01*
G37*
G36*
G01*
X16672000Y47096000D02*
X16672000Y44846000D01*
G75*
G02*
X16422000Y44596000I-250000J0D01*
G01*
X13872000Y44596000D01*
G75*
G02*
X13622000Y44846000I0J250000D01*
G01*
X13622000Y47096000D01*
G75*
G02*
X13872000Y47346000I250000J0D01*
G01*
X16422000Y47346000D01*
G75*
G02*
X16672000Y47096000I0J-250000D01*
G01*
G37*
G36*
G01*
X16672000Y50146000D02*
X16672000Y47896000D01*
G75*
G02*
X16422000Y47646000I-250000J0D01*
G01*
X13872000Y47646000D01*
G75*
G02*
X13622000Y47896000I0J250000D01*
G01*
X13622000Y50146000D01*
G75*
G02*
X13872000Y50396000I250000J0D01*
G01*
X16422000Y50396000D01*
G75*
G02*
X16672000Y50146000I0J-250000D01*
G01*
G37*
G36*
G01*
X13322000Y47096000D02*
X13322000Y44846000D01*
G75*
G02*
X13072000Y44596000I-250000J0D01*
G01*
X10522000Y44596000D01*
G75*
G02*
X10272000Y44846000I0J250000D01*
G01*
X10272000Y47096000D01*
G75*
G02*
X10522000Y47346000I250000J0D01*
G01*
X13072000Y47346000D01*
G75*
G02*
X13322000Y47096000I0J-250000D01*
G01*
G37*
G36*
G01*
X13322000Y50146000D02*
X13322000Y47896000D01*
G75*
G02*
X13072000Y47646000I-250000J0D01*
G01*
X10522000Y47646000D01*
G75*
G02*
X10272000Y47896000I0J250000D01*
G01*
X10272000Y50146000D01*
G75*
G02*
X10522000Y50396000I250000J0D01*
G01*
X13072000Y50396000D01*
G75*
G02*
X13322000Y50146000I0J-250000D01*
G01*
G37*
G36*
G01*
X20872000Y50126000D02*
X20872000Y49426000D01*
G75*
G02*
X20622000Y49176000I-250000J0D01*
G01*
X18922000Y49176000D01*
G75*
G02*
X18672000Y49426000I0J250000D01*
G01*
X18672000Y50126000D01*
G75*
G02*
X18922000Y50376000I250000J0D01*
G01*
X20622000Y50376000D01*
G75*
G02*
X20872000Y50126000I0J-250000D01*
G01*
G37*
G04 #@! TD*
G04 #@! TO.C,C601*
G36*
G01*
X115015400Y85055200D02*
X115015400Y85555200D01*
G75*
G02*
X115240400Y85780200I225000J0D01*
G01*
X115690400Y85780200D01*
G75*
G02*
X115915400Y85555200I0J-225000D01*
G01*
X115915400Y85055200D01*
G75*
G02*
X115690400Y84830200I-225000J0D01*
G01*
X115240400Y84830200D01*
G75*
G02*
X115015400Y85055200I0J225000D01*
G01*
G37*
G36*
G01*
X116565400Y85055200D02*
X116565400Y85555200D01*
G75*
G02*
X116790400Y85780200I225000J0D01*
G01*
X117240400Y85780200D01*
G75*
G02*
X117465400Y85555200I0J-225000D01*
G01*
X117465400Y85055200D01*
G75*
G02*
X117240400Y84830200I-225000J0D01*
G01*
X116790400Y84830200D01*
G75*
G02*
X116565400Y85055200I0J225000D01*
G01*
G37*
G04 #@! TD*
D11*
G04 #@! TO.C,M304*
X119344301Y78065556D03*
G04 #@! TD*
G04 #@! TO.C,M302*
X117815500Y51415334D03*
G04 #@! TD*
G04 #@! TO.C,R504*
G36*
G01*
X81470046Y73257000D02*
X80690046Y73257000D01*
G75*
G02*
X80620046Y73327000I0J70000D01*
G01*
X80620046Y73887000D01*
G75*
G02*
X80690046Y73957000I70000J0D01*
G01*
X81470046Y73957000D01*
G75*
G02*
X81540046Y73887000I0J-70000D01*
G01*
X81540046Y73327000D01*
G75*
G02*
X81470046Y73257000I-70000J0D01*
G01*
G37*
G36*
G01*
X81470046Y74857000D02*
X80690046Y74857000D01*
G75*
G02*
X80620046Y74927000I0J70000D01*
G01*
X80620046Y75487000D01*
G75*
G02*
X80690046Y75557000I70000J0D01*
G01*
X81470046Y75557000D01*
G75*
G02*
X81540046Y75487000I0J-70000D01*
G01*
X81540046Y74927000D01*
G75*
G02*
X81470046Y74857000I-70000J0D01*
G01*
G37*
G04 #@! TD*
G04 #@! TO.C,U601*
G36*
G01*
X107133200Y85163400D02*
X107133200Y85463400D01*
G75*
G02*
X107283200Y85613400I150000J0D01*
G01*
X108933200Y85613400D01*
G75*
G02*
X109083200Y85463400I0J-150000D01*
G01*
X109083200Y85163400D01*
G75*
G02*
X108933200Y85013400I-150000J0D01*
G01*
X107283200Y85013400D01*
G75*
G02*
X107133200Y85163400I0J150000D01*
G01*
G37*
G36*
G01*
X107133200Y83893400D02*
X107133200Y84193400D01*
G75*
G02*
X107283200Y84343400I150000J0D01*
G01*
X108933200Y84343400D01*
G75*
G02*
X109083200Y84193400I0J-150000D01*
G01*
X109083200Y83893400D01*
G75*
G02*
X108933200Y83743400I-150000J0D01*
G01*
X107283200Y83743400D01*
G75*
G02*
X107133200Y83893400I0J150000D01*
G01*
G37*
G36*
G01*
X107133200Y82623400D02*
X107133200Y82923400D01*
G75*
G02*
X107283200Y83073400I150000J0D01*
G01*
X108933200Y83073400D01*
G75*
G02*
X109083200Y82923400I0J-150000D01*
G01*
X109083200Y82623400D01*
G75*
G02*
X108933200Y82473400I-150000J0D01*
G01*
X107283200Y82473400D01*
G75*
G02*
X107133200Y82623400I0J150000D01*
G01*
G37*
G36*
G01*
X107133200Y81353400D02*
X107133200Y81653400D01*
G75*
G02*
X107283200Y81803400I150000J0D01*
G01*
X108933200Y81803400D01*
G75*
G02*
X109083200Y81653400I0J-150000D01*
G01*
X109083200Y81353400D01*
G75*
G02*
X108933200Y81203400I-150000J0D01*
G01*
X107283200Y81203400D01*
G75*
G02*
X107133200Y81353400I0J150000D01*
G01*
G37*
G36*
G01*
X112083200Y81353400D02*
X112083200Y81653400D01*
G75*
G02*
X112233200Y81803400I150000J0D01*
G01*
X113883200Y81803400D01*
G75*
G02*
X114033200Y81653400I0J-150000D01*
G01*
X114033200Y81353400D01*
G75*
G02*
X113883200Y81203400I-150000J0D01*
G01*
X112233200Y81203400D01*
G75*
G02*
X112083200Y81353400I0J150000D01*
G01*
G37*
G36*
G01*
X112083200Y82623400D02*
X112083200Y82923400D01*
G75*
G02*
X112233200Y83073400I150000J0D01*
G01*
X113883200Y83073400D01*
G75*
G02*
X114033200Y82923400I0J-150000D01*
G01*
X114033200Y82623400D01*
G75*
G02*
X113883200Y82473400I-150000J0D01*
G01*
X112233200Y82473400D01*
G75*
G02*
X112083200Y82623400I0J150000D01*
G01*
G37*
G36*
G01*
X112083200Y83893400D02*
X112083200Y84193400D01*
G75*
G02*
X112233200Y84343400I150000J0D01*
G01*
X113883200Y84343400D01*
G75*
G02*
X114033200Y84193400I0J-150000D01*
G01*
X114033200Y83893400D01*
G75*
G02*
X113883200Y83743400I-150000J0D01*
G01*
X112233200Y83743400D01*
G75*
G02*
X112083200Y83893400I0J150000D01*
G01*
G37*
G36*
G01*
X112083200Y85163400D02*
X112083200Y85463400D01*
G75*
G02*
X112233200Y85613400I150000J0D01*
G01*
X113883200Y85613400D01*
G75*
G02*
X114033200Y85463400I0J-150000D01*
G01*
X114033200Y85163400D01*
G75*
G02*
X113883200Y85013400I-150000J0D01*
G01*
X112233200Y85013400D01*
G75*
G02*
X112083200Y85163400I0J150000D01*
G01*
G37*
G04 #@! TD*
G04 #@! TO.C,Q401*
G36*
G01*
X20872000Y75566000D02*
X20872000Y74866000D01*
G75*
G02*
X20622000Y74616000I-250000J0D01*
G01*
X18922000Y74616000D01*
G75*
G02*
X18672000Y74866000I0J250000D01*
G01*
X18672000Y75566000D01*
G75*
G02*
X18922000Y75816000I250000J0D01*
G01*
X20622000Y75816000D01*
G75*
G02*
X20872000Y75566000I0J-250000D01*
G01*
G37*
G36*
G01*
X16672000Y77096000D02*
X16672000Y74846000D01*
G75*
G02*
X16422000Y74596000I-250000J0D01*
G01*
X13872000Y74596000D01*
G75*
G02*
X13622000Y74846000I0J250000D01*
G01*
X13622000Y77096000D01*
G75*
G02*
X13872000Y77346000I250000J0D01*
G01*
X16422000Y77346000D01*
G75*
G02*
X16672000Y77096000I0J-250000D01*
G01*
G37*
G36*
G01*
X16672000Y80146000D02*
X16672000Y77896000D01*
G75*
G02*
X16422000Y77646000I-250000J0D01*
G01*
X13872000Y77646000D01*
G75*
G02*
X13622000Y77896000I0J250000D01*
G01*
X13622000Y80146000D01*
G75*
G02*
X13872000Y80396000I250000J0D01*
G01*
X16422000Y80396000D01*
G75*
G02*
X16672000Y80146000I0J-250000D01*
G01*
G37*
G36*
G01*
X13322000Y77096000D02*
X13322000Y74846000D01*
G75*
G02*
X13072000Y74596000I-250000J0D01*
G01*
X10522000Y74596000D01*
G75*
G02*
X10272000Y74846000I0J250000D01*
G01*
X10272000Y77096000D01*
G75*
G02*
X10522000Y77346000I250000J0D01*
G01*
X13072000Y77346000D01*
G75*
G02*
X13322000Y77096000I0J-250000D01*
G01*
G37*
G36*
G01*
X13322000Y80146000D02*
X13322000Y77896000D01*
G75*
G02*
X13072000Y77646000I-250000J0D01*
G01*
X10522000Y77646000D01*
G75*
G02*
X10272000Y77896000I0J250000D01*
G01*
X10272000Y80146000D01*
G75*
G02*
X10522000Y80396000I250000J0D01*
G01*
X13072000Y80396000D01*
G75*
G02*
X13322000Y80146000I0J-250000D01*
G01*
G37*
G36*
G01*
X20872000Y80126000D02*
X20872000Y79426000D01*
G75*
G02*
X20622000Y79176000I-250000J0D01*
G01*
X18922000Y79176000D01*
G75*
G02*
X18672000Y79426000I0J250000D01*
G01*
X18672000Y80126000D01*
G75*
G02*
X18922000Y80376000I250000J0D01*
G01*
X20622000Y80376000D01*
G75*
G02*
X20872000Y80126000I0J-250000D01*
G01*
G37*
G04 #@! TD*
G04 #@! TO.C,R408*
G36*
G01*
X24225000Y45584000D02*
X23445000Y45584000D01*
G75*
G02*
X23375000Y45654000I0J70000D01*
G01*
X23375000Y46214000D01*
G75*
G02*
X23445000Y46284000I70000J0D01*
G01*
X24225000Y46284000D01*
G75*
G02*
X24295000Y46214000I0J-70000D01*
G01*
X24295000Y45654000D01*
G75*
G02*
X24225000Y45584000I-70000J0D01*
G01*
G37*
G36*
G01*
X24225000Y47184000D02*
X23445000Y47184000D01*
G75*
G02*
X23375000Y47254000I0J70000D01*
G01*
X23375000Y47814000D01*
G75*
G02*
X23445000Y47884000I70000J0D01*
G01*
X24225000Y47884000D01*
G75*
G02*
X24295000Y47814000I0J-70000D01*
G01*
X24295000Y47254000D01*
G75*
G02*
X24225000Y47184000I-70000J0D01*
G01*
G37*
G04 #@! TD*
G04 #@! TO.C,R503*
G36*
G01*
X79521000Y73257000D02*
X78741000Y73257000D01*
G75*
G02*
X78671000Y73327000I0J70000D01*
G01*
X78671000Y73887000D01*
G75*
G02*
X78741000Y73957000I70000J0D01*
G01*
X79521000Y73957000D01*
G75*
G02*
X79591000Y73887000I0J-70000D01*
G01*
X79591000Y73327000D01*
G75*
G02*
X79521000Y73257000I-70000J0D01*
G01*
G37*
G36*
G01*
X79521000Y74857000D02*
X78741000Y74857000D01*
G75*
G02*
X78671000Y74927000I0J70000D01*
G01*
X78671000Y75487000D01*
G75*
G02*
X78741000Y75557000I70000J0D01*
G01*
X79521000Y75557000D01*
G75*
G02*
X79591000Y75487000I0J-70000D01*
G01*
X79591000Y74927000D01*
G75*
G02*
X79521000Y74857000I-70000J0D01*
G01*
G37*
G04 #@! TD*
M02*
