G04 #@! TF.GenerationSoftware,KiCad,Pcbnew,8.0.8-8.0.8-0~ubuntu24.04.1*
G04 #@! TF.CreationDate,2025-02-16T13:52:43+00:00*
G04 #@! TF.ProjectId,hellenbms46,68656c6c-656e-4626-9d73-34362e6b6963,rev?*
G04 #@! TF.SameCoordinates,PX4c4b400PY96ae380*
G04 #@! TF.FileFunction,Soldermask,Bot*
G04 #@! TF.FilePolarity,Negative*
%FSLAX46Y46*%
G04 Gerber Fmt 4.6, Leading zero omitted, Abs format (unit mm)*
G04 Created by KiCad (PCBNEW 8.0.8-8.0.8-0~ubuntu24.04.1) date 2025-02-16 13:52:43*
%MOMM*%
%LPD*%
G01*
G04 APERTURE LIST*
%ADD10C,2.750000*%
%ADD11C,1.500000*%
%ADD12C,0.600000*%
%ADD13R,1.700000X1.700000*%
%ADD14C,1.700000*%
%ADD15C,3.500000*%
%ADD16C,3.000000*%
%ADD17O,2.700000X3.700000*%
%ADD18C,0.599999*%
%ADD19C,2.200000*%
%ADD20C,3.700000*%
%ADD21C,1.900000*%
G04 APERTURE END LIST*
D10*
G04 #@! TO.C,J2001*
X57565600Y17995200D03*
X89265600Y17995200D03*
D11*
X60415600Y19295200D03*
X62415600Y19295200D03*
X64415600Y19295200D03*
X66415600Y19295200D03*
X68415600Y19295200D03*
X78415600Y19295200D03*
X80415600Y19295200D03*
X82415600Y19295200D03*
X84415600Y19295200D03*
X86415600Y19295200D03*
X60415600Y17095200D03*
X62415600Y17095200D03*
X64415600Y17095200D03*
X66415600Y17095200D03*
X68415600Y17095200D03*
X70415600Y17095200D03*
X72415600Y17095200D03*
X74415600Y17095200D03*
X76415600Y17095200D03*
X78415600Y17095200D03*
X80415600Y17095200D03*
X82415600Y17095200D03*
X84415600Y17095200D03*
X86415600Y17095200D03*
G04 #@! TD*
D12*
G04 #@! TO.C,M6002*
X99932800Y81924196D03*
X99932800Y80974196D03*
X99932800Y80024198D03*
X91232800Y81024196D03*
X91232800Y81924196D03*
G04 #@! TD*
D11*
G04 #@! TO.C,M3001*
X136153005Y64347001D03*
X136153005Y70746998D03*
X136153005Y72647001D03*
X136153005Y76947001D03*
D12*
X135703006Y79346998D03*
X135703006Y80346999D03*
D11*
X136153005Y83197001D03*
X151653002Y63896999D03*
X151653002Y65746998D03*
X151653002Y70697001D03*
X151653002Y82746999D03*
G04 #@! TD*
D13*
G04 #@! TO.C,J3001*
X144541600Y15186800D03*
D14*
X142041600Y15186800D03*
X142041600Y13186800D03*
X144541600Y13186800D03*
D15*
X149311600Y10476800D03*
X137271600Y10476800D03*
G04 #@! TD*
D12*
G04 #@! TO.C,M6001*
X99938200Y85567398D03*
X99938200Y84617398D03*
X99938200Y83667400D03*
X91238200Y84667398D03*
X91238200Y85567398D03*
G04 #@! TD*
D16*
G04 #@! TO.C,J2002*
X42564000Y6655000D03*
X34164000Y6655000D03*
G36*
G01*
X43914000Y15554999D02*
X43914000Y12355001D01*
G75*
G02*
X43663999Y12105000I-250001J0D01*
G01*
X41464001Y12105000D01*
G75*
G02*
X41214000Y12355001I0J250001D01*
G01*
X41214000Y15554999D01*
G75*
G02*
X41464001Y15805000I250001J0D01*
G01*
X43663999Y15805000D01*
G75*
G02*
X43914000Y15554999I0J-250001D01*
G01*
G37*
D17*
X38364000Y13955000D03*
X34164000Y13955000D03*
X42564000Y19455000D03*
X38364000Y19455000D03*
X34164000Y19455000D03*
G04 #@! TD*
D18*
G04 #@! TO.C,M3005*
X120424293Y75290566D03*
X118594300Y68865567D03*
X119869298Y68865567D03*
X121519287Y68865567D03*
X122419298Y68865567D03*
G04 #@! TD*
G04 #@! TO.C,M3003*
X116490502Y50315338D03*
X117365504Y49790338D03*
X116190500Y49040340D03*
X116265503Y45490339D03*
G04 #@! TD*
D19*
G04 #@! TO.C,P2001*
X147376500Y106645000D03*
D20*
X145344500Y111540000D03*
X18630500Y111540000D03*
D19*
X16576500Y106645000D03*
D21*
X138231500Y104420000D03*
X133236500Y104420000D03*
X128240500Y104420000D03*
X138231500Y98719000D03*
X133236500Y98719000D03*
X128240500Y98719000D03*
X138231500Y93019000D03*
X133236500Y93019000D03*
X128240500Y93019000D03*
D11*
X121233500Y105012000D03*
X118693500Y105012000D03*
X116153500Y105012000D03*
X113613500Y105012000D03*
X111072500Y105012000D03*
X108532500Y105012000D03*
X121233500Y102469000D03*
X118693500Y102469000D03*
X116153500Y102469000D03*
X113613500Y102469000D03*
X111072500Y102469000D03*
X108532500Y102469000D03*
X121233500Y96430000D03*
X118693500Y96430000D03*
X116153500Y96430000D03*
X113613500Y96430000D03*
X111072500Y96430000D03*
X108532500Y96430000D03*
X121233500Y93867000D03*
X118693500Y93867000D03*
X116153500Y93867000D03*
X113613500Y93867000D03*
X111072500Y93867000D03*
X108532500Y93867000D03*
X102838500Y105012000D03*
X100298500Y105012000D03*
X97758500Y105012000D03*
X95218500Y105012000D03*
X92677500Y105012000D03*
X90137500Y105012000D03*
X87597500Y105012000D03*
X85057500Y105012000D03*
X82516500Y105012000D03*
X79976500Y105012000D03*
X77436500Y105012000D03*
X74896500Y105012000D03*
X72356500Y105012000D03*
X102838500Y102469000D03*
X100298500Y102469000D03*
X97758500Y102469000D03*
X95218500Y102469000D03*
X92677500Y102469000D03*
X90137500Y102469000D03*
X87597500Y102469000D03*
X85057500Y102469000D03*
X82516500Y102469000D03*
X79976500Y102469000D03*
X77436500Y102469000D03*
X74896500Y102469000D03*
X72356500Y102469000D03*
X102838500Y96430000D03*
X100298500Y96430000D03*
X97758500Y96430000D03*
X95218500Y96430000D03*
X92677500Y96430000D03*
X90137500Y96430000D03*
X87597500Y96430000D03*
X85057500Y96430000D03*
X82516500Y96430000D03*
X79976500Y96430000D03*
X77436500Y96430000D03*
X74896500Y96430000D03*
X72356500Y96430000D03*
X102838500Y93867000D03*
X100298500Y93867000D03*
X97758500Y93867000D03*
X95218500Y93867000D03*
X92677500Y93867000D03*
X90137500Y93867000D03*
X87597500Y93867000D03*
X85057500Y93867000D03*
X82516500Y93867000D03*
X79976500Y93867000D03*
X77436500Y93867000D03*
X74896500Y93867000D03*
X72356500Y93867000D03*
X66618500Y105012000D03*
X64078500Y105012000D03*
X61538500Y105012000D03*
X58998500Y105012000D03*
X56458500Y105012000D03*
X53917500Y105012000D03*
X51377500Y105012000D03*
X48837500Y105012000D03*
X46297500Y105012000D03*
X43756500Y105012000D03*
X66618500Y102469000D03*
X64078500Y102469000D03*
X61538500Y102469000D03*
X58998500Y102469000D03*
X56458500Y102469000D03*
X53917500Y102469000D03*
X51377500Y102469000D03*
X48837500Y102469000D03*
X46297500Y102469000D03*
X43756500Y102469000D03*
X66618500Y96430000D03*
X64078500Y96430000D03*
X61538500Y96430000D03*
X58998500Y96430000D03*
X56458500Y96430000D03*
X53917500Y96430000D03*
X51377500Y96430000D03*
X48837500Y96430000D03*
X46297500Y96430000D03*
X43756500Y96430000D03*
X66618500Y93867000D03*
X64078500Y93867000D03*
X61538500Y93867000D03*
X58998500Y93867000D03*
X56458500Y93867000D03*
X53917500Y93867000D03*
X51377500Y93867000D03*
X48837500Y93867000D03*
X46297500Y93867000D03*
X43756500Y93867000D03*
D21*
X36834500Y104420000D03*
X31817500Y104420000D03*
X26822500Y104420000D03*
X36834500Y98719000D03*
X31817500Y98719000D03*
X26822500Y98719000D03*
X36834500Y93019000D03*
X31817500Y93019000D03*
X26822500Y93019000D03*
G04 #@! TD*
M02*
