M48
; DRILL file {KiCad 8.0.9-8.0.9-0~ubuntu24.04.1} date 2025-02-20T18:22:35+0000
; FORMAT={2:4/ absolute / inch / suppress leading zeros}
; #@! TF.CreationDate,2025-02-20T18:22:35+00:00
; #@! TF.GenerationSoftware,Kicad,Pcbnew,8.0.9-8.0.9-0~ubuntu24.04.1
; #@! TF.FileFunction,MixedPlating,1,4
FMAT,2
INCH,TZ
; #@! TA.AperFunction,Plated,PTH,ComponentDrill
T1C0.0118
; #@! TA.AperFunction,Plated,PTH,ComponentDrill
T2C0.0118
; #@! TA.AperFunction,Plated,PTH,ComponentDrill
T3C0.0320
; #@! TA.AperFunction,Plated,PTH,ComponentDrill
T4C0.0362
; #@! TA.AperFunction,Plated,PTH,ComponentDrill
T5C0.0394
; #@! TA.AperFunction,Plated,PTH,ComponentDrill
T6C0.0433
; #@! TA.AperFunction,Plated,PTH,ComponentDrill
T7C0.0591
; #@! TA.AperFunction,Plated,PTH,ComponentDrill
T8C0.0709
; #@! TA.AperFunction,Plated,PTH,ComponentDrill
T9C0.0917
; #@! TA.AperFunction,Plated,PTH,ComponentDrill
T10C0.1575
; #@! TA.AperFunction,NonPlated,NPTH,ComponentDrill
T11C0.0866
; #@! TA.AperFunction,NonPlated,NPTH,ComponentDrill
T12C0.1083
; #@! TA.AperFunction,NonPlated,NPTH,ComponentDrill
T13C0.1181
; #@! TA.AperFunction,NonPlated,NPTH,ComponentDrill
T14C0.1457
%
G90
G05
T1
X14990Y22835
X15492Y22835
X15711Y25364
X16142Y22835
X16496Y22835
X39636Y14075
X41033Y14104
X41329Y13642
X41535Y13986
T2
X18533Y8376
X18533Y7982
X18533Y7589
X18533Y7195
X20738Y24183
X20738Y23868
X20738Y23553
X20738Y23238
X20738Y22923
X20738Y22608
X20738Y22293
X20738Y21978
X20738Y19144
X20738Y18829
X20738Y18514
X20738Y18199
X20738Y17884
X20738Y21663
X20738Y21348
X20738Y21033
X20738Y20719
X20738Y19774
X20738Y19459
X20738Y17569
X20738Y17254
X20738Y15561
X20738Y14498
X20738Y14104
X20738Y11191
X22589Y11191
X23140Y11191
X23573Y24341
X23888Y24341
X24203Y24341
X24518Y24341
X24833Y24341
X24990Y11191
X25148Y24341
X25305Y11191
X25699Y24341
X26014Y24341
X26329Y24341
X26329Y11191
X26644Y24341
X26722Y11191
X26959Y24341
X27116Y11191
X27274Y24341
X27510Y11191
X27589Y24341
X27904Y24341
X27904Y11191
X28219Y24341
X28297Y11191
X28533Y24341
X28691Y11191
X28848Y24341
X29002Y6268
X29002Y5868
X29002Y4970
X29002Y4577
X29002Y4183
X29085Y11191
X29163Y24341
X29478Y24341
X29793Y24341
X30108Y24341
X30423Y24341
X32116Y24341
X33297Y11191
X33691Y11191
X34675Y21742
X34675Y21270
X34675Y20797
X34675Y20325
X34675Y19852
X34675Y19380
X34675Y18907
X34675Y18435
X34675Y17963
X34675Y17490
X34675Y17018
X34675Y16545
X34675Y16073
X34675Y15600
X34675Y15128
X34675Y14656
X34675Y14183
X34675Y13711
X34675Y13238
X34675Y12766
X34675Y12293
X34675Y11348
X35236Y30325
X35610Y30325
X35630Y33750
X35984Y33750
X35984Y30325
X36627Y30327
X37001Y30327
X37020Y33752
X37375Y33752
X37375Y30327
X53426Y31633
X53426Y31239
T3
X6514Y27551
X6533Y32480
X6533Y23133
X6711Y18694
X8014Y27551
X8033Y32480
X8033Y23133
X8211Y18694
X29134Y34215
X29134Y32715
X30256Y34215
X30256Y32715
X31379Y34215
X31379Y32715
X32501Y34215
X32501Y32715
X43738Y34252
X45238Y34252
T4
X53248Y5979
X53248Y5192
X54232Y5979
X54232Y5192
T5
X17913Y17126
X18504Y22638
X19094Y24803
X22835Y25394
X23228Y9843
X36811Y17126
X36811Y13189
X37008Y20079
X37205Y15354
X37992Y7597
X37992Y6730
X38583Y21654
X38780Y7597
X38780Y6730
X39567Y7597
X39567Y6730
X40354Y7597
X40354Y6730
X41142Y7597
X41142Y6730
X41929Y6730
X42717Y6730
X43504Y6730
X44291Y6730
X45079Y7597
X45079Y6730
X45866Y7597
X45866Y6730
X46654Y7597
X46654Y6730
X47441Y7597
X47441Y6730
X48228Y7597
X48228Y6730
X53604Y32755
X53604Y30294
X53604Y28601
X53604Y27853
X53604Y25333
X59706Y32578
X59706Y27833
X59706Y25885
X59706Y25156
T6
X12795Y33677
X12795Y31677
X14567Y33677
X14567Y31677
X16339Y33677
X16339Y31677
X17227Y41343
X17227Y40342
X17227Y37965
X17227Y36956
X18110Y33677
X18110Y31677
X18227Y41343
X18227Y40342
X18227Y37965
X18227Y36956
X19227Y41343
X19227Y40342
X19227Y37965
X19227Y36956
X20227Y41343
X20227Y40342
X20227Y37965
X20227Y36956
X21227Y41343
X21227Y40342
X21227Y37965
X21227Y36956
X22228Y41343
X22228Y40342
X22228Y37965
X22228Y36956
X23228Y41343
X23228Y40342
X23228Y37965
X23228Y36956
X24228Y41343
X24228Y40342
X24228Y37965
X24228Y36956
X25228Y41343
X25228Y40342
X25228Y37965
X25228Y36956
X26228Y41343
X26228Y40342
X26228Y37965
X26228Y36956
X28487Y41343
X28487Y40342
X28487Y37965
X28487Y36956
X29487Y41343
X29487Y40342
X29487Y37965
X29487Y36956
X30487Y41343
X30487Y40342
X30487Y37965
X30487Y36956
X31487Y41343
X31487Y40342
X31487Y37965
X31487Y36956
X32487Y41343
X32487Y40342
X32487Y37965
X32487Y36956
X33487Y41343
X33487Y40342
X33487Y37965
X33487Y36956
X34487Y41343
X34487Y40342
X34487Y37965
X34487Y36956
X35487Y41343
X35487Y40342
X35487Y37965
X35487Y36956
X36487Y41343
X36487Y40342
X36487Y37965
X36487Y36956
X37488Y41343
X37488Y40342
X37488Y37965
X37488Y36956
X38488Y41343
X38488Y40342
X38488Y37965
X38488Y36956
X39488Y41343
X39488Y40342
X39488Y37965
X39488Y36956
X40488Y41343
X40488Y40342
X40488Y37965
X40488Y36956
X42729Y41343
X42729Y40342
X42729Y37965
X42729Y36956
X43729Y41343
X43729Y40342
X43729Y37965
X43729Y36956
X44730Y41343
X44730Y40342
X44730Y37965
X44730Y36956
X45730Y41343
X45730Y40342
X45730Y37965
X45730Y36956
X46730Y41343
X46730Y40342
X46730Y37965
X46730Y36956
X47730Y41343
X47730Y40342
X47730Y37965
X47730Y36956
T7
X10560Y41110
X10560Y38866
X10560Y36622
X12527Y41110
X12527Y38866
X12527Y36622
X14502Y41110
X14502Y38866
X14502Y36622
X50488Y41110
X50488Y38866
X50488Y36622
X52455Y41110
X52455Y38866
X52455Y36622
X54422Y41110
X54422Y38866
X54422Y36622
T8
X11063Y7659
X11063Y5494
X12717Y7659
X12717Y5494
X14370Y7659
X14370Y5494
T9
X51370Y4125
X56110Y4125
T10
X1378Y44882
X3150Y1575
X61417Y1575
X63189Y44882
T11
X6526Y41986
X58022Y41986
T12
X36870Y7085
X49350Y7085
T13
X11063Y2620
X14370Y2620
T14
X7335Y43913
X57222Y43913
M30
