G04 #@! TF.GenerationSoftware,KiCad,Pcbnew,8.0.9-8.0.9-0~ubuntu24.04.1*
G04 #@! TF.CreationDate,2025-02-20T15:49:28+00:00*
G04 #@! TF.ProjectId,hellenbms46,68656c6c-656e-4626-9d73-34362e6b6963,rev?*
G04 #@! TF.SameCoordinates,PX4c4b400PY96ae380*
G04 #@! TF.FileFunction,Legend,Bot*
G04 #@! TF.FilePolarity,Positive*
%FSLAX46Y46*%
G04 Gerber Fmt 4.6, Leading zero omitted, Abs format (unit mm)*
G04 Created by KiCad (PCBNEW 8.0.9-8.0.9-0~ubuntu24.04.1) date 2025-02-20 15:49:28*
%MOMM*%
%LPD*%
G01*
G04 APERTURE LIST*
%ADD10C,0.127000*%
%ADD11C,0.099060*%
%ADD12C,0.120000*%
%ADD13C,0.200000*%
G04 APERTURE END LIST*
D10*
X14583911Y84223571D02*
X15128197Y84223571D01*
X15128197Y84223571D02*
X15237054Y84259856D01*
X15237054Y84259856D02*
X15309626Y84332428D01*
X15309626Y84332428D02*
X15345911Y84441285D01*
X15345911Y84441285D02*
X15345911Y84513856D01*
X15345911Y83860714D02*
X14583911Y83860714D01*
X14583911Y83860714D02*
X14583911Y83570428D01*
X14583911Y83570428D02*
X14620197Y83497857D01*
X14620197Y83497857D02*
X14656483Y83461571D01*
X14656483Y83461571D02*
X14729054Y83425285D01*
X14729054Y83425285D02*
X14837911Y83425285D01*
X14837911Y83425285D02*
X14910483Y83461571D01*
X14910483Y83461571D02*
X14946768Y83497857D01*
X14946768Y83497857D02*
X14983054Y83570428D01*
X14983054Y83570428D02*
X14983054Y83860714D01*
X14837911Y82772142D02*
X15345911Y82772142D01*
X14547626Y82953571D02*
X15091911Y83135000D01*
X15091911Y83135000D02*
X15091911Y82663285D01*
X14583911Y82227857D02*
X14583911Y82155286D01*
X14583911Y82155286D02*
X14620197Y82082714D01*
X14620197Y82082714D02*
X14656483Y82046428D01*
X14656483Y82046428D02*
X14729054Y82010143D01*
X14729054Y82010143D02*
X14874197Y81973857D01*
X14874197Y81973857D02*
X15055626Y81973857D01*
X15055626Y81973857D02*
X15200768Y82010143D01*
X15200768Y82010143D02*
X15273340Y82046428D01*
X15273340Y82046428D02*
X15309626Y82082714D01*
X15309626Y82082714D02*
X15345911Y82155286D01*
X15345911Y82155286D02*
X15345911Y82227857D01*
X15345911Y82227857D02*
X15309626Y82300428D01*
X15309626Y82300428D02*
X15273340Y82336714D01*
X15273340Y82336714D02*
X15200768Y82373000D01*
X15200768Y82373000D02*
X15055626Y82409286D01*
X15055626Y82409286D02*
X14874197Y82409286D01*
X14874197Y82409286D02*
X14729054Y82373000D01*
X14729054Y82373000D02*
X14656483Y82336714D01*
X14656483Y82336714D02*
X14620197Y82300428D01*
X14620197Y82300428D02*
X14583911Y82227857D01*
X14583911Y81502143D02*
X14583911Y81429572D01*
X14583911Y81429572D02*
X14620197Y81357000D01*
X14620197Y81357000D02*
X14656483Y81320714D01*
X14656483Y81320714D02*
X14729054Y81284429D01*
X14729054Y81284429D02*
X14874197Y81248143D01*
X14874197Y81248143D02*
X15055626Y81248143D01*
X15055626Y81248143D02*
X15200768Y81284429D01*
X15200768Y81284429D02*
X15273340Y81320714D01*
X15273340Y81320714D02*
X15309626Y81357000D01*
X15309626Y81357000D02*
X15345911Y81429572D01*
X15345911Y81429572D02*
X15345911Y81502143D01*
X15345911Y81502143D02*
X15309626Y81574714D01*
X15309626Y81574714D02*
X15273340Y81611000D01*
X15273340Y81611000D02*
X15200768Y81647286D01*
X15200768Y81647286D02*
X15055626Y81683572D01*
X15055626Y81683572D02*
X14874197Y81683572D01*
X14874197Y81683572D02*
X14729054Y81647286D01*
X14729054Y81647286D02*
X14656483Y81611000D01*
X14656483Y81611000D02*
X14620197Y81574714D01*
X14620197Y81574714D02*
X14583911Y81502143D01*
X15345911Y80522429D02*
X15345911Y80957858D01*
X15345911Y80740143D02*
X14583911Y80740143D01*
X14583911Y80740143D02*
X14692768Y80812715D01*
X14692768Y80812715D02*
X14765340Y80885286D01*
X14765340Y80885286D02*
X14801626Y80957858D01*
X15033912Y49206571D02*
X15578198Y49206571D01*
X15578198Y49206571D02*
X15687055Y49242856D01*
X15687055Y49242856D02*
X15759627Y49315428D01*
X15759627Y49315428D02*
X15795912Y49424285D01*
X15795912Y49424285D02*
X15795912Y49496856D01*
X15795912Y48843714D02*
X15033912Y48843714D01*
X15033912Y48843714D02*
X15033912Y48553428D01*
X15033912Y48553428D02*
X15070198Y48480857D01*
X15070198Y48480857D02*
X15106484Y48444571D01*
X15106484Y48444571D02*
X15179055Y48408285D01*
X15179055Y48408285D02*
X15287912Y48408285D01*
X15287912Y48408285D02*
X15360484Y48444571D01*
X15360484Y48444571D02*
X15396769Y48480857D01*
X15396769Y48480857D02*
X15433055Y48553428D01*
X15433055Y48553428D02*
X15433055Y48843714D01*
X15287912Y47755142D02*
X15795912Y47755142D01*
X14997627Y47936571D02*
X15541912Y48118000D01*
X15541912Y48118000D02*
X15541912Y47646285D01*
X15033912Y47210857D02*
X15033912Y47138286D01*
X15033912Y47138286D02*
X15070198Y47065714D01*
X15070198Y47065714D02*
X15106484Y47029428D01*
X15106484Y47029428D02*
X15179055Y46993143D01*
X15179055Y46993143D02*
X15324198Y46956857D01*
X15324198Y46956857D02*
X15505627Y46956857D01*
X15505627Y46956857D02*
X15650769Y46993143D01*
X15650769Y46993143D02*
X15723341Y47029428D01*
X15723341Y47029428D02*
X15759627Y47065714D01*
X15759627Y47065714D02*
X15795912Y47138286D01*
X15795912Y47138286D02*
X15795912Y47210857D01*
X15795912Y47210857D02*
X15759627Y47283428D01*
X15759627Y47283428D02*
X15723341Y47319714D01*
X15723341Y47319714D02*
X15650769Y47356000D01*
X15650769Y47356000D02*
X15505627Y47392286D01*
X15505627Y47392286D02*
X15324198Y47392286D01*
X15324198Y47392286D02*
X15179055Y47356000D01*
X15179055Y47356000D02*
X15106484Y47319714D01*
X15106484Y47319714D02*
X15070198Y47283428D01*
X15070198Y47283428D02*
X15033912Y47210857D01*
X15033912Y46485143D02*
X15033912Y46412572D01*
X15033912Y46412572D02*
X15070198Y46340000D01*
X15070198Y46340000D02*
X15106484Y46303714D01*
X15106484Y46303714D02*
X15179055Y46267429D01*
X15179055Y46267429D02*
X15324198Y46231143D01*
X15324198Y46231143D02*
X15505627Y46231143D01*
X15505627Y46231143D02*
X15650769Y46267429D01*
X15650769Y46267429D02*
X15723341Y46303714D01*
X15723341Y46303714D02*
X15759627Y46340000D01*
X15759627Y46340000D02*
X15795912Y46412572D01*
X15795912Y46412572D02*
X15795912Y46485143D01*
X15795912Y46485143D02*
X15759627Y46557714D01*
X15759627Y46557714D02*
X15723341Y46594000D01*
X15723341Y46594000D02*
X15650769Y46630286D01*
X15650769Y46630286D02*
X15505627Y46666572D01*
X15505627Y46666572D02*
X15324198Y46666572D01*
X15324198Y46666572D02*
X15179055Y46630286D01*
X15179055Y46630286D02*
X15106484Y46594000D01*
X15106484Y46594000D02*
X15070198Y46557714D01*
X15070198Y46557714D02*
X15033912Y46485143D01*
X15287912Y45578000D02*
X15795912Y45578000D01*
X14997627Y45759429D02*
X15541912Y45940858D01*
X15541912Y45940858D02*
X15541912Y45469143D01*
X114723570Y85916089D02*
X114723570Y85371803D01*
X114723570Y85371803D02*
X114759855Y85262946D01*
X114759855Y85262946D02*
X114832427Y85190374D01*
X114832427Y85190374D02*
X114941284Y85154089D01*
X114941284Y85154089D02*
X115013855Y85154089D01*
X114360713Y85154089D02*
X114360713Y85916089D01*
X114360713Y85916089D02*
X114070427Y85916089D01*
X114070427Y85916089D02*
X113997856Y85879803D01*
X113997856Y85879803D02*
X113961570Y85843517D01*
X113961570Y85843517D02*
X113925284Y85770946D01*
X113925284Y85770946D02*
X113925284Y85662089D01*
X113925284Y85662089D02*
X113961570Y85589517D01*
X113961570Y85589517D02*
X113997856Y85553232D01*
X113997856Y85553232D02*
X114070427Y85516946D01*
X114070427Y85516946D02*
X114360713Y85516946D01*
X113634999Y85843517D02*
X113598713Y85879803D01*
X113598713Y85879803D02*
X113526142Y85916089D01*
X113526142Y85916089D02*
X113344713Y85916089D01*
X113344713Y85916089D02*
X113272142Y85879803D01*
X113272142Y85879803D02*
X113235856Y85843517D01*
X113235856Y85843517D02*
X113199570Y85770946D01*
X113199570Y85770946D02*
X113199570Y85698374D01*
X113199570Y85698374D02*
X113235856Y85589517D01*
X113235856Y85589517D02*
X113671284Y85154089D01*
X113671284Y85154089D02*
X113199570Y85154089D01*
X112727856Y85916089D02*
X112655285Y85916089D01*
X112655285Y85916089D02*
X112582713Y85879803D01*
X112582713Y85879803D02*
X112546428Y85843517D01*
X112546428Y85843517D02*
X112510142Y85770946D01*
X112510142Y85770946D02*
X112473856Y85625803D01*
X112473856Y85625803D02*
X112473856Y85444374D01*
X112473856Y85444374D02*
X112510142Y85299232D01*
X112510142Y85299232D02*
X112546428Y85226660D01*
X112546428Y85226660D02*
X112582713Y85190374D01*
X112582713Y85190374D02*
X112655285Y85154089D01*
X112655285Y85154089D02*
X112727856Y85154089D01*
X112727856Y85154089D02*
X112800428Y85190374D01*
X112800428Y85190374D02*
X112836713Y85226660D01*
X112836713Y85226660D02*
X112872999Y85299232D01*
X112872999Y85299232D02*
X112909285Y85444374D01*
X112909285Y85444374D02*
X112909285Y85625803D01*
X112909285Y85625803D02*
X112872999Y85770946D01*
X112872999Y85770946D02*
X112836713Y85843517D01*
X112836713Y85843517D02*
X112800428Y85879803D01*
X112800428Y85879803D02*
X112727856Y85916089D01*
X112002142Y85916089D02*
X111929571Y85916089D01*
X111929571Y85916089D02*
X111856999Y85879803D01*
X111856999Y85879803D02*
X111820714Y85843517D01*
X111820714Y85843517D02*
X111784428Y85770946D01*
X111784428Y85770946D02*
X111748142Y85625803D01*
X111748142Y85625803D02*
X111748142Y85444374D01*
X111748142Y85444374D02*
X111784428Y85299232D01*
X111784428Y85299232D02*
X111820714Y85226660D01*
X111820714Y85226660D02*
X111856999Y85190374D01*
X111856999Y85190374D02*
X111929571Y85154089D01*
X111929571Y85154089D02*
X112002142Y85154089D01*
X112002142Y85154089D02*
X112074714Y85190374D01*
X112074714Y85190374D02*
X112110999Y85226660D01*
X112110999Y85226660D02*
X112147285Y85299232D01*
X112147285Y85299232D02*
X112183571Y85444374D01*
X112183571Y85444374D02*
X112183571Y85625803D01*
X112183571Y85625803D02*
X112147285Y85770946D01*
X112147285Y85770946D02*
X112110999Y85843517D01*
X112110999Y85843517D02*
X112074714Y85879803D01*
X112074714Y85879803D02*
X112002142Y85916089D01*
X111457857Y85843517D02*
X111421571Y85879803D01*
X111421571Y85879803D02*
X111349000Y85916089D01*
X111349000Y85916089D02*
X111167571Y85916089D01*
X111167571Y85916089D02*
X111095000Y85879803D01*
X111095000Y85879803D02*
X111058714Y85843517D01*
X111058714Y85843517D02*
X111022428Y85770946D01*
X111022428Y85770946D02*
X111022428Y85698374D01*
X111022428Y85698374D02*
X111058714Y85589517D01*
X111058714Y85589517D02*
X111494142Y85154089D01*
X111494142Y85154089D02*
X111022428Y85154089D01*
X14533912Y71702571D02*
X15078198Y71702571D01*
X15078198Y71702571D02*
X15187055Y71738856D01*
X15187055Y71738856D02*
X15259627Y71811428D01*
X15259627Y71811428D02*
X15295912Y71920285D01*
X15295912Y71920285D02*
X15295912Y71992856D01*
X15295912Y71339714D02*
X14533912Y71339714D01*
X14533912Y71339714D02*
X14533912Y71049428D01*
X14533912Y71049428D02*
X14570198Y70976857D01*
X14570198Y70976857D02*
X14606484Y70940571D01*
X14606484Y70940571D02*
X14679055Y70904285D01*
X14679055Y70904285D02*
X14787912Y70904285D01*
X14787912Y70904285D02*
X14860484Y70940571D01*
X14860484Y70940571D02*
X14896769Y70976857D01*
X14896769Y70976857D02*
X14933055Y71049428D01*
X14933055Y71049428D02*
X14933055Y71339714D01*
X14787912Y70251142D02*
X15295912Y70251142D01*
X14497627Y70432571D02*
X15041912Y70614000D01*
X15041912Y70614000D02*
X15041912Y70142285D01*
X14533912Y69706857D02*
X14533912Y69634286D01*
X14533912Y69634286D02*
X14570198Y69561714D01*
X14570198Y69561714D02*
X14606484Y69525428D01*
X14606484Y69525428D02*
X14679055Y69489143D01*
X14679055Y69489143D02*
X14824198Y69452857D01*
X14824198Y69452857D02*
X15005627Y69452857D01*
X15005627Y69452857D02*
X15150769Y69489143D01*
X15150769Y69489143D02*
X15223341Y69525428D01*
X15223341Y69525428D02*
X15259627Y69561714D01*
X15259627Y69561714D02*
X15295912Y69634286D01*
X15295912Y69634286D02*
X15295912Y69706857D01*
X15295912Y69706857D02*
X15259627Y69779428D01*
X15259627Y69779428D02*
X15223341Y69815714D01*
X15223341Y69815714D02*
X15150769Y69852000D01*
X15150769Y69852000D02*
X15005627Y69888286D01*
X15005627Y69888286D02*
X14824198Y69888286D01*
X14824198Y69888286D02*
X14679055Y69852000D01*
X14679055Y69852000D02*
X14606484Y69815714D01*
X14606484Y69815714D02*
X14570198Y69779428D01*
X14570198Y69779428D02*
X14533912Y69706857D01*
X14533912Y68981143D02*
X14533912Y68908572D01*
X14533912Y68908572D02*
X14570198Y68836000D01*
X14570198Y68836000D02*
X14606484Y68799714D01*
X14606484Y68799714D02*
X14679055Y68763429D01*
X14679055Y68763429D02*
X14824198Y68727143D01*
X14824198Y68727143D02*
X15005627Y68727143D01*
X15005627Y68727143D02*
X15150769Y68763429D01*
X15150769Y68763429D02*
X15223341Y68799714D01*
X15223341Y68799714D02*
X15259627Y68836000D01*
X15259627Y68836000D02*
X15295912Y68908572D01*
X15295912Y68908572D02*
X15295912Y68981143D01*
X15295912Y68981143D02*
X15259627Y69053714D01*
X15259627Y69053714D02*
X15223341Y69090000D01*
X15223341Y69090000D02*
X15150769Y69126286D01*
X15150769Y69126286D02*
X15005627Y69162572D01*
X15005627Y69162572D02*
X14824198Y69162572D01*
X14824198Y69162572D02*
X14679055Y69126286D01*
X14679055Y69126286D02*
X14606484Y69090000D01*
X14606484Y69090000D02*
X14570198Y69053714D01*
X14570198Y69053714D02*
X14533912Y68981143D01*
X14606484Y68436858D02*
X14570198Y68400572D01*
X14570198Y68400572D02*
X14533912Y68328000D01*
X14533912Y68328000D02*
X14533912Y68146572D01*
X14533912Y68146572D02*
X14570198Y68074000D01*
X14570198Y68074000D02*
X14606484Y68037715D01*
X14606484Y68037715D02*
X14679055Y68001429D01*
X14679055Y68001429D02*
X14751627Y68001429D01*
X14751627Y68001429D02*
X14860484Y68037715D01*
X14860484Y68037715D02*
X15295912Y68473143D01*
X15295912Y68473143D02*
X15295912Y68001429D01*
X78574352Y81916089D02*
X78574352Y81371803D01*
X78574352Y81371803D02*
X78610637Y81262946D01*
X78610637Y81262946D02*
X78683209Y81190374D01*
X78683209Y81190374D02*
X78792066Y81154089D01*
X78792066Y81154089D02*
X78864637Y81154089D01*
X78211495Y81154089D02*
X78211495Y81916089D01*
X78211495Y81916089D02*
X77921209Y81916089D01*
X77921209Y81916089D02*
X77848638Y81879803D01*
X77848638Y81879803D02*
X77812352Y81843517D01*
X77812352Y81843517D02*
X77776066Y81770946D01*
X77776066Y81770946D02*
X77776066Y81662089D01*
X77776066Y81662089D02*
X77812352Y81589517D01*
X77812352Y81589517D02*
X77848638Y81553232D01*
X77848638Y81553232D02*
X77921209Y81516946D01*
X77921209Y81516946D02*
X78211495Y81516946D01*
X77485781Y81843517D02*
X77449495Y81879803D01*
X77449495Y81879803D02*
X77376924Y81916089D01*
X77376924Y81916089D02*
X77195495Y81916089D01*
X77195495Y81916089D02*
X77122924Y81879803D01*
X77122924Y81879803D02*
X77086638Y81843517D01*
X77086638Y81843517D02*
X77050352Y81770946D01*
X77050352Y81770946D02*
X77050352Y81698374D01*
X77050352Y81698374D02*
X77086638Y81589517D01*
X77086638Y81589517D02*
X77522066Y81154089D01*
X77522066Y81154089D02*
X77050352Y81154089D01*
X76578638Y81916089D02*
X76506067Y81916089D01*
X76506067Y81916089D02*
X76433495Y81879803D01*
X76433495Y81879803D02*
X76397210Y81843517D01*
X76397210Y81843517D02*
X76360924Y81770946D01*
X76360924Y81770946D02*
X76324638Y81625803D01*
X76324638Y81625803D02*
X76324638Y81444374D01*
X76324638Y81444374D02*
X76360924Y81299232D01*
X76360924Y81299232D02*
X76397210Y81226660D01*
X76397210Y81226660D02*
X76433495Y81190374D01*
X76433495Y81190374D02*
X76506067Y81154089D01*
X76506067Y81154089D02*
X76578638Y81154089D01*
X76578638Y81154089D02*
X76651210Y81190374D01*
X76651210Y81190374D02*
X76687495Y81226660D01*
X76687495Y81226660D02*
X76723781Y81299232D01*
X76723781Y81299232D02*
X76760067Y81444374D01*
X76760067Y81444374D02*
X76760067Y81625803D01*
X76760067Y81625803D02*
X76723781Y81770946D01*
X76723781Y81770946D02*
X76687495Y81843517D01*
X76687495Y81843517D02*
X76651210Y81879803D01*
X76651210Y81879803D02*
X76578638Y81916089D01*
X75852924Y81916089D02*
X75780353Y81916089D01*
X75780353Y81916089D02*
X75707781Y81879803D01*
X75707781Y81879803D02*
X75671496Y81843517D01*
X75671496Y81843517D02*
X75635210Y81770946D01*
X75635210Y81770946D02*
X75598924Y81625803D01*
X75598924Y81625803D02*
X75598924Y81444374D01*
X75598924Y81444374D02*
X75635210Y81299232D01*
X75635210Y81299232D02*
X75671496Y81226660D01*
X75671496Y81226660D02*
X75707781Y81190374D01*
X75707781Y81190374D02*
X75780353Y81154089D01*
X75780353Y81154089D02*
X75852924Y81154089D01*
X75852924Y81154089D02*
X75925496Y81190374D01*
X75925496Y81190374D02*
X75961781Y81226660D01*
X75961781Y81226660D02*
X75998067Y81299232D01*
X75998067Y81299232D02*
X76034353Y81444374D01*
X76034353Y81444374D02*
X76034353Y81625803D01*
X76034353Y81625803D02*
X75998067Y81770946D01*
X75998067Y81770946D02*
X75961781Y81843517D01*
X75961781Y81843517D02*
X75925496Y81879803D01*
X75925496Y81879803D02*
X75852924Y81916089D01*
X75163496Y81589517D02*
X75236067Y81625803D01*
X75236067Y81625803D02*
X75272353Y81662089D01*
X75272353Y81662089D02*
X75308639Y81734660D01*
X75308639Y81734660D02*
X75308639Y81770946D01*
X75308639Y81770946D02*
X75272353Y81843517D01*
X75272353Y81843517D02*
X75236067Y81879803D01*
X75236067Y81879803D02*
X75163496Y81916089D01*
X75163496Y81916089D02*
X75018353Y81916089D01*
X75018353Y81916089D02*
X74945782Y81879803D01*
X74945782Y81879803D02*
X74909496Y81843517D01*
X74909496Y81843517D02*
X74873210Y81770946D01*
X74873210Y81770946D02*
X74873210Y81734660D01*
X74873210Y81734660D02*
X74909496Y81662089D01*
X74909496Y81662089D02*
X74945782Y81625803D01*
X74945782Y81625803D02*
X75018353Y81589517D01*
X75018353Y81589517D02*
X75163496Y81589517D01*
X75163496Y81589517D02*
X75236067Y81553232D01*
X75236067Y81553232D02*
X75272353Y81516946D01*
X75272353Y81516946D02*
X75308639Y81444374D01*
X75308639Y81444374D02*
X75308639Y81299232D01*
X75308639Y81299232D02*
X75272353Y81226660D01*
X75272353Y81226660D02*
X75236067Y81190374D01*
X75236067Y81190374D02*
X75163496Y81154089D01*
X75163496Y81154089D02*
X75018353Y81154089D01*
X75018353Y81154089D02*
X74945782Y81190374D01*
X74945782Y81190374D02*
X74909496Y81226660D01*
X74909496Y81226660D02*
X74873210Y81299232D01*
X74873210Y81299232D02*
X74873210Y81444374D01*
X74873210Y81444374D02*
X74909496Y81516946D01*
X74909496Y81516946D02*
X74945782Y81553232D01*
X74945782Y81553232D02*
X75018353Y81589517D01*
X75723570Y81916089D02*
X75723570Y81371803D01*
X75723570Y81371803D02*
X75759855Y81262946D01*
X75759855Y81262946D02*
X75832427Y81190374D01*
X75832427Y81190374D02*
X75941284Y81154089D01*
X75941284Y81154089D02*
X76013855Y81154089D01*
X75360713Y81154089D02*
X75360713Y81916089D01*
X75360713Y81916089D02*
X75070427Y81916089D01*
X75070427Y81916089D02*
X74997856Y81879803D01*
X74997856Y81879803D02*
X74961570Y81843517D01*
X74961570Y81843517D02*
X74925284Y81770946D01*
X74925284Y81770946D02*
X74925284Y81662089D01*
X74925284Y81662089D02*
X74961570Y81589517D01*
X74961570Y81589517D02*
X74997856Y81553232D01*
X74997856Y81553232D02*
X75070427Y81516946D01*
X75070427Y81516946D02*
X75360713Y81516946D01*
X74634999Y81843517D02*
X74598713Y81879803D01*
X74598713Y81879803D02*
X74526142Y81916089D01*
X74526142Y81916089D02*
X74344713Y81916089D01*
X74344713Y81916089D02*
X74272142Y81879803D01*
X74272142Y81879803D02*
X74235856Y81843517D01*
X74235856Y81843517D02*
X74199570Y81770946D01*
X74199570Y81770946D02*
X74199570Y81698374D01*
X74199570Y81698374D02*
X74235856Y81589517D01*
X74235856Y81589517D02*
X74671284Y81154089D01*
X74671284Y81154089D02*
X74199570Y81154089D01*
X73727856Y81916089D02*
X73655285Y81916089D01*
X73655285Y81916089D02*
X73582713Y81879803D01*
X73582713Y81879803D02*
X73546428Y81843517D01*
X73546428Y81843517D02*
X73510142Y81770946D01*
X73510142Y81770946D02*
X73473856Y81625803D01*
X73473856Y81625803D02*
X73473856Y81444374D01*
X73473856Y81444374D02*
X73510142Y81299232D01*
X73510142Y81299232D02*
X73546428Y81226660D01*
X73546428Y81226660D02*
X73582713Y81190374D01*
X73582713Y81190374D02*
X73655285Y81154089D01*
X73655285Y81154089D02*
X73727856Y81154089D01*
X73727856Y81154089D02*
X73800428Y81190374D01*
X73800428Y81190374D02*
X73836713Y81226660D01*
X73836713Y81226660D02*
X73872999Y81299232D01*
X73872999Y81299232D02*
X73909285Y81444374D01*
X73909285Y81444374D02*
X73909285Y81625803D01*
X73909285Y81625803D02*
X73872999Y81770946D01*
X73872999Y81770946D02*
X73836713Y81843517D01*
X73836713Y81843517D02*
X73800428Y81879803D01*
X73800428Y81879803D02*
X73727856Y81916089D01*
X73002142Y81916089D02*
X72929571Y81916089D01*
X72929571Y81916089D02*
X72856999Y81879803D01*
X72856999Y81879803D02*
X72820714Y81843517D01*
X72820714Y81843517D02*
X72784428Y81770946D01*
X72784428Y81770946D02*
X72748142Y81625803D01*
X72748142Y81625803D02*
X72748142Y81444374D01*
X72748142Y81444374D02*
X72784428Y81299232D01*
X72784428Y81299232D02*
X72820714Y81226660D01*
X72820714Y81226660D02*
X72856999Y81190374D01*
X72856999Y81190374D02*
X72929571Y81154089D01*
X72929571Y81154089D02*
X73002142Y81154089D01*
X73002142Y81154089D02*
X73074714Y81190374D01*
X73074714Y81190374D02*
X73110999Y81226660D01*
X73110999Y81226660D02*
X73147285Y81299232D01*
X73147285Y81299232D02*
X73183571Y81444374D01*
X73183571Y81444374D02*
X73183571Y81625803D01*
X73183571Y81625803D02*
X73147285Y81770946D01*
X73147285Y81770946D02*
X73110999Y81843517D01*
X73110999Y81843517D02*
X73074714Y81879803D01*
X73074714Y81879803D02*
X73002142Y81916089D01*
X72385285Y81154089D02*
X72240142Y81154089D01*
X72240142Y81154089D02*
X72167571Y81190374D01*
X72167571Y81190374D02*
X72131285Y81226660D01*
X72131285Y81226660D02*
X72058714Y81335517D01*
X72058714Y81335517D02*
X72022428Y81480660D01*
X72022428Y81480660D02*
X72022428Y81770946D01*
X72022428Y81770946D02*
X72058714Y81843517D01*
X72058714Y81843517D02*
X72095000Y81879803D01*
X72095000Y81879803D02*
X72167571Y81916089D01*
X72167571Y81916089D02*
X72312714Y81916089D01*
X72312714Y81916089D02*
X72385285Y81879803D01*
X72385285Y81879803D02*
X72421571Y81843517D01*
X72421571Y81843517D02*
X72457857Y81770946D01*
X72457857Y81770946D02*
X72457857Y81589517D01*
X72457857Y81589517D02*
X72421571Y81516946D01*
X72421571Y81516946D02*
X72385285Y81480660D01*
X72385285Y81480660D02*
X72312714Y81444374D01*
X72312714Y81444374D02*
X72167571Y81444374D01*
X72167571Y81444374D02*
X72095000Y81480660D01*
X72095000Y81480660D02*
X72058714Y81516946D01*
X72058714Y81516946D02*
X72022428Y81589517D01*
X81425134Y81916089D02*
X81425134Y81371803D01*
X81425134Y81371803D02*
X81461419Y81262946D01*
X81461419Y81262946D02*
X81533991Y81190374D01*
X81533991Y81190374D02*
X81642848Y81154089D01*
X81642848Y81154089D02*
X81715419Y81154089D01*
X81062277Y81154089D02*
X81062277Y81916089D01*
X81062277Y81916089D02*
X80771991Y81916089D01*
X80771991Y81916089D02*
X80699420Y81879803D01*
X80699420Y81879803D02*
X80663134Y81843517D01*
X80663134Y81843517D02*
X80626848Y81770946D01*
X80626848Y81770946D02*
X80626848Y81662089D01*
X80626848Y81662089D02*
X80663134Y81589517D01*
X80663134Y81589517D02*
X80699420Y81553232D01*
X80699420Y81553232D02*
X80771991Y81516946D01*
X80771991Y81516946D02*
X81062277Y81516946D01*
X80336563Y81843517D02*
X80300277Y81879803D01*
X80300277Y81879803D02*
X80227706Y81916089D01*
X80227706Y81916089D02*
X80046277Y81916089D01*
X80046277Y81916089D02*
X79973706Y81879803D01*
X79973706Y81879803D02*
X79937420Y81843517D01*
X79937420Y81843517D02*
X79901134Y81770946D01*
X79901134Y81770946D02*
X79901134Y81698374D01*
X79901134Y81698374D02*
X79937420Y81589517D01*
X79937420Y81589517D02*
X80372848Y81154089D01*
X80372848Y81154089D02*
X79901134Y81154089D01*
X79429420Y81916089D02*
X79356849Y81916089D01*
X79356849Y81916089D02*
X79284277Y81879803D01*
X79284277Y81879803D02*
X79247992Y81843517D01*
X79247992Y81843517D02*
X79211706Y81770946D01*
X79211706Y81770946D02*
X79175420Y81625803D01*
X79175420Y81625803D02*
X79175420Y81444374D01*
X79175420Y81444374D02*
X79211706Y81299232D01*
X79211706Y81299232D02*
X79247992Y81226660D01*
X79247992Y81226660D02*
X79284277Y81190374D01*
X79284277Y81190374D02*
X79356849Y81154089D01*
X79356849Y81154089D02*
X79429420Y81154089D01*
X79429420Y81154089D02*
X79501992Y81190374D01*
X79501992Y81190374D02*
X79538277Y81226660D01*
X79538277Y81226660D02*
X79574563Y81299232D01*
X79574563Y81299232D02*
X79610849Y81444374D01*
X79610849Y81444374D02*
X79610849Y81625803D01*
X79610849Y81625803D02*
X79574563Y81770946D01*
X79574563Y81770946D02*
X79538277Y81843517D01*
X79538277Y81843517D02*
X79501992Y81879803D01*
X79501992Y81879803D02*
X79429420Y81916089D01*
X78703706Y81916089D02*
X78631135Y81916089D01*
X78631135Y81916089D02*
X78558563Y81879803D01*
X78558563Y81879803D02*
X78522278Y81843517D01*
X78522278Y81843517D02*
X78485992Y81770946D01*
X78485992Y81770946D02*
X78449706Y81625803D01*
X78449706Y81625803D02*
X78449706Y81444374D01*
X78449706Y81444374D02*
X78485992Y81299232D01*
X78485992Y81299232D02*
X78522278Y81226660D01*
X78522278Y81226660D02*
X78558563Y81190374D01*
X78558563Y81190374D02*
X78631135Y81154089D01*
X78631135Y81154089D02*
X78703706Y81154089D01*
X78703706Y81154089D02*
X78776278Y81190374D01*
X78776278Y81190374D02*
X78812563Y81226660D01*
X78812563Y81226660D02*
X78848849Y81299232D01*
X78848849Y81299232D02*
X78885135Y81444374D01*
X78885135Y81444374D02*
X78885135Y81625803D01*
X78885135Y81625803D02*
X78848849Y81770946D01*
X78848849Y81770946D02*
X78812563Y81843517D01*
X78812563Y81843517D02*
X78776278Y81879803D01*
X78776278Y81879803D02*
X78703706Y81916089D01*
X78195706Y81916089D02*
X77687706Y81916089D01*
X77687706Y81916089D02*
X78014278Y81154089D01*
X84275916Y81916089D02*
X84275916Y81371803D01*
X84275916Y81371803D02*
X84312201Y81262946D01*
X84312201Y81262946D02*
X84384773Y81190374D01*
X84384773Y81190374D02*
X84493630Y81154089D01*
X84493630Y81154089D02*
X84566201Y81154089D01*
X83913059Y81154089D02*
X83913059Y81916089D01*
X83913059Y81916089D02*
X83622773Y81916089D01*
X83622773Y81916089D02*
X83550202Y81879803D01*
X83550202Y81879803D02*
X83513916Y81843517D01*
X83513916Y81843517D02*
X83477630Y81770946D01*
X83477630Y81770946D02*
X83477630Y81662089D01*
X83477630Y81662089D02*
X83513916Y81589517D01*
X83513916Y81589517D02*
X83550202Y81553232D01*
X83550202Y81553232D02*
X83622773Y81516946D01*
X83622773Y81516946D02*
X83913059Y81516946D01*
X83187345Y81843517D02*
X83151059Y81879803D01*
X83151059Y81879803D02*
X83078488Y81916089D01*
X83078488Y81916089D02*
X82897059Y81916089D01*
X82897059Y81916089D02*
X82824488Y81879803D01*
X82824488Y81879803D02*
X82788202Y81843517D01*
X82788202Y81843517D02*
X82751916Y81770946D01*
X82751916Y81770946D02*
X82751916Y81698374D01*
X82751916Y81698374D02*
X82788202Y81589517D01*
X82788202Y81589517D02*
X83223630Y81154089D01*
X83223630Y81154089D02*
X82751916Y81154089D01*
X82280202Y81916089D02*
X82207631Y81916089D01*
X82207631Y81916089D02*
X82135059Y81879803D01*
X82135059Y81879803D02*
X82098774Y81843517D01*
X82098774Y81843517D02*
X82062488Y81770946D01*
X82062488Y81770946D02*
X82026202Y81625803D01*
X82026202Y81625803D02*
X82026202Y81444374D01*
X82026202Y81444374D02*
X82062488Y81299232D01*
X82062488Y81299232D02*
X82098774Y81226660D01*
X82098774Y81226660D02*
X82135059Y81190374D01*
X82135059Y81190374D02*
X82207631Y81154089D01*
X82207631Y81154089D02*
X82280202Y81154089D01*
X82280202Y81154089D02*
X82352774Y81190374D01*
X82352774Y81190374D02*
X82389059Y81226660D01*
X82389059Y81226660D02*
X82425345Y81299232D01*
X82425345Y81299232D02*
X82461631Y81444374D01*
X82461631Y81444374D02*
X82461631Y81625803D01*
X82461631Y81625803D02*
X82425345Y81770946D01*
X82425345Y81770946D02*
X82389059Y81843517D01*
X82389059Y81843517D02*
X82352774Y81879803D01*
X82352774Y81879803D02*
X82280202Y81916089D01*
X81554488Y81916089D02*
X81481917Y81916089D01*
X81481917Y81916089D02*
X81409345Y81879803D01*
X81409345Y81879803D02*
X81373060Y81843517D01*
X81373060Y81843517D02*
X81336774Y81770946D01*
X81336774Y81770946D02*
X81300488Y81625803D01*
X81300488Y81625803D02*
X81300488Y81444374D01*
X81300488Y81444374D02*
X81336774Y81299232D01*
X81336774Y81299232D02*
X81373060Y81226660D01*
X81373060Y81226660D02*
X81409345Y81190374D01*
X81409345Y81190374D02*
X81481917Y81154089D01*
X81481917Y81154089D02*
X81554488Y81154089D01*
X81554488Y81154089D02*
X81627060Y81190374D01*
X81627060Y81190374D02*
X81663345Y81226660D01*
X81663345Y81226660D02*
X81699631Y81299232D01*
X81699631Y81299232D02*
X81735917Y81444374D01*
X81735917Y81444374D02*
X81735917Y81625803D01*
X81735917Y81625803D02*
X81699631Y81770946D01*
X81699631Y81770946D02*
X81663345Y81843517D01*
X81663345Y81843517D02*
X81627060Y81879803D01*
X81627060Y81879803D02*
X81554488Y81916089D01*
X80647346Y81916089D02*
X80792488Y81916089D01*
X80792488Y81916089D02*
X80865060Y81879803D01*
X80865060Y81879803D02*
X80901346Y81843517D01*
X80901346Y81843517D02*
X80973917Y81734660D01*
X80973917Y81734660D02*
X81010203Y81589517D01*
X81010203Y81589517D02*
X81010203Y81299232D01*
X81010203Y81299232D02*
X80973917Y81226660D01*
X80973917Y81226660D02*
X80937631Y81190374D01*
X80937631Y81190374D02*
X80865060Y81154089D01*
X80865060Y81154089D02*
X80719917Y81154089D01*
X80719917Y81154089D02*
X80647346Y81190374D01*
X80647346Y81190374D02*
X80611060Y81226660D01*
X80611060Y81226660D02*
X80574774Y81299232D01*
X80574774Y81299232D02*
X80574774Y81480660D01*
X80574774Y81480660D02*
X80611060Y81553232D01*
X80611060Y81553232D02*
X80647346Y81589517D01*
X80647346Y81589517D02*
X80719917Y81625803D01*
X80719917Y81625803D02*
X80865060Y81625803D01*
X80865060Y81625803D02*
X80937631Y81589517D01*
X80937631Y81589517D02*
X80973917Y81553232D01*
X80973917Y81553232D02*
X81010203Y81480660D01*
X14583911Y60482571D02*
X15128197Y60482571D01*
X15128197Y60482571D02*
X15237054Y60518856D01*
X15237054Y60518856D02*
X15309626Y60591428D01*
X15309626Y60591428D02*
X15345911Y60700285D01*
X15345911Y60700285D02*
X15345911Y60772856D01*
X15345911Y60119714D02*
X14583911Y60119714D01*
X14583911Y60119714D02*
X14583911Y59829428D01*
X14583911Y59829428D02*
X14620197Y59756857D01*
X14620197Y59756857D02*
X14656483Y59720571D01*
X14656483Y59720571D02*
X14729054Y59684285D01*
X14729054Y59684285D02*
X14837911Y59684285D01*
X14837911Y59684285D02*
X14910483Y59720571D01*
X14910483Y59720571D02*
X14946768Y59756857D01*
X14946768Y59756857D02*
X14983054Y59829428D01*
X14983054Y59829428D02*
X14983054Y60119714D01*
X14837911Y59031142D02*
X15345911Y59031142D01*
X14547626Y59212571D02*
X15091911Y59394000D01*
X15091911Y59394000D02*
X15091911Y58922285D01*
X14583911Y58486857D02*
X14583911Y58414286D01*
X14583911Y58414286D02*
X14620197Y58341714D01*
X14620197Y58341714D02*
X14656483Y58305428D01*
X14656483Y58305428D02*
X14729054Y58269143D01*
X14729054Y58269143D02*
X14874197Y58232857D01*
X14874197Y58232857D02*
X15055626Y58232857D01*
X15055626Y58232857D02*
X15200768Y58269143D01*
X15200768Y58269143D02*
X15273340Y58305428D01*
X15273340Y58305428D02*
X15309626Y58341714D01*
X15309626Y58341714D02*
X15345911Y58414286D01*
X15345911Y58414286D02*
X15345911Y58486857D01*
X15345911Y58486857D02*
X15309626Y58559428D01*
X15309626Y58559428D02*
X15273340Y58595714D01*
X15273340Y58595714D02*
X15200768Y58632000D01*
X15200768Y58632000D02*
X15055626Y58668286D01*
X15055626Y58668286D02*
X14874197Y58668286D01*
X14874197Y58668286D02*
X14729054Y58632000D01*
X14729054Y58632000D02*
X14656483Y58595714D01*
X14656483Y58595714D02*
X14620197Y58559428D01*
X14620197Y58559428D02*
X14583911Y58486857D01*
X14583911Y57761143D02*
X14583911Y57688572D01*
X14583911Y57688572D02*
X14620197Y57616000D01*
X14620197Y57616000D02*
X14656483Y57579714D01*
X14656483Y57579714D02*
X14729054Y57543429D01*
X14729054Y57543429D02*
X14874197Y57507143D01*
X14874197Y57507143D02*
X15055626Y57507143D01*
X15055626Y57507143D02*
X15200768Y57543429D01*
X15200768Y57543429D02*
X15273340Y57579714D01*
X15273340Y57579714D02*
X15309626Y57616000D01*
X15309626Y57616000D02*
X15345911Y57688572D01*
X15345911Y57688572D02*
X15345911Y57761143D01*
X15345911Y57761143D02*
X15309626Y57833714D01*
X15309626Y57833714D02*
X15273340Y57870000D01*
X15273340Y57870000D02*
X15200768Y57906286D01*
X15200768Y57906286D02*
X15055626Y57942572D01*
X15055626Y57942572D02*
X14874197Y57942572D01*
X14874197Y57942572D02*
X14729054Y57906286D01*
X14729054Y57906286D02*
X14656483Y57870000D01*
X14656483Y57870000D02*
X14620197Y57833714D01*
X14620197Y57833714D02*
X14583911Y57761143D01*
X14583911Y57253143D02*
X14583911Y56781429D01*
X14583911Y56781429D02*
X14874197Y57035429D01*
X14874197Y57035429D02*
X14874197Y56926572D01*
X14874197Y56926572D02*
X14910483Y56854000D01*
X14910483Y56854000D02*
X14946768Y56817715D01*
X14946768Y56817715D02*
X15019340Y56781429D01*
X15019340Y56781429D02*
X15200768Y56781429D01*
X15200768Y56781429D02*
X15273340Y56817715D01*
X15273340Y56817715D02*
X15309626Y56854000D01*
X15309626Y56854000D02*
X15345911Y56926572D01*
X15345911Y56926572D02*
X15345911Y57144286D01*
X15345911Y57144286D02*
X15309626Y57216858D01*
X15309626Y57216858D02*
X15273340Y57253143D01*
D11*
G04 #@! TO.C,JP4001*
X16976000Y81700000D02*
X17992000Y81700000D01*
X17992000Y83300000D02*
X16976000Y83300000D01*
X19008000Y81700000D02*
X20024000Y81700000D01*
X20024000Y83300000D02*
X19008000Y83300000D01*
D12*
X16921000Y81698362D02*
G75*
G02*
X16925000Y83300000I-326000J801638D01*
G01*
X20075000Y83300000D02*
G75*
G02*
X20083602Y81696505I330000J-800000D01*
G01*
D11*
G04 #@! TO.C,JP4004*
X17426001Y46683000D02*
X18442001Y46683000D01*
X18442001Y48283000D02*
X17426001Y48283000D01*
X19458001Y46683000D02*
X20474001Y46683000D01*
X20474001Y48283000D02*
X19458001Y48283000D01*
D12*
X17371001Y46681362D02*
G75*
G02*
X17375001Y48283000I-326000J801638D01*
G01*
X20525001Y48283000D02*
G75*
G02*
X20533603Y46679505I330000J-800000D01*
G01*
D11*
G04 #@! TO.C,JP2002*
X111476000Y86200000D02*
X112492000Y86200000D01*
X112492000Y87800000D02*
X111476000Y87800000D01*
X113508000Y86200000D02*
X114524000Y86200000D01*
X114524000Y87800000D02*
X113508000Y87800000D01*
D12*
X111425000Y86200000D02*
G75*
G02*
X111416398Y87803495I-330000J800000D01*
G01*
X114579000Y87801638D02*
G75*
G02*
X114575000Y86200000I326000J-801638D01*
G01*
G04 #@! TO.C,M3003*
D13*
X46625000Y8925000D02*
X74125000Y8925000D01*
X74125000Y22825000D01*
X46625000Y22825000D01*
X46625000Y8925000D01*
D11*
G04 #@! TO.C,JP4002*
X16926001Y69179000D02*
X17942001Y69179000D01*
X17942001Y70779000D02*
X16926001Y70779000D01*
X18958001Y69179000D02*
X19974001Y69179000D01*
X19974001Y70779000D02*
X18958001Y70779000D01*
D12*
X16871001Y69177362D02*
G75*
G02*
X16875001Y70779000I-326000J801638D01*
G01*
X20025001Y70779000D02*
G75*
G02*
X20033603Y69175505I330000J-800000D01*
G01*
D13*
G04 #@! TO.C,M6002*
X92431797Y85930400D02*
X92431797Y76830400D01*
X92431797Y85930400D02*
X93431799Y85930400D01*
X95531800Y85930400D02*
X95531800Y76830400D01*
D11*
G04 #@! TO.C,JP2008*
X76050782Y86524000D02*
X76050782Y85508000D01*
X76050782Y84492000D02*
X76050782Y83476000D01*
X77650782Y85508000D02*
X77650782Y86524000D01*
X77650782Y83476000D02*
X77650782Y84492000D01*
D12*
X76050782Y86575000D02*
G75*
G02*
X77654277Y86583602I800000J330000D01*
G01*
X77652420Y83421000D02*
G75*
G02*
X76050782Y83425000I-801638J-326000D01*
G01*
D13*
G04 #@! TO.C,M3001*
X135503002Y63546999D02*
X135503002Y63247001D01*
X135503004Y82397001D02*
X135502999Y80847001D01*
X135503004Y78846999D02*
X135503004Y77746996D01*
X135503004Y76147001D02*
X135503004Y73447001D01*
X135503004Y69946999D02*
X135503004Y65146999D01*
X150803001Y63247003D02*
X135503002Y63247001D01*
X152303001Y83847001D02*
X136903001Y83847001D01*
X152303001Y83847001D02*
X152303001Y83547001D01*
X152303001Y81947001D02*
X152303001Y71546999D01*
X152303001Y69847001D02*
X152303001Y66646998D01*
G04 #@! TO.C,M3002*
X52475015Y28224995D02*
X52475015Y62025005D01*
X88275005Y62025005D02*
X52475015Y62025005D01*
X88275005Y28224995D02*
X52475015Y28224995D01*
X88275005Y28224995D02*
X88275005Y62025005D01*
D11*
G04 #@! TO.C,JP2009*
X73200000Y86524000D02*
X73200000Y85508000D01*
X73200000Y84492000D02*
X73200000Y83476000D01*
X74800000Y85508000D02*
X74800000Y86524000D01*
X74800000Y83476000D02*
X74800000Y84492000D01*
D12*
X73200000Y86575000D02*
G75*
G02*
X74803495Y86583602I800000J330000D01*
G01*
X74801638Y83421000D02*
G75*
G02*
X73200000Y83425000I-801638J-326000D01*
G01*
D13*
G04 #@! TO.C,M6001*
X88900000Y85925000D02*
X88900000Y76825000D01*
X88900000Y85925000D02*
X89900002Y85925000D01*
X92000003Y85925000D02*
X92000003Y76825000D01*
D11*
G04 #@! TO.C,JP2007*
X78901564Y86524000D02*
X78901564Y85508000D01*
X78901564Y84492000D02*
X78901564Y83476000D01*
X80501564Y85508000D02*
X80501564Y86524000D01*
X80501564Y83476000D02*
X80501564Y84492000D01*
D12*
X78901564Y86575000D02*
G75*
G02*
X80505059Y86583602I800000J330000D01*
G01*
X80503202Y83421000D02*
G75*
G02*
X78901564Y83425000I-801638J-326000D01*
G01*
D13*
G04 #@! TO.C,M3005*
X37300013Y54899999D02*
X37300013Y63325019D01*
X37300013Y54899999D02*
X42700012Y54899999D01*
X37325014Y63350020D02*
X38350013Y64375019D01*
X38350013Y67324998D02*
X38700015Y67675000D01*
X38350013Y64375019D02*
X38350013Y67324998D01*
X38700015Y67675000D02*
X42325012Y67675000D01*
X42325012Y67675000D02*
X42700012Y67299999D01*
X42700012Y54899999D02*
X42700012Y67299999D01*
G04 #@! TO.C,M3004*
X99927173Y27924999D02*
X99888326Y39099999D01*
X105624995Y27924999D02*
X99927173Y27924999D01*
X105624995Y27924999D02*
X105900001Y28200003D01*
X106725000Y28200003D02*
X105900001Y28200003D01*
X106725000Y28200003D02*
X106775000Y28256205D01*
X106775000Y28256205D02*
X106775000Y39099999D01*
X106781203Y39099999D02*
X99888326Y39099999D01*
D11*
G04 #@! TO.C,JP2006*
X81752346Y86524000D02*
X81752346Y85508000D01*
X81752346Y84492000D02*
X81752346Y83476000D01*
X83352346Y85508000D02*
X83352346Y86524000D01*
X83352346Y83476000D02*
X83352346Y84492000D01*
D12*
X81752346Y86575000D02*
G75*
G02*
X83355841Y86583602I800000J330000D01*
G01*
X83353984Y83421000D02*
G75*
G02*
X81752346Y83425000I-801638J-326000D01*
G01*
D11*
G04 #@! TO.C,JP4003*
X16976000Y57959000D02*
X17992000Y57959000D01*
X17992000Y59559000D02*
X16976000Y59559000D01*
X19008000Y57959000D02*
X20024000Y57959000D01*
X20024000Y59559000D02*
X19008000Y59559000D01*
D12*
X16921000Y57957362D02*
G75*
G02*
X16925000Y59559000I-326000J801638D01*
G01*
X20075000Y59559000D02*
G75*
G02*
X20083602Y57955505I330000J-800000D01*
G01*
G04 #@! TD*
M02*
