G04 #@! TF.GenerationSoftware,KiCad,Pcbnew,8.0.8-8.0.8-0~ubuntu24.04.1*
G04 #@! TF.CreationDate,2025-02-16T13:41:48+00:00*
G04 #@! TF.ProjectId,hellenbms46,68656c6c-656e-4626-9d73-34362e6b6963,rev?*
G04 #@! TF.SameCoordinates,PX4c4b400PY96ae380*
G04 #@! TF.FileFunction,Legend,Top*
G04 #@! TF.FilePolarity,Positive*
%FSLAX46Y46*%
G04 Gerber Fmt 4.6, Leading zero omitted, Abs format (unit mm)*
G04 Created by KiCad (PCBNEW 8.0.8-8.0.8-0~ubuntu24.04.1) date 2025-02-16 13:41:48*
%MOMM*%
%LPD*%
G01*
G04 APERTURE LIST*
%ADD10C,0.150000*%
%ADD11C,0.170000*%
%ADD12C,0.254000*%
%ADD13C,0.120000*%
%ADD14C,0.203200*%
%ADD15C,0.200000*%
G04 APERTURE END LIST*
D10*
X136389809Y37847105D02*
X136437428Y37989962D01*
X136437428Y37989962D02*
X136485047Y38037581D01*
X136485047Y38037581D02*
X136580285Y38085200D01*
X136580285Y38085200D02*
X136723142Y38085200D01*
X136723142Y38085200D02*
X136818380Y38037581D01*
X136818380Y38037581D02*
X136866000Y37989962D01*
X136866000Y37989962D02*
X136913619Y37894724D01*
X136913619Y37894724D02*
X136913619Y37513772D01*
X136913619Y37513772D02*
X135913619Y37513772D01*
X135913619Y37513772D02*
X135913619Y37847105D01*
X135913619Y37847105D02*
X135961238Y37942343D01*
X135961238Y37942343D02*
X136008857Y37989962D01*
X136008857Y37989962D02*
X136104095Y38037581D01*
X136104095Y38037581D02*
X136199333Y38037581D01*
X136199333Y38037581D02*
X136294571Y37989962D01*
X136294571Y37989962D02*
X136342190Y37942343D01*
X136342190Y37942343D02*
X136389809Y37847105D01*
X136389809Y37847105D02*
X136389809Y37513772D01*
X135913619Y38370915D02*
X135913619Y38942343D01*
X136913619Y38656629D02*
X135913619Y38656629D01*
X135913619Y39180439D02*
X135913619Y39799486D01*
X135913619Y39799486D02*
X136294571Y39466153D01*
X136294571Y39466153D02*
X136294571Y39609010D01*
X136294571Y39609010D02*
X136342190Y39704248D01*
X136342190Y39704248D02*
X136389809Y39751867D01*
X136389809Y39751867D02*
X136485047Y39799486D01*
X136485047Y39799486D02*
X136723142Y39799486D01*
X136723142Y39799486D02*
X136818380Y39751867D01*
X136818380Y39751867D02*
X136866000Y39704248D01*
X136866000Y39704248D02*
X136913619Y39609010D01*
X136913619Y39609010D02*
X136913619Y39323296D01*
X136913619Y39323296D02*
X136866000Y39228058D01*
X136866000Y39228058D02*
X136818380Y39180439D01*
X135913619Y40418534D02*
X135913619Y40513772D01*
X135913619Y40513772D02*
X135961238Y40609010D01*
X135961238Y40609010D02*
X136008857Y40656629D01*
X136008857Y40656629D02*
X136104095Y40704248D01*
X136104095Y40704248D02*
X136294571Y40751867D01*
X136294571Y40751867D02*
X136532666Y40751867D01*
X136532666Y40751867D02*
X136723142Y40704248D01*
X136723142Y40704248D02*
X136818380Y40656629D01*
X136818380Y40656629D02*
X136866000Y40609010D01*
X136866000Y40609010D02*
X136913619Y40513772D01*
X136913619Y40513772D02*
X136913619Y40418534D01*
X136913619Y40418534D02*
X136866000Y40323296D01*
X136866000Y40323296D02*
X136818380Y40275677D01*
X136818380Y40275677D02*
X136723142Y40228058D01*
X136723142Y40228058D02*
X136532666Y40180439D01*
X136532666Y40180439D02*
X136294571Y40180439D01*
X136294571Y40180439D02*
X136104095Y40228058D01*
X136104095Y40228058D02*
X136008857Y40275677D01*
X136008857Y40275677D02*
X135961238Y40323296D01*
X135961238Y40323296D02*
X135913619Y40418534D01*
X136913619Y41704248D02*
X136913619Y41132820D01*
X136913619Y41418534D02*
X135913619Y41418534D01*
X135913619Y41418534D02*
X136056476Y41323296D01*
X136056476Y41323296D02*
X136151714Y41228058D01*
X136151714Y41228058D02*
X136199333Y41132820D01*
X25114785Y63994991D02*
X24781452Y63994991D01*
X24781452Y63471181D02*
X24781452Y64471181D01*
X24781452Y64471181D02*
X25257642Y64471181D01*
X26067166Y64137848D02*
X26067166Y63471181D01*
X25829071Y64518800D02*
X25590976Y63804515D01*
X25590976Y63804515D02*
X26210023Y63804515D01*
X26781452Y64471181D02*
X26876690Y64471181D01*
X26876690Y64471181D02*
X26971928Y64423562D01*
X26971928Y64423562D02*
X27019547Y64375943D01*
X27019547Y64375943D02*
X27067166Y64280705D01*
X27067166Y64280705D02*
X27114785Y64090229D01*
X27114785Y64090229D02*
X27114785Y63852134D01*
X27114785Y63852134D02*
X27067166Y63661658D01*
X27067166Y63661658D02*
X27019547Y63566420D01*
X27019547Y63566420D02*
X26971928Y63518800D01*
X26971928Y63518800D02*
X26876690Y63471181D01*
X26876690Y63471181D02*
X26781452Y63471181D01*
X26781452Y63471181D02*
X26686214Y63518800D01*
X26686214Y63518800D02*
X26638595Y63566420D01*
X26638595Y63566420D02*
X26590976Y63661658D01*
X26590976Y63661658D02*
X26543357Y63852134D01*
X26543357Y63852134D02*
X26543357Y64090229D01*
X26543357Y64090229D02*
X26590976Y64280705D01*
X26590976Y64280705D02*
X26638595Y64375943D01*
X26638595Y64375943D02*
X26686214Y64423562D01*
X26686214Y64423562D02*
X26781452Y64471181D01*
X27448119Y64471181D02*
X28067166Y64471181D01*
X28067166Y64471181D02*
X27733833Y64090229D01*
X27733833Y64090229D02*
X27876690Y64090229D01*
X27876690Y64090229D02*
X27971928Y64042610D01*
X27971928Y64042610D02*
X28019547Y63994991D01*
X28019547Y63994991D02*
X28067166Y63899753D01*
X28067166Y63899753D02*
X28067166Y63661658D01*
X28067166Y63661658D02*
X28019547Y63566420D01*
X28019547Y63566420D02*
X27971928Y63518800D01*
X27971928Y63518800D02*
X27876690Y63471181D01*
X27876690Y63471181D02*
X27590976Y63471181D01*
X27590976Y63471181D02*
X27495738Y63518800D01*
X27495738Y63518800D02*
X27448119Y63566420D01*
X130812285Y80291181D02*
X130812285Y79576896D01*
X130812285Y79576896D02*
X130764666Y79434039D01*
X130764666Y79434039D02*
X130669428Y79338800D01*
X130669428Y79338800D02*
X130526571Y79291181D01*
X130526571Y79291181D02*
X130431333Y79291181D01*
X131288476Y79291181D02*
X131288476Y80291181D01*
X131288476Y80291181D02*
X131669428Y80291181D01*
X131669428Y80291181D02*
X131764666Y80243562D01*
X131764666Y80243562D02*
X131812285Y80195943D01*
X131812285Y80195943D02*
X131859904Y80100705D01*
X131859904Y80100705D02*
X131859904Y79957848D01*
X131859904Y79957848D02*
X131812285Y79862610D01*
X131812285Y79862610D02*
X131764666Y79814991D01*
X131764666Y79814991D02*
X131669428Y79767372D01*
X131669428Y79767372D02*
X131288476Y79767372D01*
X132193238Y80291181D02*
X132812285Y80291181D01*
X132812285Y80291181D02*
X132478952Y79910229D01*
X132478952Y79910229D02*
X132621809Y79910229D01*
X132621809Y79910229D02*
X132717047Y79862610D01*
X132717047Y79862610D02*
X132764666Y79814991D01*
X132764666Y79814991D02*
X132812285Y79719753D01*
X132812285Y79719753D02*
X132812285Y79481658D01*
X132812285Y79481658D02*
X132764666Y79386420D01*
X132764666Y79386420D02*
X132717047Y79338800D01*
X132717047Y79338800D02*
X132621809Y79291181D01*
X132621809Y79291181D02*
X132336095Y79291181D01*
X132336095Y79291181D02*
X132240857Y79338800D01*
X132240857Y79338800D02*
X132193238Y79386420D01*
X133431333Y80291181D02*
X133526571Y80291181D01*
X133526571Y80291181D02*
X133621809Y80243562D01*
X133621809Y80243562D02*
X133669428Y80195943D01*
X133669428Y80195943D02*
X133717047Y80100705D01*
X133717047Y80100705D02*
X133764666Y79910229D01*
X133764666Y79910229D02*
X133764666Y79672134D01*
X133764666Y79672134D02*
X133717047Y79481658D01*
X133717047Y79481658D02*
X133669428Y79386420D01*
X133669428Y79386420D02*
X133621809Y79338800D01*
X133621809Y79338800D02*
X133526571Y79291181D01*
X133526571Y79291181D02*
X133431333Y79291181D01*
X133431333Y79291181D02*
X133336095Y79338800D01*
X133336095Y79338800D02*
X133288476Y79386420D01*
X133288476Y79386420D02*
X133240857Y79481658D01*
X133240857Y79481658D02*
X133193238Y79672134D01*
X133193238Y79672134D02*
X133193238Y79910229D01*
X133193238Y79910229D02*
X133240857Y80100705D01*
X133240857Y80100705D02*
X133288476Y80195943D01*
X133288476Y80195943D02*
X133336095Y80243562D01*
X133336095Y80243562D02*
X133431333Y80291181D01*
X134717047Y79291181D02*
X134145619Y79291181D01*
X134431333Y79291181D02*
X134431333Y80291181D01*
X134431333Y80291181D02*
X134336095Y80148324D01*
X134336095Y80148324D02*
X134240857Y80053086D01*
X134240857Y80053086D02*
X134145619Y80005467D01*
X25114785Y78994991D02*
X24781452Y78994991D01*
X24781452Y78471181D02*
X24781452Y79471181D01*
X24781452Y79471181D02*
X25257642Y79471181D01*
X26067166Y79137848D02*
X26067166Y78471181D01*
X25829071Y79518800D02*
X25590976Y78804515D01*
X25590976Y78804515D02*
X26210023Y78804515D01*
X26781452Y79471181D02*
X26876690Y79471181D01*
X26876690Y79471181D02*
X26971928Y79423562D01*
X26971928Y79423562D02*
X27019547Y79375943D01*
X27019547Y79375943D02*
X27067166Y79280705D01*
X27067166Y79280705D02*
X27114785Y79090229D01*
X27114785Y79090229D02*
X27114785Y78852134D01*
X27114785Y78852134D02*
X27067166Y78661658D01*
X27067166Y78661658D02*
X27019547Y78566420D01*
X27019547Y78566420D02*
X26971928Y78518800D01*
X26971928Y78518800D02*
X26876690Y78471181D01*
X26876690Y78471181D02*
X26781452Y78471181D01*
X26781452Y78471181D02*
X26686214Y78518800D01*
X26686214Y78518800D02*
X26638595Y78566420D01*
X26638595Y78566420D02*
X26590976Y78661658D01*
X26590976Y78661658D02*
X26543357Y78852134D01*
X26543357Y78852134D02*
X26543357Y79090229D01*
X26543357Y79090229D02*
X26590976Y79280705D01*
X26590976Y79280705D02*
X26638595Y79375943D01*
X26638595Y79375943D02*
X26686214Y79423562D01*
X26686214Y79423562D02*
X26781452Y79471181D01*
X28067166Y78471181D02*
X27495738Y78471181D01*
X27781452Y78471181D02*
X27781452Y79471181D01*
X27781452Y79471181D02*
X27686214Y79328324D01*
X27686214Y79328324D02*
X27590976Y79233086D01*
X27590976Y79233086D02*
X27495738Y79185467D01*
X16416952Y81279181D02*
X16083619Y81755372D01*
X15845524Y81279181D02*
X15845524Y82279181D01*
X15845524Y82279181D02*
X16226476Y82279181D01*
X16226476Y82279181D02*
X16321714Y82231562D01*
X16321714Y82231562D02*
X16369333Y82183943D01*
X16369333Y82183943D02*
X16416952Y82088705D01*
X16416952Y82088705D02*
X16416952Y81945848D01*
X16416952Y81945848D02*
X16369333Y81850610D01*
X16369333Y81850610D02*
X16321714Y81802991D01*
X16321714Y81802991D02*
X16226476Y81755372D01*
X16226476Y81755372D02*
X15845524Y81755372D01*
X17274095Y81945848D02*
X17274095Y81279181D01*
X17036000Y82326800D02*
X16797905Y81612515D01*
X16797905Y81612515D02*
X17416952Y81612515D01*
X17988381Y82279181D02*
X18083619Y82279181D01*
X18083619Y82279181D02*
X18178857Y82231562D01*
X18178857Y82231562D02*
X18226476Y82183943D01*
X18226476Y82183943D02*
X18274095Y82088705D01*
X18274095Y82088705D02*
X18321714Y81898229D01*
X18321714Y81898229D02*
X18321714Y81660134D01*
X18321714Y81660134D02*
X18274095Y81469658D01*
X18274095Y81469658D02*
X18226476Y81374420D01*
X18226476Y81374420D02*
X18178857Y81326800D01*
X18178857Y81326800D02*
X18083619Y81279181D01*
X18083619Y81279181D02*
X17988381Y81279181D01*
X17988381Y81279181D02*
X17893143Y81326800D01*
X17893143Y81326800D02*
X17845524Y81374420D01*
X17845524Y81374420D02*
X17797905Y81469658D01*
X17797905Y81469658D02*
X17750286Y81660134D01*
X17750286Y81660134D02*
X17750286Y81898229D01*
X17750286Y81898229D02*
X17797905Y82088705D01*
X17797905Y82088705D02*
X17845524Y82183943D01*
X17845524Y82183943D02*
X17893143Y82231562D01*
X17893143Y82231562D02*
X17988381Y82279181D01*
X19274095Y81279181D02*
X18702667Y81279181D01*
X18988381Y81279181D02*
X18988381Y82279181D01*
X18988381Y82279181D02*
X18893143Y82136324D01*
X18893143Y82136324D02*
X18797905Y82041086D01*
X18797905Y82041086D02*
X18702667Y81993467D01*
X77066819Y79069715D02*
X77876342Y79069715D01*
X77876342Y79069715D02*
X77971580Y79117334D01*
X77971580Y79117334D02*
X78019200Y79164953D01*
X78019200Y79164953D02*
X78066819Y79260191D01*
X78066819Y79260191D02*
X78066819Y79450667D01*
X78066819Y79450667D02*
X78019200Y79545905D01*
X78019200Y79545905D02*
X77971580Y79593524D01*
X77971580Y79593524D02*
X77876342Y79641143D01*
X77876342Y79641143D02*
X77066819Y79641143D01*
X77066819Y80593524D02*
X77066819Y80117334D01*
X77066819Y80117334D02*
X77543009Y80069715D01*
X77543009Y80069715D02*
X77495390Y80117334D01*
X77495390Y80117334D02*
X77447771Y80212572D01*
X77447771Y80212572D02*
X77447771Y80450667D01*
X77447771Y80450667D02*
X77495390Y80545905D01*
X77495390Y80545905D02*
X77543009Y80593524D01*
X77543009Y80593524D02*
X77638247Y80641143D01*
X77638247Y80641143D02*
X77876342Y80641143D01*
X77876342Y80641143D02*
X77971580Y80593524D01*
X77971580Y80593524D02*
X78019200Y80545905D01*
X78019200Y80545905D02*
X78066819Y80450667D01*
X78066819Y80450667D02*
X78066819Y80212572D01*
X78066819Y80212572D02*
X78019200Y80117334D01*
X78019200Y80117334D02*
X77971580Y80069715D01*
X77066819Y81260191D02*
X77066819Y81355429D01*
X77066819Y81355429D02*
X77114438Y81450667D01*
X77114438Y81450667D02*
X77162057Y81498286D01*
X77162057Y81498286D02*
X77257295Y81545905D01*
X77257295Y81545905D02*
X77447771Y81593524D01*
X77447771Y81593524D02*
X77685866Y81593524D01*
X77685866Y81593524D02*
X77876342Y81545905D01*
X77876342Y81545905D02*
X77971580Y81498286D01*
X77971580Y81498286D02*
X78019200Y81450667D01*
X78019200Y81450667D02*
X78066819Y81355429D01*
X78066819Y81355429D02*
X78066819Y81260191D01*
X78066819Y81260191D02*
X78019200Y81164953D01*
X78019200Y81164953D02*
X77971580Y81117334D01*
X77971580Y81117334D02*
X77876342Y81069715D01*
X77876342Y81069715D02*
X77685866Y81022096D01*
X77685866Y81022096D02*
X77447771Y81022096D01*
X77447771Y81022096D02*
X77257295Y81069715D01*
X77257295Y81069715D02*
X77162057Y81117334D01*
X77162057Y81117334D02*
X77114438Y81164953D01*
X77114438Y81164953D02*
X77066819Y81260191D01*
X77162057Y81974477D02*
X77114438Y82022096D01*
X77114438Y82022096D02*
X77066819Y82117334D01*
X77066819Y82117334D02*
X77066819Y82355429D01*
X77066819Y82355429D02*
X77114438Y82450667D01*
X77114438Y82450667D02*
X77162057Y82498286D01*
X77162057Y82498286D02*
X77257295Y82545905D01*
X77257295Y82545905D02*
X77352533Y82545905D01*
X77352533Y82545905D02*
X77495390Y82498286D01*
X77495390Y82498286D02*
X78066819Y81926858D01*
X78066819Y81926858D02*
X78066819Y82545905D01*
D11*
X76418939Y73947093D02*
X76028463Y73673760D01*
X76418939Y73478522D02*
X75598939Y73478522D01*
X75598939Y73478522D02*
X75598939Y73790903D01*
X75598939Y73790903D02*
X75637987Y73868998D01*
X75637987Y73868998D02*
X75677034Y73908045D01*
X75677034Y73908045D02*
X75755130Y73947093D01*
X75755130Y73947093D02*
X75872272Y73947093D01*
X75872272Y73947093D02*
X75950368Y73908045D01*
X75950368Y73908045D02*
X75989415Y73868998D01*
X75989415Y73868998D02*
X76028463Y73790903D01*
X76028463Y73790903D02*
X76028463Y73478522D01*
X75598939Y74688998D02*
X75598939Y74298522D01*
X75598939Y74298522D02*
X75989415Y74259474D01*
X75989415Y74259474D02*
X75950368Y74298522D01*
X75950368Y74298522D02*
X75911320Y74376617D01*
X75911320Y74376617D02*
X75911320Y74571855D01*
X75911320Y74571855D02*
X75950368Y74649950D01*
X75950368Y74649950D02*
X75989415Y74688998D01*
X75989415Y74688998D02*
X76067511Y74728045D01*
X76067511Y74728045D02*
X76262749Y74728045D01*
X76262749Y74728045D02*
X76340844Y74688998D01*
X76340844Y74688998D02*
X76379892Y74649950D01*
X76379892Y74649950D02*
X76418939Y74571855D01*
X76418939Y74571855D02*
X76418939Y74376617D01*
X76418939Y74376617D02*
X76379892Y74298522D01*
X76379892Y74298522D02*
X76340844Y74259474D01*
X75598939Y75235664D02*
X75598939Y75313759D01*
X75598939Y75313759D02*
X75637987Y75391855D01*
X75637987Y75391855D02*
X75677034Y75430902D01*
X75677034Y75430902D02*
X75755130Y75469950D01*
X75755130Y75469950D02*
X75911320Y75508997D01*
X75911320Y75508997D02*
X76106558Y75508997D01*
X76106558Y75508997D02*
X76262749Y75469950D01*
X76262749Y75469950D02*
X76340844Y75430902D01*
X76340844Y75430902D02*
X76379892Y75391855D01*
X76379892Y75391855D02*
X76418939Y75313759D01*
X76418939Y75313759D02*
X76418939Y75235664D01*
X76418939Y75235664D02*
X76379892Y75157569D01*
X76379892Y75157569D02*
X76340844Y75118521D01*
X76340844Y75118521D02*
X76262749Y75079474D01*
X76262749Y75079474D02*
X76106558Y75040426D01*
X76106558Y75040426D02*
X75911320Y75040426D01*
X75911320Y75040426D02*
X75755130Y75079474D01*
X75755130Y75079474D02*
X75677034Y75118521D01*
X75677034Y75118521D02*
X75637987Y75157569D01*
X75637987Y75157569D02*
X75598939Y75235664D01*
X75677034Y75821378D02*
X75637987Y75860426D01*
X75637987Y75860426D02*
X75598939Y75938521D01*
X75598939Y75938521D02*
X75598939Y76133759D01*
X75598939Y76133759D02*
X75637987Y76211854D01*
X75637987Y76211854D02*
X75677034Y76250902D01*
X75677034Y76250902D02*
X75755130Y76289949D01*
X75755130Y76289949D02*
X75833225Y76289949D01*
X75833225Y76289949D02*
X75950368Y76250902D01*
X75950368Y76250902D02*
X76418939Y75782330D01*
X76418939Y75782330D02*
X76418939Y76289949D01*
D10*
X70486819Y79069715D02*
X71296342Y79069715D01*
X71296342Y79069715D02*
X71391580Y79117334D01*
X71391580Y79117334D02*
X71439200Y79164953D01*
X71439200Y79164953D02*
X71486819Y79260191D01*
X71486819Y79260191D02*
X71486819Y79450667D01*
X71486819Y79450667D02*
X71439200Y79545905D01*
X71439200Y79545905D02*
X71391580Y79593524D01*
X71391580Y79593524D02*
X71296342Y79641143D01*
X71296342Y79641143D02*
X70486819Y79641143D01*
X70486819Y80593524D02*
X70486819Y80117334D01*
X70486819Y80117334D02*
X70963009Y80069715D01*
X70963009Y80069715D02*
X70915390Y80117334D01*
X70915390Y80117334D02*
X70867771Y80212572D01*
X70867771Y80212572D02*
X70867771Y80450667D01*
X70867771Y80450667D02*
X70915390Y80545905D01*
X70915390Y80545905D02*
X70963009Y80593524D01*
X70963009Y80593524D02*
X71058247Y80641143D01*
X71058247Y80641143D02*
X71296342Y80641143D01*
X71296342Y80641143D02*
X71391580Y80593524D01*
X71391580Y80593524D02*
X71439200Y80545905D01*
X71439200Y80545905D02*
X71486819Y80450667D01*
X71486819Y80450667D02*
X71486819Y80212572D01*
X71486819Y80212572D02*
X71439200Y80117334D01*
X71439200Y80117334D02*
X71391580Y80069715D01*
X70486819Y81260191D02*
X70486819Y81355429D01*
X70486819Y81355429D02*
X70534438Y81450667D01*
X70534438Y81450667D02*
X70582057Y81498286D01*
X70582057Y81498286D02*
X70677295Y81545905D01*
X70677295Y81545905D02*
X70867771Y81593524D01*
X70867771Y81593524D02*
X71105866Y81593524D01*
X71105866Y81593524D02*
X71296342Y81545905D01*
X71296342Y81545905D02*
X71391580Y81498286D01*
X71391580Y81498286D02*
X71439200Y81450667D01*
X71439200Y81450667D02*
X71486819Y81355429D01*
X71486819Y81355429D02*
X71486819Y81260191D01*
X71486819Y81260191D02*
X71439200Y81164953D01*
X71439200Y81164953D02*
X71391580Y81117334D01*
X71391580Y81117334D02*
X71296342Y81069715D01*
X71296342Y81069715D02*
X71105866Y81022096D01*
X71105866Y81022096D02*
X70867771Y81022096D01*
X70867771Y81022096D02*
X70677295Y81069715D01*
X70677295Y81069715D02*
X70582057Y81117334D01*
X70582057Y81117334D02*
X70534438Y81164953D01*
X70534438Y81164953D02*
X70486819Y81260191D01*
X71486819Y82545905D02*
X71486819Y81974477D01*
X71486819Y82260191D02*
X70486819Y82260191D01*
X70486819Y82260191D02*
X70629676Y82164953D01*
X70629676Y82164953D02*
X70724914Y82069715D01*
X70724914Y82069715D02*
X70772533Y81974477D01*
X107768352Y88001220D02*
X107720733Y87953600D01*
X107720733Y87953600D02*
X107577876Y87905981D01*
X107577876Y87905981D02*
X107482638Y87905981D01*
X107482638Y87905981D02*
X107339781Y87953600D01*
X107339781Y87953600D02*
X107244543Y88048839D01*
X107244543Y88048839D02*
X107196924Y88144077D01*
X107196924Y88144077D02*
X107149305Y88334553D01*
X107149305Y88334553D02*
X107149305Y88477410D01*
X107149305Y88477410D02*
X107196924Y88667886D01*
X107196924Y88667886D02*
X107244543Y88763124D01*
X107244543Y88763124D02*
X107339781Y88858362D01*
X107339781Y88858362D02*
X107482638Y88905981D01*
X107482638Y88905981D02*
X107577876Y88905981D01*
X107577876Y88905981D02*
X107720733Y88858362D01*
X107720733Y88858362D02*
X107768352Y88810743D01*
X108625495Y88905981D02*
X108435019Y88905981D01*
X108435019Y88905981D02*
X108339781Y88858362D01*
X108339781Y88858362D02*
X108292162Y88810743D01*
X108292162Y88810743D02*
X108196924Y88667886D01*
X108196924Y88667886D02*
X108149305Y88477410D01*
X108149305Y88477410D02*
X108149305Y88096458D01*
X108149305Y88096458D02*
X108196924Y88001220D01*
X108196924Y88001220D02*
X108244543Y87953600D01*
X108244543Y87953600D02*
X108339781Y87905981D01*
X108339781Y87905981D02*
X108530257Y87905981D01*
X108530257Y87905981D02*
X108625495Y87953600D01*
X108625495Y87953600D02*
X108673114Y88001220D01*
X108673114Y88001220D02*
X108720733Y88096458D01*
X108720733Y88096458D02*
X108720733Y88334553D01*
X108720733Y88334553D02*
X108673114Y88429791D01*
X108673114Y88429791D02*
X108625495Y88477410D01*
X108625495Y88477410D02*
X108530257Y88525029D01*
X108530257Y88525029D02*
X108339781Y88525029D01*
X108339781Y88525029D02*
X108244543Y88477410D01*
X108244543Y88477410D02*
X108196924Y88429791D01*
X108196924Y88429791D02*
X108149305Y88334553D01*
X109339781Y88905981D02*
X109435019Y88905981D01*
X109435019Y88905981D02*
X109530257Y88858362D01*
X109530257Y88858362D02*
X109577876Y88810743D01*
X109577876Y88810743D02*
X109625495Y88715505D01*
X109625495Y88715505D02*
X109673114Y88525029D01*
X109673114Y88525029D02*
X109673114Y88286934D01*
X109673114Y88286934D02*
X109625495Y88096458D01*
X109625495Y88096458D02*
X109577876Y88001220D01*
X109577876Y88001220D02*
X109530257Y87953600D01*
X109530257Y87953600D02*
X109435019Y87905981D01*
X109435019Y87905981D02*
X109339781Y87905981D01*
X109339781Y87905981D02*
X109244543Y87953600D01*
X109244543Y87953600D02*
X109196924Y88001220D01*
X109196924Y88001220D02*
X109149305Y88096458D01*
X109149305Y88096458D02*
X109101686Y88286934D01*
X109101686Y88286934D02*
X109101686Y88525029D01*
X109101686Y88525029D02*
X109149305Y88715505D01*
X109149305Y88715505D02*
X109196924Y88810743D01*
X109196924Y88810743D02*
X109244543Y88858362D01*
X109244543Y88858362D02*
X109339781Y88905981D01*
X110054067Y88810743D02*
X110101686Y88858362D01*
X110101686Y88858362D02*
X110196924Y88905981D01*
X110196924Y88905981D02*
X110435019Y88905981D01*
X110435019Y88905981D02*
X110530257Y88858362D01*
X110530257Y88858362D02*
X110577876Y88810743D01*
X110577876Y88810743D02*
X110625495Y88715505D01*
X110625495Y88715505D02*
X110625495Y88620267D01*
X110625495Y88620267D02*
X110577876Y88477410D01*
X110577876Y88477410D02*
X110006448Y87905981D01*
X110006448Y87905981D02*
X110625495Y87905981D01*
D11*
X23071985Y31274093D02*
X22681509Y31000760D01*
X23071985Y30805522D02*
X22251985Y30805522D01*
X22251985Y30805522D02*
X22251985Y31117903D01*
X22251985Y31117903D02*
X22291033Y31195998D01*
X22291033Y31195998D02*
X22330080Y31235045D01*
X22330080Y31235045D02*
X22408176Y31274093D01*
X22408176Y31274093D02*
X22525318Y31274093D01*
X22525318Y31274093D02*
X22603414Y31235045D01*
X22603414Y31235045D02*
X22642461Y31195998D01*
X22642461Y31195998D02*
X22681509Y31117903D01*
X22681509Y31117903D02*
X22681509Y30805522D01*
X22525318Y31976950D02*
X23071985Y31976950D01*
X22212938Y31781712D02*
X22798652Y31586474D01*
X22798652Y31586474D02*
X22798652Y32094093D01*
X22251985Y32562664D02*
X22251985Y32640759D01*
X22251985Y32640759D02*
X22291033Y32718855D01*
X22291033Y32718855D02*
X22330080Y32757902D01*
X22330080Y32757902D02*
X22408176Y32796950D01*
X22408176Y32796950D02*
X22564366Y32835997D01*
X22564366Y32835997D02*
X22759604Y32835997D01*
X22759604Y32835997D02*
X22915795Y32796950D01*
X22915795Y32796950D02*
X22993890Y32757902D01*
X22993890Y32757902D02*
X23032938Y32718855D01*
X23032938Y32718855D02*
X23071985Y32640759D01*
X23071985Y32640759D02*
X23071985Y32562664D01*
X23071985Y32562664D02*
X23032938Y32484569D01*
X23032938Y32484569D02*
X22993890Y32445521D01*
X22993890Y32445521D02*
X22915795Y32406474D01*
X22915795Y32406474D02*
X22759604Y32367426D01*
X22759604Y32367426D02*
X22564366Y32367426D01*
X22564366Y32367426D02*
X22408176Y32406474D01*
X22408176Y32406474D02*
X22330080Y32445521D01*
X22330080Y32445521D02*
X22291033Y32484569D01*
X22291033Y32484569D02*
X22251985Y32562664D01*
X22525318Y33538854D02*
X23071985Y33538854D01*
X22212938Y33343616D02*
X22798652Y33148378D01*
X22798652Y33148378D02*
X22798652Y33655997D01*
D12*
X71782743Y10715882D02*
X71782743Y9808739D01*
X71782743Y9808739D02*
X71722266Y9627311D01*
X71722266Y9627311D02*
X71601314Y9506358D01*
X71601314Y9506358D02*
X71419885Y9445882D01*
X71419885Y9445882D02*
X71298933Y9445882D01*
X72327028Y10594930D02*
X72387504Y10655406D01*
X72387504Y10655406D02*
X72508457Y10715882D01*
X72508457Y10715882D02*
X72810838Y10715882D01*
X72810838Y10715882D02*
X72931790Y10655406D01*
X72931790Y10655406D02*
X72992266Y10594930D01*
X72992266Y10594930D02*
X73052743Y10473978D01*
X73052743Y10473978D02*
X73052743Y10353025D01*
X73052743Y10353025D02*
X72992266Y10171597D01*
X72992266Y10171597D02*
X72266552Y9445882D01*
X72266552Y9445882D02*
X73052743Y9445882D01*
X73838933Y10715882D02*
X73959886Y10715882D01*
X73959886Y10715882D02*
X74080838Y10655406D01*
X74080838Y10655406D02*
X74141314Y10594930D01*
X74141314Y10594930D02*
X74201790Y10473978D01*
X74201790Y10473978D02*
X74262267Y10232073D01*
X74262267Y10232073D02*
X74262267Y9929692D01*
X74262267Y9929692D02*
X74201790Y9687787D01*
X74201790Y9687787D02*
X74141314Y9566835D01*
X74141314Y9566835D02*
X74080838Y9506358D01*
X74080838Y9506358D02*
X73959886Y9445882D01*
X73959886Y9445882D02*
X73838933Y9445882D01*
X73838933Y9445882D02*
X73717981Y9506358D01*
X73717981Y9506358D02*
X73657505Y9566835D01*
X73657505Y9566835D02*
X73597028Y9687787D01*
X73597028Y9687787D02*
X73536552Y9929692D01*
X73536552Y9929692D02*
X73536552Y10232073D01*
X73536552Y10232073D02*
X73597028Y10473978D01*
X73597028Y10473978D02*
X73657505Y10594930D01*
X73657505Y10594930D02*
X73717981Y10655406D01*
X73717981Y10655406D02*
X73838933Y10715882D01*
X74685600Y10715882D02*
X75471791Y10715882D01*
X75471791Y10715882D02*
X75048457Y10232073D01*
X75048457Y10232073D02*
X75229886Y10232073D01*
X75229886Y10232073D02*
X75350838Y10171597D01*
X75350838Y10171597D02*
X75411314Y10111120D01*
X75411314Y10111120D02*
X75471791Y9990168D01*
X75471791Y9990168D02*
X75471791Y9687787D01*
X75471791Y9687787D02*
X75411314Y9566835D01*
X75411314Y9566835D02*
X75350838Y9506358D01*
X75350838Y9506358D02*
X75229886Y9445882D01*
X75229886Y9445882D02*
X74867029Y9445882D01*
X74867029Y9445882D02*
X74746076Y9506358D01*
X74746076Y9506358D02*
X74685600Y9566835D01*
D10*
X16416952Y51279181D02*
X16083619Y51755372D01*
X15845524Y51279181D02*
X15845524Y52279181D01*
X15845524Y52279181D02*
X16226476Y52279181D01*
X16226476Y52279181D02*
X16321714Y52231562D01*
X16321714Y52231562D02*
X16369333Y52183943D01*
X16369333Y52183943D02*
X16416952Y52088705D01*
X16416952Y52088705D02*
X16416952Y51945848D01*
X16416952Y51945848D02*
X16369333Y51850610D01*
X16369333Y51850610D02*
X16321714Y51802991D01*
X16321714Y51802991D02*
X16226476Y51755372D01*
X16226476Y51755372D02*
X15845524Y51755372D01*
X17274095Y51945848D02*
X17274095Y51279181D01*
X17036000Y52326800D02*
X16797905Y51612515D01*
X16797905Y51612515D02*
X17416952Y51612515D01*
X17988381Y52279181D02*
X18083619Y52279181D01*
X18083619Y52279181D02*
X18178857Y52231562D01*
X18178857Y52231562D02*
X18226476Y52183943D01*
X18226476Y52183943D02*
X18274095Y52088705D01*
X18274095Y52088705D02*
X18321714Y51898229D01*
X18321714Y51898229D02*
X18321714Y51660134D01*
X18321714Y51660134D02*
X18274095Y51469658D01*
X18274095Y51469658D02*
X18226476Y51374420D01*
X18226476Y51374420D02*
X18178857Y51326800D01*
X18178857Y51326800D02*
X18083619Y51279181D01*
X18083619Y51279181D02*
X17988381Y51279181D01*
X17988381Y51279181D02*
X17893143Y51326800D01*
X17893143Y51326800D02*
X17845524Y51374420D01*
X17845524Y51374420D02*
X17797905Y51469658D01*
X17797905Y51469658D02*
X17750286Y51660134D01*
X17750286Y51660134D02*
X17750286Y51898229D01*
X17750286Y51898229D02*
X17797905Y52088705D01*
X17797905Y52088705D02*
X17845524Y52183943D01*
X17845524Y52183943D02*
X17893143Y52231562D01*
X17893143Y52231562D02*
X17988381Y52279181D01*
X18655048Y52279181D02*
X19321714Y52279181D01*
X19321714Y52279181D02*
X18893143Y51279181D01*
D11*
X135769326Y58091267D02*
X134969326Y58091267D01*
X134969326Y58091267D02*
X134969326Y58281743D01*
X134969326Y58281743D02*
X135007421Y58396029D01*
X135007421Y58396029D02*
X135083611Y58472219D01*
X135083611Y58472219D02*
X135159802Y58510314D01*
X135159802Y58510314D02*
X135312183Y58548410D01*
X135312183Y58548410D02*
X135426469Y58548410D01*
X135426469Y58548410D02*
X135578850Y58510314D01*
X135578850Y58510314D02*
X135655040Y58472219D01*
X135655040Y58472219D02*
X135731231Y58396029D01*
X135731231Y58396029D02*
X135769326Y58281743D01*
X135769326Y58281743D02*
X135769326Y58091267D01*
X134969326Y58815076D02*
X134969326Y59310314D01*
X134969326Y59310314D02*
X135274088Y59043648D01*
X135274088Y59043648D02*
X135274088Y59157933D01*
X135274088Y59157933D02*
X135312183Y59234124D01*
X135312183Y59234124D02*
X135350278Y59272219D01*
X135350278Y59272219D02*
X135426469Y59310314D01*
X135426469Y59310314D02*
X135616945Y59310314D01*
X135616945Y59310314D02*
X135693135Y59272219D01*
X135693135Y59272219D02*
X135731231Y59234124D01*
X135731231Y59234124D02*
X135769326Y59157933D01*
X135769326Y59157933D02*
X135769326Y58929362D01*
X135769326Y58929362D02*
X135731231Y58853171D01*
X135731231Y58853171D02*
X135693135Y58815076D01*
X134969326Y59805553D02*
X134969326Y59881743D01*
X134969326Y59881743D02*
X135007421Y59957934D01*
X135007421Y59957934D02*
X135045516Y59996029D01*
X135045516Y59996029D02*
X135121707Y60034124D01*
X135121707Y60034124D02*
X135274088Y60072219D01*
X135274088Y60072219D02*
X135464564Y60072219D01*
X135464564Y60072219D02*
X135616945Y60034124D01*
X135616945Y60034124D02*
X135693135Y59996029D01*
X135693135Y59996029D02*
X135731231Y59957934D01*
X135731231Y59957934D02*
X135769326Y59881743D01*
X135769326Y59881743D02*
X135769326Y59805553D01*
X135769326Y59805553D02*
X135731231Y59729362D01*
X135731231Y59729362D02*
X135693135Y59691267D01*
X135693135Y59691267D02*
X135616945Y59653172D01*
X135616945Y59653172D02*
X135464564Y59615076D01*
X135464564Y59615076D02*
X135274088Y59615076D01*
X135274088Y59615076D02*
X135121707Y59653172D01*
X135121707Y59653172D02*
X135045516Y59691267D01*
X135045516Y59691267D02*
X135007421Y59729362D01*
X135007421Y59729362D02*
X134969326Y59805553D01*
X135769326Y60834124D02*
X135769326Y60376981D01*
X135769326Y60605553D02*
X134969326Y60605553D01*
X134969326Y60605553D02*
X135083611Y60529362D01*
X135083611Y60529362D02*
X135159802Y60453172D01*
X135159802Y60453172D02*
X135197897Y60376981D01*
D10*
X13684380Y72445943D02*
X13589142Y72493562D01*
X13589142Y72493562D02*
X13493904Y72588800D01*
X13493904Y72588800D02*
X13351047Y72731658D01*
X13351047Y72731658D02*
X13255809Y72779277D01*
X13255809Y72779277D02*
X13160571Y72779277D01*
X13208190Y72541181D02*
X13112952Y72588800D01*
X13112952Y72588800D02*
X13017714Y72684039D01*
X13017714Y72684039D02*
X12970095Y72874515D01*
X12970095Y72874515D02*
X12970095Y73207848D01*
X12970095Y73207848D02*
X13017714Y73398324D01*
X13017714Y73398324D02*
X13112952Y73493562D01*
X13112952Y73493562D02*
X13208190Y73541181D01*
X13208190Y73541181D02*
X13398666Y73541181D01*
X13398666Y73541181D02*
X13493904Y73493562D01*
X13493904Y73493562D02*
X13589142Y73398324D01*
X13589142Y73398324D02*
X13636761Y73207848D01*
X13636761Y73207848D02*
X13636761Y72874515D01*
X13636761Y72874515D02*
X13589142Y72684039D01*
X13589142Y72684039D02*
X13493904Y72588800D01*
X13493904Y72588800D02*
X13398666Y72541181D01*
X13398666Y72541181D02*
X13208190Y72541181D01*
X14493904Y73207848D02*
X14493904Y72541181D01*
X14255809Y73588800D02*
X14017714Y72874515D01*
X14017714Y72874515D02*
X14636761Y72874515D01*
X15208190Y73541181D02*
X15303428Y73541181D01*
X15303428Y73541181D02*
X15398666Y73493562D01*
X15398666Y73493562D02*
X15446285Y73445943D01*
X15446285Y73445943D02*
X15493904Y73350705D01*
X15493904Y73350705D02*
X15541523Y73160229D01*
X15541523Y73160229D02*
X15541523Y72922134D01*
X15541523Y72922134D02*
X15493904Y72731658D01*
X15493904Y72731658D02*
X15446285Y72636420D01*
X15446285Y72636420D02*
X15398666Y72588800D01*
X15398666Y72588800D02*
X15303428Y72541181D01*
X15303428Y72541181D02*
X15208190Y72541181D01*
X15208190Y72541181D02*
X15112952Y72588800D01*
X15112952Y72588800D02*
X15065333Y72636420D01*
X15065333Y72636420D02*
X15017714Y72731658D01*
X15017714Y72731658D02*
X14970095Y72922134D01*
X14970095Y72922134D02*
X14970095Y73160229D01*
X14970095Y73160229D02*
X15017714Y73350705D01*
X15017714Y73350705D02*
X15065333Y73445943D01*
X15065333Y73445943D02*
X15112952Y73493562D01*
X15112952Y73493562D02*
X15208190Y73541181D01*
X15922476Y73445943D02*
X15970095Y73493562D01*
X15970095Y73493562D02*
X16065333Y73541181D01*
X16065333Y73541181D02*
X16303428Y73541181D01*
X16303428Y73541181D02*
X16398666Y73493562D01*
X16398666Y73493562D02*
X16446285Y73445943D01*
X16446285Y73445943D02*
X16493904Y73350705D01*
X16493904Y73350705D02*
X16493904Y73255467D01*
X16493904Y73255467D02*
X16446285Y73112610D01*
X16446285Y73112610D02*
X15874857Y72541181D01*
X15874857Y72541181D02*
X16493904Y72541181D01*
D11*
X74469893Y73947093D02*
X74079417Y73673760D01*
X74469893Y73478522D02*
X73649893Y73478522D01*
X73649893Y73478522D02*
X73649893Y73790903D01*
X73649893Y73790903D02*
X73688941Y73868998D01*
X73688941Y73868998D02*
X73727988Y73908045D01*
X73727988Y73908045D02*
X73806084Y73947093D01*
X73806084Y73947093D02*
X73923226Y73947093D01*
X73923226Y73947093D02*
X74001322Y73908045D01*
X74001322Y73908045D02*
X74040369Y73868998D01*
X74040369Y73868998D02*
X74079417Y73790903D01*
X74079417Y73790903D02*
X74079417Y73478522D01*
X73649893Y74688998D02*
X73649893Y74298522D01*
X73649893Y74298522D02*
X74040369Y74259474D01*
X74040369Y74259474D02*
X74001322Y74298522D01*
X74001322Y74298522D02*
X73962274Y74376617D01*
X73962274Y74376617D02*
X73962274Y74571855D01*
X73962274Y74571855D02*
X74001322Y74649950D01*
X74001322Y74649950D02*
X74040369Y74688998D01*
X74040369Y74688998D02*
X74118465Y74728045D01*
X74118465Y74728045D02*
X74313703Y74728045D01*
X74313703Y74728045D02*
X74391798Y74688998D01*
X74391798Y74688998D02*
X74430846Y74649950D01*
X74430846Y74649950D02*
X74469893Y74571855D01*
X74469893Y74571855D02*
X74469893Y74376617D01*
X74469893Y74376617D02*
X74430846Y74298522D01*
X74430846Y74298522D02*
X74391798Y74259474D01*
X73649893Y75235664D02*
X73649893Y75313759D01*
X73649893Y75313759D02*
X73688941Y75391855D01*
X73688941Y75391855D02*
X73727988Y75430902D01*
X73727988Y75430902D02*
X73806084Y75469950D01*
X73806084Y75469950D02*
X73962274Y75508997D01*
X73962274Y75508997D02*
X74157512Y75508997D01*
X74157512Y75508997D02*
X74313703Y75469950D01*
X74313703Y75469950D02*
X74391798Y75430902D01*
X74391798Y75430902D02*
X74430846Y75391855D01*
X74430846Y75391855D02*
X74469893Y75313759D01*
X74469893Y75313759D02*
X74469893Y75235664D01*
X74469893Y75235664D02*
X74430846Y75157569D01*
X74430846Y75157569D02*
X74391798Y75118521D01*
X74391798Y75118521D02*
X74313703Y75079474D01*
X74313703Y75079474D02*
X74157512Y75040426D01*
X74157512Y75040426D02*
X73962274Y75040426D01*
X73962274Y75040426D02*
X73806084Y75079474D01*
X73806084Y75079474D02*
X73727988Y75118521D01*
X73727988Y75118521D02*
X73688941Y75157569D01*
X73688941Y75157569D02*
X73649893Y75235664D01*
X74469893Y76289949D02*
X74469893Y75821378D01*
X74469893Y76055664D02*
X73649893Y76055664D01*
X73649893Y76055664D02*
X73767036Y75977568D01*
X73767036Y75977568D02*
X73845131Y75899473D01*
X73845131Y75899473D02*
X73884179Y75821378D01*
D10*
X115172152Y83835620D02*
X115124533Y83788000D01*
X115124533Y83788000D02*
X114981676Y83740381D01*
X114981676Y83740381D02*
X114886438Y83740381D01*
X114886438Y83740381D02*
X114743581Y83788000D01*
X114743581Y83788000D02*
X114648343Y83883239D01*
X114648343Y83883239D02*
X114600724Y83978477D01*
X114600724Y83978477D02*
X114553105Y84168953D01*
X114553105Y84168953D02*
X114553105Y84311810D01*
X114553105Y84311810D02*
X114600724Y84502286D01*
X114600724Y84502286D02*
X114648343Y84597524D01*
X114648343Y84597524D02*
X114743581Y84692762D01*
X114743581Y84692762D02*
X114886438Y84740381D01*
X114886438Y84740381D02*
X114981676Y84740381D01*
X114981676Y84740381D02*
X115124533Y84692762D01*
X115124533Y84692762D02*
X115172152Y84645143D01*
X116029295Y84740381D02*
X115838819Y84740381D01*
X115838819Y84740381D02*
X115743581Y84692762D01*
X115743581Y84692762D02*
X115695962Y84645143D01*
X115695962Y84645143D02*
X115600724Y84502286D01*
X115600724Y84502286D02*
X115553105Y84311810D01*
X115553105Y84311810D02*
X115553105Y83930858D01*
X115553105Y83930858D02*
X115600724Y83835620D01*
X115600724Y83835620D02*
X115648343Y83788000D01*
X115648343Y83788000D02*
X115743581Y83740381D01*
X115743581Y83740381D02*
X115934057Y83740381D01*
X115934057Y83740381D02*
X116029295Y83788000D01*
X116029295Y83788000D02*
X116076914Y83835620D01*
X116076914Y83835620D02*
X116124533Y83930858D01*
X116124533Y83930858D02*
X116124533Y84168953D01*
X116124533Y84168953D02*
X116076914Y84264191D01*
X116076914Y84264191D02*
X116029295Y84311810D01*
X116029295Y84311810D02*
X115934057Y84359429D01*
X115934057Y84359429D02*
X115743581Y84359429D01*
X115743581Y84359429D02*
X115648343Y84311810D01*
X115648343Y84311810D02*
X115600724Y84264191D01*
X115600724Y84264191D02*
X115553105Y84168953D01*
X116743581Y84740381D02*
X116838819Y84740381D01*
X116838819Y84740381D02*
X116934057Y84692762D01*
X116934057Y84692762D02*
X116981676Y84645143D01*
X116981676Y84645143D02*
X117029295Y84549905D01*
X117029295Y84549905D02*
X117076914Y84359429D01*
X117076914Y84359429D02*
X117076914Y84121334D01*
X117076914Y84121334D02*
X117029295Y83930858D01*
X117029295Y83930858D02*
X116981676Y83835620D01*
X116981676Y83835620D02*
X116934057Y83788000D01*
X116934057Y83788000D02*
X116838819Y83740381D01*
X116838819Y83740381D02*
X116743581Y83740381D01*
X116743581Y83740381D02*
X116648343Y83788000D01*
X116648343Y83788000D02*
X116600724Y83835620D01*
X116600724Y83835620D02*
X116553105Y83930858D01*
X116553105Y83930858D02*
X116505486Y84121334D01*
X116505486Y84121334D02*
X116505486Y84359429D01*
X116505486Y84359429D02*
X116553105Y84549905D01*
X116553105Y84549905D02*
X116600724Y84645143D01*
X116600724Y84645143D02*
X116648343Y84692762D01*
X116648343Y84692762D02*
X116743581Y84740381D01*
X117410248Y84740381D02*
X118029295Y84740381D01*
X118029295Y84740381D02*
X117695962Y84359429D01*
X117695962Y84359429D02*
X117838819Y84359429D01*
X117838819Y84359429D02*
X117934057Y84311810D01*
X117934057Y84311810D02*
X117981676Y84264191D01*
X117981676Y84264191D02*
X118029295Y84168953D01*
X118029295Y84168953D02*
X118029295Y83930858D01*
X118029295Y83930858D02*
X117981676Y83835620D01*
X117981676Y83835620D02*
X117934057Y83788000D01*
X117934057Y83788000D02*
X117838819Y83740381D01*
X117838819Y83740381D02*
X117553105Y83740381D01*
X117553105Y83740381D02*
X117457867Y83788000D01*
X117457867Y83788000D02*
X117410248Y83835620D01*
X91074541Y83443625D02*
X91074541Y84043625D01*
X91074541Y84043625D02*
X91274541Y83615054D01*
X91274541Y83615054D02*
X91474541Y84043625D01*
X91474541Y84043625D02*
X91474541Y83443625D01*
X92017398Y84043625D02*
X91903112Y84043625D01*
X91903112Y84043625D02*
X91845969Y84015054D01*
X91845969Y84015054D02*
X91817398Y83986482D01*
X91817398Y83986482D02*
X91760255Y83900768D01*
X91760255Y83900768D02*
X91731683Y83786482D01*
X91731683Y83786482D02*
X91731683Y83557911D01*
X91731683Y83557911D02*
X91760255Y83500768D01*
X91760255Y83500768D02*
X91788826Y83472196D01*
X91788826Y83472196D02*
X91845969Y83443625D01*
X91845969Y83443625D02*
X91960255Y83443625D01*
X91960255Y83443625D02*
X92017398Y83472196D01*
X92017398Y83472196D02*
X92045969Y83500768D01*
X92045969Y83500768D02*
X92074540Y83557911D01*
X92074540Y83557911D02*
X92074540Y83700768D01*
X92074540Y83700768D02*
X92045969Y83757911D01*
X92045969Y83757911D02*
X92017398Y83786482D01*
X92017398Y83786482D02*
X91960255Y83815054D01*
X91960255Y83815054D02*
X91845969Y83815054D01*
X91845969Y83815054D02*
X91788826Y83786482D01*
X91788826Y83786482D02*
X91760255Y83757911D01*
X91760255Y83757911D02*
X91731683Y83700768D01*
X92445969Y84043625D02*
X92503112Y84043625D01*
X92503112Y84043625D02*
X92560255Y84015054D01*
X92560255Y84015054D02*
X92588827Y83986482D01*
X92588827Y83986482D02*
X92617398Y83929339D01*
X92617398Y83929339D02*
X92645969Y83815054D01*
X92645969Y83815054D02*
X92645969Y83672196D01*
X92645969Y83672196D02*
X92617398Y83557911D01*
X92617398Y83557911D02*
X92588827Y83500768D01*
X92588827Y83500768D02*
X92560255Y83472196D01*
X92560255Y83472196D02*
X92503112Y83443625D01*
X92503112Y83443625D02*
X92445969Y83443625D01*
X92445969Y83443625D02*
X92388827Y83472196D01*
X92388827Y83472196D02*
X92360255Y83500768D01*
X92360255Y83500768D02*
X92331684Y83557911D01*
X92331684Y83557911D02*
X92303112Y83672196D01*
X92303112Y83672196D02*
X92303112Y83815054D01*
X92303112Y83815054D02*
X92331684Y83929339D01*
X92331684Y83929339D02*
X92360255Y83986482D01*
X92360255Y83986482D02*
X92388827Y84015054D01*
X92388827Y84015054D02*
X92445969Y84043625D01*
X92874541Y83986482D02*
X92903113Y84015054D01*
X92903113Y84015054D02*
X92960256Y84043625D01*
X92960256Y84043625D02*
X93103113Y84043625D01*
X93103113Y84043625D02*
X93160256Y84015054D01*
X93160256Y84015054D02*
X93188827Y83986482D01*
X93188827Y83986482D02*
X93217398Y83929339D01*
X93217398Y83929339D02*
X93217398Y83872196D01*
X93217398Y83872196D02*
X93188827Y83786482D01*
X93188827Y83786482D02*
X92845970Y83443625D01*
X92845970Y83443625D02*
X93217398Y83443625D01*
X25114785Y48994991D02*
X24781452Y48994991D01*
X24781452Y48471181D02*
X24781452Y49471181D01*
X24781452Y49471181D02*
X25257642Y49471181D01*
X26067166Y49137848D02*
X26067166Y48471181D01*
X25829071Y49518800D02*
X25590976Y48804515D01*
X25590976Y48804515D02*
X26210023Y48804515D01*
X26781452Y49471181D02*
X26876690Y49471181D01*
X26876690Y49471181D02*
X26971928Y49423562D01*
X26971928Y49423562D02*
X27019547Y49375943D01*
X27019547Y49375943D02*
X27067166Y49280705D01*
X27067166Y49280705D02*
X27114785Y49090229D01*
X27114785Y49090229D02*
X27114785Y48852134D01*
X27114785Y48852134D02*
X27067166Y48661658D01*
X27067166Y48661658D02*
X27019547Y48566420D01*
X27019547Y48566420D02*
X26971928Y48518800D01*
X26971928Y48518800D02*
X26876690Y48471181D01*
X26876690Y48471181D02*
X26781452Y48471181D01*
X26781452Y48471181D02*
X26686214Y48518800D01*
X26686214Y48518800D02*
X26638595Y48566420D01*
X26638595Y48566420D02*
X26590976Y48661658D01*
X26590976Y48661658D02*
X26543357Y48852134D01*
X26543357Y48852134D02*
X26543357Y49090229D01*
X26543357Y49090229D02*
X26590976Y49280705D01*
X26590976Y49280705D02*
X26638595Y49375943D01*
X26638595Y49375943D02*
X26686214Y49423562D01*
X26686214Y49423562D02*
X26781452Y49471181D01*
X27971928Y49137848D02*
X27971928Y48471181D01*
X27733833Y49518800D02*
X27495738Y48804515D01*
X27495738Y48804515D02*
X28114785Y48804515D01*
X16416952Y66279181D02*
X16083619Y66755372D01*
X15845524Y66279181D02*
X15845524Y67279181D01*
X15845524Y67279181D02*
X16226476Y67279181D01*
X16226476Y67279181D02*
X16321714Y67231562D01*
X16321714Y67231562D02*
X16369333Y67183943D01*
X16369333Y67183943D02*
X16416952Y67088705D01*
X16416952Y67088705D02*
X16416952Y66945848D01*
X16416952Y66945848D02*
X16369333Y66850610D01*
X16369333Y66850610D02*
X16321714Y66802991D01*
X16321714Y66802991D02*
X16226476Y66755372D01*
X16226476Y66755372D02*
X15845524Y66755372D01*
X17274095Y66945848D02*
X17274095Y66279181D01*
X17036000Y67326800D02*
X16797905Y66612515D01*
X16797905Y66612515D02*
X17416952Y66612515D01*
X17988381Y67279181D02*
X18083619Y67279181D01*
X18083619Y67279181D02*
X18178857Y67231562D01*
X18178857Y67231562D02*
X18226476Y67183943D01*
X18226476Y67183943D02*
X18274095Y67088705D01*
X18274095Y67088705D02*
X18321714Y66898229D01*
X18321714Y66898229D02*
X18321714Y66660134D01*
X18321714Y66660134D02*
X18274095Y66469658D01*
X18274095Y66469658D02*
X18226476Y66374420D01*
X18226476Y66374420D02*
X18178857Y66326800D01*
X18178857Y66326800D02*
X18083619Y66279181D01*
X18083619Y66279181D02*
X17988381Y66279181D01*
X17988381Y66279181D02*
X17893143Y66326800D01*
X17893143Y66326800D02*
X17845524Y66374420D01*
X17845524Y66374420D02*
X17797905Y66469658D01*
X17797905Y66469658D02*
X17750286Y66660134D01*
X17750286Y66660134D02*
X17750286Y66898229D01*
X17750286Y66898229D02*
X17797905Y67088705D01*
X17797905Y67088705D02*
X17845524Y67183943D01*
X17845524Y67183943D02*
X17893143Y67231562D01*
X17893143Y67231562D02*
X17988381Y67279181D01*
X19226476Y67279181D02*
X18750286Y67279181D01*
X18750286Y67279181D02*
X18702667Y66802991D01*
X18702667Y66802991D02*
X18750286Y66850610D01*
X18750286Y66850610D02*
X18845524Y66898229D01*
X18845524Y66898229D02*
X19083619Y66898229D01*
X19083619Y66898229D02*
X19178857Y66850610D01*
X19178857Y66850610D02*
X19226476Y66802991D01*
X19226476Y66802991D02*
X19274095Y66707753D01*
X19274095Y66707753D02*
X19274095Y66469658D01*
X19274095Y66469658D02*
X19226476Y66374420D01*
X19226476Y66374420D02*
X19178857Y66326800D01*
X19178857Y66326800D02*
X19083619Y66279181D01*
X19083619Y66279181D02*
X18845524Y66279181D01*
X18845524Y66279181D02*
X18750286Y66326800D01*
X18750286Y66326800D02*
X18702667Y66374420D01*
D11*
X23071985Y76274093D02*
X22681509Y76000760D01*
X23071985Y75805522D02*
X22251985Y75805522D01*
X22251985Y75805522D02*
X22251985Y76117903D01*
X22251985Y76117903D02*
X22291033Y76195998D01*
X22291033Y76195998D02*
X22330080Y76235045D01*
X22330080Y76235045D02*
X22408176Y76274093D01*
X22408176Y76274093D02*
X22525318Y76274093D01*
X22525318Y76274093D02*
X22603414Y76235045D01*
X22603414Y76235045D02*
X22642461Y76195998D01*
X22642461Y76195998D02*
X22681509Y76117903D01*
X22681509Y76117903D02*
X22681509Y75805522D01*
X22525318Y76976950D02*
X23071985Y76976950D01*
X22212938Y76781712D02*
X22798652Y76586474D01*
X22798652Y76586474D02*
X22798652Y77094093D01*
X22251985Y77562664D02*
X22251985Y77640759D01*
X22251985Y77640759D02*
X22291033Y77718855D01*
X22291033Y77718855D02*
X22330080Y77757902D01*
X22330080Y77757902D02*
X22408176Y77796950D01*
X22408176Y77796950D02*
X22564366Y77835997D01*
X22564366Y77835997D02*
X22759604Y77835997D01*
X22759604Y77835997D02*
X22915795Y77796950D01*
X22915795Y77796950D02*
X22993890Y77757902D01*
X22993890Y77757902D02*
X23032938Y77718855D01*
X23032938Y77718855D02*
X23071985Y77640759D01*
X23071985Y77640759D02*
X23071985Y77562664D01*
X23071985Y77562664D02*
X23032938Y77484569D01*
X23032938Y77484569D02*
X22993890Y77445521D01*
X22993890Y77445521D02*
X22915795Y77406474D01*
X22915795Y77406474D02*
X22759604Y77367426D01*
X22759604Y77367426D02*
X22564366Y77367426D01*
X22564366Y77367426D02*
X22408176Y77406474D01*
X22408176Y77406474D02*
X22330080Y77445521D01*
X22330080Y77445521D02*
X22291033Y77484569D01*
X22291033Y77484569D02*
X22251985Y77562664D01*
X22251985Y78109330D02*
X22251985Y78616949D01*
X22251985Y78616949D02*
X22564366Y78343616D01*
X22564366Y78343616D02*
X22564366Y78460759D01*
X22564366Y78460759D02*
X22603414Y78538854D01*
X22603414Y78538854D02*
X22642461Y78577902D01*
X22642461Y78577902D02*
X22720557Y78616949D01*
X22720557Y78616949D02*
X22915795Y78616949D01*
X22915795Y78616949D02*
X22993890Y78577902D01*
X22993890Y78577902D02*
X23032938Y78538854D01*
X23032938Y78538854D02*
X23071985Y78460759D01*
X23071985Y78460759D02*
X23071985Y78226473D01*
X23071985Y78226473D02*
X23032938Y78148378D01*
X23032938Y78148378D02*
X22993890Y78109330D01*
D10*
X25114785Y33994991D02*
X24781452Y33994991D01*
X24781452Y33471181D02*
X24781452Y34471181D01*
X24781452Y34471181D02*
X25257642Y34471181D01*
X26067166Y34137848D02*
X26067166Y33471181D01*
X25829071Y34518800D02*
X25590976Y33804515D01*
X25590976Y33804515D02*
X26210023Y33804515D01*
X26781452Y34471181D02*
X26876690Y34471181D01*
X26876690Y34471181D02*
X26971928Y34423562D01*
X26971928Y34423562D02*
X27019547Y34375943D01*
X27019547Y34375943D02*
X27067166Y34280705D01*
X27067166Y34280705D02*
X27114785Y34090229D01*
X27114785Y34090229D02*
X27114785Y33852134D01*
X27114785Y33852134D02*
X27067166Y33661658D01*
X27067166Y33661658D02*
X27019547Y33566420D01*
X27019547Y33566420D02*
X26971928Y33518800D01*
X26971928Y33518800D02*
X26876690Y33471181D01*
X26876690Y33471181D02*
X26781452Y33471181D01*
X26781452Y33471181D02*
X26686214Y33518800D01*
X26686214Y33518800D02*
X26638595Y33566420D01*
X26638595Y33566420D02*
X26590976Y33661658D01*
X26590976Y33661658D02*
X26543357Y33852134D01*
X26543357Y33852134D02*
X26543357Y34090229D01*
X26543357Y34090229D02*
X26590976Y34280705D01*
X26590976Y34280705D02*
X26638595Y34375943D01*
X26638595Y34375943D02*
X26686214Y34423562D01*
X26686214Y34423562D02*
X26781452Y34471181D01*
X27495738Y34375943D02*
X27543357Y34423562D01*
X27543357Y34423562D02*
X27638595Y34471181D01*
X27638595Y34471181D02*
X27876690Y34471181D01*
X27876690Y34471181D02*
X27971928Y34423562D01*
X27971928Y34423562D02*
X28019547Y34375943D01*
X28019547Y34375943D02*
X28067166Y34280705D01*
X28067166Y34280705D02*
X28067166Y34185467D01*
X28067166Y34185467D02*
X28019547Y34042610D01*
X28019547Y34042610D02*
X27448119Y33471181D01*
X27448119Y33471181D02*
X28067166Y33471181D01*
X13684380Y34289943D02*
X13589142Y34337562D01*
X13589142Y34337562D02*
X13493904Y34432800D01*
X13493904Y34432800D02*
X13351047Y34575658D01*
X13351047Y34575658D02*
X13255809Y34623277D01*
X13255809Y34623277D02*
X13160571Y34623277D01*
X13208190Y34385181D02*
X13112952Y34432800D01*
X13112952Y34432800D02*
X13017714Y34528039D01*
X13017714Y34528039D02*
X12970095Y34718515D01*
X12970095Y34718515D02*
X12970095Y35051848D01*
X12970095Y35051848D02*
X13017714Y35242324D01*
X13017714Y35242324D02*
X13112952Y35337562D01*
X13112952Y35337562D02*
X13208190Y35385181D01*
X13208190Y35385181D02*
X13398666Y35385181D01*
X13398666Y35385181D02*
X13493904Y35337562D01*
X13493904Y35337562D02*
X13589142Y35242324D01*
X13589142Y35242324D02*
X13636761Y35051848D01*
X13636761Y35051848D02*
X13636761Y34718515D01*
X13636761Y34718515D02*
X13589142Y34528039D01*
X13589142Y34528039D02*
X13493904Y34432800D01*
X13493904Y34432800D02*
X13398666Y34385181D01*
X13398666Y34385181D02*
X13208190Y34385181D01*
X14493904Y35051848D02*
X14493904Y34385181D01*
X14255809Y35432800D02*
X14017714Y34718515D01*
X14017714Y34718515D02*
X14636761Y34718515D01*
X15208190Y35385181D02*
X15303428Y35385181D01*
X15303428Y35385181D02*
X15398666Y35337562D01*
X15398666Y35337562D02*
X15446285Y35289943D01*
X15446285Y35289943D02*
X15493904Y35194705D01*
X15493904Y35194705D02*
X15541523Y35004229D01*
X15541523Y35004229D02*
X15541523Y34766134D01*
X15541523Y34766134D02*
X15493904Y34575658D01*
X15493904Y34575658D02*
X15446285Y34480420D01*
X15446285Y34480420D02*
X15398666Y34432800D01*
X15398666Y34432800D02*
X15303428Y34385181D01*
X15303428Y34385181D02*
X15208190Y34385181D01*
X15208190Y34385181D02*
X15112952Y34432800D01*
X15112952Y34432800D02*
X15065333Y34480420D01*
X15065333Y34480420D02*
X15017714Y34575658D01*
X15017714Y34575658D02*
X14970095Y34766134D01*
X14970095Y34766134D02*
X14970095Y35004229D01*
X14970095Y35004229D02*
X15017714Y35194705D01*
X15017714Y35194705D02*
X15065333Y35289943D01*
X15065333Y35289943D02*
X15112952Y35337562D01*
X15112952Y35337562D02*
X15208190Y35385181D01*
X15874857Y35385181D02*
X16493904Y35385181D01*
X16493904Y35385181D02*
X16160571Y35004229D01*
X16160571Y35004229D02*
X16303428Y35004229D01*
X16303428Y35004229D02*
X16398666Y34956610D01*
X16398666Y34956610D02*
X16446285Y34908991D01*
X16446285Y34908991D02*
X16493904Y34813753D01*
X16493904Y34813753D02*
X16493904Y34575658D01*
X16493904Y34575658D02*
X16446285Y34480420D01*
X16446285Y34480420D02*
X16398666Y34432800D01*
X16398666Y34432800D02*
X16303428Y34385181D01*
X16303428Y34385181D02*
X16017714Y34385181D01*
X16017714Y34385181D02*
X15922476Y34432800D01*
X15922476Y34432800D02*
X15874857Y34480420D01*
X151766419Y7141086D02*
X152480704Y7141086D01*
X152480704Y7141086D02*
X152623561Y7093467D01*
X152623561Y7093467D02*
X152718800Y6998229D01*
X152718800Y6998229D02*
X152766419Y6855372D01*
X152766419Y6855372D02*
X152766419Y6760134D01*
X151766419Y7522039D02*
X151766419Y8141086D01*
X151766419Y8141086D02*
X152147371Y7807753D01*
X152147371Y7807753D02*
X152147371Y7950610D01*
X152147371Y7950610D02*
X152194990Y8045848D01*
X152194990Y8045848D02*
X152242609Y8093467D01*
X152242609Y8093467D02*
X152337847Y8141086D01*
X152337847Y8141086D02*
X152575942Y8141086D01*
X152575942Y8141086D02*
X152671180Y8093467D01*
X152671180Y8093467D02*
X152718800Y8045848D01*
X152718800Y8045848D02*
X152766419Y7950610D01*
X152766419Y7950610D02*
X152766419Y7664896D01*
X152766419Y7664896D02*
X152718800Y7569658D01*
X152718800Y7569658D02*
X152671180Y7522039D01*
X151766419Y8760134D02*
X151766419Y8855372D01*
X151766419Y8855372D02*
X151814038Y8950610D01*
X151814038Y8950610D02*
X151861657Y8998229D01*
X151861657Y8998229D02*
X151956895Y9045848D01*
X151956895Y9045848D02*
X152147371Y9093467D01*
X152147371Y9093467D02*
X152385466Y9093467D01*
X152385466Y9093467D02*
X152575942Y9045848D01*
X152575942Y9045848D02*
X152671180Y8998229D01*
X152671180Y8998229D02*
X152718800Y8950610D01*
X152718800Y8950610D02*
X152766419Y8855372D01*
X152766419Y8855372D02*
X152766419Y8760134D01*
X152766419Y8760134D02*
X152718800Y8664896D01*
X152718800Y8664896D02*
X152671180Y8617277D01*
X152671180Y8617277D02*
X152575942Y8569658D01*
X152575942Y8569658D02*
X152385466Y8522039D01*
X152385466Y8522039D02*
X152147371Y8522039D01*
X152147371Y8522039D02*
X151956895Y8569658D01*
X151956895Y8569658D02*
X151861657Y8617277D01*
X151861657Y8617277D02*
X151814038Y8664896D01*
X151814038Y8664896D02*
X151766419Y8760134D01*
X152766419Y10045848D02*
X152766419Y9474420D01*
X152766419Y9760134D02*
X151766419Y9760134D01*
X151766419Y9760134D02*
X151909276Y9664896D01*
X151909276Y9664896D02*
X152004514Y9569658D01*
X152004514Y9569658D02*
X152052133Y9474420D01*
D11*
X23071985Y61274093D02*
X22681509Y61000760D01*
X23071985Y60805522D02*
X22251985Y60805522D01*
X22251985Y60805522D02*
X22251985Y61117903D01*
X22251985Y61117903D02*
X22291033Y61195998D01*
X22291033Y61195998D02*
X22330080Y61235045D01*
X22330080Y61235045D02*
X22408176Y61274093D01*
X22408176Y61274093D02*
X22525318Y61274093D01*
X22525318Y61274093D02*
X22603414Y61235045D01*
X22603414Y61235045D02*
X22642461Y61195998D01*
X22642461Y61195998D02*
X22681509Y61117903D01*
X22681509Y61117903D02*
X22681509Y60805522D01*
X22525318Y61976950D02*
X23071985Y61976950D01*
X22212938Y61781712D02*
X22798652Y61586474D01*
X22798652Y61586474D02*
X22798652Y62094093D01*
X22251985Y62562664D02*
X22251985Y62640759D01*
X22251985Y62640759D02*
X22291033Y62718855D01*
X22291033Y62718855D02*
X22330080Y62757902D01*
X22330080Y62757902D02*
X22408176Y62796950D01*
X22408176Y62796950D02*
X22564366Y62835997D01*
X22564366Y62835997D02*
X22759604Y62835997D01*
X22759604Y62835997D02*
X22915795Y62796950D01*
X22915795Y62796950D02*
X22993890Y62757902D01*
X22993890Y62757902D02*
X23032938Y62718855D01*
X23032938Y62718855D02*
X23071985Y62640759D01*
X23071985Y62640759D02*
X23071985Y62562664D01*
X23071985Y62562664D02*
X23032938Y62484569D01*
X23032938Y62484569D02*
X22993890Y62445521D01*
X22993890Y62445521D02*
X22915795Y62406474D01*
X22915795Y62406474D02*
X22759604Y62367426D01*
X22759604Y62367426D02*
X22564366Y62367426D01*
X22564366Y62367426D02*
X22408176Y62406474D01*
X22408176Y62406474D02*
X22330080Y62445521D01*
X22330080Y62445521D02*
X22291033Y62484569D01*
X22291033Y62484569D02*
X22251985Y62562664D01*
X22251985Y63538854D02*
X22251985Y63382664D01*
X22251985Y63382664D02*
X22291033Y63304568D01*
X22291033Y63304568D02*
X22330080Y63265521D01*
X22330080Y63265521D02*
X22447223Y63187426D01*
X22447223Y63187426D02*
X22603414Y63148378D01*
X22603414Y63148378D02*
X22915795Y63148378D01*
X22915795Y63148378D02*
X22993890Y63187426D01*
X22993890Y63187426D02*
X23032938Y63226473D01*
X23032938Y63226473D02*
X23071985Y63304568D01*
X23071985Y63304568D02*
X23071985Y63460759D01*
X23071985Y63460759D02*
X23032938Y63538854D01*
X23032938Y63538854D02*
X22993890Y63577902D01*
X22993890Y63577902D02*
X22915795Y63616949D01*
X22915795Y63616949D02*
X22720557Y63616949D01*
X22720557Y63616949D02*
X22642461Y63577902D01*
X22642461Y63577902D02*
X22603414Y63538854D01*
X22603414Y63538854D02*
X22564366Y63460759D01*
X22564366Y63460759D02*
X22564366Y63304568D01*
X22564366Y63304568D02*
X22603414Y63226473D01*
X22603414Y63226473D02*
X22642461Y63187426D01*
X22642461Y63187426D02*
X22720557Y63148378D01*
D10*
X16416952Y36279181D02*
X16083619Y36755372D01*
X15845524Y36279181D02*
X15845524Y37279181D01*
X15845524Y37279181D02*
X16226476Y37279181D01*
X16226476Y37279181D02*
X16321714Y37231562D01*
X16321714Y37231562D02*
X16369333Y37183943D01*
X16369333Y37183943D02*
X16416952Y37088705D01*
X16416952Y37088705D02*
X16416952Y36945848D01*
X16416952Y36945848D02*
X16369333Y36850610D01*
X16369333Y36850610D02*
X16321714Y36802991D01*
X16321714Y36802991D02*
X16226476Y36755372D01*
X16226476Y36755372D02*
X15845524Y36755372D01*
X17274095Y36945848D02*
X17274095Y36279181D01*
X17036000Y37326800D02*
X16797905Y36612515D01*
X16797905Y36612515D02*
X17416952Y36612515D01*
X17988381Y37279181D02*
X18083619Y37279181D01*
X18083619Y37279181D02*
X18178857Y37231562D01*
X18178857Y37231562D02*
X18226476Y37183943D01*
X18226476Y37183943D02*
X18274095Y37088705D01*
X18274095Y37088705D02*
X18321714Y36898229D01*
X18321714Y36898229D02*
X18321714Y36660134D01*
X18321714Y36660134D02*
X18274095Y36469658D01*
X18274095Y36469658D02*
X18226476Y36374420D01*
X18226476Y36374420D02*
X18178857Y36326800D01*
X18178857Y36326800D02*
X18083619Y36279181D01*
X18083619Y36279181D02*
X17988381Y36279181D01*
X17988381Y36279181D02*
X17893143Y36326800D01*
X17893143Y36326800D02*
X17845524Y36374420D01*
X17845524Y36374420D02*
X17797905Y36469658D01*
X17797905Y36469658D02*
X17750286Y36660134D01*
X17750286Y36660134D02*
X17750286Y36898229D01*
X17750286Y36898229D02*
X17797905Y37088705D01*
X17797905Y37088705D02*
X17845524Y37183943D01*
X17845524Y37183943D02*
X17893143Y37231562D01*
X17893143Y37231562D02*
X17988381Y37279181D01*
X18702667Y37183943D02*
X18750286Y37231562D01*
X18750286Y37231562D02*
X18845524Y37279181D01*
X18845524Y37279181D02*
X19083619Y37279181D01*
X19083619Y37279181D02*
X19178857Y37231562D01*
X19178857Y37231562D02*
X19226476Y37183943D01*
X19226476Y37183943D02*
X19274095Y37088705D01*
X19274095Y37088705D02*
X19274095Y36993467D01*
X19274095Y36993467D02*
X19226476Y36850610D01*
X19226476Y36850610D02*
X18655048Y36279181D01*
X18655048Y36279181D02*
X19274095Y36279181D01*
X91079941Y87086827D02*
X91079941Y87686827D01*
X91079941Y87686827D02*
X91279941Y87258256D01*
X91279941Y87258256D02*
X91479941Y87686827D01*
X91479941Y87686827D02*
X91479941Y87086827D01*
X92022798Y87686827D02*
X91908512Y87686827D01*
X91908512Y87686827D02*
X91851369Y87658256D01*
X91851369Y87658256D02*
X91822798Y87629684D01*
X91822798Y87629684D02*
X91765655Y87543970D01*
X91765655Y87543970D02*
X91737083Y87429684D01*
X91737083Y87429684D02*
X91737083Y87201113D01*
X91737083Y87201113D02*
X91765655Y87143970D01*
X91765655Y87143970D02*
X91794226Y87115398D01*
X91794226Y87115398D02*
X91851369Y87086827D01*
X91851369Y87086827D02*
X91965655Y87086827D01*
X91965655Y87086827D02*
X92022798Y87115398D01*
X92022798Y87115398D02*
X92051369Y87143970D01*
X92051369Y87143970D02*
X92079940Y87201113D01*
X92079940Y87201113D02*
X92079940Y87343970D01*
X92079940Y87343970D02*
X92051369Y87401113D01*
X92051369Y87401113D02*
X92022798Y87429684D01*
X92022798Y87429684D02*
X91965655Y87458256D01*
X91965655Y87458256D02*
X91851369Y87458256D01*
X91851369Y87458256D02*
X91794226Y87429684D01*
X91794226Y87429684D02*
X91765655Y87401113D01*
X91765655Y87401113D02*
X91737083Y87343970D01*
X92451369Y87686827D02*
X92508512Y87686827D01*
X92508512Y87686827D02*
X92565655Y87658256D01*
X92565655Y87658256D02*
X92594227Y87629684D01*
X92594227Y87629684D02*
X92622798Y87572541D01*
X92622798Y87572541D02*
X92651369Y87458256D01*
X92651369Y87458256D02*
X92651369Y87315398D01*
X92651369Y87315398D02*
X92622798Y87201113D01*
X92622798Y87201113D02*
X92594227Y87143970D01*
X92594227Y87143970D02*
X92565655Y87115398D01*
X92565655Y87115398D02*
X92508512Y87086827D01*
X92508512Y87086827D02*
X92451369Y87086827D01*
X92451369Y87086827D02*
X92394227Y87115398D01*
X92394227Y87115398D02*
X92365655Y87143970D01*
X92365655Y87143970D02*
X92337084Y87201113D01*
X92337084Y87201113D02*
X92308512Y87315398D01*
X92308512Y87315398D02*
X92308512Y87458256D01*
X92308512Y87458256D02*
X92337084Y87572541D01*
X92337084Y87572541D02*
X92365655Y87629684D01*
X92365655Y87629684D02*
X92394227Y87658256D01*
X92394227Y87658256D02*
X92451369Y87686827D01*
X93222798Y87086827D02*
X92879941Y87086827D01*
X93051370Y87086827D02*
X93051370Y87686827D01*
X93051370Y87686827D02*
X92994227Y87601113D01*
X92994227Y87601113D02*
X92937084Y87543970D01*
X92937084Y87543970D02*
X92879941Y87515398D01*
X13684380Y42445943D02*
X13589142Y42493562D01*
X13589142Y42493562D02*
X13493904Y42588800D01*
X13493904Y42588800D02*
X13351047Y42731658D01*
X13351047Y42731658D02*
X13255809Y42779277D01*
X13255809Y42779277D02*
X13160571Y42779277D01*
X13208190Y42541181D02*
X13112952Y42588800D01*
X13112952Y42588800D02*
X13017714Y42684039D01*
X13017714Y42684039D02*
X12970095Y42874515D01*
X12970095Y42874515D02*
X12970095Y43207848D01*
X12970095Y43207848D02*
X13017714Y43398324D01*
X13017714Y43398324D02*
X13112952Y43493562D01*
X13112952Y43493562D02*
X13208190Y43541181D01*
X13208190Y43541181D02*
X13398666Y43541181D01*
X13398666Y43541181D02*
X13493904Y43493562D01*
X13493904Y43493562D02*
X13589142Y43398324D01*
X13589142Y43398324D02*
X13636761Y43207848D01*
X13636761Y43207848D02*
X13636761Y42874515D01*
X13636761Y42874515D02*
X13589142Y42684039D01*
X13589142Y42684039D02*
X13493904Y42588800D01*
X13493904Y42588800D02*
X13398666Y42541181D01*
X13398666Y42541181D02*
X13208190Y42541181D01*
X14493904Y43207848D02*
X14493904Y42541181D01*
X14255809Y43588800D02*
X14017714Y42874515D01*
X14017714Y42874515D02*
X14636761Y42874515D01*
X15208190Y43541181D02*
X15303428Y43541181D01*
X15303428Y43541181D02*
X15398666Y43493562D01*
X15398666Y43493562D02*
X15446285Y43445943D01*
X15446285Y43445943D02*
X15493904Y43350705D01*
X15493904Y43350705D02*
X15541523Y43160229D01*
X15541523Y43160229D02*
X15541523Y42922134D01*
X15541523Y42922134D02*
X15493904Y42731658D01*
X15493904Y42731658D02*
X15446285Y42636420D01*
X15446285Y42636420D02*
X15398666Y42588800D01*
X15398666Y42588800D02*
X15303428Y42541181D01*
X15303428Y42541181D02*
X15208190Y42541181D01*
X15208190Y42541181D02*
X15112952Y42588800D01*
X15112952Y42588800D02*
X15065333Y42636420D01*
X15065333Y42636420D02*
X15017714Y42731658D01*
X15017714Y42731658D02*
X14970095Y42922134D01*
X14970095Y42922134D02*
X14970095Y43160229D01*
X14970095Y43160229D02*
X15017714Y43350705D01*
X15017714Y43350705D02*
X15065333Y43445943D01*
X15065333Y43445943D02*
X15112952Y43493562D01*
X15112952Y43493562D02*
X15208190Y43541181D01*
X16398666Y43207848D02*
X16398666Y42541181D01*
X16160571Y43588800D02*
X15922476Y42874515D01*
X15922476Y42874515D02*
X16541523Y42874515D01*
X37078285Y-599819D02*
X37078285Y-1314104D01*
X37078285Y-1314104D02*
X37030666Y-1456961D01*
X37030666Y-1456961D02*
X36935428Y-1552200D01*
X36935428Y-1552200D02*
X36792571Y-1599819D01*
X36792571Y-1599819D02*
X36697333Y-1599819D01*
X37506857Y-695057D02*
X37554476Y-647438D01*
X37554476Y-647438D02*
X37649714Y-599819D01*
X37649714Y-599819D02*
X37887809Y-599819D01*
X37887809Y-599819D02*
X37983047Y-647438D01*
X37983047Y-647438D02*
X38030666Y-695057D01*
X38030666Y-695057D02*
X38078285Y-790295D01*
X38078285Y-790295D02*
X38078285Y-885533D01*
X38078285Y-885533D02*
X38030666Y-1028390D01*
X38030666Y-1028390D02*
X37459238Y-1599819D01*
X37459238Y-1599819D02*
X38078285Y-1599819D01*
X38697333Y-599819D02*
X38792571Y-599819D01*
X38792571Y-599819D02*
X38887809Y-647438D01*
X38887809Y-647438D02*
X38935428Y-695057D01*
X38935428Y-695057D02*
X38983047Y-790295D01*
X38983047Y-790295D02*
X39030666Y-980771D01*
X39030666Y-980771D02*
X39030666Y-1218866D01*
X39030666Y-1218866D02*
X38983047Y-1409342D01*
X38983047Y-1409342D02*
X38935428Y-1504580D01*
X38935428Y-1504580D02*
X38887809Y-1552200D01*
X38887809Y-1552200D02*
X38792571Y-1599819D01*
X38792571Y-1599819D02*
X38697333Y-1599819D01*
X38697333Y-1599819D02*
X38602095Y-1552200D01*
X38602095Y-1552200D02*
X38554476Y-1504580D01*
X38554476Y-1504580D02*
X38506857Y-1409342D01*
X38506857Y-1409342D02*
X38459238Y-1218866D01*
X38459238Y-1218866D02*
X38459238Y-980771D01*
X38459238Y-980771D02*
X38506857Y-790295D01*
X38506857Y-790295D02*
X38554476Y-695057D01*
X38554476Y-695057D02*
X38602095Y-647438D01*
X38602095Y-647438D02*
X38697333Y-599819D01*
X39983047Y-1599819D02*
X39411619Y-1599819D01*
X39697333Y-1599819D02*
X39697333Y-599819D01*
X39697333Y-599819D02*
X39602095Y-742676D01*
X39602095Y-742676D02*
X39506857Y-837914D01*
X39506857Y-837914D02*
X39411619Y-885533D01*
X115121352Y86375620D02*
X115073733Y86328000D01*
X115073733Y86328000D02*
X114930876Y86280381D01*
X114930876Y86280381D02*
X114835638Y86280381D01*
X114835638Y86280381D02*
X114692781Y86328000D01*
X114692781Y86328000D02*
X114597543Y86423239D01*
X114597543Y86423239D02*
X114549924Y86518477D01*
X114549924Y86518477D02*
X114502305Y86708953D01*
X114502305Y86708953D02*
X114502305Y86851810D01*
X114502305Y86851810D02*
X114549924Y87042286D01*
X114549924Y87042286D02*
X114597543Y87137524D01*
X114597543Y87137524D02*
X114692781Y87232762D01*
X114692781Y87232762D02*
X114835638Y87280381D01*
X114835638Y87280381D02*
X114930876Y87280381D01*
X114930876Y87280381D02*
X115073733Y87232762D01*
X115073733Y87232762D02*
X115121352Y87185143D01*
X115978495Y87280381D02*
X115788019Y87280381D01*
X115788019Y87280381D02*
X115692781Y87232762D01*
X115692781Y87232762D02*
X115645162Y87185143D01*
X115645162Y87185143D02*
X115549924Y87042286D01*
X115549924Y87042286D02*
X115502305Y86851810D01*
X115502305Y86851810D02*
X115502305Y86470858D01*
X115502305Y86470858D02*
X115549924Y86375620D01*
X115549924Y86375620D02*
X115597543Y86328000D01*
X115597543Y86328000D02*
X115692781Y86280381D01*
X115692781Y86280381D02*
X115883257Y86280381D01*
X115883257Y86280381D02*
X115978495Y86328000D01*
X115978495Y86328000D02*
X116026114Y86375620D01*
X116026114Y86375620D02*
X116073733Y86470858D01*
X116073733Y86470858D02*
X116073733Y86708953D01*
X116073733Y86708953D02*
X116026114Y86804191D01*
X116026114Y86804191D02*
X115978495Y86851810D01*
X115978495Y86851810D02*
X115883257Y86899429D01*
X115883257Y86899429D02*
X115692781Y86899429D01*
X115692781Y86899429D02*
X115597543Y86851810D01*
X115597543Y86851810D02*
X115549924Y86804191D01*
X115549924Y86804191D02*
X115502305Y86708953D01*
X116692781Y87280381D02*
X116788019Y87280381D01*
X116788019Y87280381D02*
X116883257Y87232762D01*
X116883257Y87232762D02*
X116930876Y87185143D01*
X116930876Y87185143D02*
X116978495Y87089905D01*
X116978495Y87089905D02*
X117026114Y86899429D01*
X117026114Y86899429D02*
X117026114Y86661334D01*
X117026114Y86661334D02*
X116978495Y86470858D01*
X116978495Y86470858D02*
X116930876Y86375620D01*
X116930876Y86375620D02*
X116883257Y86328000D01*
X116883257Y86328000D02*
X116788019Y86280381D01*
X116788019Y86280381D02*
X116692781Y86280381D01*
X116692781Y86280381D02*
X116597543Y86328000D01*
X116597543Y86328000D02*
X116549924Y86375620D01*
X116549924Y86375620D02*
X116502305Y86470858D01*
X116502305Y86470858D02*
X116454686Y86661334D01*
X116454686Y86661334D02*
X116454686Y86899429D01*
X116454686Y86899429D02*
X116502305Y87089905D01*
X116502305Y87089905D02*
X116549924Y87185143D01*
X116549924Y87185143D02*
X116597543Y87232762D01*
X116597543Y87232762D02*
X116692781Y87280381D01*
X117978495Y86280381D02*
X117407067Y86280381D01*
X117692781Y86280381D02*
X117692781Y87280381D01*
X117692781Y87280381D02*
X117597543Y87137524D01*
X117597543Y87137524D02*
X117502305Y87042286D01*
X117502305Y87042286D02*
X117407067Y86994667D01*
D11*
X80317031Y73947093D02*
X79926555Y73673760D01*
X80317031Y73478522D02*
X79497031Y73478522D01*
X79497031Y73478522D02*
X79497031Y73790903D01*
X79497031Y73790903D02*
X79536079Y73868998D01*
X79536079Y73868998D02*
X79575126Y73908045D01*
X79575126Y73908045D02*
X79653222Y73947093D01*
X79653222Y73947093D02*
X79770364Y73947093D01*
X79770364Y73947093D02*
X79848460Y73908045D01*
X79848460Y73908045D02*
X79887507Y73868998D01*
X79887507Y73868998D02*
X79926555Y73790903D01*
X79926555Y73790903D02*
X79926555Y73478522D01*
X79497031Y74688998D02*
X79497031Y74298522D01*
X79497031Y74298522D02*
X79887507Y74259474D01*
X79887507Y74259474D02*
X79848460Y74298522D01*
X79848460Y74298522D02*
X79809412Y74376617D01*
X79809412Y74376617D02*
X79809412Y74571855D01*
X79809412Y74571855D02*
X79848460Y74649950D01*
X79848460Y74649950D02*
X79887507Y74688998D01*
X79887507Y74688998D02*
X79965603Y74728045D01*
X79965603Y74728045D02*
X80160841Y74728045D01*
X80160841Y74728045D02*
X80238936Y74688998D01*
X80238936Y74688998D02*
X80277984Y74649950D01*
X80277984Y74649950D02*
X80317031Y74571855D01*
X80317031Y74571855D02*
X80317031Y74376617D01*
X80317031Y74376617D02*
X80277984Y74298522D01*
X80277984Y74298522D02*
X80238936Y74259474D01*
X79497031Y75235664D02*
X79497031Y75313759D01*
X79497031Y75313759D02*
X79536079Y75391855D01*
X79536079Y75391855D02*
X79575126Y75430902D01*
X79575126Y75430902D02*
X79653222Y75469950D01*
X79653222Y75469950D02*
X79809412Y75508997D01*
X79809412Y75508997D02*
X80004650Y75508997D01*
X80004650Y75508997D02*
X80160841Y75469950D01*
X80160841Y75469950D02*
X80238936Y75430902D01*
X80238936Y75430902D02*
X80277984Y75391855D01*
X80277984Y75391855D02*
X80317031Y75313759D01*
X80317031Y75313759D02*
X80317031Y75235664D01*
X80317031Y75235664D02*
X80277984Y75157569D01*
X80277984Y75157569D02*
X80238936Y75118521D01*
X80238936Y75118521D02*
X80160841Y75079474D01*
X80160841Y75079474D02*
X80004650Y75040426D01*
X80004650Y75040426D02*
X79809412Y75040426D01*
X79809412Y75040426D02*
X79653222Y75079474D01*
X79653222Y75079474D02*
X79575126Y75118521D01*
X79575126Y75118521D02*
X79536079Y75157569D01*
X79536079Y75157569D02*
X79497031Y75235664D01*
X79770364Y76211854D02*
X80317031Y76211854D01*
X79457984Y76016616D02*
X80043698Y75821378D01*
X80043698Y75821378D02*
X80043698Y76328997D01*
D10*
X108868914Y87353581D02*
X108868914Y86544058D01*
X108868914Y86544058D02*
X108916533Y86448820D01*
X108916533Y86448820D02*
X108964152Y86401200D01*
X108964152Y86401200D02*
X109059390Y86353581D01*
X109059390Y86353581D02*
X109249866Y86353581D01*
X109249866Y86353581D02*
X109345104Y86401200D01*
X109345104Y86401200D02*
X109392723Y86448820D01*
X109392723Y86448820D02*
X109440342Y86544058D01*
X109440342Y86544058D02*
X109440342Y87353581D01*
X110345104Y87353581D02*
X110154628Y87353581D01*
X110154628Y87353581D02*
X110059390Y87305962D01*
X110059390Y87305962D02*
X110011771Y87258343D01*
X110011771Y87258343D02*
X109916533Y87115486D01*
X109916533Y87115486D02*
X109868914Y86925010D01*
X109868914Y86925010D02*
X109868914Y86544058D01*
X109868914Y86544058D02*
X109916533Y86448820D01*
X109916533Y86448820D02*
X109964152Y86401200D01*
X109964152Y86401200D02*
X110059390Y86353581D01*
X110059390Y86353581D02*
X110249866Y86353581D01*
X110249866Y86353581D02*
X110345104Y86401200D01*
X110345104Y86401200D02*
X110392723Y86448820D01*
X110392723Y86448820D02*
X110440342Y86544058D01*
X110440342Y86544058D02*
X110440342Y86782153D01*
X110440342Y86782153D02*
X110392723Y86877391D01*
X110392723Y86877391D02*
X110345104Y86925010D01*
X110345104Y86925010D02*
X110249866Y86972629D01*
X110249866Y86972629D02*
X110059390Y86972629D01*
X110059390Y86972629D02*
X109964152Y86925010D01*
X109964152Y86925010D02*
X109916533Y86877391D01*
X109916533Y86877391D02*
X109868914Y86782153D01*
X111059390Y87353581D02*
X111154628Y87353581D01*
X111154628Y87353581D02*
X111249866Y87305962D01*
X111249866Y87305962D02*
X111297485Y87258343D01*
X111297485Y87258343D02*
X111345104Y87163105D01*
X111345104Y87163105D02*
X111392723Y86972629D01*
X111392723Y86972629D02*
X111392723Y86734534D01*
X111392723Y86734534D02*
X111345104Y86544058D01*
X111345104Y86544058D02*
X111297485Y86448820D01*
X111297485Y86448820D02*
X111249866Y86401200D01*
X111249866Y86401200D02*
X111154628Y86353581D01*
X111154628Y86353581D02*
X111059390Y86353581D01*
X111059390Y86353581D02*
X110964152Y86401200D01*
X110964152Y86401200D02*
X110916533Y86448820D01*
X110916533Y86448820D02*
X110868914Y86544058D01*
X110868914Y86544058D02*
X110821295Y86734534D01*
X110821295Y86734534D02*
X110821295Y86972629D01*
X110821295Y86972629D02*
X110868914Y87163105D01*
X110868914Y87163105D02*
X110916533Y87258343D01*
X110916533Y87258343D02*
X110964152Y87305962D01*
X110964152Y87305962D02*
X111059390Y87353581D01*
X112345104Y86353581D02*
X111773676Y86353581D01*
X112059390Y86353581D02*
X112059390Y87353581D01*
X112059390Y87353581D02*
X111964152Y87210724D01*
X111964152Y87210724D02*
X111868914Y87115486D01*
X111868914Y87115486D02*
X111773676Y87067867D01*
X86186024Y88990181D02*
X86186024Y89990181D01*
X86186024Y89990181D02*
X86566976Y89990181D01*
X86566976Y89990181D02*
X86662214Y89942562D01*
X86662214Y89942562D02*
X86709833Y89894943D01*
X86709833Y89894943D02*
X86757452Y89799705D01*
X86757452Y89799705D02*
X86757452Y89656848D01*
X86757452Y89656848D02*
X86709833Y89561610D01*
X86709833Y89561610D02*
X86662214Y89513991D01*
X86662214Y89513991D02*
X86566976Y89466372D01*
X86566976Y89466372D02*
X86186024Y89466372D01*
X87138405Y89894943D02*
X87186024Y89942562D01*
X87186024Y89942562D02*
X87281262Y89990181D01*
X87281262Y89990181D02*
X87519357Y89990181D01*
X87519357Y89990181D02*
X87614595Y89942562D01*
X87614595Y89942562D02*
X87662214Y89894943D01*
X87662214Y89894943D02*
X87709833Y89799705D01*
X87709833Y89799705D02*
X87709833Y89704467D01*
X87709833Y89704467D02*
X87662214Y89561610D01*
X87662214Y89561610D02*
X87090786Y88990181D01*
X87090786Y88990181D02*
X87709833Y88990181D01*
X88328881Y89990181D02*
X88424119Y89990181D01*
X88424119Y89990181D02*
X88519357Y89942562D01*
X88519357Y89942562D02*
X88566976Y89894943D01*
X88566976Y89894943D02*
X88614595Y89799705D01*
X88614595Y89799705D02*
X88662214Y89609229D01*
X88662214Y89609229D02*
X88662214Y89371134D01*
X88662214Y89371134D02*
X88614595Y89180658D01*
X88614595Y89180658D02*
X88566976Y89085420D01*
X88566976Y89085420D02*
X88519357Y89037800D01*
X88519357Y89037800D02*
X88424119Y88990181D01*
X88424119Y88990181D02*
X88328881Y88990181D01*
X88328881Y88990181D02*
X88233643Y89037800D01*
X88233643Y89037800D02*
X88186024Y89085420D01*
X88186024Y89085420D02*
X88138405Y89180658D01*
X88138405Y89180658D02*
X88090786Y89371134D01*
X88090786Y89371134D02*
X88090786Y89609229D01*
X88090786Y89609229D02*
X88138405Y89799705D01*
X88138405Y89799705D02*
X88186024Y89894943D01*
X88186024Y89894943D02*
X88233643Y89942562D01*
X88233643Y89942562D02*
X88328881Y89990181D01*
X89614595Y88990181D02*
X89043167Y88990181D01*
X89328881Y88990181D02*
X89328881Y89990181D01*
X89328881Y89990181D02*
X89233643Y89847324D01*
X89233643Y89847324D02*
X89138405Y89752086D01*
X89138405Y89752086D02*
X89043167Y89704467D01*
X13684380Y72445943D02*
X13589142Y72493562D01*
X13589142Y72493562D02*
X13493904Y72588800D01*
X13493904Y72588800D02*
X13351047Y72731658D01*
X13351047Y72731658D02*
X13255809Y72779277D01*
X13255809Y72779277D02*
X13160571Y72779277D01*
X13208190Y72541181D02*
X13112952Y72588800D01*
X13112952Y72588800D02*
X13017714Y72684039D01*
X13017714Y72684039D02*
X12970095Y72874515D01*
X12970095Y72874515D02*
X12970095Y73207848D01*
X12970095Y73207848D02*
X13017714Y73398324D01*
X13017714Y73398324D02*
X13112952Y73493562D01*
X13112952Y73493562D02*
X13208190Y73541181D01*
X13208190Y73541181D02*
X13398666Y73541181D01*
X13398666Y73541181D02*
X13493904Y73493562D01*
X13493904Y73493562D02*
X13589142Y73398324D01*
X13589142Y73398324D02*
X13636761Y73207848D01*
X13636761Y73207848D02*
X13636761Y72874515D01*
X13636761Y72874515D02*
X13589142Y72684039D01*
X13589142Y72684039D02*
X13493904Y72588800D01*
X13493904Y72588800D02*
X13398666Y72541181D01*
X13398666Y72541181D02*
X13208190Y72541181D01*
X14493904Y73207848D02*
X14493904Y72541181D01*
X14255809Y73588800D02*
X14017714Y72874515D01*
X14017714Y72874515D02*
X14636761Y72874515D01*
X15208190Y73541181D02*
X15303428Y73541181D01*
X15303428Y73541181D02*
X15398666Y73493562D01*
X15398666Y73493562D02*
X15446285Y73445943D01*
X15446285Y73445943D02*
X15493904Y73350705D01*
X15493904Y73350705D02*
X15541523Y73160229D01*
X15541523Y73160229D02*
X15541523Y72922134D01*
X15541523Y72922134D02*
X15493904Y72731658D01*
X15493904Y72731658D02*
X15446285Y72636420D01*
X15446285Y72636420D02*
X15398666Y72588800D01*
X15398666Y72588800D02*
X15303428Y72541181D01*
X15303428Y72541181D02*
X15208190Y72541181D01*
X15208190Y72541181D02*
X15112952Y72588800D01*
X15112952Y72588800D02*
X15065333Y72636420D01*
X15065333Y72636420D02*
X15017714Y72731658D01*
X15017714Y72731658D02*
X14970095Y72922134D01*
X14970095Y72922134D02*
X14970095Y73160229D01*
X14970095Y73160229D02*
X15017714Y73350705D01*
X15017714Y73350705D02*
X15065333Y73445943D01*
X15065333Y73445943D02*
X15112952Y73493562D01*
X15112952Y73493562D02*
X15208190Y73541181D01*
X16493904Y72541181D02*
X15922476Y72541181D01*
X16208190Y72541181D02*
X16208190Y73541181D01*
X16208190Y73541181D02*
X16112952Y73398324D01*
X16112952Y73398324D02*
X16017714Y73303086D01*
X16017714Y73303086D02*
X15922476Y73255467D01*
D11*
X23071985Y46274093D02*
X22681509Y46000760D01*
X23071985Y45805522D02*
X22251985Y45805522D01*
X22251985Y45805522D02*
X22251985Y46117903D01*
X22251985Y46117903D02*
X22291033Y46195998D01*
X22291033Y46195998D02*
X22330080Y46235045D01*
X22330080Y46235045D02*
X22408176Y46274093D01*
X22408176Y46274093D02*
X22525318Y46274093D01*
X22525318Y46274093D02*
X22603414Y46235045D01*
X22603414Y46235045D02*
X22642461Y46195998D01*
X22642461Y46195998D02*
X22681509Y46117903D01*
X22681509Y46117903D02*
X22681509Y45805522D01*
X22525318Y46976950D02*
X23071985Y46976950D01*
X22212938Y46781712D02*
X22798652Y46586474D01*
X22798652Y46586474D02*
X22798652Y47094093D01*
X22251985Y47562664D02*
X22251985Y47640759D01*
X22251985Y47640759D02*
X22291033Y47718855D01*
X22291033Y47718855D02*
X22330080Y47757902D01*
X22330080Y47757902D02*
X22408176Y47796950D01*
X22408176Y47796950D02*
X22564366Y47835997D01*
X22564366Y47835997D02*
X22759604Y47835997D01*
X22759604Y47835997D02*
X22915795Y47796950D01*
X22915795Y47796950D02*
X22993890Y47757902D01*
X22993890Y47757902D02*
X23032938Y47718855D01*
X23032938Y47718855D02*
X23071985Y47640759D01*
X23071985Y47640759D02*
X23071985Y47562664D01*
X23071985Y47562664D02*
X23032938Y47484569D01*
X23032938Y47484569D02*
X22993890Y47445521D01*
X22993890Y47445521D02*
X22915795Y47406474D01*
X22915795Y47406474D02*
X22759604Y47367426D01*
X22759604Y47367426D02*
X22564366Y47367426D01*
X22564366Y47367426D02*
X22408176Y47406474D01*
X22408176Y47406474D02*
X22330080Y47445521D01*
X22330080Y47445521D02*
X22291033Y47484569D01*
X22291033Y47484569D02*
X22251985Y47562664D01*
X22603414Y48304568D02*
X22564366Y48226473D01*
X22564366Y48226473D02*
X22525318Y48187426D01*
X22525318Y48187426D02*
X22447223Y48148378D01*
X22447223Y48148378D02*
X22408176Y48148378D01*
X22408176Y48148378D02*
X22330080Y48187426D01*
X22330080Y48187426D02*
X22291033Y48226473D01*
X22291033Y48226473D02*
X22251985Y48304568D01*
X22251985Y48304568D02*
X22251985Y48460759D01*
X22251985Y48460759D02*
X22291033Y48538854D01*
X22291033Y48538854D02*
X22330080Y48577902D01*
X22330080Y48577902D02*
X22408176Y48616949D01*
X22408176Y48616949D02*
X22447223Y48616949D01*
X22447223Y48616949D02*
X22525318Y48577902D01*
X22525318Y48577902D02*
X22564366Y48538854D01*
X22564366Y48538854D02*
X22603414Y48460759D01*
X22603414Y48460759D02*
X22603414Y48304568D01*
X22603414Y48304568D02*
X22642461Y48226473D01*
X22642461Y48226473D02*
X22681509Y48187426D01*
X22681509Y48187426D02*
X22759604Y48148378D01*
X22759604Y48148378D02*
X22915795Y48148378D01*
X22915795Y48148378D02*
X22993890Y48187426D01*
X22993890Y48187426D02*
X23032938Y48226473D01*
X23032938Y48226473D02*
X23071985Y48304568D01*
X23071985Y48304568D02*
X23071985Y48460759D01*
X23071985Y48460759D02*
X23032938Y48538854D01*
X23032938Y48538854D02*
X22993890Y48577902D01*
X22993890Y48577902D02*
X22915795Y48616949D01*
X22915795Y48616949D02*
X22759604Y48616949D01*
X22759604Y48616949D02*
X22681509Y48577902D01*
X22681509Y48577902D02*
X22642461Y48538854D01*
X22642461Y48538854D02*
X22603414Y48460759D01*
X78367985Y73947093D02*
X77977509Y73673760D01*
X78367985Y73478522D02*
X77547985Y73478522D01*
X77547985Y73478522D02*
X77547985Y73790903D01*
X77547985Y73790903D02*
X77587033Y73868998D01*
X77587033Y73868998D02*
X77626080Y73908045D01*
X77626080Y73908045D02*
X77704176Y73947093D01*
X77704176Y73947093D02*
X77821318Y73947093D01*
X77821318Y73947093D02*
X77899414Y73908045D01*
X77899414Y73908045D02*
X77938461Y73868998D01*
X77938461Y73868998D02*
X77977509Y73790903D01*
X77977509Y73790903D02*
X77977509Y73478522D01*
X77547985Y74688998D02*
X77547985Y74298522D01*
X77547985Y74298522D02*
X77938461Y74259474D01*
X77938461Y74259474D02*
X77899414Y74298522D01*
X77899414Y74298522D02*
X77860366Y74376617D01*
X77860366Y74376617D02*
X77860366Y74571855D01*
X77860366Y74571855D02*
X77899414Y74649950D01*
X77899414Y74649950D02*
X77938461Y74688998D01*
X77938461Y74688998D02*
X78016557Y74728045D01*
X78016557Y74728045D02*
X78211795Y74728045D01*
X78211795Y74728045D02*
X78289890Y74688998D01*
X78289890Y74688998D02*
X78328938Y74649950D01*
X78328938Y74649950D02*
X78367985Y74571855D01*
X78367985Y74571855D02*
X78367985Y74376617D01*
X78367985Y74376617D02*
X78328938Y74298522D01*
X78328938Y74298522D02*
X78289890Y74259474D01*
X77547985Y75235664D02*
X77547985Y75313759D01*
X77547985Y75313759D02*
X77587033Y75391855D01*
X77587033Y75391855D02*
X77626080Y75430902D01*
X77626080Y75430902D02*
X77704176Y75469950D01*
X77704176Y75469950D02*
X77860366Y75508997D01*
X77860366Y75508997D02*
X78055604Y75508997D01*
X78055604Y75508997D02*
X78211795Y75469950D01*
X78211795Y75469950D02*
X78289890Y75430902D01*
X78289890Y75430902D02*
X78328938Y75391855D01*
X78328938Y75391855D02*
X78367985Y75313759D01*
X78367985Y75313759D02*
X78367985Y75235664D01*
X78367985Y75235664D02*
X78328938Y75157569D01*
X78328938Y75157569D02*
X78289890Y75118521D01*
X78289890Y75118521D02*
X78211795Y75079474D01*
X78211795Y75079474D02*
X78055604Y75040426D01*
X78055604Y75040426D02*
X77860366Y75040426D01*
X77860366Y75040426D02*
X77704176Y75079474D01*
X77704176Y75079474D02*
X77626080Y75118521D01*
X77626080Y75118521D02*
X77587033Y75157569D01*
X77587033Y75157569D02*
X77547985Y75235664D01*
X77547985Y75782330D02*
X77547985Y76289949D01*
X77547985Y76289949D02*
X77860366Y76016616D01*
X77860366Y76016616D02*
X77860366Y76133759D01*
X77860366Y76133759D02*
X77899414Y76211854D01*
X77899414Y76211854D02*
X77938461Y76250902D01*
X77938461Y76250902D02*
X78016557Y76289949D01*
X78016557Y76289949D02*
X78211795Y76289949D01*
X78211795Y76289949D02*
X78289890Y76250902D01*
X78289890Y76250902D02*
X78328938Y76211854D01*
X78328938Y76211854D02*
X78367985Y76133759D01*
X78367985Y76133759D02*
X78367985Y75899473D01*
X78367985Y75899473D02*
X78328938Y75821378D01*
X78328938Y75821378D02*
X78289890Y75782330D01*
D13*
G04 #@! TO.C,BT301*
X135968800Y43445200D02*
X135968800Y47432500D01*
X135968800Y31737900D02*
X135968800Y35725200D01*
X138168800Y41245200D02*
X135968800Y43445200D01*
X138168800Y37925200D02*
X135968800Y35725200D01*
X138168800Y37925200D02*
X138168800Y41245200D01*
X140468800Y50277200D02*
X140468800Y53895200D01*
X140468800Y25275200D02*
X140468800Y28893200D01*
X142178800Y53895200D02*
X140468800Y53895200D01*
X142178800Y25275200D02*
X140468800Y25275200D01*
X145978800Y53895200D02*
X147688800Y53895200D01*
X145978800Y25275200D02*
X147688800Y25275200D01*
X147688800Y53895200D02*
X147688800Y50277200D01*
X147688800Y28893200D02*
X147688800Y25275200D01*
X152188800Y47432500D02*
X152188800Y31737900D01*
X135967011Y47430571D02*
G75*
G02*
X140468800Y50277200I8111785J-7845366D01*
G01*
X140468800Y28893200D02*
G75*
G02*
X135967011Y31739829I3610012J10692020D01*
G01*
X147688800Y50277200D02*
G75*
G02*
X152190590Y47430572I-3610010J-10692020D01*
G01*
X152190589Y31739829D02*
G75*
G02*
X147688800Y28893200I-8111789J7845371D01*
G01*
G04 #@! TO.C,F403*
X26237721Y63006000D02*
X26563279Y63006000D01*
X26237721Y61986000D02*
X26563279Y61986000D01*
G04 #@! TO.C,JP301*
X131198000Y81246000D02*
X131198000Y81846000D01*
X131898000Y82546000D02*
X133298000Y82546000D01*
X133298000Y80546000D02*
X131898000Y80546000D01*
X133998000Y81846000D02*
X133998000Y81246000D01*
X131198000Y81846000D02*
G75*
G02*
X131898000Y82546000I700000J0D01*
G01*
X131898000Y80546000D02*
G75*
G02*
X131198000Y81246000I0J700000D01*
G01*
X133298000Y82546000D02*
G75*
G02*
X133998000Y81846000I1J-699999D01*
G01*
X133998000Y81246000D02*
G75*
G02*
X133298000Y80546000I-699999J-1D01*
G01*
G04 #@! TO.C,F401*
X26237721Y78006000D02*
X26563279Y78006000D01*
X26237721Y76986000D02*
X26563279Y76986000D01*
G04 #@! TO.C,R401*
X19713064Y86064000D02*
X15358936Y86064000D01*
X19713064Y82644000D02*
X15358936Y82644000D01*
G04 #@! TO.C,U502*
X78452000Y80784000D02*
X78452000Y82734000D01*
X78452000Y80784000D02*
X78452000Y78834000D01*
X83572000Y80784000D02*
X83572000Y82734000D01*
X83572000Y80784000D02*
X83572000Y78834000D01*
X78547000Y78084000D02*
X78217000Y77844000D01*
X78217000Y78324000D01*
X78547000Y78084000D01*
G36*
X78547000Y78084000D02*
G01*
X78217000Y77844000D01*
X78217000Y78324000D01*
X78547000Y78084000D01*
G37*
D14*
G04 #@! TO.C,R502*
X76806959Y74207000D02*
X76806969Y74607000D01*
X77552794Y74205944D02*
X77552805Y74605943D01*
D13*
G04 #@! TO.C,U501*
X71872000Y80784000D02*
X71872000Y82734000D01*
X71872000Y80784000D02*
X71872000Y78834000D01*
X76992000Y80784000D02*
X76992000Y82734000D01*
X76992000Y80784000D02*
X76992000Y78834000D01*
X71967000Y78084000D02*
X71637000Y77844000D01*
X71637000Y78324000D01*
X71967000Y78084000D01*
G36*
X71967000Y78084000D02*
G01*
X71637000Y77844000D01*
X71637000Y78324000D01*
X71967000Y78084000D01*
G37*
G04 #@! TO.C,C602*
X108746820Y87440800D02*
X109027980Y87440800D01*
X108746820Y86420800D02*
X109027980Y86420800D01*
D14*
G04 #@! TO.C,R404*
X23460005Y31534000D02*
X23460015Y31934000D01*
X24205840Y31532944D02*
X24205851Y31932943D01*
D15*
G04 #@! TO.C,J203*
X56100600Y15795200D02*
X56100600Y15795200D01*
X56100600Y15795200D02*
X56100600Y-4800D01*
X56100600Y-4800D02*
X56100600Y15795200D01*
X56100600Y-4800D02*
X56100600Y-4800D01*
X56100600Y-4800D02*
X56100600Y-4800D01*
X56100600Y-4800D02*
X90730600Y-4800D01*
X59415600Y20595200D02*
X59415600Y20595200D01*
X59415600Y20395200D02*
X59415600Y20395200D01*
X69665600Y19495200D02*
X69665600Y19495200D01*
X69665600Y19495200D02*
X77165600Y19495200D01*
X77165600Y19495200D02*
X69665600Y19495200D01*
X77165600Y19495200D02*
X77165600Y19495200D01*
X90730600Y15795200D02*
X90730600Y15795200D01*
X90730600Y15795200D02*
X90730600Y-4800D01*
X90730600Y-4800D02*
X56100600Y-4800D01*
X90730600Y-4800D02*
X90730600Y15795200D01*
X90730600Y-4800D02*
X90730600Y-4800D01*
X90730600Y-4800D02*
X90730600Y-4800D01*
X59415600Y20595200D02*
G75*
G02*
X59415600Y20395200I0J-100000D01*
G01*
X59415600Y20395200D02*
G75*
G02*
X59415600Y20595200I0J100000D01*
G01*
D13*
G04 #@! TO.C,R407*
X19713064Y56064000D02*
X15358936Y56064000D01*
X19713064Y52644000D02*
X15358936Y52644000D01*
G04 #@! TO.C,M303*
D15*
X55345000Y28555000D02*
X41445000Y28555000D01*
X41445000Y56055000D01*
X55345000Y56055000D01*
X55345000Y28555000D01*
D10*
G04 #@! TO.C,D301*
X137423203Y58930400D02*
X140351201Y58930400D01*
X137423203Y58584400D02*
X137550203Y58584400D01*
X137423203Y58484395D02*
X137423203Y58930400D01*
X137423203Y58076400D02*
X137551200Y58076400D01*
X137423203Y57755405D02*
X137423203Y58176405D01*
X137423203Y57755405D02*
X140351200Y57755405D01*
X137551200Y58484395D02*
X137551200Y58930400D01*
X137551200Y57780400D02*
X137550203Y58176405D01*
D11*
X138551200Y58330400D02*
X138751200Y58330400D01*
X138751200Y58330400D02*
X139451200Y58680400D01*
X138751200Y58330400D02*
X139451200Y57980400D01*
X138751200Y57980400D02*
X138751200Y58680400D01*
X139451200Y58330400D02*
X139751200Y58330400D01*
X139451200Y57980400D02*
X139451200Y58680400D01*
D13*
G04 #@! TO.C,Q402*
X11622000Y35946000D02*
X18042000Y35946000D01*
X11622000Y29046000D02*
X18042000Y29046000D01*
X18042000Y35946000D02*
X18042000Y35676000D01*
X18042000Y29046000D02*
X18042000Y29316000D01*
X19702000Y29026000D02*
X19222000Y29026000D01*
X19462000Y29356000D01*
X19702000Y29026000D01*
G36*
X19702000Y29026000D02*
G01*
X19222000Y29026000D01*
X19462000Y29356000D01*
X19702000Y29026000D01*
G37*
D14*
G04 #@! TO.C,R501*
X74857913Y74207000D02*
X74857923Y74607000D01*
X75603748Y74205944D02*
X75603759Y74605943D01*
D13*
G04 #@! TO.C,C603*
X116150620Y83275200D02*
X116431780Y83275200D01*
X116150620Y82255200D02*
X116431780Y82255200D01*
D15*
G04 #@! TO.C,M602*
X91032800Y82524199D02*
X100132800Y82524199D01*
X91032800Y79424196D02*
X91032800Y80424198D01*
X91032800Y79424196D02*
X100132800Y79424196D01*
D13*
G04 #@! TO.C,F404*
X26237721Y48006000D02*
X26563279Y48006000D01*
X26237721Y46986000D02*
X26563279Y46986000D01*
G04 #@! TO.C,R405*
X19713064Y71064000D02*
X15358936Y71064000D01*
X19713064Y67644000D02*
X15358936Y67644000D01*
D14*
G04 #@! TO.C,R403*
X23460005Y76534000D02*
X23460015Y76934000D01*
X24205840Y76532944D02*
X24205851Y76932943D01*
D13*
G04 #@! TO.C,F402*
X26237721Y33006000D02*
X26563279Y33006000D01*
X26237721Y31986000D02*
X26563279Y31986000D01*
G04 #@! TO.C,Q403*
X11622000Y65946000D02*
X18042000Y65946000D01*
X11622000Y59046000D02*
X18042000Y59046000D01*
X18042000Y65946000D02*
X18042000Y65676000D01*
X18042000Y59046000D02*
X18042000Y59316000D01*
X19702000Y59026000D02*
X19222000Y59026000D01*
X19462000Y59356000D01*
X19702000Y59026000D01*
G36*
X19702000Y59026000D02*
G01*
X19222000Y59026000D01*
X19462000Y59356000D01*
X19702000Y59026000D01*
G37*
D15*
G04 #@! TO.C,M306*
X135503002Y63546999D02*
X135503002Y63247001D01*
X135503004Y82397001D02*
X135502999Y80847001D01*
X135503004Y78846999D02*
X135503004Y77746996D01*
X135503004Y76147001D02*
X135503004Y73447001D01*
X135503004Y69946999D02*
X135503004Y65146999D01*
X150803001Y63247003D02*
X135503002Y63247001D01*
X152303001Y83847001D02*
X136903001Y83847001D01*
X152303001Y83847001D02*
X152303001Y83547001D01*
X152303001Y81947001D02*
X152303001Y71546999D01*
X152303001Y69847001D02*
X152303001Y66646998D01*
G04 #@! TO.C,M301*
X63651395Y62842585D02*
X97451405Y62842585D01*
X63651395Y27042595D02*
X63651395Y62842585D01*
X63651395Y27042595D02*
X97451395Y27042595D01*
X97451405Y27042595D02*
X97451405Y62842585D01*
D13*
G04 #@! TO.C,J301*
X137131600Y16786800D02*
X137131600Y12526800D01*
X137131600Y66800D02*
X137131600Y8426800D01*
X144041600Y17506800D02*
X144541600Y17006800D01*
X144541600Y17006800D02*
X145041600Y17506800D01*
X145041600Y17506800D02*
X144041600Y17506800D01*
X149451600Y16786800D02*
X137131600Y16786800D01*
X149451600Y12526800D02*
X149451600Y16786800D01*
X149451600Y8426800D02*
X149451600Y66800D01*
X149451600Y66800D02*
X137131600Y66800D01*
D14*
G04 #@! TO.C,R406*
X23460005Y61534000D02*
X23460015Y61934000D01*
X24205840Y61532944D02*
X24205851Y61932943D01*
D13*
G04 #@! TO.C,R402*
X19713064Y41064000D02*
X15358936Y41064000D01*
X19713064Y37644000D02*
X15358936Y37644000D01*
D15*
G04 #@! TO.C,M601*
X91038200Y86167401D02*
X100138200Y86167401D01*
X91038200Y83067398D02*
X91038200Y84067400D01*
X91038200Y83067398D02*
X100138200Y83067398D01*
D13*
G04 #@! TO.C,Q404*
X11622000Y50946000D02*
X18042000Y50946000D01*
X11622000Y44046000D02*
X18042000Y44046000D01*
X18042000Y50946000D02*
X18042000Y50676000D01*
X18042000Y44046000D02*
X18042000Y44316000D01*
X19702000Y44026000D02*
X19222000Y44026000D01*
X19462000Y44356000D01*
X19702000Y44026000D01*
G36*
X19702000Y44026000D02*
G01*
X19222000Y44026000D01*
X19462000Y44356000D01*
X19702000Y44026000D01*
G37*
G04 #@! TO.C,J201*
X31354000Y12965000D02*
X31354000Y-55000D01*
X31354000Y-55000D02*
X38364000Y-55000D01*
X32164000Y12965000D02*
X31354000Y12965000D01*
X33864000Y16065000D02*
X33864000Y17345000D01*
X34464000Y16065000D02*
X34464000Y17345000D01*
X36754000Y12955000D02*
X35774000Y12955000D01*
X38064000Y16065000D02*
X38064000Y17345000D01*
X38664000Y16065000D02*
X38664000Y17345000D01*
X40954000Y12955000D02*
X39974000Y12955000D01*
X42264000Y16065000D02*
X42264000Y17345000D01*
X42864000Y16065000D02*
X42864000Y17345000D01*
X44564000Y13955000D02*
X45164000Y14255000D01*
X44564000Y12965000D02*
X45374000Y12965000D01*
X45164000Y14255000D02*
X45164000Y13655000D01*
X45164000Y13655000D02*
X44564000Y13955000D01*
X45374000Y12965000D02*
X45374000Y-55000D01*
X45374000Y-55000D02*
X38364000Y-55000D01*
G04 #@! TO.C,C601*
X116099820Y85815200D02*
X116380980Y85815200D01*
X116099820Y84795200D02*
X116380980Y84795200D01*
D15*
G04 #@! TO.C,M304*
X117819300Y65765566D02*
X117819300Y74190586D01*
X117819300Y65765566D02*
X123219299Y65765566D01*
X117844301Y74215587D02*
X118869300Y75240586D01*
X118869300Y78190565D02*
X119219302Y78540567D01*
X118869300Y75240586D02*
X118869300Y78190565D01*
X119219302Y78540567D02*
X122844299Y78540567D01*
X122844299Y78540567D02*
X123219299Y78165566D01*
X123219299Y65765566D02*
X123219299Y78165566D01*
G04 #@! TO.C,M302*
X112915502Y51590340D02*
X112915502Y44704011D01*
X123815496Y51590340D02*
X112915502Y51590340D01*
X123815498Y51590337D02*
X123815496Y51590340D01*
X123815498Y51590337D02*
X123815498Y50715343D01*
X124090502Y50440339D02*
X123815498Y50715343D01*
X124090502Y50440339D02*
X124090502Y44742858D01*
X124090502Y44742858D02*
X112915502Y44704011D01*
D14*
G04 #@! TO.C,R504*
X80705051Y74207000D02*
X80705061Y74607000D01*
X81450886Y74205944D02*
X81450897Y74605943D01*
D13*
G04 #@! TO.C,U601*
X110583200Y85968400D02*
X108633200Y85968400D01*
X110583200Y85968400D02*
X112533200Y85968400D01*
X110583200Y80848400D02*
X108633200Y80848400D01*
X110583200Y80848400D02*
X112533200Y80848400D01*
X107883200Y85873400D02*
X107643200Y86203400D01*
X108123200Y86203400D01*
X107883200Y85873400D01*
G36*
X107883200Y85873400D02*
G01*
X107643200Y86203400D01*
X108123200Y86203400D01*
X107883200Y85873400D01*
G37*
G04 #@! TO.C,Q401*
X11622000Y80946000D02*
X18042000Y80946000D01*
X11622000Y74046000D02*
X18042000Y74046000D01*
X18042000Y80946000D02*
X18042000Y80676000D01*
X18042000Y74046000D02*
X18042000Y74316000D01*
X19702000Y74026000D02*
X19222000Y74026000D01*
X19462000Y74356000D01*
X19702000Y74026000D01*
G36*
X19702000Y74026000D02*
G01*
X19222000Y74026000D01*
X19462000Y74356000D01*
X19702000Y74026000D01*
G37*
D14*
G04 #@! TO.C,R408*
X23460005Y46534000D02*
X23460015Y46934000D01*
X24205840Y46532944D02*
X24205851Y46932943D01*
G04 #@! TO.C,R503*
X78756005Y74207000D02*
X78756015Y74607000D01*
X79501840Y74205944D02*
X79501851Y74605943D01*
G04 #@! TD*
M02*
