G04 #@! TF.GenerationSoftware,KiCad,Pcbnew,8.0.8*
G04 #@! TF.CreationDate,2025-02-16T14:12:46+01:00*
G04 #@! TF.ProjectId,hellenbms46,68656c6c-656e-4626-9d73-34362e6b6963,rev?*
G04 #@! TF.SameCoordinates,Original*
G04 #@! TF.FileFunction,Legend,Bot*
G04 #@! TF.FilePolarity,Positive*
%FSLAX46Y46*%
G04 Gerber Fmt 4.6, Leading zero omitted, Abs format (unit mm)*
G04 Created by KiCad (PCBNEW 8.0.8) date 2025-02-16 14:12:46*
%MOMM*%
%LPD*%
G01*
G04 APERTURE LIST*
%ADD10C,0.200000*%
G04 APERTURE END LIST*
G04 #@! TO.C,M303*
D10*
X135345000Y-129445000D02*
X121445000Y-129445000D01*
X121445000Y-101945000D01*
X135345000Y-101945000D01*
X135345000Y-129445000D01*
G04 #@! TO.C,M602*
X171032800Y-75475801D02*
X180132800Y-75475801D01*
X171032800Y-78575804D02*
X171032800Y-77575802D01*
X171032800Y-78575804D02*
X180132800Y-78575804D01*
G04 #@! TO.C,M306*
X215503002Y-94453001D02*
X215503002Y-94752999D01*
X215503004Y-75602999D02*
X215502999Y-77152999D01*
X215503004Y-79153001D02*
X215503004Y-80253004D01*
X215503004Y-81852999D02*
X215503004Y-84552999D01*
X215503004Y-88053001D02*
X215503004Y-92853001D01*
X230803001Y-94752997D02*
X215503002Y-94752999D01*
X232303001Y-74152999D02*
X216903001Y-74152999D01*
X232303001Y-74152999D02*
X232303001Y-74452999D01*
X232303001Y-76052999D02*
X232303001Y-86453001D01*
X232303001Y-88152999D02*
X232303001Y-91353002D01*
G04 #@! TO.C,M301*
X143651395Y-95157415D02*
X177451405Y-95157415D01*
X143651395Y-130957405D02*
X143651395Y-95157415D01*
X143651395Y-130957405D02*
X177451405Y-130957405D01*
X177451405Y-130957405D02*
X177451405Y-95157415D01*
G04 #@! TO.C,M601*
X171038200Y-71832599D02*
X180138200Y-71832599D01*
X171038200Y-74932602D02*
X171038200Y-73932600D01*
X171038200Y-74932602D02*
X180138200Y-74932602D01*
G04 #@! TO.C,M304*
X197819300Y-92234434D02*
X197819300Y-83809414D01*
X197819300Y-92234434D02*
X203219299Y-92234434D01*
X197844301Y-83784413D02*
X198869300Y-82759414D01*
X198869300Y-79809435D02*
X199219302Y-79459433D01*
X198869300Y-82759414D02*
X198869300Y-79809435D01*
X199219302Y-79459433D02*
X202844299Y-79459433D01*
X202844299Y-79459433D02*
X203219299Y-79834434D01*
X203219299Y-92234434D02*
X203219299Y-79834434D01*
G04 #@! TO.C,M302*
X192915502Y-106403460D02*
X192915502Y-113296337D01*
X203759296Y-106409663D02*
X192915502Y-106409663D01*
X203815498Y-106459663D02*
X203759296Y-106409663D01*
X203815498Y-106459663D02*
X203815498Y-107284662D01*
X204090502Y-107559668D02*
X203815498Y-107284662D01*
X204090502Y-107559668D02*
X204090502Y-113257490D01*
X204090502Y-113257490D02*
X192915502Y-113296337D01*
G04 #@! TD*
M02*
