G04 #@! TF.GenerationSoftware,KiCad,Pcbnew,8.0.8*
G04 #@! TF.CreationDate,2025-02-16T14:12:46+01:00*
G04 #@! TF.ProjectId,hellenbms46,68656c6c-656e-4626-9d73-34362e6b6963,rev?*
G04 #@! TF.SameCoordinates,Original*
G04 #@! TF.FileFunction,Legend,Top*
G04 #@! TF.FilePolarity,Positive*
%FSLAX46Y46*%
G04 Gerber Fmt 4.6, Leading zero omitted, Abs format (unit mm)*
G04 Created by KiCad (PCBNEW 8.0.8) date 2025-02-16 14:12:46*
%MOMM*%
%LPD*%
G01*
G04 APERTURE LIST*
%ADD10C,0.150000*%
%ADD11C,0.170000*%
%ADD12C,0.254000*%
%ADD13C,0.120000*%
%ADD14C,0.203200*%
%ADD15C,0.200000*%
G04 APERTURE END LIST*
D10*
X216389809Y-120152895D02*
X216437428Y-120010038D01*
X216437428Y-120010038D02*
X216485047Y-119962419D01*
X216485047Y-119962419D02*
X216580285Y-119914800D01*
X216580285Y-119914800D02*
X216723142Y-119914800D01*
X216723142Y-119914800D02*
X216818380Y-119962419D01*
X216818380Y-119962419D02*
X216866000Y-120010038D01*
X216866000Y-120010038D02*
X216913619Y-120105276D01*
X216913619Y-120105276D02*
X216913619Y-120486228D01*
X216913619Y-120486228D02*
X215913619Y-120486228D01*
X215913619Y-120486228D02*
X215913619Y-120152895D01*
X215913619Y-120152895D02*
X215961238Y-120057657D01*
X215961238Y-120057657D02*
X216008857Y-120010038D01*
X216008857Y-120010038D02*
X216104095Y-119962419D01*
X216104095Y-119962419D02*
X216199333Y-119962419D01*
X216199333Y-119962419D02*
X216294571Y-120010038D01*
X216294571Y-120010038D02*
X216342190Y-120057657D01*
X216342190Y-120057657D02*
X216389809Y-120152895D01*
X216389809Y-120152895D02*
X216389809Y-120486228D01*
X215913619Y-119629085D02*
X215913619Y-119057657D01*
X216913619Y-119343371D02*
X215913619Y-119343371D01*
X215913619Y-118819561D02*
X215913619Y-118200514D01*
X215913619Y-118200514D02*
X216294571Y-118533847D01*
X216294571Y-118533847D02*
X216294571Y-118390990D01*
X216294571Y-118390990D02*
X216342190Y-118295752D01*
X216342190Y-118295752D02*
X216389809Y-118248133D01*
X216389809Y-118248133D02*
X216485047Y-118200514D01*
X216485047Y-118200514D02*
X216723142Y-118200514D01*
X216723142Y-118200514D02*
X216818380Y-118248133D01*
X216818380Y-118248133D02*
X216866000Y-118295752D01*
X216866000Y-118295752D02*
X216913619Y-118390990D01*
X216913619Y-118390990D02*
X216913619Y-118676704D01*
X216913619Y-118676704D02*
X216866000Y-118771942D01*
X216866000Y-118771942D02*
X216818380Y-118819561D01*
X215913619Y-117581466D02*
X215913619Y-117486228D01*
X215913619Y-117486228D02*
X215961238Y-117390990D01*
X215961238Y-117390990D02*
X216008857Y-117343371D01*
X216008857Y-117343371D02*
X216104095Y-117295752D01*
X216104095Y-117295752D02*
X216294571Y-117248133D01*
X216294571Y-117248133D02*
X216532666Y-117248133D01*
X216532666Y-117248133D02*
X216723142Y-117295752D01*
X216723142Y-117295752D02*
X216818380Y-117343371D01*
X216818380Y-117343371D02*
X216866000Y-117390990D01*
X216866000Y-117390990D02*
X216913619Y-117486228D01*
X216913619Y-117486228D02*
X216913619Y-117581466D01*
X216913619Y-117581466D02*
X216866000Y-117676704D01*
X216866000Y-117676704D02*
X216818380Y-117724323D01*
X216818380Y-117724323D02*
X216723142Y-117771942D01*
X216723142Y-117771942D02*
X216532666Y-117819561D01*
X216532666Y-117819561D02*
X216294571Y-117819561D01*
X216294571Y-117819561D02*
X216104095Y-117771942D01*
X216104095Y-117771942D02*
X216008857Y-117724323D01*
X216008857Y-117724323D02*
X215961238Y-117676704D01*
X215961238Y-117676704D02*
X215913619Y-117581466D01*
X216913619Y-116295752D02*
X216913619Y-116867180D01*
X216913619Y-116581466D02*
X215913619Y-116581466D01*
X215913619Y-116581466D02*
X216056476Y-116676704D01*
X216056476Y-116676704D02*
X216151714Y-116771942D01*
X216151714Y-116771942D02*
X216199333Y-116867180D01*
X105114785Y-94005009D02*
X104781452Y-94005009D01*
X104781452Y-94528819D02*
X104781452Y-93528819D01*
X104781452Y-93528819D02*
X105257642Y-93528819D01*
X106067166Y-93862152D02*
X106067166Y-94528819D01*
X105829071Y-93481200D02*
X105590976Y-94195485D01*
X105590976Y-94195485D02*
X106210023Y-94195485D01*
X106781452Y-93528819D02*
X106876690Y-93528819D01*
X106876690Y-93528819D02*
X106971928Y-93576438D01*
X106971928Y-93576438D02*
X107019547Y-93624057D01*
X107019547Y-93624057D02*
X107067166Y-93719295D01*
X107067166Y-93719295D02*
X107114785Y-93909771D01*
X107114785Y-93909771D02*
X107114785Y-94147866D01*
X107114785Y-94147866D02*
X107067166Y-94338342D01*
X107067166Y-94338342D02*
X107019547Y-94433580D01*
X107019547Y-94433580D02*
X106971928Y-94481200D01*
X106971928Y-94481200D02*
X106876690Y-94528819D01*
X106876690Y-94528819D02*
X106781452Y-94528819D01*
X106781452Y-94528819D02*
X106686214Y-94481200D01*
X106686214Y-94481200D02*
X106638595Y-94433580D01*
X106638595Y-94433580D02*
X106590976Y-94338342D01*
X106590976Y-94338342D02*
X106543357Y-94147866D01*
X106543357Y-94147866D02*
X106543357Y-93909771D01*
X106543357Y-93909771D02*
X106590976Y-93719295D01*
X106590976Y-93719295D02*
X106638595Y-93624057D01*
X106638595Y-93624057D02*
X106686214Y-93576438D01*
X106686214Y-93576438D02*
X106781452Y-93528819D01*
X107448119Y-93528819D02*
X108067166Y-93528819D01*
X108067166Y-93528819D02*
X107733833Y-93909771D01*
X107733833Y-93909771D02*
X107876690Y-93909771D01*
X107876690Y-93909771D02*
X107971928Y-93957390D01*
X107971928Y-93957390D02*
X108019547Y-94005009D01*
X108019547Y-94005009D02*
X108067166Y-94100247D01*
X108067166Y-94100247D02*
X108067166Y-94338342D01*
X108067166Y-94338342D02*
X108019547Y-94433580D01*
X108019547Y-94433580D02*
X107971928Y-94481200D01*
X107971928Y-94481200D02*
X107876690Y-94528819D01*
X107876690Y-94528819D02*
X107590976Y-94528819D01*
X107590976Y-94528819D02*
X107495738Y-94481200D01*
X107495738Y-94481200D02*
X107448119Y-94433580D01*
X210812285Y-77708819D02*
X210812285Y-78423104D01*
X210812285Y-78423104D02*
X210764666Y-78565961D01*
X210764666Y-78565961D02*
X210669428Y-78661200D01*
X210669428Y-78661200D02*
X210526571Y-78708819D01*
X210526571Y-78708819D02*
X210431333Y-78708819D01*
X211288476Y-78708819D02*
X211288476Y-77708819D01*
X211288476Y-77708819D02*
X211669428Y-77708819D01*
X211669428Y-77708819D02*
X211764666Y-77756438D01*
X211764666Y-77756438D02*
X211812285Y-77804057D01*
X211812285Y-77804057D02*
X211859904Y-77899295D01*
X211859904Y-77899295D02*
X211859904Y-78042152D01*
X211859904Y-78042152D02*
X211812285Y-78137390D01*
X211812285Y-78137390D02*
X211764666Y-78185009D01*
X211764666Y-78185009D02*
X211669428Y-78232628D01*
X211669428Y-78232628D02*
X211288476Y-78232628D01*
X212193238Y-77708819D02*
X212812285Y-77708819D01*
X212812285Y-77708819D02*
X212478952Y-78089771D01*
X212478952Y-78089771D02*
X212621809Y-78089771D01*
X212621809Y-78089771D02*
X212717047Y-78137390D01*
X212717047Y-78137390D02*
X212764666Y-78185009D01*
X212764666Y-78185009D02*
X212812285Y-78280247D01*
X212812285Y-78280247D02*
X212812285Y-78518342D01*
X212812285Y-78518342D02*
X212764666Y-78613580D01*
X212764666Y-78613580D02*
X212717047Y-78661200D01*
X212717047Y-78661200D02*
X212621809Y-78708819D01*
X212621809Y-78708819D02*
X212336095Y-78708819D01*
X212336095Y-78708819D02*
X212240857Y-78661200D01*
X212240857Y-78661200D02*
X212193238Y-78613580D01*
X213431333Y-77708819D02*
X213526571Y-77708819D01*
X213526571Y-77708819D02*
X213621809Y-77756438D01*
X213621809Y-77756438D02*
X213669428Y-77804057D01*
X213669428Y-77804057D02*
X213717047Y-77899295D01*
X213717047Y-77899295D02*
X213764666Y-78089771D01*
X213764666Y-78089771D02*
X213764666Y-78327866D01*
X213764666Y-78327866D02*
X213717047Y-78518342D01*
X213717047Y-78518342D02*
X213669428Y-78613580D01*
X213669428Y-78613580D02*
X213621809Y-78661200D01*
X213621809Y-78661200D02*
X213526571Y-78708819D01*
X213526571Y-78708819D02*
X213431333Y-78708819D01*
X213431333Y-78708819D02*
X213336095Y-78661200D01*
X213336095Y-78661200D02*
X213288476Y-78613580D01*
X213288476Y-78613580D02*
X213240857Y-78518342D01*
X213240857Y-78518342D02*
X213193238Y-78327866D01*
X213193238Y-78327866D02*
X213193238Y-78089771D01*
X213193238Y-78089771D02*
X213240857Y-77899295D01*
X213240857Y-77899295D02*
X213288476Y-77804057D01*
X213288476Y-77804057D02*
X213336095Y-77756438D01*
X213336095Y-77756438D02*
X213431333Y-77708819D01*
X214717047Y-78708819D02*
X214145619Y-78708819D01*
X214431333Y-78708819D02*
X214431333Y-77708819D01*
X214431333Y-77708819D02*
X214336095Y-77851676D01*
X214336095Y-77851676D02*
X214240857Y-77946914D01*
X214240857Y-77946914D02*
X214145619Y-77994533D01*
X105114785Y-79005009D02*
X104781452Y-79005009D01*
X104781452Y-79528819D02*
X104781452Y-78528819D01*
X104781452Y-78528819D02*
X105257642Y-78528819D01*
X106067166Y-78862152D02*
X106067166Y-79528819D01*
X105829071Y-78481200D02*
X105590976Y-79195485D01*
X105590976Y-79195485D02*
X106210023Y-79195485D01*
X106781452Y-78528819D02*
X106876690Y-78528819D01*
X106876690Y-78528819D02*
X106971928Y-78576438D01*
X106971928Y-78576438D02*
X107019547Y-78624057D01*
X107019547Y-78624057D02*
X107067166Y-78719295D01*
X107067166Y-78719295D02*
X107114785Y-78909771D01*
X107114785Y-78909771D02*
X107114785Y-79147866D01*
X107114785Y-79147866D02*
X107067166Y-79338342D01*
X107067166Y-79338342D02*
X107019547Y-79433580D01*
X107019547Y-79433580D02*
X106971928Y-79481200D01*
X106971928Y-79481200D02*
X106876690Y-79528819D01*
X106876690Y-79528819D02*
X106781452Y-79528819D01*
X106781452Y-79528819D02*
X106686214Y-79481200D01*
X106686214Y-79481200D02*
X106638595Y-79433580D01*
X106638595Y-79433580D02*
X106590976Y-79338342D01*
X106590976Y-79338342D02*
X106543357Y-79147866D01*
X106543357Y-79147866D02*
X106543357Y-78909771D01*
X106543357Y-78909771D02*
X106590976Y-78719295D01*
X106590976Y-78719295D02*
X106638595Y-78624057D01*
X106638595Y-78624057D02*
X106686214Y-78576438D01*
X106686214Y-78576438D02*
X106781452Y-78528819D01*
X108067166Y-79528819D02*
X107495738Y-79528819D01*
X107781452Y-79528819D02*
X107781452Y-78528819D01*
X107781452Y-78528819D02*
X107686214Y-78671676D01*
X107686214Y-78671676D02*
X107590976Y-78766914D01*
X107590976Y-78766914D02*
X107495738Y-78814533D01*
X96416952Y-76720819D02*
X96083619Y-76244628D01*
X95845524Y-76720819D02*
X95845524Y-75720819D01*
X95845524Y-75720819D02*
X96226476Y-75720819D01*
X96226476Y-75720819D02*
X96321714Y-75768438D01*
X96321714Y-75768438D02*
X96369333Y-75816057D01*
X96369333Y-75816057D02*
X96416952Y-75911295D01*
X96416952Y-75911295D02*
X96416952Y-76054152D01*
X96416952Y-76054152D02*
X96369333Y-76149390D01*
X96369333Y-76149390D02*
X96321714Y-76197009D01*
X96321714Y-76197009D02*
X96226476Y-76244628D01*
X96226476Y-76244628D02*
X95845524Y-76244628D01*
X97274095Y-76054152D02*
X97274095Y-76720819D01*
X97036000Y-75673200D02*
X96797905Y-76387485D01*
X96797905Y-76387485D02*
X97416952Y-76387485D01*
X97988381Y-75720819D02*
X98083619Y-75720819D01*
X98083619Y-75720819D02*
X98178857Y-75768438D01*
X98178857Y-75768438D02*
X98226476Y-75816057D01*
X98226476Y-75816057D02*
X98274095Y-75911295D01*
X98274095Y-75911295D02*
X98321714Y-76101771D01*
X98321714Y-76101771D02*
X98321714Y-76339866D01*
X98321714Y-76339866D02*
X98274095Y-76530342D01*
X98274095Y-76530342D02*
X98226476Y-76625580D01*
X98226476Y-76625580D02*
X98178857Y-76673200D01*
X98178857Y-76673200D02*
X98083619Y-76720819D01*
X98083619Y-76720819D02*
X97988381Y-76720819D01*
X97988381Y-76720819D02*
X97893143Y-76673200D01*
X97893143Y-76673200D02*
X97845524Y-76625580D01*
X97845524Y-76625580D02*
X97797905Y-76530342D01*
X97797905Y-76530342D02*
X97750286Y-76339866D01*
X97750286Y-76339866D02*
X97750286Y-76101771D01*
X97750286Y-76101771D02*
X97797905Y-75911295D01*
X97797905Y-75911295D02*
X97845524Y-75816057D01*
X97845524Y-75816057D02*
X97893143Y-75768438D01*
X97893143Y-75768438D02*
X97988381Y-75720819D01*
X99274095Y-76720819D02*
X98702667Y-76720819D01*
X98988381Y-76720819D02*
X98988381Y-75720819D01*
X98988381Y-75720819D02*
X98893143Y-75863676D01*
X98893143Y-75863676D02*
X98797905Y-75958914D01*
X98797905Y-75958914D02*
X98702667Y-76006533D01*
X157066819Y-78930285D02*
X157876342Y-78930285D01*
X157876342Y-78930285D02*
X157971580Y-78882666D01*
X157971580Y-78882666D02*
X158019200Y-78835047D01*
X158019200Y-78835047D02*
X158066819Y-78739809D01*
X158066819Y-78739809D02*
X158066819Y-78549333D01*
X158066819Y-78549333D02*
X158019200Y-78454095D01*
X158019200Y-78454095D02*
X157971580Y-78406476D01*
X157971580Y-78406476D02*
X157876342Y-78358857D01*
X157876342Y-78358857D02*
X157066819Y-78358857D01*
X157066819Y-77406476D02*
X157066819Y-77882666D01*
X157066819Y-77882666D02*
X157543009Y-77930285D01*
X157543009Y-77930285D02*
X157495390Y-77882666D01*
X157495390Y-77882666D02*
X157447771Y-77787428D01*
X157447771Y-77787428D02*
X157447771Y-77549333D01*
X157447771Y-77549333D02*
X157495390Y-77454095D01*
X157495390Y-77454095D02*
X157543009Y-77406476D01*
X157543009Y-77406476D02*
X157638247Y-77358857D01*
X157638247Y-77358857D02*
X157876342Y-77358857D01*
X157876342Y-77358857D02*
X157971580Y-77406476D01*
X157971580Y-77406476D02*
X158019200Y-77454095D01*
X158019200Y-77454095D02*
X158066819Y-77549333D01*
X158066819Y-77549333D02*
X158066819Y-77787428D01*
X158066819Y-77787428D02*
X158019200Y-77882666D01*
X158019200Y-77882666D02*
X157971580Y-77930285D01*
X157066819Y-76739809D02*
X157066819Y-76644571D01*
X157066819Y-76644571D02*
X157114438Y-76549333D01*
X157114438Y-76549333D02*
X157162057Y-76501714D01*
X157162057Y-76501714D02*
X157257295Y-76454095D01*
X157257295Y-76454095D02*
X157447771Y-76406476D01*
X157447771Y-76406476D02*
X157685866Y-76406476D01*
X157685866Y-76406476D02*
X157876342Y-76454095D01*
X157876342Y-76454095D02*
X157971580Y-76501714D01*
X157971580Y-76501714D02*
X158019200Y-76549333D01*
X158019200Y-76549333D02*
X158066819Y-76644571D01*
X158066819Y-76644571D02*
X158066819Y-76739809D01*
X158066819Y-76739809D02*
X158019200Y-76835047D01*
X158019200Y-76835047D02*
X157971580Y-76882666D01*
X157971580Y-76882666D02*
X157876342Y-76930285D01*
X157876342Y-76930285D02*
X157685866Y-76977904D01*
X157685866Y-76977904D02*
X157447771Y-76977904D01*
X157447771Y-76977904D02*
X157257295Y-76930285D01*
X157257295Y-76930285D02*
X157162057Y-76882666D01*
X157162057Y-76882666D02*
X157114438Y-76835047D01*
X157114438Y-76835047D02*
X157066819Y-76739809D01*
X157162057Y-76025523D02*
X157114438Y-75977904D01*
X157114438Y-75977904D02*
X157066819Y-75882666D01*
X157066819Y-75882666D02*
X157066819Y-75644571D01*
X157066819Y-75644571D02*
X157114438Y-75549333D01*
X157114438Y-75549333D02*
X157162057Y-75501714D01*
X157162057Y-75501714D02*
X157257295Y-75454095D01*
X157257295Y-75454095D02*
X157352533Y-75454095D01*
X157352533Y-75454095D02*
X157495390Y-75501714D01*
X157495390Y-75501714D02*
X158066819Y-76073142D01*
X158066819Y-76073142D02*
X158066819Y-75454095D01*
D11*
X156418939Y-84052907D02*
X156028463Y-84326240D01*
X156418939Y-84521478D02*
X155598939Y-84521478D01*
X155598939Y-84521478D02*
X155598939Y-84209097D01*
X155598939Y-84209097D02*
X155637987Y-84131002D01*
X155637987Y-84131002D02*
X155677034Y-84091955D01*
X155677034Y-84091955D02*
X155755130Y-84052907D01*
X155755130Y-84052907D02*
X155872272Y-84052907D01*
X155872272Y-84052907D02*
X155950368Y-84091955D01*
X155950368Y-84091955D02*
X155989415Y-84131002D01*
X155989415Y-84131002D02*
X156028463Y-84209097D01*
X156028463Y-84209097D02*
X156028463Y-84521478D01*
X155598939Y-83311002D02*
X155598939Y-83701478D01*
X155598939Y-83701478D02*
X155989415Y-83740526D01*
X155989415Y-83740526D02*
X155950368Y-83701478D01*
X155950368Y-83701478D02*
X155911320Y-83623383D01*
X155911320Y-83623383D02*
X155911320Y-83428145D01*
X155911320Y-83428145D02*
X155950368Y-83350050D01*
X155950368Y-83350050D02*
X155989415Y-83311002D01*
X155989415Y-83311002D02*
X156067511Y-83271955D01*
X156067511Y-83271955D02*
X156262749Y-83271955D01*
X156262749Y-83271955D02*
X156340844Y-83311002D01*
X156340844Y-83311002D02*
X156379892Y-83350050D01*
X156379892Y-83350050D02*
X156418939Y-83428145D01*
X156418939Y-83428145D02*
X156418939Y-83623383D01*
X156418939Y-83623383D02*
X156379892Y-83701478D01*
X156379892Y-83701478D02*
X156340844Y-83740526D01*
X155598939Y-82764336D02*
X155598939Y-82686241D01*
X155598939Y-82686241D02*
X155637987Y-82608145D01*
X155637987Y-82608145D02*
X155677034Y-82569098D01*
X155677034Y-82569098D02*
X155755130Y-82530050D01*
X155755130Y-82530050D02*
X155911320Y-82491003D01*
X155911320Y-82491003D02*
X156106558Y-82491003D01*
X156106558Y-82491003D02*
X156262749Y-82530050D01*
X156262749Y-82530050D02*
X156340844Y-82569098D01*
X156340844Y-82569098D02*
X156379892Y-82608145D01*
X156379892Y-82608145D02*
X156418939Y-82686241D01*
X156418939Y-82686241D02*
X156418939Y-82764336D01*
X156418939Y-82764336D02*
X156379892Y-82842431D01*
X156379892Y-82842431D02*
X156340844Y-82881479D01*
X156340844Y-82881479D02*
X156262749Y-82920526D01*
X156262749Y-82920526D02*
X156106558Y-82959574D01*
X156106558Y-82959574D02*
X155911320Y-82959574D01*
X155911320Y-82959574D02*
X155755130Y-82920526D01*
X155755130Y-82920526D02*
X155677034Y-82881479D01*
X155677034Y-82881479D02*
X155637987Y-82842431D01*
X155637987Y-82842431D02*
X155598939Y-82764336D01*
X155677034Y-82178622D02*
X155637987Y-82139574D01*
X155637987Y-82139574D02*
X155598939Y-82061479D01*
X155598939Y-82061479D02*
X155598939Y-81866241D01*
X155598939Y-81866241D02*
X155637987Y-81788146D01*
X155637987Y-81788146D02*
X155677034Y-81749098D01*
X155677034Y-81749098D02*
X155755130Y-81710051D01*
X155755130Y-81710051D02*
X155833225Y-81710051D01*
X155833225Y-81710051D02*
X155950368Y-81749098D01*
X155950368Y-81749098D02*
X156418939Y-82217670D01*
X156418939Y-82217670D02*
X156418939Y-81710051D01*
D10*
X150486819Y-78930285D02*
X151296342Y-78930285D01*
X151296342Y-78930285D02*
X151391580Y-78882666D01*
X151391580Y-78882666D02*
X151439200Y-78835047D01*
X151439200Y-78835047D02*
X151486819Y-78739809D01*
X151486819Y-78739809D02*
X151486819Y-78549333D01*
X151486819Y-78549333D02*
X151439200Y-78454095D01*
X151439200Y-78454095D02*
X151391580Y-78406476D01*
X151391580Y-78406476D02*
X151296342Y-78358857D01*
X151296342Y-78358857D02*
X150486819Y-78358857D01*
X150486819Y-77406476D02*
X150486819Y-77882666D01*
X150486819Y-77882666D02*
X150963009Y-77930285D01*
X150963009Y-77930285D02*
X150915390Y-77882666D01*
X150915390Y-77882666D02*
X150867771Y-77787428D01*
X150867771Y-77787428D02*
X150867771Y-77549333D01*
X150867771Y-77549333D02*
X150915390Y-77454095D01*
X150915390Y-77454095D02*
X150963009Y-77406476D01*
X150963009Y-77406476D02*
X151058247Y-77358857D01*
X151058247Y-77358857D02*
X151296342Y-77358857D01*
X151296342Y-77358857D02*
X151391580Y-77406476D01*
X151391580Y-77406476D02*
X151439200Y-77454095D01*
X151439200Y-77454095D02*
X151486819Y-77549333D01*
X151486819Y-77549333D02*
X151486819Y-77787428D01*
X151486819Y-77787428D02*
X151439200Y-77882666D01*
X151439200Y-77882666D02*
X151391580Y-77930285D01*
X150486819Y-76739809D02*
X150486819Y-76644571D01*
X150486819Y-76644571D02*
X150534438Y-76549333D01*
X150534438Y-76549333D02*
X150582057Y-76501714D01*
X150582057Y-76501714D02*
X150677295Y-76454095D01*
X150677295Y-76454095D02*
X150867771Y-76406476D01*
X150867771Y-76406476D02*
X151105866Y-76406476D01*
X151105866Y-76406476D02*
X151296342Y-76454095D01*
X151296342Y-76454095D02*
X151391580Y-76501714D01*
X151391580Y-76501714D02*
X151439200Y-76549333D01*
X151439200Y-76549333D02*
X151486819Y-76644571D01*
X151486819Y-76644571D02*
X151486819Y-76739809D01*
X151486819Y-76739809D02*
X151439200Y-76835047D01*
X151439200Y-76835047D02*
X151391580Y-76882666D01*
X151391580Y-76882666D02*
X151296342Y-76930285D01*
X151296342Y-76930285D02*
X151105866Y-76977904D01*
X151105866Y-76977904D02*
X150867771Y-76977904D01*
X150867771Y-76977904D02*
X150677295Y-76930285D01*
X150677295Y-76930285D02*
X150582057Y-76882666D01*
X150582057Y-76882666D02*
X150534438Y-76835047D01*
X150534438Y-76835047D02*
X150486819Y-76739809D01*
X151486819Y-75454095D02*
X151486819Y-76025523D01*
X151486819Y-75739809D02*
X150486819Y-75739809D01*
X150486819Y-75739809D02*
X150629676Y-75835047D01*
X150629676Y-75835047D02*
X150724914Y-75930285D01*
X150724914Y-75930285D02*
X150772533Y-76025523D01*
X187768352Y-69998780D02*
X187720733Y-70046400D01*
X187720733Y-70046400D02*
X187577876Y-70094019D01*
X187577876Y-70094019D02*
X187482638Y-70094019D01*
X187482638Y-70094019D02*
X187339781Y-70046400D01*
X187339781Y-70046400D02*
X187244543Y-69951161D01*
X187244543Y-69951161D02*
X187196924Y-69855923D01*
X187196924Y-69855923D02*
X187149305Y-69665447D01*
X187149305Y-69665447D02*
X187149305Y-69522590D01*
X187149305Y-69522590D02*
X187196924Y-69332114D01*
X187196924Y-69332114D02*
X187244543Y-69236876D01*
X187244543Y-69236876D02*
X187339781Y-69141638D01*
X187339781Y-69141638D02*
X187482638Y-69094019D01*
X187482638Y-69094019D02*
X187577876Y-69094019D01*
X187577876Y-69094019D02*
X187720733Y-69141638D01*
X187720733Y-69141638D02*
X187768352Y-69189257D01*
X188625495Y-69094019D02*
X188435019Y-69094019D01*
X188435019Y-69094019D02*
X188339781Y-69141638D01*
X188339781Y-69141638D02*
X188292162Y-69189257D01*
X188292162Y-69189257D02*
X188196924Y-69332114D01*
X188196924Y-69332114D02*
X188149305Y-69522590D01*
X188149305Y-69522590D02*
X188149305Y-69903542D01*
X188149305Y-69903542D02*
X188196924Y-69998780D01*
X188196924Y-69998780D02*
X188244543Y-70046400D01*
X188244543Y-70046400D02*
X188339781Y-70094019D01*
X188339781Y-70094019D02*
X188530257Y-70094019D01*
X188530257Y-70094019D02*
X188625495Y-70046400D01*
X188625495Y-70046400D02*
X188673114Y-69998780D01*
X188673114Y-69998780D02*
X188720733Y-69903542D01*
X188720733Y-69903542D02*
X188720733Y-69665447D01*
X188720733Y-69665447D02*
X188673114Y-69570209D01*
X188673114Y-69570209D02*
X188625495Y-69522590D01*
X188625495Y-69522590D02*
X188530257Y-69474971D01*
X188530257Y-69474971D02*
X188339781Y-69474971D01*
X188339781Y-69474971D02*
X188244543Y-69522590D01*
X188244543Y-69522590D02*
X188196924Y-69570209D01*
X188196924Y-69570209D02*
X188149305Y-69665447D01*
X189339781Y-69094019D02*
X189435019Y-69094019D01*
X189435019Y-69094019D02*
X189530257Y-69141638D01*
X189530257Y-69141638D02*
X189577876Y-69189257D01*
X189577876Y-69189257D02*
X189625495Y-69284495D01*
X189625495Y-69284495D02*
X189673114Y-69474971D01*
X189673114Y-69474971D02*
X189673114Y-69713066D01*
X189673114Y-69713066D02*
X189625495Y-69903542D01*
X189625495Y-69903542D02*
X189577876Y-69998780D01*
X189577876Y-69998780D02*
X189530257Y-70046400D01*
X189530257Y-70046400D02*
X189435019Y-70094019D01*
X189435019Y-70094019D02*
X189339781Y-70094019D01*
X189339781Y-70094019D02*
X189244543Y-70046400D01*
X189244543Y-70046400D02*
X189196924Y-69998780D01*
X189196924Y-69998780D02*
X189149305Y-69903542D01*
X189149305Y-69903542D02*
X189101686Y-69713066D01*
X189101686Y-69713066D02*
X189101686Y-69474971D01*
X189101686Y-69474971D02*
X189149305Y-69284495D01*
X189149305Y-69284495D02*
X189196924Y-69189257D01*
X189196924Y-69189257D02*
X189244543Y-69141638D01*
X189244543Y-69141638D02*
X189339781Y-69094019D01*
X190054067Y-69189257D02*
X190101686Y-69141638D01*
X190101686Y-69141638D02*
X190196924Y-69094019D01*
X190196924Y-69094019D02*
X190435019Y-69094019D01*
X190435019Y-69094019D02*
X190530257Y-69141638D01*
X190530257Y-69141638D02*
X190577876Y-69189257D01*
X190577876Y-69189257D02*
X190625495Y-69284495D01*
X190625495Y-69284495D02*
X190625495Y-69379733D01*
X190625495Y-69379733D02*
X190577876Y-69522590D01*
X190577876Y-69522590D02*
X190006448Y-70094019D01*
X190006448Y-70094019D02*
X190625495Y-70094019D01*
D11*
X103071985Y-126725907D02*
X102681509Y-126999240D01*
X103071985Y-127194478D02*
X102251985Y-127194478D01*
X102251985Y-127194478D02*
X102251985Y-126882097D01*
X102251985Y-126882097D02*
X102291033Y-126804002D01*
X102291033Y-126804002D02*
X102330080Y-126764955D01*
X102330080Y-126764955D02*
X102408176Y-126725907D01*
X102408176Y-126725907D02*
X102525318Y-126725907D01*
X102525318Y-126725907D02*
X102603414Y-126764955D01*
X102603414Y-126764955D02*
X102642461Y-126804002D01*
X102642461Y-126804002D02*
X102681509Y-126882097D01*
X102681509Y-126882097D02*
X102681509Y-127194478D01*
X102525318Y-126023050D02*
X103071985Y-126023050D01*
X102212938Y-126218288D02*
X102798652Y-126413526D01*
X102798652Y-126413526D02*
X102798652Y-125905907D01*
X102251985Y-125437336D02*
X102251985Y-125359241D01*
X102251985Y-125359241D02*
X102291033Y-125281145D01*
X102291033Y-125281145D02*
X102330080Y-125242098D01*
X102330080Y-125242098D02*
X102408176Y-125203050D01*
X102408176Y-125203050D02*
X102564366Y-125164003D01*
X102564366Y-125164003D02*
X102759604Y-125164003D01*
X102759604Y-125164003D02*
X102915795Y-125203050D01*
X102915795Y-125203050D02*
X102993890Y-125242098D01*
X102993890Y-125242098D02*
X103032938Y-125281145D01*
X103032938Y-125281145D02*
X103071985Y-125359241D01*
X103071985Y-125359241D02*
X103071985Y-125437336D01*
X103071985Y-125437336D02*
X103032938Y-125515431D01*
X103032938Y-125515431D02*
X102993890Y-125554479D01*
X102993890Y-125554479D02*
X102915795Y-125593526D01*
X102915795Y-125593526D02*
X102759604Y-125632574D01*
X102759604Y-125632574D02*
X102564366Y-125632574D01*
X102564366Y-125632574D02*
X102408176Y-125593526D01*
X102408176Y-125593526D02*
X102330080Y-125554479D01*
X102330080Y-125554479D02*
X102291033Y-125515431D01*
X102291033Y-125515431D02*
X102251985Y-125437336D01*
X102525318Y-124461146D02*
X103071985Y-124461146D01*
X102212938Y-124656384D02*
X102798652Y-124851622D01*
X102798652Y-124851622D02*
X102798652Y-124344003D01*
D12*
X151782743Y-147284118D02*
X151782743Y-148191261D01*
X151782743Y-148191261D02*
X151722266Y-148372689D01*
X151722266Y-148372689D02*
X151601314Y-148493642D01*
X151601314Y-148493642D02*
X151419885Y-148554118D01*
X151419885Y-148554118D02*
X151298933Y-148554118D01*
X152327028Y-147405070D02*
X152387504Y-147344594D01*
X152387504Y-147344594D02*
X152508457Y-147284118D01*
X152508457Y-147284118D02*
X152810838Y-147284118D01*
X152810838Y-147284118D02*
X152931790Y-147344594D01*
X152931790Y-147344594D02*
X152992266Y-147405070D01*
X152992266Y-147405070D02*
X153052743Y-147526022D01*
X153052743Y-147526022D02*
X153052743Y-147646975D01*
X153052743Y-147646975D02*
X152992266Y-147828403D01*
X152992266Y-147828403D02*
X152266552Y-148554118D01*
X152266552Y-148554118D02*
X153052743Y-148554118D01*
X153838933Y-147284118D02*
X153959886Y-147284118D01*
X153959886Y-147284118D02*
X154080838Y-147344594D01*
X154080838Y-147344594D02*
X154141314Y-147405070D01*
X154141314Y-147405070D02*
X154201790Y-147526022D01*
X154201790Y-147526022D02*
X154262267Y-147767927D01*
X154262267Y-147767927D02*
X154262267Y-148070308D01*
X154262267Y-148070308D02*
X154201790Y-148312213D01*
X154201790Y-148312213D02*
X154141314Y-148433165D01*
X154141314Y-148433165D02*
X154080838Y-148493642D01*
X154080838Y-148493642D02*
X153959886Y-148554118D01*
X153959886Y-148554118D02*
X153838933Y-148554118D01*
X153838933Y-148554118D02*
X153717981Y-148493642D01*
X153717981Y-148493642D02*
X153657505Y-148433165D01*
X153657505Y-148433165D02*
X153597028Y-148312213D01*
X153597028Y-148312213D02*
X153536552Y-148070308D01*
X153536552Y-148070308D02*
X153536552Y-147767927D01*
X153536552Y-147767927D02*
X153597028Y-147526022D01*
X153597028Y-147526022D02*
X153657505Y-147405070D01*
X153657505Y-147405070D02*
X153717981Y-147344594D01*
X153717981Y-147344594D02*
X153838933Y-147284118D01*
X154685600Y-147284118D02*
X155471791Y-147284118D01*
X155471791Y-147284118D02*
X155048457Y-147767927D01*
X155048457Y-147767927D02*
X155229886Y-147767927D01*
X155229886Y-147767927D02*
X155350838Y-147828403D01*
X155350838Y-147828403D02*
X155411314Y-147888880D01*
X155411314Y-147888880D02*
X155471791Y-148009832D01*
X155471791Y-148009832D02*
X155471791Y-148312213D01*
X155471791Y-148312213D02*
X155411314Y-148433165D01*
X155411314Y-148433165D02*
X155350838Y-148493642D01*
X155350838Y-148493642D02*
X155229886Y-148554118D01*
X155229886Y-148554118D02*
X154867029Y-148554118D01*
X154867029Y-148554118D02*
X154746076Y-148493642D01*
X154746076Y-148493642D02*
X154685600Y-148433165D01*
D10*
X96416952Y-106720819D02*
X96083619Y-106244628D01*
X95845524Y-106720819D02*
X95845524Y-105720819D01*
X95845524Y-105720819D02*
X96226476Y-105720819D01*
X96226476Y-105720819D02*
X96321714Y-105768438D01*
X96321714Y-105768438D02*
X96369333Y-105816057D01*
X96369333Y-105816057D02*
X96416952Y-105911295D01*
X96416952Y-105911295D02*
X96416952Y-106054152D01*
X96416952Y-106054152D02*
X96369333Y-106149390D01*
X96369333Y-106149390D02*
X96321714Y-106197009D01*
X96321714Y-106197009D02*
X96226476Y-106244628D01*
X96226476Y-106244628D02*
X95845524Y-106244628D01*
X97274095Y-106054152D02*
X97274095Y-106720819D01*
X97036000Y-105673200D02*
X96797905Y-106387485D01*
X96797905Y-106387485D02*
X97416952Y-106387485D01*
X97988381Y-105720819D02*
X98083619Y-105720819D01*
X98083619Y-105720819D02*
X98178857Y-105768438D01*
X98178857Y-105768438D02*
X98226476Y-105816057D01*
X98226476Y-105816057D02*
X98274095Y-105911295D01*
X98274095Y-105911295D02*
X98321714Y-106101771D01*
X98321714Y-106101771D02*
X98321714Y-106339866D01*
X98321714Y-106339866D02*
X98274095Y-106530342D01*
X98274095Y-106530342D02*
X98226476Y-106625580D01*
X98226476Y-106625580D02*
X98178857Y-106673200D01*
X98178857Y-106673200D02*
X98083619Y-106720819D01*
X98083619Y-106720819D02*
X97988381Y-106720819D01*
X97988381Y-106720819D02*
X97893143Y-106673200D01*
X97893143Y-106673200D02*
X97845524Y-106625580D01*
X97845524Y-106625580D02*
X97797905Y-106530342D01*
X97797905Y-106530342D02*
X97750286Y-106339866D01*
X97750286Y-106339866D02*
X97750286Y-106101771D01*
X97750286Y-106101771D02*
X97797905Y-105911295D01*
X97797905Y-105911295D02*
X97845524Y-105816057D01*
X97845524Y-105816057D02*
X97893143Y-105768438D01*
X97893143Y-105768438D02*
X97988381Y-105720819D01*
X98655048Y-105720819D02*
X99321714Y-105720819D01*
X99321714Y-105720819D02*
X98893143Y-106720819D01*
D11*
X215769326Y-99908733D02*
X214969326Y-99908733D01*
X214969326Y-99908733D02*
X214969326Y-99718257D01*
X214969326Y-99718257D02*
X215007421Y-99603971D01*
X215007421Y-99603971D02*
X215083611Y-99527781D01*
X215083611Y-99527781D02*
X215159802Y-99489686D01*
X215159802Y-99489686D02*
X215312183Y-99451590D01*
X215312183Y-99451590D02*
X215426469Y-99451590D01*
X215426469Y-99451590D02*
X215578850Y-99489686D01*
X215578850Y-99489686D02*
X215655040Y-99527781D01*
X215655040Y-99527781D02*
X215731231Y-99603971D01*
X215731231Y-99603971D02*
X215769326Y-99718257D01*
X215769326Y-99718257D02*
X215769326Y-99908733D01*
X214969326Y-99184924D02*
X214969326Y-98689686D01*
X214969326Y-98689686D02*
X215274088Y-98956352D01*
X215274088Y-98956352D02*
X215274088Y-98842067D01*
X215274088Y-98842067D02*
X215312183Y-98765876D01*
X215312183Y-98765876D02*
X215350278Y-98727781D01*
X215350278Y-98727781D02*
X215426469Y-98689686D01*
X215426469Y-98689686D02*
X215616945Y-98689686D01*
X215616945Y-98689686D02*
X215693135Y-98727781D01*
X215693135Y-98727781D02*
X215731231Y-98765876D01*
X215731231Y-98765876D02*
X215769326Y-98842067D01*
X215769326Y-98842067D02*
X215769326Y-99070638D01*
X215769326Y-99070638D02*
X215731231Y-99146829D01*
X215731231Y-99146829D02*
X215693135Y-99184924D01*
X214969326Y-98194447D02*
X214969326Y-98118257D01*
X214969326Y-98118257D02*
X215007421Y-98042066D01*
X215007421Y-98042066D02*
X215045516Y-98003971D01*
X215045516Y-98003971D02*
X215121707Y-97965876D01*
X215121707Y-97965876D02*
X215274088Y-97927781D01*
X215274088Y-97927781D02*
X215464564Y-97927781D01*
X215464564Y-97927781D02*
X215616945Y-97965876D01*
X215616945Y-97965876D02*
X215693135Y-98003971D01*
X215693135Y-98003971D02*
X215731231Y-98042066D01*
X215731231Y-98042066D02*
X215769326Y-98118257D01*
X215769326Y-98118257D02*
X215769326Y-98194447D01*
X215769326Y-98194447D02*
X215731231Y-98270638D01*
X215731231Y-98270638D02*
X215693135Y-98308733D01*
X215693135Y-98308733D02*
X215616945Y-98346828D01*
X215616945Y-98346828D02*
X215464564Y-98384924D01*
X215464564Y-98384924D02*
X215274088Y-98384924D01*
X215274088Y-98384924D02*
X215121707Y-98346828D01*
X215121707Y-98346828D02*
X215045516Y-98308733D01*
X215045516Y-98308733D02*
X215007421Y-98270638D01*
X215007421Y-98270638D02*
X214969326Y-98194447D01*
X215769326Y-97165876D02*
X215769326Y-97623019D01*
X215769326Y-97394447D02*
X214969326Y-97394447D01*
X214969326Y-97394447D02*
X215083611Y-97470638D01*
X215083611Y-97470638D02*
X215159802Y-97546828D01*
X215159802Y-97546828D02*
X215197897Y-97623019D01*
D10*
X93684380Y-85554057D02*
X93589142Y-85506438D01*
X93589142Y-85506438D02*
X93493904Y-85411200D01*
X93493904Y-85411200D02*
X93351047Y-85268342D01*
X93351047Y-85268342D02*
X93255809Y-85220723D01*
X93255809Y-85220723D02*
X93160571Y-85220723D01*
X93208190Y-85458819D02*
X93112952Y-85411200D01*
X93112952Y-85411200D02*
X93017714Y-85315961D01*
X93017714Y-85315961D02*
X92970095Y-85125485D01*
X92970095Y-85125485D02*
X92970095Y-84792152D01*
X92970095Y-84792152D02*
X93017714Y-84601676D01*
X93017714Y-84601676D02*
X93112952Y-84506438D01*
X93112952Y-84506438D02*
X93208190Y-84458819D01*
X93208190Y-84458819D02*
X93398666Y-84458819D01*
X93398666Y-84458819D02*
X93493904Y-84506438D01*
X93493904Y-84506438D02*
X93589142Y-84601676D01*
X93589142Y-84601676D02*
X93636761Y-84792152D01*
X93636761Y-84792152D02*
X93636761Y-85125485D01*
X93636761Y-85125485D02*
X93589142Y-85315961D01*
X93589142Y-85315961D02*
X93493904Y-85411200D01*
X93493904Y-85411200D02*
X93398666Y-85458819D01*
X93398666Y-85458819D02*
X93208190Y-85458819D01*
X94493904Y-84792152D02*
X94493904Y-85458819D01*
X94255809Y-84411200D02*
X94017714Y-85125485D01*
X94017714Y-85125485D02*
X94636761Y-85125485D01*
X95208190Y-84458819D02*
X95303428Y-84458819D01*
X95303428Y-84458819D02*
X95398666Y-84506438D01*
X95398666Y-84506438D02*
X95446285Y-84554057D01*
X95446285Y-84554057D02*
X95493904Y-84649295D01*
X95493904Y-84649295D02*
X95541523Y-84839771D01*
X95541523Y-84839771D02*
X95541523Y-85077866D01*
X95541523Y-85077866D02*
X95493904Y-85268342D01*
X95493904Y-85268342D02*
X95446285Y-85363580D01*
X95446285Y-85363580D02*
X95398666Y-85411200D01*
X95398666Y-85411200D02*
X95303428Y-85458819D01*
X95303428Y-85458819D02*
X95208190Y-85458819D01*
X95208190Y-85458819D02*
X95112952Y-85411200D01*
X95112952Y-85411200D02*
X95065333Y-85363580D01*
X95065333Y-85363580D02*
X95017714Y-85268342D01*
X95017714Y-85268342D02*
X94970095Y-85077866D01*
X94970095Y-85077866D02*
X94970095Y-84839771D01*
X94970095Y-84839771D02*
X95017714Y-84649295D01*
X95017714Y-84649295D02*
X95065333Y-84554057D01*
X95065333Y-84554057D02*
X95112952Y-84506438D01*
X95112952Y-84506438D02*
X95208190Y-84458819D01*
X95922476Y-84554057D02*
X95970095Y-84506438D01*
X95970095Y-84506438D02*
X96065333Y-84458819D01*
X96065333Y-84458819D02*
X96303428Y-84458819D01*
X96303428Y-84458819D02*
X96398666Y-84506438D01*
X96398666Y-84506438D02*
X96446285Y-84554057D01*
X96446285Y-84554057D02*
X96493904Y-84649295D01*
X96493904Y-84649295D02*
X96493904Y-84744533D01*
X96493904Y-84744533D02*
X96446285Y-84887390D01*
X96446285Y-84887390D02*
X95874857Y-85458819D01*
X95874857Y-85458819D02*
X96493904Y-85458819D01*
D11*
X154469893Y-84052907D02*
X154079417Y-84326240D01*
X154469893Y-84521478D02*
X153649893Y-84521478D01*
X153649893Y-84521478D02*
X153649893Y-84209097D01*
X153649893Y-84209097D02*
X153688941Y-84131002D01*
X153688941Y-84131002D02*
X153727988Y-84091955D01*
X153727988Y-84091955D02*
X153806084Y-84052907D01*
X153806084Y-84052907D02*
X153923226Y-84052907D01*
X153923226Y-84052907D02*
X154001322Y-84091955D01*
X154001322Y-84091955D02*
X154040369Y-84131002D01*
X154040369Y-84131002D02*
X154079417Y-84209097D01*
X154079417Y-84209097D02*
X154079417Y-84521478D01*
X153649893Y-83311002D02*
X153649893Y-83701478D01*
X153649893Y-83701478D02*
X154040369Y-83740526D01*
X154040369Y-83740526D02*
X154001322Y-83701478D01*
X154001322Y-83701478D02*
X153962274Y-83623383D01*
X153962274Y-83623383D02*
X153962274Y-83428145D01*
X153962274Y-83428145D02*
X154001322Y-83350050D01*
X154001322Y-83350050D02*
X154040369Y-83311002D01*
X154040369Y-83311002D02*
X154118465Y-83271955D01*
X154118465Y-83271955D02*
X154313703Y-83271955D01*
X154313703Y-83271955D02*
X154391798Y-83311002D01*
X154391798Y-83311002D02*
X154430846Y-83350050D01*
X154430846Y-83350050D02*
X154469893Y-83428145D01*
X154469893Y-83428145D02*
X154469893Y-83623383D01*
X154469893Y-83623383D02*
X154430846Y-83701478D01*
X154430846Y-83701478D02*
X154391798Y-83740526D01*
X153649893Y-82764336D02*
X153649893Y-82686241D01*
X153649893Y-82686241D02*
X153688941Y-82608145D01*
X153688941Y-82608145D02*
X153727988Y-82569098D01*
X153727988Y-82569098D02*
X153806084Y-82530050D01*
X153806084Y-82530050D02*
X153962274Y-82491003D01*
X153962274Y-82491003D02*
X154157512Y-82491003D01*
X154157512Y-82491003D02*
X154313703Y-82530050D01*
X154313703Y-82530050D02*
X154391798Y-82569098D01*
X154391798Y-82569098D02*
X154430846Y-82608145D01*
X154430846Y-82608145D02*
X154469893Y-82686241D01*
X154469893Y-82686241D02*
X154469893Y-82764336D01*
X154469893Y-82764336D02*
X154430846Y-82842431D01*
X154430846Y-82842431D02*
X154391798Y-82881479D01*
X154391798Y-82881479D02*
X154313703Y-82920526D01*
X154313703Y-82920526D02*
X154157512Y-82959574D01*
X154157512Y-82959574D02*
X153962274Y-82959574D01*
X153962274Y-82959574D02*
X153806084Y-82920526D01*
X153806084Y-82920526D02*
X153727988Y-82881479D01*
X153727988Y-82881479D02*
X153688941Y-82842431D01*
X153688941Y-82842431D02*
X153649893Y-82764336D01*
X154469893Y-81710051D02*
X154469893Y-82178622D01*
X154469893Y-81944336D02*
X153649893Y-81944336D01*
X153649893Y-81944336D02*
X153767036Y-82022432D01*
X153767036Y-82022432D02*
X153845131Y-82100527D01*
X153845131Y-82100527D02*
X153884179Y-82178622D01*
D10*
X195172152Y-74164380D02*
X195124533Y-74212000D01*
X195124533Y-74212000D02*
X194981676Y-74259619D01*
X194981676Y-74259619D02*
X194886438Y-74259619D01*
X194886438Y-74259619D02*
X194743581Y-74212000D01*
X194743581Y-74212000D02*
X194648343Y-74116761D01*
X194648343Y-74116761D02*
X194600724Y-74021523D01*
X194600724Y-74021523D02*
X194553105Y-73831047D01*
X194553105Y-73831047D02*
X194553105Y-73688190D01*
X194553105Y-73688190D02*
X194600724Y-73497714D01*
X194600724Y-73497714D02*
X194648343Y-73402476D01*
X194648343Y-73402476D02*
X194743581Y-73307238D01*
X194743581Y-73307238D02*
X194886438Y-73259619D01*
X194886438Y-73259619D02*
X194981676Y-73259619D01*
X194981676Y-73259619D02*
X195124533Y-73307238D01*
X195124533Y-73307238D02*
X195172152Y-73354857D01*
X196029295Y-73259619D02*
X195838819Y-73259619D01*
X195838819Y-73259619D02*
X195743581Y-73307238D01*
X195743581Y-73307238D02*
X195695962Y-73354857D01*
X195695962Y-73354857D02*
X195600724Y-73497714D01*
X195600724Y-73497714D02*
X195553105Y-73688190D01*
X195553105Y-73688190D02*
X195553105Y-74069142D01*
X195553105Y-74069142D02*
X195600724Y-74164380D01*
X195600724Y-74164380D02*
X195648343Y-74212000D01*
X195648343Y-74212000D02*
X195743581Y-74259619D01*
X195743581Y-74259619D02*
X195934057Y-74259619D01*
X195934057Y-74259619D02*
X196029295Y-74212000D01*
X196029295Y-74212000D02*
X196076914Y-74164380D01*
X196076914Y-74164380D02*
X196124533Y-74069142D01*
X196124533Y-74069142D02*
X196124533Y-73831047D01*
X196124533Y-73831047D02*
X196076914Y-73735809D01*
X196076914Y-73735809D02*
X196029295Y-73688190D01*
X196029295Y-73688190D02*
X195934057Y-73640571D01*
X195934057Y-73640571D02*
X195743581Y-73640571D01*
X195743581Y-73640571D02*
X195648343Y-73688190D01*
X195648343Y-73688190D02*
X195600724Y-73735809D01*
X195600724Y-73735809D02*
X195553105Y-73831047D01*
X196743581Y-73259619D02*
X196838819Y-73259619D01*
X196838819Y-73259619D02*
X196934057Y-73307238D01*
X196934057Y-73307238D02*
X196981676Y-73354857D01*
X196981676Y-73354857D02*
X197029295Y-73450095D01*
X197029295Y-73450095D02*
X197076914Y-73640571D01*
X197076914Y-73640571D02*
X197076914Y-73878666D01*
X197076914Y-73878666D02*
X197029295Y-74069142D01*
X197029295Y-74069142D02*
X196981676Y-74164380D01*
X196981676Y-74164380D02*
X196934057Y-74212000D01*
X196934057Y-74212000D02*
X196838819Y-74259619D01*
X196838819Y-74259619D02*
X196743581Y-74259619D01*
X196743581Y-74259619D02*
X196648343Y-74212000D01*
X196648343Y-74212000D02*
X196600724Y-74164380D01*
X196600724Y-74164380D02*
X196553105Y-74069142D01*
X196553105Y-74069142D02*
X196505486Y-73878666D01*
X196505486Y-73878666D02*
X196505486Y-73640571D01*
X196505486Y-73640571D02*
X196553105Y-73450095D01*
X196553105Y-73450095D02*
X196600724Y-73354857D01*
X196600724Y-73354857D02*
X196648343Y-73307238D01*
X196648343Y-73307238D02*
X196743581Y-73259619D01*
X197410248Y-73259619D02*
X198029295Y-73259619D01*
X198029295Y-73259619D02*
X197695962Y-73640571D01*
X197695962Y-73640571D02*
X197838819Y-73640571D01*
X197838819Y-73640571D02*
X197934057Y-73688190D01*
X197934057Y-73688190D02*
X197981676Y-73735809D01*
X197981676Y-73735809D02*
X198029295Y-73831047D01*
X198029295Y-73831047D02*
X198029295Y-74069142D01*
X198029295Y-74069142D02*
X197981676Y-74164380D01*
X197981676Y-74164380D02*
X197934057Y-74212000D01*
X197934057Y-74212000D02*
X197838819Y-74259619D01*
X197838819Y-74259619D02*
X197553105Y-74259619D01*
X197553105Y-74259619D02*
X197457867Y-74212000D01*
X197457867Y-74212000D02*
X197410248Y-74164380D01*
X171074541Y-74556375D02*
X171074541Y-73956375D01*
X171074541Y-73956375D02*
X171274541Y-74384946D01*
X171274541Y-74384946D02*
X171474541Y-73956375D01*
X171474541Y-73956375D02*
X171474541Y-74556375D01*
X172017398Y-73956375D02*
X171903112Y-73956375D01*
X171903112Y-73956375D02*
X171845969Y-73984946D01*
X171845969Y-73984946D02*
X171817398Y-74013518D01*
X171817398Y-74013518D02*
X171760255Y-74099232D01*
X171760255Y-74099232D02*
X171731683Y-74213518D01*
X171731683Y-74213518D02*
X171731683Y-74442089D01*
X171731683Y-74442089D02*
X171760255Y-74499232D01*
X171760255Y-74499232D02*
X171788826Y-74527804D01*
X171788826Y-74527804D02*
X171845969Y-74556375D01*
X171845969Y-74556375D02*
X171960255Y-74556375D01*
X171960255Y-74556375D02*
X172017398Y-74527804D01*
X172017398Y-74527804D02*
X172045969Y-74499232D01*
X172045969Y-74499232D02*
X172074540Y-74442089D01*
X172074540Y-74442089D02*
X172074540Y-74299232D01*
X172074540Y-74299232D02*
X172045969Y-74242089D01*
X172045969Y-74242089D02*
X172017398Y-74213518D01*
X172017398Y-74213518D02*
X171960255Y-74184946D01*
X171960255Y-74184946D02*
X171845969Y-74184946D01*
X171845969Y-74184946D02*
X171788826Y-74213518D01*
X171788826Y-74213518D02*
X171760255Y-74242089D01*
X171760255Y-74242089D02*
X171731683Y-74299232D01*
X172445969Y-73956375D02*
X172503112Y-73956375D01*
X172503112Y-73956375D02*
X172560255Y-73984946D01*
X172560255Y-73984946D02*
X172588827Y-74013518D01*
X172588827Y-74013518D02*
X172617398Y-74070661D01*
X172617398Y-74070661D02*
X172645969Y-74184946D01*
X172645969Y-74184946D02*
X172645969Y-74327804D01*
X172645969Y-74327804D02*
X172617398Y-74442089D01*
X172617398Y-74442089D02*
X172588827Y-74499232D01*
X172588827Y-74499232D02*
X172560255Y-74527804D01*
X172560255Y-74527804D02*
X172503112Y-74556375D01*
X172503112Y-74556375D02*
X172445969Y-74556375D01*
X172445969Y-74556375D02*
X172388827Y-74527804D01*
X172388827Y-74527804D02*
X172360255Y-74499232D01*
X172360255Y-74499232D02*
X172331684Y-74442089D01*
X172331684Y-74442089D02*
X172303112Y-74327804D01*
X172303112Y-74327804D02*
X172303112Y-74184946D01*
X172303112Y-74184946D02*
X172331684Y-74070661D01*
X172331684Y-74070661D02*
X172360255Y-74013518D01*
X172360255Y-74013518D02*
X172388827Y-73984946D01*
X172388827Y-73984946D02*
X172445969Y-73956375D01*
X172874541Y-74013518D02*
X172903113Y-73984946D01*
X172903113Y-73984946D02*
X172960256Y-73956375D01*
X172960256Y-73956375D02*
X173103113Y-73956375D01*
X173103113Y-73956375D02*
X173160256Y-73984946D01*
X173160256Y-73984946D02*
X173188827Y-74013518D01*
X173188827Y-74013518D02*
X173217398Y-74070661D01*
X173217398Y-74070661D02*
X173217398Y-74127804D01*
X173217398Y-74127804D02*
X173188827Y-74213518D01*
X173188827Y-74213518D02*
X172845970Y-74556375D01*
X172845970Y-74556375D02*
X173217398Y-74556375D01*
X105114785Y-109005009D02*
X104781452Y-109005009D01*
X104781452Y-109528819D02*
X104781452Y-108528819D01*
X104781452Y-108528819D02*
X105257642Y-108528819D01*
X106067166Y-108862152D02*
X106067166Y-109528819D01*
X105829071Y-108481200D02*
X105590976Y-109195485D01*
X105590976Y-109195485D02*
X106210023Y-109195485D01*
X106781452Y-108528819D02*
X106876690Y-108528819D01*
X106876690Y-108528819D02*
X106971928Y-108576438D01*
X106971928Y-108576438D02*
X107019547Y-108624057D01*
X107019547Y-108624057D02*
X107067166Y-108719295D01*
X107067166Y-108719295D02*
X107114785Y-108909771D01*
X107114785Y-108909771D02*
X107114785Y-109147866D01*
X107114785Y-109147866D02*
X107067166Y-109338342D01*
X107067166Y-109338342D02*
X107019547Y-109433580D01*
X107019547Y-109433580D02*
X106971928Y-109481200D01*
X106971928Y-109481200D02*
X106876690Y-109528819D01*
X106876690Y-109528819D02*
X106781452Y-109528819D01*
X106781452Y-109528819D02*
X106686214Y-109481200D01*
X106686214Y-109481200D02*
X106638595Y-109433580D01*
X106638595Y-109433580D02*
X106590976Y-109338342D01*
X106590976Y-109338342D02*
X106543357Y-109147866D01*
X106543357Y-109147866D02*
X106543357Y-108909771D01*
X106543357Y-108909771D02*
X106590976Y-108719295D01*
X106590976Y-108719295D02*
X106638595Y-108624057D01*
X106638595Y-108624057D02*
X106686214Y-108576438D01*
X106686214Y-108576438D02*
X106781452Y-108528819D01*
X107971928Y-108862152D02*
X107971928Y-109528819D01*
X107733833Y-108481200D02*
X107495738Y-109195485D01*
X107495738Y-109195485D02*
X108114785Y-109195485D01*
X96416952Y-91720819D02*
X96083619Y-91244628D01*
X95845524Y-91720819D02*
X95845524Y-90720819D01*
X95845524Y-90720819D02*
X96226476Y-90720819D01*
X96226476Y-90720819D02*
X96321714Y-90768438D01*
X96321714Y-90768438D02*
X96369333Y-90816057D01*
X96369333Y-90816057D02*
X96416952Y-90911295D01*
X96416952Y-90911295D02*
X96416952Y-91054152D01*
X96416952Y-91054152D02*
X96369333Y-91149390D01*
X96369333Y-91149390D02*
X96321714Y-91197009D01*
X96321714Y-91197009D02*
X96226476Y-91244628D01*
X96226476Y-91244628D02*
X95845524Y-91244628D01*
X97274095Y-91054152D02*
X97274095Y-91720819D01*
X97036000Y-90673200D02*
X96797905Y-91387485D01*
X96797905Y-91387485D02*
X97416952Y-91387485D01*
X97988381Y-90720819D02*
X98083619Y-90720819D01*
X98083619Y-90720819D02*
X98178857Y-90768438D01*
X98178857Y-90768438D02*
X98226476Y-90816057D01*
X98226476Y-90816057D02*
X98274095Y-90911295D01*
X98274095Y-90911295D02*
X98321714Y-91101771D01*
X98321714Y-91101771D02*
X98321714Y-91339866D01*
X98321714Y-91339866D02*
X98274095Y-91530342D01*
X98274095Y-91530342D02*
X98226476Y-91625580D01*
X98226476Y-91625580D02*
X98178857Y-91673200D01*
X98178857Y-91673200D02*
X98083619Y-91720819D01*
X98083619Y-91720819D02*
X97988381Y-91720819D01*
X97988381Y-91720819D02*
X97893143Y-91673200D01*
X97893143Y-91673200D02*
X97845524Y-91625580D01*
X97845524Y-91625580D02*
X97797905Y-91530342D01*
X97797905Y-91530342D02*
X97750286Y-91339866D01*
X97750286Y-91339866D02*
X97750286Y-91101771D01*
X97750286Y-91101771D02*
X97797905Y-90911295D01*
X97797905Y-90911295D02*
X97845524Y-90816057D01*
X97845524Y-90816057D02*
X97893143Y-90768438D01*
X97893143Y-90768438D02*
X97988381Y-90720819D01*
X99226476Y-90720819D02*
X98750286Y-90720819D01*
X98750286Y-90720819D02*
X98702667Y-91197009D01*
X98702667Y-91197009D02*
X98750286Y-91149390D01*
X98750286Y-91149390D02*
X98845524Y-91101771D01*
X98845524Y-91101771D02*
X99083619Y-91101771D01*
X99083619Y-91101771D02*
X99178857Y-91149390D01*
X99178857Y-91149390D02*
X99226476Y-91197009D01*
X99226476Y-91197009D02*
X99274095Y-91292247D01*
X99274095Y-91292247D02*
X99274095Y-91530342D01*
X99274095Y-91530342D02*
X99226476Y-91625580D01*
X99226476Y-91625580D02*
X99178857Y-91673200D01*
X99178857Y-91673200D02*
X99083619Y-91720819D01*
X99083619Y-91720819D02*
X98845524Y-91720819D01*
X98845524Y-91720819D02*
X98750286Y-91673200D01*
X98750286Y-91673200D02*
X98702667Y-91625580D01*
D11*
X103071985Y-81725907D02*
X102681509Y-81999240D01*
X103071985Y-82194478D02*
X102251985Y-82194478D01*
X102251985Y-82194478D02*
X102251985Y-81882097D01*
X102251985Y-81882097D02*
X102291033Y-81804002D01*
X102291033Y-81804002D02*
X102330080Y-81764955D01*
X102330080Y-81764955D02*
X102408176Y-81725907D01*
X102408176Y-81725907D02*
X102525318Y-81725907D01*
X102525318Y-81725907D02*
X102603414Y-81764955D01*
X102603414Y-81764955D02*
X102642461Y-81804002D01*
X102642461Y-81804002D02*
X102681509Y-81882097D01*
X102681509Y-81882097D02*
X102681509Y-82194478D01*
X102525318Y-81023050D02*
X103071985Y-81023050D01*
X102212938Y-81218288D02*
X102798652Y-81413526D01*
X102798652Y-81413526D02*
X102798652Y-80905907D01*
X102251985Y-80437336D02*
X102251985Y-80359241D01*
X102251985Y-80359241D02*
X102291033Y-80281145D01*
X102291033Y-80281145D02*
X102330080Y-80242098D01*
X102330080Y-80242098D02*
X102408176Y-80203050D01*
X102408176Y-80203050D02*
X102564366Y-80164003D01*
X102564366Y-80164003D02*
X102759604Y-80164003D01*
X102759604Y-80164003D02*
X102915795Y-80203050D01*
X102915795Y-80203050D02*
X102993890Y-80242098D01*
X102993890Y-80242098D02*
X103032938Y-80281145D01*
X103032938Y-80281145D02*
X103071985Y-80359241D01*
X103071985Y-80359241D02*
X103071985Y-80437336D01*
X103071985Y-80437336D02*
X103032938Y-80515431D01*
X103032938Y-80515431D02*
X102993890Y-80554479D01*
X102993890Y-80554479D02*
X102915795Y-80593526D01*
X102915795Y-80593526D02*
X102759604Y-80632574D01*
X102759604Y-80632574D02*
X102564366Y-80632574D01*
X102564366Y-80632574D02*
X102408176Y-80593526D01*
X102408176Y-80593526D02*
X102330080Y-80554479D01*
X102330080Y-80554479D02*
X102291033Y-80515431D01*
X102291033Y-80515431D02*
X102251985Y-80437336D01*
X102251985Y-79890670D02*
X102251985Y-79383051D01*
X102251985Y-79383051D02*
X102564366Y-79656384D01*
X102564366Y-79656384D02*
X102564366Y-79539241D01*
X102564366Y-79539241D02*
X102603414Y-79461146D01*
X102603414Y-79461146D02*
X102642461Y-79422098D01*
X102642461Y-79422098D02*
X102720557Y-79383051D01*
X102720557Y-79383051D02*
X102915795Y-79383051D01*
X102915795Y-79383051D02*
X102993890Y-79422098D01*
X102993890Y-79422098D02*
X103032938Y-79461146D01*
X103032938Y-79461146D02*
X103071985Y-79539241D01*
X103071985Y-79539241D02*
X103071985Y-79773527D01*
X103071985Y-79773527D02*
X103032938Y-79851622D01*
X103032938Y-79851622D02*
X102993890Y-79890670D01*
D10*
X105114785Y-124005009D02*
X104781452Y-124005009D01*
X104781452Y-124528819D02*
X104781452Y-123528819D01*
X104781452Y-123528819D02*
X105257642Y-123528819D01*
X106067166Y-123862152D02*
X106067166Y-124528819D01*
X105829071Y-123481200D02*
X105590976Y-124195485D01*
X105590976Y-124195485D02*
X106210023Y-124195485D01*
X106781452Y-123528819D02*
X106876690Y-123528819D01*
X106876690Y-123528819D02*
X106971928Y-123576438D01*
X106971928Y-123576438D02*
X107019547Y-123624057D01*
X107019547Y-123624057D02*
X107067166Y-123719295D01*
X107067166Y-123719295D02*
X107114785Y-123909771D01*
X107114785Y-123909771D02*
X107114785Y-124147866D01*
X107114785Y-124147866D02*
X107067166Y-124338342D01*
X107067166Y-124338342D02*
X107019547Y-124433580D01*
X107019547Y-124433580D02*
X106971928Y-124481200D01*
X106971928Y-124481200D02*
X106876690Y-124528819D01*
X106876690Y-124528819D02*
X106781452Y-124528819D01*
X106781452Y-124528819D02*
X106686214Y-124481200D01*
X106686214Y-124481200D02*
X106638595Y-124433580D01*
X106638595Y-124433580D02*
X106590976Y-124338342D01*
X106590976Y-124338342D02*
X106543357Y-124147866D01*
X106543357Y-124147866D02*
X106543357Y-123909771D01*
X106543357Y-123909771D02*
X106590976Y-123719295D01*
X106590976Y-123719295D02*
X106638595Y-123624057D01*
X106638595Y-123624057D02*
X106686214Y-123576438D01*
X106686214Y-123576438D02*
X106781452Y-123528819D01*
X107495738Y-123624057D02*
X107543357Y-123576438D01*
X107543357Y-123576438D02*
X107638595Y-123528819D01*
X107638595Y-123528819D02*
X107876690Y-123528819D01*
X107876690Y-123528819D02*
X107971928Y-123576438D01*
X107971928Y-123576438D02*
X108019547Y-123624057D01*
X108019547Y-123624057D02*
X108067166Y-123719295D01*
X108067166Y-123719295D02*
X108067166Y-123814533D01*
X108067166Y-123814533D02*
X108019547Y-123957390D01*
X108019547Y-123957390D02*
X107448119Y-124528819D01*
X107448119Y-124528819D02*
X108067166Y-124528819D01*
X93684380Y-123710057D02*
X93589142Y-123662438D01*
X93589142Y-123662438D02*
X93493904Y-123567200D01*
X93493904Y-123567200D02*
X93351047Y-123424342D01*
X93351047Y-123424342D02*
X93255809Y-123376723D01*
X93255809Y-123376723D02*
X93160571Y-123376723D01*
X93208190Y-123614819D02*
X93112952Y-123567200D01*
X93112952Y-123567200D02*
X93017714Y-123471961D01*
X93017714Y-123471961D02*
X92970095Y-123281485D01*
X92970095Y-123281485D02*
X92970095Y-122948152D01*
X92970095Y-122948152D02*
X93017714Y-122757676D01*
X93017714Y-122757676D02*
X93112952Y-122662438D01*
X93112952Y-122662438D02*
X93208190Y-122614819D01*
X93208190Y-122614819D02*
X93398666Y-122614819D01*
X93398666Y-122614819D02*
X93493904Y-122662438D01*
X93493904Y-122662438D02*
X93589142Y-122757676D01*
X93589142Y-122757676D02*
X93636761Y-122948152D01*
X93636761Y-122948152D02*
X93636761Y-123281485D01*
X93636761Y-123281485D02*
X93589142Y-123471961D01*
X93589142Y-123471961D02*
X93493904Y-123567200D01*
X93493904Y-123567200D02*
X93398666Y-123614819D01*
X93398666Y-123614819D02*
X93208190Y-123614819D01*
X94493904Y-122948152D02*
X94493904Y-123614819D01*
X94255809Y-122567200D02*
X94017714Y-123281485D01*
X94017714Y-123281485D02*
X94636761Y-123281485D01*
X95208190Y-122614819D02*
X95303428Y-122614819D01*
X95303428Y-122614819D02*
X95398666Y-122662438D01*
X95398666Y-122662438D02*
X95446285Y-122710057D01*
X95446285Y-122710057D02*
X95493904Y-122805295D01*
X95493904Y-122805295D02*
X95541523Y-122995771D01*
X95541523Y-122995771D02*
X95541523Y-123233866D01*
X95541523Y-123233866D02*
X95493904Y-123424342D01*
X95493904Y-123424342D02*
X95446285Y-123519580D01*
X95446285Y-123519580D02*
X95398666Y-123567200D01*
X95398666Y-123567200D02*
X95303428Y-123614819D01*
X95303428Y-123614819D02*
X95208190Y-123614819D01*
X95208190Y-123614819D02*
X95112952Y-123567200D01*
X95112952Y-123567200D02*
X95065333Y-123519580D01*
X95065333Y-123519580D02*
X95017714Y-123424342D01*
X95017714Y-123424342D02*
X94970095Y-123233866D01*
X94970095Y-123233866D02*
X94970095Y-122995771D01*
X94970095Y-122995771D02*
X95017714Y-122805295D01*
X95017714Y-122805295D02*
X95065333Y-122710057D01*
X95065333Y-122710057D02*
X95112952Y-122662438D01*
X95112952Y-122662438D02*
X95208190Y-122614819D01*
X95874857Y-122614819D02*
X96493904Y-122614819D01*
X96493904Y-122614819D02*
X96160571Y-122995771D01*
X96160571Y-122995771D02*
X96303428Y-122995771D01*
X96303428Y-122995771D02*
X96398666Y-123043390D01*
X96398666Y-123043390D02*
X96446285Y-123091009D01*
X96446285Y-123091009D02*
X96493904Y-123186247D01*
X96493904Y-123186247D02*
X96493904Y-123424342D01*
X96493904Y-123424342D02*
X96446285Y-123519580D01*
X96446285Y-123519580D02*
X96398666Y-123567200D01*
X96398666Y-123567200D02*
X96303428Y-123614819D01*
X96303428Y-123614819D02*
X96017714Y-123614819D01*
X96017714Y-123614819D02*
X95922476Y-123567200D01*
X95922476Y-123567200D02*
X95874857Y-123519580D01*
X231766419Y-150858914D02*
X232480704Y-150858914D01*
X232480704Y-150858914D02*
X232623561Y-150906533D01*
X232623561Y-150906533D02*
X232718800Y-151001771D01*
X232718800Y-151001771D02*
X232766419Y-151144628D01*
X232766419Y-151144628D02*
X232766419Y-151239866D01*
X231766419Y-150477961D02*
X231766419Y-149858914D01*
X231766419Y-149858914D02*
X232147371Y-150192247D01*
X232147371Y-150192247D02*
X232147371Y-150049390D01*
X232147371Y-150049390D02*
X232194990Y-149954152D01*
X232194990Y-149954152D02*
X232242609Y-149906533D01*
X232242609Y-149906533D02*
X232337847Y-149858914D01*
X232337847Y-149858914D02*
X232575942Y-149858914D01*
X232575942Y-149858914D02*
X232671180Y-149906533D01*
X232671180Y-149906533D02*
X232718800Y-149954152D01*
X232718800Y-149954152D02*
X232766419Y-150049390D01*
X232766419Y-150049390D02*
X232766419Y-150335104D01*
X232766419Y-150335104D02*
X232718800Y-150430342D01*
X232718800Y-150430342D02*
X232671180Y-150477961D01*
X231766419Y-149239866D02*
X231766419Y-149144628D01*
X231766419Y-149144628D02*
X231814038Y-149049390D01*
X231814038Y-149049390D02*
X231861657Y-149001771D01*
X231861657Y-149001771D02*
X231956895Y-148954152D01*
X231956895Y-148954152D02*
X232147371Y-148906533D01*
X232147371Y-148906533D02*
X232385466Y-148906533D01*
X232385466Y-148906533D02*
X232575942Y-148954152D01*
X232575942Y-148954152D02*
X232671180Y-149001771D01*
X232671180Y-149001771D02*
X232718800Y-149049390D01*
X232718800Y-149049390D02*
X232766419Y-149144628D01*
X232766419Y-149144628D02*
X232766419Y-149239866D01*
X232766419Y-149239866D02*
X232718800Y-149335104D01*
X232718800Y-149335104D02*
X232671180Y-149382723D01*
X232671180Y-149382723D02*
X232575942Y-149430342D01*
X232575942Y-149430342D02*
X232385466Y-149477961D01*
X232385466Y-149477961D02*
X232147371Y-149477961D01*
X232147371Y-149477961D02*
X231956895Y-149430342D01*
X231956895Y-149430342D02*
X231861657Y-149382723D01*
X231861657Y-149382723D02*
X231814038Y-149335104D01*
X231814038Y-149335104D02*
X231766419Y-149239866D01*
X232766419Y-147954152D02*
X232766419Y-148525580D01*
X232766419Y-148239866D02*
X231766419Y-148239866D01*
X231766419Y-148239866D02*
X231909276Y-148335104D01*
X231909276Y-148335104D02*
X232004514Y-148430342D01*
X232004514Y-148430342D02*
X232052133Y-148525580D01*
D11*
X103071985Y-96725907D02*
X102681509Y-96999240D01*
X103071985Y-97194478D02*
X102251985Y-97194478D01*
X102251985Y-97194478D02*
X102251985Y-96882097D01*
X102251985Y-96882097D02*
X102291033Y-96804002D01*
X102291033Y-96804002D02*
X102330080Y-96764955D01*
X102330080Y-96764955D02*
X102408176Y-96725907D01*
X102408176Y-96725907D02*
X102525318Y-96725907D01*
X102525318Y-96725907D02*
X102603414Y-96764955D01*
X102603414Y-96764955D02*
X102642461Y-96804002D01*
X102642461Y-96804002D02*
X102681509Y-96882097D01*
X102681509Y-96882097D02*
X102681509Y-97194478D01*
X102525318Y-96023050D02*
X103071985Y-96023050D01*
X102212938Y-96218288D02*
X102798652Y-96413526D01*
X102798652Y-96413526D02*
X102798652Y-95905907D01*
X102251985Y-95437336D02*
X102251985Y-95359241D01*
X102251985Y-95359241D02*
X102291033Y-95281145D01*
X102291033Y-95281145D02*
X102330080Y-95242098D01*
X102330080Y-95242098D02*
X102408176Y-95203050D01*
X102408176Y-95203050D02*
X102564366Y-95164003D01*
X102564366Y-95164003D02*
X102759604Y-95164003D01*
X102759604Y-95164003D02*
X102915795Y-95203050D01*
X102915795Y-95203050D02*
X102993890Y-95242098D01*
X102993890Y-95242098D02*
X103032938Y-95281145D01*
X103032938Y-95281145D02*
X103071985Y-95359241D01*
X103071985Y-95359241D02*
X103071985Y-95437336D01*
X103071985Y-95437336D02*
X103032938Y-95515431D01*
X103032938Y-95515431D02*
X102993890Y-95554479D01*
X102993890Y-95554479D02*
X102915795Y-95593526D01*
X102915795Y-95593526D02*
X102759604Y-95632574D01*
X102759604Y-95632574D02*
X102564366Y-95632574D01*
X102564366Y-95632574D02*
X102408176Y-95593526D01*
X102408176Y-95593526D02*
X102330080Y-95554479D01*
X102330080Y-95554479D02*
X102291033Y-95515431D01*
X102291033Y-95515431D02*
X102251985Y-95437336D01*
X102251985Y-94461146D02*
X102251985Y-94617336D01*
X102251985Y-94617336D02*
X102291033Y-94695432D01*
X102291033Y-94695432D02*
X102330080Y-94734479D01*
X102330080Y-94734479D02*
X102447223Y-94812574D01*
X102447223Y-94812574D02*
X102603414Y-94851622D01*
X102603414Y-94851622D02*
X102915795Y-94851622D01*
X102915795Y-94851622D02*
X102993890Y-94812574D01*
X102993890Y-94812574D02*
X103032938Y-94773527D01*
X103032938Y-94773527D02*
X103071985Y-94695432D01*
X103071985Y-94695432D02*
X103071985Y-94539241D01*
X103071985Y-94539241D02*
X103032938Y-94461146D01*
X103032938Y-94461146D02*
X102993890Y-94422098D01*
X102993890Y-94422098D02*
X102915795Y-94383051D01*
X102915795Y-94383051D02*
X102720557Y-94383051D01*
X102720557Y-94383051D02*
X102642461Y-94422098D01*
X102642461Y-94422098D02*
X102603414Y-94461146D01*
X102603414Y-94461146D02*
X102564366Y-94539241D01*
X102564366Y-94539241D02*
X102564366Y-94695432D01*
X102564366Y-94695432D02*
X102603414Y-94773527D01*
X102603414Y-94773527D02*
X102642461Y-94812574D01*
X102642461Y-94812574D02*
X102720557Y-94851622D01*
D10*
X96416952Y-121720819D02*
X96083619Y-121244628D01*
X95845524Y-121720819D02*
X95845524Y-120720819D01*
X95845524Y-120720819D02*
X96226476Y-120720819D01*
X96226476Y-120720819D02*
X96321714Y-120768438D01*
X96321714Y-120768438D02*
X96369333Y-120816057D01*
X96369333Y-120816057D02*
X96416952Y-120911295D01*
X96416952Y-120911295D02*
X96416952Y-121054152D01*
X96416952Y-121054152D02*
X96369333Y-121149390D01*
X96369333Y-121149390D02*
X96321714Y-121197009D01*
X96321714Y-121197009D02*
X96226476Y-121244628D01*
X96226476Y-121244628D02*
X95845524Y-121244628D01*
X97274095Y-121054152D02*
X97274095Y-121720819D01*
X97036000Y-120673200D02*
X96797905Y-121387485D01*
X96797905Y-121387485D02*
X97416952Y-121387485D01*
X97988381Y-120720819D02*
X98083619Y-120720819D01*
X98083619Y-120720819D02*
X98178857Y-120768438D01*
X98178857Y-120768438D02*
X98226476Y-120816057D01*
X98226476Y-120816057D02*
X98274095Y-120911295D01*
X98274095Y-120911295D02*
X98321714Y-121101771D01*
X98321714Y-121101771D02*
X98321714Y-121339866D01*
X98321714Y-121339866D02*
X98274095Y-121530342D01*
X98274095Y-121530342D02*
X98226476Y-121625580D01*
X98226476Y-121625580D02*
X98178857Y-121673200D01*
X98178857Y-121673200D02*
X98083619Y-121720819D01*
X98083619Y-121720819D02*
X97988381Y-121720819D01*
X97988381Y-121720819D02*
X97893143Y-121673200D01*
X97893143Y-121673200D02*
X97845524Y-121625580D01*
X97845524Y-121625580D02*
X97797905Y-121530342D01*
X97797905Y-121530342D02*
X97750286Y-121339866D01*
X97750286Y-121339866D02*
X97750286Y-121101771D01*
X97750286Y-121101771D02*
X97797905Y-120911295D01*
X97797905Y-120911295D02*
X97845524Y-120816057D01*
X97845524Y-120816057D02*
X97893143Y-120768438D01*
X97893143Y-120768438D02*
X97988381Y-120720819D01*
X98702667Y-120816057D02*
X98750286Y-120768438D01*
X98750286Y-120768438D02*
X98845524Y-120720819D01*
X98845524Y-120720819D02*
X99083619Y-120720819D01*
X99083619Y-120720819D02*
X99178857Y-120768438D01*
X99178857Y-120768438D02*
X99226476Y-120816057D01*
X99226476Y-120816057D02*
X99274095Y-120911295D01*
X99274095Y-120911295D02*
X99274095Y-121006533D01*
X99274095Y-121006533D02*
X99226476Y-121149390D01*
X99226476Y-121149390D02*
X98655048Y-121720819D01*
X98655048Y-121720819D02*
X99274095Y-121720819D01*
X171079941Y-70913173D02*
X171079941Y-70313173D01*
X171079941Y-70313173D02*
X171279941Y-70741744D01*
X171279941Y-70741744D02*
X171479941Y-70313173D01*
X171479941Y-70313173D02*
X171479941Y-70913173D01*
X172022798Y-70313173D02*
X171908512Y-70313173D01*
X171908512Y-70313173D02*
X171851369Y-70341744D01*
X171851369Y-70341744D02*
X171822798Y-70370316D01*
X171822798Y-70370316D02*
X171765655Y-70456030D01*
X171765655Y-70456030D02*
X171737083Y-70570316D01*
X171737083Y-70570316D02*
X171737083Y-70798887D01*
X171737083Y-70798887D02*
X171765655Y-70856030D01*
X171765655Y-70856030D02*
X171794226Y-70884602D01*
X171794226Y-70884602D02*
X171851369Y-70913173D01*
X171851369Y-70913173D02*
X171965655Y-70913173D01*
X171965655Y-70913173D02*
X172022798Y-70884602D01*
X172022798Y-70884602D02*
X172051369Y-70856030D01*
X172051369Y-70856030D02*
X172079940Y-70798887D01*
X172079940Y-70798887D02*
X172079940Y-70656030D01*
X172079940Y-70656030D02*
X172051369Y-70598887D01*
X172051369Y-70598887D02*
X172022798Y-70570316D01*
X172022798Y-70570316D02*
X171965655Y-70541744D01*
X171965655Y-70541744D02*
X171851369Y-70541744D01*
X171851369Y-70541744D02*
X171794226Y-70570316D01*
X171794226Y-70570316D02*
X171765655Y-70598887D01*
X171765655Y-70598887D02*
X171737083Y-70656030D01*
X172451369Y-70313173D02*
X172508512Y-70313173D01*
X172508512Y-70313173D02*
X172565655Y-70341744D01*
X172565655Y-70341744D02*
X172594227Y-70370316D01*
X172594227Y-70370316D02*
X172622798Y-70427459D01*
X172622798Y-70427459D02*
X172651369Y-70541744D01*
X172651369Y-70541744D02*
X172651369Y-70684602D01*
X172651369Y-70684602D02*
X172622798Y-70798887D01*
X172622798Y-70798887D02*
X172594227Y-70856030D01*
X172594227Y-70856030D02*
X172565655Y-70884602D01*
X172565655Y-70884602D02*
X172508512Y-70913173D01*
X172508512Y-70913173D02*
X172451369Y-70913173D01*
X172451369Y-70913173D02*
X172394227Y-70884602D01*
X172394227Y-70884602D02*
X172365655Y-70856030D01*
X172365655Y-70856030D02*
X172337084Y-70798887D01*
X172337084Y-70798887D02*
X172308512Y-70684602D01*
X172308512Y-70684602D02*
X172308512Y-70541744D01*
X172308512Y-70541744D02*
X172337084Y-70427459D01*
X172337084Y-70427459D02*
X172365655Y-70370316D01*
X172365655Y-70370316D02*
X172394227Y-70341744D01*
X172394227Y-70341744D02*
X172451369Y-70313173D01*
X173222798Y-70913173D02*
X172879941Y-70913173D01*
X173051370Y-70913173D02*
X173051370Y-70313173D01*
X173051370Y-70313173D02*
X172994227Y-70398887D01*
X172994227Y-70398887D02*
X172937084Y-70456030D01*
X172937084Y-70456030D02*
X172879941Y-70484602D01*
X93684380Y-115554057D02*
X93589142Y-115506438D01*
X93589142Y-115506438D02*
X93493904Y-115411200D01*
X93493904Y-115411200D02*
X93351047Y-115268342D01*
X93351047Y-115268342D02*
X93255809Y-115220723D01*
X93255809Y-115220723D02*
X93160571Y-115220723D01*
X93208190Y-115458819D02*
X93112952Y-115411200D01*
X93112952Y-115411200D02*
X93017714Y-115315961D01*
X93017714Y-115315961D02*
X92970095Y-115125485D01*
X92970095Y-115125485D02*
X92970095Y-114792152D01*
X92970095Y-114792152D02*
X93017714Y-114601676D01*
X93017714Y-114601676D02*
X93112952Y-114506438D01*
X93112952Y-114506438D02*
X93208190Y-114458819D01*
X93208190Y-114458819D02*
X93398666Y-114458819D01*
X93398666Y-114458819D02*
X93493904Y-114506438D01*
X93493904Y-114506438D02*
X93589142Y-114601676D01*
X93589142Y-114601676D02*
X93636761Y-114792152D01*
X93636761Y-114792152D02*
X93636761Y-115125485D01*
X93636761Y-115125485D02*
X93589142Y-115315961D01*
X93589142Y-115315961D02*
X93493904Y-115411200D01*
X93493904Y-115411200D02*
X93398666Y-115458819D01*
X93398666Y-115458819D02*
X93208190Y-115458819D01*
X94493904Y-114792152D02*
X94493904Y-115458819D01*
X94255809Y-114411200D02*
X94017714Y-115125485D01*
X94017714Y-115125485D02*
X94636761Y-115125485D01*
X95208190Y-114458819D02*
X95303428Y-114458819D01*
X95303428Y-114458819D02*
X95398666Y-114506438D01*
X95398666Y-114506438D02*
X95446285Y-114554057D01*
X95446285Y-114554057D02*
X95493904Y-114649295D01*
X95493904Y-114649295D02*
X95541523Y-114839771D01*
X95541523Y-114839771D02*
X95541523Y-115077866D01*
X95541523Y-115077866D02*
X95493904Y-115268342D01*
X95493904Y-115268342D02*
X95446285Y-115363580D01*
X95446285Y-115363580D02*
X95398666Y-115411200D01*
X95398666Y-115411200D02*
X95303428Y-115458819D01*
X95303428Y-115458819D02*
X95208190Y-115458819D01*
X95208190Y-115458819D02*
X95112952Y-115411200D01*
X95112952Y-115411200D02*
X95065333Y-115363580D01*
X95065333Y-115363580D02*
X95017714Y-115268342D01*
X95017714Y-115268342D02*
X94970095Y-115077866D01*
X94970095Y-115077866D02*
X94970095Y-114839771D01*
X94970095Y-114839771D02*
X95017714Y-114649295D01*
X95017714Y-114649295D02*
X95065333Y-114554057D01*
X95065333Y-114554057D02*
X95112952Y-114506438D01*
X95112952Y-114506438D02*
X95208190Y-114458819D01*
X96398666Y-114792152D02*
X96398666Y-115458819D01*
X96160571Y-114411200D02*
X95922476Y-115125485D01*
X95922476Y-115125485D02*
X96541523Y-115125485D01*
X117078285Y-158599819D02*
X117078285Y-159314104D01*
X117078285Y-159314104D02*
X117030666Y-159456961D01*
X117030666Y-159456961D02*
X116935428Y-159552200D01*
X116935428Y-159552200D02*
X116792571Y-159599819D01*
X116792571Y-159599819D02*
X116697333Y-159599819D01*
X117506857Y-158695057D02*
X117554476Y-158647438D01*
X117554476Y-158647438D02*
X117649714Y-158599819D01*
X117649714Y-158599819D02*
X117887809Y-158599819D01*
X117887809Y-158599819D02*
X117983047Y-158647438D01*
X117983047Y-158647438D02*
X118030666Y-158695057D01*
X118030666Y-158695057D02*
X118078285Y-158790295D01*
X118078285Y-158790295D02*
X118078285Y-158885533D01*
X118078285Y-158885533D02*
X118030666Y-159028390D01*
X118030666Y-159028390D02*
X117459238Y-159599819D01*
X117459238Y-159599819D02*
X118078285Y-159599819D01*
X118697333Y-158599819D02*
X118792571Y-158599819D01*
X118792571Y-158599819D02*
X118887809Y-158647438D01*
X118887809Y-158647438D02*
X118935428Y-158695057D01*
X118935428Y-158695057D02*
X118983047Y-158790295D01*
X118983047Y-158790295D02*
X119030666Y-158980771D01*
X119030666Y-158980771D02*
X119030666Y-159218866D01*
X119030666Y-159218866D02*
X118983047Y-159409342D01*
X118983047Y-159409342D02*
X118935428Y-159504580D01*
X118935428Y-159504580D02*
X118887809Y-159552200D01*
X118887809Y-159552200D02*
X118792571Y-159599819D01*
X118792571Y-159599819D02*
X118697333Y-159599819D01*
X118697333Y-159599819D02*
X118602095Y-159552200D01*
X118602095Y-159552200D02*
X118554476Y-159504580D01*
X118554476Y-159504580D02*
X118506857Y-159409342D01*
X118506857Y-159409342D02*
X118459238Y-159218866D01*
X118459238Y-159218866D02*
X118459238Y-158980771D01*
X118459238Y-158980771D02*
X118506857Y-158790295D01*
X118506857Y-158790295D02*
X118554476Y-158695057D01*
X118554476Y-158695057D02*
X118602095Y-158647438D01*
X118602095Y-158647438D02*
X118697333Y-158599819D01*
X119983047Y-159599819D02*
X119411619Y-159599819D01*
X119697333Y-159599819D02*
X119697333Y-158599819D01*
X119697333Y-158599819D02*
X119602095Y-158742676D01*
X119602095Y-158742676D02*
X119506857Y-158837914D01*
X119506857Y-158837914D02*
X119411619Y-158885533D01*
X195121352Y-71624380D02*
X195073733Y-71672000D01*
X195073733Y-71672000D02*
X194930876Y-71719619D01*
X194930876Y-71719619D02*
X194835638Y-71719619D01*
X194835638Y-71719619D02*
X194692781Y-71672000D01*
X194692781Y-71672000D02*
X194597543Y-71576761D01*
X194597543Y-71576761D02*
X194549924Y-71481523D01*
X194549924Y-71481523D02*
X194502305Y-71291047D01*
X194502305Y-71291047D02*
X194502305Y-71148190D01*
X194502305Y-71148190D02*
X194549924Y-70957714D01*
X194549924Y-70957714D02*
X194597543Y-70862476D01*
X194597543Y-70862476D02*
X194692781Y-70767238D01*
X194692781Y-70767238D02*
X194835638Y-70719619D01*
X194835638Y-70719619D02*
X194930876Y-70719619D01*
X194930876Y-70719619D02*
X195073733Y-70767238D01*
X195073733Y-70767238D02*
X195121352Y-70814857D01*
X195978495Y-70719619D02*
X195788019Y-70719619D01*
X195788019Y-70719619D02*
X195692781Y-70767238D01*
X195692781Y-70767238D02*
X195645162Y-70814857D01*
X195645162Y-70814857D02*
X195549924Y-70957714D01*
X195549924Y-70957714D02*
X195502305Y-71148190D01*
X195502305Y-71148190D02*
X195502305Y-71529142D01*
X195502305Y-71529142D02*
X195549924Y-71624380D01*
X195549924Y-71624380D02*
X195597543Y-71672000D01*
X195597543Y-71672000D02*
X195692781Y-71719619D01*
X195692781Y-71719619D02*
X195883257Y-71719619D01*
X195883257Y-71719619D02*
X195978495Y-71672000D01*
X195978495Y-71672000D02*
X196026114Y-71624380D01*
X196026114Y-71624380D02*
X196073733Y-71529142D01*
X196073733Y-71529142D02*
X196073733Y-71291047D01*
X196073733Y-71291047D02*
X196026114Y-71195809D01*
X196026114Y-71195809D02*
X195978495Y-71148190D01*
X195978495Y-71148190D02*
X195883257Y-71100571D01*
X195883257Y-71100571D02*
X195692781Y-71100571D01*
X195692781Y-71100571D02*
X195597543Y-71148190D01*
X195597543Y-71148190D02*
X195549924Y-71195809D01*
X195549924Y-71195809D02*
X195502305Y-71291047D01*
X196692781Y-70719619D02*
X196788019Y-70719619D01*
X196788019Y-70719619D02*
X196883257Y-70767238D01*
X196883257Y-70767238D02*
X196930876Y-70814857D01*
X196930876Y-70814857D02*
X196978495Y-70910095D01*
X196978495Y-70910095D02*
X197026114Y-71100571D01*
X197026114Y-71100571D02*
X197026114Y-71338666D01*
X197026114Y-71338666D02*
X196978495Y-71529142D01*
X196978495Y-71529142D02*
X196930876Y-71624380D01*
X196930876Y-71624380D02*
X196883257Y-71672000D01*
X196883257Y-71672000D02*
X196788019Y-71719619D01*
X196788019Y-71719619D02*
X196692781Y-71719619D01*
X196692781Y-71719619D02*
X196597543Y-71672000D01*
X196597543Y-71672000D02*
X196549924Y-71624380D01*
X196549924Y-71624380D02*
X196502305Y-71529142D01*
X196502305Y-71529142D02*
X196454686Y-71338666D01*
X196454686Y-71338666D02*
X196454686Y-71100571D01*
X196454686Y-71100571D02*
X196502305Y-70910095D01*
X196502305Y-70910095D02*
X196549924Y-70814857D01*
X196549924Y-70814857D02*
X196597543Y-70767238D01*
X196597543Y-70767238D02*
X196692781Y-70719619D01*
X197978495Y-71719619D02*
X197407067Y-71719619D01*
X197692781Y-71719619D02*
X197692781Y-70719619D01*
X197692781Y-70719619D02*
X197597543Y-70862476D01*
X197597543Y-70862476D02*
X197502305Y-70957714D01*
X197502305Y-70957714D02*
X197407067Y-71005333D01*
D11*
X160317031Y-84052907D02*
X159926555Y-84326240D01*
X160317031Y-84521478D02*
X159497031Y-84521478D01*
X159497031Y-84521478D02*
X159497031Y-84209097D01*
X159497031Y-84209097D02*
X159536079Y-84131002D01*
X159536079Y-84131002D02*
X159575126Y-84091955D01*
X159575126Y-84091955D02*
X159653222Y-84052907D01*
X159653222Y-84052907D02*
X159770364Y-84052907D01*
X159770364Y-84052907D02*
X159848460Y-84091955D01*
X159848460Y-84091955D02*
X159887507Y-84131002D01*
X159887507Y-84131002D02*
X159926555Y-84209097D01*
X159926555Y-84209097D02*
X159926555Y-84521478D01*
X159497031Y-83311002D02*
X159497031Y-83701478D01*
X159497031Y-83701478D02*
X159887507Y-83740526D01*
X159887507Y-83740526D02*
X159848460Y-83701478D01*
X159848460Y-83701478D02*
X159809412Y-83623383D01*
X159809412Y-83623383D02*
X159809412Y-83428145D01*
X159809412Y-83428145D02*
X159848460Y-83350050D01*
X159848460Y-83350050D02*
X159887507Y-83311002D01*
X159887507Y-83311002D02*
X159965603Y-83271955D01*
X159965603Y-83271955D02*
X160160841Y-83271955D01*
X160160841Y-83271955D02*
X160238936Y-83311002D01*
X160238936Y-83311002D02*
X160277984Y-83350050D01*
X160277984Y-83350050D02*
X160317031Y-83428145D01*
X160317031Y-83428145D02*
X160317031Y-83623383D01*
X160317031Y-83623383D02*
X160277984Y-83701478D01*
X160277984Y-83701478D02*
X160238936Y-83740526D01*
X159497031Y-82764336D02*
X159497031Y-82686241D01*
X159497031Y-82686241D02*
X159536079Y-82608145D01*
X159536079Y-82608145D02*
X159575126Y-82569098D01*
X159575126Y-82569098D02*
X159653222Y-82530050D01*
X159653222Y-82530050D02*
X159809412Y-82491003D01*
X159809412Y-82491003D02*
X160004650Y-82491003D01*
X160004650Y-82491003D02*
X160160841Y-82530050D01*
X160160841Y-82530050D02*
X160238936Y-82569098D01*
X160238936Y-82569098D02*
X160277984Y-82608145D01*
X160277984Y-82608145D02*
X160317031Y-82686241D01*
X160317031Y-82686241D02*
X160317031Y-82764336D01*
X160317031Y-82764336D02*
X160277984Y-82842431D01*
X160277984Y-82842431D02*
X160238936Y-82881479D01*
X160238936Y-82881479D02*
X160160841Y-82920526D01*
X160160841Y-82920526D02*
X160004650Y-82959574D01*
X160004650Y-82959574D02*
X159809412Y-82959574D01*
X159809412Y-82959574D02*
X159653222Y-82920526D01*
X159653222Y-82920526D02*
X159575126Y-82881479D01*
X159575126Y-82881479D02*
X159536079Y-82842431D01*
X159536079Y-82842431D02*
X159497031Y-82764336D01*
X159770364Y-81788146D02*
X160317031Y-81788146D01*
X159457984Y-81983384D02*
X160043698Y-82178622D01*
X160043698Y-82178622D02*
X160043698Y-81671003D01*
D10*
X188868914Y-70646419D02*
X188868914Y-71455942D01*
X188868914Y-71455942D02*
X188916533Y-71551180D01*
X188916533Y-71551180D02*
X188964152Y-71598800D01*
X188964152Y-71598800D02*
X189059390Y-71646419D01*
X189059390Y-71646419D02*
X189249866Y-71646419D01*
X189249866Y-71646419D02*
X189345104Y-71598800D01*
X189345104Y-71598800D02*
X189392723Y-71551180D01*
X189392723Y-71551180D02*
X189440342Y-71455942D01*
X189440342Y-71455942D02*
X189440342Y-70646419D01*
X190345104Y-70646419D02*
X190154628Y-70646419D01*
X190154628Y-70646419D02*
X190059390Y-70694038D01*
X190059390Y-70694038D02*
X190011771Y-70741657D01*
X190011771Y-70741657D02*
X189916533Y-70884514D01*
X189916533Y-70884514D02*
X189868914Y-71074990D01*
X189868914Y-71074990D02*
X189868914Y-71455942D01*
X189868914Y-71455942D02*
X189916533Y-71551180D01*
X189916533Y-71551180D02*
X189964152Y-71598800D01*
X189964152Y-71598800D02*
X190059390Y-71646419D01*
X190059390Y-71646419D02*
X190249866Y-71646419D01*
X190249866Y-71646419D02*
X190345104Y-71598800D01*
X190345104Y-71598800D02*
X190392723Y-71551180D01*
X190392723Y-71551180D02*
X190440342Y-71455942D01*
X190440342Y-71455942D02*
X190440342Y-71217847D01*
X190440342Y-71217847D02*
X190392723Y-71122609D01*
X190392723Y-71122609D02*
X190345104Y-71074990D01*
X190345104Y-71074990D02*
X190249866Y-71027371D01*
X190249866Y-71027371D02*
X190059390Y-71027371D01*
X190059390Y-71027371D02*
X189964152Y-71074990D01*
X189964152Y-71074990D02*
X189916533Y-71122609D01*
X189916533Y-71122609D02*
X189868914Y-71217847D01*
X191059390Y-70646419D02*
X191154628Y-70646419D01*
X191154628Y-70646419D02*
X191249866Y-70694038D01*
X191249866Y-70694038D02*
X191297485Y-70741657D01*
X191297485Y-70741657D02*
X191345104Y-70836895D01*
X191345104Y-70836895D02*
X191392723Y-71027371D01*
X191392723Y-71027371D02*
X191392723Y-71265466D01*
X191392723Y-71265466D02*
X191345104Y-71455942D01*
X191345104Y-71455942D02*
X191297485Y-71551180D01*
X191297485Y-71551180D02*
X191249866Y-71598800D01*
X191249866Y-71598800D02*
X191154628Y-71646419D01*
X191154628Y-71646419D02*
X191059390Y-71646419D01*
X191059390Y-71646419D02*
X190964152Y-71598800D01*
X190964152Y-71598800D02*
X190916533Y-71551180D01*
X190916533Y-71551180D02*
X190868914Y-71455942D01*
X190868914Y-71455942D02*
X190821295Y-71265466D01*
X190821295Y-71265466D02*
X190821295Y-71027371D01*
X190821295Y-71027371D02*
X190868914Y-70836895D01*
X190868914Y-70836895D02*
X190916533Y-70741657D01*
X190916533Y-70741657D02*
X190964152Y-70694038D01*
X190964152Y-70694038D02*
X191059390Y-70646419D01*
X192345104Y-71646419D02*
X191773676Y-71646419D01*
X192059390Y-71646419D02*
X192059390Y-70646419D01*
X192059390Y-70646419D02*
X191964152Y-70789276D01*
X191964152Y-70789276D02*
X191868914Y-70884514D01*
X191868914Y-70884514D02*
X191773676Y-70932133D01*
X166186024Y-69009819D02*
X166186024Y-68009819D01*
X166186024Y-68009819D02*
X166566976Y-68009819D01*
X166566976Y-68009819D02*
X166662214Y-68057438D01*
X166662214Y-68057438D02*
X166709833Y-68105057D01*
X166709833Y-68105057D02*
X166757452Y-68200295D01*
X166757452Y-68200295D02*
X166757452Y-68343152D01*
X166757452Y-68343152D02*
X166709833Y-68438390D01*
X166709833Y-68438390D02*
X166662214Y-68486009D01*
X166662214Y-68486009D02*
X166566976Y-68533628D01*
X166566976Y-68533628D02*
X166186024Y-68533628D01*
X167138405Y-68105057D02*
X167186024Y-68057438D01*
X167186024Y-68057438D02*
X167281262Y-68009819D01*
X167281262Y-68009819D02*
X167519357Y-68009819D01*
X167519357Y-68009819D02*
X167614595Y-68057438D01*
X167614595Y-68057438D02*
X167662214Y-68105057D01*
X167662214Y-68105057D02*
X167709833Y-68200295D01*
X167709833Y-68200295D02*
X167709833Y-68295533D01*
X167709833Y-68295533D02*
X167662214Y-68438390D01*
X167662214Y-68438390D02*
X167090786Y-69009819D01*
X167090786Y-69009819D02*
X167709833Y-69009819D01*
X168328881Y-68009819D02*
X168424119Y-68009819D01*
X168424119Y-68009819D02*
X168519357Y-68057438D01*
X168519357Y-68057438D02*
X168566976Y-68105057D01*
X168566976Y-68105057D02*
X168614595Y-68200295D01*
X168614595Y-68200295D02*
X168662214Y-68390771D01*
X168662214Y-68390771D02*
X168662214Y-68628866D01*
X168662214Y-68628866D02*
X168614595Y-68819342D01*
X168614595Y-68819342D02*
X168566976Y-68914580D01*
X168566976Y-68914580D02*
X168519357Y-68962200D01*
X168519357Y-68962200D02*
X168424119Y-69009819D01*
X168424119Y-69009819D02*
X168328881Y-69009819D01*
X168328881Y-69009819D02*
X168233643Y-68962200D01*
X168233643Y-68962200D02*
X168186024Y-68914580D01*
X168186024Y-68914580D02*
X168138405Y-68819342D01*
X168138405Y-68819342D02*
X168090786Y-68628866D01*
X168090786Y-68628866D02*
X168090786Y-68390771D01*
X168090786Y-68390771D02*
X168138405Y-68200295D01*
X168138405Y-68200295D02*
X168186024Y-68105057D01*
X168186024Y-68105057D02*
X168233643Y-68057438D01*
X168233643Y-68057438D02*
X168328881Y-68009819D01*
X169614595Y-69009819D02*
X169043167Y-69009819D01*
X169328881Y-69009819D02*
X169328881Y-68009819D01*
X169328881Y-68009819D02*
X169233643Y-68152676D01*
X169233643Y-68152676D02*
X169138405Y-68247914D01*
X169138405Y-68247914D02*
X169043167Y-68295533D01*
X93684380Y-85554057D02*
X93589142Y-85506438D01*
X93589142Y-85506438D02*
X93493904Y-85411200D01*
X93493904Y-85411200D02*
X93351047Y-85268342D01*
X93351047Y-85268342D02*
X93255809Y-85220723D01*
X93255809Y-85220723D02*
X93160571Y-85220723D01*
X93208190Y-85458819D02*
X93112952Y-85411200D01*
X93112952Y-85411200D02*
X93017714Y-85315961D01*
X93017714Y-85315961D02*
X92970095Y-85125485D01*
X92970095Y-85125485D02*
X92970095Y-84792152D01*
X92970095Y-84792152D02*
X93017714Y-84601676D01*
X93017714Y-84601676D02*
X93112952Y-84506438D01*
X93112952Y-84506438D02*
X93208190Y-84458819D01*
X93208190Y-84458819D02*
X93398666Y-84458819D01*
X93398666Y-84458819D02*
X93493904Y-84506438D01*
X93493904Y-84506438D02*
X93589142Y-84601676D01*
X93589142Y-84601676D02*
X93636761Y-84792152D01*
X93636761Y-84792152D02*
X93636761Y-85125485D01*
X93636761Y-85125485D02*
X93589142Y-85315961D01*
X93589142Y-85315961D02*
X93493904Y-85411200D01*
X93493904Y-85411200D02*
X93398666Y-85458819D01*
X93398666Y-85458819D02*
X93208190Y-85458819D01*
X94493904Y-84792152D02*
X94493904Y-85458819D01*
X94255809Y-84411200D02*
X94017714Y-85125485D01*
X94017714Y-85125485D02*
X94636761Y-85125485D01*
X95208190Y-84458819D02*
X95303428Y-84458819D01*
X95303428Y-84458819D02*
X95398666Y-84506438D01*
X95398666Y-84506438D02*
X95446285Y-84554057D01*
X95446285Y-84554057D02*
X95493904Y-84649295D01*
X95493904Y-84649295D02*
X95541523Y-84839771D01*
X95541523Y-84839771D02*
X95541523Y-85077866D01*
X95541523Y-85077866D02*
X95493904Y-85268342D01*
X95493904Y-85268342D02*
X95446285Y-85363580D01*
X95446285Y-85363580D02*
X95398666Y-85411200D01*
X95398666Y-85411200D02*
X95303428Y-85458819D01*
X95303428Y-85458819D02*
X95208190Y-85458819D01*
X95208190Y-85458819D02*
X95112952Y-85411200D01*
X95112952Y-85411200D02*
X95065333Y-85363580D01*
X95065333Y-85363580D02*
X95017714Y-85268342D01*
X95017714Y-85268342D02*
X94970095Y-85077866D01*
X94970095Y-85077866D02*
X94970095Y-84839771D01*
X94970095Y-84839771D02*
X95017714Y-84649295D01*
X95017714Y-84649295D02*
X95065333Y-84554057D01*
X95065333Y-84554057D02*
X95112952Y-84506438D01*
X95112952Y-84506438D02*
X95208190Y-84458819D01*
X96493904Y-85458819D02*
X95922476Y-85458819D01*
X96208190Y-85458819D02*
X96208190Y-84458819D01*
X96208190Y-84458819D02*
X96112952Y-84601676D01*
X96112952Y-84601676D02*
X96017714Y-84696914D01*
X96017714Y-84696914D02*
X95922476Y-84744533D01*
D11*
X103071985Y-111725907D02*
X102681509Y-111999240D01*
X103071985Y-112194478D02*
X102251985Y-112194478D01*
X102251985Y-112194478D02*
X102251985Y-111882097D01*
X102251985Y-111882097D02*
X102291033Y-111804002D01*
X102291033Y-111804002D02*
X102330080Y-111764955D01*
X102330080Y-111764955D02*
X102408176Y-111725907D01*
X102408176Y-111725907D02*
X102525318Y-111725907D01*
X102525318Y-111725907D02*
X102603414Y-111764955D01*
X102603414Y-111764955D02*
X102642461Y-111804002D01*
X102642461Y-111804002D02*
X102681509Y-111882097D01*
X102681509Y-111882097D02*
X102681509Y-112194478D01*
X102525318Y-111023050D02*
X103071985Y-111023050D01*
X102212938Y-111218288D02*
X102798652Y-111413526D01*
X102798652Y-111413526D02*
X102798652Y-110905907D01*
X102251985Y-110437336D02*
X102251985Y-110359241D01*
X102251985Y-110359241D02*
X102291033Y-110281145D01*
X102291033Y-110281145D02*
X102330080Y-110242098D01*
X102330080Y-110242098D02*
X102408176Y-110203050D01*
X102408176Y-110203050D02*
X102564366Y-110164003D01*
X102564366Y-110164003D02*
X102759604Y-110164003D01*
X102759604Y-110164003D02*
X102915795Y-110203050D01*
X102915795Y-110203050D02*
X102993890Y-110242098D01*
X102993890Y-110242098D02*
X103032938Y-110281145D01*
X103032938Y-110281145D02*
X103071985Y-110359241D01*
X103071985Y-110359241D02*
X103071985Y-110437336D01*
X103071985Y-110437336D02*
X103032938Y-110515431D01*
X103032938Y-110515431D02*
X102993890Y-110554479D01*
X102993890Y-110554479D02*
X102915795Y-110593526D01*
X102915795Y-110593526D02*
X102759604Y-110632574D01*
X102759604Y-110632574D02*
X102564366Y-110632574D01*
X102564366Y-110632574D02*
X102408176Y-110593526D01*
X102408176Y-110593526D02*
X102330080Y-110554479D01*
X102330080Y-110554479D02*
X102291033Y-110515431D01*
X102291033Y-110515431D02*
X102251985Y-110437336D01*
X102603414Y-109695432D02*
X102564366Y-109773527D01*
X102564366Y-109773527D02*
X102525318Y-109812574D01*
X102525318Y-109812574D02*
X102447223Y-109851622D01*
X102447223Y-109851622D02*
X102408176Y-109851622D01*
X102408176Y-109851622D02*
X102330080Y-109812574D01*
X102330080Y-109812574D02*
X102291033Y-109773527D01*
X102291033Y-109773527D02*
X102251985Y-109695432D01*
X102251985Y-109695432D02*
X102251985Y-109539241D01*
X102251985Y-109539241D02*
X102291033Y-109461146D01*
X102291033Y-109461146D02*
X102330080Y-109422098D01*
X102330080Y-109422098D02*
X102408176Y-109383051D01*
X102408176Y-109383051D02*
X102447223Y-109383051D01*
X102447223Y-109383051D02*
X102525318Y-109422098D01*
X102525318Y-109422098D02*
X102564366Y-109461146D01*
X102564366Y-109461146D02*
X102603414Y-109539241D01*
X102603414Y-109539241D02*
X102603414Y-109695432D01*
X102603414Y-109695432D02*
X102642461Y-109773527D01*
X102642461Y-109773527D02*
X102681509Y-109812574D01*
X102681509Y-109812574D02*
X102759604Y-109851622D01*
X102759604Y-109851622D02*
X102915795Y-109851622D01*
X102915795Y-109851622D02*
X102993890Y-109812574D01*
X102993890Y-109812574D02*
X103032938Y-109773527D01*
X103032938Y-109773527D02*
X103071985Y-109695432D01*
X103071985Y-109695432D02*
X103071985Y-109539241D01*
X103071985Y-109539241D02*
X103032938Y-109461146D01*
X103032938Y-109461146D02*
X102993890Y-109422098D01*
X102993890Y-109422098D02*
X102915795Y-109383051D01*
X102915795Y-109383051D02*
X102759604Y-109383051D01*
X102759604Y-109383051D02*
X102681509Y-109422098D01*
X102681509Y-109422098D02*
X102642461Y-109461146D01*
X102642461Y-109461146D02*
X102603414Y-109539241D01*
X158367985Y-84052907D02*
X157977509Y-84326240D01*
X158367985Y-84521478D02*
X157547985Y-84521478D01*
X157547985Y-84521478D02*
X157547985Y-84209097D01*
X157547985Y-84209097D02*
X157587033Y-84131002D01*
X157587033Y-84131002D02*
X157626080Y-84091955D01*
X157626080Y-84091955D02*
X157704176Y-84052907D01*
X157704176Y-84052907D02*
X157821318Y-84052907D01*
X157821318Y-84052907D02*
X157899414Y-84091955D01*
X157899414Y-84091955D02*
X157938461Y-84131002D01*
X157938461Y-84131002D02*
X157977509Y-84209097D01*
X157977509Y-84209097D02*
X157977509Y-84521478D01*
X157547985Y-83311002D02*
X157547985Y-83701478D01*
X157547985Y-83701478D02*
X157938461Y-83740526D01*
X157938461Y-83740526D02*
X157899414Y-83701478D01*
X157899414Y-83701478D02*
X157860366Y-83623383D01*
X157860366Y-83623383D02*
X157860366Y-83428145D01*
X157860366Y-83428145D02*
X157899414Y-83350050D01*
X157899414Y-83350050D02*
X157938461Y-83311002D01*
X157938461Y-83311002D02*
X158016557Y-83271955D01*
X158016557Y-83271955D02*
X158211795Y-83271955D01*
X158211795Y-83271955D02*
X158289890Y-83311002D01*
X158289890Y-83311002D02*
X158328938Y-83350050D01*
X158328938Y-83350050D02*
X158367985Y-83428145D01*
X158367985Y-83428145D02*
X158367985Y-83623383D01*
X158367985Y-83623383D02*
X158328938Y-83701478D01*
X158328938Y-83701478D02*
X158289890Y-83740526D01*
X157547985Y-82764336D02*
X157547985Y-82686241D01*
X157547985Y-82686241D02*
X157587033Y-82608145D01*
X157587033Y-82608145D02*
X157626080Y-82569098D01*
X157626080Y-82569098D02*
X157704176Y-82530050D01*
X157704176Y-82530050D02*
X157860366Y-82491003D01*
X157860366Y-82491003D02*
X158055604Y-82491003D01*
X158055604Y-82491003D02*
X158211795Y-82530050D01*
X158211795Y-82530050D02*
X158289890Y-82569098D01*
X158289890Y-82569098D02*
X158328938Y-82608145D01*
X158328938Y-82608145D02*
X158367985Y-82686241D01*
X158367985Y-82686241D02*
X158367985Y-82764336D01*
X158367985Y-82764336D02*
X158328938Y-82842431D01*
X158328938Y-82842431D02*
X158289890Y-82881479D01*
X158289890Y-82881479D02*
X158211795Y-82920526D01*
X158211795Y-82920526D02*
X158055604Y-82959574D01*
X158055604Y-82959574D02*
X157860366Y-82959574D01*
X157860366Y-82959574D02*
X157704176Y-82920526D01*
X157704176Y-82920526D02*
X157626080Y-82881479D01*
X157626080Y-82881479D02*
X157587033Y-82842431D01*
X157587033Y-82842431D02*
X157547985Y-82764336D01*
X157547985Y-82217670D02*
X157547985Y-81710051D01*
X157547985Y-81710051D02*
X157860366Y-81983384D01*
X157860366Y-81983384D02*
X157860366Y-81866241D01*
X157860366Y-81866241D02*
X157899414Y-81788146D01*
X157899414Y-81788146D02*
X157938461Y-81749098D01*
X157938461Y-81749098D02*
X158016557Y-81710051D01*
X158016557Y-81710051D02*
X158211795Y-81710051D01*
X158211795Y-81710051D02*
X158289890Y-81749098D01*
X158289890Y-81749098D02*
X158328938Y-81788146D01*
X158328938Y-81788146D02*
X158367985Y-81866241D01*
X158367985Y-81866241D02*
X158367985Y-82100527D01*
X158367985Y-82100527D02*
X158328938Y-82178622D01*
X158328938Y-82178622D02*
X158289890Y-82217670D01*
D13*
G04 #@! TO.C,BT301*
X215968800Y-114554800D02*
X215968800Y-110567500D01*
X215968800Y-126262100D02*
X215968800Y-122274800D01*
X218168800Y-116754800D02*
X215968800Y-114554800D01*
X218168800Y-120074800D02*
X215968800Y-122274800D01*
X218168800Y-120074800D02*
X218168800Y-116754800D01*
X220468800Y-107722800D02*
X220468800Y-104104800D01*
X220468800Y-132724800D02*
X220468800Y-129106800D01*
X222178800Y-104104800D02*
X220468800Y-104104800D01*
X222178800Y-132724800D02*
X220468800Y-132724800D01*
X225978800Y-104104800D02*
X227688800Y-104104800D01*
X225978800Y-132724800D02*
X227688800Y-132724800D01*
X227688800Y-104104800D02*
X227688800Y-107722800D01*
X227688800Y-129106800D02*
X227688800Y-132724800D01*
X232188800Y-110567500D02*
X232188800Y-126262100D01*
X215967011Y-110569429D02*
G75*
G02*
X220468800Y-107722800I8111785J-7845366D01*
G01*
X220468800Y-129106800D02*
G75*
G02*
X215967011Y-126260171I3610012J10692020D01*
G01*
X227688800Y-107722800D02*
G75*
G02*
X232190590Y-110569428I-3610010J-10692020D01*
G01*
X232190589Y-126260171D02*
G75*
G02*
X227688800Y-129106800I-8111789J7845371D01*
G01*
G04 #@! TO.C,F403*
X106237721Y-94994000D02*
X106563279Y-94994000D01*
X106237721Y-96014000D02*
X106563279Y-96014000D01*
G04 #@! TO.C,JP301*
X211198000Y-76754000D02*
X211198000Y-76154000D01*
X211898000Y-75454000D02*
X213298000Y-75454000D01*
X213298000Y-77454000D02*
X211898000Y-77454000D01*
X213998000Y-76154000D02*
X213998000Y-76754000D01*
X211198000Y-76154000D02*
G75*
G02*
X211898000Y-75454000I700000J0D01*
G01*
X211898000Y-77454000D02*
G75*
G02*
X211198000Y-76754000I0J700000D01*
G01*
X213298000Y-75454000D02*
G75*
G02*
X213998000Y-76154000I1J-699999D01*
G01*
X213998000Y-76754000D02*
G75*
G02*
X213298000Y-77454000I-699999J-1D01*
G01*
G04 #@! TO.C,F401*
X106237721Y-79994000D02*
X106563279Y-79994000D01*
X106237721Y-81014000D02*
X106563279Y-81014000D01*
G04 #@! TO.C,R401*
X99713064Y-71936000D02*
X95358936Y-71936000D01*
X99713064Y-75356000D02*
X95358936Y-75356000D01*
G04 #@! TO.C,U502*
X158452000Y-77216000D02*
X158452000Y-75266000D01*
X158452000Y-77216000D02*
X158452000Y-79166000D01*
X163572000Y-77216000D02*
X163572000Y-75266000D01*
X163572000Y-77216000D02*
X163572000Y-79166000D01*
X158547000Y-79916000D02*
X158217000Y-80156000D01*
X158217000Y-79676000D01*
X158547000Y-79916000D01*
G36*
X158547000Y-79916000D02*
G01*
X158217000Y-80156000D01*
X158217000Y-79676000D01*
X158547000Y-79916000D01*
G37*
D14*
G04 #@! TO.C,R502*
X156806959Y-83793000D02*
X156806969Y-83393000D01*
X157552794Y-83794056D02*
X157552805Y-83394057D01*
D13*
G04 #@! TO.C,U501*
X151872000Y-77216000D02*
X151872000Y-75266000D01*
X151872000Y-77216000D02*
X151872000Y-79166000D01*
X156992000Y-77216000D02*
X156992000Y-75266000D01*
X156992000Y-77216000D02*
X156992000Y-79166000D01*
X151967000Y-79916000D02*
X151637000Y-80156000D01*
X151637000Y-79676000D01*
X151967000Y-79916000D01*
G36*
X151967000Y-79916000D02*
G01*
X151637000Y-80156000D01*
X151637000Y-79676000D01*
X151967000Y-79916000D01*
G37*
G04 #@! TO.C,C602*
X188746820Y-70559200D02*
X189027980Y-70559200D01*
X188746820Y-71579200D02*
X189027980Y-71579200D01*
D14*
G04 #@! TO.C,R404*
X103460005Y-126466000D02*
X103460015Y-126066000D01*
X104205840Y-126467056D02*
X104205851Y-126067057D01*
D15*
G04 #@! TO.C,J203*
X136100600Y-142204800D02*
X136100600Y-142204800D01*
X136100600Y-142204800D02*
X136100600Y-158004800D01*
X136100600Y-158004800D02*
X136100600Y-142204800D01*
X136100600Y-158004800D02*
X136100600Y-158004800D01*
X136100600Y-158004800D02*
X136100600Y-158004800D01*
X136100600Y-158004800D02*
X170730600Y-158004800D01*
X139415600Y-137404800D02*
X139415600Y-137404800D01*
X139415600Y-137604800D02*
X139415600Y-137604800D01*
X149665600Y-138504800D02*
X149665600Y-138504800D01*
X149665600Y-138504800D02*
X157165600Y-138504800D01*
X157165600Y-138504800D02*
X149665600Y-138504800D01*
X157165600Y-138504800D02*
X157165600Y-138504800D01*
X170730600Y-142204800D02*
X170730600Y-142204800D01*
X170730600Y-142204800D02*
X170730600Y-158004800D01*
X170730600Y-158004800D02*
X136100600Y-158004800D01*
X170730600Y-158004800D02*
X170730600Y-142204800D01*
X170730600Y-158004800D02*
X170730600Y-158004800D01*
X170730600Y-158004800D02*
X170730600Y-158004800D01*
X139415600Y-137404800D02*
G75*
G02*
X139415600Y-137604800I0J-100000D01*
G01*
X139415600Y-137604800D02*
G75*
G02*
X139415600Y-137404800I0J100000D01*
G01*
D13*
G04 #@! TO.C,R407*
X99713064Y-101936000D02*
X95358936Y-101936000D01*
X99713064Y-105356000D02*
X95358936Y-105356000D01*
G04 #@! TO.C,M303*
D15*
X135345000Y-129445000D02*
X121445000Y-129445000D01*
X121445000Y-101945000D01*
X135345000Y-101945000D01*
X135345000Y-129445000D01*
D10*
G04 #@! TO.C,D301*
X217423203Y-99069600D02*
X220351201Y-99069600D01*
X217423203Y-99415600D02*
X217550203Y-99415600D01*
X217423203Y-99515605D02*
X217423203Y-99069600D01*
X217423203Y-99923600D02*
X217551200Y-99923600D01*
X217423203Y-100244595D02*
X217423203Y-99823595D01*
X217423203Y-100244595D02*
X220351200Y-100244595D01*
X217551200Y-99515605D02*
X217551200Y-99069600D01*
X217551200Y-100219600D02*
X217550203Y-99823595D01*
D11*
X218551200Y-99669600D02*
X218751200Y-99669600D01*
X218751200Y-99669600D02*
X219451200Y-99319600D01*
X218751200Y-99669600D02*
X219451200Y-100019600D01*
X218751200Y-100019600D02*
X218751200Y-99319600D01*
X219451200Y-99669600D02*
X219751200Y-99669600D01*
X219451200Y-100019600D02*
X219451200Y-99319600D01*
D13*
G04 #@! TO.C,Q402*
X91622000Y-122054000D02*
X98042000Y-122054000D01*
X91622000Y-128954000D02*
X98042000Y-128954000D01*
X98042000Y-122054000D02*
X98042000Y-122324000D01*
X98042000Y-128954000D02*
X98042000Y-128684000D01*
X99702000Y-128974000D02*
X99222000Y-128974000D01*
X99462000Y-128644000D01*
X99702000Y-128974000D01*
G36*
X99702000Y-128974000D02*
G01*
X99222000Y-128974000D01*
X99462000Y-128644000D01*
X99702000Y-128974000D01*
G37*
D14*
G04 #@! TO.C,R501*
X154857913Y-83793000D02*
X154857923Y-83393000D01*
X155603748Y-83794056D02*
X155603759Y-83394057D01*
D13*
G04 #@! TO.C,C603*
X196150620Y-74724800D02*
X196431780Y-74724800D01*
X196150620Y-75744800D02*
X196431780Y-75744800D01*
D15*
G04 #@! TO.C,M602*
X171032800Y-75475801D02*
X180132800Y-75475801D01*
X171032800Y-78575804D02*
X171032800Y-77575802D01*
X171032800Y-78575804D02*
X180132800Y-78575804D01*
D13*
G04 #@! TO.C,F404*
X106237721Y-109994000D02*
X106563279Y-109994000D01*
X106237721Y-111014000D02*
X106563279Y-111014000D01*
G04 #@! TO.C,R405*
X99713064Y-86936000D02*
X95358936Y-86936000D01*
X99713064Y-90356000D02*
X95358936Y-90356000D01*
D14*
G04 #@! TO.C,R403*
X103460005Y-81466000D02*
X103460015Y-81066000D01*
X104205840Y-81467056D02*
X104205851Y-81067057D01*
D13*
G04 #@! TO.C,F402*
X106237721Y-124994000D02*
X106563279Y-124994000D01*
X106237721Y-126014000D02*
X106563279Y-126014000D01*
G04 #@! TO.C,Q403*
X91622000Y-92054000D02*
X98042000Y-92054000D01*
X91622000Y-98954000D02*
X98042000Y-98954000D01*
X98042000Y-92054000D02*
X98042000Y-92324000D01*
X98042000Y-98954000D02*
X98042000Y-98684000D01*
X99702000Y-98974000D02*
X99222000Y-98974000D01*
X99462000Y-98644000D01*
X99702000Y-98974000D01*
G36*
X99702000Y-98974000D02*
G01*
X99222000Y-98974000D01*
X99462000Y-98644000D01*
X99702000Y-98974000D01*
G37*
D15*
G04 #@! TO.C,M306*
X215503002Y-94453001D02*
X215503002Y-94752999D01*
X215503004Y-75602999D02*
X215502999Y-77152999D01*
X215503004Y-79153001D02*
X215503004Y-80253004D01*
X215503004Y-81852999D02*
X215503004Y-84552999D01*
X215503004Y-88053001D02*
X215503004Y-92853001D01*
X230803001Y-94752997D02*
X215503002Y-94752999D01*
X232303001Y-74152999D02*
X216903001Y-74152999D01*
X232303001Y-74152999D02*
X232303001Y-74452999D01*
X232303001Y-76052999D02*
X232303001Y-86453001D01*
X232303001Y-88152999D02*
X232303001Y-91353002D01*
G04 #@! TO.C,M301*
X143651395Y-95157415D02*
X177451405Y-95157415D01*
X143651395Y-130957405D02*
X143651395Y-95157415D01*
X143651395Y-130957405D02*
X177451395Y-130957405D01*
X177451405Y-130957405D02*
X177451405Y-95157415D01*
D13*
G04 #@! TO.C,J301*
X217131600Y-141213200D02*
X217131600Y-145473200D01*
X217131600Y-157933200D02*
X217131600Y-149573200D01*
X224041600Y-140493200D02*
X224541600Y-140993200D01*
X224541600Y-140993200D02*
X225041600Y-140493200D01*
X225041600Y-140493200D02*
X224041600Y-140493200D01*
X229451600Y-141213200D02*
X217131600Y-141213200D01*
X229451600Y-145473200D02*
X229451600Y-141213200D01*
X229451600Y-149573200D02*
X229451600Y-157933200D01*
X229451600Y-157933200D02*
X217131600Y-157933200D01*
D14*
G04 #@! TO.C,R406*
X103460005Y-96466000D02*
X103460015Y-96066000D01*
X104205840Y-96467056D02*
X104205851Y-96067057D01*
D13*
G04 #@! TO.C,R402*
X99713064Y-116936000D02*
X95358936Y-116936000D01*
X99713064Y-120356000D02*
X95358936Y-120356000D01*
D15*
G04 #@! TO.C,M601*
X171038200Y-71832599D02*
X180138200Y-71832599D01*
X171038200Y-74932602D02*
X171038200Y-73932600D01*
X171038200Y-74932602D02*
X180138200Y-74932602D01*
D13*
G04 #@! TO.C,Q404*
X91622000Y-107054000D02*
X98042000Y-107054000D01*
X91622000Y-113954000D02*
X98042000Y-113954000D01*
X98042000Y-107054000D02*
X98042000Y-107324000D01*
X98042000Y-113954000D02*
X98042000Y-113684000D01*
X99702000Y-113974000D02*
X99222000Y-113974000D01*
X99462000Y-113644000D01*
X99702000Y-113974000D01*
G36*
X99702000Y-113974000D02*
G01*
X99222000Y-113974000D01*
X99462000Y-113644000D01*
X99702000Y-113974000D01*
G37*
G04 #@! TO.C,J201*
X111354000Y-145035000D02*
X111354000Y-158055000D01*
X111354000Y-158055000D02*
X118364000Y-158055000D01*
X112164000Y-145035000D02*
X111354000Y-145035000D01*
X113864000Y-141935000D02*
X113864000Y-140655000D01*
X114464000Y-141935000D02*
X114464000Y-140655000D01*
X116754000Y-145045000D02*
X115774000Y-145045000D01*
X118064000Y-141935000D02*
X118064000Y-140655000D01*
X118664000Y-141935000D02*
X118664000Y-140655000D01*
X120954000Y-145045000D02*
X119974000Y-145045000D01*
X122264000Y-141935000D02*
X122264000Y-140655000D01*
X122864000Y-141935000D02*
X122864000Y-140655000D01*
X124564000Y-144045000D02*
X125164000Y-143745000D01*
X124564000Y-145035000D02*
X125374000Y-145035000D01*
X125164000Y-143745000D02*
X125164000Y-144345000D01*
X125164000Y-144345000D02*
X124564000Y-144045000D01*
X125374000Y-145035000D02*
X125374000Y-158055000D01*
X125374000Y-158055000D02*
X118364000Y-158055000D01*
G04 #@! TO.C,C601*
X196099820Y-72184800D02*
X196380980Y-72184800D01*
X196099820Y-73204800D02*
X196380980Y-73204800D01*
D15*
G04 #@! TO.C,M304*
X197819300Y-92234434D02*
X197819300Y-83809414D01*
X197819300Y-92234434D02*
X203219299Y-92234434D01*
X197844301Y-83784413D02*
X198869300Y-82759414D01*
X198869300Y-79809435D02*
X199219302Y-79459433D01*
X198869300Y-82759414D02*
X198869300Y-79809435D01*
X199219302Y-79459433D02*
X202844299Y-79459433D01*
X202844299Y-79459433D02*
X203219299Y-79834434D01*
X203219299Y-92234434D02*
X203219299Y-79834434D01*
G04 #@! TO.C,M302*
X192915502Y-106409660D02*
X192915502Y-113295989D01*
X203815496Y-106409660D02*
X192915502Y-106409660D01*
X203815498Y-106409663D02*
X203815496Y-106409660D01*
X203815498Y-106409663D02*
X203815498Y-107284657D01*
X204090502Y-107559661D02*
X203815498Y-107284657D01*
X204090502Y-107559661D02*
X204090502Y-113257142D01*
X204090502Y-113257142D02*
X192915502Y-113295989D01*
D14*
G04 #@! TO.C,R504*
X160705051Y-83793000D02*
X160705061Y-83393000D01*
X161450886Y-83794056D02*
X161450897Y-83394057D01*
D13*
G04 #@! TO.C,U601*
X190583200Y-72031600D02*
X188633200Y-72031600D01*
X190583200Y-72031600D02*
X192533200Y-72031600D01*
X190583200Y-77151600D02*
X188633200Y-77151600D01*
X190583200Y-77151600D02*
X192533200Y-77151600D01*
X187883200Y-72126600D02*
X187643200Y-71796600D01*
X188123200Y-71796600D01*
X187883200Y-72126600D01*
G36*
X187883200Y-72126600D02*
G01*
X187643200Y-71796600D01*
X188123200Y-71796600D01*
X187883200Y-72126600D01*
G37*
G04 #@! TO.C,Q401*
X91622000Y-77054000D02*
X98042000Y-77054000D01*
X91622000Y-83954000D02*
X98042000Y-83954000D01*
X98042000Y-77054000D02*
X98042000Y-77324000D01*
X98042000Y-83954000D02*
X98042000Y-83684000D01*
X99702000Y-83974000D02*
X99222000Y-83974000D01*
X99462000Y-83644000D01*
X99702000Y-83974000D01*
G36*
X99702000Y-83974000D02*
G01*
X99222000Y-83974000D01*
X99462000Y-83644000D01*
X99702000Y-83974000D01*
G37*
D14*
G04 #@! TO.C,R408*
X103460005Y-111466000D02*
X103460015Y-111066000D01*
X104205840Y-111467056D02*
X104205851Y-111067057D01*
G04 #@! TO.C,R503*
X158756005Y-83793000D02*
X158756015Y-83393000D01*
X159501840Y-83794056D02*
X159501851Y-83394057D01*
G04 #@! TD*
M02*
