M48
; DRILL file {KiCad 8.0.8-8.0.8-0~ubuntu24.04.1} date 2025-02-16T13:41:48+0000
; FORMAT={2:4/ absolute / inch / suppress leading zeros}
; #@! TF.CreationDate,2025-02-16T13:41:48+00:00
; #@! TF.GenerationSoftware,Kicad,Pcbnew,8.0.8-8.0.8-0~ubuntu24.04.1
; #@! TF.FileFunction,MixedPlating,1,4
FMAT,2
INCH,TZ
; #@! TA.AperFunction,Plated,PTH,ComponentDrill
T1C0.0118
; #@! TA.AperFunction,Plated,PTH,ComponentDrill
T2C0.0118
; #@! TA.AperFunction,Plated,PTH,ComponentDrill
T3C0.0362
; #@! TA.AperFunction,Plated,PTH,ComponentDrill
T4C0.0394
; #@! TA.AperFunction,Plated,PTH,ComponentDrill
T5C0.0433
; #@! TA.AperFunction,Plated,PTH,ComponentDrill
T6C0.0591
; #@! TA.AperFunction,Plated,PTH,ComponentDrill
T7C0.0709
; #@! TA.AperFunction,Plated,PTH,ComponentDrill
T8C0.0917
; #@! TA.AperFunction,NonPlated,NPTH,ComponentDrill
T9C0.0866
; #@! TA.AperFunction,NonPlated,NPTH,ComponentDrill
T10C0.1083
; #@! TA.AperFunction,NonPlated,NPTH,ComponentDrill
T11C0.1181
; #@! TA.AperFunction,NonPlated,NPTH,ComponentDrill
T12C0.1457
%
G90
G05
T1
X45744Y19307
X45774Y17910
X45862Y19809
X46207Y19602
X46691Y27112
X47193Y27112
X47411Y29642
X47842Y27112
X48197Y27112
T2
X16927Y11419
X17321Y11419
X17715Y11419
X18108Y11419
X19035Y21888
X19435Y21888
X20333Y21888
X20726Y21888
X21120Y21888
X25138Y24662
X25138Y22812
X25138Y22261
X25138Y20410
X25138Y20096
X25138Y19072
X25138Y18678
X25138Y18284
X25138Y17891
X25138Y17497
X25138Y17103
X25138Y16710
X25138Y16316
X25138Y12103
X25138Y11710
X25296Y10725
X26241Y10725
X26713Y10725
X27186Y10725
X27658Y10725
X28052Y24662
X28130Y10725
X28445Y24662
X28603Y10725
X29075Y10725
X29508Y24662
X29548Y10725
X30020Y10725
X30493Y10725
X30965Y10725
X31201Y24662
X31438Y10725
X31516Y24662
X31831Y24662
X31910Y10725
X32146Y24662
X32382Y10725
X32461Y24662
X32776Y24662
X32855Y10725
X33091Y24662
X33327Y10725
X33406Y24662
X33721Y24662
X33800Y10725
X34272Y10725
X34666Y24662
X34745Y10725
X34981Y24662
X35217Y10725
X35296Y24662
X35611Y24662
X35690Y10725
X35918Y32254
X35918Y31899
X35921Y33688
X35921Y33334
X35926Y24662
X36241Y24662
X36556Y24662
X36871Y24662
X37186Y24662
X37501Y24662
X37816Y24662
X38130Y24662
X38288Y19387
X38288Y13284
X38288Y21828
X38288Y21513
X38288Y21198
X38288Y20883
X38288Y20568
X38288Y20253
X38288Y19702
X38288Y19072
X38288Y18757
X38288Y18442
X38288Y18127
X38288Y17812
X38288Y17497
X38288Y17182
X38288Y16867
X38288Y16552
X38288Y16237
X38288Y15922
X38288Y15607
X38288Y15292
X38288Y14977
X39344Y32254
X39344Y31880
X39344Y31506
X39346Y33688
X39346Y33314
X39346Y32940
X53426Y31633
X53426Y31239
T3
X55922Y5979
X55922Y5192
X56906Y5979
X56906Y5192
T4
X23786Y7597
X23786Y6730
X24573Y7597
X24573Y6730
X25360Y7597
X25360Y6730
X26148Y7597
X26148Y6730
X26935Y7597
X26935Y6730
X27723Y6730
X28510Y6730
X29297Y6730
X30085Y6730
X30872Y7597
X30872Y6730
X31660Y7597
X31660Y6730
X32447Y7597
X32447Y6730
X33234Y7597
X33234Y6730
X34022Y7597
X34022Y6730
X53604Y32755
X53604Y30294
X53604Y28601
X53604Y27853
X53604Y25333
X59706Y32578
X59706Y27833
X59706Y25885
X59706Y25156
T5
X17227Y41343
X17227Y40342
X17227Y37965
X17227Y36956
X18227Y41343
X18227Y40342
X18227Y37965
X18227Y36956
X19227Y41343
X19227Y40342
X19227Y37965
X19227Y36956
X20227Y41343
X20227Y40342
X20227Y37965
X20227Y36956
X21227Y41343
X21227Y40342
X21227Y37965
X21227Y36956
X22228Y41343
X22228Y40342
X22228Y37965
X22228Y36956
X23228Y41343
X23228Y40342
X23228Y37965
X23228Y36956
X24228Y41343
X24228Y40342
X24228Y37965
X24228Y36956
X25228Y41343
X25228Y40342
X25228Y37965
X25228Y36956
X26228Y41343
X26228Y40342
X26228Y37965
X26228Y36956
X28487Y41343
X28487Y40342
X28487Y37965
X28487Y36956
X29487Y41343
X29487Y40342
X29487Y37965
X29487Y36956
X30487Y41343
X30487Y40342
X30487Y37965
X30487Y36956
X31487Y41343
X31487Y40342
X31487Y37965
X31487Y36956
X32487Y41343
X32487Y40342
X32487Y37965
X32487Y36956
X33487Y41343
X33487Y40342
X33487Y37965
X33487Y36956
X34487Y41343
X34487Y40342
X34487Y37965
X34487Y36956
X35487Y41343
X35487Y40342
X35487Y37965
X35487Y36956
X36487Y41343
X36487Y40342
X36487Y37965
X36487Y36956
X37488Y41343
X37488Y40342
X37488Y37965
X37488Y36956
X38488Y41343
X38488Y40342
X38488Y37965
X38488Y36956
X39488Y41343
X39488Y40342
X39488Y37965
X39488Y36956
X40488Y41343
X40488Y40342
X40488Y37965
X40488Y36956
X42729Y41343
X42729Y40342
X42729Y37965
X42729Y36956
X43729Y41343
X43729Y40342
X43729Y37965
X43729Y36956
X44730Y41343
X44730Y40342
X44730Y37965
X44730Y36956
X45730Y41343
X45730Y40342
X45730Y37965
X45730Y36956
X46730Y41343
X46730Y40342
X46730Y37965
X46730Y36956
X47730Y41343
X47730Y40342
X47730Y37965
X47730Y36956
T6
X10560Y41110
X10560Y38866
X10560Y36622
X12527Y41110
X12527Y38866
X12527Y36622
X14502Y41110
X14502Y38866
X14502Y36622
X50488Y41110
X50488Y38866
X50488Y36622
X52455Y41110
X52455Y38866
X52455Y36622
X54422Y41110
X54422Y38866
X54422Y36622
T7
X13450Y7659
X13450Y5494
X15104Y7659
X15104Y5494
X16757Y7659
X16757Y5494
T8
X54044Y4125
X58784Y4125
T9
X6526Y41986
X58022Y41986
T10
X22664Y7085
X35144Y7085
T11
X13450Y2620
X16757Y2620
T12
X7335Y43913
X57222Y43913
M30
