G04 #@! TF.GenerationSoftware,KiCad,Pcbnew,8.0.8*
G04 #@! TF.CreationDate,2025-02-16T14:12:46+01:00*
G04 #@! TF.ProjectId,hellenbms46,68656c6c-656e-4626-9d73-34362e6b6963,rev?*
G04 #@! TF.SameCoordinates,Original*
G04 #@! TF.FileFunction,Soldermask,Bot*
G04 #@! TF.FilePolarity,Negative*
%FSLAX46Y46*%
G04 Gerber Fmt 4.6, Leading zero omitted, Abs format (unit mm)*
G04 Created by KiCad (PCBNEW 8.0.8) date 2025-02-16 14:12:46*
%MOMM*%
%LPD*%
G01*
G04 APERTURE LIST*
%ADD10C,2.750000*%
%ADD11C,1.500000*%
%ADD12C,0.600000*%
%ADD13R,1.700000X1.700000*%
%ADD14C,1.700000*%
%ADD15C,3.500000*%
%ADD16C,3.000000*%
%ADD17O,2.700000X3.700000*%
%ADD18C,0.599999*%
%ADD19C,2.200000*%
%ADD20C,3.700000*%
%ADD21C,1.900000*%
G04 APERTURE END LIST*
D10*
G04 #@! TO.C,J203*
X137565600Y-140004800D03*
X169265600Y-140004800D03*
D11*
X140415600Y-138704800D03*
X142415600Y-138704800D03*
X144415600Y-138704800D03*
X146415600Y-138704800D03*
X148415600Y-138704800D03*
X158415600Y-138704800D03*
X160415600Y-138704800D03*
X162415600Y-138704800D03*
X164415600Y-138704800D03*
X166415600Y-138704800D03*
X140415600Y-140904800D03*
X142415600Y-140904800D03*
X144415600Y-140904800D03*
X146415600Y-140904800D03*
X148415600Y-140904800D03*
X150415600Y-140904800D03*
X152415600Y-140904800D03*
X154415600Y-140904800D03*
X156415600Y-140904800D03*
X158415600Y-140904800D03*
X160415600Y-140904800D03*
X162415600Y-140904800D03*
X164415600Y-140904800D03*
X166415600Y-140904800D03*
G04 #@! TD*
D12*
G04 #@! TO.C,M602*
X179932800Y-76075804D03*
X179932800Y-77025804D03*
X179932800Y-77975802D03*
X171232800Y-76975804D03*
X171232800Y-76075804D03*
G04 #@! TD*
D11*
G04 #@! TO.C,M306*
X216153005Y-93652999D03*
X216153005Y-87253002D03*
X216153005Y-85352999D03*
X216153005Y-81052999D03*
D12*
X215703006Y-78653002D03*
X215703006Y-77653001D03*
D11*
X216153005Y-74802999D03*
X231653002Y-94103001D03*
X231653002Y-92253002D03*
X231653002Y-87302999D03*
X231653002Y-75253001D03*
G04 #@! TD*
D13*
G04 #@! TO.C,J301*
X224541600Y-142813200D03*
D14*
X222041600Y-142813200D03*
X222041600Y-144813200D03*
X224541600Y-144813200D03*
D15*
X229311600Y-147523200D03*
X217271600Y-147523200D03*
G04 #@! TD*
D12*
G04 #@! TO.C,M601*
X179938200Y-72432602D03*
X179938200Y-73382602D03*
X179938200Y-74332600D03*
X171238200Y-73332602D03*
X171238200Y-72432602D03*
G04 #@! TD*
D16*
G04 #@! TO.C,J201*
X122564000Y-151345000D03*
X114164000Y-151345000D03*
G36*
G01*
X123914000Y-142445001D02*
X123914000Y-145644999D01*
G75*
G02*
X123663999Y-145895000I-250001J0D01*
G01*
X121464001Y-145895000D01*
G75*
G02*
X121214000Y-145644999I0J250001D01*
G01*
X121214000Y-142445001D01*
G75*
G02*
X121464001Y-142195000I250001J0D01*
G01*
X123663999Y-142195000D01*
G75*
G02*
X123914000Y-142445001I0J-250001D01*
G01*
G37*
D17*
X118364000Y-144045000D03*
X114164000Y-144045000D03*
X122564000Y-138545000D03*
X118364000Y-138545000D03*
X114164000Y-138545000D03*
G04 #@! TD*
D18*
G04 #@! TO.C,M304*
X200424293Y-82709434D03*
X198594300Y-89134433D03*
X199869298Y-89134433D03*
X201519287Y-89134433D03*
X202419298Y-89134433D03*
G04 #@! TD*
G04 #@! TO.C,M302*
X196490502Y-107684662D03*
X197365504Y-108209662D03*
X196190500Y-108959660D03*
X196265503Y-112509661D03*
G04 #@! TD*
D19*
G04 #@! TO.C,P201*
X227376500Y-51355000D03*
D20*
X225344500Y-46460000D03*
X98630500Y-46460000D03*
D19*
X96576500Y-51355000D03*
D21*
X218231500Y-53580000D03*
X213236500Y-53580000D03*
X208240500Y-53580000D03*
X218231500Y-59281000D03*
X213236500Y-59281000D03*
X208240500Y-59281000D03*
X218231500Y-64981000D03*
X213236500Y-64981000D03*
X208240500Y-64981000D03*
D11*
X201233500Y-52988000D03*
X198693500Y-52988000D03*
X196153500Y-52988000D03*
X193613500Y-52988000D03*
X191072500Y-52988000D03*
X188532500Y-52988000D03*
X201233500Y-55531000D03*
X198693500Y-55531000D03*
X196153500Y-55531000D03*
X193613500Y-55531000D03*
X191072500Y-55531000D03*
X188532500Y-55531000D03*
X201233500Y-61570000D03*
X198693500Y-61570000D03*
X196153500Y-61570000D03*
X193613500Y-61570000D03*
X191072500Y-61570000D03*
X188532500Y-61570000D03*
X201233500Y-64133000D03*
X198693500Y-64133000D03*
X196153500Y-64133000D03*
X193613500Y-64133000D03*
X191072500Y-64133000D03*
X188532500Y-64133000D03*
X182838500Y-52988000D03*
X180298500Y-52988000D03*
X177758500Y-52988000D03*
X175218500Y-52988000D03*
X172677500Y-52988000D03*
X170137500Y-52988000D03*
X167597500Y-52988000D03*
X165057500Y-52988000D03*
X162516500Y-52988000D03*
X159976500Y-52988000D03*
X157436500Y-52988000D03*
X154896500Y-52988000D03*
X152356500Y-52988000D03*
X182838500Y-55531000D03*
X180298500Y-55531000D03*
X177758500Y-55531000D03*
X175218500Y-55531000D03*
X172677500Y-55531000D03*
X170137500Y-55531000D03*
X167597500Y-55531000D03*
X165057500Y-55531000D03*
X162516500Y-55531000D03*
X159976500Y-55531000D03*
X157436500Y-55531000D03*
X154896500Y-55531000D03*
X152356500Y-55531000D03*
X182838500Y-61570000D03*
X180298500Y-61570000D03*
X177758500Y-61570000D03*
X175218500Y-61570000D03*
X172677500Y-61570000D03*
X170137500Y-61570000D03*
X167597500Y-61570000D03*
X165057500Y-61570000D03*
X162516500Y-61570000D03*
X159976500Y-61570000D03*
X157436500Y-61570000D03*
X154896500Y-61570000D03*
X152356500Y-61570000D03*
X182838500Y-64133000D03*
X180298500Y-64133000D03*
X177758500Y-64133000D03*
X175218500Y-64133000D03*
X172677500Y-64133000D03*
X170137500Y-64133000D03*
X167597500Y-64133000D03*
X165057500Y-64133000D03*
X162516500Y-64133000D03*
X159976500Y-64133000D03*
X157436500Y-64133000D03*
X154896500Y-64133000D03*
X152356500Y-64133000D03*
X146618500Y-52988000D03*
X144078500Y-52988000D03*
X141538500Y-52988000D03*
X138998500Y-52988000D03*
X136458500Y-52988000D03*
X133917500Y-52988000D03*
X131377500Y-52988000D03*
X128837500Y-52988000D03*
X126297500Y-52988000D03*
X123756500Y-52988000D03*
X146618500Y-55531000D03*
X144078500Y-55531000D03*
X141538500Y-55531000D03*
X138998500Y-55531000D03*
X136458500Y-55531000D03*
X133917500Y-55531000D03*
X131377500Y-55531000D03*
X128837500Y-55531000D03*
X126297500Y-55531000D03*
X123756500Y-55531000D03*
X146618500Y-61570000D03*
X144078500Y-61570000D03*
X141538500Y-61570000D03*
X138998500Y-61570000D03*
X136458500Y-61570000D03*
X133917500Y-61570000D03*
X131377500Y-61570000D03*
X128837500Y-61570000D03*
X126297500Y-61570000D03*
X123756500Y-61570000D03*
X146618500Y-64133000D03*
X144078500Y-64133000D03*
X141538500Y-64133000D03*
X138998500Y-64133000D03*
X136458500Y-64133000D03*
X133917500Y-64133000D03*
X131377500Y-64133000D03*
X128837500Y-64133000D03*
X126297500Y-64133000D03*
X123756500Y-64133000D03*
D21*
X116834500Y-53580000D03*
X111817500Y-53580000D03*
X106822500Y-53580000D03*
X116834500Y-59281000D03*
X111817500Y-59281000D03*
X106822500Y-59281000D03*
X116834500Y-64981000D03*
X111817500Y-64981000D03*
X106822500Y-64981000D03*
G04 #@! TD*
M02*
