G04 #@! TF.GenerationSoftware,KiCad,Pcbnew,8.0.9-8.0.9-0~ubuntu24.04.1*
G04 #@! TF.CreationDate,2025-02-20T18:22:35+00:00*
G04 #@! TF.ProjectId,hellenbms46,68656c6c-656e-4626-9d73-34362e6b6963,rev?*
G04 #@! TF.SameCoordinates,PX4c4b400PY96ae380*
G04 #@! TF.FileFunction,Paste,Top*
G04 #@! TF.FilePolarity,Positive*
%FSLAX46Y46*%
G04 Gerber Fmt 4.6, Leading zero omitted, Abs format (unit mm)*
G04 Created by KiCad (PCBNEW 8.0.9-8.0.9-0~ubuntu24.04.1) date 2025-02-20 18:22:35*
%MOMM*%
%LPD*%
G01*
G04 APERTURE LIST*
%ADD10R,3.510000X2.540000*%
%ADD11O,0.000001X0.000001*%
G04 APERTURE END LIST*
D10*
G04 #@! TO.C,BT3001*
X144078800Y54265200D03*
X144078800Y24905200D03*
G04 #@! TD*
G04 #@! TO.C,F4002*
G36*
G01*
X25175500Y64718750D02*
X25175500Y65231250D01*
G75*
G02*
X25394250Y65450000I218750J0D01*
G01*
X25831750Y65450000D01*
G75*
G02*
X26050500Y65231250I0J-218750D01*
G01*
X26050500Y64718750D01*
G75*
G02*
X25831750Y64500000I-218750J0D01*
G01*
X25394250Y64500000D01*
G75*
G02*
X25175500Y64718750I0J218750D01*
G01*
G37*
G36*
G01*
X26750500Y64718750D02*
X26750500Y65231250D01*
G75*
G02*
X26969250Y65450000I218750J0D01*
G01*
X27406750Y65450000D01*
G75*
G02*
X27625500Y65231250I0J-218750D01*
G01*
X27625500Y64718750D01*
G75*
G02*
X27406750Y64500000I-218750J0D01*
G01*
X26969250Y64500000D01*
G75*
G02*
X26750500Y64718750I0J218750D01*
G01*
G37*
G04 #@! TD*
G04 #@! TO.C,U7001*
G36*
G01*
X114050000Y71755000D02*
X114050000Y72055000D01*
G75*
G02*
X114200000Y72205000I150000J0D01*
G01*
X115850000Y72205000D01*
G75*
G02*
X116000000Y72055000I0J-150000D01*
G01*
X116000000Y71755000D01*
G75*
G02*
X115850000Y71605000I-150000J0D01*
G01*
X114200000Y71605000D01*
G75*
G02*
X114050000Y71755000I0J150000D01*
G01*
G37*
G36*
G01*
X114050000Y70485000D02*
X114050000Y70785000D01*
G75*
G02*
X114200000Y70935000I150000J0D01*
G01*
X115850000Y70935000D01*
G75*
G02*
X116000000Y70785000I0J-150000D01*
G01*
X116000000Y70485000D01*
G75*
G02*
X115850000Y70335000I-150000J0D01*
G01*
X114200000Y70335000D01*
G75*
G02*
X114050000Y70485000I0J150000D01*
G01*
G37*
G36*
G01*
X114050000Y69215000D02*
X114050000Y69515000D01*
G75*
G02*
X114200000Y69665000I150000J0D01*
G01*
X115850000Y69665000D01*
G75*
G02*
X116000000Y69515000I0J-150000D01*
G01*
X116000000Y69215000D01*
G75*
G02*
X115850000Y69065000I-150000J0D01*
G01*
X114200000Y69065000D01*
G75*
G02*
X114050000Y69215000I0J150000D01*
G01*
G37*
G36*
G01*
X114050000Y67945000D02*
X114050000Y68245000D01*
G75*
G02*
X114200000Y68395000I150000J0D01*
G01*
X115850000Y68395000D01*
G75*
G02*
X116000000Y68245000I0J-150000D01*
G01*
X116000000Y67945000D01*
G75*
G02*
X115850000Y67795000I-150000J0D01*
G01*
X114200000Y67795000D01*
G75*
G02*
X114050000Y67945000I0J150000D01*
G01*
G37*
G36*
G01*
X119000000Y67945000D02*
X119000000Y68245000D01*
G75*
G02*
X119150000Y68395000I150000J0D01*
G01*
X120800000Y68395000D01*
G75*
G02*
X120950000Y68245000I0J-150000D01*
G01*
X120950000Y67945000D01*
G75*
G02*
X120800000Y67795000I-150000J0D01*
G01*
X119150000Y67795000D01*
G75*
G02*
X119000000Y67945000I0J150000D01*
G01*
G37*
G36*
G01*
X119000000Y69215000D02*
X119000000Y69515000D01*
G75*
G02*
X119150000Y69665000I150000J0D01*
G01*
X120800000Y69665000D01*
G75*
G02*
X120950000Y69515000I0J-150000D01*
G01*
X120950000Y69215000D01*
G75*
G02*
X120800000Y69065000I-150000J0D01*
G01*
X119150000Y69065000D01*
G75*
G02*
X119000000Y69215000I0J150000D01*
G01*
G37*
G36*
G01*
X119000000Y70485000D02*
X119000000Y70785000D01*
G75*
G02*
X119150000Y70935000I150000J0D01*
G01*
X120800000Y70935000D01*
G75*
G02*
X120950000Y70785000I0J-150000D01*
G01*
X120950000Y70485000D01*
G75*
G02*
X120800000Y70335000I-150000J0D01*
G01*
X119150000Y70335000D01*
G75*
G02*
X119000000Y70485000I0J150000D01*
G01*
G37*
G36*
G01*
X119000000Y71755000D02*
X119000000Y72055000D01*
G75*
G02*
X119150000Y72205000I150000J0D01*
G01*
X120800000Y72205000D01*
G75*
G02*
X120950000Y72055000I0J-150000D01*
G01*
X120950000Y71755000D01*
G75*
G02*
X120800000Y71605000I-150000J0D01*
G01*
X119150000Y71605000D01*
G75*
G02*
X119000000Y71755000I0J150000D01*
G01*
G37*
G04 #@! TD*
G04 #@! TO.C,R7003*
G36*
G01*
X122650000Y68110000D02*
X122650000Y68890000D01*
G75*
G02*
X122720000Y68960000I70000J0D01*
G01*
X123280000Y68960000D01*
G75*
G02*
X123350000Y68890000I0J-70000D01*
G01*
X123350000Y68110000D01*
G75*
G02*
X123280000Y68040000I-70000J0D01*
G01*
X122720000Y68040000D01*
G75*
G02*
X122650000Y68110000I0J70000D01*
G01*
G37*
G36*
G01*
X124250000Y68110000D02*
X124250000Y68890000D01*
G75*
G02*
X124320000Y68960000I70000J0D01*
G01*
X124880000Y68960000D01*
G75*
G02*
X124950000Y68890000I0J-70000D01*
G01*
X124950000Y68110000D01*
G75*
G02*
X124880000Y68040000I-70000J0D01*
G01*
X124320000Y68040000D01*
G75*
G02*
X124250000Y68110000I0J70000D01*
G01*
G37*
G04 #@! TD*
G04 #@! TO.C,U10001*
G36*
G01*
X54245000Y67050000D02*
X53945000Y67050000D01*
G75*
G02*
X53795000Y67200000I0J150000D01*
G01*
X53795000Y68850000D01*
G75*
G02*
X53945000Y69000000I150000J0D01*
G01*
X54245000Y69000000D01*
G75*
G02*
X54395000Y68850000I0J-150000D01*
G01*
X54395000Y67200000D01*
G75*
G02*
X54245000Y67050000I-150000J0D01*
G01*
G37*
G36*
G01*
X55515000Y67050000D02*
X55215000Y67050000D01*
G75*
G02*
X55065000Y67200000I0J150000D01*
G01*
X55065000Y68850000D01*
G75*
G02*
X55215000Y69000000I150000J0D01*
G01*
X55515000Y69000000D01*
G75*
G02*
X55665000Y68850000I0J-150000D01*
G01*
X55665000Y67200000D01*
G75*
G02*
X55515000Y67050000I-150000J0D01*
G01*
G37*
G36*
G01*
X56785000Y67050000D02*
X56485000Y67050000D01*
G75*
G02*
X56335000Y67200000I0J150000D01*
G01*
X56335000Y68850000D01*
G75*
G02*
X56485000Y69000000I150000J0D01*
G01*
X56785000Y69000000D01*
G75*
G02*
X56935000Y68850000I0J-150000D01*
G01*
X56935000Y67200000D01*
G75*
G02*
X56785000Y67050000I-150000J0D01*
G01*
G37*
G36*
G01*
X58055000Y67050000D02*
X57755000Y67050000D01*
G75*
G02*
X57605000Y67200000I0J150000D01*
G01*
X57605000Y68850000D01*
G75*
G02*
X57755000Y69000000I150000J0D01*
G01*
X58055000Y69000000D01*
G75*
G02*
X58205000Y68850000I0J-150000D01*
G01*
X58205000Y67200000D01*
G75*
G02*
X58055000Y67050000I-150000J0D01*
G01*
G37*
G36*
G01*
X58055000Y72000000D02*
X57755000Y72000000D01*
G75*
G02*
X57605000Y72150000I0J150000D01*
G01*
X57605000Y73800000D01*
G75*
G02*
X57755000Y73950000I150000J0D01*
G01*
X58055000Y73950000D01*
G75*
G02*
X58205000Y73800000I0J-150000D01*
G01*
X58205000Y72150000D01*
G75*
G02*
X58055000Y72000000I-150000J0D01*
G01*
G37*
G36*
G01*
X56785000Y72000000D02*
X56485000Y72000000D01*
G75*
G02*
X56335000Y72150000I0J150000D01*
G01*
X56335000Y73800000D01*
G75*
G02*
X56485000Y73950000I150000J0D01*
G01*
X56785000Y73950000D01*
G75*
G02*
X56935000Y73800000I0J-150000D01*
G01*
X56935000Y72150000D01*
G75*
G02*
X56785000Y72000000I-150000J0D01*
G01*
G37*
G36*
G01*
X55515000Y72000000D02*
X55215000Y72000000D01*
G75*
G02*
X55065000Y72150000I0J150000D01*
G01*
X55065000Y73800000D01*
G75*
G02*
X55215000Y73950000I150000J0D01*
G01*
X55515000Y73950000D01*
G75*
G02*
X55665000Y73800000I0J-150000D01*
G01*
X55665000Y72150000D01*
G75*
G02*
X55515000Y72000000I-150000J0D01*
G01*
G37*
G36*
G01*
X54245000Y72000000D02*
X53945000Y72000000D01*
G75*
G02*
X53795000Y72150000I0J150000D01*
G01*
X53795000Y73800000D01*
G75*
G02*
X53945000Y73950000I150000J0D01*
G01*
X54245000Y73950000D01*
G75*
G02*
X54395000Y73800000I0J-150000D01*
G01*
X54395000Y72150000D01*
G75*
G02*
X54245000Y72000000I-150000J0D01*
G01*
G37*
G04 #@! TD*
G04 #@! TO.C,R9002*
G36*
G01*
X114300000Y52054359D02*
X114300000Y52834359D01*
G75*
G02*
X114370000Y52904359I70000J0D01*
G01*
X114930000Y52904359D01*
G75*
G02*
X115000000Y52834359I0J-70000D01*
G01*
X115000000Y52054359D01*
G75*
G02*
X114930000Y51984359I-70000J0D01*
G01*
X114370000Y51984359D01*
G75*
G02*
X114300000Y52054359I0J70000D01*
G01*
G37*
G36*
G01*
X115900000Y52054359D02*
X115900000Y52834359D01*
G75*
G02*
X115970000Y52904359I70000J0D01*
G01*
X116530000Y52904359D01*
G75*
G02*
X116600000Y52834359I0J-70000D01*
G01*
X116600000Y52054359D01*
G75*
G02*
X116530000Y51984359I-70000J0D01*
G01*
X115970000Y51984359D01*
G75*
G02*
X115900000Y52054359I0J70000D01*
G01*
G37*
G04 #@! TD*
G04 #@! TO.C,F4001*
G36*
G01*
X25175500Y77239750D02*
X25175500Y77752250D01*
G75*
G02*
X25394250Y77971000I218750J0D01*
G01*
X25831750Y77971000D01*
G75*
G02*
X26050500Y77752250I0J-218750D01*
G01*
X26050500Y77239750D01*
G75*
G02*
X25831750Y77021000I-218750J0D01*
G01*
X25394250Y77021000D01*
G75*
G02*
X25175500Y77239750I0J218750D01*
G01*
G37*
G36*
G01*
X26750500Y77239750D02*
X26750500Y77752250D01*
G75*
G02*
X26969250Y77971000I218750J0D01*
G01*
X27406750Y77971000D01*
G75*
G02*
X27625500Y77752250I0J-218750D01*
G01*
X27625500Y77239750D01*
G75*
G02*
X27406750Y77021000I-218750J0D01*
G01*
X26969250Y77021000D01*
G75*
G02*
X26750500Y77239750I0J218750D01*
G01*
G37*
G04 #@! TD*
G04 #@! TO.C,U5002*
G36*
G01*
X79325000Y73050000D02*
X79025000Y73050000D01*
G75*
G02*
X78875000Y73200000I0J150000D01*
G01*
X78875000Y74850000D01*
G75*
G02*
X79025000Y75000000I150000J0D01*
G01*
X79325000Y75000000D01*
G75*
G02*
X79475000Y74850000I0J-150000D01*
G01*
X79475000Y73200000D01*
G75*
G02*
X79325000Y73050000I-150000J0D01*
G01*
G37*
G36*
G01*
X80595000Y73050000D02*
X80295000Y73050000D01*
G75*
G02*
X80145000Y73200000I0J150000D01*
G01*
X80145000Y74850000D01*
G75*
G02*
X80295000Y75000000I150000J0D01*
G01*
X80595000Y75000000D01*
G75*
G02*
X80745000Y74850000I0J-150000D01*
G01*
X80745000Y73200000D01*
G75*
G02*
X80595000Y73050000I-150000J0D01*
G01*
G37*
G36*
G01*
X81865000Y73050000D02*
X81565000Y73050000D01*
G75*
G02*
X81415000Y73200000I0J150000D01*
G01*
X81415000Y74850000D01*
G75*
G02*
X81565000Y75000000I150000J0D01*
G01*
X81865000Y75000000D01*
G75*
G02*
X82015000Y74850000I0J-150000D01*
G01*
X82015000Y73200000D01*
G75*
G02*
X81865000Y73050000I-150000J0D01*
G01*
G37*
G36*
G01*
X83135000Y73050000D02*
X82835000Y73050000D01*
G75*
G02*
X82685000Y73200000I0J150000D01*
G01*
X82685000Y74850000D01*
G75*
G02*
X82835000Y75000000I150000J0D01*
G01*
X83135000Y75000000D01*
G75*
G02*
X83285000Y74850000I0J-150000D01*
G01*
X83285000Y73200000D01*
G75*
G02*
X83135000Y73050000I-150000J0D01*
G01*
G37*
G36*
G01*
X83135000Y78000000D02*
X82835000Y78000000D01*
G75*
G02*
X82685000Y78150000I0J150000D01*
G01*
X82685000Y79800000D01*
G75*
G02*
X82835000Y79950000I150000J0D01*
G01*
X83135000Y79950000D01*
G75*
G02*
X83285000Y79800000I0J-150000D01*
G01*
X83285000Y78150000D01*
G75*
G02*
X83135000Y78000000I-150000J0D01*
G01*
G37*
G36*
G01*
X81865000Y78000000D02*
X81565000Y78000000D01*
G75*
G02*
X81415000Y78150000I0J150000D01*
G01*
X81415000Y79800000D01*
G75*
G02*
X81565000Y79950000I150000J0D01*
G01*
X81865000Y79950000D01*
G75*
G02*
X82015000Y79800000I0J-150000D01*
G01*
X82015000Y78150000D01*
G75*
G02*
X81865000Y78000000I-150000J0D01*
G01*
G37*
G36*
G01*
X80595000Y78000000D02*
X80295000Y78000000D01*
G75*
G02*
X80145000Y78150000I0J150000D01*
G01*
X80145000Y79800000D01*
G75*
G02*
X80295000Y79950000I150000J0D01*
G01*
X80595000Y79950000D01*
G75*
G02*
X80745000Y79800000I0J-150000D01*
G01*
X80745000Y78150000D01*
G75*
G02*
X80595000Y78000000I-150000J0D01*
G01*
G37*
G36*
G01*
X79325000Y78000000D02*
X79025000Y78000000D01*
G75*
G02*
X78875000Y78150000I0J150000D01*
G01*
X78875000Y79800000D01*
G75*
G02*
X79025000Y79950000I150000J0D01*
G01*
X79325000Y79950000D01*
G75*
G02*
X79475000Y79800000I0J-150000D01*
G01*
X79475000Y78150000D01*
G75*
G02*
X79325000Y78000000I-150000J0D01*
G01*
G37*
G04 #@! TD*
G04 #@! TO.C,R5001*
G36*
G01*
X77639954Y68973000D02*
X76859954Y68973000D01*
G75*
G02*
X76789954Y69043000I0J70000D01*
G01*
X76789954Y69603000D01*
G75*
G02*
X76859954Y69673000I70000J0D01*
G01*
X77639954Y69673000D01*
G75*
G02*
X77709954Y69603000I0J-70000D01*
G01*
X77709954Y69043000D01*
G75*
G02*
X77639954Y68973000I-70000J0D01*
G01*
G37*
G36*
G01*
X77639954Y70573000D02*
X76859954Y70573000D01*
G75*
G02*
X76789954Y70643000I0J70000D01*
G01*
X76789954Y71203000D01*
G75*
G02*
X76859954Y71273000I70000J0D01*
G01*
X77639954Y71273000D01*
G75*
G02*
X77709954Y71203000I0J-70000D01*
G01*
X77709954Y70643000D01*
G75*
G02*
X77639954Y70573000I-70000J0D01*
G01*
G37*
G04 #@! TD*
G04 #@! TO.C,R9001*
G36*
G01*
X114300000Y54003405D02*
X114300000Y54783405D01*
G75*
G02*
X114370000Y54853405I70000J0D01*
G01*
X114930000Y54853405D01*
G75*
G02*
X115000000Y54783405I0J-70000D01*
G01*
X115000000Y54003405D01*
G75*
G02*
X114930000Y53933405I-70000J0D01*
G01*
X114370000Y53933405D01*
G75*
G02*
X114300000Y54003405I0J70000D01*
G01*
G37*
G36*
G01*
X115900000Y54003405D02*
X115900000Y54783405D01*
G75*
G02*
X115970000Y54853405I70000J0D01*
G01*
X116530000Y54853405D01*
G75*
G02*
X116600000Y54783405I0J-70000D01*
G01*
X116600000Y54003405D01*
G75*
G02*
X116530000Y53933405I-70000J0D01*
G01*
X115970000Y53933405D01*
G75*
G02*
X115900000Y54003405I0J70000D01*
G01*
G37*
G04 #@! TD*
G04 #@! TO.C,R11001*
G36*
G01*
X23390000Y28650000D02*
X22610000Y28650000D01*
G75*
G02*
X22540000Y28720000I0J70000D01*
G01*
X22540000Y29280000D01*
G75*
G02*
X22610000Y29350000I70000J0D01*
G01*
X23390000Y29350000D01*
G75*
G02*
X23460000Y29280000I0J-70000D01*
G01*
X23460000Y28720000D01*
G75*
G02*
X23390000Y28650000I-70000J0D01*
G01*
G37*
G36*
G01*
X23390000Y30250000D02*
X22610000Y30250000D01*
G75*
G02*
X22540000Y30320000I0J70000D01*
G01*
X22540000Y30880000D01*
G75*
G02*
X22610000Y30950000I70000J0D01*
G01*
X23390000Y30950000D01*
G75*
G02*
X23460000Y30880000I0J-70000D01*
G01*
X23460000Y30320000D01*
G75*
G02*
X23390000Y30250000I-70000J0D01*
G01*
G37*
G04 #@! TD*
G04 #@! TO.C,JP4001*
G36*
G01*
X17049999Y81875000D02*
X17049999Y83125000D01*
G75*
G02*
X17149999Y83225000I100000J0D01*
G01*
X17949999Y83225000D01*
G75*
G02*
X18049999Y83125000I0J-100000D01*
G01*
X18049999Y81875000D01*
G75*
G02*
X17949999Y81775000I-100000J0D01*
G01*
X17149999Y81775000D01*
G75*
G02*
X17049999Y81875000I0J100000D01*
G01*
G37*
G36*
G01*
X18950021Y81875000D02*
X18950021Y83125000D01*
G75*
G02*
X19050021Y83225000I100000J0D01*
G01*
X19850021Y83225000D01*
G75*
G02*
X19950021Y83125000I0J-100000D01*
G01*
X19950021Y81875000D01*
G75*
G02*
X19850021Y81775000I-100000J0D01*
G01*
X19050021Y81775000D01*
G75*
G02*
X18950021Y81875000I0J100000D01*
G01*
G37*
G04 #@! TD*
G04 #@! TO.C,U5001*
G36*
G01*
X72745000Y73050000D02*
X72445000Y73050000D01*
G75*
G02*
X72295000Y73200000I0J150000D01*
G01*
X72295000Y74850000D01*
G75*
G02*
X72445000Y75000000I150000J0D01*
G01*
X72745000Y75000000D01*
G75*
G02*
X72895000Y74850000I0J-150000D01*
G01*
X72895000Y73200000D01*
G75*
G02*
X72745000Y73050000I-150000J0D01*
G01*
G37*
G36*
G01*
X74015000Y73050000D02*
X73715000Y73050000D01*
G75*
G02*
X73565000Y73200000I0J150000D01*
G01*
X73565000Y74850000D01*
G75*
G02*
X73715000Y75000000I150000J0D01*
G01*
X74015000Y75000000D01*
G75*
G02*
X74165000Y74850000I0J-150000D01*
G01*
X74165000Y73200000D01*
G75*
G02*
X74015000Y73050000I-150000J0D01*
G01*
G37*
G36*
G01*
X75285000Y73050000D02*
X74985000Y73050000D01*
G75*
G02*
X74835000Y73200000I0J150000D01*
G01*
X74835000Y74850000D01*
G75*
G02*
X74985000Y75000000I150000J0D01*
G01*
X75285000Y75000000D01*
G75*
G02*
X75435000Y74850000I0J-150000D01*
G01*
X75435000Y73200000D01*
G75*
G02*
X75285000Y73050000I-150000J0D01*
G01*
G37*
G36*
G01*
X76555000Y73050000D02*
X76255000Y73050000D01*
G75*
G02*
X76105000Y73200000I0J150000D01*
G01*
X76105000Y74850000D01*
G75*
G02*
X76255000Y75000000I150000J0D01*
G01*
X76555000Y75000000D01*
G75*
G02*
X76705000Y74850000I0J-150000D01*
G01*
X76705000Y73200000D01*
G75*
G02*
X76555000Y73050000I-150000J0D01*
G01*
G37*
G36*
G01*
X76555000Y78000000D02*
X76255000Y78000000D01*
G75*
G02*
X76105000Y78150000I0J150000D01*
G01*
X76105000Y79800000D01*
G75*
G02*
X76255000Y79950000I150000J0D01*
G01*
X76555000Y79950000D01*
G75*
G02*
X76705000Y79800000I0J-150000D01*
G01*
X76705000Y78150000D01*
G75*
G02*
X76555000Y78000000I-150000J0D01*
G01*
G37*
G36*
G01*
X75285000Y78000000D02*
X74985000Y78000000D01*
G75*
G02*
X74835000Y78150000I0J150000D01*
G01*
X74835000Y79800000D01*
G75*
G02*
X74985000Y79950000I150000J0D01*
G01*
X75285000Y79950000D01*
G75*
G02*
X75435000Y79800000I0J-150000D01*
G01*
X75435000Y78150000D01*
G75*
G02*
X75285000Y78000000I-150000J0D01*
G01*
G37*
G36*
G01*
X74015000Y78000000D02*
X73715000Y78000000D01*
G75*
G02*
X73565000Y78150000I0J150000D01*
G01*
X73565000Y79800000D01*
G75*
G02*
X73715000Y79950000I150000J0D01*
G01*
X74015000Y79950000D01*
G75*
G02*
X74165000Y79800000I0J-150000D01*
G01*
X74165000Y78150000D01*
G75*
G02*
X74015000Y78000000I-150000J0D01*
G01*
G37*
G36*
G01*
X72745000Y78000000D02*
X72445000Y78000000D01*
G75*
G02*
X72295000Y78150000I0J150000D01*
G01*
X72295000Y79800000D01*
G75*
G02*
X72445000Y79950000I150000J0D01*
G01*
X72745000Y79950000D01*
G75*
G02*
X72895000Y79800000I0J-150000D01*
G01*
X72895000Y78150000D01*
G75*
G02*
X72745000Y78000000I-150000J0D01*
G01*
G37*
G04 #@! TD*
G04 #@! TO.C,JP4004*
G36*
G01*
X17500000Y46858000D02*
X17500000Y48108000D01*
G75*
G02*
X17600000Y48208000I100000J0D01*
G01*
X18400000Y48208000D01*
G75*
G02*
X18500000Y48108000I0J-100000D01*
G01*
X18500000Y46858000D01*
G75*
G02*
X18400000Y46758000I-100000J0D01*
G01*
X17600000Y46758000D01*
G75*
G02*
X17500000Y46858000I0J100000D01*
G01*
G37*
G36*
G01*
X19400022Y46858000D02*
X19400022Y48108000D01*
G75*
G02*
X19500022Y48208000I100000J0D01*
G01*
X20300022Y48208000D01*
G75*
G02*
X20400022Y48108000I0J-100000D01*
G01*
X20400022Y46858000D01*
G75*
G02*
X20300022Y46758000I-100000J0D01*
G01*
X19500022Y46758000D01*
G75*
G02*
X19400022Y46858000I0J100000D01*
G01*
G37*
G04 #@! TD*
G04 #@! TO.C,Q11001*
G36*
G01*
X20600000Y28350000D02*
X20600000Y27650000D01*
G75*
G02*
X20350000Y27400000I-250000J0D01*
G01*
X18650000Y27400000D01*
G75*
G02*
X18400000Y27650000I0J250000D01*
G01*
X18400000Y28350000D01*
G75*
G02*
X18650000Y28600000I250000J0D01*
G01*
X20350000Y28600000D01*
G75*
G02*
X20600000Y28350000I0J-250000D01*
G01*
G37*
G36*
G01*
X16400000Y29880000D02*
X16400000Y27630000D01*
G75*
G02*
X16150000Y27380000I-250000J0D01*
G01*
X13600000Y27380000D01*
G75*
G02*
X13350000Y27630000I0J250000D01*
G01*
X13350000Y29880000D01*
G75*
G02*
X13600000Y30130000I250000J0D01*
G01*
X16150000Y30130000D01*
G75*
G02*
X16400000Y29880000I0J-250000D01*
G01*
G37*
G36*
G01*
X16400000Y32930000D02*
X16400000Y30680000D01*
G75*
G02*
X16150000Y30430000I-250000J0D01*
G01*
X13600000Y30430000D01*
G75*
G02*
X13350000Y30680000I0J250000D01*
G01*
X13350000Y32930000D01*
G75*
G02*
X13600000Y33180000I250000J0D01*
G01*
X16150000Y33180000D01*
G75*
G02*
X16400000Y32930000I0J-250000D01*
G01*
G37*
G36*
G01*
X13050000Y29880000D02*
X13050000Y27630000D01*
G75*
G02*
X12800000Y27380000I-250000J0D01*
G01*
X10250000Y27380000D01*
G75*
G02*
X10000000Y27630000I0J250000D01*
G01*
X10000000Y29880000D01*
G75*
G02*
X10250000Y30130000I250000J0D01*
G01*
X12800000Y30130000D01*
G75*
G02*
X13050000Y29880000I0J-250000D01*
G01*
G37*
G36*
G01*
X13050000Y32930000D02*
X13050000Y30680000D01*
G75*
G02*
X12800000Y30430000I-250000J0D01*
G01*
X10250000Y30430000D01*
G75*
G02*
X10000000Y30680000I0J250000D01*
G01*
X10000000Y32930000D01*
G75*
G02*
X10250000Y33180000I250000J0D01*
G01*
X12800000Y33180000D01*
G75*
G02*
X13050000Y32930000I0J-250000D01*
G01*
G37*
G36*
G01*
X20600000Y32910000D02*
X20600000Y32210000D01*
G75*
G02*
X20350000Y31960000I-250000J0D01*
G01*
X18650000Y31960000D01*
G75*
G02*
X18400000Y32210000I0J250000D01*
G01*
X18400000Y32910000D01*
G75*
G02*
X18650000Y33160000I250000J0D01*
G01*
X20350000Y33160000D01*
G75*
G02*
X20600000Y32910000I0J-250000D01*
G01*
G37*
G04 #@! TD*
G04 #@! TO.C,U8001*
G36*
G01*
X116575000Y33850000D02*
X116575000Y34150000D01*
G75*
G02*
X116725000Y34300000I150000J0D01*
G01*
X118375000Y34300000D01*
G75*
G02*
X118525000Y34150000I0J-150000D01*
G01*
X118525000Y33850000D01*
G75*
G02*
X118375000Y33700000I-150000J0D01*
G01*
X116725000Y33700000D01*
G75*
G02*
X116575000Y33850000I0J150000D01*
G01*
G37*
G36*
G01*
X116575000Y32580000D02*
X116575000Y32880000D01*
G75*
G02*
X116725000Y33030000I150000J0D01*
G01*
X118375000Y33030000D01*
G75*
G02*
X118525000Y32880000I0J-150000D01*
G01*
X118525000Y32580000D01*
G75*
G02*
X118375000Y32430000I-150000J0D01*
G01*
X116725000Y32430000D01*
G75*
G02*
X116575000Y32580000I0J150000D01*
G01*
G37*
G36*
G01*
X116575000Y31310000D02*
X116575000Y31610000D01*
G75*
G02*
X116725000Y31760000I150000J0D01*
G01*
X118375000Y31760000D01*
G75*
G02*
X118525000Y31610000I0J-150000D01*
G01*
X118525000Y31310000D01*
G75*
G02*
X118375000Y31160000I-150000J0D01*
G01*
X116725000Y31160000D01*
G75*
G02*
X116575000Y31310000I0J150000D01*
G01*
G37*
G36*
G01*
X116575000Y30040000D02*
X116575000Y30340000D01*
G75*
G02*
X116725000Y30490000I150000J0D01*
G01*
X118375000Y30490000D01*
G75*
G02*
X118525000Y30340000I0J-150000D01*
G01*
X118525000Y30040000D01*
G75*
G02*
X118375000Y29890000I-150000J0D01*
G01*
X116725000Y29890000D01*
G75*
G02*
X116575000Y30040000I0J150000D01*
G01*
G37*
G36*
G01*
X121525000Y30040000D02*
X121525000Y30340000D01*
G75*
G02*
X121675000Y30490000I150000J0D01*
G01*
X123325000Y30490000D01*
G75*
G02*
X123475000Y30340000I0J-150000D01*
G01*
X123475000Y30040000D01*
G75*
G02*
X123325000Y29890000I-150000J0D01*
G01*
X121675000Y29890000D01*
G75*
G02*
X121525000Y30040000I0J150000D01*
G01*
G37*
G36*
G01*
X121525000Y31310000D02*
X121525000Y31610000D01*
G75*
G02*
X121675000Y31760000I150000J0D01*
G01*
X123325000Y31760000D01*
G75*
G02*
X123475000Y31610000I0J-150000D01*
G01*
X123475000Y31310000D01*
G75*
G02*
X123325000Y31160000I-150000J0D01*
G01*
X121675000Y31160000D01*
G75*
G02*
X121525000Y31310000I0J150000D01*
G01*
G37*
G36*
G01*
X121525000Y32580000D02*
X121525000Y32880000D01*
G75*
G02*
X121675000Y33030000I150000J0D01*
G01*
X123325000Y33030000D01*
G75*
G02*
X123475000Y32880000I0J-150000D01*
G01*
X123475000Y32580000D01*
G75*
G02*
X123325000Y32430000I-150000J0D01*
G01*
X121675000Y32430000D01*
G75*
G02*
X121525000Y32580000I0J150000D01*
G01*
G37*
G36*
G01*
X121525000Y33850000D02*
X121525000Y34150000D01*
G75*
G02*
X121675000Y34300000I150000J0D01*
G01*
X123325000Y34300000D01*
G75*
G02*
X123475000Y34150000I0J-150000D01*
G01*
X123475000Y33850000D01*
G75*
G02*
X123325000Y33700000I-150000J0D01*
G01*
X121675000Y33700000D01*
G75*
G02*
X121525000Y33850000I0J150000D01*
G01*
G37*
G04 #@! TD*
G04 #@! TO.C,C10003*
G36*
G01*
X65875000Y70075000D02*
X64825000Y70075000D01*
G75*
G02*
X64725000Y70175000I0J100000D01*
G01*
X64725000Y70975000D01*
G75*
G02*
X64825000Y71075000I100000J0D01*
G01*
X65875000Y71075000D01*
G75*
G02*
X65975000Y70975000I0J-100000D01*
G01*
X65975000Y70175000D01*
G75*
G02*
X65875000Y70075000I-100000J0D01*
G01*
G37*
G36*
G01*
X65875000Y72075000D02*
X64825000Y72075000D01*
G75*
G02*
X64725000Y72175000I0J100000D01*
G01*
X64725000Y72975000D01*
G75*
G02*
X64825000Y73075000I100000J0D01*
G01*
X65875000Y73075000D01*
G75*
G02*
X65975000Y72975000I0J-100000D01*
G01*
X65975000Y72175000D01*
G75*
G02*
X65875000Y72075000I-100000J0D01*
G01*
G37*
G04 #@! TD*
G04 #@! TO.C,F11001*
G36*
G01*
X24775000Y30243750D02*
X24775000Y30756250D01*
G75*
G02*
X24993750Y30975000I218750J0D01*
G01*
X25431250Y30975000D01*
G75*
G02*
X25650000Y30756250I0J-218750D01*
G01*
X25650000Y30243750D01*
G75*
G02*
X25431250Y30025000I-218750J0D01*
G01*
X24993750Y30025000D01*
G75*
G02*
X24775000Y30243750I0J218750D01*
G01*
G37*
G36*
G01*
X26350000Y30243750D02*
X26350000Y30756250D01*
G75*
G02*
X26568750Y30975000I218750J0D01*
G01*
X27006250Y30975000D01*
G75*
G02*
X27225000Y30756250I0J-218750D01*
G01*
X27225000Y30243750D01*
G75*
G02*
X27006250Y30025000I-218750J0D01*
G01*
X26568750Y30025000D01*
G75*
G02*
X26350000Y30243750I0J218750D01*
G01*
G37*
G04 #@! TD*
G04 #@! TO.C,C6002*
G36*
G01*
X98304200Y78497400D02*
X98304200Y79547400D01*
G75*
G02*
X98404200Y79647400I100000J0D01*
G01*
X99204200Y79647400D01*
G75*
G02*
X99304200Y79547400I0J-100000D01*
G01*
X99304200Y78497400D01*
G75*
G02*
X99204200Y78397400I-100000J0D01*
G01*
X98404200Y78397400D01*
G75*
G02*
X98304200Y78497400I0J100000D01*
G01*
G37*
G36*
G01*
X100304200Y78497400D02*
X100304200Y79547400D01*
G75*
G02*
X100404200Y79647400I100000J0D01*
G01*
X101204200Y79647400D01*
G75*
G02*
X101304200Y79547400I0J-100000D01*
G01*
X101304200Y78497400D01*
G75*
G02*
X101204200Y78397400I-100000J0D01*
G01*
X100404200Y78397400D01*
G75*
G02*
X100304200Y78497400I0J100000D01*
G01*
G37*
G04 #@! TD*
G04 #@! TO.C,R4004*
G36*
G01*
X24225000Y40567000D02*
X23445000Y40567000D01*
G75*
G02*
X23375000Y40637000I0J70000D01*
G01*
X23375000Y41197000D01*
G75*
G02*
X23445000Y41267000I70000J0D01*
G01*
X24225000Y41267000D01*
G75*
G02*
X24295000Y41197000I0J-70000D01*
G01*
X24295000Y40637000D01*
G75*
G02*
X24225000Y40567000I-70000J0D01*
G01*
G37*
G36*
G01*
X24225000Y42167000D02*
X23445000Y42167000D01*
G75*
G02*
X23375000Y42237000I0J70000D01*
G01*
X23375000Y42797000D01*
G75*
G02*
X23445000Y42867000I70000J0D01*
G01*
X24225000Y42867000D01*
G75*
G02*
X24295000Y42797000I0J-70000D01*
G01*
X24295000Y42237000D01*
G75*
G02*
X24225000Y42167000I-70000J0D01*
G01*
G37*
G04 #@! TD*
G04 #@! TO.C,JP2002*
G36*
G01*
X114450001Y87625000D02*
X114450001Y86375000D01*
G75*
G02*
X114350001Y86275000I-100000J0D01*
G01*
X113550001Y86275000D01*
G75*
G02*
X113450001Y86375000I0J100000D01*
G01*
X113450001Y87625000D01*
G75*
G02*
X113550001Y87725000I100000J0D01*
G01*
X114350001Y87725000D01*
G75*
G02*
X114450001Y87625000I0J-100000D01*
G01*
G37*
G36*
G01*
X112549979Y87625000D02*
X112549979Y86375000D01*
G75*
G02*
X112449979Y86275000I-100000J0D01*
G01*
X111649979Y86275000D01*
G75*
G02*
X111549979Y86375000I0J100000D01*
G01*
X111549979Y87625000D01*
G75*
G02*
X111649979Y87725000I100000J0D01*
G01*
X112449979Y87725000D01*
G75*
G02*
X112549979Y87625000I0J-100000D01*
G01*
G37*
G04 #@! TD*
G04 #@! TO.C,R7004*
G36*
G01*
X102125000Y60785000D02*
X102125000Y61565000D01*
G75*
G02*
X102195000Y61635000I70000J0D01*
G01*
X102755000Y61635000D01*
G75*
G02*
X102825000Y61565000I0J-70000D01*
G01*
X102825000Y60785000D01*
G75*
G02*
X102755000Y60715000I-70000J0D01*
G01*
X102195000Y60715000D01*
G75*
G02*
X102125000Y60785000I0J70000D01*
G01*
G37*
G36*
G01*
X103725000Y60785000D02*
X103725000Y61565000D01*
G75*
G02*
X103795000Y61635000I70000J0D01*
G01*
X104355000Y61635000D01*
G75*
G02*
X104425000Y61565000I0J-70000D01*
G01*
X104425000Y60785000D01*
G75*
G02*
X104355000Y60715000I-70000J0D01*
G01*
X103795000Y60715000D01*
G75*
G02*
X103725000Y60785000I0J70000D01*
G01*
G37*
G04 #@! TD*
G04 #@! TO.C,R8003*
G36*
G01*
X124750000Y30610000D02*
X124750000Y31390000D01*
G75*
G02*
X124820000Y31460000I70000J0D01*
G01*
X125380000Y31460000D01*
G75*
G02*
X125450000Y31390000I0J-70000D01*
G01*
X125450000Y30610000D01*
G75*
G02*
X125380000Y30540000I-70000J0D01*
G01*
X124820000Y30540000D01*
G75*
G02*
X124750000Y30610000I0J70000D01*
G01*
G37*
G36*
G01*
X126350000Y30610000D02*
X126350000Y31390000D01*
G75*
G02*
X126420000Y31460000I70000J0D01*
G01*
X126980000Y31460000D01*
G75*
G02*
X127050000Y31390000I0J-70000D01*
G01*
X127050000Y30610000D01*
G75*
G02*
X126980000Y30540000I-70000J0D01*
G01*
X126420000Y30540000D01*
G75*
G02*
X126350000Y30610000I0J70000D01*
G01*
G37*
G04 #@! TD*
G04 #@! TO.C,R9003*
G36*
G01*
X114300000Y50105313D02*
X114300000Y50885313D01*
G75*
G02*
X114370000Y50955313I70000J0D01*
G01*
X114930000Y50955313D01*
G75*
G02*
X115000000Y50885313I0J-70000D01*
G01*
X115000000Y50105313D01*
G75*
G02*
X114930000Y50035313I-70000J0D01*
G01*
X114370000Y50035313D01*
G75*
G02*
X114300000Y50105313I0J70000D01*
G01*
G37*
G36*
G01*
X115900000Y50105313D02*
X115900000Y50885313D01*
G75*
G02*
X115970000Y50955313I70000J0D01*
G01*
X116530000Y50955313D01*
G75*
G02*
X116600000Y50885313I0J-70000D01*
G01*
X116600000Y50105313D01*
G75*
G02*
X116530000Y50035313I-70000J0D01*
G01*
X115970000Y50035313D01*
G75*
G02*
X115900000Y50105313I0J70000D01*
G01*
G37*
G04 #@! TD*
G04 #@! TO.C,D3001*
G36*
G01*
X137811200Y58630400D02*
X138291200Y58630400D01*
G75*
G02*
X138351200Y58570400I0J-60000D01*
G01*
X138351200Y58090400D01*
G75*
G02*
X138291200Y58030400I-60000J0D01*
G01*
X137811200Y58030400D01*
G75*
G02*
X137751200Y58090400I0J60000D01*
G01*
X137751200Y58570400D01*
G75*
G02*
X137811200Y58630400I60000J0D01*
G01*
G37*
G36*
G01*
X140011200Y58630400D02*
X140491200Y58630400D01*
G75*
G02*
X140551200Y58570400I0J-60000D01*
G01*
X140551200Y58090400D01*
G75*
G02*
X140491200Y58030400I-60000J0D01*
G01*
X140011200Y58030400D01*
G75*
G02*
X139951200Y58090400I0J60000D01*
G01*
X139951200Y58570400D01*
G75*
G02*
X140011200Y58630400I60000J0D01*
G01*
G37*
G04 #@! TD*
G04 #@! TO.C,Q4004*
G36*
G01*
X20872000Y40549000D02*
X20872000Y39849000D01*
G75*
G02*
X20622000Y39599000I-250000J0D01*
G01*
X18922000Y39599000D01*
G75*
G02*
X18672000Y39849000I0J250000D01*
G01*
X18672000Y40549000D01*
G75*
G02*
X18922000Y40799000I250000J0D01*
G01*
X20622000Y40799000D01*
G75*
G02*
X20872000Y40549000I0J-250000D01*
G01*
G37*
G36*
G01*
X16672000Y42079000D02*
X16672000Y39829000D01*
G75*
G02*
X16422000Y39579000I-250000J0D01*
G01*
X13872000Y39579000D01*
G75*
G02*
X13622000Y39829000I0J250000D01*
G01*
X13622000Y42079000D01*
G75*
G02*
X13872000Y42329000I250000J0D01*
G01*
X16422000Y42329000D01*
G75*
G02*
X16672000Y42079000I0J-250000D01*
G01*
G37*
G36*
G01*
X16672000Y45129000D02*
X16672000Y42879000D01*
G75*
G02*
X16422000Y42629000I-250000J0D01*
G01*
X13872000Y42629000D01*
G75*
G02*
X13622000Y42879000I0J250000D01*
G01*
X13622000Y45129000D01*
G75*
G02*
X13872000Y45379000I250000J0D01*
G01*
X16422000Y45379000D01*
G75*
G02*
X16672000Y45129000I0J-250000D01*
G01*
G37*
G36*
G01*
X13322000Y42079000D02*
X13322000Y39829000D01*
G75*
G02*
X13072000Y39579000I-250000J0D01*
G01*
X10522000Y39579000D01*
G75*
G02*
X10272000Y39829000I0J250000D01*
G01*
X10272000Y42079000D01*
G75*
G02*
X10522000Y42329000I250000J0D01*
G01*
X13072000Y42329000D01*
G75*
G02*
X13322000Y42079000I0J-250000D01*
G01*
G37*
G36*
G01*
X13322000Y45129000D02*
X13322000Y42879000D01*
G75*
G02*
X13072000Y42629000I-250000J0D01*
G01*
X10522000Y42629000D01*
G75*
G02*
X10272000Y42879000I0J250000D01*
G01*
X10272000Y45129000D01*
G75*
G02*
X10522000Y45379000I250000J0D01*
G01*
X13072000Y45379000D01*
G75*
G02*
X13322000Y45129000I0J-250000D01*
G01*
G37*
G36*
G01*
X20872000Y45109000D02*
X20872000Y44409000D01*
G75*
G02*
X20622000Y44159000I-250000J0D01*
G01*
X18922000Y44159000D01*
G75*
G02*
X18672000Y44409000I0J250000D01*
G01*
X18672000Y45109000D01*
G75*
G02*
X18922000Y45359000I250000J0D01*
G01*
X20622000Y45359000D01*
G75*
G02*
X20872000Y45109000I0J-250000D01*
G01*
G37*
G04 #@! TD*
G04 #@! TO.C,R5003*
G36*
G01*
X75690908Y68973000D02*
X74910908Y68973000D01*
G75*
G02*
X74840908Y69043000I0J70000D01*
G01*
X74840908Y69603000D01*
G75*
G02*
X74910908Y69673000I70000J0D01*
G01*
X75690908Y69673000D01*
G75*
G02*
X75760908Y69603000I0J-70000D01*
G01*
X75760908Y69043000D01*
G75*
G02*
X75690908Y68973000I-70000J0D01*
G01*
G37*
G36*
G01*
X75690908Y70573000D02*
X74910908Y70573000D01*
G75*
G02*
X74840908Y70643000I0J70000D01*
G01*
X74840908Y71203000D01*
G75*
G02*
X74910908Y71273000I70000J0D01*
G01*
X75690908Y71273000D01*
G75*
G02*
X75760908Y71203000I0J-70000D01*
G01*
X75760908Y70643000D01*
G75*
G02*
X75690908Y70573000I-70000J0D01*
G01*
G37*
G04 #@! TD*
G04 #@! TO.C,C6003*
G36*
G01*
X105708000Y74331800D02*
X105708000Y75381800D01*
G75*
G02*
X105808000Y75481800I100000J0D01*
G01*
X106608000Y75481800D01*
G75*
G02*
X106708000Y75381800I0J-100000D01*
G01*
X106708000Y74331800D01*
G75*
G02*
X106608000Y74231800I-100000J0D01*
G01*
X105808000Y74231800D01*
G75*
G02*
X105708000Y74331800I0J100000D01*
G01*
G37*
G36*
G01*
X107708000Y74331800D02*
X107708000Y75381800D01*
G75*
G02*
X107808000Y75481800I100000J0D01*
G01*
X108608000Y75481800D01*
G75*
G02*
X108708000Y75381800I0J-100000D01*
G01*
X108708000Y74331800D01*
G75*
G02*
X108608000Y74231800I-100000J0D01*
G01*
X107808000Y74231800D01*
G75*
G02*
X107708000Y74331800I0J100000D01*
G01*
G37*
G04 #@! TD*
G04 #@! TO.C,C10001*
G36*
G01*
X61375000Y70075000D02*
X60325000Y70075000D01*
G75*
G02*
X60225000Y70175000I0J100000D01*
G01*
X60225000Y70975000D01*
G75*
G02*
X60325000Y71075000I100000J0D01*
G01*
X61375000Y71075000D01*
G75*
G02*
X61475000Y70975000I0J-100000D01*
G01*
X61475000Y70175000D01*
G75*
G02*
X61375000Y70075000I-100000J0D01*
G01*
G37*
G36*
G01*
X61375000Y72075000D02*
X60325000Y72075000D01*
G75*
G02*
X60225000Y72175000I0J100000D01*
G01*
X60225000Y72975000D01*
G75*
G02*
X60325000Y73075000I100000J0D01*
G01*
X61375000Y73075000D01*
G75*
G02*
X61475000Y72975000I0J-100000D01*
G01*
X61475000Y72175000D01*
G75*
G02*
X61375000Y72075000I-100000J0D01*
G01*
G37*
G04 #@! TD*
G04 #@! TO.C,JP4002*
G36*
G01*
X17000000Y69354000D02*
X17000000Y70604000D01*
G75*
G02*
X17100000Y70704000I100000J0D01*
G01*
X17900000Y70704000D01*
G75*
G02*
X18000000Y70604000I0J-100000D01*
G01*
X18000000Y69354000D01*
G75*
G02*
X17900000Y69254000I-100000J0D01*
G01*
X17100000Y69254000D01*
G75*
G02*
X17000000Y69354000I0J100000D01*
G01*
G37*
G36*
G01*
X18900022Y69354000D02*
X18900022Y70604000D01*
G75*
G02*
X19000022Y70704000I100000J0D01*
G01*
X19800022Y70704000D01*
G75*
G02*
X19900022Y70604000I0J-100000D01*
G01*
X19900022Y69354000D01*
G75*
G02*
X19800022Y69254000I-100000J0D01*
G01*
X19000022Y69254000D01*
G75*
G02*
X18900022Y69354000I0J100000D01*
G01*
G37*
G04 #@! TD*
G04 #@! TO.C,F4003*
G36*
G01*
X25175500Y53498750D02*
X25175500Y54011250D01*
G75*
G02*
X25394250Y54230000I218750J0D01*
G01*
X25831750Y54230000D01*
G75*
G02*
X26050500Y54011250I0J-218750D01*
G01*
X26050500Y53498750D01*
G75*
G02*
X25831750Y53280000I-218750J0D01*
G01*
X25394250Y53280000D01*
G75*
G02*
X25175500Y53498750I0J218750D01*
G01*
G37*
G36*
G01*
X26750500Y53498750D02*
X26750500Y54011250D01*
G75*
G02*
X26969250Y54230000I218750J0D01*
G01*
X27406750Y54230000D01*
G75*
G02*
X27625500Y54011250I0J-218750D01*
G01*
X27625500Y53498750D01*
G75*
G02*
X27406750Y53280000I-218750J0D01*
G01*
X26969250Y53280000D01*
G75*
G02*
X26750500Y53498750I0J218750D01*
G01*
G37*
G04 #@! TD*
G04 #@! TO.C,R10002*
G36*
G01*
X63040641Y66775000D02*
X62260641Y66775000D01*
G75*
G02*
X62190641Y66845000I0J70000D01*
G01*
X62190641Y67405000D01*
G75*
G02*
X62260641Y67475000I70000J0D01*
G01*
X63040641Y67475000D01*
G75*
G02*
X63110641Y67405000I0J-70000D01*
G01*
X63110641Y66845000D01*
G75*
G02*
X63040641Y66775000I-70000J0D01*
G01*
G37*
G36*
G01*
X63040641Y68375000D02*
X62260641Y68375000D01*
G75*
G02*
X62190641Y68445000I0J70000D01*
G01*
X62190641Y69005000D01*
G75*
G02*
X62260641Y69075000I70000J0D01*
G01*
X63040641Y69075000D01*
G75*
G02*
X63110641Y69005000I0J-70000D01*
G01*
X63110641Y68445000D01*
G75*
G02*
X63040641Y68375000I-70000J0D01*
G01*
G37*
G04 #@! TD*
G04 #@! TO.C,R4001*
G36*
G01*
X24225000Y75584000D02*
X23445000Y75584000D01*
G75*
G02*
X23375000Y75654000I0J70000D01*
G01*
X23375000Y76214000D01*
G75*
G02*
X23445000Y76284000I70000J0D01*
G01*
X24225000Y76284000D01*
G75*
G02*
X24295000Y76214000I0J-70000D01*
G01*
X24295000Y75654000D01*
G75*
G02*
X24225000Y75584000I-70000J0D01*
G01*
G37*
G36*
G01*
X24225000Y77184000D02*
X23445000Y77184000D01*
G75*
G02*
X23375000Y77254000I0J70000D01*
G01*
X23375000Y77814000D01*
G75*
G02*
X23445000Y77884000I70000J0D01*
G01*
X24225000Y77884000D01*
G75*
G02*
X24295000Y77814000I0J-70000D01*
G01*
X24295000Y77254000D01*
G75*
G02*
X24225000Y77184000I-70000J0D01*
G01*
G37*
G04 #@! TD*
G04 #@! TO.C,R10004*
G36*
G01*
X66938733Y66775000D02*
X66158733Y66775000D01*
G75*
G02*
X66088733Y66845000I0J70000D01*
G01*
X66088733Y67405000D01*
G75*
G02*
X66158733Y67475000I70000J0D01*
G01*
X66938733Y67475000D01*
G75*
G02*
X67008733Y67405000I0J-70000D01*
G01*
X67008733Y66845000D01*
G75*
G02*
X66938733Y66775000I-70000J0D01*
G01*
G37*
G36*
G01*
X66938733Y68375000D02*
X66158733Y68375000D01*
G75*
G02*
X66088733Y68445000I0J70000D01*
G01*
X66088733Y69005000D01*
G75*
G02*
X66158733Y69075000I70000J0D01*
G01*
X66938733Y69075000D01*
G75*
G02*
X67008733Y69005000I0J-70000D01*
G01*
X67008733Y68445000D01*
G75*
G02*
X66938733Y68375000I-70000J0D01*
G01*
G37*
G04 #@! TD*
G04 #@! TO.C,U9001*
G36*
G01*
X114575000Y60350000D02*
X114575000Y60650000D01*
G75*
G02*
X114725000Y60800000I150000J0D01*
G01*
X116375000Y60800000D01*
G75*
G02*
X116525000Y60650000I0J-150000D01*
G01*
X116525000Y60350000D01*
G75*
G02*
X116375000Y60200000I-150000J0D01*
G01*
X114725000Y60200000D01*
G75*
G02*
X114575000Y60350000I0J150000D01*
G01*
G37*
G36*
G01*
X114575000Y59080000D02*
X114575000Y59380000D01*
G75*
G02*
X114725000Y59530000I150000J0D01*
G01*
X116375000Y59530000D01*
G75*
G02*
X116525000Y59380000I0J-150000D01*
G01*
X116525000Y59080000D01*
G75*
G02*
X116375000Y58930000I-150000J0D01*
G01*
X114725000Y58930000D01*
G75*
G02*
X114575000Y59080000I0J150000D01*
G01*
G37*
G36*
G01*
X114575000Y57810000D02*
X114575000Y58110000D01*
G75*
G02*
X114725000Y58260000I150000J0D01*
G01*
X116375000Y58260000D01*
G75*
G02*
X116525000Y58110000I0J-150000D01*
G01*
X116525000Y57810000D01*
G75*
G02*
X116375000Y57660000I-150000J0D01*
G01*
X114725000Y57660000D01*
G75*
G02*
X114575000Y57810000I0J150000D01*
G01*
G37*
G36*
G01*
X114575000Y56540000D02*
X114575000Y56840000D01*
G75*
G02*
X114725000Y56990000I150000J0D01*
G01*
X116375000Y56990000D01*
G75*
G02*
X116525000Y56840000I0J-150000D01*
G01*
X116525000Y56540000D01*
G75*
G02*
X116375000Y56390000I-150000J0D01*
G01*
X114725000Y56390000D01*
G75*
G02*
X114575000Y56540000I0J150000D01*
G01*
G37*
G36*
G01*
X119525000Y56540000D02*
X119525000Y56840000D01*
G75*
G02*
X119675000Y56990000I150000J0D01*
G01*
X121325000Y56990000D01*
G75*
G02*
X121475000Y56840000I0J-150000D01*
G01*
X121475000Y56540000D01*
G75*
G02*
X121325000Y56390000I-150000J0D01*
G01*
X119675000Y56390000D01*
G75*
G02*
X119525000Y56540000I0J150000D01*
G01*
G37*
G36*
G01*
X119525000Y57810000D02*
X119525000Y58110000D01*
G75*
G02*
X119675000Y58260000I150000J0D01*
G01*
X121325000Y58260000D01*
G75*
G02*
X121475000Y58110000I0J-150000D01*
G01*
X121475000Y57810000D01*
G75*
G02*
X121325000Y57660000I-150000J0D01*
G01*
X119675000Y57660000D01*
G75*
G02*
X119525000Y57810000I0J150000D01*
G01*
G37*
G36*
G01*
X119525000Y59080000D02*
X119525000Y59380000D01*
G75*
G02*
X119675000Y59530000I150000J0D01*
G01*
X121325000Y59530000D01*
G75*
G02*
X121475000Y59380000I0J-150000D01*
G01*
X121475000Y59080000D01*
G75*
G02*
X121325000Y58930000I-150000J0D01*
G01*
X119675000Y58930000D01*
G75*
G02*
X119525000Y59080000I0J150000D01*
G01*
G37*
G36*
G01*
X119525000Y60350000D02*
X119525000Y60650000D01*
G75*
G02*
X119675000Y60800000I150000J0D01*
G01*
X121325000Y60800000D01*
G75*
G02*
X121475000Y60650000I0J-150000D01*
G01*
X121475000Y60350000D01*
G75*
G02*
X121325000Y60200000I-150000J0D01*
G01*
X119675000Y60200000D01*
G75*
G02*
X119525000Y60350000I0J150000D01*
G01*
G37*
G04 #@! TD*
G04 #@! TO.C,R9004*
G36*
G01*
X114300000Y48156267D02*
X114300000Y48936267D01*
G75*
G02*
X114370000Y49006267I70000J0D01*
G01*
X114930000Y49006267D01*
G75*
G02*
X115000000Y48936267I0J-70000D01*
G01*
X115000000Y48156267D01*
G75*
G02*
X114930000Y48086267I-70000J0D01*
G01*
X114370000Y48086267D01*
G75*
G02*
X114300000Y48156267I0J70000D01*
G01*
G37*
G36*
G01*
X115900000Y48156267D02*
X115900000Y48936267D01*
G75*
G02*
X115970000Y49006267I70000J0D01*
G01*
X116530000Y49006267D01*
G75*
G02*
X116600000Y48936267I0J-70000D01*
G01*
X116600000Y48156267D01*
G75*
G02*
X116530000Y48086267I-70000J0D01*
G01*
X115970000Y48086267D01*
G75*
G02*
X115900000Y48156267I0J70000D01*
G01*
G37*
G04 #@! TD*
G04 #@! TO.C,R8001*
G36*
G01*
X124750000Y34083405D02*
X124750000Y34863405D01*
G75*
G02*
X124820000Y34933405I70000J0D01*
G01*
X125380000Y34933405D01*
G75*
G02*
X125450000Y34863405I0J-70000D01*
G01*
X125450000Y34083405D01*
G75*
G02*
X125380000Y34013405I-70000J0D01*
G01*
X124820000Y34013405D01*
G75*
G02*
X124750000Y34083405I0J70000D01*
G01*
G37*
G36*
G01*
X126350000Y34083405D02*
X126350000Y34863405D01*
G75*
G02*
X126420000Y34933405I70000J0D01*
G01*
X126980000Y34933405D01*
G75*
G02*
X127050000Y34863405I0J-70000D01*
G01*
X127050000Y34083405D01*
G75*
G02*
X126980000Y34013405I-70000J0D01*
G01*
X126420000Y34013405D01*
G75*
G02*
X126350000Y34083405I0J70000D01*
G01*
G37*
G04 #@! TD*
G04 #@! TO.C,JP2008*
G36*
G01*
X77475782Y83549999D02*
X76225782Y83549999D01*
G75*
G02*
X76125782Y83649999I0J100000D01*
G01*
X76125782Y84449999D01*
G75*
G02*
X76225782Y84549999I100000J0D01*
G01*
X77475782Y84549999D01*
G75*
G02*
X77575782Y84449999I0J-100000D01*
G01*
X77575782Y83649999D01*
G75*
G02*
X77475782Y83549999I-100000J0D01*
G01*
G37*
G36*
G01*
X77475782Y85450021D02*
X76225782Y85450021D01*
G75*
G02*
X76125782Y85550021I0J100000D01*
G01*
X76125782Y86350021D01*
G75*
G02*
X76225782Y86450021I100000J0D01*
G01*
X77475782Y86450021D01*
G75*
G02*
X77575782Y86350021I0J-100000D01*
G01*
X77575782Y85550021D01*
G75*
G02*
X77475782Y85450021I-100000J0D01*
G01*
G37*
G04 #@! TD*
G04 #@! TO.C,F4004*
G36*
G01*
X25175500Y42222750D02*
X25175500Y42735250D01*
G75*
G02*
X25394250Y42954000I218750J0D01*
G01*
X25831750Y42954000D01*
G75*
G02*
X26050500Y42735250I0J-218750D01*
G01*
X26050500Y42222750D01*
G75*
G02*
X25831750Y42004000I-218750J0D01*
G01*
X25394250Y42004000D01*
G75*
G02*
X25175500Y42222750I0J218750D01*
G01*
G37*
G36*
G01*
X26750500Y42222750D02*
X26750500Y42735250D01*
G75*
G02*
X26969250Y42954000I218750J0D01*
G01*
X27406750Y42954000D01*
G75*
G02*
X27625500Y42735250I0J-218750D01*
G01*
X27625500Y42222750D01*
G75*
G02*
X27406750Y42004000I-218750J0D01*
G01*
X26969250Y42004000D01*
G75*
G02*
X26750500Y42222750I0J218750D01*
G01*
G37*
G04 #@! TD*
G04 #@! TO.C,R8002*
G36*
G01*
X43650000Y30690000D02*
X43650000Y31470000D01*
G75*
G02*
X43720000Y31540000I70000J0D01*
G01*
X44280000Y31540000D01*
G75*
G02*
X44350000Y31470000I0J-70000D01*
G01*
X44350000Y30690000D01*
G75*
G02*
X44280000Y30620000I-70000J0D01*
G01*
X43720000Y30620000D01*
G75*
G02*
X43650000Y30690000I0J70000D01*
G01*
G37*
G36*
G01*
X45250000Y30690000D02*
X45250000Y31470000D01*
G75*
G02*
X45320000Y31540000I70000J0D01*
G01*
X45880000Y31540000D01*
G75*
G02*
X45950000Y31470000I0J-70000D01*
G01*
X45950000Y30690000D01*
G75*
G02*
X45880000Y30620000I-70000J0D01*
G01*
X45320000Y30620000D01*
G75*
G02*
X45250000Y30690000I0J70000D01*
G01*
G37*
G04 #@! TD*
G04 #@! TO.C,R7002*
G36*
G01*
X101700000Y63285000D02*
X101700000Y64065000D01*
G75*
G02*
X101770000Y64135000I70000J0D01*
G01*
X102330000Y64135000D01*
G75*
G02*
X102400000Y64065000I0J-70000D01*
G01*
X102400000Y63285000D01*
G75*
G02*
X102330000Y63215000I-70000J0D01*
G01*
X101770000Y63215000D01*
G75*
G02*
X101700000Y63285000I0J70000D01*
G01*
G37*
G36*
G01*
X103300000Y63285000D02*
X103300000Y64065000D01*
G75*
G02*
X103370000Y64135000I70000J0D01*
G01*
X103930000Y64135000D01*
G75*
G02*
X104000000Y64065000I0J-70000D01*
G01*
X104000000Y63285000D01*
G75*
G02*
X103930000Y63215000I-70000J0D01*
G01*
X103370000Y63215000D01*
G75*
G02*
X103300000Y63285000I0J70000D01*
G01*
G37*
G04 #@! TD*
G04 #@! TO.C,Q4002*
G36*
G01*
X20872000Y63045000D02*
X20872000Y62345000D01*
G75*
G02*
X20622000Y62095000I-250000J0D01*
G01*
X18922000Y62095000D01*
G75*
G02*
X18672000Y62345000I0J250000D01*
G01*
X18672000Y63045000D01*
G75*
G02*
X18922000Y63295000I250000J0D01*
G01*
X20622000Y63295000D01*
G75*
G02*
X20872000Y63045000I0J-250000D01*
G01*
G37*
G36*
G01*
X16672000Y64575000D02*
X16672000Y62325000D01*
G75*
G02*
X16422000Y62075000I-250000J0D01*
G01*
X13872000Y62075000D01*
G75*
G02*
X13622000Y62325000I0J250000D01*
G01*
X13622000Y64575000D01*
G75*
G02*
X13872000Y64825000I250000J0D01*
G01*
X16422000Y64825000D01*
G75*
G02*
X16672000Y64575000I0J-250000D01*
G01*
G37*
G36*
G01*
X16672000Y67625000D02*
X16672000Y65375000D01*
G75*
G02*
X16422000Y65125000I-250000J0D01*
G01*
X13872000Y65125000D01*
G75*
G02*
X13622000Y65375000I0J250000D01*
G01*
X13622000Y67625000D01*
G75*
G02*
X13872000Y67875000I250000J0D01*
G01*
X16422000Y67875000D01*
G75*
G02*
X16672000Y67625000I0J-250000D01*
G01*
G37*
G36*
G01*
X13322000Y64575000D02*
X13322000Y62325000D01*
G75*
G02*
X13072000Y62075000I-250000J0D01*
G01*
X10522000Y62075000D01*
G75*
G02*
X10272000Y62325000I0J250000D01*
G01*
X10272000Y64575000D01*
G75*
G02*
X10522000Y64825000I250000J0D01*
G01*
X13072000Y64825000D01*
G75*
G02*
X13322000Y64575000I0J-250000D01*
G01*
G37*
G36*
G01*
X13322000Y67625000D02*
X13322000Y65375000D01*
G75*
G02*
X13072000Y65125000I-250000J0D01*
G01*
X10522000Y65125000D01*
G75*
G02*
X10272000Y65375000I0J250000D01*
G01*
X10272000Y67625000D01*
G75*
G02*
X10522000Y67875000I250000J0D01*
G01*
X13072000Y67875000D01*
G75*
G02*
X13322000Y67625000I0J-250000D01*
G01*
G37*
G36*
G01*
X20872000Y67605000D02*
X20872000Y66905000D01*
G75*
G02*
X20622000Y66655000I-250000J0D01*
G01*
X18922000Y66655000D01*
G75*
G02*
X18672000Y66905000I0J250000D01*
G01*
X18672000Y67605000D01*
G75*
G02*
X18922000Y67855000I250000J0D01*
G01*
X20622000Y67855000D01*
G75*
G02*
X20872000Y67605000I0J-250000D01*
G01*
G37*
G04 #@! TD*
G04 #@! TO.C,JP2009*
G36*
G01*
X74625000Y83549999D02*
X73375000Y83549999D01*
G75*
G02*
X73275000Y83649999I0J100000D01*
G01*
X73275000Y84449999D01*
G75*
G02*
X73375000Y84549999I100000J0D01*
G01*
X74625000Y84549999D01*
G75*
G02*
X74725000Y84449999I0J-100000D01*
G01*
X74725000Y83649999D01*
G75*
G02*
X74625000Y83549999I-100000J0D01*
G01*
G37*
G36*
G01*
X74625000Y85450021D02*
X73375000Y85450021D01*
G75*
G02*
X73275000Y85550021I0J100000D01*
G01*
X73275000Y86350021D01*
G75*
G02*
X73375000Y86450021I100000J0D01*
G01*
X74625000Y86450021D01*
G75*
G02*
X74725000Y86350021I0J-100000D01*
G01*
X74725000Y85550021D01*
G75*
G02*
X74625000Y85450021I-100000J0D01*
G01*
G37*
G04 #@! TD*
G04 #@! TO.C,R4002*
G36*
G01*
X24225000Y63063000D02*
X23445000Y63063000D01*
G75*
G02*
X23375000Y63133000I0J70000D01*
G01*
X23375000Y63693000D01*
G75*
G02*
X23445000Y63763000I70000J0D01*
G01*
X24225000Y63763000D01*
G75*
G02*
X24295000Y63693000I0J-70000D01*
G01*
X24295000Y63133000D01*
G75*
G02*
X24225000Y63063000I-70000J0D01*
G01*
G37*
G36*
G01*
X24225000Y64663000D02*
X23445000Y64663000D01*
G75*
G02*
X23375000Y64733000I0J70000D01*
G01*
X23375000Y65293000D01*
G75*
G02*
X23445000Y65363000I70000J0D01*
G01*
X24225000Y65363000D01*
G75*
G02*
X24295000Y65293000I0J-70000D01*
G01*
X24295000Y64733000D01*
G75*
G02*
X24225000Y64663000I-70000J0D01*
G01*
G37*
G04 #@! TD*
G04 #@! TO.C,U7002*
G36*
G01*
X93525000Y63350000D02*
X93525000Y63650000D01*
G75*
G02*
X93675000Y63800000I150000J0D01*
G01*
X95325000Y63800000D01*
G75*
G02*
X95475000Y63650000I0J-150000D01*
G01*
X95475000Y63350000D01*
G75*
G02*
X95325000Y63200000I-150000J0D01*
G01*
X93675000Y63200000D01*
G75*
G02*
X93525000Y63350000I0J150000D01*
G01*
G37*
G36*
G01*
X93525000Y62080000D02*
X93525000Y62380000D01*
G75*
G02*
X93675000Y62530000I150000J0D01*
G01*
X95325000Y62530000D01*
G75*
G02*
X95475000Y62380000I0J-150000D01*
G01*
X95475000Y62080000D01*
G75*
G02*
X95325000Y61930000I-150000J0D01*
G01*
X93675000Y61930000D01*
G75*
G02*
X93525000Y62080000I0J150000D01*
G01*
G37*
G36*
G01*
X93525000Y60810000D02*
X93525000Y61110000D01*
G75*
G02*
X93675000Y61260000I150000J0D01*
G01*
X95325000Y61260000D01*
G75*
G02*
X95475000Y61110000I0J-150000D01*
G01*
X95475000Y60810000D01*
G75*
G02*
X95325000Y60660000I-150000J0D01*
G01*
X93675000Y60660000D01*
G75*
G02*
X93525000Y60810000I0J150000D01*
G01*
G37*
G36*
G01*
X93525000Y59540000D02*
X93525000Y59840000D01*
G75*
G02*
X93675000Y59990000I150000J0D01*
G01*
X95325000Y59990000D01*
G75*
G02*
X95475000Y59840000I0J-150000D01*
G01*
X95475000Y59540000D01*
G75*
G02*
X95325000Y59390000I-150000J0D01*
G01*
X93675000Y59390000D01*
G75*
G02*
X93525000Y59540000I0J150000D01*
G01*
G37*
G36*
G01*
X98475000Y59540000D02*
X98475000Y59840000D01*
G75*
G02*
X98625000Y59990000I150000J0D01*
G01*
X100275000Y59990000D01*
G75*
G02*
X100425000Y59840000I0J-150000D01*
G01*
X100425000Y59540000D01*
G75*
G02*
X100275000Y59390000I-150000J0D01*
G01*
X98625000Y59390000D01*
G75*
G02*
X98475000Y59540000I0J150000D01*
G01*
G37*
G36*
G01*
X98475000Y60810000D02*
X98475000Y61110000D01*
G75*
G02*
X98625000Y61260000I150000J0D01*
G01*
X100275000Y61260000D01*
G75*
G02*
X100425000Y61110000I0J-150000D01*
G01*
X100425000Y60810000D01*
G75*
G02*
X100275000Y60660000I-150000J0D01*
G01*
X98625000Y60660000D01*
G75*
G02*
X98475000Y60810000I0J150000D01*
G01*
G37*
G36*
G01*
X98475000Y62080000D02*
X98475000Y62380000D01*
G75*
G02*
X98625000Y62530000I150000J0D01*
G01*
X100275000Y62530000D01*
G75*
G02*
X100425000Y62380000I0J-150000D01*
G01*
X100425000Y62080000D01*
G75*
G02*
X100275000Y61930000I-150000J0D01*
G01*
X98625000Y61930000D01*
G75*
G02*
X98475000Y62080000I0J150000D01*
G01*
G37*
G36*
G01*
X98475000Y63350000D02*
X98475000Y63650000D01*
G75*
G02*
X98625000Y63800000I150000J0D01*
G01*
X100275000Y63800000D01*
G75*
G02*
X100425000Y63650000I0J-150000D01*
G01*
X100425000Y63350000D01*
G75*
G02*
X100275000Y63200000I-150000J0D01*
G01*
X98625000Y63200000D01*
G75*
G02*
X98475000Y63350000I0J150000D01*
G01*
G37*
G04 #@! TD*
G04 #@! TO.C,Q4003*
G36*
G01*
X20872000Y51825000D02*
X20872000Y51125000D01*
G75*
G02*
X20622000Y50875000I-250000J0D01*
G01*
X18922000Y50875000D01*
G75*
G02*
X18672000Y51125000I0J250000D01*
G01*
X18672000Y51825000D01*
G75*
G02*
X18922000Y52075000I250000J0D01*
G01*
X20622000Y52075000D01*
G75*
G02*
X20872000Y51825000I0J-250000D01*
G01*
G37*
G36*
G01*
X16672000Y53355000D02*
X16672000Y51105000D01*
G75*
G02*
X16422000Y50855000I-250000J0D01*
G01*
X13872000Y50855000D01*
G75*
G02*
X13622000Y51105000I0J250000D01*
G01*
X13622000Y53355000D01*
G75*
G02*
X13872000Y53605000I250000J0D01*
G01*
X16422000Y53605000D01*
G75*
G02*
X16672000Y53355000I0J-250000D01*
G01*
G37*
G36*
G01*
X16672000Y56405000D02*
X16672000Y54155000D01*
G75*
G02*
X16422000Y53905000I-250000J0D01*
G01*
X13872000Y53905000D01*
G75*
G02*
X13622000Y54155000I0J250000D01*
G01*
X13622000Y56405000D01*
G75*
G02*
X13872000Y56655000I250000J0D01*
G01*
X16422000Y56655000D01*
G75*
G02*
X16672000Y56405000I0J-250000D01*
G01*
G37*
G36*
G01*
X13322000Y53355000D02*
X13322000Y51105000D01*
G75*
G02*
X13072000Y50855000I-250000J0D01*
G01*
X10522000Y50855000D01*
G75*
G02*
X10272000Y51105000I0J250000D01*
G01*
X10272000Y53355000D01*
G75*
G02*
X10522000Y53605000I250000J0D01*
G01*
X13072000Y53605000D01*
G75*
G02*
X13322000Y53355000I0J-250000D01*
G01*
G37*
G36*
G01*
X13322000Y56405000D02*
X13322000Y54155000D01*
G75*
G02*
X13072000Y53905000I-250000J0D01*
G01*
X10522000Y53905000D01*
G75*
G02*
X10272000Y54155000I0J250000D01*
G01*
X10272000Y56405000D01*
G75*
G02*
X10522000Y56655000I250000J0D01*
G01*
X13072000Y56655000D01*
G75*
G02*
X13322000Y56405000I0J-250000D01*
G01*
G37*
G36*
G01*
X20872000Y56385000D02*
X20872000Y55685000D01*
G75*
G02*
X20622000Y55435000I-250000J0D01*
G01*
X18922000Y55435000D01*
G75*
G02*
X18672000Y55685000I0J250000D01*
G01*
X18672000Y56385000D01*
G75*
G02*
X18922000Y56635000I250000J0D01*
G01*
X20622000Y56635000D01*
G75*
G02*
X20872000Y56385000I0J-250000D01*
G01*
G37*
G04 #@! TD*
G04 #@! TO.C,JP2007*
G36*
G01*
X80326564Y83549999D02*
X79076564Y83549999D01*
G75*
G02*
X78976564Y83649999I0J100000D01*
G01*
X78976564Y84449999D01*
G75*
G02*
X79076564Y84549999I100000J0D01*
G01*
X80326564Y84549999D01*
G75*
G02*
X80426564Y84449999I0J-100000D01*
G01*
X80426564Y83649999D01*
G75*
G02*
X80326564Y83549999I-100000J0D01*
G01*
G37*
G36*
G01*
X80326564Y85450021D02*
X79076564Y85450021D01*
G75*
G02*
X78976564Y85550021I0J100000D01*
G01*
X78976564Y86350021D01*
G75*
G02*
X79076564Y86450021I100000J0D01*
G01*
X80326564Y86450021D01*
G75*
G02*
X80426564Y86350021I0J-100000D01*
G01*
X80426564Y85550021D01*
G75*
G02*
X80326564Y85450021I-100000J0D01*
G01*
G37*
G04 #@! TD*
G04 #@! TO.C,R10003*
G36*
G01*
X64989687Y66775000D02*
X64209687Y66775000D01*
G75*
G02*
X64139687Y66845000I0J70000D01*
G01*
X64139687Y67405000D01*
G75*
G02*
X64209687Y67475000I70000J0D01*
G01*
X64989687Y67475000D01*
G75*
G02*
X65059687Y67405000I0J-70000D01*
G01*
X65059687Y66845000D01*
G75*
G02*
X64989687Y66775000I-70000J0D01*
G01*
G37*
G36*
G01*
X64989687Y68375000D02*
X64209687Y68375000D01*
G75*
G02*
X64139687Y68445000I0J70000D01*
G01*
X64139687Y69005000D01*
G75*
G02*
X64209687Y69075000I70000J0D01*
G01*
X64989687Y69075000D01*
G75*
G02*
X65059687Y69005000I0J-70000D01*
G01*
X65059687Y68445000D01*
G75*
G02*
X64989687Y68375000I-70000J0D01*
G01*
G37*
G04 #@! TD*
G04 #@! TO.C,C6001*
G36*
G01*
X105657200Y76871800D02*
X105657200Y77921800D01*
G75*
G02*
X105757200Y78021800I100000J0D01*
G01*
X106557200Y78021800D01*
G75*
G02*
X106657200Y77921800I0J-100000D01*
G01*
X106657200Y76871800D01*
G75*
G02*
X106557200Y76771800I-100000J0D01*
G01*
X105757200Y76771800D01*
G75*
G02*
X105657200Y76871800I0J100000D01*
G01*
G37*
G36*
G01*
X107657200Y76871800D02*
X107657200Y77921800D01*
G75*
G02*
X107757200Y78021800I100000J0D01*
G01*
X108557200Y78021800D01*
G75*
G02*
X108657200Y77921800I0J-100000D01*
G01*
X108657200Y76871800D01*
G75*
G02*
X108557200Y76771800I-100000J0D01*
G01*
X107757200Y76771800D01*
G75*
G02*
X107657200Y76871800I0J100000D01*
G01*
G37*
G04 #@! TD*
G04 #@! TO.C,U8002*
G36*
G01*
X36025000Y33350000D02*
X36025000Y33650000D01*
G75*
G02*
X36175000Y33800000I150000J0D01*
G01*
X37825000Y33800000D01*
G75*
G02*
X37975000Y33650000I0J-150000D01*
G01*
X37975000Y33350000D01*
G75*
G02*
X37825000Y33200000I-150000J0D01*
G01*
X36175000Y33200000D01*
G75*
G02*
X36025000Y33350000I0J150000D01*
G01*
G37*
G36*
G01*
X36025000Y32080000D02*
X36025000Y32380000D01*
G75*
G02*
X36175000Y32530000I150000J0D01*
G01*
X37825000Y32530000D01*
G75*
G02*
X37975000Y32380000I0J-150000D01*
G01*
X37975000Y32080000D01*
G75*
G02*
X37825000Y31930000I-150000J0D01*
G01*
X36175000Y31930000D01*
G75*
G02*
X36025000Y32080000I0J150000D01*
G01*
G37*
G36*
G01*
X36025000Y30810000D02*
X36025000Y31110000D01*
G75*
G02*
X36175000Y31260000I150000J0D01*
G01*
X37825000Y31260000D01*
G75*
G02*
X37975000Y31110000I0J-150000D01*
G01*
X37975000Y30810000D01*
G75*
G02*
X37825000Y30660000I-150000J0D01*
G01*
X36175000Y30660000D01*
G75*
G02*
X36025000Y30810000I0J150000D01*
G01*
G37*
G36*
G01*
X36025000Y29540000D02*
X36025000Y29840000D01*
G75*
G02*
X36175000Y29990000I150000J0D01*
G01*
X37825000Y29990000D01*
G75*
G02*
X37975000Y29840000I0J-150000D01*
G01*
X37975000Y29540000D01*
G75*
G02*
X37825000Y29390000I-150000J0D01*
G01*
X36175000Y29390000D01*
G75*
G02*
X36025000Y29540000I0J150000D01*
G01*
G37*
G36*
G01*
X40975000Y29540000D02*
X40975000Y29840000D01*
G75*
G02*
X41125000Y29990000I150000J0D01*
G01*
X42775000Y29990000D01*
G75*
G02*
X42925000Y29840000I0J-150000D01*
G01*
X42925000Y29540000D01*
G75*
G02*
X42775000Y29390000I-150000J0D01*
G01*
X41125000Y29390000D01*
G75*
G02*
X40975000Y29540000I0J150000D01*
G01*
G37*
G36*
G01*
X40975000Y30810000D02*
X40975000Y31110000D01*
G75*
G02*
X41125000Y31260000I150000J0D01*
G01*
X42775000Y31260000D01*
G75*
G02*
X42925000Y31110000I0J-150000D01*
G01*
X42925000Y30810000D01*
G75*
G02*
X42775000Y30660000I-150000J0D01*
G01*
X41125000Y30660000D01*
G75*
G02*
X40975000Y30810000I0J150000D01*
G01*
G37*
G36*
G01*
X40975000Y32080000D02*
X40975000Y32380000D01*
G75*
G02*
X41125000Y32530000I150000J0D01*
G01*
X42775000Y32530000D01*
G75*
G02*
X42925000Y32380000I0J-150000D01*
G01*
X42925000Y32080000D01*
G75*
G02*
X42775000Y31930000I-150000J0D01*
G01*
X41125000Y31930000D01*
G75*
G02*
X40975000Y32080000I0J150000D01*
G01*
G37*
G36*
G01*
X40975000Y33350000D02*
X40975000Y33650000D01*
G75*
G02*
X41125000Y33800000I150000J0D01*
G01*
X42775000Y33800000D01*
G75*
G02*
X42925000Y33650000I0J-150000D01*
G01*
X42925000Y33350000D01*
G75*
G02*
X42775000Y33200000I-150000J0D01*
G01*
X41125000Y33200000D01*
G75*
G02*
X40975000Y33350000I0J150000D01*
G01*
G37*
G04 #@! TD*
D11*
G04 #@! TO.C,M3005*
X38825014Y67199989D03*
G04 #@! TD*
G04 #@! TO.C,M3004*
X106599997Y34200001D03*
G04 #@! TD*
G04 #@! TO.C,R5002*
G36*
G01*
X81538046Y68973000D02*
X80758046Y68973000D01*
G75*
G02*
X80688046Y69043000I0J70000D01*
G01*
X80688046Y69603000D01*
G75*
G02*
X80758046Y69673000I70000J0D01*
G01*
X81538046Y69673000D01*
G75*
G02*
X81608046Y69603000I0J-70000D01*
G01*
X81608046Y69043000D01*
G75*
G02*
X81538046Y68973000I-70000J0D01*
G01*
G37*
G36*
G01*
X81538046Y70573000D02*
X80758046Y70573000D01*
G75*
G02*
X80688046Y70643000I0J70000D01*
G01*
X80688046Y71203000D01*
G75*
G02*
X80758046Y71273000I70000J0D01*
G01*
X81538046Y71273000D01*
G75*
G02*
X81608046Y71203000I0J-70000D01*
G01*
X81608046Y70643000D01*
G75*
G02*
X81538046Y70573000I-70000J0D01*
G01*
G37*
G04 #@! TD*
G04 #@! TO.C,C9003*
G36*
G01*
X117600000Y51470000D02*
X117600000Y52520000D01*
G75*
G02*
X117700000Y52620000I100000J0D01*
G01*
X118500000Y52620000D01*
G75*
G02*
X118600000Y52520000I0J-100000D01*
G01*
X118600000Y51470000D01*
G75*
G02*
X118500000Y51370000I-100000J0D01*
G01*
X117700000Y51370000D01*
G75*
G02*
X117600000Y51470000I0J100000D01*
G01*
G37*
G36*
G01*
X119600000Y51470000D02*
X119600000Y52520000D01*
G75*
G02*
X119700000Y52620000I100000J0D01*
G01*
X120500000Y52620000D01*
G75*
G02*
X120600000Y52520000I0J-100000D01*
G01*
X120600000Y51470000D01*
G75*
G02*
X120500000Y51370000I-100000J0D01*
G01*
X119700000Y51370000D01*
G75*
G02*
X119600000Y51470000I0J100000D01*
G01*
G37*
G04 #@! TD*
G04 #@! TO.C,U6001*
G36*
G01*
X98050000Y77255000D02*
X98050000Y77555000D01*
G75*
G02*
X98200000Y77705000I150000J0D01*
G01*
X99850000Y77705000D01*
G75*
G02*
X100000000Y77555000I0J-150000D01*
G01*
X100000000Y77255000D01*
G75*
G02*
X99850000Y77105000I-150000J0D01*
G01*
X98200000Y77105000D01*
G75*
G02*
X98050000Y77255000I0J150000D01*
G01*
G37*
G36*
G01*
X98050000Y75985000D02*
X98050000Y76285000D01*
G75*
G02*
X98200000Y76435000I150000J0D01*
G01*
X99850000Y76435000D01*
G75*
G02*
X100000000Y76285000I0J-150000D01*
G01*
X100000000Y75985000D01*
G75*
G02*
X99850000Y75835000I-150000J0D01*
G01*
X98200000Y75835000D01*
G75*
G02*
X98050000Y75985000I0J150000D01*
G01*
G37*
G36*
G01*
X98050000Y74715000D02*
X98050000Y75015000D01*
G75*
G02*
X98200000Y75165000I150000J0D01*
G01*
X99850000Y75165000D01*
G75*
G02*
X100000000Y75015000I0J-150000D01*
G01*
X100000000Y74715000D01*
G75*
G02*
X99850000Y74565000I-150000J0D01*
G01*
X98200000Y74565000D01*
G75*
G02*
X98050000Y74715000I0J150000D01*
G01*
G37*
G36*
G01*
X98050000Y73445000D02*
X98050000Y73745000D01*
G75*
G02*
X98200000Y73895000I150000J0D01*
G01*
X99850000Y73895000D01*
G75*
G02*
X100000000Y73745000I0J-150000D01*
G01*
X100000000Y73445000D01*
G75*
G02*
X99850000Y73295000I-150000J0D01*
G01*
X98200000Y73295000D01*
G75*
G02*
X98050000Y73445000I0J150000D01*
G01*
G37*
G36*
G01*
X103000000Y73445000D02*
X103000000Y73745000D01*
G75*
G02*
X103150000Y73895000I150000J0D01*
G01*
X104800000Y73895000D01*
G75*
G02*
X104950000Y73745000I0J-150000D01*
G01*
X104950000Y73445000D01*
G75*
G02*
X104800000Y73295000I-150000J0D01*
G01*
X103150000Y73295000D01*
G75*
G02*
X103000000Y73445000I0J150000D01*
G01*
G37*
G36*
G01*
X103000000Y74715000D02*
X103000000Y75015000D01*
G75*
G02*
X103150000Y75165000I150000J0D01*
G01*
X104800000Y75165000D01*
G75*
G02*
X104950000Y75015000I0J-150000D01*
G01*
X104950000Y74715000D01*
G75*
G02*
X104800000Y74565000I-150000J0D01*
G01*
X103150000Y74565000D01*
G75*
G02*
X103000000Y74715000I0J150000D01*
G01*
G37*
G36*
G01*
X103000000Y75985000D02*
X103000000Y76285000D01*
G75*
G02*
X103150000Y76435000I150000J0D01*
G01*
X104800000Y76435000D01*
G75*
G02*
X104950000Y76285000I0J-150000D01*
G01*
X104950000Y75985000D01*
G75*
G02*
X104800000Y75835000I-150000J0D01*
G01*
X103150000Y75835000D01*
G75*
G02*
X103000000Y75985000I0J150000D01*
G01*
G37*
G36*
G01*
X103000000Y77255000D02*
X103000000Y77555000D01*
G75*
G02*
X103150000Y77705000I150000J0D01*
G01*
X104800000Y77705000D01*
G75*
G02*
X104950000Y77555000I0J-150000D01*
G01*
X104950000Y77255000D01*
G75*
G02*
X104800000Y77105000I-150000J0D01*
G01*
X103150000Y77105000D01*
G75*
G02*
X103000000Y77255000I0J150000D01*
G01*
G37*
G04 #@! TD*
G04 #@! TO.C,JP2006*
G36*
G01*
X83177346Y83549999D02*
X81927346Y83549999D01*
G75*
G02*
X81827346Y83649999I0J100000D01*
G01*
X81827346Y84449999D01*
G75*
G02*
X81927346Y84549999I100000J0D01*
G01*
X83177346Y84549999D01*
G75*
G02*
X83277346Y84449999I0J-100000D01*
G01*
X83277346Y83649999D01*
G75*
G02*
X83177346Y83549999I-100000J0D01*
G01*
G37*
G36*
G01*
X83177346Y85450021D02*
X81927346Y85450021D01*
G75*
G02*
X81827346Y85550021I0J100000D01*
G01*
X81827346Y86350021D01*
G75*
G02*
X81927346Y86450021I100000J0D01*
G01*
X83177346Y86450021D01*
G75*
G02*
X83277346Y86350021I0J-100000D01*
G01*
X83277346Y85550021D01*
G75*
G02*
X83177346Y85450021I-100000J0D01*
G01*
G37*
G04 #@! TD*
G04 #@! TO.C,C9001*
G36*
G01*
X117600000Y53720000D02*
X117600000Y54770000D01*
G75*
G02*
X117700000Y54870000I100000J0D01*
G01*
X118500000Y54870000D01*
G75*
G02*
X118600000Y54770000I0J-100000D01*
G01*
X118600000Y53720000D01*
G75*
G02*
X118500000Y53620000I-100000J0D01*
G01*
X117700000Y53620000D01*
G75*
G02*
X117600000Y53720000I0J100000D01*
G01*
G37*
G36*
G01*
X119600000Y53720000D02*
X119600000Y54770000D01*
G75*
G02*
X119700000Y54870000I100000J0D01*
G01*
X120500000Y54870000D01*
G75*
G02*
X120600000Y54770000I0J-100000D01*
G01*
X120600000Y53720000D01*
G75*
G02*
X120500000Y53620000I-100000J0D01*
G01*
X119700000Y53620000D01*
G75*
G02*
X119600000Y53720000I0J100000D01*
G01*
G37*
G04 #@! TD*
G04 #@! TO.C,R7001*
G36*
G01*
X122225000Y71988405D02*
X122225000Y72768405D01*
G75*
G02*
X122295000Y72838405I70000J0D01*
G01*
X122855000Y72838405D01*
G75*
G02*
X122925000Y72768405I0J-70000D01*
G01*
X122925000Y71988405D01*
G75*
G02*
X122855000Y71918405I-70000J0D01*
G01*
X122295000Y71918405D01*
G75*
G02*
X122225000Y71988405I0J70000D01*
G01*
G37*
G36*
G01*
X123825000Y71988405D02*
X123825000Y72768405D01*
G75*
G02*
X123895000Y72838405I70000J0D01*
G01*
X124455000Y72838405D01*
G75*
G02*
X124525000Y72768405I0J-70000D01*
G01*
X124525000Y71988405D01*
G75*
G02*
X124455000Y71918405I-70000J0D01*
G01*
X123895000Y71918405D01*
G75*
G02*
X123825000Y71988405I0J70000D01*
G01*
G37*
G04 #@! TD*
G04 #@! TO.C,JP4003*
G36*
G01*
X17049999Y58134000D02*
X17049999Y59384000D01*
G75*
G02*
X17149999Y59484000I100000J0D01*
G01*
X17949999Y59484000D01*
G75*
G02*
X18049999Y59384000I0J-100000D01*
G01*
X18049999Y58134000D01*
G75*
G02*
X17949999Y58034000I-100000J0D01*
G01*
X17149999Y58034000D01*
G75*
G02*
X17049999Y58134000I0J100000D01*
G01*
G37*
G36*
G01*
X18950021Y58134000D02*
X18950021Y59384000D01*
G75*
G02*
X19050021Y59484000I100000J0D01*
G01*
X19850021Y59484000D01*
G75*
G02*
X19950021Y59384000I0J-100000D01*
G01*
X19950021Y58134000D01*
G75*
G02*
X19850021Y58034000I-100000J0D01*
G01*
X19050021Y58034000D01*
G75*
G02*
X18950021Y58134000I0J100000D01*
G01*
G37*
G04 #@! TD*
G04 #@! TO.C,Q4001*
G36*
G01*
X20872000Y75566000D02*
X20872000Y74866000D01*
G75*
G02*
X20622000Y74616000I-250000J0D01*
G01*
X18922000Y74616000D01*
G75*
G02*
X18672000Y74866000I0J250000D01*
G01*
X18672000Y75566000D01*
G75*
G02*
X18922000Y75816000I250000J0D01*
G01*
X20622000Y75816000D01*
G75*
G02*
X20872000Y75566000I0J-250000D01*
G01*
G37*
G36*
G01*
X16672000Y77096000D02*
X16672000Y74846000D01*
G75*
G02*
X16422000Y74596000I-250000J0D01*
G01*
X13872000Y74596000D01*
G75*
G02*
X13622000Y74846000I0J250000D01*
G01*
X13622000Y77096000D01*
G75*
G02*
X13872000Y77346000I250000J0D01*
G01*
X16422000Y77346000D01*
G75*
G02*
X16672000Y77096000I0J-250000D01*
G01*
G37*
G36*
G01*
X16672000Y80146000D02*
X16672000Y77896000D01*
G75*
G02*
X16422000Y77646000I-250000J0D01*
G01*
X13872000Y77646000D01*
G75*
G02*
X13622000Y77896000I0J250000D01*
G01*
X13622000Y80146000D01*
G75*
G02*
X13872000Y80396000I250000J0D01*
G01*
X16422000Y80396000D01*
G75*
G02*
X16672000Y80146000I0J-250000D01*
G01*
G37*
G36*
G01*
X13322000Y77096000D02*
X13322000Y74846000D01*
G75*
G02*
X13072000Y74596000I-250000J0D01*
G01*
X10522000Y74596000D01*
G75*
G02*
X10272000Y74846000I0J250000D01*
G01*
X10272000Y77096000D01*
G75*
G02*
X10522000Y77346000I250000J0D01*
G01*
X13072000Y77346000D01*
G75*
G02*
X13322000Y77096000I0J-250000D01*
G01*
G37*
G36*
G01*
X13322000Y80146000D02*
X13322000Y77896000D01*
G75*
G02*
X13072000Y77646000I-250000J0D01*
G01*
X10522000Y77646000D01*
G75*
G02*
X10272000Y77896000I0J250000D01*
G01*
X10272000Y80146000D01*
G75*
G02*
X10522000Y80396000I250000J0D01*
G01*
X13072000Y80396000D01*
G75*
G02*
X13322000Y80146000I0J-250000D01*
G01*
G37*
G36*
G01*
X20872000Y80126000D02*
X20872000Y79426000D01*
G75*
G02*
X20622000Y79176000I-250000J0D01*
G01*
X18922000Y79176000D01*
G75*
G02*
X18672000Y79426000I0J250000D01*
G01*
X18672000Y80126000D01*
G75*
G02*
X18922000Y80376000I250000J0D01*
G01*
X20622000Y80376000D01*
G75*
G02*
X20872000Y80126000I0J-250000D01*
G01*
G37*
G04 #@! TD*
G04 #@! TO.C,R4003*
G36*
G01*
X24225000Y51843000D02*
X23445000Y51843000D01*
G75*
G02*
X23375000Y51913000I0J70000D01*
G01*
X23375000Y52473000D01*
G75*
G02*
X23445000Y52543000I70000J0D01*
G01*
X24225000Y52543000D01*
G75*
G02*
X24295000Y52473000I0J-70000D01*
G01*
X24295000Y51913000D01*
G75*
G02*
X24225000Y51843000I-70000J0D01*
G01*
G37*
G36*
G01*
X24225000Y53443000D02*
X23445000Y53443000D01*
G75*
G02*
X23375000Y53513000I0J70000D01*
G01*
X23375000Y54073000D01*
G75*
G02*
X23445000Y54143000I70000J0D01*
G01*
X24225000Y54143000D01*
G75*
G02*
X24295000Y54073000I0J-70000D01*
G01*
X24295000Y53513000D01*
G75*
G02*
X24225000Y53443000I-70000J0D01*
G01*
G37*
G04 #@! TD*
G04 #@! TO.C,R8004*
G36*
G01*
X43850000Y33190000D02*
X43850000Y33970000D01*
G75*
G02*
X43920000Y34040000I70000J0D01*
G01*
X44480000Y34040000D01*
G75*
G02*
X44550000Y33970000I0J-70000D01*
G01*
X44550000Y33190000D01*
G75*
G02*
X44480000Y33120000I-70000J0D01*
G01*
X43920000Y33120000D01*
G75*
G02*
X43850000Y33190000I0J70000D01*
G01*
G37*
G36*
G01*
X45450000Y33190000D02*
X45450000Y33970000D01*
G75*
G02*
X45520000Y34040000I70000J0D01*
G01*
X46080000Y34040000D01*
G75*
G02*
X46150000Y33970000I0J-70000D01*
G01*
X46150000Y33190000D01*
G75*
G02*
X46080000Y33120000I-70000J0D01*
G01*
X45520000Y33120000D01*
G75*
G02*
X45450000Y33190000I0J70000D01*
G01*
G37*
G04 #@! TD*
G04 #@! TO.C,C10002*
G36*
G01*
X63625000Y70075000D02*
X62575000Y70075000D01*
G75*
G02*
X62475000Y70175000I0J100000D01*
G01*
X62475000Y70975000D01*
G75*
G02*
X62575000Y71075000I100000J0D01*
G01*
X63625000Y71075000D01*
G75*
G02*
X63725000Y70975000I0J-100000D01*
G01*
X63725000Y70175000D01*
G75*
G02*
X63625000Y70075000I-100000J0D01*
G01*
G37*
G36*
G01*
X63625000Y72075000D02*
X62575000Y72075000D01*
G75*
G02*
X62475000Y72175000I0J100000D01*
G01*
X62475000Y72975000D01*
G75*
G02*
X62575000Y73075000I100000J0D01*
G01*
X63625000Y73075000D01*
G75*
G02*
X63725000Y72975000I0J-100000D01*
G01*
X63725000Y72175000D01*
G75*
G02*
X63625000Y72075000I-100000J0D01*
G01*
G37*
G04 #@! TD*
G04 #@! TO.C,R10001*
G36*
G01*
X61091595Y66775000D02*
X60311595Y66775000D01*
G75*
G02*
X60241595Y66845000I0J70000D01*
G01*
X60241595Y67405000D01*
G75*
G02*
X60311595Y67475000I70000J0D01*
G01*
X61091595Y67475000D01*
G75*
G02*
X61161595Y67405000I0J-70000D01*
G01*
X61161595Y66845000D01*
G75*
G02*
X61091595Y66775000I-70000J0D01*
G01*
G37*
G36*
G01*
X61091595Y68375000D02*
X60311595Y68375000D01*
G75*
G02*
X60241595Y68445000I0J70000D01*
G01*
X60241595Y69005000D01*
G75*
G02*
X60311595Y69075000I70000J0D01*
G01*
X61091595Y69075000D01*
G75*
G02*
X61161595Y69005000I0J-70000D01*
G01*
X61161595Y68445000D01*
G75*
G02*
X61091595Y68375000I-70000J0D01*
G01*
G37*
G04 #@! TD*
G04 #@! TO.C,C9002*
G36*
G01*
X117600000Y49220000D02*
X117600000Y50270000D01*
G75*
G02*
X117700000Y50370000I100000J0D01*
G01*
X118500000Y50370000D01*
G75*
G02*
X118600000Y50270000I0J-100000D01*
G01*
X118600000Y49220000D01*
G75*
G02*
X118500000Y49120000I-100000J0D01*
G01*
X117700000Y49120000D01*
G75*
G02*
X117600000Y49220000I0J100000D01*
G01*
G37*
G36*
G01*
X119600000Y49220000D02*
X119600000Y50270000D01*
G75*
G02*
X119700000Y50370000I100000J0D01*
G01*
X120500000Y50370000D01*
G75*
G02*
X120600000Y50270000I0J-100000D01*
G01*
X120600000Y49220000D01*
G75*
G02*
X120500000Y49120000I-100000J0D01*
G01*
X119700000Y49120000D01*
G75*
G02*
X119600000Y49220000I0J100000D01*
G01*
G37*
G04 #@! TD*
G04 #@! TO.C,R5004*
G36*
G01*
X79589000Y68973000D02*
X78809000Y68973000D01*
G75*
G02*
X78739000Y69043000I0J70000D01*
G01*
X78739000Y69603000D01*
G75*
G02*
X78809000Y69673000I70000J0D01*
G01*
X79589000Y69673000D01*
G75*
G02*
X79659000Y69603000I0J-70000D01*
G01*
X79659000Y69043000D01*
G75*
G02*
X79589000Y68973000I-70000J0D01*
G01*
G37*
G36*
G01*
X79589000Y70573000D02*
X78809000Y70573000D01*
G75*
G02*
X78739000Y70643000I0J70000D01*
G01*
X78739000Y71203000D01*
G75*
G02*
X78809000Y71273000I70000J0D01*
G01*
X79589000Y71273000D01*
G75*
G02*
X79659000Y71203000I0J-70000D01*
G01*
X79659000Y70643000D01*
G75*
G02*
X79589000Y70573000I-70000J0D01*
G01*
G37*
G04 #@! TD*
M02*
